<svg width="77" height="79" viewBox="0 0 77 79" version="1.1" xmlns="http://www.w3.org/2000/svg" xmlns:xlink="http://www.w3.org/1999/xlink">
<title>Vector</title>
<desc>Created using Figma</desc>
<g id="Canvas" transform="translate(-10712 5433)">
<g id="Vector">
<use xlink:href="#path0_fill" transform="translate(10712 -5433)" fill="#465EDB"/>
<use xlink:href="#path1_fill" transform="translate(10712 -5433)" fill="#465EDB"/>
<use xlink:href="#path2_fill" transform="translate(10712 -5433)" fill="#465EDB"/>
<use xlink:href="#path3_fill" transform="translate(10712 -5433)" fill="#465EDB"/>
<use xlink:href="#path4_fill" transform="translate(10712 -5433)" fill="#465EDB"/>
</g>
</g>
<defs>
<path id="path0_fill" d="M 38.1747 79C 34.5638 79 31.0339 77.9382 28.0315 75.9489C 25.0291 73.9595 22.6889 71.132 21.3071 67.8239C 19.9252 64.5157 19.5637 60.8755 20.2682 57.3636C 20.9726 53.8517 22.7115 50.6258 25.2648 48.0938C 27.8182 45.5619 31.0713 43.8377 34.6129 43.1391C 38.1545 42.4405 41.8254 42.7991 45.1615 44.1694C 48.4976 45.5396 51.349 47.8601 53.3552 50.8374C 55.3613 53.8146 56.4321 57.3149 56.4321 60.8956C 56.4233 65.6945 54.497 70.2944 51.0749 73.6877C 47.6529 77.0811 43.0142 78.9913 38.1747 79ZM 38.1747 46.0829C 35.2203 46.0829 32.3322 46.9517 29.8757 48.5793C 27.4192 50.207 25.5046 52.5204 24.374 55.227C 23.2433 57.9337 22.9475 60.912 23.5239 63.7854C 24.1003 66.6588 25.523 69.2982 27.6121 71.3697C 29.7012 73.4413 32.3629 74.8521 35.2605 75.4237C 38.1582 75.9953 41.1617 75.7019 43.8912 74.5808C 46.6207 73.4596 48.9537 71.561 50.5951 69.1251C 52.2365 66.6891 53.1126 63.8253 53.1126 60.8956C 53.1038 56.9697 51.5272 53.2071 48.7277 50.431C 45.9282 47.655 42.1338 46.0916 38.1747 46.0829Z"/>
<path id="path1_fill" d="M 44.8139 62.5464L 31.5358 62.5464C 31.0956 62.5464 30.6734 62.3729 30.3622 62.0642C 30.0509 61.7555 29.876 61.3368 29.876 60.9002C 29.876 60.4635 30.0509 60.0448 30.3622 59.7361C 30.6734 59.4274 31.0956 59.2539 31.5358 59.2539L 44.8139 59.2539C 45.2541 59.2539 45.6762 59.4274 45.9875 59.7361C 46.2987 60.0448 46.4736 60.4635 46.4736 60.9002C 46.4736 61.3368 46.2987 61.7555 45.9875 62.0642C 45.6762 62.3729 45.2541 62.5464 44.8139 62.5464Z"/>
<path id="path2_fill" d="M 38.1741 69.1272C 37.7339 69.1272 37.3117 68.9538 37.0005 68.6452C 36.6892 68.3365 36.5143 67.9179 36.5143 67.4814L 36.5143 54.3146C 36.5143 53.8781 36.6892 53.4594 37.0005 53.1508C 37.3117 52.8421 37.7339 52.6687 38.1741 52.6687C 38.6143 52.6687 39.0364 52.8421 39.3477 53.1508C 39.6589 53.4594 39.8338 53.8781 39.8338 54.3146L 39.8338 67.4814C 39.8338 67.9179 39.6589 68.3365 39.3477 68.6452C 39.0364 68.9538 38.6143 69.1272 38.1741 69.1272Z"/>
<path id="path3_fill" d="M 68.0502 62.5404L 61.4111 62.5404C 60.9709 62.5404 60.5488 62.3669 60.2375 62.0583C 59.9263 61.7496 59.7514 61.331 59.7514 60.8945C 59.7514 60.458 59.9263 60.0394 60.2375 59.7307C 60.5488 59.4221 60.9709 59.2487 61.4111 59.2487L 68.0502 59.2487C 69.3708 59.2487 70.6373 58.7285 71.5711 57.8025C 72.5049 56.8765 73.0295 55.6206 73.0295 54.3111L 73.0295 24.6857C 73.0295 23.3762 72.5049 22.1203 71.5711 21.1943C 70.6373 20.2684 69.3708 19.7482 68.0502 19.7482L 29.6765 19.7482C 27.9355 19.7469 26.239 19.2026 24.8271 18.1924C 23.4152 17.1823 22.3594 15.7574 21.8093 14.1194L 21.5105 13.2635C 21.1748 12.2923 20.5383 11.4511 19.6918 10.8599C 18.8453 10.2688 17.832 9.95796 16.7968 9.9718L 8.2988 9.9718C 6.97822 9.9718 5.71174 10.492 4.77794 11.418C 3.84414 12.3439 3.31952 13.5998 3.31952 14.9094L 3.31952 54.4098C 3.31952 55.7194 3.84414 56.9753 4.77794 57.9013C 5.71174 58.8272 6.97822 59.3474 8.2988 59.3474L 14.9378 59.3474C 15.378 59.3474 15.8002 59.5208 16.1115 59.8295C 16.4227 60.1381 16.5976 60.5567 16.5976 60.9933C 16.5976 61.4298 16.4227 61.8484 16.1115 62.157C 15.8002 62.4657 15.378 62.6391 14.9378 62.6391L 8.2988 62.6391C 6.09782 62.6391 3.98701 61.7721 2.43068 60.2288C 0.874355 58.6855 0 56.5924 0 54.4098L 0 14.9094C 9.43465e-14 12.7268 0.874355 10.6337 2.43068 9.09041C 3.98701 7.54713 6.09782 6.6801 8.2988 6.6801L 16.7968 6.6801C 18.5378 6.68141 20.2343 7.22567 21.6462 8.23584C 23.0581 9.24601 24.1139 10.6709 24.664 12.3089L 24.9628 13.1648C 25.2985 14.136 25.935 14.9772 26.7815 15.5683C 27.628 16.1595 28.6413 16.4703 29.6765 16.4565L 68.0502 16.4565C 70.2512 16.4565 72.362 17.3235 73.9183 18.8668C 75.4746 20.4101 76.349 22.5032 76.349 24.6857L 76.349 54.3111C 76.349 56.4936 75.4746 58.5868 73.9183 60.13C 72.362 61.6733 70.2512 62.5404 68.0502 62.5404Z"/>
<path id="path4_fill" d="M 71.3693 19.7502C 70.9291 19.7502 70.507 19.5768 70.1957 19.2682C 69.8845 18.9595 69.7096 18.5409 69.7096 18.1044L 69.7096 8.22927C 69.7096 6.91974 69.185 5.66383 68.2512 4.73786C 67.3174 3.81188 66.0509 3.29171 64.7303 3.29171L 11.6179 3.29171C 10.2974 3.29171 9.03088 3.81188 8.09708 4.73786C 7.16329 5.66383 6.63866 6.91974 6.63866 8.22927C 6.63866 8.66577 6.46377 9.08438 6.15251 9.39304C 5.84124 9.70169 5.4191 9.87512 4.9789 9.87512C 4.53871 9.87512 4.11657 9.70169 3.8053 9.39304C 3.49403 9.08438 3.31914 8.66577 3.31914 8.22927C 3.31914 6.04673 4.1935 3.9536 5.74983 2.41032C 7.30615 0.867028 9.41697 0 11.6179 0L 64.7303 0C 66.9313 0 69.0421 0.867028 70.5984 2.41032C 72.1547 3.9536 73.0291 6.04673 73.0291 8.22927L 73.0291 18.1044C 73.0291 18.5409 72.8542 18.9595 72.5429 19.2682C 72.2317 19.5768 71.8095 19.7502 71.3693 19.7502Z"/>
</defs>
</svg>
