<svg width="20" height="20" viewBox="0 0 20 20" version="1.1" xmlns="http://www.w3.org/2000/svg" xmlns:xlink="http://www.w3.org/1999/xlink">
<title>Vector</title>
<desc>Created using Figma</desc>
<g id="Canvas" transform="translate(-14878 4492)">
<g id="Vector">
<use xlink:href="#path0_fill" transform="translate(14878 -4492)" fill="#A0A1B5"/>
<use xlink:href="#path1_fill" transform="translate(14878 -4492)" fill="#A0A1B5"/>
<use xlink:href="#path2_fill" transform="translate(14878 -4492)" fill="#A0A1B5"/>
<use xlink:href="#path3_fill" transform="translate(14878 -4492)" fill="#A0A1B5"/>
</g>
</g>
<defs>
<path id="path0_fill" d="M 3.33334 3.33252C 3.72168 3.33252 4.05751 3.60002 4.14585 3.97835L 4.95752 7.50002L 15.8334 7.50002C 16.0901 7.50002 16.3326 7.61835 16.4901 7.82085C 16.6476 8.02252 16.7042 8.28752 16.6417 8.53585L 14.9751 15.2025C 14.8817 15.5734 14.5492 15.8334 14.1667 15.8334L 5.83335 15.8334C 5.44502 15.8334 5.10835 15.5659 5.02085 15.1875L 2.67001 4.99919L 0 4.99919L 0 3.33252L 3.33334 3.33252ZM 6.49586 14.1667L 13.5159 14.1667L 14.7659 9.16669L 5.34252 9.16669L 6.49586 14.1667Z"/>
<path id="path1_fill" d="M 13.3333 20C 12.4128 20 11.6666 19.2538 11.6666 18.3333C 11.6666 17.4129 12.4128 16.6667 13.3333 16.6667C 14.2538 16.6667 15 17.4129 15 18.3333C 15 19.2538 14.2538 20 13.3333 20Z"/>
<path id="path2_fill" d="M 6.66662 20C 5.74614 20 4.99994 19.2538 4.99994 18.3333C 4.99994 17.4129 5.74614 16.6667 6.66662 16.6667C 7.58709 16.6667 8.33329 17.4129 8.33329 18.3333C 8.33329 19.2538 7.58709 20 6.66662 20Z"/>
<path id="path3_fill" d="M 15.8333 6.66667L 15.8333 4.16667L 13.3333 4.16667L 13.3333 2.5L 15.8333 2.5L 15.8333 0L 17.5 0L 17.5 2.5L 20 2.5L 20 4.16667L 17.5 4.16667L 17.5 6.66667L 15.8333 6.66667Z"/>
</defs>
</svg>
