<svg width="16" height="16" viewBox="0 0 16 16" fill="none" xmlns="http://www.w3.org/2000/svg">
<rect width="16" height="16" rx="3.68" fill="#5181B8"/>
<path d="M10.7297 2.50313C10.6903 2.7 10.5328 3.03469 10.2572 3.4875C10.0603 3.82219 9.82406 4.19625 9.54844 4.62938C9.31219 4.98375 9.17437 5.16094 9.17437 5.16094C9.09562 5.27906 9.05625 5.3775 9.05625 5.43656C9.05625 5.51531 9.09562 5.59406 9.17437 5.67281L9.35156 5.86969C10.2966 6.85406 10.8281 7.52344 10.9462 7.87781C10.9856 8.03531 10.9659 8.17313 10.8872 8.25188C10.8084 8.33063 10.71 8.37 10.5525 8.37H9.39094C9.23344 8.37 9.11531 8.33063 8.99719 8.23219C8.91844 8.19281 8.76094 8.055 8.56406 7.81875C8.36719 7.5825 8.19 7.38563 8.0325 7.22813C7.50094 6.73594 7.10719 6.48 6.87094 6.48C6.75281 6.48 6.67406 6.49969 6.63469 6.53906C6.59531 6.57844 6.57562 6.67688 6.57562 6.795C6.55594 6.89344 6.55594 7.09031 6.55594 7.40531V7.91719C6.55594 8.07469 6.51656 8.19281 6.43781 8.25188C6.31969 8.33063 6.08344 8.37 5.72906 8.37C5.09906 8.37 4.48875 8.19281 3.85875 7.81875C3.22875 7.46438 2.6775 6.93281 2.205 6.24375C1.75219 5.65313 1.37812 5.04281 1.08281 4.41281C0.846562 3.94031 0.649687 3.50719 0.511875 3.09375C0.413437 2.77875 0.374062 2.5425 0.374062 2.40469C0.374062 2.18813 0.492187 2.07 0.767812 2.07H1.92937C2.06719 2.07 2.16562 2.10938 2.24437 2.16844C2.32312 2.24719 2.38219 2.36531 2.44125 2.52281C2.61844 3.05438 2.835 3.56625 3.11062 4.05844C3.34687 4.53094 3.58312 4.905 3.81937 5.18063C4.05562 5.47594 4.23281 5.61375 4.37062 5.61375C4.44937 5.61375 4.48875 5.59406 4.52812 5.535C4.5675 5.47594 4.58719 5.35781 4.58719 5.18063V3.46781C4.5675 3.27094 4.52812 3.07406 4.44937 2.91656C4.41 2.83781 4.33125 2.73938 4.2525 2.62125C4.15406 2.50313 4.11469 2.42438 4.11469 2.34563C4.11469 2.26688 4.13437 2.20781 4.19344 2.14875C4.2525 2.10938 4.33125 2.07 4.41 2.07H6.24094C6.35906 2.07 6.43781 2.10938 6.47719 2.16844C6.51656 2.24719 6.55594 2.34563 6.55594 2.50313V4.78688C6.55594 4.905 6.57562 5.00344 6.615 5.04281C6.65437 5.10188 6.69375 5.12156 6.75281 5.12156C6.81187 5.12156 6.89062 5.10188 6.96937 5.0625C7.04812 5.02313 7.14656 4.92469 7.28437 4.76719C7.52062 4.49156 7.77656 4.15688 8.0325 3.74344C8.19 3.46781 8.36719 3.15281 8.52469 2.79844L8.72156 2.40469C8.80031 2.18813 8.9775 2.07 9.21375 2.07H10.3753C10.6903 2.07 10.8084 2.2275 10.7297 2.50313Z" transform="translate(2.40002 3.2002)" fill="white"/>
</svg>
