<svg width="10" height="10" viewBox="0 0 10 10" version="1.1" xmlns="http://www.w3.org/2000/svg" xmlns:xlink="http://www.w3.org/1999/xlink">
<title>Vector</title>
<desc>Created using Figma</desc>
<g id="Canvas" transform="translate(-9326 2632)">
<g id="Vector">
<use xlink:href="#path0_fill" transform="translate(9326 -2632)" fill="#FFFFFF"/>
<use xlink:href="#path1_fill" transform="translate(9326 -2632)" fill="#FFFFFF"/>
</g>
</g>
<defs>
<path id="path0_fill" d="M 9.875 0.0172291C 9.79167 -0.0243657 9.70833 0.0172291 9.625 0.0588239C 8.08333 1.88899 5.83333 2.92886 3.45833 2.92886L 3.125 2.92886C 2.83333 2.92886 2.625 3.09524 2.54167 3.34481L 1.04167 3.34481C 0.458333 3.34481 0 3.80236 0 4.38468L 0 5.63253C 0 6.21485 0.458333 6.6724 1.04167 6.6724L 2.54167 6.6724C 2.625 6.92197 2.875 7.08834 3.125 7.08834L 3.45833 7.08834C 5.83333 7.08834 8.08333 8.12821 9.625 9.91679C 9.66667 9.95838 9.70833 9.99998 9.79167 9.99998C 9.83333 9.99998 9.83333 9.99998 9.875 9.99998C 9.95833 9.95839 10 9.8752 10 9.79201L 10 0.225203C 10 0.142014 9.95833 0.0588239 9.875 0.0172291ZM 1.25 5.21658C 1.25 5.34136 1.16667 5.42455 1.04167 5.42455C 0.916667 5.42455 0.833333 5.34136 0.833333 5.21658L 0.833333 4.80063C 0.833333 4.67585 0.916667 4.59266 1.04167 4.59266C 1.16667 4.59266 1.25 4.67585 1.25 4.80063L 1.25 5.21658ZM 2.08333 5.21658C 2.08333 5.34136 2 5.42455 1.875 5.42455C 1.75 5.42455 1.66667 5.34136 1.66667 5.21658L 1.66667 4.80063C 1.66667 4.67585 1.75 4.59266 1.875 4.59266C 2 4.59266 2.08333 4.67585 2.08333 4.80063L 2.08333 5.21658Z"/>
<path id="path1_fill" d="M 4.33398 8.87694C 4.25065 8.75216 4.16732 8.62737 4.08398 8.50259C 3.91732 8.21142 3.83398 7.87867 3.87565 7.54591C 3.75065 7.54591 3.62565 7.50431 3.45898 7.50431L 3.12565 7.50431C 2.79232 7.50431 2.50065 7.33793 2.29232 7.08836L 1.83398 7.08836L 2.37565 9.1681C 2.50065 9.66724 2.91732 10 3.37565 10L 3.95898 10C 4.16732 10 4.37565 9.87522 4.50065 9.66724C 4.62565 9.45927 4.62565 9.25129 4.45898 9.00173C 4.45898 9.04332 4.37565 8.91854 4.33398 8.87694Z"/>
</defs>
</svg>
