<svg width="16" height="17" viewBox="0 0 16 17" version="1.1" xmlns="http://www.w3.org/2000/svg" xmlns:xlink="http://www.w3.org/1999/xlink">
<title>Facebook</title>
<desc>Created using Figma</desc>
<g id="Canvas" transform="translate(-8905 3886)">
<g id="Facebook">
<use xlink:href="#path0_fill" transform="translate(8905 -3885.07)" fill="#3B5998"/>
</g>
</g>
<defs>
<path id="path0_fill" d="M 0.161416 1.73677C 0 2.18157 0 2.73823 0 3.85091L 0 12.0844C 0 13.1971 0 13.7537 0.161416 14.1986C 0.42619 14.9277 0.991467 15.5022 1.70859 15.7713C 2.1469 15.9353 2.69431 15.9353 3.78914 15.9353L 7.75309 15.9353L 7.75309 9.65774L 5.81865 9.65774L 5.81865 7.21129L 7.75309 7.21129L 7.75309 5.40709C 7.75309 3.31337 8.92448 2.17315 10.635 2.17315C 11.4542 2.17315 12.1585 2.23961 12.364 2.26943L 12.364 4.45782L 11.1773 4.45847C 10.2471 4.45847 10.0672 4.94088 10.0672 5.64927L 10.0672 7.21129L 12.2861 7.21129L 11.9971 9.65774L 10.0672 9.65774L 10.0672 15.9353L 12.2102 15.9353C 13.3057 15.9353 13.8531 15.9353 14.2908 15.7713C 15.0079 15.5022 15.5738 14.9277 15.8379 14.1986C 16 13.7537 16 13.1971 16 12.0844L 16 3.85091C 16 2.73823 16 2.18157 15.8379 1.73677C 15.5738 1.00763 15.0079 0.433138 14.2908 0.164048C 13.8531 0 13.3057 0 12.2102 0L 3.78914 0C 2.69431 0 2.1469 0 1.70859 0.164048C 0.991467 0.433138 0.42619 1.00763 0.161416 1.73677Z"/>
</defs>
</svg>
