<svg width="22" height="19" viewBox="0 0 22 19" version="1.1" xmlns="http://www.w3.org/2000/svg" xmlns:xlink="http://www.w3.org/1999/xlink">
<title>Vector</title>
<desc>Created using Figma</desc>
<g id="Canvas" transform="translate(-9004 2056)">
<g id="Vector">
<use xlink:href="#path0_fill" transform="translate(9004 -2056)" fill="#465EDB"/>
</g>
</g>
<defs>
<path id="path0_fill" d="M 21.397 8.194C 16.226 5.95 12.462 4.272 9.70498 3.042C 4.32798 0.645 2.88198 0 1.87498 0C 1.01098 0 0.585982 0.524 0.445982 0.695C -0.0830182 1.347 -0.147018 2.268 0.283982 2.985L 3.95998 9.112L 0.284982 15.237C -0.147018 15.955 -0.0820182 16.875 0.446982 17.527C 0.586982 17.7 1.01198 18.224 1.87698 18.224C 2.88298 18.224 4.32298 17.581 9.67598 15.194C 12.436 13.963 16.208 12.28 21.398 10.029C 21.763 9.869 21.999 9.509 21.999 9.111C 21.999 8.713 21.763 8.352 21.397 8.194ZM 2.08198 2.026C 2.88198 2.19 5.01098 3.14 8.88998 4.87C 10.8 5.722 13.202 6.792 16.207 8.111L 5.69198 8.111L 2.08198 2.026ZM 8.86098 13.367C 4.91898 15.126 2.79198 16.074 2.03398 16.207L 5.69198 10.11L 16.208 10.11C 13.187 11.438 10.775 12.513 8.86098 13.367Z"/>
</defs>
</svg>
