<svg width="20" height="13" viewBox="0 0 20 13" version="1.1" xmlns="http://www.w3.org/2000/svg" xmlns:xlink="http://www.w3.org/1999/xlink">
<title>VK</title>
<desc>Created using Figma</desc>
<g id="Canvas" transform="translate(-8558 4194)">
<g id="VK">
<use xlink:href="#path0_fill" transform="translate(8558 -4193.94)" fill="#DCDCE3"/>
</g>
</g>
<defs>
<path id="path0_fill" fill-rule="evenodd" d="M 19.5395 0.802008C 19.6802 0.330239 19.5395 0 18.883 0L 16.6946 0C 16.1318 0 15.8817 0.298787 15.741 0.629026C 15.741 0.629026 14.6312 3.36529 13.0524 5.12656C 12.5366 5.64551 12.3177 5.80276 12.0363 5.80276C 11.8957 5.80276 11.6924 5.64551 11.6924 5.17374L 11.6924 0.802008C 11.6924 0.235885 11.5361 0 11.0672 0L 7.62823 0C 7.28433 0 7.06549 0.267336 7.06549 0.503221C 7.06549 1.03789 7.84707 1.1637 7.94086 2.64191L 7.94086 5.88139C 7.94086 6.58905 7.81581 6.71485 7.53444 6.71485C 6.79975 6.71485 4.98648 3.97859 3.92353 0.833459C 3.70469 0.25161 3.50148 0 2.93874 0L 0.750317 0C 0.125053 0 0 0.298787 0 0.629026C 0 1.21087 0.734686 4.10439 3.45459 7.92572C 5.26785 10.5362 7.81581 11.9515 10.1293 11.9515C 11.5205 11.9515 11.6924 11.637 11.6924 11.1023L 11.6924 9.12087C 11.6924 8.49185 11.8175 8.36604 12.2708 8.36604C 12.5991 8.36604 13.1462 8.5233 14.4436 9.78135C 15.9286 11.2753 16.1787 11.9515 17.0072 11.9515L 19.1956 11.9515C 19.8209 11.9515 20.1335 11.637 19.9459 11.0237C 19.7427 10.4104 19.0393 9.51402 18.1014 8.44467C 17.5856 7.83137 16.8196 7.18662 16.6008 6.85638C 16.2725 6.43179 16.3663 6.24308 16.6008 5.88139C 16.6008 5.86567 19.2738 2.09151 19.5395 0.802008Z"/>
</defs>
</svg>
