<svg width="12" height="13" viewBox="0 0 12 13" fill="none" xmlns="http://www.w3.org/2000/svg">
<path d="M10.9219 5.77344C11.1328 6.14844 11.25 6.54688 11.25 6.94531C11.25 7.48438 11.0391 7.95312 10.6641 8.35156C10.2656 8.77344 9.79688 8.96094 9.23438 8.96094H8.39062C8.53125 9.33594 8.60156 9.6875 8.60156 10.0391C8.60156 10.8828 8.39062 11.4922 7.99219 11.9141C7.59375 12.3125 7.05469 12.5 6.35156 12.5C5.90625 12.5 5.55469 12.2891 5.32031 11.8438C5.17969 11.6094 5.03906 11.1875 4.89844 10.625C4.80469 10.25 4.73438 10.0156 4.6875 9.94531C4.5 9.78125 4.24219 9.45312 3.86719 8.96094C3.49219 8.46875 3.21094 8.14062 3.07031 8H2.90625C2.8125 8.11719 2.71875 8.21094 2.625 8.28125C2.50781 8.35156 2.39062 8.375 2.25 8.375H0.75C0.539062 8.375 0.351562 8.30469 0.210938 8.16406C0.0703125 8.02344 0 7.83594 0 7.625V2C0 1.8125 0.0703125 1.625 0.210938 1.48438C0.351562 1.34375 0.539062 1.25 0.75 1.25H2.25C2.4375 1.25 2.60156 1.32031 2.74219 1.4375H3C3.16406 1.4375 3.35156 1.41406 3.53906 1.34375C3.65625 1.32031 3.84375 1.25 4.125 1.13281C4.59375 0.945312 4.99219 0.804688 5.32031 0.710938C5.88281 0.570312 6.49219 0.5 7.14844 0.5H7.66406C8.53125 0.5 9.1875 0.710938 9.65625 1.13281C10.0781 1.50781 10.2891 2.04688 10.3125 2.72656C10.4531 2.96094 10.5703 3.19531 10.6406 3.47656C10.7109 3.75781 10.7344 4.03906 10.7109 4.29688C10.9453 4.76562 11.0156 5.25781 10.9219 5.77344ZM1.5 7.4375C1.64062 7.4375 1.78125 7.39062 1.89844 7.27344C1.99219 7.17969 2.0625 7.03906 2.0625 6.875C2.0625 6.73438 1.99219 6.59375 1.89844 6.47656C1.78125 6.38281 1.64062 6.3125 1.5 6.3125C1.33594 6.3125 1.19531 6.38281 1.10156 6.47656C0.984375 6.59375 0.9375 6.73438 0.9375 6.875C0.9375 7.03906 0.984375 7.17969 1.10156 7.27344C1.19531 7.39062 1.33594 7.4375 1.5 7.4375ZM9.23438 7.83594C9.46875 7.83594 9.67969 7.74219 9.86719 7.55469C10.0312 7.36719 10.125 7.17969 10.125 6.94531C10.125 6.73438 10.0547 6.52344 9.9375 6.33594C9.82031 6.14844 9.70312 6.05469 9.60938 6.05469C9.77344 5.86719 9.84375 5.63281 9.84375 5.32812C9.84375 5.02344 9.72656 4.74219 9.49219 4.50781C9.60938 4.27344 9.63281 4.03906 9.5625 3.75781C9.46875 3.47656 9.35156 3.28906 9.16406 3.17188C9.23438 2.63281 9.14062 2.23438 8.90625 1.97656C8.67188 1.74219 8.34375 1.625 7.89844 1.625H7.03125C6.60938 1.625 6.21094 1.69531 5.78906 1.78906C5.53125 1.85938 5.17969 1.97656 4.71094 2.11719C4.33594 2.25781 4.05469 2.35156 3.86719 2.39844C3.53906 2.49219 3.25781 2.51562 3 2.51562V6.875H3.25781C3.44531 6.875 3.70312 7.03906 4.00781 7.34375C4.17188 7.53125 4.42969 7.83594 4.78125 8.30469C5.10938 8.75 5.32031 9.03125 5.46094 9.14844C5.625 9.33594 5.76562 9.54688 5.85938 9.78125C5.90625 9.94531 5.95312 10.1797 6.02344 10.4844C6.07031 10.7188 6.09375 10.8828 6.14062 10.9766C6.1875 11.1641 6.25781 11.2812 6.35156 11.375C6.82031 11.375 7.14844 11.2344 7.33594 10.9297C7.42969 10.7422 7.47656 10.4609 7.47656 10.0391C7.47656 9.85156 7.42969 9.64062 7.35938 9.42969C7.3125 9.3125 7.21875 9.14844 7.125 8.91406C7.00781 8.70312 6.9375 8.53906 6.91406 8.42188C6.82031 8.23438 6.79688 8.02344 6.79688 7.83594H9.23438Z" fill="#EC6C6C"/>
</svg>
