<svg width="12" height="13" viewBox="0 0 12 13" fill="none" xmlns="http://www.w3.org/2000/svg">
<path d="M10.9219 7.22656C11.0156 7.74219 10.9453 8.23438 10.7109 8.70312C10.7344 8.98438 10.7109 9.24219 10.6406 9.52344C10.5703 9.80469 10.4531 10.0625 10.3125 10.2734C10.2891 10.9766 10.0781 11.4922 9.65625 11.8672C9.1875 12.2891 8.53125 12.5 7.66406 12.5H7.14844C6.49219 12.5 5.88281 12.4297 5.34375 12.2891C5.01562 12.2188 4.64062 12.0781 4.17188 11.8906C3.89062 11.7969 3.67969 11.7031 3.5625 11.6562C3.35156 11.6094 3.16406 11.5625 2.97656 11.5625C2.92969 11.7266 2.83594 11.8672 2.69531 11.9609C2.55469 12.0781 2.41406 12.125 2.25 12.125H0.75C0.539062 12.125 0.351562 12.0547 0.210938 11.9141C0.0703125 11.7734 0 11.5859 0 11.375V5.75C0 5.5625 0.0703125 5.375 0.210938 5.23438C0.351562 5.09375 0.539062 5 0.75 5H3.07031C3.21094 4.85938 3.49219 4.55469 3.86719 4.0625C4.24219 3.57031 4.5 3.24219 4.6875 3.05469C4.73438 3.00781 4.80469 2.77344 4.89844 2.375C5.03906 1.8125 5.17969 1.41406 5.32031 1.15625C5.55469 0.734375 5.90625 0.5 6.35156 0.5C7.05469 0.5 7.59375 0.710938 7.99219 1.08594C8.39062 1.50781 8.60156 2.14062 8.60156 2.96094C8.60156 3.33594 8.53125 3.6875 8.39062 4.03906H9.23438C9.79688 4.03906 10.2656 4.25 10.6641 4.64844C11.0391 5.07031 11.25 5.53906 11.25 6.05469C11.25 6.47656 11.1328 6.85156 10.9219 7.22656ZM9.49219 8.49219C9.72656 8.25781 9.84375 8 9.84375 7.69531C9.84375 7.39062 9.77344 7.13281 9.60938 6.94531C9.70312 6.94531 9.82031 6.85156 9.9375 6.66406C10.0547 6.47656 10.125 6.28906 10.125 6.05469C10.125 5.84375 10.0312 5.63281 9.86719 5.44531C9.67969 5.25781 9.46875 5.16406 9.23438 5.16406H6.79688C6.79688 4.97656 6.82031 4.78906 6.91406 4.57812C6.9375 4.48438 7.00781 4.32031 7.125 4.08594C7.21875 3.875 7.3125 3.71094 7.35938 3.57031C7.42969 3.38281 7.47656 3.17188 7.47656 2.96094C7.47656 2.5625 7.42969 2.25781 7.33594 2.07031C7.14844 1.78906 6.82031 1.625 6.35156 1.625C6.25781 1.71875 6.1875 1.85938 6.14062 2.02344C6.09375 2.11719 6.07031 2.28125 6.02344 2.51562C5.95312 2.84375 5.90625 3.07812 5.85938 3.21875C5.76562 3.47656 5.625 3.6875 5.46094 3.85156C5.32031 3.99219 5.10938 4.27344 4.78125 4.69531C4.42969 5.16406 4.17188 5.49219 4.00781 5.65625C3.70312 5.98438 3.44531 6.125 3.25781 6.125H3V10.4844C3.25781 10.4844 3.53906 10.5312 3.86719 10.6016C4.05469 10.6484 4.33594 10.7422 4.71094 10.8828C5.17969 11.0469 5.53125 11.1641 5.78906 11.2109C6.21094 11.3281 6.60938 11.375 7.03125 11.375H7.89844C8.34375 11.375 8.67188 11.2578 8.90625 11.0234C9.14062 10.7891 9.23438 10.3906 9.16406 9.82812C9.35156 9.73438 9.46875 9.54688 9.5625 9.26562C9.63281 8.98438 9.60938 8.72656 9.49219 8.49219ZM2.0625 10.625C2.0625 10.4844 1.99219 10.3438 1.89844 10.2266C1.78125 10.1328 1.64062 10.0625 1.5 10.0625C1.33594 10.0625 1.19531 10.1328 1.10156 10.2266C0.984375 10.3438 0.9375 10.4844 0.9375 10.625C0.9375 10.7891 0.984375 10.9297 1.10156 11.0234C1.19531 11.1406 1.33594 11.1875 1.5 11.1875C1.64062 11.1875 1.78125 11.1406 1.89844 11.0234C1.99219 10.9297 2.0625 10.7891 2.0625 10.625Z" fill="#4EE68E"/>
</svg>
