<svg width="21" height="21" viewBox="0 0 21 21" fill="none" xmlns="http://www.w3.org/2000/svg">
<path fill-rule="evenodd" clip-rule="evenodd" d="M17.3989 13.6538L14.0613 10.3196C13.8708 10.1297 13.6178 10.0152 13.3492 9.99731H12.4592C13.268 8.59481 13.5386 6.94633 13.2205 5.35924C12.9024 3.77214 12.0173 2.35477 10.7303 1.37149C9.44331 0.388215 7.84222 -0.0938776 6.22566 0.0151307C4.60909 0.124139 3.08739 0.816821 1.94433 1.96396C0.801273 3.1111 0.114871 4.63443 0.0131516 6.24984C-0.0885675 7.86525 0.401377 9.46244 1.39153 10.7436C2.38168 12.0248 3.80444 12.9025 5.39458 13.213C6.98473 13.5235 8.63369 13.2457 10.0339 12.4313V13.3315C10.033 13.4778 10.0611 13.6228 10.1165 13.7582C10.1718 13.8936 10.2534 14.0168 10.3565 14.1207L13.6941 17.4549C13.7981 17.5579 13.9214 17.6394 14.0569 17.6947C14.1925 17.75 14.3376 17.778 14.484 17.7772C14.7759 17.7759 15.0555 17.6602 15.2627 17.4549L17.4878 15.2321C17.5865 15.123 17.6625 14.9954 17.7115 14.8568C17.7605 14.7182 17.7814 14.5711 17.7731 14.4244C17.7649 14.2776 17.7275 14.1339 17.6633 14.0017C17.599 13.8694 17.5092 13.7511 17.3989 13.6538ZM6.67402 11.1087C5.79387 11.1087 4.93347 10.848 4.20165 10.3595C3.46983 9.87099 2.89948 9.17672 2.56266 8.36439C2.22584 7.55206 2.13767 6.65819 2.30938 5.79582C2.48109 4.93345 2.90494 4.14128 3.5273 3.51955C4.14966 2.89782 4.94263 2.4744 5.80587 2.30286C6.66912 2.13133 7.56389 2.21941 8.37705 2.55589C9.1902 2.89237 9.88517 3.46214 10.3742 4.19322C10.8631 4.9243 11.1242 5.78383 11.1242 6.66309C11.1242 7.84214 10.6553 8.97291 9.82075 9.80663C8.98618 10.6403 7.85427 11.1087 6.67402 11.1087ZM14.4618 15.0987L12.2367 12.8759V12.2201H12.882L15.107 14.4429L14.4618 15.0987Z" transform="translate(3.22461 3.22266)" fill="#9B51E0" fill-opacity="0.32"/>
<path fill-rule="evenodd" clip-rule="evenodd" d="M17.3989 13.6538L14.0613 10.3196C13.8708 10.1297 13.6178 10.0152 13.3492 9.99731H12.4592C13.268 8.59481 13.5386 6.94633 13.2205 5.35924C12.9024 3.77214 12.0173 2.35477 10.7303 1.37149C9.44331 0.388215 7.84222 -0.0938776 6.22566 0.0151307C4.60909 0.124139 3.08739 0.816821 1.94433 1.96396C0.801273 3.1111 0.114871 4.63443 0.0131516 6.24984C-0.0885675 7.86525 0.401377 9.46244 1.39153 10.7436C2.38168 12.0248 3.80444 12.9025 5.39458 13.213C6.98473 13.5235 8.63369 13.2457 10.0339 12.4313V13.3315C10.033 13.4778 10.0611 13.6228 10.1165 13.7582C10.1718 13.8936 10.2534 14.0168 10.3565 14.1207L13.6941 17.4549C13.7981 17.5579 13.9214 17.6394 14.0569 17.6947C14.1925 17.75 14.3376 17.778 14.484 17.7772C14.7759 17.7759 15.0555 17.6602 15.2627 17.4549L17.4878 15.2321C17.5865 15.123 17.6625 14.9954 17.7115 14.8568C17.7605 14.7182 17.7814 14.5711 17.7731 14.4244C17.7649 14.2776 17.7275 14.1339 17.6633 14.0017C17.599 13.8694 17.5092 13.7511 17.3989 13.6538ZM6.67402 11.1087C5.79387 11.1087 4.93347 10.848 4.20165 10.3595C3.46983 9.87099 2.89948 9.17672 2.56266 8.36439C2.22584 7.55206 2.13767 6.65819 2.30938 5.79582C2.48109 4.93345 2.90494 4.14128 3.5273 3.51955C4.14966 2.89782 4.94263 2.4744 5.80587 2.30286C6.66912 2.13133 7.56389 2.21941 8.37705 2.55589C9.1902 2.89237 9.88517 3.46214 10.3742 4.19322C10.8631 4.9243 11.1242 5.78383 11.1242 6.66309C11.1242 7.84214 10.6553 8.97291 9.82075 9.80663C8.98618 10.6403 7.85427 11.1087 6.67402 11.1087ZM14.4618 15.0987L12.2367 12.8759V12.2201H12.882L15.107 14.4429L14.4618 15.0987Z" transform="translate(1 1)" fill="#9B51E0" stroke="white" stroke-width="1.11197"/>
</svg>
