<svg width="20" height="20" viewBox="0 0 20 20" fill="none" xmlns="http://www.w3.org/2000/svg">
<path fill-rule="evenodd" clip-rule="evenodd" d="M7.03335 10.7889C7.24153 10.9958 7.52314 11.112 7.81668 11.112C8.11022 11.112 8.39184 10.9958 8.60002 10.7889L13.0445 6.34444C13.1486 6.24114 13.2313 6.11827 13.2877 5.98287C13.3441 5.84747 13.3731 5.70224 13.3731 5.55556C13.3731 5.40888 13.3441 5.26364 13.2877 5.12824C13.2313 4.99284 13.1486 4.86997 13.0445 4.76668C12.8363 4.55973 12.5547 4.44356 12.2611 4.44356C11.9676 4.44356 11.686 4.55973 11.4778 4.76668L7.81112 8.43333L6.3778 6.9889C6.16962 6.78195 5.888 6.66579 5.59446 6.66579C5.30092 6.66579 5.01931 6.78195 4.81113 6.9889C4.70698 7.09219 4.62433 7.21507 4.56792 7.35046C4.51151 7.48586 4.48245 7.6311 4.48245 7.77778C4.48245 7.92446 4.51151 8.06969 4.56792 8.20509C4.62433 8.34049 4.70698 8.46337 4.81113 8.56666L7.03335 10.7889ZM15.5556 0H2.22224C1.63287 0 1.06764 0.234125 0.650889 0.650872C0.234142 1.06762 1.75175e-05 1.63285 1.75175e-05 2.22222V15.5556C-0.00153708 15.9471 0.100411 16.3322 0.295529 16.6717C0.490647 17.0112 0.772007 17.2931 1.11113 17.4889C1.45094 17.678 1.83334 17.7774 2.22224 17.7778C2.61354 17.7737 2.99683 17.6664 3.33335 17.4667L6.66668 15.5556H15.5556C16.1449 15.5556 16.7102 15.3214 17.1269 14.9047C17.5437 14.4879 17.7778 13.9227 17.7778 13.3333V2.22222C17.7778 1.63285 17.5437 1.06762 17.1269 0.650872C16.7102 0.234125 16.1449 0 15.5556 0ZM15.5556 13.3333H6.01113L2.22224 15.5556V2.22222H15.5556V13.3333Z" transform="translate(1 1)" fill="#27AE60" stroke="white" stroke-width="1.11111"/>
</svg>
