<svg width="21" height="18" viewBox="0 0 21 18" fill="none" xmlns="http://www.w3.org/2000/svg">
<path fill-rule="evenodd" clip-rule="evenodd" d="M13.1386 5.31021C13.1386 4.74687 12.9079 4.2066 12.4972 3.80826C12.0866 3.40991 11.5296 3.18613 10.9488 3.18613H9.85396V2.12408C9.85396 1.56074 9.62322 1.02047 9.21256 0.622128C8.8019 0.223785 8.24495 0 7.66419 0H2.18977C1.60901 0 1.05206 0.223785 0.6414 0.622128C0.230739 1.02047 0 1.56074 0 2.12408V3.18613C0 3.74947 0.230739 4.28974 0.6414 4.68808C1.05206 5.08643 1.60901 5.31021 2.18977 5.31021H3.28465V6.37225C2.70389 6.37225 2.14695 6.59604 1.73628 6.99438C1.32562 7.39273 1.09488 7.933 1.09488 8.49634V9.55838C1.09335 9.93267 1.19378 10.3007 1.38605 10.6252C1.57832 10.9497 1.8556 11.2192 2.18977 11.4063C2.18392 11.4983 2.18392 11.5905 2.18977 11.6825V12.7445C2.18977 13.3079 2.42051 13.8481 2.83117 14.2465C3.24183 14.6448 3.79877 14.8686 4.37954 14.8686H9.85396C10.2376 14.8712 10.6151 14.7759 10.9488 14.5925C11.4793 14.7767 12.0387 14.8702 12.6021 14.8686C13.9088 14.939 15.1909 14.503 16.1662 13.6566C17.1415 12.8101 17.7302 11.6224 17.8028 10.3549C17.8754 9.08739 17.426 7.8438 16.5533 6.89773C15.6807 5.95167 14.4563 5.38063 13.1496 5.31021H13.1386ZM2.18977 3.18613V2.12408H7.66419V3.18613H2.18977ZM3.28465 9.55838V8.49634H7.94887C7.82007 8.83892 7.73551 9.19564 7.69707 9.55838H3.28465ZM4.37954 12.7445V11.6825H7.94887C8.08012 12.0592 8.26433 12.4166 8.49631 12.7445H4.37954ZM9.50359 6.37225H5.47442V5.31021H10.9488V5.58635C10.4344 5.76637 9.95638 6.03234 9.53647 6.37225H9.50359ZM12.5912 12.7445C12.4074 12.7432 12.2241 12.7254 12.0437 12.6914C11.6256 12.6095 11.2332 12.4331 10.8984 12.1766C10.5636 11.9202 10.2958 11.5908 10.1167 11.2152C9.94003 10.8649 9.85007 10.4794 9.85396 10.0894C9.85534 9.91114 9.87365 9.73338 9.90869 9.55838C9.9909 9.17369 10.1591 8.81116 10.4014 8.49634C10.657 8.16719 10.9877 7.89999 11.3676 7.71572C11.7476 7.53145 12.1664 7.43512 12.5912 7.4343H12.843C13.5689 7.46669 14.2519 7.77747 14.7416 8.29831C15.2314 8.81914 15.4877 9.50735 15.4543 10.2115C15.4209 10.9157 15.1005 11.5782 14.5636 12.0532C14.0266 12.5282 13.3171 12.7769 12.5912 12.7445Z" transform="translate(3.18945 3.12402)" fill="#27AE60" fill-opacity="0.32"/>
<path fill-rule="evenodd" clip-rule="evenodd" d="M13.1386 5.31021C13.1386 4.74687 12.9079 4.2066 12.4972 3.80826C12.0866 3.40991 11.5296 3.18613 10.9488 3.18613H9.85396V2.12408C9.85396 1.56074 9.62322 1.02047 9.21256 0.622128C8.8019 0.223785 8.24495 0 7.66419 0H2.18977C1.60901 0 1.05206 0.223785 0.6414 0.622128C0.230739 1.02047 0 1.56074 0 2.12408V3.18613C0 3.74947 0.230739 4.28974 0.6414 4.68808C1.05206 5.08643 1.60901 5.31021 2.18977 5.31021H3.28465V6.37225C2.70389 6.37225 2.14695 6.59604 1.73628 6.99438C1.32562 7.39273 1.09488 7.933 1.09488 8.49634V9.55838C1.09335 9.93267 1.19378 10.3007 1.38605 10.6252C1.57832 10.9497 1.8556 11.2192 2.18977 11.4063C2.18392 11.4983 2.18392 11.5905 2.18977 11.6825V12.7445C2.18977 13.3079 2.42051 13.8481 2.83117 14.2465C3.24183 14.6448 3.79877 14.8686 4.37954 14.8686H9.85396C10.2376 14.8712 10.6151 14.7759 10.9488 14.5925C11.4793 14.7767 12.0387 14.8702 12.6021 14.8686C13.9088 14.939 15.1909 14.503 16.1662 13.6566C17.1415 12.8101 17.7302 11.6224 17.8028 10.3549C17.8754 9.08739 17.426 7.8438 16.5533 6.89773C15.6807 5.95167 14.4563 5.38063 13.1496 5.31021H13.1386ZM2.18977 3.18613V2.12408H7.66419V3.18613H2.18977ZM3.28465 9.55838V8.49634H7.94887C7.82007 8.83892 7.73551 9.19564 7.69707 9.55838H3.28465ZM4.37954 12.7445V11.6825H7.94887C8.08012 12.0592 8.26433 12.4166 8.49631 12.7445H4.37954ZM9.50359 6.37225H5.47442V5.31021H10.9488V5.58635C10.4344 5.76637 9.95638 6.03234 9.53647 6.37225H9.50359ZM12.5912 12.7445C12.4074 12.7432 12.2241 12.7254 12.0437 12.6914C11.6256 12.6095 11.2332 12.4331 10.8984 12.1766C10.5636 11.9202 10.2958 11.5908 10.1167 11.2152C9.94003 10.8649 9.85007 10.4794 9.85396 10.0894C9.85534 9.91114 9.87365 9.73338 9.90869 9.55838C9.9909 9.17369 10.1591 8.81116 10.4014 8.49634C10.657 8.16719 10.9877 7.89999 11.3676 7.71572C11.7476 7.53145 12.1664 7.43512 12.5912 7.4343H12.843C13.5689 7.46669 14.2519 7.77747 14.7416 8.29831C15.2314 8.81914 15.4877 9.50735 15.4543 10.2115C15.4209 10.9157 15.1005 11.5782 14.5636 12.0532C14.0266 12.5282 13.3171 12.7769 12.5912 12.7445Z" transform="translate(1 1)" fill="#27AE60" stroke="white" stroke-width="1.07834"/>
</svg>
