<svg width="21" height="21" viewBox="0 0 21 21" fill="none" xmlns="http://www.w3.org/2000/svg">
<path fill-rule="evenodd" clip-rule="evenodd" d="M8.88889 0C7.13084 0 5.41226 0.521316 3.95049 1.49804C2.48872 2.47476 1.34941 3.86303 0.676629 5.48726C0.00385059 7.11149 -0.172179 8.89876 0.170801 10.623C0.51378 12.3473 1.36037 13.9312 2.6035 15.1743C3.84663 16.4174 5.43048 17.264 7.15476 17.607C8.87903 17.95 10.6663 17.7739 12.2905 17.1011C13.9148 16.4284 15.303 15.2891 16.2797 13.8273C17.2565 12.3655 17.7778 10.6469 17.7778 8.88889C17.7778 6.53141 16.8413 4.27048 15.1743 2.60349C13.5073 0.936498 11.2464 0 8.88889 0ZM8.88889 15.5556C7.57035 15.5556 6.28142 15.1646 5.18509 14.432C4.08876 13.6995 3.23428 12.6583 2.72969 11.4401C2.22511 10.2219 2.09309 8.88149 2.35032 7.58828C2.60756 6.29507 3.2425 5.10719 4.17485 4.17484C5.1072 3.24249 6.29508 2.60756 7.58829 2.35033C8.88149 2.09309 10.2219 2.22511 11.4401 2.7297C12.6583 3.23428 13.6995 4.08876 14.432 5.18509C15.1646 6.28142 15.5556 7.57035 15.5556 8.88889C15.5556 10.657 14.8532 12.3527 13.6029 13.6029C12.3527 14.8532 10.657 15.5556 8.88889 15.5556ZM12.2222 7.77778H10V5.55555C10 5.26087 9.88294 4.97825 9.67457 4.76988C9.46619 4.56151 9.18358 4.44444 8.88889 4.44444C8.59421 4.44444 8.31159 4.56151 8.10322 4.76988C7.89484 4.97825 7.77778 5.26087 7.77778 5.55555V8.88889C7.77778 9.18357 7.89484 9.46619 8.10322 9.67456C8.31159 9.88294 8.59421 10 8.88889 10H12.2222C12.5169 10 12.7995 9.88294 13.0079 9.67456C13.2163 9.46619 13.3333 9.18357 13.3333 8.88889C13.3333 8.5942 13.2163 8.31159 13.0079 8.10321C12.7995 7.89484 12.5169 7.77778 12.2222 7.77778Z" transform="translate(3.22168 3.22217)" fill="#F2994A" fill-opacity="0.32"/>
<path fill-rule="evenodd" clip-rule="evenodd" d="M8.88889 0C7.13084 0 5.41226 0.521316 3.95049 1.49804C2.48872 2.47476 1.34941 3.86303 0.676629 5.48726C0.00385059 7.11149 -0.172179 8.89876 0.170801 10.623C0.51378 12.3473 1.36037 13.9312 2.6035 15.1743C3.84663 16.4174 5.43048 17.264 7.15476 17.607C8.87903 17.95 10.6663 17.7739 12.2905 17.1011C13.9148 16.4284 15.303 15.2891 16.2797 13.8273C17.2565 12.3655 17.7778 10.6469 17.7778 8.88889C17.7778 6.53141 16.8413 4.27048 15.1743 2.60349C13.5073 0.936498 11.2464 0 8.88889 0ZM8.88889 15.5556C7.57035 15.5556 6.28142 15.1646 5.18509 14.432C4.08876 13.6995 3.23428 12.6583 2.72969 11.4401C2.22511 10.2219 2.09309 8.88149 2.35032 7.58828C2.60756 6.29507 3.2425 5.10719 4.17485 4.17484C5.1072 3.24249 6.29508 2.60756 7.58829 2.35033C8.88149 2.09309 10.2219 2.22511 11.4401 2.7297C12.6583 3.23428 13.6995 4.08876 14.432 5.18509C15.1646 6.28142 15.5556 7.57035 15.5556 8.88889C15.5556 10.657 14.8532 12.3527 13.6029 13.6029C12.3527 14.8532 10.657 15.5556 8.88889 15.5556ZM12.2222 7.77778H10V5.55555C10 5.26087 9.88294 4.97825 9.67457 4.76988C9.46619 4.56151 9.18358 4.44444 8.88889 4.44444C8.59421 4.44444 8.31159 4.56151 8.10322 4.76988C7.89484 4.97825 7.77778 5.26087 7.77778 5.55555V8.88889C7.77778 9.18357 7.89484 9.46619 8.10322 9.67456C8.31159 9.88294 8.59421 10 8.88889 10H12.2222C12.5169 10 12.7995 9.88294 13.0079 9.67456C13.2163 9.46619 13.3333 9.18357 13.3333 8.88889C13.3333 8.5942 13.2163 8.31159 13.0079 8.10321C12.7995 7.89484 12.5169 7.77778 12.2222 7.77778Z" transform="translate(1 1)" fill="#F2994A" stroke="white" stroke-width="1.11111"/>
</svg>
