<svg width="20" height="20" viewBox="0 0 20 20" fill="none" xmlns="http://www.w3.org/2000/svg">
<path fill-rule="evenodd" clip-rule="evenodd" d="M16.6667 13.3754H15.5556V12.27C15.5556 11.9768 15.4385 11.6957 15.2301 11.4884C15.0217 11.2811 14.7391 11.1646 14.4444 11.1646C14.1498 11.1646 13.8672 11.2811 13.6588 11.4884C13.4504 11.6957 13.3333 11.9768 13.3333 12.27V13.3754H12.2222C11.9275 13.3754 11.6449 13.4918 11.4366 13.6991C11.2282 13.9064 11.1111 14.1876 11.1111 14.4807C11.1111 14.7739 11.2282 15.055 11.4366 15.2623C11.6449 15.4696 11.9275 15.5861 12.2222 15.5861H13.3333V16.6914C13.3333 16.9846 13.4504 17.2657 13.6588 17.473C13.8672 17.6803 14.1498 17.7968 14.4444 17.7968C14.7391 17.7968 15.0217 17.6803 15.2301 17.473C15.4385 17.2657 15.5556 16.9846 15.5556 16.6914V15.5861H16.6667C16.9614 15.5861 17.2439 15.4696 17.4523 15.2623C17.6607 15.055 17.7778 14.7739 17.7778 14.4807C17.7778 14.1876 17.6607 13.9064 17.4523 13.6991C17.2439 13.4918 16.9614 13.3754 16.6667 13.3754ZM8.88889 11.1646C9.67016 11.1658 10.4379 10.962 11.1148 10.5739C11.7917 10.1858 12.3538 9.62703 12.7444 8.95393C13.3267 8.88554 13.8897 8.70322 14.4008 8.41744C14.912 8.13165 15.3613 7.74805 15.7228 7.28877C16.0843 6.82949 16.3508 6.30362 16.5071 5.74141C16.6634 5.17919 16.7062 4.59175 16.6333 4.01296C16.517 3.16874 16.1579 2.37594 15.5994 1.72995C15.0408 1.08397 14.3065 0.612297 13.4848 0.371733C12.6631 0.131169 11.789 0.131974 10.9677 0.373993C10.1465 0.616011 9.41295 1.08895 8.85552 1.73593C8.47794 1.24464 8.00101 0.837602 7.45544 0.541139C6.90988 0.244676 6.30784 0.0653771 5.68827 0.0148046C5.06871 -0.0357679 4.44542 0.0435319 3.85857 0.247562C3.27173 0.451591 2.73445 0.775817 2.28143 1.1993C1.8284 1.62279 1.46968 2.13609 1.2285 2.70608C0.987328 3.27607 0.869056 3.89009 0.88128 4.5084C0.893504 5.12671 1.03599 5.73559 1.29951 6.2957C1.56302 6.85582 1.94168 7.35471 2.41109 7.76015C1.6687 8.25798 1.0606 8.92956 0.640191 9.71592C0.219779 10.5023 -5.57414e-05 11.3793 1.06015e-08 12.27C1.06015e-08 12.9222 0.29997 14.8234 3.51108 15.3871C3.85553 16.2935 4.86665 17.4431 7.68887 17.6973C7.84208 17.7096 7.99617 17.69 8.14141 17.64C8.28665 17.5899 8.41993 17.5105 8.53271 17.4066C8.6455 17.3027 8.73534 17.1766 8.79666 17.0364C8.85797 16.8962 8.88938 16.7449 8.88889 16.592C8.88958 16.3117 8.78328 16.0417 8.59144 15.8365C8.39961 15.6313 8.13656 15.5062 7.85556 15.4866C5.55556 15.3208 5.55556 14.4807 5.55556 14.4807C5.55556 13.6012 5.90673 12.7578 6.53185 12.1359C7.15697 11.514 8.00483 11.1646 8.88889 11.1646ZM12.2222 2.38808C12.8116 2.38808 13.3768 2.621 13.7935 3.03559C14.2103 3.45018 14.4444 4.01248 14.4444 4.5988C14.4421 4.9846 14.3383 5.36307 14.1434 5.69661C13.9485 6.03014 13.6692 6.30713 13.3333 6.50002C13.2808 5.73708 13.0272 5.00136 12.5981 4.36686C12.169 3.73235 11.5795 3.22145 10.8889 2.88551C11.2693 2.58664 11.7376 2.4197 12.2222 2.41018V2.38808ZM8.88889 4.5988C9.3284 4.5988 9.75805 4.72847 10.1235 4.97138C10.4889 5.2143 10.7738 5.55958 10.942 5.96354C11.1102 6.36749 11.1541 6.812 11.0684 7.24083C10.9826 7.66967 10.771 8.06357 10.4602 8.37274C10.1494 8.68192 9.75351 8.89247 9.32244 8.97777C8.89137 9.06308 8.44452 9.01927 8.03847 8.85195C7.63241 8.68463 7.28533 8.40129 7.04115 8.03774C6.79697 7.67419 6.66667 7.24676 6.66667 6.80952C6.6696 6.22512 6.90501 5.66566 7.32144 5.25346C7.73787 4.84126 8.30144 4.60986 8.88889 4.60987V4.5988ZM5.55556 2.38808C6.05299 2.39345 6.53421 2.56472 6.9222 2.87444C6.23162 3.21038 5.64218 3.72129 5.21308 4.35579C4.78398 4.9903 4.53039 5.72601 4.47781 6.48896C4.14195 6.29606 3.86266 6.01911 3.66774 5.68558C3.47281 5.35204 3.36904 4.97354 3.3667 4.58774C3.3753 4.01288 3.60862 3.46398 4.01727 3.05745C4.42591 2.65092 4.97771 2.41874 5.55556 2.41018V2.38808ZM3.51108 13.1432C2.24441 12.8227 2.22222 12.2589 2.22222 12.2589C2.23032 11.4657 2.52403 10.7017 3.04999 10.1054C3.57596 9.50915 4.29934 9.1202 5.08891 9.00918C5.29211 9.33912 5.53456 9.64346 5.81109 9.91558C4.67841 10.6836 3.87114 11.841 3.54445 13.1653L3.51108 13.1432Z" transform="translate(1 1)" fill="#E97E7E" stroke="white" stroke-width="1.10823"/>
</svg>
