<svg width="20" height="20" viewBox="0 0 20 20" fill="none" xmlns="http://www.w3.org/2000/svg">
<path fill-rule="evenodd" clip-rule="evenodd" d="M17.7222 8.16861C17.6701 7.56596 17.5584 6.96987 17.3889 6.38898C16.8702 4.59785 15.7958 3.0156 14.3191 1.8682C12.8425 0.720797 11.0391 0.066939 9.16667 0H8.56669C6.6937 0.0639191 4.88891 0.715121 3.41024 1.86057C1.93156 3.00602 0.854657 4.58712 0.333355 6.37793C0.163824 6.95883 0.0521548 7.55491 1.44429e-06 8.15756C1.44429e-06 8.37864 1.44429e-06 8.59971 1.44429e-06 8.83183C-0.00131249 11.1263 0.893927 13.3315 2.49658 14.9815C4.09923 16.6315 6.2838 17.5973 8.5889 17.6747H9.18891C11.494 17.5973 13.6786 16.6315 15.2812 14.9815C16.8839 13.3315 17.7791 11.1263 17.7778 8.83183C17.7222 8.61076 17.7222 8.38968 17.7222 8.16861ZM2.3778 10.3793C3.06964 10.5928 3.78021 10.7408 4.50002 10.8215C4.59005 12.0405 4.83266 13.2436 5.22224 14.4028C3.7949 13.4719 2.78083 12.0319 2.38892 10.3793H2.3778ZM4.84446 4.60935C4.6768 5.36324 4.56171 6.12777 4.50002 6.89745C4.44447 7.45013 4.42222 8.00281 4.41111 8.55549C3.64922 8.53105 2.90821 8.30187 2.26668 7.89227C2.26668 7.77068 2.26668 7.63804 2.26668 7.51645C2.46662 6.5231 2.90076 5.59115 3.53336 4.79726C3.98248 4.19944 4.53567 3.68656 5.16669 3.28292C5.03196 3.71729 4.92801 4.16052 4.85559 4.60935H4.84446ZM8.83335 15.475C7.86668 15.475 7.03333 13.607 6.73333 11.0536C7.37778 11.0536 8.06668 11.0536 8.83335 11.0536C9.60001 11.0536 10.2889 11.0536 10.9334 11.0536C10.6667 13.607 9.83335 15.475 8.83335 15.475ZM8.83335 8.84288C8.05557 8.84288 7.31113 8.84288 6.61113 8.77656C6.61079 8.07841 6.65159 7.38083 6.73333 6.68743C6.81085 5.9382 6.95969 5.19797 7.1778 4.47671C7.5778 3.09501 8.17779 2.26599 8.83335 2.26599C9.4889 2.26599 10.0889 3.12817 10.4889 4.47671C10.707 5.19797 10.8558 5.9382 10.9334 6.68743C11.0151 7.38083 11.0559 8.07841 11.0556 8.77656C10.3889 8.84288 9.64446 8.84288 8.83335 8.84288ZM12.4667 14.3697C12.8562 13.2104 13.0989 12.0073 13.1889 10.7883C13.9087 10.7077 14.6193 10.5597 15.3111 10.3462C14.9247 11.9952 13.919 13.4347 12.5 14.3697H12.4667ZM13.2778 8.52233C13.2778 7.96965 13.2778 7.41697 13.1889 6.86429C13.1272 6.09461 13.0121 5.33008 12.8444 4.57619C12.7502 4.12571 12.624 3.68246 12.4667 3.24976C13.0977 3.6534 13.6509 4.16628 14.1 4.7641C14.7326 5.55799 15.1667 6.48994 15.3667 7.48329C15.3667 7.60488 15.3667 7.73752 15.3667 7.85911C14.7446 8.27105 14.0238 8.51136 13.2778 8.55549V8.52233Z" transform="translate(1 1)" fill="#3969AA" stroke="white" stroke-width="1.10823"/>
</svg>
