<svg width="13" height="11" viewBox="0 0 13 11" fill="none" xmlns="http://www.w3.org/2000/svg">
<path d="M7 0.25C8.07812 0.25 9.08594 0.484375 10 0.90625C10.9141 1.35156 11.6406 1.9375 12.1797 2.6875C12.7188 3.4375 13 4.23438 13 5.125C13 6.01562 12.7188 6.83594 12.1797 7.58594C11.6406 8.33594 10.9141 8.92188 10 9.34375C9.08594 9.78906 8.07812 10 7 10C6.25 10 5.52344 9.90625 4.82031 9.67188C3.78906 10.3984 2.71094 10.75 1.5625 10.75C1.44531 10.75 1.35156 10.7266 1.25781 10.6562C1.16406 10.6094 1.09375 10.5156 1.04688 10.4219C1 10.3281 0.976562 10.2109 1 10.0938C1.02344 10 1.07031 9.90625 1.14062 9.83594C1.21094 9.76562 1.35156 9.57812 1.5625 9.29688C1.86719 8.875 2.10156 8.47656 2.24219 8.07812C1.39844 7.21094 1 6.22656 1 5.125C1 4.23438 1.25781 3.4375 1.79688 2.6875C2.33594 1.9375 3.0625 1.35156 3.97656 0.90625C4.89062 0.484375 5.89844 0.25 7 0.25ZM7 8.875C7.86719 8.875 8.6875 8.71094 9.4375 8.38281C10.1875 8.05469 10.7734 7.58594 11.2188 7C11.6406 6.4375 11.875 5.80469 11.875 5.125C11.875 4.46875 11.6406 3.83594 11.2188 3.25C10.7734 2.6875 10.1875 2.21875 9.4375 1.89062C8.6875 1.5625 7.86719 1.375 7 1.375C6.10938 1.375 5.3125 1.5625 4.5625 1.89062C3.8125 2.21875 3.20312 2.6875 2.78125 3.25C2.33594 3.83594 2.125 4.46875 2.125 5.125C2.125 5.92188 2.42969 6.64844 3.0625 7.30469L3.53125 7.82031L3.29688 8.47656C3.15625 8.80469 3.01562 9.10938 2.82812 9.4375C3.29688 9.29688 3.74219 9.0625 4.16406 8.73438L4.63281 8.42969L5.17188 8.59375C5.75781 8.78125 6.36719 8.875 7 8.875Z" fill="#999AB0"/>
</svg>
