<svg width="9" height="13" viewBox="0 0 9 13" fill="none" xmlns="http://www.w3.org/2000/svg">
<path d="M8.67188 2.79688C8.88281 3.03125 9 3.28906 9 3.59375V11.375C9 11.7031 8.88281 11.9609 8.67188 12.1719C8.4375 12.4062 8.17969 12.5 7.875 12.5H1.125C0.796875 12.5 0.539062 12.4062 0.328125 12.1719C0.09375 11.9609 0 11.7031 0 11.375V1.625C0 1.32031 0.09375 1.0625 0.328125 0.828125C0.539062 0.617188 0.796875 0.5 1.125 0.5H5.90625C6.21094 0.5 6.46875 0.617188 6.70312 0.828125L8.67188 2.79688ZM7.78125 3.5L6 1.71875V3.5H7.78125ZM1.125 11.375H7.875V4.625H5.4375C5.27344 4.625 5.13281 4.57812 5.03906 4.46094C4.92188 4.36719 4.875 4.22656 4.875 4.0625V1.625H1.125V11.375Z" fill="#999AB0"/>
</svg>
