<svg width="16" height="16" viewBox="0 0 16 16" fill="none" xmlns="http://www.w3.org/2000/svg">
<path d="M15.7812 13.8438C15.9062 14 16 14.1875 16 14.375C16 14.5938 15.9062 14.7812 15.7812 14.9062L14.9062 15.7812C14.75 15.9375 14.5625 16 14.375 16C14.1562 16 13.9688 15.9375 13.8438 15.7812L10.7188 12.6562C10.5625 12.5312 10.5 12.3438 10.5 12.125V11.625C9.3125 12.5625 8 13 6.5 13C5.3125 13 4.21875 12.7188 3.21875 12.125C2.21875 11.5625 1.4375 10.7812 0.875 9.78125C0.28125 8.78125 0 7.6875 0 6.5C0 5.3125 0.28125 4.25 0.875 3.25C1.4375 2.25 2.21875 1.46875 3.21875 0.875C4.21875 0.3125 5.3125 0 6.5 0C7.6875 0 8.75 0.3125 9.75 0.875C10.75 1.46875 11.5312 2.25 12.125 3.25C12.6875 4.25 13 5.3125 13 6.5C13 8 12.5312 9.34375 11.625 10.5H12.125C12.3125 10.5 12.5 10.5938 12.6562 10.7188L15.7812 13.8438ZM6.5 10.5C7.21875 10.5 7.875 10.3438 8.5 9.96875C9.125 9.625 9.59375 9.15625 9.96875 8.53125C10.3125 7.90625 10.5 7.25 10.5 6.5C10.5 5.78125 10.3125 5.125 9.96875 4.5C9.59375 3.875 9.125 3.40625 8.5 3.03125C7.875 2.6875 7.21875 2.5 6.5 2.5C5.75 2.5 5.09375 2.6875 4.46875 3.03125C3.84375 3.40625 3.375 3.875 3.03125 4.5C2.65625 5.125 2.5 5.78125 2.5 6.5C2.5 7.25 2.65625 7.90625 3.03125 8.53125C3.375 9.15625 3.84375 9.625 4.46875 9.96875C5.09375 10.3438 5.75 10.5 6.5 10.5Z" fill="#465EDB"/>
</svg>
