<svg width="14" height="15" viewBox="0 0 14 15" fill="none" xmlns="http://www.w3.org/2000/svg">
<path d="M13.8086 12.8633C13.918 13 14 13.1641 14 13.3281C14 13.5195 13.918 13.6836 13.8086 13.793L13.043 14.5586C12.9062 14.6953 12.7422 14.75 12.5781 14.75C12.3867 14.75 12.2227 14.6953 12.1133 14.5586L9.37891 11.8242C9.24219 11.7148 9.1875 11.5508 9.1875 11.3594V10.9219C8.14844 11.7422 7 12.125 5.6875 12.125C4.64844 12.125 3.69141 11.8789 2.81641 11.3594C1.94141 10.8672 1.25781 10.1836 0.765625 9.30859C0.246094 8.43359 0 7.47656 0 6.4375C0 5.39844 0.246094 4.46875 0.765625 3.59375C1.25781 2.71875 1.94141 2.03516 2.81641 1.51562C3.69141 1.02344 4.64844 0.75 5.6875 0.75C6.72656 0.75 7.65625 1.02344 8.53125 1.51562C9.40625 2.03516 10.0898 2.71875 10.6094 3.59375C11.1016 4.46875 11.375 5.39844 11.375 6.4375C11.375 7.75 10.9648 8.92578 10.1719 9.9375H10.6094C10.7734 9.9375 10.9375 10.0195 11.0742 10.1289L13.8086 12.8633ZM5.6875 9.9375C6.31641 9.9375 6.89062 9.80078 7.4375 9.47266C7.98438 9.17188 8.39453 8.76172 8.72266 8.21484C9.02344 7.66797 9.1875 7.09375 9.1875 6.4375C9.1875 5.80859 9.02344 5.23438 8.72266 4.6875C8.39453 4.14062 7.98438 3.73047 7.4375 3.40234C6.89062 3.10156 6.31641 2.9375 5.6875 2.9375C5.03125 2.9375 4.45703 3.10156 3.91016 3.40234C3.36328 3.73047 2.95312 4.14062 2.65234 4.6875C2.32422 5.23438 2.1875 5.80859 2.1875 6.4375C2.1875 7.09375 2.32422 7.66797 2.65234 8.21484C2.95312 8.76172 3.36328 9.17188 3.91016 9.47266C4.45703 9.80078 5.03125 9.9375 5.6875 9.9375Z" fill="#CED3EB"/>
</svg>
