<svg width="14" height="9" viewBox="0 0 14 9" fill="none" xmlns="http://www.w3.org/2000/svg">
<path d="M12.8906 1.40625C12.9844 1.82812 13.0781 2.48438 13.125 3.32812L13.1484 4.5L13.125 5.67188C13.0781 6.5625 12.9844 7.19531 12.8906 7.61719C12.7969 7.89844 12.6562 8.13281 12.4688 8.32031C12.2578 8.53125 12.0234 8.67188 11.7422 8.74219C11.3203 8.85938 10.3828 8.92969 8.88281 8.97656L6.75 9L4.61719 8.97656C3.11719 8.92969 2.15625 8.85938 1.75781 8.74219C1.47656 8.67188 1.21875 8.53125 1.03125 8.32031C0.820312 8.13281 0.679688 7.89844 0.609375 7.61719C0.492188 7.19531 0.421875 6.5625 0.375 5.67188L0.351562 4.5C0.351562 4.17188 0.351562 3.77344 0.375 3.32812C0.421875 2.48438 0.492188 1.82812 0.609375 1.40625C0.679688 1.125 0.820312 0.890625 1.03125 0.679688C1.21875 0.492188 1.47656 0.351562 1.75781 0.257812C2.15625 0.164062 3.11719 0.0703125 4.61719 0.0234375L6.75 0L8.88281 0.0234375C10.3828 0.0703125 11.3203 0.164062 11.7422 0.257812C12.0234 0.351562 12.2578 0.492188 12.4688 0.679688C12.6562 0.890625 12.7969 1.125 12.8906 1.40625ZM5.4375 6.42188L8.78906 4.5L5.4375 2.60156V6.42188Z" fill="#999AB0"/>
</svg>
