<svg version="1.1" xmlns="http://www.w3.org/2000/svg" xmlns:xlink="http://www.w3.org/1999/xlink" width="27" height="19"><defs/><g><path fill="rgb(232,13,123)" stroke="none" paint-order="stroke fill markers" fill-rule="evenodd" d=" M 9.805355370044708 17.999368607997894 C 9.43791538476944 17.999368607997894 9.07033771276474 17.86446851491928 8.78975510597229 17.59464740753174 C 8.78975510597229 17.59464740753174 2.421789765357971 11.47083592414856 2.421789765357971 11.47083592414856 C 1.860004961490631 10.930712521076202 1.8593624234199524 10.054364025592804 2.4203670024871826 9.51329916715622 C 2.981027364730835 8.972464442253113 3.89132022857666 8.971753120422363 4.452921450138092 9.511981129646301 C 4.452921450138092 9.511981129646301 9.805355370044708 14.659022212028503 9.805355370044708 14.659022212028503 C 9.805355370044708 14.659022212028503 22.543810307979584 2.408951461315155 22.543810307979584 2.408951461315155 C 23.105411529541016 1.8684096336364746 24.01542901992798 1.8691209554672241 24.576364755630493 2.4102694988250732 C 25.137369334697723 2.9513343572616577 25.136726796627045 3.82766193151474 24.57501083612442 4.367806255817413 C 24.57501083612442 4.367806255817413 10.820932686328888 17.59464740753174 10.820932686328888 17.59464740753174 C 10.540350079536438 17.86446851491928 10.172795355319977 17.999368607997894 9.805355370044708 17.999368607997894 Z"/></g></svg>