<svg width="24" height="16" viewBox="0 0 24 16" fill="none" xmlns="http://www.w3.org/2000/svg">
<path d="M22.2266 9.5625C22.3828 9.875 22.5 10.1875 22.5 10.5C22.5 10.8516 22.3828 11.1641 22.2266 11.4375C21.0938 13.3516 19.5703 14.875 17.6562 15.9688C15.7031 17.1406 13.5547 17.6875 11.25 17.6875C8.90625 17.6875 6.79688 17.1406 4.84375 15.9688C2.89062 14.875 1.36719 13.3516 0.273438 11.4375C0.078125 11.1641 0 10.8516 0 10.5C0 10.1875 0.078125 9.875 0.273438 9.5625C1.36719 7.6875 2.89062 6.16406 4.84375 5.03125C6.79688 3.89844 8.90625 3.3125 11.25 3.3125C13.5547 3.3125 15.7031 3.89844 17.6562 5.03125C19.5703 6.16406 21.0938 7.6875 22.2266 9.5625ZM11.25 15.8125C13.2031 15.8125 15.0391 15.3438 16.6797 14.3672C18.3203 13.4297 19.6484 12.1406 20.625 10.5C20 9.52344 19.2578 8.66406 18.3984 7.88281C17.5391 7.10156 16.5625 6.47656 15.4688 6.00781C16.1719 6.98438 16.5625 8.07812 16.5625 9.25C16.5625 10.2266 16.2891 11.125 15.8203 11.9062C15.3516 12.7266 14.6875 13.3906 13.9062 13.8594C13.0859 14.3281 12.1875 14.5625 11.25 14.5625C10.2734 14.5625 9.375 14.3281 8.59375 13.8594C7.77344 13.3906 7.10938 12.7266 6.64062 11.9062C6.17188 11.125 5.9375 10.2266 5.9375 9.25C5.9375 8.39062 6.13281 7.53125 6.5625 6.75C6.5625 7.375 6.75781 7.88281 7.1875 8.3125C7.61719 8.74219 8.125 8.9375 8.75 8.9375C9.33594 8.9375 9.84375 8.74219 10.2734 8.3125C10.7031 7.88281 10.9375 7.375 10.9375 6.75C10.9375 6.16406 10.7031 5.65625 10.3125 5.22656C8.51562 5.38281 6.91406 5.92969 5.42969 6.86719C3.94531 7.80469 2.73438 9.01562 1.875 10.5C2.8125 12.1406 4.14062 13.4297 5.78125 14.3672C7.42188 15.3438 9.25781 15.8125 11.25 15.8125Z" transform="translate(0.591797 -2.4043)" fill="#7A7C99"/>
</svg>
