<svg width="15" height="13" viewBox="0 0 15 13" fill="none" xmlns="http://www.w3.org/2000/svg">
<path d="M12.6328 1.47266C13.1797 1.96484 13.5898 2.53906 13.8086 3.22266C14.0273 3.93359 14.0547 4.61719 13.8906 5.32812C13.7266 6.03906 13.3984 6.64062 12.9062 7.13281L7.62891 12.6016C7.4375 12.793 7.21875 12.875 7 12.875C6.75391 12.875 6.53516 12.793 6.37109 12.6016L1.09375 7.16016C0.574219 6.64062 0.246094 6.03906 0.0820312 5.32812C-0.0820312 4.61719 -0.0273438 3.93359 0.191406 3.22266C0.410156 2.53906 0.792969 1.96484 1.36719 1.47266C1.85938 1.0625 2.40625 0.789062 3.03516 0.679688C3.63672 0.570312 4.26562 0.625 4.86719 0.816406C5.46875 1.03516 5.98828 1.36328 6.45312 1.82812L7 2.375L7.54688 1.82812C7.98438 1.36328 8.53125 1.03516 9.13281 0.816406C9.73438 0.625 10.3359 0.570312 10.9648 0.679688C11.5664 0.789062 12.1406 1.0625 12.6328 1.47266Z" transform="translate(1)" fill="white"/>
</svg>
