<svg width="23" height="19" viewBox="0 0 23 19" fill="none" xmlns="http://www.w3.org/2000/svg">
<path d="M17.1875 0.734375C17.6172 0.5 18.0859 0.460938 18.5547 0.578125C19.0234 0.695312 19.375 0.929688 19.6484 1.32031C19.9219 1.71094 20.0391 2.17969 19.9609 2.64844L17.6562 17.8047C17.5391 18.4297 17.2266 18.8594 16.7188 19.1328C16.4062 19.2891 16.1328 19.3672 15.8203 19.3672C15.5469 19.3672 15.3125 19.3281 15.0781 19.25L10.7031 17.4141L9.02344 19.7578C8.63281 20.2266 8.20312 20.4609 7.65625 20.5C7.10938 20.5391 6.64062 20.3828 6.25 20.0312C5.82031 19.6797 5.625 19.2109 5.625 18.625V15.3438L1.17188 13.4688C0.703125 13.3125 0.351562 13 0.15625 12.5312C-0.0390625 12.1016 -0.078125 11.6719 0.078125 11.2031C0.195312 10.7344 0.46875 10.3828 0.9375 10.1094L17.1875 0.734375ZM7.5 18.625L8.94531 16.6719L7.5 16.0859V18.625ZM15.8203 17.4922L18.125 2.375L1.875 11.75L6.09375 13.5078L14.3359 6.28125C14.4922 6.125 14.6875 6.08594 14.9219 6.16406C15.1172 6.24219 15.2734 6.35938 15.3516 6.55469C15.4297 6.75 15.3906 6.94531 15.2734 7.10156L9.80469 15.0312L15.8203 17.4922Z" transform="translate(4.0249 -4.52539) rotate(15)" fill="#7A7C99"/>
</svg>
