<svg width="13" height="15" viewBox="0 0 13 15" fill="none" xmlns="http://www.w3.org/2000/svg">
<path d="M6.125 6.75C5.46875 6.75 4.89453 6.61328 4.34766 6.28516C3.80078 5.98438 3.39062 5.57422 3.08984 5.02734C2.76172 4.48047 2.625 3.90625 2.625 3.25C2.625 2.62109 2.76172 2.04688 3.08984 1.5C3.39062 0.953125 3.80078 0.542969 4.34766 0.214844C4.89453 -0.0859375 5.46875 -0.25 6.125 -0.25C6.75391 -0.25 7.32812 -0.0859375 7.875 0.214844C8.42188 0.542969 8.83203 0.953125 9.16016 1.5C9.46094 2.04688 9.625 2.62109 9.625 3.25C9.625 3.90625 9.46094 4.48047 9.16016 5.02734C8.83203 5.57422 8.42188 5.98438 7.875 6.28516C7.32812 6.61328 6.75391 6.75 6.125 6.75ZM8.58594 7.625C9.24219 7.625 9.84375 7.78906 10.418 8.11719C10.9648 8.44531 11.4297 8.91016 11.7578 9.45703C12.0859 10.0312 12.25 10.6328 12.25 11.2891V12.4375C12.25 12.8203 12.1133 13.1211 11.8672 13.3672C11.5938 13.6406 11.293 13.75 10.9375 13.75H1.3125C0.929688 13.75 0.628906 13.6406 0.382812 13.3672C0.109375 13.1211 0 12.8203 0 12.4375V11.2891C0 10.6328 0.164062 10.0312 0.492188 9.45703C0.820312 8.91016 1.25781 8.44531 1.83203 8.11719C2.37891 7.78906 3.00781 7.625 3.66406 7.625H4.12891C4.75781 7.92578 5.41406 8.0625 6.125 8.0625C6.80859 8.0625 7.46484 7.92578 8.12109 7.625H8.58594Z" transform="translate(0 1)" fill="white"/>
</svg>
