<svg width="31" height="36" viewBox="0 0 31 36" fill="none" xmlns="http://www.w3.org/2000/svg">
<path d="M29.8438 30.3125V30.2344C29.9219 29.9219 30 29.2969 30 28.3594V3.90625C30 3.4375 29.8438 3.125 29.6094 2.89062C29.2969 2.65625 28.9844 2.5 28.5938 2.5C28.4375 2.5 25.625 3.04688 20.1562 4.0625L10.3906 5.85938C10.2344 5.85938 10.0781 5.9375 9.92188 6.01562C9.6875 6.09375 9.53125 6.17188 9.375 6.32812C9.0625 6.5625 8.82812 6.875 8.82812 7.34375C8.67188 7.65625 8.67188 9.92188 8.75 14.1406C8.75 18.4375 8.82812 21.4844 8.82812 23.2812C8.75 26.4844 8.59375 28.2031 8.35938 28.4375C8.125 28.75 7.73438 28.9062 7.1875 28.9844L6.64062 29.0625C5.07812 29.375 4.0625 29.6094 3.4375 29.7656C2.5 30.0781 1.71875 30.5469 1.17188 31.0156C0.390625 31.7969 0 32.6562 0 33.5938C-0.078125 34.6094 0.234375 35.5469 0.859375 36.3281C1.48438 37.1094 2.34375 37.6562 3.4375 37.8125C4.0625 37.9688 4.92188 37.8906 5.9375 37.7344C6.875 37.5781 7.73438 37.3438 8.4375 36.9531C9.6875 36.3281 10.4688 35.3125 10.7812 33.9062V33.8281C10.8594 33.4375 10.9375 32.8906 10.9375 32.1094V15.1562C10.9375 14.7656 11.0156 14.4531 11.1719 14.2969C11.3281 14.1406 11.5625 13.9844 12.0312 13.8281L26.4844 11.1719C26.9531 11.0938 27.2656 11.0938 27.5 11.25C27.6562 11.4062 27.8125 11.7188 27.8125 12.1094L27.8906 22.8906C27.8125 23.6719 27.7344 24.1406 27.7344 24.2969C27.7344 24.5312 27.6562 24.6875 27.5 24.8438C27.1875 25.1562 26.7969 25.3906 26.25 25.4688L25.7812 25.5469C24.2188 25.8594 23.125 26.0938 22.5781 26.25C21.5625 26.5625 20.7812 26.9531 20.3125 27.5C19.375 28.2812 18.9844 29.2969 19.0625 30.3906C19.0625 31.5625 19.5312 32.5 20.4688 33.2812C21.1719 33.9062 21.9531 34.2188 22.8906 34.2969C23.5156 34.375 24.4531 34.2969 25.5469 34.0625C27.8906 33.6719 29.375 32.4219 29.8438 30.3125Z" transform="translate(1 -2)" fill="#FF5500"/>
</svg>
