<svg width="25" height="17" viewBox="0 0 25 17" fill="none" xmlns="http://www.w3.org/2000/svg">
<path d="M24.6094 13.9375C24.7656 13.7812 24.8828 13.5469 24.8828 13.2734C24.8828 13.0391 24.7656 12.8047 24.6094 12.6094L24.1797 12.1797C23.9844 12.0234 23.75 11.9062 23.4766 11.9062C23.2031 11.9062 22.9688 12.0234 22.8125 12.1797L21.25 13.8594V5.1875C21.25 4.95312 21.1328 4.71875 20.9766 4.52344C20.7812 4.36719 20.5469 4.25 20.3125 4.25H10.7812C10.5078 4.25 10.2734 4.36719 10.1172 4.52344C9.96094 4.71875 9.84375 4.95312 9.84375 5.1875C9.84375 5.46094 9.92188 5.69531 10.1172 5.85156L10.7422 6.47656C10.9375 6.67188 11.1719 6.75 11.4062 6.75H18.75V13.8594L17.1875 12.1797C16.9922 12.0234 16.7578 11.9062 16.4844 11.9062C16.2109 11.9062 15.9766 12.0234 15.8203 12.1797L15.3906 12.6094C15.1953 12.8047 15.1172 13.0391 15.1172 13.2734C15.1172 13.5469 15.1953 13.7812 15.3906 13.9375L19.3359 17.8438C19.4922 18.0391 19.7266 18.1172 20 18.1172C20.2344 18.1172 20.4688 18.0391 20.6641 17.8438L24.6094 13.9375ZM14.2578 14.5234L14.8828 15.1484C15.0391 15.3438 15.1172 15.5781 15.1172 15.8125C15.1172 16.0859 15 16.3203 14.8438 16.4766C14.6875 16.6719 14.4531 16.75 14.2188 16.75H4.6875C4.41406 16.75 4.17969 16.6719 4.02344 16.4766C3.82812 16.3203 3.75 16.0859 3.75 15.8125V7.14062L2.1875 8.82031C1.99219 9.01562 1.75781 9.09375 1.48438 9.09375C1.21094 9.09375 0.976562 9.01562 0.820312 8.82031L0.390625 8.39062C0.195312 8.23438 0.117188 8 0.117188 7.72656C0.117188 7.49219 0.195312 7.25781 0.390625 7.0625L4.33594 3.15625C4.49219 3 4.72656 2.88281 5 2.88281C5.23438 2.88281 5.46875 3 5.66406 3.15625L9.60938 7.0625C9.76562 7.25781 9.88281 7.49219 9.88281 7.72656C9.88281 8 9.76562 8.23438 9.60938 8.39062L9.17969 8.82031C8.98438 9.01562 8.75 9.09375 8.47656 9.09375C8.20312 9.09375 7.96875 9.01562 7.8125 8.82031L6.25 7.14062V14.25H13.5938C13.8281 14.25 14.0234 14.3672 14.2578 14.5234Z" transform="translate(0 -2)" fill="#B8BACE"/>
</svg>
