<svg width="471" height="31" viewBox="0 0 471 31" fill="none" xmlns="http://www.w3.org/2000/svg">
<path d="M0 0V11.6667" transform="translate(1 17)" stroke="#A7A7AF"/>
<path d="M0 20.9997V4.6666M3.62629 16.3331V0" transform="translate(4.62646 10)" stroke="#A7A7AF"/>
<path d="M0 0V11.6667" transform="translate(10.6699 17)" stroke="#A7A7AF"/>
<path d="M0 20.9997V4.6666M3.62638 16.3331V0" transform="translate(14.2964 10)" stroke="#A7A7AF"/>
<path d="M0 0V17.2222" transform="translate(21.0996 10.332)" stroke="#A7A7AF"/>
<path d="M0 30.9996V6.88879M3.35 24.1108V0" transform="translate(24.4497)" stroke="#A7A7AF"/>
<path d="M0 0V13.8889" transform="translate(31.2192 14.332)" stroke="#A7A7AF"/>
<path d="M0 24.9997V5.55548M3.02191 19.4442V0" transform="translate(34.2412 6)" stroke="#A7A7AF"/>
<path d="M0 0V13.8889" transform="translate(40.8892 14.332)" stroke="#A7A7AF"/>
<path d="M0 24.9997V5.55548M3.62641 19.4442V0" transform="translate(44.5156 6)" stroke="#A7A7AF"/>
<path d="M0 0V17.2222" transform="translate(51.25 10.332)" stroke="#A7A7AF"/>
<path d="M0 30.9996V6.88879M3.35 24.1108V0" transform="translate(54.5996)" stroke="#A7A7AF"/>
<path d="M0 0V13.8889" transform="translate(61.438 14.332)" stroke="#A7A7AF"/>
<path d="M0 24.9997V5.55548M3.02188 19.4442V0" transform="translate(64.46 6)" stroke="#A7A7AF"/>
<path d="M0 0V13.8889" transform="translate(71.1084 14.332)" stroke="#A7A7AF"/>
<path d="M0 24.9997V5.55548M3.62642 19.4442V0" transform="translate(74.7339 6)" stroke="#A7A7AF"/>
<path d="M0 0V17.2222" transform="translate(81.3999 10.332)" stroke="#A7A7AF"/>
<path d="M0 30.9996V6.88879M3.35 24.1108V0" transform="translate(84.75)" stroke="#A7A7AF"/>
<path d="M0 0V17.2222" transform="translate(91.4497 10.332)" stroke="#A7A7AF"/>
<path d="M0 30.9996V6.88879M3.35 24.1108V0" transform="translate(94.8003)" stroke="#A7A7AF"/>
<path d="M0 0V13.8889" transform="translate(101.328 14.332)" stroke="#A7A7AF"/>
<path d="M0 24.9997V5.55548M3.62643 19.4442V0" transform="translate(104.953 6)" stroke="#A7A7AF"/>
<path d="M0 0V17.2222" transform="translate(111.55 10.332)" stroke="#A7A7AF"/>
<path d="M0 30.9996V6.88879M3.35 24.1108V0" transform="translate(114.9)" stroke="#A7A7AF"/>
<path d="M0 0V11.6667" transform="translate(118.25 17)" stroke="#A7A7AF"/>
<path d="M0 20.9997V4.6666M3.62629 16.3331V0" transform="translate(121.876 10)" stroke="#A7A7AF"/>
<path d="M0 0V11.6667" transform="translate(127.92 17)" stroke="#A7A7AF"/>
<path d="M0 20.9997V4.6666M3.62638 16.3331V0" transform="translate(131.546 10)" stroke="#A7A7AF"/>
<path d="M0 0V17.2222" transform="translate(138.35 10.332)" stroke="#A7A7AF"/>
<path d="M0 13.9998V3.11107M3.36727 10.8887V0" transform="translate(141.216 17)" stroke="#A7A7AF"/>
<path d="M0 0V13.8889" transform="translate(148.469 14.332)" stroke="#A7A7AF"/>
<path d="M0 11.2902V2.50893M3.03748 8.78124V0" transform="translate(151.059 19.709)" stroke="#A7A7AF"/>
<path d="M0 0V13.8889" transform="translate(158.139 14.332)" stroke="#A7A7AF"/>
<path d="M0 11.2902V2.50893M3.6451 8.78124V0" transform="translate(161.385 19.709)" stroke="#A7A7AF"/>
<path d="M0 0V17.2222" transform="translate(168.5 10.332)" stroke="#A7A7AF"/>
<path d="M0 13.9998V3.11107M3.36727 10.8887V0" transform="translate(171.522 17)" stroke="#A7A7AF"/>
<path d="M0 0V13.8889" transform="translate(178.688 14.332)" stroke="#A7A7AF"/>
<path d="M0 11.2902V2.50893M3.03745 8.78124V0" transform="translate(181.433 19.709)" stroke="#A7A7AF"/>
<path d="M0 0V13.8889" transform="translate(188.358 14.332)" stroke="#A7A7AF"/>
<path d="M0 11.2902V2.50893M3.64511 8.78124V0" transform="translate(191.76 19.709)" stroke="#A7A7AF"/>
<path d="M0 0V17.2222" transform="translate(198.65 10.332)" stroke="#A7A7AF"/>
<path d="M0 13.9998V3.11107M3.36727 10.8887V0" transform="translate(201.828 17)" stroke="#A7A7AF"/>
<path d="M0 0V17.2222" transform="translate(208.7 10.332)" stroke="#A7A7AF"/>
<path d="M0 13.9998V3.11107M3.36727 10.8887V0" transform="translate(211.929 17)" stroke="#A7A7AF"/>
<path d="M0 0V13.8889" transform="translate(218.578 14.332)" stroke="#A7A7AF"/>
<path d="M0 11.2902V2.50893M3.64512 8.78124V0" transform="translate(222.135 19.709)" stroke="#A7A7AF"/>
<path d="M0 0V17.2222" transform="translate(228.8 10.332)" stroke="#A7A7AF"/>
<path d="M0 13.9998V3.11107M3.36727 10.8887V0" transform="translate(232.133 17)" stroke="#A7A7AF"/>
<path d="M0 0V11.6667" transform="translate(470 17) scale(-1 1)" stroke="#A7A7AF"/>
<path d="M0 20.9997V4.6666M3.62629 16.3331V0" transform="translate(466.374 10) scale(-1 1)" stroke="#A7A7AF"/>
<path d="M0 0V11.6667" transform="translate(460.33 17) scale(-1 1)" stroke="#A7A7AF"/>
<path d="M0 20.9997V4.6666M3.62638 16.3331V0" transform="translate(456.704 10) scale(-1 1)" stroke="#A7A7AF"/>
<path d="M0 0V17.2222" transform="translate(449.9 10.332) scale(-1 1)" stroke="#A7A7AF"/>
<path d="M0 30.9996V6.88879M3.35 24.1108V0" transform="translate(446.55) scale(-1 1)" stroke="#A7A7AF"/>
<path d="M0 0V13.8889" transform="translate(439.781 14.332) scale(-1 1)" stroke="#A7A7AF"/>
<path d="M0 24.9997V5.55548M3.02191 19.4442V0" transform="translate(436.759 6) scale(-1 1)" stroke="#A7A7AF"/>
<path d="M0 0V13.8889" transform="translate(430.111 14.332) scale(-1 1)" stroke="#A7A7AF"/>
<path d="M0 24.9997V5.55548M3.62641 19.4442V0" transform="translate(426.484 6) scale(-1 1)" stroke="#A7A7AF"/>
<path d="M0 0V17.2222" transform="translate(419.75 10.332) scale(-1 1)" stroke="#A7A7AF"/>
<path d="M0 30.9996V6.88879M3.35 24.1108V0" transform="translate(416.4) scale(-1 1)" stroke="#A7A7AF"/>
<path d="M0 0V13.8889" transform="translate(409.562 14.332) scale(-1 1)" stroke="#A7A7AF"/>
<path d="M0 24.9997V5.55548M3.02188 19.4442V0" transform="translate(406.54 6) scale(-1 1)" stroke="#A7A7AF"/>
<path d="M0 0V13.8889" transform="translate(399.892 14.332) scale(-1 1)" stroke="#A7A7AF"/>
<path d="M0 24.9997V5.55548M3.62642 19.4442V0" transform="translate(396.266 6) scale(-1 1)" stroke="#A7A7AF"/>
<path d="M0 0V17.2222" transform="translate(389.6 10.332) scale(-1 1)" stroke="#A7A7AF"/>
<path d="M0 30.9996V6.88879M3.35 24.1108V0" transform="translate(386.25) scale(-1 1)" stroke="#A7A7AF"/>
<path d="M0 0V17.2222" transform="translate(379.55 10.332) scale(-1 1)" stroke="#A7A7AF"/>
<path d="M0 30.9996V6.88879M3.35 24.1108V0" transform="translate(376.2) scale(-1 1)" stroke="#A7A7AF"/>
<path d="M0 0V13.8889" transform="translate(369.672 14.332) scale(-1 1)" stroke="#A7A7AF"/>
<path d="M0 24.9997V5.55548M3.62643 19.4442V0" transform="translate(366.047 6) scale(-1 1)" stroke="#A7A7AF"/>
<path d="M0 0V17.2222" transform="translate(359.45 10.332) scale(-1 1)" stroke="#A7A7AF"/>
<path d="M0 30.9996V6.88879M3.35 24.1108V0" transform="translate(356.1) scale(-1 1)" stroke="#A7A7AF"/>
<path d="M0 0V11.6667" transform="translate(352.75 17) scale(-1 1)" stroke="#A7A7AF"/>
<path d="M0 20.9997V4.6666M3.62629 16.3331V0" transform="translate(349.124 10) scale(-1 1)" stroke="#A7A7AF"/>
<path d="M0 0V11.6667" transform="translate(343.08 17) scale(-1 1)" stroke="#A7A7AF"/>
<path d="M0 20.9997V4.6666M3.62638 16.3331V0" transform="translate(339.454 10) scale(-1 1)" stroke="#A7A7AF"/>
<path d="M0 0V17.2222" transform="translate(332.65 10.332) scale(-1 1)" stroke="#A7A7AF"/>
<path d="M0 13.9998V3.11107M3.36727 10.8887V0" transform="translate(329.784 17) scale(-1 1)" stroke="#A7A7AF"/>
<path d="M0 0V13.8889" transform="translate(322.531 14.332) scale(-1 1)" stroke="#A7A7AF"/>
<path d="M0 11.2902V2.50893M3.03748 8.78124V0" transform="translate(319.941 19.709) scale(-1 1)" stroke="#A7A7AF"/>
<path d="M0 0V13.8889" transform="translate(312.861 14.332) scale(-1 1)" stroke="#A7A7AF"/>
<path d="M0 11.2902V2.50893M3.6451 8.78124V0" transform="translate(309.615 19.709) scale(-1 1)" stroke="#A7A7AF"/>
<path d="M0 0V17.2222" transform="translate(302.5 10.332) scale(-1 1)" stroke="#A7A7AF"/>
<path d="M0 20.9981V4.66624M3.40845 16.3318V0" transform="translate(299.564 10) scale(-1 1)" stroke="#A7A7AF"/>
<path d="M0 0V20.8317" transform="translate(292.31 6) scale(-1 1)" stroke="#A7A7AF"/>
<path d="M0 16.9339V3.7631M3.0746 13.1708V0" transform="translate(289.533 14.0645) scale(-1 1)" stroke="#A7A7AF"/>
<path d="M0 0V20.8317" transform="translate(282.522 6) scale(-1 1)" stroke="#A7A7AF"/>
<path d="M0 16.9339V3.7631M3.68968 13.1708V0" transform="translate(279.079 14.0645) scale(-1 1)" stroke="#A7A7AF"/>
<path d="M0 0V17.2222" transform="translate(272.35 10.332) scale(-1 1)" stroke="#A7A7AF"/>
<path d="M0 13.9998V3.11107M3.36727 10.8887V0" transform="translate(269.172 17) scale(-1 1)" stroke="#A7A7AF"/>
<path d="M0 0V17.2222" transform="translate(262.3 10.332) scale(-1 1)" stroke="#A7A7AF"/>
<path d="M0 13.9998V3.11107M3.36727 10.8887V0" transform="translate(259.071 17) scale(-1 1)" stroke="#A7A7AF"/>
<path d="M0 0V13.8889" transform="translate(252.422 14.332) scale(-1 1)" stroke="#A7A7AF"/>
<path d="M0 11.2902V2.50893M3.64512 8.78124V0" transform="translate(248.865 19.709) scale(-1 1)" stroke="#A7A7AF"/>
<path d="M0 0V17.2222" transform="translate(242.2 10.332) scale(-1 1)" stroke="#A7A7AF"/>
<path d="M0 13.9998V3.11107M3.36727 10.8887V0" transform="translate(238.867 17) scale(-1 1)" stroke="#A7A7AF"/>
</svg>
