<svg width="215" height="150" viewBox="0 0 215 150" fill="none" xmlns="http://www.w3.org/2000/svg">
<path d="M214.844 48.4375C216.406 55.4688 217.969 66.4062 218.75 80.4688L219.141 100L218.75 119.531C217.969 134.375 216.406 144.922 214.844 151.953C213.281 156.641 210.938 160.547 207.812 163.672C204.297 167.188 200.391 169.531 195.703 170.703C188.672 172.656 173.047 173.828 148.047 174.609L112.5 175L76.9531 174.609C51.9531 173.828 35.9375 172.656 29.2969 170.703C24.6094 169.531 20.3125 167.188 17.1875 163.672C13.6719 160.547 11.3281 156.641 10.1562 151.953C8.20312 144.922 7.03125 134.375 6.25 119.531L5.85938 100C5.85938 94.5312 5.85938 87.8906 6.25 80.4688C7.03125 66.4062 8.20312 55.4688 10.1562 48.4375C11.3281 43.75 13.6719 39.8438 17.1875 36.3281C20.3125 33.2031 24.6094 30.8594 29.2969 29.2969C35.9375 27.7344 51.9531 26.1719 76.9531 25.3906L112.5 25L148.047 25.3906C173.047 26.1719 188.672 27.7344 195.703 29.2969C200.391 30.8594 204.297 33.2031 207.812 36.3281C210.938 39.8438 213.281 43.75 214.844 48.4375ZM90.625 132.031L146.484 100L90.625 68.3594V132.031Z" transform="translate(-5 -25)" fill="#7A7C99" fill-opacity="0.05"/>
</svg>
