<svg width="175" height="176" viewBox="0 0 175 176" fill="none" xmlns="http://www.w3.org/2000/svg">
<path d="M175 22.2656C175 19.5312 173.828 17.1875 171.875 15.2344C169.922 13.6719 167.578 12.5 165.234 12.5H9.76562C6.64062 12.5 4.29688 13.6719 2.73438 15.2344C0.78125 17.1875 0 19.5312 0 22.2656V177.734C0 180.469 0.78125 182.812 2.73438 184.766C4.29688 186.719 6.64062 187.5 9.76562 187.5H93.3594V119.531H70.7031V93.3594H93.3594V73.8281C93.3594 62.8906 96.4844 54.2969 102.734 48.0469C108.984 42.1875 117.188 39.0625 127.344 39.0625C135.156 39.0625 142.188 39.4531 147.656 39.8438V63.6719H133.594C128.516 63.6719 125 64.8438 123.047 67.1875C121.484 69.1406 120.703 72.2656 120.703 76.5625V93.3594H146.875L143.359 119.531H120.703V187.5H165.234C167.969 187.5 170.312 186.719 172.266 184.766C173.828 182.812 175 180.469 175 177.734V22.2656Z" transform="translate(0 -12)" fill="#7A7C99" fill-opacity="0.05"/>
</svg>
