<svg width="175" height="176" viewBox="0 0 175 176" fill="none" xmlns="http://www.w3.org/2000/svg">
<path d="M87.5 55.0781C95.3125 55.0781 102.734 57.4219 109.766 61.3281C116.797 65.2344 122.266 70.7031 126.172 77.7344C130.078 84.7656 132.422 92.1875 132.422 100C132.422 108.203 130.078 115.625 126.172 122.656C122.266 129.688 116.797 135.156 109.766 139.062C102.734 142.969 95.3125 144.922 87.5 144.922C79.2969 144.922 71.875 142.969 64.8438 139.062C57.8125 135.156 52.3438 129.688 48.4375 122.656C44.5312 115.625 42.5781 108.203 42.5781 100C42.5781 92.1875 44.5312 84.7656 48.4375 77.7344C52.3438 70.7031 57.8125 65.2344 64.8438 61.3281C71.875 57.4219 79.2969 55.0781 87.5 55.0781ZM87.5 129.297C95.3125 129.297 102.344 126.562 108.203 120.703C113.672 115.234 116.797 108.203 116.797 100C116.797 92.1875 113.672 85.1562 108.203 79.2969C102.344 73.8281 95.3125 70.7031 87.5 70.7031C79.2969 70.7031 72.2656 73.8281 66.7969 79.2969C60.9375 85.1562 58.2031 92.1875 58.2031 100C58.2031 108.203 60.9375 115.234 66.7969 120.703C72.2656 126.562 79.2969 129.297 87.5 129.297ZM144.922 53.125C144.922 50.3906 143.75 48.0469 141.797 45.7031C139.453 43.75 137.109 42.5781 134.375 42.5781C131.25 42.5781 128.906 43.75 126.953 45.7031C124.609 48.0469 123.828 50.3906 123.828 53.125C123.828 56.25 124.609 58.5938 126.953 60.5469C128.906 62.8906 131.25 63.6719 134.375 63.6719C137.109 63.6719 139.453 62.8906 141.406 60.5469C143.359 58.5938 144.531 56.25 144.922 53.125ZM174.609 63.6719C174.609 71.0938 175 83.2031 175 100C175 117.188 174.609 129.297 174.219 136.719C173.828 144.141 172.656 150.391 171.094 155.859C168.75 162.5 164.844 168.359 160.156 173.047C155.469 177.734 149.609 181.25 143.359 183.594C137.891 185.547 131.25 186.719 123.828 187.109C116.406 187.5 104.297 187.5 87.5 187.5C70.3125 187.5 58.2031 187.5 50.7812 187.109C43.3594 186.719 37.1094 185.547 31.6406 183.203C25 181.25 19.1406 177.734 14.4531 173.047C9.76562 168.359 6.25 162.5 3.90625 155.859C1.95312 150.391 0.78125 144.141 0.390625 136.719C0 129.297 0 117.188 0 100C0 83.2031 0 71.0938 0.390625 63.6719C0.78125 56.25 1.95312 49.6094 3.90625 44.1406C6.25 37.8906 9.76562 32.0312 14.4531 27.3438C19.1406 22.6562 25 18.75 31.6406 16.4062C37.1094 14.8438 43.3594 13.6719 50.7812 13.2812C58.2031 12.8906 70.3125 12.5 87.5 12.5C104.297 12.5 116.406 12.8906 123.828 13.2812C131.25 13.6719 137.891 14.8438 143.359 16.4062C149.609 18.75 155.469 22.6562 160.156 27.3438C164.844 32.0312 168.75 37.8906 171.094 44.1406C172.656 49.6094 173.828 56.25 174.609 63.6719ZM155.859 151.562C157.422 147.266 158.203 140.234 158.984 130.469C158.984 125 159.375 116.797 159.375 106.25V93.75C159.375 83.2031 158.984 75 158.984 69.5312C158.203 59.7656 157.422 52.7344 155.859 48.4375C152.734 40.625 146.875 34.7656 139.062 31.6406C134.766 30.0781 127.734 29.2969 117.969 28.5156C112.109 28.5156 103.906 28.125 93.75 28.125H81.25C70.7031 28.125 62.5 28.5156 57.0312 28.5156C47.2656 29.2969 40.2344 30.0781 35.9375 31.6406C27.7344 34.7656 22.2656 40.625 19.1406 48.4375C17.5781 52.7344 16.4062 59.7656 16.0156 69.5312C15.625 75.3906 15.625 83.5938 15.625 93.75V106.25C15.625 116.797 15.625 125 16.0156 130.469C16.4062 140.234 17.5781 147.266 19.1406 151.562C22.2656 159.766 28.125 165.234 35.9375 168.359C40.2344 169.922 47.2656 171.094 57.0312 171.484C62.5 171.875 70.7031 171.875 81.25 171.875H93.75C104.297 171.875 112.5 171.875 117.969 171.484C127.734 171.094 134.766 169.922 139.062 168.359C146.875 165.234 152.734 159.375 155.859 151.562Z" transform="translate(0 -12)" fill="#7A7C99" fill-opacity="0.05"/>
</svg>
