<svg width="16" height="19" viewBox="0 0 16 19" fill="none" xmlns="http://www.w3.org/2000/svg">
<path d="M14.9219 15.6562V15.6172C14.9609 15.4609 15 15.1484 15 14.6797V2.45312C15 2.21875 14.9219 2.0625 14.8047 1.94531C14.6484 1.82812 14.4922 1.75 14.2969 1.75C14.2188 1.75 12.8125 2.02344 10.0781 2.53125L5.19531 3.42969C5.11719 3.42969 5.03906 3.46875 4.96094 3.50781C4.84375 3.54688 4.76562 3.58594 4.6875 3.66406C4.53125 3.78125 4.41406 3.9375 4.41406 4.17188C4.33594 4.32812 4.33594 5.46094 4.375 7.57031C4.375 9.71875 4.41406 11.2422 4.41406 12.1406C4.375 13.7422 4.29688 14.6016 4.17969 14.7188C4.0625 14.875 3.86719 14.9531 3.59375 14.9922L3.32031 15.0312C2.53906 15.1875 2.03125 15.3047 1.71875 15.3828C1.25 15.5391 0.859375 15.7734 0.585938 16.0078C0.195312 16.3984 0 16.8281 0 17.2969C-0.0390625 17.8047 0.117188 18.2734 0.429688 18.6641C0.742188 19.0547 1.17188 19.3281 1.71875 19.4062C2.03125 19.4844 2.46094 19.4453 2.96875 19.3672C3.4375 19.2891 3.86719 19.1719 4.21875 18.9766C4.84375 18.6641 5.23438 18.1562 5.39062 17.4531V17.4141C5.42969 17.2188 5.46875 16.9453 5.46875 16.5547V8.07812C5.46875 7.88281 5.50781 7.72656 5.58594 7.64844C5.66406 7.57031 5.78125 7.49219 6.01562 7.41406L13.2422 6.08594C13.4766 6.04688 13.6328 6.04688 13.75 6.125C13.8281 6.20312 13.9062 6.35938 13.9062 6.55469L13.9453 11.9453C13.9062 12.3359 13.8672 12.5703 13.8672 12.6484C13.8672 12.7656 13.8281 12.8438 13.75 12.9219C13.5938 13.0781 13.3984 13.1953 13.125 13.2344L12.8906 13.2734C12.1094 13.4297 11.5625 13.5469 11.2891 13.625C10.7812 13.7812 10.3906 13.9766 10.1562 14.25C9.6875 14.6406 9.49219 15.1484 9.53125 15.6953C9.53125 16.2812 9.76562 16.75 10.2344 17.1406C10.5859 17.4531 10.9766 17.6094 11.4453 17.6484C11.7578 17.6875 12.2266 17.6484 12.7734 17.5312C13.9453 17.3359 14.6875 16.7109 14.9219 15.6562Z" transform="translate(1 -1)" fill="#0088FF"/>
</svg>
