<svg width="6" height="11" viewBox="0 0 6 11" fill="none" xmlns="http://www.w3.org/2000/svg">
<path d="M2.0625 4.39062H0.984375C0.820312 4.39062 0.679688 4.34375 0.585938 4.22656C0.46875 4.13281 0.421875 3.99219 0.421875 3.82812C0.421875 3.6875 0.46875 3.54688 0.585938 3.42969L2.60156 1.41406C2.69531 1.32031 2.83594 1.25 3 1.25C3.14062 1.25 3.28125 1.32031 3.39844 1.41406L5.41406 3.42969C5.50781 3.54688 5.57812 3.6875 5.57812 3.82812C5.57812 3.99219 5.50781 4.13281 5.41406 4.22656C5.29688 4.34375 5.15625 4.39062 5.01562 4.39062H3.9375V11.4688C3.9375 11.5625 3.89062 11.6328 3.84375 11.6797C3.79688 11.7266 3.72656 11.75 3.65625 11.75H2.34375C2.25 11.75 2.17969 11.7266 2.13281 11.6797C2.08594 11.6328 2.0625 11.5625 2.0625 11.4688V4.39062Z" transform="translate(0 -1)" fill="#6FCF97"/>
</svg>
