<svg width="7" height="24" viewBox="0 0 7 24" fill="none" xmlns="http://www.w3.org/2000/svg">
<path d="M4.5 8.625C3.5625 8.625 2.76562 8.95312 2.10938 9.60938C1.45312 10.2656 1.125 11.0625 1.125 12C1.125 12.9375 1.45312 13.7344 2.10938 14.3906C2.76562 15.0469 3.5625 15.375 4.5 15.375C5.4375 15.375 6.23438 15.0469 6.89062 14.3906C7.54688 13.7344 7.875 12.9375 7.875 12C7.875 11.0625 7.54688 10.2656 6.89062 9.60938C6.23438 8.95312 5.4375 8.625 4.5 8.625ZM1.125 3.75C1.125 2.8125 1.45312 2.01562 2.10938 1.35938C2.76562 0.703125 3.5625 0.375 4.5 0.375C5.4375 0.375 6.23438 0.703125 6.89062 1.35938C7.54688 2.01562 7.875 2.8125 7.875 3.75C7.875 4.6875 7.54688 5.48438 6.89062 6.14062C6.23438 6.79688 5.4375 7.125 4.5 7.125C3.5625 7.125 2.76562 6.79688 2.10938 6.14062C1.45312 5.48438 1.125 4.6875 1.125 3.75ZM1.125 20.25C1.125 19.3125 1.45312 18.5156 2.10938 17.8594C2.76562 17.2031 3.5625 16.875 4.5 16.875C5.4375 16.875 6.23438 17.2031 6.89062 17.8594C7.54688 18.5156 7.875 19.3125 7.875 20.25C7.875 21.1875 7.54688 21.9844 6.89062 22.6406C6.23438 23.2969 5.4375 23.625 4.5 23.625C3.5625 23.625 2.76562 23.2969 2.10938 22.6406C1.45312 21.9844 1.125 21.1875 1.125 20.25Z" transform="translate(-1)" fill="#B8BACE"/>
</svg>
