<svg width="7" height="13" viewBox="0 0 7 13" fill="none" xmlns="http://www.w3.org/2000/svg">
<path d="M2.40625 4.28906H1.14844C0.957031 4.28906 0.792969 4.23438 0.683594 4.09766C0.546875 3.98828 0.492188 3.82422 0.492188 3.63281C0.492188 3.46875 0.546875 3.30469 0.683594 3.16797L3.03516 0.816406C3.14453 0.707031 3.30859 0.625 3.5 0.625C3.66406 0.625 3.82812 0.707031 3.96484 0.816406L6.31641 3.16797C6.42578 3.30469 6.50781 3.46875 6.50781 3.63281C6.50781 3.82422 6.42578 3.98828 6.31641 4.09766C6.17969 4.23438 6.01562 4.28906 5.85156 4.28906H4.59375V12.5469C4.59375 12.6562 4.53906 12.7383 4.48438 12.793C4.42969 12.8477 4.34766 12.875 4.26562 12.875H2.73438C2.625 12.875 2.54297 12.8477 2.48828 12.793C2.43359 12.7383 2.40625 12.6562 2.40625 12.5469V4.28906Z" fill="#6FCF97"/>
</svg>
