<svg width="18" height="18" viewBox="0 0 18 18" fill="none" xmlns="http://www.w3.org/2000/svg">
<path d="M8.26941 0.781694C8.66467 0.358788 9.33533 0.358788 9.73059 0.781694L11.2729 2.43186C11.47 2.64279 11.7487 2.75822 12.0372 2.74847L14.2946 2.67218C14.8731 2.65263 15.3474 3.12685 15.3278 3.70538L15.2515 5.96278C15.2418 6.25132 15.3572 6.53 15.5681 6.72714L17.2183 8.26941C17.6412 8.66467 17.6412 9.33533 17.2183 9.73059L15.5681 11.2729C15.3572 11.47 15.2418 11.7487 15.2515 12.0372L15.3278 14.2946C15.3474 14.8731 14.8731 15.3474 14.2946 15.3278L12.0372 15.2515C11.7487 15.2418 11.47 15.3572 11.2729 15.5681L9.73059 17.2183C9.33533 17.6412 8.66467 17.6412 8.26941 17.2183L6.72714 15.5681C6.53 15.3572 6.25132 15.2418 5.96278 15.2515L3.70538 15.3278C3.12685 15.3474 2.65263 14.8731 2.67218 14.2946L2.74847 12.0372C2.75822 11.7487 2.64279 11.47 2.43186 11.2729L0.781694 9.73059C0.358788 9.33533 0.358788 8.66467 0.781694 8.26941L2.43186 6.72714C2.64279 6.53 2.75822 6.25132 2.74847 5.96278L2.67218 3.70538C2.65263 3.12685 3.12685 2.65263 3.70538 2.67218L5.96278 2.74847C6.25132 2.75822 6.53 2.64279 6.72714 2.43186L8.26941 0.781694Z" fill="#1DA1F2"/>
<path d="M0 2.5L2.33333 5L7 0" transform="translate(5.5 6.5)" stroke="white" stroke-linejoin="round"/>
</svg>
