<svg width="18" height="21" viewBox="0 0 18 21" fill="none" xmlns="http://www.w3.org/2000/svg">
<path d="M8.75 10.5C7.8125 10.5 6.99219 10.3047 6.21094 9.83594C5.42969 9.40625 4.84375 8.82031 4.41406 8.03906C3.94531 7.25781 3.75 6.4375 3.75 5.5C3.75 4.60156 3.94531 3.78125 4.41406 3C4.84375 2.21875 5.42969 1.63281 6.21094 1.16406C6.99219 0.734375 7.8125 0.5 8.75 0.5C9.64844 0.5 10.4688 0.734375 11.25 1.16406C12.0312 1.63281 12.6172 2.21875 13.0859 3C13.5156 3.78125 13.75 4.60156 13.75 5.5C13.75 6.4375 13.5156 7.25781 13.0859 8.03906C12.6172 8.82031 12.0312 9.40625 11.25 9.83594C10.4688 10.3047 9.64844 10.5 8.75 10.5ZM12.2656 11.75C13.2031 11.75 14.0625 11.9844 14.8828 12.4531C15.6641 12.9219 16.3281 13.5859 16.7969 14.3672C17.2656 15.1875 17.5 16.0469 17.5 16.9844V18.625C17.5 19.1719 17.3047 19.6016 16.9531 19.9531C16.5625 20.3438 16.1328 20.5 15.625 20.5H1.875C1.32812 20.5 0.898438 20.3438 0.546875 19.9531C0.15625 19.6016 0 19.1719 0 18.625V16.9844C0 16.0469 0.234375 15.1875 0.703125 14.3672C1.17188 13.5859 1.79688 12.9219 2.61719 12.4531C3.39844 11.9844 4.29688 11.75 5.23438 11.75H5.89844C6.79688 12.1797 7.73438 12.375 8.75 12.375C9.72656 12.375 10.6641 12.1797 11.6016 11.75H12.2656Z" fill="#1DA1F2"/>
</svg>
