<svg width="7" height="21" viewBox="0 0 7 21" fill="none" xmlns="http://www.w3.org/2000/svg">
<path d="M3.75 7.6875C2.96875 7.6875 2.30469 7.96094 1.75781 8.50781C1.21094 9.05469 0.9375 9.71875 0.9375 10.5C0.9375 11.2812 1.21094 11.9453 1.75781 12.4922C2.30469 13.0391 2.96875 13.3125 3.75 13.3125C4.53125 13.3125 5.19531 13.0391 5.74219 12.4922C6.28906 11.9453 6.5625 11.2812 6.5625 10.5C6.5625 9.71875 6.28906 9.05469 5.74219 8.50781C5.19531 7.96094 4.53125 7.6875 3.75 7.6875ZM0.9375 3.625C0.9375 2.84375 1.21094 2.17969 1.75781 1.63281C2.30469 1.08594 2.96875 0.8125 3.75 0.8125C4.53125 0.8125 5.19531 1.08594 5.74219 1.63281C6.28906 2.17969 6.5625 2.84375 6.5625 3.625C6.5625 4.40625 6.28906 5.07031 5.74219 5.61719C5.19531 6.16406 4.53125 6.4375 3.75 6.4375C2.96875 6.4375 2.30469 6.16406 1.75781 5.61719C1.21094 5.07031 0.9375 4.40625 0.9375 3.625ZM0.9375 17.375C0.9375 16.5938 1.21094 15.9297 1.75781 15.3828C2.30469 14.8359 2.96875 14.5625 3.75 14.5625C4.53125 14.5625 5.19531 14.8359 5.74219 15.3828C6.28906 15.9297 6.5625 16.5938 6.5625 17.375C6.5625 18.1562 6.28906 18.8203 5.74219 19.3672C5.19531 19.9141 4.53125 20.1875 3.75 20.1875C2.96875 20.1875 2.30469 19.9141 1.75781 19.3672C1.21094 18.8203 0.9375 18.1562 0.9375 17.375Z" fill="#B8BACE"/>
</svg>
