<svg width="29" height="27" viewBox="0 0 29 27" fill="none" xmlns="http://www.w3.org/2000/svg">
<g filter="url(#filter0_d)">
<path d="M10.8281 1.97656C11.2969 2.39844 11.6484 2.89062 11.8359 3.47656C12.0234 4.08594 12.0469 4.67188 11.9062 5.28125C11.7656 5.89062 11.4844 6.40625 11.0625 6.82812L6.53906 11.5156C6.375 11.6797 6.1875 11.75 6 11.75C5.78906 11.75 5.60156 11.6797 5.46094 11.5156L0.9375 6.85156C0.492188 6.40625 0.210938 5.89062 0.0703125 5.28125C-0.0703125 4.67188 -0.0234375 4.08594 0.164062 3.47656C0.351562 2.89062 0.679688 2.39844 1.17188 1.97656C1.59375 1.625 2.0625 1.39062 2.60156 1.29688C3.11719 1.20312 3.65625 1.25 4.17188 1.41406C4.6875 1.60156 5.13281 1.88281 5.53125 2.28125L6 2.75L6.46875 2.28125C6.84375 1.88281 7.3125 1.60156 7.82812 1.41406C8.34375 1.25 8.85938 1.20312 9.39844 1.29688C9.91406 1.39062 10.4062 1.625 10.8281 1.97656Z" transform="translate(7 3)" fill="#F50000"/>
</g>
<defs>
<filter id="filter0_d" x="0.98877" y="0.25" width="28.0081" height="26.5009" filterUnits="userSpaceOnUse" color-interpolation-filters="sRGB">
<feFlood flood-opacity="0" result="BackgroundImageFix"/>
<feColorMatrix in="SourceAlpha" type="matrix" values="0 0 0 0 0 0 0 0 0 0 0 0 0 0 0 0 0 0 255 0"/>
<feOffset dx="2" dy="4"/>
<feGaussianBlur stdDeviation="4"/>
<feColorMatrix type="matrix" values="0 0 0 0 0.0528594 0 0 0 0 0.0528594 0 0 0 0 0.275109 0 0 0 0.16 0"/>
<feBlend mode="normal" in2="BackgroundImageFix" result="effect1_dropShadow"/>
<feBlend mode="normal" in="SourceGraphic" in2="effect1_dropShadow" result="shape"/>
</filter>
</defs>
</svg>
