<svg width="33" height="31" viewBox="0 0 33 31" fill="none" xmlns="http://www.w3.org/2000/svg">
<g filter="url(#filter0_d)">
<path d="M14.4375 1.96875C15.0625 2.53125 15.5312 3.1875 15.7812 3.96875C16.0312 4.78125 16.0625 5.5625 15.875 6.375C15.6875 7.1875 15.3125 7.875 14.75 8.4375L8.71875 14.6875C8.5 14.9062 8.25 15 8 15C7.71875 15 7.46875 14.9062 7.28125 14.6875L1.25 8.46875C0.65625 7.875 0.28125 7.1875 0.09375 6.375C-0.09375 5.5625 -0.03125 4.78125 0.21875 3.96875C0.46875 3.1875 0.90625 2.53125 1.5625 1.96875C2.125 1.5 2.75 1.1875 3.46875 1.0625C4.15625 0.9375 4.875 1 5.5625 1.21875C6.25 1.46875 6.84375 1.84375 7.375 2.375L8 3L8.625 2.375C9.125 1.84375 9.75 1.46875 10.4375 1.21875C11.125 1 11.8125 0.9375 12.5312 1.0625C13.2188 1.1875 13.875 1.5 14.4375 1.96875Z" transform="translate(7 4)" fill="#F50000"/>
</g>
<defs>
<filter id="filter0_d" x="0.984863" y="0.998047" width="32.0108" height="30.0012" filterUnits="userSpaceOnUse" color-interpolation-filters="sRGB">
<feFlood flood-opacity="0" result="BackgroundImageFix"/>
<feColorMatrix in="SourceAlpha" type="matrix" values="0 0 0 0 0 0 0 0 0 0 0 0 0 0 0 0 0 0 255 0"/>
<feOffset dx="2" dy="4"/>
<feGaussianBlur stdDeviation="4"/>
<feColorMatrix type="matrix" values="0 0 0 0 0.0528594 0 0 0 0 0.0528594 0 0 0 0 0.275109 0 0 0 0.16 0"/>
<feBlend mode="normal" in2="BackgroundImageFix" result="effect1_dropShadow"/>
<feBlend mode="normal" in="SourceGraphic" in2="effect1_dropShadow" result="shape"/>
</filter>
</defs>
</svg>
