<svg width="49" height="45" viewBox="0 0 49 45" fill="none" xmlns="http://www.w3.org/2000/svg">
<g filter="url(#filter0_d)">
<path d="M28.875 3.9375C30.125 5.0625 31.0625 6.375 31.5625 7.9375C32.0625 9.5625 32.125 11.125 31.75 12.75C31.375 14.375 30.625 15.75 29.5 16.875L17.4375 29.375C17 29.8125 16.5 30 16 30C15.4375 30 14.9375 29.8125 14.5625 29.375L2.5 16.9375C1.3125 15.75 0.5625 14.375 0.1875 12.75C-0.1875 11.125 -0.0625 9.5625 0.4375 7.9375C0.9375 6.375 1.8125 5.0625 3.125 3.9375C4.25 3 5.5 2.375 6.9375 2.125C8.3125 1.875 9.75 2 11.125 2.4375C12.5 2.9375 13.6875 3.6875 14.75 4.75L16 6L17.25 4.75C18.25 3.6875 19.5 2.9375 20.875 2.4375C22.25 2 23.625 1.875 25.0625 2.125C26.4375 2.375 27.75 3 28.875 3.9375Z" transform="translate(7 3)" fill="#F50000"/>
</g>
<defs>
<filter id="filter0_d" x="0.969238" y="0.998047" width="48.0216" height="44.0024" filterUnits="userSpaceOnUse" color-interpolation-filters="sRGB">
<feFlood flood-opacity="0" result="BackgroundImageFix"/>
<feColorMatrix in="SourceAlpha" type="matrix" values="0 0 0 0 0 0 0 0 0 0 0 0 0 0 0 0 0 0 255 0"/>
<feOffset dx="2" dy="4"/>
<feGaussianBlur stdDeviation="4"/>
<feColorMatrix type="matrix" values="0 0 0 0 0.0528594 0 0 0 0 0.0528594 0 0 0 0 0.275109 0 0 0 0.16 0"/>
<feBlend mode="normal" in2="BackgroundImageFix" result="effect1_dropShadow"/>
<feBlend mode="normal" in="SourceGraphic" in2="effect1_dropShadow" result="shape"/>
</filter>
</defs>
</svg>
