<svg width="20" height="21" viewBox="0 0 20 21" fill="none" xmlns="http://www.w3.org/2000/svg">
<path d="M0 2.6875C0 2.45312 0.078125 2.21875 0.273438 2.02344C0.429688 1.86719 0.664062 1.75 0.9375 1.75H4.0625C4.29688 1.75 4.53125 1.86719 4.72656 2.02344C4.88281 2.21875 5 2.45312 5 2.6875V12.0625C5 12.3359 4.88281 12.5703 4.72656 12.7266C4.53125 12.9219 4.29688 13 4.0625 13H0.9375C0.664062 13 0.429688 12.9219 0.273438 12.7266C0.078125 12.5703 0 12.3359 0 12.0625V2.6875ZM1.5625 10.5C1.5625 10.7734 1.64062 11.0078 1.83594 11.1641C1.99219 11.3594 2.22656 11.4375 2.5 11.4375C2.73438 11.4375 2.96875 11.3594 3.16406 11.1641C3.32031 11.0078 3.4375 10.7734 3.4375 10.5C3.4375 10.2656 3.32031 10.0312 3.16406 9.83594C2.96875 9.67969 2.73438 9.5625 2.5 9.5625C2.22656 9.5625 1.99219 9.67969 1.83594 9.83594C1.64062 10.0312 1.5625 10.2656 1.5625 10.5ZM12.1875 20.5C12.8906 20.5 13.4766 20.3438 13.9453 19.9922C14.6484 19.4844 15 18.5859 15 17.3359C15 16.8672 14.9219 16.3984 14.7656 15.9297C14.6484 15.6953 14.4531 15.3047 14.2188 14.8359C13.9062 14.2891 13.75 13.8984 13.7109 13.625H17.6562C18.2812 13.625 18.8281 13.4297 19.2969 12.9609C19.7656 12.4922 20 11.9844 20 11.3594C20 11.0078 19.9219 10.6562 19.7656 10.3047C19.6094 9.99219 19.4531 9.67969 19.2578 9.44531H19.2188C19.4141 8.97656 19.4922 8.42969 19.4531 7.84375C19.375 7.29688 19.1797 6.78906 18.8672 6.32031C19.0234 5.85156 19.0234 5.30469 18.9062 4.75781C18.75 4.21094 18.5547 3.78125 18.2422 3.39062C18.3984 2.72656 18.2812 2.14062 17.9688 1.63281C17.6172 1.16406 16.9922 0.8125 16.0938 0.65625C15.5469 0.578125 14.6875 0.5 13.5547 0.5H13.4375C12.5781 0.5 11.7188 0.65625 10.8594 0.929688C10.3125 1.08594 9.60938 1.39844 8.71094 1.78906C7.8125 2.17969 7.14844 2.375 6.71875 2.375C6.5625 2.375 6.44531 2.45312 6.36719 2.53125C6.28906 2.60938 6.25 2.72656 6.25 2.84375V11.2031C6.25 11.3594 6.28906 11.4375 6.40625 11.5156C6.91406 12.0625 7.53906 12.8828 8.32031 13.9766C8.94531 14.9141 9.45312 15.5391 9.88281 15.9297C10.1172 16.2031 10.3516 16.5547 10.5078 16.9844C10.5859 17.2578 10.7031 17.6875 10.8594 18.2344V18.2734C11.0156 18.8984 11.1328 19.3281 11.2891 19.6406C11.5234 20.2266 11.8359 20.5 12.1875 20.5Z" fill="#B8BACE"/>
</svg>
