<svg width="48" height="48" viewBox="0 0 48 48" fill="none" xmlns="http://www.w3.org/2000/svg">
<path d="M9.75 21C10.3125 21 10.875 21.2812 11.3438 21.6562C11.7188 22.125 12 22.6875 12 23.25V45.75C12 46.4062 11.7188 46.9688 11.3438 47.3438C10.875 47.8125 10.3125 48 9.75 48H2.25C1.59375 48 1.03125 47.8125 0.65625 47.3438C0.1875 46.9688 0 46.4062 0 45.75V23.25C0 22.6875 0.1875 22.125 0.65625 21.6562C1.03125 21.2812 1.59375 21 2.25 21H9.75ZM6 44.25C6.5625 44.25 7.125 44.0625 7.59375 43.5938C7.96875 43.2188 8.25 42.6562 8.25 42C8.25 41.4375 7.96875 40.875 7.59375 40.4062C7.125 40.0312 6.5625 39.75 6 39.75C5.34375 39.75 4.78125 40.0312 4.40625 40.4062C3.9375 40.875 3.75 41.4375 3.75 42C3.75 42.6562 3.9375 43.2188 4.40625 43.5938C4.78125 44.0625 5.34375 44.25 6 44.25ZM36 7.59375C36 4.59375 35.1562 2.53125 33.4688 1.21875C32.3438 0.46875 30.9375 0 29.25 0C28.4062 0 27.6562 0.75 27.0938 2.0625C26.7188 2.8125 26.4375 3.9375 26.0625 5.34375V5.4375C25.6875 6.84375 25.4062 7.875 25.2188 8.4375C24.8438 9.5625 24.2812 10.4062 23.7188 10.9688C22.6875 11.9062 21.4688 13.5 19.9688 15.6562C18.0938 18.2812 16.5938 20.25 15.375 21.5625C15.0938 21.75 15 22.0312 15 22.3125V42.375C15 42.75 15.0938 43.0312 15.2812 43.2188C15.4688 43.4062 15.75 43.5 16.125 43.5C17.1562 43.5 18.75 44.0625 20.9062 45C23.0625 45.9375 24.75 46.5938 26.0625 46.9688C28.125 47.7188 30.1875 48 32.25 48H32.5312C35.25 48 37.3125 47.9062 38.625 47.625C40.7812 47.25 42.2812 46.5 43.125 45.2812C43.875 44.1562 44.1562 42.75 43.7812 41.0625C44.5312 40.2188 45 39.0938 45.375 37.7812C45.6562 36.4688 45.6562 35.25 45.2812 34.0312C46.0312 33 46.5 31.7812 46.6875 30.375C46.7812 29.0625 46.5938 27.75 46.125 26.5312H46.2188C46.6875 25.9688 47.0625 25.3125 47.4375 24.4688C47.8125 23.7188 48 22.875 48 21.9375C48 20.5312 47.4375 19.3125 46.3125 18.1875C45.1875 17.0625 43.875 16.5 42.375 16.5H32.9062C33 15.9375 33.375 14.9062 34.125 13.5938C34.6875 12.4688 35.1562 11.625 35.4375 10.9688C35.8125 9.84375 36 8.71875 36 7.59375Z" fill="#465EDB"/>
</svg>
