<svg width="20" height="21" viewBox="0 0 20 21" fill="none" xmlns="http://www.w3.org/2000/svg">
<path d="M4.0625 9.25C4.29688 9.25 4.53125 9.36719 4.72656 9.52344C4.88281 9.71875 5 9.95312 5 10.1875V19.5625C5 19.8359 4.88281 20.0703 4.72656 20.2266C4.53125 20.4219 4.29688 20.5 4.0625 20.5H0.9375C0.664062 20.5 0.429688 20.4219 0.273438 20.2266C0.078125 20.0703 0 19.8359 0 19.5625V10.1875C0 9.95312 0.078125 9.71875 0.273438 9.52344C0.429688 9.36719 0.664062 9.25 0.9375 9.25H4.0625ZM2.5 18.9375C2.73438 18.9375 2.96875 18.8594 3.16406 18.6641C3.32031 18.5078 3.4375 18.2734 3.4375 18C3.4375 17.7656 3.32031 17.5312 3.16406 17.3359C2.96875 17.1797 2.73438 17.0625 2.5 17.0625C2.22656 17.0625 1.99219 17.1797 1.83594 17.3359C1.64062 17.5312 1.5625 17.7656 1.5625 18C1.5625 18.2734 1.64062 18.5078 1.83594 18.6641C1.99219 18.8594 2.22656 18.9375 2.5 18.9375ZM15 3.66406C15 2.41406 14.6484 1.55469 13.9453 1.00781C13.4766 0.695312 12.8906 0.5 12.1875 0.5C11.8359 0.5 11.5234 0.8125 11.2891 1.35938C11.1328 1.67188 11.0156 2.14062 10.8594 2.72656V2.76562C10.7031 3.35156 10.5859 3.78125 10.5078 4.01562C10.3516 4.48438 10.1172 4.83594 9.88281 5.07031C9.45312 5.46094 8.94531 6.125 8.32031 7.02344C7.53906 8.11719 6.91406 8.9375 6.40625 9.48438C6.28906 9.5625 6.25 9.67969 6.25 9.79688V18.1562C6.25 18.3125 6.28906 18.4297 6.36719 18.5078C6.44531 18.5859 6.5625 18.625 6.71875 18.625C7.14844 18.625 7.8125 18.8594 8.71094 19.25C9.60938 19.6406 10.3125 19.9141 10.8594 20.0703C11.7188 20.3828 12.5781 20.5 13.4375 20.5H13.5547C14.6875 20.5 15.5469 20.4609 16.0938 20.3438C16.9922 20.1875 17.6172 19.875 17.9688 19.3672C18.2812 18.8984 18.3984 18.3125 18.2422 17.6094C18.5547 17.2578 18.75 16.7891 18.9062 16.2422C19.0234 15.6953 19.0234 15.1875 18.8672 14.6797C19.1797 14.25 19.375 13.7422 19.4531 13.1562C19.4922 12.6094 19.4141 12.0625 19.2188 11.5547H19.2578C19.4531 11.3203 19.6094 11.0469 19.7656 10.6953C19.9219 10.3828 20 10.0312 20 9.64062C20 9.05469 19.7656 8.54688 19.2969 8.07812C18.8281 7.60938 18.2812 7.375 17.6562 7.375H13.7109C13.75 7.14062 13.9062 6.71094 14.2188 6.16406C14.4531 5.69531 14.6484 5.34375 14.7656 5.07031C14.9219 4.60156 15 4.13281 15 3.66406Z" fill="#454559"/>
</svg>
