<svg width="17" height="18" viewBox="0 0 17 18" fill="none" xmlns="http://www.w3.org/2000/svg">
<path fill-rule="evenodd" clip-rule="evenodd" d="M8.5 17C12.6421 17 16 13.6421 16 9.5C16 5.35786 12.6421 2 8.5 2C4.35786 2 1 5.35786 1 9.5C1 13.6421 4.35786 17 8.5 17Z" stroke="white"/>
<path fill-rule="evenodd" clip-rule="evenodd" d="M7.89699 4.35398C7.89699 4.20665 7.94465 4.08315 8.03999 3.98348C8.13532 3.88382 8.25665 3.83398 8.40399 3.83398C8.55132 3.83398 8.67265 3.88382 8.76799 3.98348C8.86332 4.08315 8.91099 4.20665 8.91099 4.35398V11.192C8.91099 11.3307 8.85899 11.4498 8.75499 11.5495C8.65099 11.6492 8.53399 11.699 8.40399 11.699C8.26532 11.699 8.14616 11.6492 8.04649 11.5495C7.94682 11.4498 7.89699 11.3307 7.89699 11.192V4.35398ZM8.40399 12.479C8.61199 12.479 8.78966 12.5548 8.93699 12.7065C9.08433 12.8582 9.15799 13.038 9.15799 13.246C9.15799 13.454 9.08433 13.6317 8.93699 13.779C8.78966 13.9263 8.61199 14 8.40399 14C8.19599 14 8.01833 13.9285 7.87099 13.7855C7.72366 13.6425 7.64999 13.4627 7.64999 13.246C7.64999 13.0293 7.72366 12.8473 7.87099 12.7C8.01833 12.5527 8.19599 12.479 8.40399 12.479Z" fill="white"/>
</svg>
