<svg width="12" height="9" viewBox="0 0 12 9" fill="none" xmlns="http://www.w3.org/2000/svg">
<path fill-rule="evenodd" clip-rule="evenodd" d="M3.8147e-06 5.25831C3.8147e-06 5.193 0.0116673 5.13002 0.0349941 5.06937C0.058321 5.00872 0.0933113 4.95506 0.139965 4.90841C0.233274 4.8151 0.345243 4.76845 0.475874 4.76845C0.606505 4.76845 0.718474 4.8151 0.811783 4.90841L3.34162 7.43825L10.6259 0.139962C10.7192 0.0466535 10.8335 0 10.9688 0C11.1041 0 11.2184 0.0466535 11.3117 0.139962C11.405 0.23327 11.4517 0.347572 11.4517 0.482869C11.4517 0.618166 11.405 0.732467 11.3117 0.825776L3.67753 8.44598C3.58422 8.53928 3.47226 8.58594 3.34162 8.58594C3.21099 8.58594 3.09902 8.53928 3.00571 8.44598L0.139965 5.59422C0.0933113 5.54757 0.058321 5.49392 0.0349941 5.43327C0.0116673 5.37262 3.8147e-06 5.3143 3.8147e-06 5.25831Z" fill="#205BFF"/>
</svg>
