<svg width="15" height="15" viewBox="0 0 15 15" fill="none" xmlns="http://www.w3.org/2000/svg">
<path fill-rule="evenodd" clip-rule="evenodd" d="M14.9854 6.92871C14.9951 6.94824 15 6.97021 15 6.99463V14.0625C15 14.3262 14.9072 14.5483 14.7217 14.729C14.5361 14.9097 14.3164 15 14.0625 15H0.9375C0.683592 15 0.463868 14.9097 0.27832 14.729C0.0927725 14.5483 0 14.3262 0 14.0625V7.0459C0 6.87988 0.0537104 6.72363 0.161133 6.57715C0.268555 6.43066 0.356445 6.32324 0.424805 6.25488L6.5332 0.395508C6.79688 0.131835 7.1289 0 7.5293 0C7.92969 0 8.26172 0.131835 8.52539 0.395508L14.6338 6.29883L14.7217 6.38672C14.751 6.41602 14.7754 6.44531 14.7949 6.47461L14.8096 6.48926C14.8584 6.54785 14.8975 6.61621 14.9268 6.69434C14.9561 6.77246 14.9756 6.85059 14.9854 6.92871ZM3.95508 10.6348L0.9375 7.9834V13.418L3.95508 10.6348ZM4.92188 11.0303L1.61133 14.0625H13.4326L7.80762 9.00879C7.76855 8.96973 7.71729 8.94043 7.65381 8.9209C7.59033 8.90137 7.52441 8.8916 7.45605 8.8916C7.38769 8.8916 7.32178 8.90381 7.2583 8.92822C7.19482 8.95264 7.13867 8.98438 7.08984 9.02344L5.02441 10.9277L5.00977 10.9424C5 10.9619 4.98535 10.979 4.96582 10.9937C4.94629 11.0083 4.93164 11.0205 4.92188 11.0303ZM11.0889 10.708L14.0625 13.374V8.07129L11.0889 10.708ZM1.52344 6.48926H1.49414L1.09863 6.87012L4.64355 10.0049L6.48926 8.30566C6.78223 8.07129 7.10693 7.95654 7.46338 7.96143C7.81983 7.96631 8.13476 8.07617 8.4082 8.29102L10.4004 10.0635L13.9453 6.91406L13.1396 6.1084H13.1543L7.86621 1.05469C7.81738 1.01562 7.76367 0.983887 7.70508 0.959473C7.64648 0.935058 7.58789 0.922852 7.5293 0.922852C7.4707 0.922852 7.41211 0.935058 7.35352 0.959473C7.29492 0.983887 7.24121 1.01562 7.19238 1.05469L1.52344 6.48926Z" fill="#9B9B9B"/>
</svg>
