<svg width="25" height="25" viewBox="0 0 25 25" fill="none" xmlns="http://www.w3.org/2000/svg">
<path fill-rule="evenodd" clip-rule="evenodd" d="M12.5 25C19.4036 25 25 19.4036 25 12.5C25 5.59644 19.4036 0 12.5 0C5.59644 0 0 5.59644 0 12.5C0 19.4036 5.59644 25 12.5 25Z" fill="white"/>
<path d="M15.5714 10.3003H13.6828V9.07266C13.6828 8.6005 14.0133 8.50607 14.2022 8.50607C14.4383 8.50607 15.5242 8.50607 15.5242 8.50607V6.42859H13.6828C11.6053 6.42859 11.1804 7.9867 11.1804 8.93101V10.3003H10V12.425H11.1804C11.1804 15.1635 11.1804 18.4213 11.1804 18.4213H13.6828C13.6828 18.4213 13.6828 15.1162 13.6828 12.425H15.3826L15.5714 10.3003Z" fill="#9B9B9B"/>
</svg>
