<svg width="71" height="70" viewBox="0 0 71 70" fill="none" xmlns="http://www.w3.org/2000/svg">
<path fill-rule="evenodd" clip-rule="evenodd" d="M11.809 34.2483C11.809 30.9874 14.4525 28.3439 17.7134 28.3439C20.9742 28.3439 23.6178 30.9874 23.6178 34.2483C23.6178 37.509 20.9742 40.1526 17.7134 40.1526C14.454 40.1488 11.8129 37.5076 11.809 34.2483ZM14.1708 34.2482C14.1708 36.2047 15.7568 37.7908 17.7134 37.7908C19.6698 37.7908 21.256 36.2047 21.256 34.2482C21.256 32.2916 19.67 30.7056 17.7134 30.7056C15.7577 30.7076 14.1729 32.2925 14.1708 34.2482Z" fill="#205BFF"/>
<path fill-rule="evenodd" clip-rule="evenodd" d="M66.1292 17.7161C68.8731 17.8656 70.9824 20.2009 70.8527 22.9458C70.8766 24.52 70.2104 26.026 69.0294 27.0673C69.4551 27.8768 69.6758 28.7784 69.6718 29.693C69.6959 31.2675 69.0297 32.7734 67.8485 33.8146C68.2741 34.6246 68.4948 35.5265 68.4909 36.4415C68.5249 38.4014 67.4723 40.2192 65.7556 41.165C66.003 41.8112 66.1296 42.4971 66.1292 43.189C66.2589 45.9338 64.1496 48.2694 61.4057 48.4187H28.9367L35.3076 61.5352C35.5137 61.9595 35.4474 62.4658 35.1391 62.8228C34.713 63.316 33.9675 63.3705 33.4741 62.9443L29.5221 59.5355V68.1857C29.5223 68.653 29.2468 69.0765 28.8195 69.2657C28.2233 69.5298 27.5258 69.2605 27.2618 68.6643L17.7996 47.3087L8.22021 68.9709C8.03067 69.3983 7.60718 69.674 7.13971 69.6744C7.10849 69.6744 7.0773 69.6732 7.04623 69.6707C7.01416 69.6681 6.98221 69.6642 6.95044 69.6589L6.93042 69.6554C6.9198 69.6534 6.90921 69.6512 6.89865 69.649C6.35309 69.536 5.96118 69.0564 5.95883 68.4993L5.91617 59.3684L1.92599 62.6146C1.5611 62.9113 1.05496 62.9631 0.63736 62.7466C0.0584412 62.4463 -0.167389 61.7335 0.132843 61.1545L9.14395 43.8L8.38876 43.8947C7.56894 43.996 6.75873 43.6444 6.27264 42.9767C5.75882 42.2817 5.65579 41.3651 6.00281 40.5735L7.20554 37.8242L4.69382 36.2997C4.35977 36.0984 4.07993 35.8185 3.87857 35.4845C3.19574 34.3514 3.56076 32.8793 4.69382 32.1967L7.2135 30.7112L6.00266 27.9205C5.65594 27.1287 5.7597 26.2117 6.27487 25.5173C6.7608 24.8502 7.57086 24.4999 8.3898 24.6029L11.2612 24.9501L11.8298 21.9713C11.9857 21.1331 12.5866 20.4468 13.397 20.1815C14.1849 19.9324 15.0461 20.1406 15.633 20.7224L17.7606 22.7728L19.7845 20.7235C20.1839 20.3453 20.7065 20.1241 21.256 20.1002V20.0778H36.6074V5.90735C36.4566 2.81384 38.829 0.177856 41.9213 0.00292969C45.0135 0.177856 47.3859 2.81384 47.2352 5.90735V17.7161H66.1292ZM8.26642 56.8878L8.2952 62.9629L14.7932 48.2703C14.3326 48.441 13.8286 48.4556 13.3589 48.3114C12.5388 48.0461 11.9298 47.353 11.7721 46.5056L11.4021 44.5768L4.85413 57.1864L6.34055 55.9779C6.54987 55.8074 6.81143 55.7137 7.08139 55.7125C7.73325 55.71 8.26376 56.236 8.26642 56.8878ZM17.7087 43.3793C17.1156 43.3792 16.5458 43.6105 16.1207 44.0239L14.0923 46.0604L13.5237 43.0967C13.2975 41.8984 12.1902 41.0741 10.9774 41.2008L8.16589 41.5215L9.36874 38.7699C9.85822 37.6665 9.44803 36.3713 8.41269 35.7509L5.89301 34.2308L8.41388 32.7455C9.44846 32.1244 9.85794 30.8296 9.36874 29.7264L8.10477 26.9473L10.9762 27.2944C12.1844 27.4327 13.2941 26.6144 13.5191 25.4193L14.1246 22.5491L16.1207 24.4727C17.0055 25.3317 18.4129 25.3317 19.2977 24.4727L21.3227 22.4396H21.3269L21.8947 25.3999C22.1215 26.5978 23.2284 27.4219 24.441 27.2958L27.2525 26.9752L26.0498 29.7267C25.5605 30.8301 25.9705 32.1252 27.0058 32.7458L29.514 34.2727L27.0047 35.7511C25.9704 36.3726 25.5606 37.6667 26.0486 38.7701L27.3136 41.5493L24.4422 41.2021C23.2284 41.0708 22.1182 41.8965 21.8947 43.0969L21.4241 46.0732L19.2965 44.0228C18.8709 43.6102 18.3015 43.3795 17.7087 43.3793ZM29.1126 56.0643L30.6822 57.4182L24.1018 43.8688L23.6465 46.5055C23.4889 47.3529 22.8799 48.0461 22.0598 48.3114C21.6658 48.4398 21.2432 48.452 20.8424 48.3466L27.1604 62.6053V56.9581C27.1604 56.6749 27.2622 56.4012 27.4472 56.1869C27.8732 55.6931 28.6189 55.6382 29.1126 56.0643ZM36.6073 46.057H27.7896L26.7208 43.8563L27.029 43.8937C27.8475 43.9943 28.6565 43.6445 29.1439 42.9792C29.6585 42.2847 29.7623 41.3679 29.4161 40.576L28.2053 37.7853L30.725 36.2999C31.858 35.6172 32.2231 34.1451 31.5402 33.0121C31.3389 32.678 31.059 32.3982 30.725 32.1968L28.2133 30.6724L29.416 27.9219C29.7626 27.1301 29.6592 26.2134 29.145 25.5187C28.6592 24.8512 27.8492 24.5 27.03 24.6019L24.2151 24.9548L23.7327 22.4397H36.6075L36.6073 46.057ZM66.261 27.1923C66.0077 26.5913 66.2893 25.8989 66.8903 25.6455C67.9092 25.1398 68.5361 24.0826 68.4908 22.946C68.6146 21.5067 67.5653 20.2325 66.129 20.078H46.0542H46.0529C45.401 20.0775 44.8729 19.549 44.8733 18.8971V5.90747C45.0192 4.11938 43.7062 2.54395 41.9211 2.36487C40.1361 2.54395 38.8231 4.11938 38.9689 5.90747V46.0571H61.4055C62.8418 45.9026 63.8911 44.6283 63.7673 43.1891C63.7729 42.4686 63.5333 41.7675 63.0881 41.2009C62.9395 41.016 62.85 40.7903 62.8315 40.5537C62.7805 39.9037 63.2661 39.3353 63.9162 39.2844C65.2736 39.0444 66.2294 37.8167 66.1292 36.4418C66.1416 35.6464 65.8481 34.8763 65.3092 34.2911C65.2124 34.1884 65.1347 34.0691 65.08 33.9391C64.8268 33.3376 65.1092 32.645 65.7106 32.3918C66.7294 31.8866 67.3558 30.8297 67.3101 29.6934C67.3179 28.8989 67.025 28.1311 66.4901 27.5437C66.3932 27.4412 66.3158 27.3221 66.261 27.1923Z" fill="#205BFF"/>
</svg>
