<svg width="25" height="25" viewBox="0 0 25 25" fill="none" xmlns="http://www.w3.org/2000/svg">
<path fill-rule="evenodd" clip-rule="evenodd" d="M12.5 25C19.4036 25 25 19.4036 25 12.5C25 5.59644 19.4036 0 12.5 0C5.59644 0 0 5.59644 0 12.5C0 19.4036 5.59644 25 12.5 25Z" fill="white"/>
<path fill-rule="evenodd" clip-rule="evenodd" d="M15 6.42859H10C8.02759 6.42859 6.42859 8.02759 6.42859 10V15C6.42859 16.9725 8.02759 18.5715 10 18.5715H15C16.9725 18.5715 18.5715 16.9725 18.5715 15V10C18.5715 8.02759 16.9725 6.42859 15 6.42859ZM15.873 12.5C15.873 14.3629 14.3629 15.873 12.5 15.873C10.6371 15.873 9.12701 14.3629 9.12701 12.5C9.12701 10.6371 10.6371 9.12701 12.5 9.12701C14.3629 9.12701 15.873 10.6371 15.873 12.5ZM15.873 9.12695C16.2456 9.12695 16.5476 8.82495 16.5476 8.45239C16.5476 8.07977 16.2456 7.77777 15.873 7.77777C15.5004 7.77777 15.1984 8.07977 15.1984 8.45239C15.1984 8.82495 15.5004 9.12695 15.873 9.12695ZM14.5238 12.5C14.5238 13.6177 13.6177 14.5238 12.5 14.5238C11.3823 14.5238 10.4762 13.6177 10.4762 12.5C10.4762 11.3823 11.3823 10.4762 12.5 10.4762C13.6177 10.4762 14.5238 11.3823 14.5238 12.5Z" fill="#9B9B9B"/>
</svg>
