<svg width="13" height="16" viewBox="0 0 13 16" fill="none" xmlns="http://www.w3.org/2000/svg">
<path fill-rule="evenodd" clip-rule="evenodd" d="M8.58333 0C9.16947 0 9.7233 0.111761 10.2449 0.335286C10.7664 0.558812 11.2209 0.866776 11.6084 1.25919C11.9958 1.6516 12.3038 2.10858 12.5323 2.63014C12.7608 3.1517 12.875 3.70553 12.875 4.29167C12.875 4.88773 12.7608 5.44654 12.5323 5.9681C12.3038 6.48966 11.9958 6.94664 11.6084 7.33905C11.2209 7.73146 10.7664 8.03942 10.2449 8.26295C9.7233 8.48647 9.16947 8.59824 8.58333 8.59824C8.03694 8.59824 7.52532 8.50386 7.04847 8.3151C6.57161 8.12635 6.14444 7.86806 5.76693 7.54022C5.76693 7.59983 5.75451 7.66192 5.72967 7.72649C5.70484 7.79106 5.66758 7.84819 5.61791 7.89786L3.05483 10.4758L5.08145 12.5472C5.17086 12.6366 5.21557 12.7483 5.21557 12.8825C5.21557 13.0166 5.17086 13.1283 5.08145 13.2177C4.98211 13.3071 4.86786 13.3519 4.73872 13.3519C4.60957 13.3519 4.50029 13.3071 4.41088 13.2177L2.38426 11.1613L1.14742 12.3981L3.17405 14.4546C3.26346 14.544 3.30816 14.6557 3.30816 14.7899C3.30816 14.924 3.26346 15.0357 3.17405 15.1251C3.0747 15.2146 2.96046 15.2593 2.83131 15.2593C2.70216 15.2593 2.59288 15.2146 2.50347 15.1251L0.163918 12.7409H0.149016V12.726C0.0496716 12.6366 0 12.5248 0 12.3907C0 12.2566 0.0496716 12.1448 0.149016 12.0554L4.94734 7.22729C4.99701 7.17761 5.05413 7.14036 5.11871 7.11552C5.18328 7.09069 5.25034 7.07827 5.31988 7.07827C4.99204 6.71069 4.73872 6.28849 4.5599 5.81163C4.38108 5.33478 4.29167 4.82813 4.29167 4.29167C4.29167 3.70553 4.40343 3.1517 4.62695 2.63014C4.85048 2.10858 5.15596 1.6516 5.5434 1.25919C5.93085 0.866776 6.38534 0.558812 6.9069 0.335286C7.42846 0.111761 7.98727 0 8.58333 0ZM8.58334 7.62963C9.04033 7.62963 9.46998 7.54271 9.87233 7.36885C10.2747 7.195 10.6273 6.95658 10.9303 6.65357C11.2333 6.35057 11.4743 5.99542 11.6531 5.58811C11.8319 5.1808 11.9213 4.74865 11.9213 4.29167C11.9213 3.83468 11.8319 3.40254 11.6531 2.99523C11.4743 2.58791 11.2333 2.23276 10.9303 1.92976C10.6273 1.62676 10.2747 1.38834 9.87233 1.21448C9.46998 1.04063 9.04033 0.953705 8.58334 0.953705C8.11642 0.953705 7.68179 1.04063 7.27945 1.21448C6.8771 1.38834 6.52443 1.62676 6.22143 1.92976C5.91843 2.23276 5.68001 2.58791 5.50616 2.99523C5.3323 3.40254 5.24538 3.83468 5.24538 4.29167C5.24538 4.74865 5.3323 5.1808 5.50616 5.58811C5.68001 5.99542 5.91843 6.35057 6.22143 6.65357C6.52443 6.95658 6.8771 7.195 7.27945 7.36885C7.68179 7.54271 8.11642 7.62963 8.58334 7.62963Z" fill="#9B9B9B"/>
</svg>
