<svg width="17" height="17" viewBox="0 0 17 17" fill="none" xmlns="http://www.w3.org/2000/svg">
<path fill-rule="evenodd" clip-rule="evenodd" d="M8.5 16C12.6421 16 16 12.6421 16 8.5C16 4.35786 12.6421 1 8.5 1C4.35786 1 1 4.35786 1 8.5C1 12.6421 4.35786 16 8.5 16Z" stroke="white"/>
<path fill-rule="evenodd" clip-rule="evenodd" d="M8.32402 3.43604C8.85202 3.43604 9.32602 3.55003 9.74602 3.77804C10.166 4.00604 10.494 4.32003 10.73 4.72004C10.966 5.12004 11.084 5.57203 11.084 6.07604C11.084 6.46804 11.02 6.81003 10.892 7.10204C10.764 7.39404 10.602 7.65203 10.406 7.87604C10.21 8.10004 9.93202 8.37603 9.57202 8.70404L9.35602 8.89604C9.13202 9.09604 8.97402 9.33003 8.88202 9.59804C8.79002 9.86604 8.74402 10.132 8.74402 10.396C8.74402 10.532 8.70002 10.646 8.61202 10.738C8.52402 10.83 8.41202 10.876 8.27602 10.876C8.14002 10.876 8.02802 10.83 7.94002 10.738C7.85202 10.646 7.80802 10.532 7.80802 10.396C7.80802 10.068 7.88802 9.72004 8.04802 9.35204C8.20802 8.98403 8.42402 8.67204 8.69602 8.41604L8.99602 8.14004C9.26802 7.88403 9.48002 7.67004 9.63202 7.49803C9.78402 7.32603 9.91002 7.11804 10.01 6.87404C10.11 6.63003 10.16 6.34804 10.16 6.02804C10.16 5.71603 10.084 5.43004 9.93202 5.17004C9.78002 4.91003 9.56402 4.70404 9.28402 4.55204C9.00402 4.40003 8.68402 4.32404 8.32402 4.32404C7.73201 4.32404 7.26202 4.50203 6.91402 4.85804C6.56602 5.21404 6.39202 5.67603 6.39202 6.24404C6.39202 6.38004 6.35002 6.49003 6.26602 6.57404C6.18202 6.65804 6.07202 6.70004 5.93602 6.70004C5.80002 6.70004 5.68802 6.65804 5.60002 6.57404C5.51202 6.49003 5.46802 6.38004 5.46802 6.24404C5.46802 5.70003 5.58802 5.21604 5.82802 4.79204C6.06802 4.36803 6.40402 4.03604 6.83602 3.79604C7.26802 3.55603 7.76401 3.43604 8.32402 3.43604ZM8.27602 11.5959C8.46802 11.5959 8.63402 11.6639 8.77402 11.7999C8.91402 11.9359 8.98402 12.1039 8.98402 12.3039C8.98402 12.4959 8.91402 12.6599 8.77402 12.7959C8.63402 12.9319 8.46802 12.9999 8.27602 12.9999C8.07602 12.9999 7.91002 12.9319 7.77802 12.7959C7.64602 12.6599 7.58002 12.4959 7.58002 12.3039C7.58002 12.1039 7.64802 11.9359 7.78402 11.7999C7.92002 11.6639 8.08402 11.5959 8.27602 11.5959Z" fill="white"/>
</svg>
