<svg width="12" height="10" viewBox="0 0 12 10" fill="none" xmlns="http://www.w3.org/2000/svg">
<path fill-rule="evenodd" clip-rule="evenodd" d="M11.1429 8.35716V3.21429C11.0023 3.37501 10.8482 3.52233 10.6808 3.65626C9.72324 4.39287 8.75895 5.14287 7.82814 5.91966C7.32591 6.34153 6.70314 6.85716 6.00671 6.85716H5.99332C5.29689 6.85716 4.67412 6.34153 4.17189 5.91966C3.24108 5.14287 2.27679 4.39287 1.3192 3.65626C1.15179 3.52233 0.997773 3.37501 0.857147 3.21429V8.35716C0.857147 8.471 0.957594 8.57145 1.07143 8.57145H10.9286C11.0424 8.57145 11.1429 8.471 11.1429 8.35716ZM11.1429 1.31917C11.1429 1.15176 11.1831 0.857117 10.9286 0.857117H1.07143C0.957594 0.857117 0.857147 0.957563 0.857147 1.0714C0.857147 1.8348 1.23884 2.49775 1.84152 2.97319C2.73885 3.67632 3.63617 4.38614 4.5268 5.09596C4.88171 5.38391 5.52457 5.99998 5.99332 5.99998H6.00671C6.47546 5.99998 7.11832 5.38391 7.47323 5.09596C8.36386 4.38614 9.26118 3.67632 10.1585 2.97319C10.5938 2.63167 11.1429 1.88837 11.1429 1.31917ZM12 1.07143V8.35716C12 8.94645 11.5179 9.42859 10.9286 9.42859H1.07143C0.482144 9.42859 0 8.94645 0 8.35716V1.07143C0 0.482144 0.482144 0 1.07143 0H10.9286C11.5179 0 12 0.482144 12 1.07143Z" fill="#205BFF"/>
</svg>
