<svg width="15" height="16" viewBox="0 0 15 16" fill="none" xmlns="http://www.w3.org/2000/svg">
<path fill-rule="evenodd" clip-rule="evenodd" d="M7.49756 1.18719C7.09729 1.18719 6.70192 1.26285 6.31142 1.41417C5.92092 1.56549 5.56948 1.7583 5.25708 1.9926C4.94468 2.2269 4.6933 2.48072 4.50293 2.75407C4.31256 3.02742 4.21738 3.28612 4.21738 3.53018V5.87317C4.21738 6.332 4.33208 6.91775 4.5615 7.63041C4.79092 8.34307 5.14969 8.89464 5.63781 9.28514C5.76472 9.38277 5.85991 9.50724 5.92336 9.65856C5.98682 9.80987 6.00878 9.96851 5.98926 10.1345C5.95997 10.2907 5.89896 10.4347 5.80621 10.5665C5.71347 10.6983 5.59388 10.7983 5.44744 10.8667L1.33257 12.8143C1.274 12.8338 1.19346 12.8802 1.09095 12.9534C0.988447 13.0266 0.937195 13.1608 0.937195 13.3561V14.3079L14.0433 14.2933V13.3854C14.0433 13.1315 13.9823 12.9729 13.8602 12.9094C13.7382 12.846 13.6723 12.8143 13.6625 12.8143L9.57696 10.8813C9.43052 10.813 9.30849 10.7129 9.21087 10.5811C9.11324 10.4493 9.05467 10.3004 9.03514 10.1345C9.01562 9.96851 9.03758 9.80987 9.10104 9.65856C9.16449 9.50724 9.25968 9.38277 9.38659 9.28514C9.89424 8.89464 10.253 8.34063 10.4629 7.62309C10.6728 6.90554 10.7777 6.32224 10.7777 5.87317V3.53018C10.7777 3.27636 10.6801 3.01277 10.4849 2.73942C10.2896 2.46607 10.0382 2.21469 9.73072 1.98527C9.4232 1.75586 9.07175 1.56549 8.67637 1.41417C8.28099 1.26285 7.88806 1.18719 7.49756 1.18719ZM7.49756 0.25C8.01497 0.25 8.52505 0.347623 9.02782 0.542873C9.53059 0.738123 9.97966 0.991944 10.375 1.30434C10.7704 1.61674 11.0926 1.96819 11.3415 2.35869C11.5905 2.74919 11.7149 3.13968 11.7149 3.53018V5.87317C11.7149 6.15628 11.6856 6.48332 11.6271 6.85429C11.5685 7.22527 11.4709 7.60356 11.3342 7.98918C11.1975 8.37479 11.0169 8.74576 10.7924 9.1021C10.5678 9.45843 10.2945 9.7635 9.97234 10.0173L14.0579 11.9649C14.0579 11.9649 14.2117 12.0504 14.5192 12.2212C14.8267 12.392 14.9805 12.6141 14.9805 12.8875V14.3079C14.9805 14.5617 14.8902 14.779 14.7096 14.9596C14.529 15.1402 14.3117 15.2305 14.0579 15.2305H0.937195C0.673607 15.2305 0.451514 15.1402 0.270908 14.9596C0.0903017 14.779 0 14.5617 0 14.3079V12.8875C0 12.6337 0.156198 12.4164 0.468597 12.2358C0.780997 12.0552 0.937195 11.9649 0.937195 11.9649L5.05206 10.0173C4.72014 9.75374 4.44191 9.43646 4.21738 9.06549C3.99284 8.69451 3.80979 8.31622 3.66824 7.9306C3.52668 7.54498 3.42662 7.16913 3.36804 6.80304C3.30947 6.43695 3.28018 6.12699 3.28018 5.87317V3.53018C3.28018 3.13968 3.40221 2.74919 3.64627 2.35869C3.89033 1.96819 4.21005 1.61674 4.60543 1.30434C5.00081 0.991944 5.45232 0.738123 5.95997 0.542873C6.46762 0.347623 6.98014 0.25 7.49756 0.25Z" fill="#9B9B9B"/>
</svg>
