<svg width="25" height="25" viewBox="0 0 25 25" fill="none" xmlns="http://www.w3.org/2000/svg">
<path fill-rule="evenodd" clip-rule="evenodd" d="M12.5 25C19.4036 25 25 19.4036 25 12.5C25 5.59644 19.4036 0 12.5 0C5.59644 0 0 5.59644 0 12.5C0 19.4036 5.59644 25 12.5 25Z" fill="white"/>
<path fill-rule="evenodd" clip-rule="evenodd" d="M11.8498 16.9665H12.6866C12.6866 16.9665 12.9393 16.9386 13.0684 16.7994C13.1873 16.6714 13.1835 16.4312 13.1835 16.4312C13.1835 16.4312 13.167 15.3065 13.6883 15.141C14.202 14.9778 14.8617 16.2279 15.5609 16.7085C16.0896 17.0722 16.4914 16.9926 16.4914 16.9926L18.3611 16.9665C18.3611 16.9665 19.3389 16.9061 18.8752 16.1358C18.8373 16.0729 18.605 15.5661 17.4852 14.5249C16.3126 13.4348 16.4697 13.6113 17.882 11.726C18.7419 10.5779 19.0859 9.87715 18.9783 9.57684C18.8759 9.29085 18.2434 9.36629 18.2434 9.36629L16.1382 9.37947C16.1382 9.37947 15.9822 9.35812 15.8664 9.42744C15.7534 9.49534 15.6808 9.6537 15.6808 9.6537C15.6808 9.6537 15.3473 10.5421 14.9031 11.2977C13.9659 12.8919 13.591 12.9763 13.4378 12.8771C13.0814 12.6464 13.1705 11.9504 13.1705 11.4557C13.1705 9.91068 13.4044 9.26641 12.7148 9.09972C12.4859 9.04438 12.3174 9.00767 11.7321 9.00177C10.9811 8.99411 10.3453 9.00416 9.98546 9.18068C9.74599 9.29843 9.56115 9.55993 9.67386 9.57509C9.81298 9.59367 10.128 9.6601 10.295 9.88786C10.5107 10.1819 10.5032 10.842 10.5032 10.842C10.5032 10.842 10.6272 12.6608 10.2137 12.8866C9.92992 13.0416 9.54071 12.7252 8.70492 11.2788C8.27685 10.538 7.95355 9.71883 7.95355 9.71883C7.95355 9.71883 7.89136 9.56596 7.78007 9.48396C7.64516 9.38462 7.4566 9.35323 7.4566 9.35323L5.4562 9.3662C5.4562 9.3662 5.15588 9.37474 5.0458 9.50556C4.94755 9.62197 5.03795 9.8625 5.03795 9.8625C5.03795 9.8625 6.60392 13.5325 8.37719 15.3819C10.0036 17.078 11.8498 16.9665 11.8498 16.9665Z" fill="#9B9B9B"/>
</svg>
