<svg width="42" height="34" viewBox="0 0 42 34" fill="none" xmlns="http://www.w3.org/2000/svg">
<path opacity="0.25" d="M15 57.2C12.2 57.2 9.88 56.24 8.04 54.32C6.28 52.32 5.4 49.68 5.4 46.4C5.4 39.04 7.8 33.28 12.6 29.12C14.68 27.2 17.08 25.76 19.8 24.8L21 27.8C19.32 28.36 17.64 29.28 15.96 30.56C12.44 33.2 10.32 36.68 9.6 41L11.16 40.16C12.44 39.52 13.72 39.2 15 39.2C17.4 39.2 19.48 40.12 21.24 41.96C23.08 43.72 24 45.8 24 48.2C24 50.6 23.08 52.72 21.24 54.56C19.48 56.32 17.4 57.2 15 57.2ZM37.8 57.2C35 57.2 32.68 56.24 30.84 54.32C29.08 52.32 28.2 49.68 28.2 46.4C28.2 39.04 30.6 33.28 35.4 29.12C37.4 27.2 39.8 25.76 42.6 24.8L43.8 27.8C42.12 28.36 40.44 29.28 38.76 30.56C35.24 33.2 33.12 36.68 32.4 41L33.96 40.16C35.24 39.52 36.52 39.2 37.8 39.2C40.2 39.2 42.28 40.12 44.04 41.96C45.88 43.72 46.8 45.8 46.8 48.2C46.8 50.6 45.88 52.72 44.04 54.56C42.28 56.32 40.2 57.2 37.8 57.2Z" transform="translate(-5 -24)" fill="#BCC6E1"/>
</svg>
