<svg width="18" height="21" viewBox="0 0 18 21" fill="none" xmlns="http://www.w3.org/2000/svg">
<path fill-rule="evenodd" clip-rule="evenodd" d="M15.4286 0H2.57143C1.88944 0 1.23543 0.2766 0.753191 0.768883C0.270955 1.26117 0 1.92881 0 2.625V18.375C0 19.0712 0.270955 19.7388 0.753191 20.2311C1.23543 20.7234 1.88944 21 2.57143 21H15.4286C16.1106 21 16.7646 20.7234 17.2468 20.2311C17.729 19.7388 18 19.0712 18 18.375V2.625C18 1.92881 17.729 1.26117 17.2468 0.768883C16.7646 0.2766 16.1106 0 15.4286 0ZM15.4286 18.375H2.57143V2.625H15.4286V18.375ZM5.14286 7.875H12.8571C13.1981 7.875 13.5251 7.7367 13.7663 7.49056C14.0074 7.24442 14.1429 6.9106 14.1429 6.5625C14.1429 6.2144 14.0074 5.88058 13.7663 5.63444C13.5251 5.3883 13.1981 5.25 12.8571 5.25H5.14286C4.80186 5.25 4.47486 5.3883 4.23374 5.63444C3.99262 5.88058 3.85714 6.2144 3.85714 6.5625C3.85714 6.9106 3.99262 7.24442 4.23374 7.49056C4.47486 7.7367 4.80186 7.875 5.14286 7.875ZM5.14286 13.125C5.39715 13.125 5.64569 13.048 5.85713 12.9038C6.06856 12.7596 6.2334 12.5546 6.33071 12.3148C6.42803 12.075 6.45346 11.8111 6.40385 11.5565C6.35424 11.3019 6.23179 11.068 6.05198 10.8844C5.87217 10.7009 5.64306 10.5759 5.39366 10.5252C5.14426 10.4746 4.88576 10.5006 4.65083 10.5999C4.41589 10.6992 4.21509 10.8675 4.07381 11.0834C3.93253 11.2992 3.85714 11.5529 3.85714 11.8125C3.85714 12.1606 3.99262 12.4944 4.23374 12.7406C4.47486 12.9867 4.80186 13.125 5.14286 13.125ZM5.14286 17.0625C5.39715 17.0625 5.64569 16.9855 5.85713 16.8413C6.06856 16.6971 6.2334 16.4921 6.33071 16.2523C6.42803 16.0125 6.45346 15.7486 6.40385 15.494C6.35424 15.2394 6.23179 15.0055 6.05198 14.8219C5.87217 14.6384 5.64306 14.5134 5.39366 14.4627C5.14426 14.4121 4.88576 14.4381 4.65083 14.5374C4.41589 14.6367 4.21509 14.805 4.07381 15.0209C3.93253 15.2367 3.85714 15.4904 3.85714 15.75C3.85714 16.0981 3.99262 16.4319 4.23374 16.6781C4.47486 16.9242 4.80186 17.0625 5.14286 17.0625ZM9 10.5C8.74571 10.5 8.49717 10.577 8.28573 10.7212C8.0743 10.8654 7.90946 11.0704 7.81214 11.3102C7.71483 11.55 7.6894 11.8139 7.739 12.0685C7.78861 12.3231 7.91107 12.557 8.09088 12.7406C8.27069 12.9241 8.49979 13.0491 8.7492 13.0998C8.9986 13.1504 9.2571 13.1244 9.49203 13.0251C9.72696 12.9258 9.92777 12.7575 10.069 12.5416C10.2103 12.3258 10.2857 12.0721 10.2857 11.8125C10.2857 11.4644 10.1502 11.1306 9.90912 10.8844C9.668 10.6383 9.34099 10.5 9 10.5ZM9 14.4375C8.74571 14.4375 8.49717 14.5145 8.28573 14.6587C8.0743 14.8029 7.90946 15.0079 7.81214 15.2477C7.71483 15.4875 7.6894 15.7514 7.739 16.006C7.78861 16.2606 7.91107 16.4945 8.09088 16.6781C8.27069 16.8616 8.49979 16.9866 8.7492 17.0373C8.9986 17.0879 9.2571 17.0619 9.49203 16.9626C9.72696 16.8633 9.92777 16.695 10.069 16.4791C10.2103 16.2633 10.2857 16.0096 10.2857 15.75C10.2857 15.4019 10.1502 15.0681 9.90912 14.8219C9.668 14.5758 9.34099 14.4375 9 14.4375ZM12.8571 10.5C12.6029 10.5 12.3543 10.577 12.1429 10.7212C11.9314 10.8654 11.7666 11.0704 11.6693 11.3102C11.572 11.55 11.5465 11.8139 11.5961 12.0685C11.6458 12.3231 11.7682 12.557 11.948 12.7406C12.1278 12.9241 12.3569 13.0491 12.6063 13.0998C12.8557 13.1504 13.1142 13.1244 13.3492 13.0251C13.5841 12.9258 13.7849 12.7575 13.9262 12.5416C14.0675 12.3258 14.1429 12.0721 14.1429 11.8125C14.1429 11.4644 14.0074 11.1306 13.7663 10.8844C13.5251 10.6383 13.1981 10.5 12.8571 10.5ZM12.8571 14.4375C12.6029 14.4375 12.3543 14.5145 12.1429 14.6587C11.9314 14.8029 11.7666 15.0079 11.6693 15.2477C11.572 15.4875 11.5465 15.7514 11.5961 16.006C11.6458 16.2606 11.7682 16.4945 11.948 16.6781C12.1278 16.8616 12.3569 16.9866 12.6063 17.0373C12.8557 17.0879 13.1142 17.0619 13.3492 16.9626C13.5841 16.8633 13.7849 16.695 13.9262 16.4791C14.0675 16.2633 14.1429 16.0096 14.1429 15.75C14.1429 15.4019 14.0074 15.0681 13.7663 14.8219C13.5251 14.5758 13.1981 14.4375 12.8571 14.4375Z" fill="#4D3A00"/>
</svg>
