<svg width="136" height="44" viewBox="0 0 136 44" fill="none" xmlns="http://www.w3.org/2000/svg">
<path d="M22.5081 9.45209V0L17.3926 5.01916L13.3003 1.00383L9.20787 5.01916L4.09239 0V9.45209H0V30.9502L13.3003 44L18.1211 39.2699L22.2135 35.1743L26.6087 30.9502V9.45209H22.5081ZM4.09239 32.1227L2.04619 30.115V11.4598H4.09239V32.1227ZM8.18477 36.138L6.13858 34.1303V24.9272L8.18477 26.9348V36.138ZM16.3695 38.1456L13.3003 41.1571L10.231 38.1456V28.9425L13.3003 31.954L16.3695 28.9264V38.1456ZM16.3695 26.0836L13.3003 29.1111L10.231 26.0997V24.9272L13.3003 21.9157L16.3695 24.9272V26.0836ZM20.4619 34.058L18.4157 36.1059V26.9107L20.4619 24.9111V34.058ZM20.4619 22.0843L18.4076 24.092L14.7408 20.4943L16.3614 18.9042V16.8965L20.1509 13.1783L18.7022 11.7569L14.3234 16.0613V17.4828H12.2772V16.0613L7.88194 11.7489L6.44142 13.1703L10.231 16.8885V18.8962L11.8516 20.4862L8.18477 24.092L6.13858 22.0843V11.4598H20.4619V22.0843ZM20.4619 9.45209H6.13858V4.85052L9.20787 7.86202L13.3003 3.84669L17.3926 7.86202L20.4619 4.85052V9.45209ZM24.5543 30.107L22.5081 32.0745V11.4598H24.5543V30.107Z" fill="#465069"/>
<path d="M0.250317 15.0589H0.942369C1.88474 15.0589 2.48844 14.838 3.03325 14.2932C3.82838 13.4834 4.38791 11.9226 4.38791 8.10892V6.44505H7.49478V15H9.43842V4.72228H2.50317V7.85861C2.50317 11.2747 2.13506 12.541 1.42828 13.2772H0.250317V15.0589ZM13.6298 15.1767C14.7784 15.1767 15.6177 14.6613 15.868 13.6748H15.9563C16.0741 14.4699 16.5748 15 17.3846 15H18.43V13.4981H17.6644V9.87587C17.6644 8.12365 16.56 7.13711 14.4839 7.13711C12.9378 7.13711 12.0396 7.72609 11.4801 8.60956L12.5991 9.61082C12.9672 9.08074 13.4679 8.63901 14.3513 8.63901C15.3526 8.63901 15.7796 9.13964 15.7796 9.99366V10.5532H14.4691C12.3783 10.5532 11.1856 11.3336 11.1856 12.9091C11.1856 14.2785 12.069 15.1767 13.6298 15.1767ZM14.263 13.8073C13.5268 13.8073 13.0998 13.4981 13.0998 12.8797V12.6294C13.0998 12.0256 13.5857 11.687 14.5722 11.687H15.7796V12.703C15.7796 13.4245 15.1023 13.8073 14.263 13.8073ZM23.0479 15.1767C25.2566 15.1767 26.6112 13.6159 26.6112 11.1863C26.6112 8.84515 25.3302 7.46104 23.6222 7.46104C22.5031 7.46104 21.8847 7.9764 21.5166 8.99239H21.4577C21.5607 6.81317 22.0172 6.15056 23.5485 6.00332L26.0664 5.76772V3.94188L23.5927 4.17748C20.7214 4.45724 19.4846 6.23891 19.4846 10.2882C19.4846 13.719 20.8245 15.1767 23.0479 15.1767ZM23.0774 13.6601C22.0761 13.6601 21.4577 13.0269 21.4577 11.849V10.6268C21.4577 9.61082 22.0172 8.99239 23.0332 8.99239C24.0344 8.99239 24.6529 9.62555 24.6529 10.7888V11.8931C24.6529 13.0269 24.0344 13.6601 23.0774 13.6601ZM31.3291 15.1767C33.5377 15.1767 34.9071 13.6159 34.9071 11.1422C34.9071 8.68318 33.5377 7.13711 31.3291 7.13711C29.1351 7.13711 27.7657 8.68318 27.7657 11.1422C27.7657 13.6159 29.1351 15.1767 31.3291 15.1767ZM31.3291 13.6601C30.3572 13.6601 29.7388 13.0269 29.7388 11.8637V10.4354C29.7388 9.28689 30.3572 8.65373 31.3291 8.65373C32.3156 8.65373 32.934 9.28689 32.934 10.4354V11.8637C32.934 13.0269 32.3156 13.6601 31.3291 13.6601ZM36.578 17.9449H38.4628V13.719H38.5217C38.8161 14.5877 39.626 15.1767 40.642 15.1767C42.5856 15.1767 43.6605 13.719 43.6605 11.1422C43.6605 8.58011 42.5856 7.13711 40.642 7.13711C39.626 7.13711 38.8014 7.69664 38.5217 8.58011H38.4628V7.3138H36.578V17.9449ZM40.0383 13.6159C39.1401 13.6159 38.4628 13.1594 38.4628 12.3643V9.92004C38.4628 9.16909 39.1401 8.68318 40.0383 8.68318C41.0101 8.68318 41.6874 9.40468 41.6874 10.4943V11.8195C41.6874 12.9091 41.0101 13.6159 40.0383 13.6159ZM47.3064 15.1767C48.455 15.1767 49.2942 14.6613 49.5446 13.6748H49.6329C49.7507 14.4699 50.2513 15 51.0612 15H52.1066V13.4981H51.341V9.87587C51.341 8.12365 50.2366 7.13711 48.1605 7.13711C46.6144 7.13711 45.7162 7.72609 45.1567 8.60956L46.2757 9.61082C46.6438 9.08074 47.1445 8.63901 48.0279 8.63901C49.0292 8.63901 49.4562 9.13964 49.4562 9.99366V10.5532H48.1457C46.0549 10.5532 44.8622 11.3336 44.8622 12.9091C44.8622 14.2785 45.7456 15.1767 47.3064 15.1767ZM47.9396 13.8073C47.2034 13.8073 46.7764 13.4981 46.7764 12.8797V12.6294C46.7764 12.0256 47.2623 11.687 48.2488 11.687H49.4562V12.703C49.4562 13.4245 48.7789 13.8073 47.9396 13.8073ZM54.9192 15H56.804V8.8157H59.1452V7.3138H52.578V8.8157H54.9192V15ZM63.4814 15.1767C65.6901 15.1767 67.0595 13.6159 67.0595 11.1422C67.0595 8.68318 65.6901 7.13711 63.4814 7.13711C61.2875 7.13711 59.9181 8.68318 59.9181 11.1422C59.9181 13.6159 61.2875 15.1767 63.4814 15.1767ZM63.4814 13.6601C62.5096 13.6601 61.8912 13.0269 61.8912 11.8637V10.4354C61.8912 9.28689 62.5096 8.65373 63.4814 8.65373C64.468 8.65373 65.0864 9.28689 65.0864 10.4354V11.8637C65.0864 13.0269 64.468 13.6601 63.4814 13.6601ZM68.7304 17.9449H70.6151V13.719H70.674C70.9685 14.5877 71.7784 15.1767 72.7944 15.1767C74.738 15.1767 75.8129 13.719 75.8129 11.1422C75.8129 8.58011 74.738 7.13711 72.7944 7.13711C71.7784 7.13711 70.9538 7.69664 70.674 8.58011H70.6151V7.3138H68.7304V17.9449ZM72.1907 13.6159C71.2925 13.6159 70.6151 13.1594 70.6151 12.3643V9.92004C70.6151 9.16909 71.2925 8.68318 72.1907 8.68318C73.1625 8.68318 73.8398 9.40468 73.8398 10.4943V11.8195C73.8398 12.9091 73.1625 13.6159 72.1907 13.6159ZM77.5593 15H79.2527L81.6528 11.4072L82.551 9.75807H82.6099L82.4479 11.5692V15H84.2885V7.3138H82.5951L80.195 10.9066L79.2968 12.541H79.2379L79.3999 10.7446V7.3138H77.5593V15ZM86.0034 15H86.9752C87.7114 15 88.1974 14.7202 88.5802 13.9104L89.39 12.2465H90.8183V15H92.7031V7.3138H88.7422C87.2403 7.3138 86.1359 8.25617 86.1359 9.81697C86.1359 11.098 86.8869 11.8195 88.0648 11.952V12.0256C87.7114 12.0698 87.417 12.276 87.2255 12.6882L86.828 13.4981H86.0034V15ZM89.125 10.8477C88.4624 10.8477 88.0501 10.5237 88.0501 9.96421V9.655C88.0501 9.02184 88.4624 8.71263 89.125 8.71263H90.8183V10.8477H89.125ZM5.19776 34.1767C7.03832 34.1767 8.26046 33.2785 8.99668 31.7471L7.42116 30.8195C7.0825 31.7471 6.36099 32.4539 5.19776 32.4539C3.75475 32.4539 2.82711 31.4527 2.82711 29.6857V28.066C2.82711 26.3138 3.75475 25.2684 5.19776 25.2684C6.34627 25.2684 6.99415 25.8868 7.28864 26.7997L8.95251 25.9162C8.23101 24.326 7.03832 23.5456 5.19776 23.5456C2.48844 23.5456 0.765675 25.4745 0.765675 28.9348C0.765675 32.395 2.48844 34.1767 5.19776 34.1767ZM12.4216 34V29.2882C12.4216 28.4489 13.0842 28.0955 14.3505 28.0955H14.9395V26.3138H14.5272C13.3051 26.3138 12.6867 27.0942 12.4953 27.904H12.4216V26.3138H10.5369V34H12.4216ZM19.2935 34.1767C21.5022 34.1767 22.8716 32.6159 22.8716 30.1422C22.8716 27.6832 21.5022 26.1371 19.2935 26.1371C17.0995 26.1371 15.7302 27.6832 15.7302 30.1422C15.7302 32.6159 17.0995 34.1767 19.2935 34.1767ZM19.2935 32.6601C18.3217 32.6601 17.7032 32.0269 17.7032 30.8637V29.4354C17.7032 28.2869 18.3217 27.6537 19.2935 27.6537C20.28 27.6537 20.8985 28.2869 20.8985 29.4354V30.8637C20.8985 32.0269 20.28 32.6601 19.2935 32.6601ZM25.7824 34H27.7849L28.7568 30.6134L29.3163 28.5225H29.3605L29.9347 30.6134L30.9213 34H32.9533L35.0589 26.3138H33.3066L32.541 29.4796L31.9373 32.1153H31.8784L31.1569 29.4796L30.2292 26.3138H28.5212L27.623 29.4796L26.9162 32.1153H26.8573L26.2536 29.4796L25.4732 26.3138H23.6621L25.7824 34ZM38.3621 34V28.92C38.3621 28.0955 39.113 27.6832 39.8934 27.6832C40.7916 27.6832 41.1598 28.2427 41.1598 29.3323V34H43.0445V29.1409C43.0445 27.2267 42.161 26.1371 40.5855 26.1371C39.3928 26.1371 38.7449 26.7703 38.4357 27.5948H38.3621V26.3138H36.4774V34H38.3621ZM45.2516 34H47.0921V26.623H47.151L47.9462 28.2574L50.0518 32.1447L52.1574 28.2574L52.9525 26.623H53.0114V34H54.852V23.7223H52.7463L50.1401 28.7433H50.0812L47.4455 23.7223H45.2516V34ZM60.2618 34.1767C61.6901 34.1767 62.8092 33.6319 63.4423 32.7631L62.4263 31.6294C61.9552 32.2331 61.3956 32.6748 60.468 32.6748C59.2311 32.6748 58.598 31.9238 58.598 30.8195V30.6281H63.7074V30.0097C63.7074 27.904 62.603 26.1371 60.2029 26.1371C57.9501 26.1371 56.6396 27.7126 56.6396 30.1422C56.6396 32.6012 57.9943 34.1767 60.2618 34.1767ZM60.2324 27.5507C61.2042 27.5507 61.749 28.2722 61.749 29.3323V29.4648H58.598V29.3471C58.598 28.2869 59.2458 27.5507 60.2324 27.5507ZM70.1364 34H72.0211V23.1039H70.1364V27.5801H70.0627C69.7977 26.6966 68.9584 26.1371 67.9424 26.1371C66.0135 26.1371 64.9386 27.5801 64.9386 30.1422C64.9386 32.719 66.0135 34.1767 67.9424 34.1767C68.9584 34.1767 69.783 33.5877 70.0627 32.719H70.1364V34ZM68.5461 32.6159C67.5743 32.6159 66.9117 31.9091 66.9117 30.8195V29.4943C66.9117 28.4047 67.5743 27.6832 68.5461 27.6832C69.4443 27.6832 70.1364 28.1691 70.1364 28.92V31.3643C70.1364 32.1594 69.4443 32.6159 68.5461 32.6159ZM75.1369 25.1947C75.9026 25.1947 76.2413 24.7972 76.2413 24.2524V23.9579C76.2413 23.4131 75.9026 23.0155 75.1369 23.0155C74.3565 23.0155 74.0326 23.4131 74.0326 23.9579V24.2524C74.0326 24.7972 74.3565 25.1947 75.1369 25.1947ZM74.1946 34H76.0793V26.3138H74.1946V34ZM80.1634 34.1767C81.3119 34.1767 82.1512 33.6613 82.4015 32.6748H82.4899C82.6077 33.4699 83.1083 34 83.9182 34H84.9636V32.4981H84.1979V28.8759C84.1979 27.1236 83.0936 26.1371 81.0174 26.1371C79.4714 26.1371 78.5732 26.7261 78.0136 27.6096L79.1327 28.6108C79.5008 28.0807 80.0014 27.639 80.8849 27.639C81.8862 27.639 82.3132 28.1396 82.3132 28.9937V29.5532H81.0027C78.9118 29.5532 77.7191 30.3336 77.7191 31.9091C77.7191 33.2785 78.6026 34.1767 80.1634 34.1767ZM80.7966 32.8073C80.0603 32.8073 79.6333 32.4981 79.6333 31.8797V31.6294C79.6333 31.0256 80.1192 30.687 81.1058 30.687H82.3132V31.703C82.3132 32.4245 81.6359 32.8073 80.7966 32.8073Z" transform="translate(41.3913 2.93311)" fill="#465069"/>
</svg>
