<svg width="132" height="40" viewBox="0 0 132 40" version="1.1" xmlns="http://www.w3.org/2000/svg" xmlns:xlink="http://www.w3.org/1999/xlink">
<title>Logo</title>
<desc>Created using Figma</desc>
<g id="Canvas" transform="translate(-8462 5614)">
<g id="Logo">
<g id="Group">
<g id="ECIR">
<use xlink:href="#path0_fill" transform="translate(8508.22 -5609.96)" fill="#FFFFFF"/>
<use xlink:href="#path1_fill" transform="translate(8508.22 -5609.96)" fill="#FFFFFF"/>
<use xlink:href="#path2_fill" transform="translate(8508.22 -5609.96)" fill="#FFFFFF"/>
<use xlink:href="#path3_fill" transform="translate(8508.22 -5609.96)" fill="#FFFFFF"/>
</g>
<g id="Vector">
<use xlink:href="#path4_fill" transform="translate(8462 -5614)" fill="#3C59F0"/>
<use xlink:href="#path5_fill" transform="translate(8462 -5614)" fill="#3C59F0"/>
<use xlink:href="#path6_fill" transform="translate(8462 -5614)" fill="#3C59F0"/>
<use xlink:href="#path7_fill" transform="translate(8462 -5614)" fill="#3C59F0"/>
<use xlink:href="#path8_fill" transform="translate(8462 -5614)" fill="#3C59F0"/>
<use xlink:href="#path9_fill" transform="translate(8462 -5614)" fill="#3C59F0"/>
<use xlink:href="#path10_fill" transform="translate(8462 -5614)" fill="#3C59F0"/>
<use xlink:href="#path11_fill" transform="translate(8462 -5614)" fill="#3C59F0"/>
<use xlink:href="#path12_fill" transform="translate(8462 -5614)" fill="#3C59F0"/>
</g>
</g>
</g>
</g>
<defs>
<path id="path0_fill" d="M 0 0.576923L 0 27.5L 19.5449 27.5L 19.5449 21.3462L 7.08982 21.3462L 7.08982 16.9615L 18.1653 16.9615L 18.1653 10.8462L 7.08982 10.8462L 7.08982 6.73077L 19.315 6.73077L 19.315 0.576923L 0 0.576923Z"/>
<path id="path1_fill" d="M 22.0503 14.4231C 22.0503 24.0385 29.3701 28.0769 36.7281 28.0769C 39.5641 28.0769 42.2084 27.5 44.5461 26.3846L 44.5461 19.4615C 43.0132 20.9615 40.4838 21.8077 37.7246 21.8077C 33.5473 21.8077 29.3317 19.6538 29.3317 14.4231C 29.3317 8.57692 33.5473 6.23077 37.8012 6.23077C 40.2539 6.23077 42.7066 7.03846 44.3545 8.42308L 44.3545 1.69231C 42.0168 0.576923 39.2958 0 36.5749 0C 29.3317 0 22.0503 4.26923 22.0503 14.4231Z"/>
<path id="path2_fill" d="M 48.4656 0.576923L 48.4656 27.5L 55.5554 27.5L 55.5554 0.576923L 48.4656 0.576923Z"/>
<path id="path3_fill" d="M 67.7186 27.5L 67.7186 18.7308L 70.7844 18.7308L 77.1844 27.5L 85.194 27.5L 77.7976 17.7308C 80.7485 16.5385 82.9329 14.1154 82.9329 9.65385C 82.9329 2.53846 77.376 0.576923 71.9341 0.576923L 60.6287 0.576923L 60.6287 27.5L 67.7186 27.5ZM 67.7186 6.73077L 72.2407 6.73077C 74.2719 6.73077 75.6515 7.76923 75.6515 9.84615C 75.6515 11.9231 74.2719 12.9615 72.2407 12.9615L 67.7186 12.9615L 67.7186 6.73077Z"/>
<path id="path4_fill" d="M 5.35213 20.1216L 9.99057 16.4252L 5.70894 13.2058C 5.47107 13.0866 5.2332 13.0866 4.99533 13.2058L 0.713698 16.4252L 5.35213 20.1216Z"/>
<path id="path5_fill" d="M 4.75737 21.0756L 0 17.26L 0 31.4494C 0 31.6879 0.118934 31.8071 0.237869 31.9263L 4.75737 35.3843L 4.75737 21.0756Z"/>
<path id="path6_fill" d="M 5.94648 21.0755L 5.94648 35.3841L 10.466 32.0454C 10.5849 31.9262 10.7039 31.8069 10.7039 31.5685L 10.7039 17.3791L 5.94648 21.0755Z"/>
<path id="path7_fill" d="M 17.2455 7.00527L 21.8839 3.30887L 17.6023 0.089429C 17.3644 -0.0298097 17.1265 -0.0298097 16.8887 0.089429L 12.607 3.30887L 17.2455 7.00527Z"/>
<path id="path8_fill" d="M 16.6507 7.95927L 11.8933 4.14363L 11.8933 31.4493C 11.8933 31.6878 12.0123 31.807 12.1312 31.9262L 16.6507 35.2649L 16.6507 7.95927Z"/>
<path id="path9_fill" d="M 17.8398 7.95947L 17.8398 35.3844L 22.3593 32.0457C 22.4783 31.9264 22.5972 31.8072 22.5972 31.5687L 22.5972 4.26307L 17.8398 7.95947Z"/>
<path id="path10_fill" d="M 28.5444 15.1139L 23.7871 11.4175L 23.7871 31.5689C 23.7871 31.8073 23.906 31.9266 24.0249 32.0458L 28.5444 35.3845L 28.5444 15.1139Z"/>
<path id="path11_fill" d="M 29.1392 14.1597L 33.7776 10.4633L 29.496 7.24388C 29.2581 7.12464 29.0203 7.12464 28.7824 7.24388L 24.5007 10.4633L 29.1392 14.1597Z"/>
<path id="path12_fill" d="M 29.7335 15.1139L 29.7335 35.3845L 34.253 32.0458C 34.372 31.9266 34.4909 31.8073 34.4909 31.5689L 34.4909 11.4175L 29.7335 15.1139Z"/>
</defs>
</svg>
