<svg width="39" height="40" viewBox="0 0 39 40" fill="none" xmlns="http://www.w3.org/2000/svg">
<path d="M38.2353 21.7949V3.84615C38.2353 1.66667 36.451 0 34.4118 0H3.82353C1.78431 0 0 1.79487 0 3.84615V21.7949H38.2353ZM3.82353 4.48718C3.82353 4.10256 4.07843 3.84615 4.46078 3.84615H28.6765C29.0588 3.84615 29.3137 4.10256 29.3137 4.48718L29.4412 18.5897C29.4412 18.718 29.3137 18.9744 29.3137 19.1026C29.3137 19.2308 28.9314 19.2308 28.8039 19.2308H4.46078C4.07843 19.2308 3.82353 18.9744 3.82353 18.5897V4.48718Z" transform="translate(0.764709 0.769287)" fill="#5940FF"/>
<path d="M29.4412 26.6667C28.4216 25.3847 26.3824 25.3847 25.3627 26.6667C25.2353 26.7949 25.1078 26.9231 24.8529 26.9231H21.6667V29.4872H24.8529C25.1078 29.4872 25.2353 29.6154 25.3627 29.7437C26.3824 31.0257 28.4216 31.0257 29.4412 29.7437C29.5686 29.6154 29.6961 29.4872 29.951 29.4872H33.1373V26.9231H29.951C29.6961 26.9231 29.5686 26.7949 29.4412 26.6667Z" transform="translate(0.764709 0.769287)" fill="#5940FF"/>
<path d="M0 23.0769V34.6154C0 36.7949 1.78431 38.4615 3.82353 38.4615H34.4118C36.5784 38.4615 38.2353 36.6667 38.2353 34.6154V23.0769H0ZM5.73529 34.6154H4.46078C4.07843 34.6154 3.82353 34.359 3.82353 33.9744C3.82353 33.5897 4.07843 33.3333 4.46078 33.3333H5.73529C6.11765 33.3333 6.37255 33.5897 6.37255 33.9744C6.37255 34.359 6.11765 34.6154 5.73529 34.6154ZM5.73529 32.0513H4.46078C4.07843 32.0513 3.82353 31.7949 3.82353 31.4103C3.82353 31.0256 4.07843 30.7692 4.46078 30.7692H5.73529C6.11765 30.7692 6.37255 31.0256 6.37255 31.4103C6.37255 31.7949 6.11765 32.0513 5.73529 32.0513ZM5.73529 29.4872H4.46078C4.07843 29.4872 3.82353 29.2308 3.82353 28.8462C3.82353 28.4615 4.07843 28.2051 4.46078 28.2051H5.73529C6.11765 28.2051 6.37255 28.4615 6.37255 28.8462C6.37255 29.2308 6.11765 29.4872 5.73529 29.4872ZM5.73529 26.9231H4.46078C4.07843 26.9231 3.82353 26.6667 3.82353 26.2821C3.82353 25.8974 4.07843 25.641 4.46078 25.641H5.73529C6.11765 25.641 6.37255 25.8974 6.37255 26.2821C6.37255 26.6667 6.11765 26.9231 5.73529 26.9231ZM10.8333 34.6154H9.55882C9.17647 34.6154 8.92157 34.359 8.92157 33.9744C8.92157 33.5897 9.17647 33.3333 9.55882 33.3333H10.8333C11.2157 33.3333 11.4706 33.5897 11.4706 33.9744C11.4706 34.359 11.2157 34.6154 10.8333 34.6154ZM10.8333 32.0513H9.55882C9.17647 32.0513 8.92157 31.7949 8.92157 31.4103C8.92157 31.0256 9.17647 30.7692 9.55882 30.7692H10.8333C11.2157 30.7692 11.4706 31.0256 11.4706 31.4103C11.4706 31.7949 11.2157 32.0513 10.8333 32.0513ZM10.8333 29.4872H9.55882C9.17647 29.4872 8.92157 29.2308 8.92157 28.8462C8.92157 28.4615 9.17647 28.2051 9.55882 28.2051H10.8333C11.2157 28.2051 11.4706 28.4615 11.4706 28.8462C11.4706 29.2308 11.2157 29.4872 10.8333 29.4872ZM10.8333 26.9231H9.55882C9.17647 26.9231 8.92157 26.6667 8.92157 26.2821C8.92157 25.8974 9.17647 25.641 9.55882 25.641H10.8333C11.2157 25.641 11.4706 25.8974 11.4706 26.2821C11.4706 26.6667 11.2157 26.9231 10.8333 26.9231ZM15.9314 34.6154H14.6569C14.2745 34.6154 14.0196 34.359 14.0196 33.9744C14.0196 33.5897 14.2745 33.3333 14.6569 33.3333H15.9314C16.3137 33.3333 16.5686 33.5897 16.5686 33.9744C16.5686 34.359 16.3137 34.6154 15.9314 34.6154ZM15.9314 32.0513H14.6569C14.2745 32.0513 14.0196 31.7949 14.0196 31.4103C14.0196 31.0256 14.2745 30.7692 14.6569 30.7692H15.9314C16.3137 30.7692 16.5686 31.0256 16.5686 31.4103C16.5686 31.7949 16.3137 32.0513 15.9314 32.0513ZM15.9314 29.4872H14.6569C14.2745 29.4872 14.0196 29.2308 14.0196 28.8462C14.0196 28.4615 14.2745 28.2051 14.6569 28.2051H15.9314C16.3137 28.2051 16.5686 28.4615 16.5686 28.8462C16.5686 29.2308 16.3137 29.4872 15.9314 29.4872ZM15.9314 26.9231H14.6569C14.2745 26.9231 14.0196 26.6667 14.0196 26.2821C14.0196 25.8974 14.2745 25.641 14.6569 25.641H15.9314C16.3137 25.641 16.5686 25.8974 16.5686 26.2821C16.5686 26.6667 16.3137 26.9231 15.9314 26.9231ZM33.7745 34.6154H21.0294C20.6471 34.6154 20.3922 34.359 20.3922 33.9744C20.3922 33.5897 20.6471 33.3333 21.0294 33.3333H33.7745C34.1569 33.3333 34.4118 33.5897 34.4118 33.9744C34.4118 34.359 34.1569 34.6154 33.7745 34.6154ZM34.4118 30.1282C34.4118 30.5128 34.1569 30.7692 33.7745 30.7692H30.2059C29.4412 31.5385 28.4216 32.0513 27.402 32.0513C26.3824 32.0513 25.2353 31.5385 24.598 30.7692H21.0294C20.6471 30.7692 20.3922 30.5128 20.3922 30.1282V26.2821C20.3922 25.8974 20.6471 25.641 21.0294 25.641H24.598C25.3627 24.8718 26.3824 24.359 27.402 24.359C28.4216 24.359 29.5686 24.8718 30.2059 25.641H33.7745C34.1569 25.641 34.4118 25.8974 34.4118 26.2821V30.1282Z" transform="translate(0.764709 0.769287)" fill="#5940FF"/>
</svg>
