<svg width="39" height="37" viewBox="0 0 39 37" fill="none" xmlns="http://www.w3.org/2000/svg">
<path d="M34.3837 0H3.85157C1.72696 0 0 1.77935 0 3.96544V32.1884C0 34.3745 1.72696 36.1538 3.85157 36.1538H34.3837C36.5083 36.1538 38.2353 34.3745 38.2353 32.1884V3.96544C38.2353 1.77935 36.5083 0 34.3837 0ZM9.55882 2.58251C9.91059 2.58251 10.1961 2.87175 10.1961 3.22814C10.1961 3.58452 9.91059 3.87376 9.55882 3.87376C9.20706 3.87376 8.92157 3.58452 8.92157 3.22814C8.92157 2.87175 9.20706 2.58251 9.55882 2.58251ZM7.0098 2.58251C7.36157 2.58251 7.64706 2.87175 7.64706 3.22814C7.64706 3.58452 7.36157 3.87376 7.0098 3.87376C6.65804 3.87376 6.37255 3.58452 6.37255 3.22814C6.37255 2.87175 6.65804 2.58251 7.0098 2.58251ZM4.46078 2.58251C4.81255 2.58251 5.09804 2.87175 5.09804 3.22814C5.09804 3.58452 4.81255 3.87376 4.46078 3.87376C4.10902 3.87376 3.82353 3.58452 3.82353 3.22814C3.82353 2.87175 4.10902 2.58251 4.46078 2.58251ZM36.9608 32.191C36.9608 33.6643 35.8048 34.8639 34.3837 34.8639H3.85157C2.43049 34.8639 1.27451 33.6643 1.27451 32.191V6.45627H36.9608V32.191ZM3.8248 33.5726H6.73069C6.98176 33.5726 7.21118 33.4228 7.31314 33.1891C7.4151 32.9567 7.37304 32.6842 7.20353 32.4944C6.66824 31.8914 6.37382 31.1283 6.37382 30.3432C6.37382 28.5639 7.80255 27.1151 9.5601 27.1151C11.3176 27.1151 12.7464 28.5639 12.7464 30.3432C12.7464 31.127 12.452 31.8914 11.9167 32.4944C11.7472 32.683 11.7051 32.9554 11.8071 33.1891C11.909 33.4228 12.1384 33.5726 12.3895 33.5726H19.6415C19.8428 33.5726 20.0327 33.4758 20.1525 33.3118C20.3093 33.0974 20.3922 32.8508 20.3922 32.5964V28.3043C20.3922 28.0086 20.2851 27.7374 20.1079 27.5283C20.2787 27.5567 20.4584 27.5567 20.6458 27.4947L22.1102 26.9123C22.3511 27.0763 22.5945 27.2158 22.8418 27.3333L23.0648 28.8634C23.1464 29.3476 23.5619 29.6989 24.0525 29.6989H26.9457C27.4326 29.6989 27.8468 29.3373 27.9181 28.8492L28.1425 27.323C28.4025 27.1964 28.6433 27.0582 28.8613 26.9123L30.3563 27.5024C30.7998 27.6613 31.2879 27.4921 31.562 27.0673L33.0098 24.5945C33.2418 24.1762 33.15 23.6584 32.7855 23.3394C32.7753 23.3304 32.7638 23.3214 32.7536 23.3123L31.5046 22.3555C31.5174 22.2238 31.525 22.0895 31.525 21.9513C31.525 21.8119 31.5199 21.6763 31.5097 21.542L32.7715 20.5645C33.1373 20.243 33.229 19.7252 32.9881 19.2926L31.5581 16.8509C31.3249 16.4273 30.8368 16.2362 30.3231 16.408L28.86 16.9903C28.6166 16.8263 28.3731 16.6869 28.1272 16.5694L27.9118 15.0883C27.8684 14.5912 27.4376 14.2012 26.9304 14.2012H24.0373C23.5504 14.2012 23.1362 14.5628 23.0648 15.0509L22.8405 16.5771C22.5805 16.7037 22.3371 16.8418 22.114 16.989L20.6267 16.3989C20.1806 16.2401 19.6937 16.408 19.421 16.8341L17.9731 19.3068C17.7335 19.742 17.8393 20.2792 18.2293 20.5891L19.4732 21.5498C19.4643 21.6815 19.4605 21.8145 19.4605 21.9513C19.4605 22.0882 19.4643 22.2212 19.4732 22.3529L18.1987 23.3394C17.8342 23.6584 17.7425 24.1749 17.9821 24.6113L19.4121 27.0531C19.4337 27.0918 19.4669 27.1176 19.4924 27.1525C19.4771 27.1486 19.4643 27.1383 19.449 27.1357C19.4401 27.1344 19.4325 27.1331 19.4248 27.1318L17.1498 26.7871C16.9446 26.3209 16.705 25.8806 16.4374 25.4726L17.3168 23.1109C17.5028 22.575 17.3104 21.9927 16.8375 21.6866L13.4104 19.547C12.9286 19.232 12.2914 19.3482 11.9141 19.8298L10.4879 21.7938C10.0368 21.7486 9.58049 21.7499 9.12804 21.7951L7.68529 19.8091C7.32461 19.3482 6.68863 19.2332 6.24127 19.5225L2.88167 21.3845C2.67775 21.4981 2.55029 21.715 2.55029 21.9513V32.2814C2.55029 32.9941 3.12127 33.5726 3.8248 33.5726ZM25.4889 20.6601C26.1924 20.6601 26.7634 21.2399 26.7634 21.9513C26.7634 22.6628 26.1924 23.2426 25.4889 23.2426C24.7854 23.2426 24.2144 22.6628 24.2144 21.9513C24.2144 21.2399 24.7854 20.6601 25.4889 20.6601Z" transform="translate(0.764709 0.307617)" fill="#5940FF"/>
</svg>
