<svg width="39" height="40" viewBox="0 0 39 40" fill="none" xmlns="http://www.w3.org/2000/svg">
<path d="M16.7319 24.4405C17.2409 24.5691 17.7498 24.4405 18.0043 24.0546C18.6405 23.4114 18.2588 22.3824 17.7498 21.6106L15.4595 23.926C15.8412 24.1832 16.223 24.3119 16.7319 24.4405Z" transform="translate(0.764725 0.769287)" fill="#5940FF"/>
<path d="M17.7498 17.1083C17.1136 17.7515 17.4953 18.7806 18.0043 19.5524L20.2946 17.237C19.4039 16.5938 18.386 16.5938 17.7498 17.1083Z" transform="translate(0.764725 0.769287)" fill="#5940FF"/>
<path d="M37.5991 0H22.3304C22.2032 0 21.9487 0.128634 21.8215 0.128634L0.190858 21.9964C-0.0636195 22.2537 -0.0636195 22.6396 0.190858 22.8968L15.4595 38.3329C15.5868 38.4615 15.714 38.4615 15.9685 38.4615C16.223 38.4615 16.3502 38.4615 16.4774 38.3329L38.1081 16.4651C38.2353 16.3365 38.2353 16.2079 38.2353 15.9506V0.514536C38.2353 0.257268 37.9808 0 37.5991 0ZM22.3304 21.4819C22.076 21.7391 21.6942 21.7391 21.4398 21.6105C21.1853 21.4819 21.1853 20.9673 21.3125 20.7101C21.8215 20.1955 21.6942 19.1665 21.058 18.266L18.6405 20.7101C19.7857 22.5109 19.9129 23.9259 18.895 24.955C18.386 25.4695 17.7498 25.7268 16.9864 25.7268C16.8592 25.7268 16.6047 25.7268 16.4774 25.7268C15.8412 25.5982 15.0778 25.3409 14.5689 24.8263L13.8054 25.5981C13.8054 25.7268 13.5509 25.7268 13.4237 25.7268C13.2965 25.7268 13.042 25.7268 12.9148 25.5981C12.6603 25.3409 12.6603 24.955 12.9148 24.6977L13.6782 23.9259C12.6603 22.5109 12.533 20.8387 13.4237 19.681C13.6782 19.4237 14.0599 19.4237 14.3144 19.5524C14.5689 19.8096 14.5689 20.1955 14.4416 20.4528C13.9327 20.9673 14.0599 21.9964 14.6961 22.8968L17.1136 20.4528C15.9685 18.6519 15.8412 17.2369 16.8592 16.2079C17.8771 15.1788 19.7857 15.3074 21.1853 16.3365L21.9487 15.5647C22.2032 15.3074 22.5849 15.3074 22.8394 15.5647C23.0939 15.822 23.0939 16.2079 22.8394 16.4651L22.076 17.2369C23.0939 18.6519 23.2211 20.3242 22.3304 21.4819ZM29.3286 12.8634C27.1655 12.8634 25.5114 11.1912 25.5114 9.00437C25.5114 6.8176 27.1655 5.14536 29.3286 5.14536C31.4916 5.14536 33.1457 6.8176 33.1457 9.00437C33.1457 11.1912 31.4916 12.8634 29.3286 12.8634Z" transform="translate(0.764725 0.769287)" fill="#5940FF"/>
</svg>
