<svg width="39" height="40" viewBox="0 0 39 40" fill="none" xmlns="http://www.w3.org/2000/svg">
<path d="M8.82353 0H4.41176C1.91176 0 0 1.92308 0 4.43787V8.87574H8.82353V0Z" transform="translate(0.764709 0.769287)" fill="#5940FF"/>
<path d="M8.82353 10.355H0V19.2308H8.82353V10.355Z" transform="translate(0.764709 0.769287)" fill="#5940FF"/>
<path d="M33.8235 0H29.4118V8.87574H38.2353V4.43787C38.2353 1.92308 36.3235 0 33.8235 0Z" transform="translate(0.764709 0.769287)" fill="#5940FF"/>
<path d="M29.4118 38.4615H33.8235C36.3235 38.4615 38.2353 36.5385 38.2353 34.0237V29.5858H29.4118V38.4615Z" transform="translate(0.764709 0.769287)" fill="#5940FF"/>
<path d="M27.9412 29.5858H20.5882V38.4615H27.9412V29.5858Z" transform="translate(0.764709 0.769287)" fill="#5940FF"/>
<path d="M29.4118 14.645C29.4118 15.0888 29.1176 15.3846 28.6765 15.3846C28.2353 15.3846 27.9412 15.0888 27.9412 14.645V10.355H22.7941C22.3529 10.355 22.0588 10.0592 22.0588 9.61539C22.0588 9.1716 22.3529 8.87574 22.7941 8.87574H27.9412V0H20.5882V5.02959C20.5882 5.47337 20.2941 5.76923 19.8529 5.76923C19.4118 5.76923 19.1176 5.47337 19.1176 5.02959V0H10.2941V8.87574H15.4412C15.8824 8.87574 16.1765 9.1716 16.1765 9.61539C16.1765 10.0592 15.8824 10.355 15.4412 10.355H10.2941V19.2308H10.5882C11.0294 19.2308 11.3235 19.5266 11.3235 19.9704C11.3235 20.4142 11.0294 20.7101 10.5882 20.7101H10.2941V24.4083C10.2941 24.8521 10 25.1479 9.55882 25.1479C9.11765 25.1479 8.82353 24.8521 8.82353 24.4083V20.7101H0V28.1065H5.73529C6.17647 28.1065 6.47059 28.4024 6.47059 28.8462C6.47059 29.2899 6.17647 29.5858 5.73529 29.5858H0V34.0237C0 36.5385 1.91176 38.4615 4.41176 38.4615H8.82353V35.6509C8.82353 35.2071 9.11765 34.9112 9.55882 34.9112C10 34.9112 10.2941 35.2071 10.2941 35.6509V38.4615H19.1176V29.5858H13.9706C13.5294 29.5858 13.2353 29.2899 13.2353 28.8462C13.2353 28.4024 13.5294 28.1065 13.9706 28.1065H19.1176V15.5325C19.1176 15.0888 19.4118 14.7929 19.8529 14.7929C20.2941 14.7929 20.5882 15.0888 20.5882 15.5325V19.2308H24.2647C24.7059 19.2308 25 19.5266 25 19.9704C25 20.4142 24.7059 20.7101 24.2647 20.7101H20.5882V28.1065H27.9412V23.9645C27.9412 23.5207 28.2353 23.2249 28.6765 23.2249C29.1176 23.2249 29.4118 23.5207 29.4118 23.9645V28.1065H38.2353V20.7101H33.2353C32.7941 20.7101 32.5 20.4142 32.5 19.9704C32.5 19.5266 32.7941 19.2308 33.2353 19.2308H38.2353V10.355H29.4118V14.645ZM35 11.9822C35.2941 12.2781 35.4412 12.7219 35.1471 13.0178L29.4118 20.4142C29.2647 20.7101 28.9706 20.7101 28.8235 20.7101C28.6765 20.7101 28.3824 20.7101 28.2353 20.4142L19.8529 11.5385L11.7647 29.142C11.7647 29.2899 11.6176 29.2899 11.6176 29.4379L4.26471 35.355C3.97059 35.503 3.82353 35.503 3.67647 35.503C3.52941 35.503 3.23529 35.355 3.08824 35.2071C2.79412 34.9112 2.94118 34.4675 3.23529 34.1716L10.4412 28.4024L18.9706 10.2071C19.1176 10.0592 19.2647 9.76331 19.5588 9.76331C19.8529 9.76331 20 9.76331 20.1471 9.91124L28.8235 18.9349L34.1176 12.1302C34.2647 11.8343 34.7059 11.6864 35 11.9822Z" transform="translate(0.764709 0.769287)" fill="#5940FF"/>
</svg>
