<svg width="147" height="35" viewBox="0 0 147 35" fill="none" xmlns="http://www.w3.org/2000/svg">
<path d="M2.782 13V9.542H5.148C6.825 9.542 7.839 8.424 7.839 6.734C7.839 5.057 6.825 3.926 5.148 3.926H1.066V13H2.782ZM2.782 5.421H4.992C5.655 5.421 6.058 5.772 6.058 6.435V7.033C6.058 7.696 5.655 8.06 4.992 8.06H2.782V5.421ZM10.7894 13.156C11.8034 13.156 12.5444 12.701 12.7654 11.83H12.8434C12.9474 12.532 13.3894 13 14.1044 13H15.0274V11.674H14.3514V8.476C14.3514 6.929 13.3764 6.058 11.5434 6.058C10.1784 6.058 9.38539 6.578 8.89139 7.358L9.87939 8.242C10.2044 7.774 10.6464 7.384 11.4264 7.384C12.3104 7.384 12.6874 7.826 12.6874 8.58V9.074H11.5304C9.68439 9.074 8.63139 9.763 8.63139 11.154C8.63139 12.363 9.41139 13.156 10.7894 13.156ZM11.3484 11.947C10.6984 11.947 10.3214 11.674 10.3214 11.128V10.907C10.3214 10.374 10.7504 10.075 11.6214 10.075H12.6874V10.972C12.6874 11.609 12.0894 11.947 11.3484 11.947ZM18.6101 13.156C20.4691 13.156 21.6001 12.337 21.6001 10.998C21.6001 10.14 21.0151 9.568 20.0401 9.464V9.399C20.9891 9.256 21.4441 8.762 21.4441 7.904C21.4441 6.812 20.5341 6.058 18.6881 6.058C17.3751 6.058 16.4781 6.539 15.8671 7.358L16.8811 8.255C17.2191 7.722 17.8171 7.397 18.5711 7.397C19.3771 7.397 19.7411 7.683 19.7411 8.125V8.255C19.7411 8.723 19.4161 8.957 18.8181 8.957H17.4921V10.114H18.9741C19.5721 10.114 19.9101 10.348 19.9101 10.829V10.972C19.9101 11.492 19.4811 11.817 18.6231 11.817C17.8431 11.817 17.2061 11.492 16.7641 10.907L15.7241 11.895C16.4131 12.701 17.2581 13.156 18.6101 13.156ZM23.1661 15.6H24.8301V11.869H24.8821C25.1421 12.636 25.8571 13.156 26.7541 13.156C28.4701 13.156 29.4191 11.869 29.4191 9.594C29.4191 7.332 28.4701 6.058 26.7541 6.058C25.8571 6.058 25.1291 6.552 24.8821 7.332H24.8301V6.214H23.1661V15.6ZM26.2211 11.778C25.4281 11.778 24.8301 11.375 24.8301 10.673V8.515C24.8301 7.852 25.4281 7.423 26.2211 7.423C27.0791 7.423 27.6771 8.06 27.6771 9.022V10.192C27.6771 11.154 27.0791 11.778 26.2211 11.778ZM32.638 13.156C33.652 13.156 34.393 12.701 34.614 11.83H34.692C34.796 12.532 35.238 13 35.953 13H36.876V11.674H36.2V8.476C36.2 6.929 35.225 6.058 33.392 6.058C32.027 6.058 31.234 6.578 30.74 7.358L31.728 8.242C32.053 7.774 32.495 7.384 33.275 7.384C34.159 7.384 34.536 7.826 34.536 8.58V9.074H33.379C31.533 9.074 30.48 9.763 30.48 11.154C30.48 12.363 31.26 13.156 32.638 13.156ZM33.197 11.947C32.547 11.947 32.17 11.674 32.17 11.128V10.907C32.17 10.374 32.599 10.075 33.47 10.075H34.536V10.972C34.536 11.609 33.938 11.947 33.197 11.947ZM40.953 13.156C42.903 13.156 44.099 11.778 44.099 9.633C44.099 7.566 42.968 6.344 41.46 6.344C40.472 6.344 39.926 6.799 39.601 7.696H39.549C39.64 5.772 40.043 5.187 41.395 5.057L43.618 4.849V3.237L41.434 3.445C38.899 3.692 37.807 5.265 37.807 8.84C37.807 11.869 38.99 13.156 40.953 13.156ZM40.979 11.817C40.095 11.817 39.549 11.258 39.549 10.218V9.139C39.549 8.242 40.043 7.696 40.94 7.696C41.824 7.696 42.37 8.255 42.37 9.282V10.257C42.37 11.258 41.824 11.817 40.979 11.817ZM48.2643 13.156C50.2143 13.156 51.4233 11.778 51.4233 9.594C51.4233 7.423 50.2143 6.058 48.2643 6.058C46.3273 6.058 45.1183 7.423 45.1183 9.594C45.1183 11.778 46.3273 13.156 48.2643 13.156ZM48.2643 11.817C47.4063 11.817 46.8603 11.258 46.8603 10.231V8.97C46.8603 7.956 47.4063 7.397 48.2643 7.397C49.1353 7.397 49.6813 7.956 49.6813 8.97V10.231C49.6813 11.258 49.1353 11.817 48.2643 11.817ZM54.1747 13H55.8387V7.54H57.9057V6.214H52.1077V7.54H54.1747V13ZM60.7201 13.156C61.7341 13.156 62.4751 12.701 62.6961 11.83H62.7741C62.8781 12.532 63.3201 13 64.0351 13H64.9581V11.674H64.2821V8.476C64.2821 6.929 63.3071 6.058 61.4741 6.058C60.1091 6.058 59.3161 6.578 58.8221 7.358L59.8101 8.242C60.1351 7.774 60.5771 7.384 61.3571 7.384C62.2411 7.384 62.6181 7.826 62.6181 8.58V9.074H61.4611C59.6151 9.074 58.5621 9.763 58.5621 11.154C58.5621 12.363 59.3421 13.156 60.7201 13.156ZM61.2791 11.947C60.6291 11.947 60.2521 11.674 60.2521 11.128V10.907C60.2521 10.374 60.6811 10.075 61.5521 10.075H62.6181V10.972C62.6181 11.609 62.0201 11.947 61.2791 11.947ZM66.3048 13H67.9688V10.205H70.5818V13H72.2458V6.214H70.5818V8.879H67.9688V6.214H66.3048V13ZM76.8669 13.156C78.8169 13.156 80.0259 11.778 80.0259 9.594C80.0259 7.423 78.8169 6.058 76.8669 6.058C74.9299 6.058 73.7209 7.423 73.7209 9.594C73.7209 11.778 74.9299 13.156 76.8669 13.156ZM76.8669 11.817C76.0089 11.817 75.4629 11.258 75.4629 10.231V8.97C75.4629 7.956 76.0089 7.397 76.8669 7.397C77.7379 7.397 78.2839 7.956 78.2839 8.97V10.231C78.2839 11.258 77.7379 11.817 76.8669 11.817ZM1.066 30H2.691V23.487H2.743L3.445 24.93L5.304 28.362L7.163 24.93L7.865 23.487H7.917V30H9.542V20.926H7.683L5.382 25.359H5.33L3.003 20.926H1.066V30ZM14.3183 30.156C15.5793 30.156 16.5673 29.675 17.1263 28.908L16.2293 27.907C15.8133 28.44 15.3193 28.83 14.5003 28.83C13.4083 28.83 12.8493 28.167 12.8493 27.192V27.023H17.3603V26.477C17.3603 24.618 16.3853 23.058 14.2663 23.058C12.2773 23.058 11.1203 24.449 11.1203 26.594C11.1203 28.765 12.3163 30.156 14.3183 30.156ZM14.2923 24.306C15.1503 24.306 15.6313 24.943 15.6313 25.879V25.996H12.8493V25.892C12.8493 24.956 13.4213 24.306 14.2923 24.306ZM20.9433 30H22.1393V28.674H20.8523V24.54H22.2433V23.214H20.8523V21.355H19.3573V22.512C19.3573 22.98 19.2013 23.214 18.7073 23.214H18.1873V24.54H19.1883V28.271C19.1883 29.376 19.7993 30 20.9433 30ZM26.3788 30.156C27.6398 30.156 28.6278 29.675 29.1868 28.908L28.2898 27.907C27.8738 28.44 27.3798 28.83 26.5608 28.83C25.4688 28.83 24.9098 28.167 24.9098 27.192V27.023H29.4208V26.477C29.4208 24.618 28.4458 23.058 26.3268 23.058C24.3378 23.058 23.1808 24.449 23.1808 26.594C23.1808 28.765 24.3768 30.156 26.3788 30.156ZM26.3528 24.306C27.2108 24.306 27.6918 24.943 27.6918 25.879V25.996H24.9098V25.892C24.9098 24.956 25.4818 24.306 26.3528 24.306ZM33.4459 30V28.674H32.5489V20.38H30.8849V28.362C30.8849 29.402 31.4179 30 32.5489 30H33.4459ZM37.4491 30.156C38.7101 30.156 39.6981 29.675 40.2571 28.908L39.3601 27.907C38.9441 28.44 38.4501 28.83 37.6311 28.83C36.5391 28.83 35.9801 28.167 35.9801 27.192V27.023H40.4911V26.477C40.4911 24.618 39.5161 23.058 37.3971 23.058C35.4081 23.058 34.2511 24.449 34.2511 26.594C34.2511 28.765 35.4471 30.156 37.4491 30.156ZM37.4231 24.306C38.2811 24.306 38.7621 24.943 38.7621 25.879V25.996H35.9801V25.892C35.9801 24.956 36.5521 24.306 37.4231 24.306ZM45.2729 30L47.5479 23.214H45.9619L45.0389 26.139L44.3759 28.557H44.2849L43.6219 26.139L42.6729 23.214H41.0349L43.2969 30H45.2729ZM57.1256 30V28.479H53.5506V20.926H51.8346V30H57.1256ZM60.2249 30.156C61.2389 30.156 61.9799 29.701 62.2009 28.83H62.2789C62.3829 29.532 62.8249 30 63.5399 30H64.4629V28.674H63.7869V25.476C63.7869 23.929 62.8119 23.058 60.9789 23.058C59.6139 23.058 58.8209 23.578 58.3269 24.358L59.3149 25.242C59.6399 24.774 60.0819 24.384 60.8619 24.384C61.7459 24.384 62.1229 24.826 62.1229 25.58V26.074H60.9659C59.1199 26.074 58.0669 26.763 58.0669 28.154C58.0669 29.363 58.8469 30.156 60.2249 30.156ZM60.7839 28.947C60.1339 28.947 59.7569 28.674 59.7569 28.128V27.907C59.7569 27.374 60.1859 27.075 61.0569 27.075H62.1229V27.972C62.1229 28.609 61.5249 28.947 60.7839 28.947ZM65.8097 30H67.4737V28.869H67.5257C67.7857 29.636 68.5007 30.156 69.3977 30.156C71.1137 30.156 72.0627 28.869 72.0627 26.594C72.0627 24.332 71.1137 23.058 69.3977 23.058C68.5007 23.058 67.7727 23.552 67.5257 24.332H67.4737V20.38H65.8097V30ZM68.8647 28.778C68.0717 28.778 67.4737 28.375 67.4737 27.673V25.515C67.4737 24.852 68.0717 24.423 68.8647 24.423C69.7227 24.423 70.3207 25.06 70.3207 26.022V27.192C70.3207 28.154 69.7227 28.778 68.8647 28.778ZM76.2956 30.156C78.2456 30.156 79.4546 28.778 79.4546 26.594C79.4546 24.423 78.2456 23.058 76.2956 23.058C74.3586 23.058 73.1496 24.423 73.1496 26.594C73.1496 28.778 74.3586 30.156 76.2956 30.156ZM76.2956 28.817C75.4376 28.817 74.8916 28.258 74.8916 27.231V25.97C74.8916 24.956 75.4376 24.397 76.2956 24.397C77.1666 24.397 77.7126 24.956 77.7126 25.97V27.231C77.7126 28.258 77.1666 28.817 76.2956 28.817ZM82.5938 30V25.84C82.5938 25.099 83.1788 24.787 84.2968 24.787H84.8168V23.214H84.4528C83.3738 23.214 82.8278 23.903 82.6588 24.618H82.5938V23.214H80.9298V30H82.5938ZM87.5706 30.156C88.5846 30.156 89.3256 29.701 89.5466 28.83H89.6246C89.7286 29.532 90.1706 30 90.8856 30H91.8086V28.674H91.1326V25.476C91.1326 23.929 90.1576 23.058 88.3246 23.058C86.9596 23.058 86.1666 23.578 85.6726 24.358L86.6606 25.242C86.9856 24.774 87.4276 24.384 88.2076 24.384C89.0916 24.384 89.4686 24.826 89.4686 25.58V26.074H88.3116C86.4656 26.074 85.4126 26.763 85.4126 28.154C85.4126 29.363 86.1926 30.156 87.5706 30.156ZM88.1296 28.947C87.4796 28.947 87.1026 28.674 87.1026 28.128V27.907C87.1026 27.374 87.5316 27.075 88.4026 27.075H89.4686V27.972C89.4686 28.609 88.8706 28.947 88.1296 28.947ZM95.2236 30H96.4196V28.674H95.1326V24.54H96.5236V23.214H95.1326V21.355H93.6376V22.512C93.6376 22.98 93.4816 23.214 92.9876 23.214H92.4676V24.54H93.4686V28.271C93.4686 29.376 94.0796 30 95.2236 30ZM100.607 30.156C102.557 30.156 103.766 28.778 103.766 26.594C103.766 24.423 102.557 23.058 100.607 23.058C98.6701 23.058 97.4611 24.423 97.4611 26.594C97.4611 28.778 98.6701 30.156 100.607 30.156ZM100.607 28.817C99.7491 28.817 99.2031 28.258 99.2031 27.231V25.97C99.2031 24.956 99.7491 24.397 100.607 24.397C101.478 24.397 102.024 24.956 102.024 25.97V27.231C102.024 28.258 101.478 28.817 100.607 28.817ZM106.905 30V25.84C106.905 25.099 107.49 24.787 108.608 24.787H109.128V23.214H108.764C107.685 23.214 107.139 23.903 106.97 24.618H106.905V23.214H105.241V30H106.905ZM113.423 26.802L112.955 28.518H112.877L112.435 26.802L111.252 23.214H109.601L112.032 30.325L111.72 31.274H110.498V32.6H111.499C112.617 32.6 113.098 32.184 113.436 31.209L116.166 23.214H114.606L113.423 26.802Z" transform="translate(30 1)" fill="white"/>
<path d="M17.7638 7.51871V0L13.7265 3.99252L10.4968 0.798503L7.26699 3.99252L3.22978 0V7.51871H0V24.6195L10.4968 35L14.3014 31.2374L17.5312 27.9796L21 24.6195V7.51871H17.7638ZM3.22978 25.5521L1.61489 23.9551V9.11571H3.22978V25.5521ZM6.45955 28.7461L4.84466 27.1491V19.8284L6.45955 21.4254V28.7461ZM12.9191 30.3431L10.4968 32.7386L8.07444 30.3431V23.0224L10.4968 25.418L12.9191 23.0097V30.3431ZM12.9191 20.7483L10.4968 23.1566L8.07444 20.7611V19.8284L10.4968 17.4329L12.9191 19.8284V20.7483ZM16.1489 27.0916L14.534 28.7206V21.4063L16.1489 19.8157V27.0916ZM16.1489 17.5671L14.5275 19.1641L11.6337 16.3022L12.9126 15.0374V13.4404L15.9034 10.4828L14.7601 9.35207L11.3042 12.7761V13.9067H9.68933V12.7761L6.22055 9.34568L5.08367 10.4764L8.07444 13.434V15.031L9.35343 16.2959L6.45955 19.1641L4.84466 17.5671V9.11571H16.1489V17.5671ZM16.1489 7.51871H4.84466V3.85837L7.26699 6.25388L10.4968 3.05986L13.7265 6.25388L16.1489 3.85837V7.51871ZM19.3787 23.9487L17.7638 25.5138V9.11571H19.3787V23.9487Z" fill="white"/>
</svg>
