<svg width="147" height="35" viewBox="0 0 147 35" fill="none" xmlns="http://www.w3.org/2000/svg">
<path d="M1.066 13H4.368C6.734 13 8.281 11.479 8.281 8.463C8.281 5.447 6.734 3.926 4.368 3.926H1.066V13ZM2.782 11.479V5.447H4.368C5.642 5.447 6.461 6.201 6.461 7.748V9.178C6.461 10.725 5.642 11.479 4.368 11.479H2.782ZM12.6679 13.156C13.9289 13.156 14.9169 12.675 15.4759 11.908L14.5789 10.907C14.1629 11.44 13.6689 11.83 12.8499 11.83C11.7579 11.83 11.1989 11.167 11.1989 10.192V10.023H15.7099V9.477C15.7099 7.618 14.7349 6.058 12.6159 6.058C10.6269 6.058 9.46989 7.449 9.46989 9.594C9.46989 11.765 10.6659 13.156 12.6679 13.156ZM12.6419 7.306C13.4999 7.306 13.9809 7.943 13.9809 8.879V8.996H11.1989V8.892C11.1989 7.956 11.7709 7.306 12.6419 7.306ZM20.4917 13L22.7667 6.214H21.1807L20.2577 9.139L19.5947 11.557H19.5037L18.8407 9.139L17.8917 6.214H16.2537L18.5157 13H20.4917ZM26.5185 13.156C27.7795 13.156 28.7675 12.675 29.3265 11.908L28.4295 10.907C28.0135 11.44 27.5195 11.83 26.7005 11.83C25.6085 11.83 25.0495 11.167 25.0495 10.192V10.023H29.5605V9.477C29.5605 7.618 28.5855 6.058 26.4665 6.058C24.4775 6.058 23.3205 7.449 23.3205 9.594C23.3205 11.765 24.5165 13.156 26.5185 13.156ZM26.4925 7.306C27.3505 7.306 27.8315 7.943 27.8315 8.879V8.996H25.0495V8.892C25.0495 7.956 25.6215 7.306 26.4925 7.306ZM33.5855 13V11.674H32.6885V3.38H31.0245V11.362C31.0245 12.402 31.5575 13 32.6885 13H33.5855ZM37.5368 13.156C39.4868 13.156 40.6958 11.778 40.6958 9.594C40.6958 7.423 39.4868 6.058 37.5368 6.058C35.5998 6.058 34.3908 7.423 34.3908 9.594C34.3908 11.778 35.5998 13.156 37.5368 13.156ZM37.5368 11.817C36.6788 11.817 36.1328 11.258 36.1328 10.231V8.97C36.1328 7.956 36.6788 7.397 37.5368 7.397C38.4078 7.397 38.9538 7.956 38.9538 8.97V10.231C38.9538 11.258 38.4078 11.817 37.5368 11.817ZM42.171 15.6H43.835V11.869H43.887C44.147 12.636 44.862 13.156 45.759 13.156C47.475 13.156 48.424 11.869 48.424 9.594C48.424 7.332 47.475 6.058 45.759 6.058C44.862 6.058 44.134 6.552 43.887 7.332H43.835V6.214H42.171V15.6ZM45.226 11.778C44.433 11.778 43.835 11.375 43.835 10.673V8.515C43.835 7.852 44.433 7.423 45.226 7.423C46.084 7.423 46.682 8.06 46.682 9.022V10.192C46.682 11.154 46.084 11.778 45.226 11.778ZM52.7089 13.156C53.9699 13.156 54.9579 12.675 55.5169 11.908L54.6199 10.907C54.2039 11.44 53.7099 11.83 52.8909 11.83C51.7989 11.83 51.2399 11.167 51.2399 10.192V10.023H55.7509V9.477C55.7509 7.618 54.7759 6.058 52.6569 6.058C50.6679 6.058 49.5109 7.449 49.5109 9.594C49.5109 11.765 50.7069 13.156 52.7089 13.156ZM52.6829 7.306C53.5409 7.306 54.0219 7.943 54.0219 8.879V8.996H51.2399V8.892C51.2399 7.956 51.8119 7.306 52.6829 7.306ZM61.4269 13H63.0909V3.38H61.4269V7.332H61.3619C61.1279 6.552 60.3869 6.058 59.4899 6.058C57.7869 6.058 56.8379 7.332 56.8379 9.594C56.8379 11.869 57.7869 13.156 59.4899 13.156C60.3869 13.156 61.1149 12.636 61.3619 11.869H61.4269V13ZM60.0229 11.778C59.1649 11.778 58.5799 11.154 58.5799 10.192V9.022C58.5799 8.06 59.1649 7.423 60.0229 7.423C60.8159 7.423 61.4269 7.852 61.4269 8.515V10.673C61.4269 11.375 60.8159 11.778 60.0229 11.778ZM68.0821 13H69.7461V11.869H69.7981C70.0581 12.636 70.7731 13.156 71.6701 13.156C73.3861 13.156 74.3351 11.869 74.3351 9.594C74.3351 7.332 73.3861 6.058 71.6701 6.058C70.7731 6.058 70.0451 6.552 69.7981 7.332H69.7461V3.38H68.0821V13ZM71.1371 11.778C70.3441 11.778 69.7461 11.375 69.7461 10.673V8.515C69.7461 7.852 70.3441 7.423 71.1371 7.423C71.9951 7.423 72.5931 8.06 72.5931 9.022V10.192C72.5931 11.154 71.9951 11.778 71.1371 11.778ZM78.7398 9.802L78.2718 11.518H78.1938L77.7518 9.802L76.5688 6.214H74.9178L77.3488 13.325L77.0368 14.274H75.8148V15.6H76.8158C77.9338 15.6 78.4148 15.184 78.7528 14.209L81.4828 6.214H79.9228L78.7398 9.802ZM1.066 30H2.691V23.487H2.743L3.445 24.93L5.304 28.362L7.163 24.93L7.865 23.487H7.917V30H9.542V20.926H7.683L5.382 25.359H5.33L3.003 20.926H1.066V30ZM14.3183 30.156C15.5793 30.156 16.5673 29.675 17.1263 28.908L16.2293 27.907C15.8133 28.44 15.3193 28.83 14.5003 28.83C13.4083 28.83 12.8493 28.167 12.8493 27.192V27.023H17.3603V26.477C17.3603 24.618 16.3853 23.058 14.2663 23.058C12.2773 23.058 11.1203 24.449 11.1203 26.594C11.1203 28.765 12.3163 30.156 14.3183 30.156ZM14.2923 24.306C15.1503 24.306 15.6313 24.943 15.6313 25.879V25.996H12.8493V25.892C12.8493 24.956 13.4213 24.306 14.2923 24.306ZM20.9433 30H22.1393V28.674H20.8523V24.54H22.2433V23.214H20.8523V21.355H19.3573V22.512C19.3573 22.98 19.2013 23.214 18.7073 23.214H18.1873V24.54H19.1883V28.271C19.1883 29.376 19.7993 30 20.9433 30ZM26.3788 30.156C27.6398 30.156 28.6278 29.675 29.1868 28.908L28.2898 27.907C27.8738 28.44 27.3798 28.83 26.5608 28.83C25.4688 28.83 24.9098 28.167 24.9098 27.192V27.023H29.4208V26.477C29.4208 24.618 28.4458 23.058 26.3268 23.058C24.3378 23.058 23.1808 24.449 23.1808 26.594C23.1808 28.765 24.3768 30.156 26.3788 30.156ZM26.3528 24.306C27.2108 24.306 27.6918 24.943 27.6918 25.879V25.996H24.9098V25.892C24.9098 24.956 25.4818 24.306 26.3528 24.306ZM33.4459 30V28.674H32.5489V20.38H30.8849V28.362C30.8849 29.402 31.4179 30 32.5489 30H33.4459ZM37.4491 30.156C38.7101 30.156 39.6981 29.675 40.2571 28.908L39.3601 27.907C38.9441 28.44 38.4501 28.83 37.6311 28.83C36.5391 28.83 35.9801 28.167 35.9801 27.192V27.023H40.4911V26.477C40.4911 24.618 39.5161 23.058 37.3971 23.058C35.4081 23.058 34.2511 24.449 34.2511 26.594C34.2511 28.765 35.4471 30.156 37.4491 30.156ZM37.4231 24.306C38.2811 24.306 38.7621 24.943 38.7621 25.879V25.996H35.9801V25.892C35.9801 24.956 36.5521 24.306 37.4231 24.306ZM45.2729 30L47.5479 23.214H45.9619L45.0389 26.139L44.3759 28.557H44.2849L43.6219 26.139L42.6729 23.214H41.0349L43.2969 30H45.2729ZM57.1256 30V28.479H53.5506V20.926H51.8346V30H57.1256ZM60.2249 30.156C61.2389 30.156 61.9799 29.701 62.2009 28.83H62.2789C62.3829 29.532 62.8249 30 63.5399 30H64.4629V28.674H63.7869V25.476C63.7869 23.929 62.8119 23.058 60.9789 23.058C59.6139 23.058 58.8209 23.578 58.3269 24.358L59.3149 25.242C59.6399 24.774 60.0819 24.384 60.8619 24.384C61.7459 24.384 62.1229 24.826 62.1229 25.58V26.074H60.9659C59.1199 26.074 58.0669 26.763 58.0669 28.154C58.0669 29.363 58.8469 30.156 60.2249 30.156ZM60.7839 28.947C60.1339 28.947 59.7569 28.674 59.7569 28.128V27.907C59.7569 27.374 60.1859 27.075 61.0569 27.075H62.1229V27.972C62.1229 28.609 61.5249 28.947 60.7839 28.947ZM65.8097 30H67.4737V28.869H67.5257C67.7857 29.636 68.5007 30.156 69.3977 30.156C71.1137 30.156 72.0627 28.869 72.0627 26.594C72.0627 24.332 71.1137 23.058 69.3977 23.058C68.5007 23.058 67.7727 23.552 67.5257 24.332H67.4737V20.38H65.8097V30ZM68.8647 28.778C68.0717 28.778 67.4737 28.375 67.4737 27.673V25.515C67.4737 24.852 68.0717 24.423 68.8647 24.423C69.7227 24.423 70.3207 25.06 70.3207 26.022V27.192C70.3207 28.154 69.7227 28.778 68.8647 28.778ZM76.2956 30.156C78.2456 30.156 79.4546 28.778 79.4546 26.594C79.4546 24.423 78.2456 23.058 76.2956 23.058C74.3586 23.058 73.1496 24.423 73.1496 26.594C73.1496 28.778 74.3586 30.156 76.2956 30.156ZM76.2956 28.817C75.4376 28.817 74.8916 28.258 74.8916 27.231V25.97C74.8916 24.956 75.4376 24.397 76.2956 24.397C77.1666 24.397 77.7126 24.956 77.7126 25.97V27.231C77.7126 28.258 77.1666 28.817 76.2956 28.817ZM82.5938 30V25.84C82.5938 25.099 83.1788 24.787 84.2968 24.787H84.8168V23.214H84.4528C83.3738 23.214 82.8278 23.903 82.6588 24.618H82.5938V23.214H80.9298V30H82.5938ZM87.5706 30.156C88.5846 30.156 89.3256 29.701 89.5466 28.83H89.6246C89.7286 29.532 90.1706 30 90.8856 30H91.8086V28.674H91.1326V25.476C91.1326 23.929 90.1576 23.058 88.3246 23.058C86.9596 23.058 86.1666 23.578 85.6726 24.358L86.6606 25.242C86.9856 24.774 87.4276 24.384 88.2076 24.384C89.0916 24.384 89.4686 24.826 89.4686 25.58V26.074H88.3116C86.4656 26.074 85.4126 26.763 85.4126 28.154C85.4126 29.363 86.1926 30.156 87.5706 30.156ZM88.1296 28.947C87.4796 28.947 87.1026 28.674 87.1026 28.128V27.907C87.1026 27.374 87.5316 27.075 88.4026 27.075H89.4686V27.972C89.4686 28.609 88.8706 28.947 88.1296 28.947ZM95.2236 30H96.4196V28.674H95.1326V24.54H96.5236V23.214H95.1326V21.355H93.6376V22.512C93.6376 22.98 93.4816 23.214 92.9876 23.214H92.4676V24.54H93.4686V28.271C93.4686 29.376 94.0796 30 95.2236 30ZM100.607 30.156C102.557 30.156 103.766 28.778 103.766 26.594C103.766 24.423 102.557 23.058 100.607 23.058C98.6701 23.058 97.4611 24.423 97.4611 26.594C97.4611 28.778 98.6701 30.156 100.607 30.156ZM100.607 28.817C99.7491 28.817 99.2031 28.258 99.2031 27.231V25.97C99.2031 24.956 99.7491 24.397 100.607 24.397C101.478 24.397 102.024 24.956 102.024 25.97V27.231C102.024 28.258 101.478 28.817 100.607 28.817ZM106.905 30V25.84C106.905 25.099 107.49 24.787 108.608 24.787H109.128V23.214H108.764C107.685 23.214 107.139 23.903 106.97 24.618H106.905V23.214H105.241V30H106.905ZM113.423 26.802L112.955 28.518H112.877L112.435 26.802L111.252 23.214H109.601L112.032 30.325L111.72 31.274H110.498V32.6H111.499C112.617 32.6 113.098 32.184 113.436 31.209L116.166 23.214H114.606L113.423 26.802Z" transform="translate(30 1)" fill="white"/>
<path d="M17.7638 7.51871V0L13.7265 3.99252L10.4968 0.798503L7.26699 3.99252L3.22978 0V7.51871H0V24.6195L10.4968 35L14.3014 31.2374L17.5312 27.9796L21 24.6195V7.51871H17.7638ZM3.22978 25.5521L1.61489 23.9551V9.11571H3.22978V25.5521ZM6.45955 28.7461L4.84466 27.1491V19.8284L6.45955 21.4254V28.7461ZM12.9191 30.3431L10.4968 32.7386L8.07444 30.3431V23.0224L10.4968 25.418L12.9191 23.0097V30.3431ZM12.9191 20.7483L10.4968 23.1566L8.07444 20.7611V19.8284L10.4968 17.4329L12.9191 19.8284V20.7483ZM16.1489 27.0916L14.534 28.7206V21.4063L16.1489 19.8157V27.0916ZM16.1489 17.5671L14.5275 19.1641L11.6337 16.3022L12.9126 15.0374V13.4404L15.9034 10.4828L14.7601 9.35207L11.3042 12.7761V13.9067H9.68933V12.7761L6.22055 9.34568L5.08367 10.4764L8.07444 13.434V15.031L9.35343 16.2959L6.45955 19.1641L4.84466 17.5671V9.11571H16.1489V17.5671ZM16.1489 7.51871H4.84466V3.85837L7.26699 6.25388L10.4968 3.05986L13.7265 6.25388L16.1489 3.85837V7.51871ZM19.3787 23.9487L17.7638 25.5138V9.11571H19.3787V23.9487Z" fill="white"/>
</svg>
