<svg width="25" height="21" viewBox="0 0 25 21" fill="none" xmlns="http://www.w3.org/2000/svg">
<path opacity="0.8" d="M24.375 8.625C24.5312 8.625 24.6875 8.70312 24.8047 8.82031C24.9219 8.9375 25 9.09375 25 9.25V10.5C25 10.6953 24.9219 10.8516 24.8047 10.9688C24.6875 11.0859 24.5312 11.125 24.375 11.125H21.875V13.625C21.875 13.8203 21.7969 13.9766 21.6797 14.0938C21.5625 14.2109 21.4062 14.25 21.25 14.25H20C19.8047 14.25 19.6484 14.2109 19.5312 14.0938C19.4141 13.9766 19.375 13.8203 19.375 13.625V11.125H16.875C16.6797 11.125 16.5234 11.0859 16.4062 10.9688C16.2891 10.8516 16.25 10.6953 16.25 10.5V9.25C16.25 9.09375 16.2891 8.9375 16.4062 8.82031C16.5234 8.70312 16.6797 8.625 16.875 8.625H19.375V6.125C19.375 5.96875 19.4141 5.8125 19.5312 5.69531C19.6484 5.57812 19.8047 5.5 20 5.5H21.25C21.4062 5.5 21.5625 5.57812 21.6797 5.69531C21.7969 5.8125 21.875 5.96875 21.875 6.125V8.625H24.375ZM8.75 10.5C7.8125 10.5 6.99219 10.3047 6.21094 9.83594C5.42969 9.40625 4.84375 8.82031 4.41406 8.03906C3.94531 7.25781 3.75 6.4375 3.75 5.5C3.75 4.60156 3.94531 3.78125 4.41406 3C4.84375 2.21875 5.42969 1.63281 6.21094 1.16406C6.99219 0.734375 7.8125 0.5 8.75 0.5C9.64844 0.5 10.4688 0.734375 11.25 1.16406C12.0312 1.63281 12.6172 2.21875 13.0859 3C13.5156 3.78125 13.75 4.60156 13.75 5.5C13.75 6.4375 13.5156 7.25781 13.0859 8.03906C12.6172 8.82031 12.0312 9.40625 11.25 9.83594C10.4688 10.3047 9.64844 10.5 8.75 10.5ZM12.2656 11.75C13.2031 11.75 14.0625 11.9844 14.8828 12.4531C15.6641 12.9219 16.3281 13.5859 16.7969 14.3672C17.2656 15.1875 17.5 16.0469 17.5 16.9844V18.625C17.5 19.1719 17.3047 19.6016 16.9531 19.9531C16.5625 20.3438 16.1328 20.5 15.625 20.5H1.875C1.32812 20.5 0.898438 20.3438 0.546875 19.9531C0.15625 19.6016 0 19.1719 0 18.625V16.9844C0 16.0469 0.234375 15.1875 0.703125 14.3672C1.17188 13.5859 1.79688 12.9219 2.61719 12.4531C3.39844 11.9844 4.29688 11.75 5.23438 11.75H5.89844C6.79688 12.1797 7.73438 12.375 8.75 12.375C9.72656 12.375 10.6641 12.1797 11.6016 11.75H12.2656Z" fill="#465EDB"/>
</svg>
