<svg width="25" height="19" viewBox="0 0 25 19" fill="none" xmlns="http://www.w3.org/2000/svg">
<path opacity="0.8" d="M3.75 9.25C3.04688 9.25 2.46094 9.01562 1.99219 8.50781C1.48438 8.03906 1.25 7.45312 1.25 6.75C1.25 6.08594 1.48438 5.5 1.99219 4.99219C2.46094 4.52344 3.04688 4.25 3.75 4.25C4.41406 4.25 5 4.52344 5.50781 4.99219C5.97656 5.5 6.25 6.08594 6.25 6.75C6.25 7.45312 5.97656 8.03906 5.50781 8.50781C5 9.01562 4.41406 9.25 3.75 9.25ZM21.25 9.25C20.5469 9.25 19.9609 9.01562 19.4922 8.50781C18.9844 8.03906 18.75 7.45312 18.75 6.75C18.75 6.08594 18.9844 5.5 19.4922 4.99219C19.9609 4.52344 20.5469 4.25 21.25 4.25C21.9141 4.25 22.5 4.52344 23.0078 4.99219C23.4766 5.5 23.75 6.08594 23.75 6.75C23.75 7.45312 23.4766 8.03906 23.0078 8.50781C22.5 9.01562 21.9141 9.25 21.25 9.25ZM22.5 10.5C23.1641 10.5 23.75 10.7734 24.2578 11.2422C24.7266 11.75 25 12.3359 25 13V14.25C25 14.6016 24.8438 14.9141 24.6094 15.1484C24.375 15.3828 24.0625 15.5 23.75 15.5H21.1719C21.0156 14.6016 20.7031 13.7812 20.1953 13C19.6484 12.2578 19.0234 11.6719 18.2422 11.2422C18.7109 10.7734 19.2969 10.5 20 10.5H22.5ZM12.5 10.5C11.7188 10.5 10.9766 10.3047 10.3125 9.91406C9.60938 9.52344 9.10156 9.01562 8.71094 8.3125C8.32031 7.64844 8.125 6.90625 8.125 6.125C8.125 5.34375 8.32031 4.64062 8.71094 3.9375C9.10156 3.27344 9.60938 2.72656 10.3125 2.33594C10.9766 1.94531 11.7188 1.75 12.5 1.75C13.2812 1.75 13.9844 1.94531 14.6875 2.33594C15.3516 2.72656 15.8984 3.27344 16.2891 3.9375C16.6797 4.64062 16.875 5.34375 16.875 6.125C16.875 6.90625 16.6797 7.64844 16.2891 8.3125C15.8984 9.01562 15.3516 9.52344 14.6875 9.91406C13.9844 10.3047 13.2812 10.5 12.5 10.5ZM15.5078 11.75C16.2891 11.75 17.0312 11.9844 17.7344 12.375C18.4375 12.7656 18.9844 13.3125 19.375 14.0156C19.7656 14.7188 20 15.4609 20 16.2422V17.375C20 17.9219 19.8047 18.3516 19.4531 18.7031C19.0625 19.0938 18.6328 19.25 18.125 19.25H6.875C6.32812 19.25 5.89844 19.0938 5.54688 18.7031C5.15625 18.3516 5 17.9219 5 17.375V16.2422C5 15.4609 5.19531 14.7188 5.58594 14.0156C5.97656 13.3125 6.52344 12.7656 7.22656 12.375C7.92969 11.9844 8.67188 11.75 9.49219 11.75H9.80469C10.6641 12.1797 11.5625 12.375 12.5 12.375C13.3984 12.375 14.2969 12.1797 15.1953 11.75H15.5078ZM6.75781 11.2422C5.97656 11.6719 5.3125 12.2578 4.80469 13C4.25781 13.7812 3.94531 14.6016 3.82812 15.5H1.25C0.898438 15.5 0.585938 15.3828 0.351562 15.1484C0.117188 14.9141 0 14.6016 0 14.25V13C0 12.3359 0.234375 11.75 0.742188 11.2422C1.21094 10.7734 1.79688 10.5 2.5 10.5H5C5.66406 10.5 6.25 10.7734 6.75781 11.2422Z" transform="translate(0 -1)" fill="#7A7C99"/>
</svg>
