<svg width="24" height="19" viewBox="0 0 24 19" fill="none" xmlns="http://www.w3.org/2000/svg">
<path opacity="0.8" d="M16.25 8C16.25 9.13281 15.8594 10.1875 15.1562 11.125C14.4141 12.1016 13.4375 12.8828 12.1875 13.4297C10.9375 13.9766 9.60938 14.25 8.125 14.25C6.5625 14.25 5.11719 13.9375 3.78906 13.2734C2.65625 13.9375 1.48438 14.25 0.3125 14.25C0.15625 14.25 0.078125 14.2109 0.0390625 14.0547C-0.0390625 13.9375 0 13.8203 0.117188 13.7031C0.195312 13.625 0.351562 13.3906 0.585938 13.0781C0.976562 12.6094 1.25 12.1016 1.48438 11.5938C0.46875 10.5391 0 9.32812 0 8C0 6.90625 0.351562 5.85156 1.09375 4.875C1.79688 3.9375 2.77344 3.15625 4.02344 2.60938C5.27344 2.0625 6.64062 1.75 8.125 1.75C9.60938 1.75 10.9375 2.0625 12.1875 2.60938C13.4375 3.15625 14.4141 3.9375 15.1562 4.875C15.8594 5.85156 16.25 6.90625 16.25 8ZM21.0156 16.5938C21.2109 17.1016 21.5234 17.6094 21.9141 18.1172C22.1094 18.4297 22.2656 18.625 22.3828 18.7031C22.4609 18.8203 22.5 18.9375 22.4609 19.0547C22.3828 19.2109 22.3047 19.25 22.1875 19.25C20.9766 19.25 19.8047 18.9375 18.7109 18.2734C17.3828 18.9375 15.9375 19.25 14.375 19.25C12.6953 19.25 11.1719 18.8984 9.84375 18.1953C8.47656 17.4922 7.5 16.5938 6.875 15.4219C7.34375 15.5 7.73438 15.5 8.125 15.5C9.80469 15.5 11.3672 15.1875 12.8125 14.4844C14.2188 13.8203 15.3516 12.9219 16.2109 11.75C17.0703 10.6172 17.5 9.36719 17.5 8C17.5 7.72656 17.4609 7.45312 17.4609 7.21875C18.9453 7.6875 20.1562 8.46875 21.0938 9.52344C22.0312 10.5781 22.5 11.75 22.5 13.0391C22.5 14.3672 21.9922 15.5391 21.0156 16.5938Z" transform="translate(1 -1)" fill="#7A7C99"/>
</svg>
