<svg width="18" height="21" viewBox="0 0 18 21" fill="none" xmlns="http://www.w3.org/2000/svg">
<path opacity="0.8" d="M16.5625 8.89844C16.9531 9.13281 17.2266 9.48438 17.3828 9.875C17.5391 10.3047 17.5391 10.7344 17.3828 11.125C17.2266 11.5547 16.9531 11.8672 16.5625 12.1016L2.8125 20.2266C2.42188 20.4609 1.99219 20.5391 1.5625 20.4609C1.09375 20.3828 0.742188 20.1875 0.429688 19.8359C0.117188 19.5234 0 19.0938 0 18.625V2.375C0 1.86719 0.15625 1.4375 0.46875 1.125C0.78125 0.8125 1.13281 0.617188 1.60156 0.539062C2.03125 0.460938 2.42188 0.539062 2.8125 0.773438L16.5625 8.89844Z" fill="#7A7C99"/>
</svg>
