<svg width="324" height="169" viewBox="0 0 324 169" fill="none" xmlns="http://www.w3.org/2000/svg">
<g opacity="0.12">
<path d="M42.0467 64.916C19.4 64.916 22.6467 106.891 0 106.891V148.508C0 157.344 7.16344 164.508 16 164.508H300C308.837 164.508 316 157.344 316 148.508V8.50762C293.88 8.50762 282.447 0.465992 263 0.00782748C244.709 -0.423098 235.606 17.068 219 20.5076C193.436 25.8026 193.727 51.3271 171.08 51.3271C148.433 51.3271 153.647 57.0076 131 57.0076C108.353 57.0076 107.353 77.4177 84.7067 77.4177C62.06 77.4177 64.6933 64.916 42.0467 64.916Z" transform="translate(4 3)" fill="url(#paint0_linear)"/>
<g filter="url(#filter0_d)">
<path d="M0 106.891C22.6467 106.891 19.4 64.916 42.0467 64.916C64.6933 64.916 62.06 77.4177 84.7067 77.4177C107.353 77.4177 108.353 57.0076 131 57.0076C153.647 57.0076 148.433 51.3271 171.08 51.3271C193.727 51.3271 193.436 25.8026 219 20.5076C235.606 17.068 244.709 -0.423098 263 0.00782748C282.447 0.465992 293.88 8.50762 316 8.50762" transform="translate(4 3)" stroke="#B0B234"/>
</g>
</g>
<defs>
<filter id="filter0_d" x="0" y="0.5" width="324" height="115.891" filterUnits="userSpaceOnUse" color-interpolation-filters="sRGB">
<feFlood flood-opacity="0" result="BackgroundImageFix"/>
<feColorMatrix in="SourceAlpha" type="matrix" values="0 0 0 0 0 0 0 0 0 0 0 0 0 0 0 0 0 0 255 0"/>
<feOffset dy="2"/>
<feGaussianBlur stdDeviation="2"/>
<feColorMatrix type="matrix" values="0 0 0 0 0.959647 0 0 0 0 0.965065 0 0 0 0 0.62371 0 0 0 1 0"/>
<feBlend mode="normal" in2="BackgroundImageFix" result="effect1_dropShadow"/>
<feBlend mode="normal" in="SourceGraphic" in2="effect1_dropShadow" result="shape"/>
</filter>
<linearGradient id="paint0_linear" x2="1" gradientUnits="userSpaceOnUse" gradientTransform="translate(316 8.50977) scale(316 156) rotate(90)">
<stop stop-color="#E8EB57"/>
<stop offset="1" stop-color="#E8EB57" stop-opacity="0"/>
</linearGradient>
</defs>
</svg>
