<svg width="324" height="160" viewBox="0 0 324 160" fill="none" xmlns="http://www.w3.org/2000/svg">
<g opacity="0.12">
<path d="M47.9267 85.8815C25.28 85.8815 22.6467 98.3833 0 98.3833V140C0 148.837 7.16344 156 16 156H300C308.837 156 316 148.837 316 140V0C293.88 0 289.627 33.615 270.18 33.1568C251.889 32.7259 243.731 24.1604 227.125 27.6C201.561 32.895 199.607 72.2927 176.96 72.2927C154.313 72.2927 158.527 57.0732 135.88 57.0732C113.233 57.0732 113.233 98.3833 90.5867 98.3833C67.94 98.3833 70.5733 85.8815 47.9267 85.8815Z" transform="translate(4 3)" fill="url(#paint0_linear)"/>
<g filter="url(#filter0_d)">
<path d="M0 98.3833C22.6467 98.3833 25.28 85.8815 47.9267 85.8815C70.5733 85.8815 67.94 98.3833 90.5867 98.3833C113.233 98.3833 113.233 57.0732 135.88 57.0732C158.527 57.0732 154.313 72.2927 176.96 72.2927C199.607 72.2927 201.561 32.895 227.125 27.6C243.731 24.1604 251.889 32.7259 270.18 33.1568C289.627 33.615 293.88 0 316 0" transform="translate(4 3)" stroke="#40CF57"/>
</g>
</g>
<defs>
<filter id="filter0_d" x="0" y="0.5" width="324" height="107.383" filterUnits="userSpaceOnUse" color-interpolation-filters="sRGB">
<feFlood flood-opacity="0" result="BackgroundImageFix"/>
<feColorMatrix in="SourceAlpha" type="matrix" values="0 0 0 0 0 0 0 0 0 0 0 0 0 0 0 0 0 0 255 0"/>
<feOffset dy="2"/>
<feGaussianBlur stdDeviation="2"/>
<feColorMatrix type="matrix" values="0 0 0 0 0.558799 0 0 0 0 0.969432 0 0 0 0 0.624845 0 0 0 1 0"/>
<feBlend mode="normal" in2="BackgroundImageFix" result="effect1_dropShadow"/>
<feBlend mode="normal" in="SourceGraphic" in2="effect1_dropShadow" result="shape"/>
</filter>
<linearGradient id="paint0_linear" x2="1" gradientUnits="userSpaceOnUse" gradientTransform="translate(316) scale(316 156) rotate(90)">
<stop stop-color="#6BD97D"/>
<stop offset="1" stop-color="#6BD97D" stop-opacity="0"/>
</linearGradient>
</defs>
</svg>
