<svg width="64" height="43" viewBox="0 0 64 43" fill="none" xmlns="http://www.w3.org/2000/svg">
<path d="M15.4483 7.718H0L1.1035 0H14.3449L15.4483 7.718Z" transform="translate(24.2754 34.1797)" fill="#464655"/>
<path d="M49.6552 35.2823H3.31038C1.48213 35.2823 0 33.8013 0 31.9745V3.30775C0 1.48095 1.48213 0 3.31038 0H49.6552C51.4834 0 52.9656 1.48095 52.9656 3.30775V31.9746C52.9656 33.8014 51.4834 35.2823 49.6552 35.2823Z" transform="translate(5.5166)" fill="#5B5D6E"/>
<path d="M52.9654 0L42.9654 10.761L32.7382 1.56413C32.5098 1.35855 32.2048 1.2605 31.8998 1.28536C31.5937 1.31333 31.3125 1.46784 31.125 1.71127L20.777 15.1542L10.6206 7.03542C10.1681 6.67533 9.51614 6.72217 9.12289 7.14583L0 16.9625V20.2029L10.042 9.39705L20.2758 17.5776C20.5086 17.7633 20.808 17.8483 21.098 17.8111C21.3923 17.7755 21.6594 17.6238 21.8405 17.389L32.1477 3.99933L42.2963 13.1257C42.7445 13.5279 43.4332 13.4988 43.8427 13.0568L52.9654 3.24005V0Z" transform="translate(5.5166 9.74609)" fill="#464655"/>
<path d="M45.2414 28.6669H1.1035C0.494125 28.6669 0 28.1732 0 27.5643V1.10262C0 0.493733 0.494125 0 1.1035 0H45.2414C45.8508 0 46.3449 0.493733 46.3449 1.10262V27.5644C46.3448 28.1733 45.8508 28.6669 45.2414 28.6669Z" transform="translate(8.82715 3.30664)" fill="white"/>
<path d="M1.1035 14.3335C0.494125 14.3335 0 13.8398 0 13.2309V1.10263C0 0.493734 0.494125 0 1.1035 0C1.71288 0 2.207 0.493734 2.207 1.10263V13.2309C2.20688 13.8399 1.71288 14.3335 1.1035 14.3335Z" transform="translate(14.3447 15.4355)" fill="#EFF2FA"/>
<path d="M1.1035 22.0515C0.494126 22.0515 0 21.5578 0 20.9489V1.10263C0 0.493734 0.494126 0 1.1035 0C1.71288 0 2.207 0.493734 2.207 1.10263V20.9489C2.207 21.5579 1.71288 22.0515 1.1035 22.0515Z" transform="translate(36.4131 7.7168)" fill="#EFF2FA"/>
<path d="M1.1035 5.513C0.494126 5.513 0 5.01927 0 4.41038V1.10263C0 0.493734 0.494126 0 1.1035 0C1.71288 0 2.207 0.493734 2.207 1.10263V4.41038C2.20688 5.01939 1.71288 5.513 1.1035 5.513Z" transform="translate(25.3789 24.2559)" fill="#EFF2FA"/>
<path d="M1.1035 11.0259C0.494126 11.0259 0 10.5321 0 9.92325V1.10263C0 0.493734 0.494126 0 1.1035 0C1.71288 0 2.207 0.493734 2.207 1.10263V9.92325C2.20688 10.5323 1.71288 11.0259 1.1035 11.0259Z" transform="translate(47.4482 18.7422)" fill="#EFF2FA"/>
<path d="M18.7586 2.20525H1.1035C0.494126 2.20525 0 1.71152 0 1.10263C0 0.493734 0.494126 0 1.1035 0H18.7586C19.368 0 19.8621 0.493734 19.8621 1.10263C19.862 1.71177 19.368 2.20525 18.7586 2.20525Z" transform="translate(22.0684 40.7949)" fill="#5B5D6E"/>
<path d="M1.10315 28.6669C0.834402 28.6669 0.565027 28.5694 0.352652 28.3722C-0.0939736 27.9579 -0.119849 27.2602 0.294902 26.814L14.6397 11.378C15.0329 10.9547 15.6864 10.9065 16.1374 11.2673L26.2938 19.3859L36.6424 5.94314C36.8297 5.69959 37.1106 5.54533 37.4166 5.51736C37.7224 5.48963 38.0268 5.5903 38.2552 5.79588L48.4822 14.9928L62.0878 0.352327C62.5023 -0.0938188 63.2005 -0.119798 63.6474 0.294623C64.094 0.70892 64.1199 1.40662 63.7051 1.85289L49.3603 17.2889C48.9502 17.7302 48.2615 17.761 47.8136 17.3582L37.6652 8.23183L27.3574 21.6212C27.1767 21.8559 26.9093 22.008 26.6151 22.0436C26.3207 22.0791 26.0247 21.9948 25.7936 21.8099L15.5595 13.6293L1.91215 28.3145C1.69465 28.5485 1.3994 28.6669 1.10315 28.6669Z" transform="translate(0 3.30664)" fill="#D7DEED"/>
<path d="M2.20688 4.41025C3.4257 4.41025 4.41375 3.42298 4.41375 2.20513C4.41375 0.987268 3.4257 0 2.20688 0C0.988052 0 0 0.987268 0 2.20513C0 3.42298 0.988052 4.41025 2.20688 4.41025Z" transform="translate(24.2754 22.0508)" fill="#C3E678"/>
<path d="M2.20688 4.41025C3.4257 4.41025 4.41375 3.42298 4.41375 2.20513C4.41375 0.987268 3.4257 0 2.20688 0C0.988052 0 0 0.987268 0 2.20513C0 3.42298 0.988052 4.41025 2.20688 4.41025Z" transform="translate(46.3447 17.6406)" fill="#FF6464"/>
<path d="M2.20688 4.41025C3.4257 4.41025 4.41375 3.42298 4.41375 2.20513C4.41375 0.987268 3.4257 0 2.20688 0C0.988052 0 0 0.987268 0 2.20513C0 3.42298 0.988052 4.41025 2.20688 4.41025Z" transform="translate(35.3105 7.71875)" fill="#FFD782"/>
<path d="M2.20688 4.41025C3.4257 4.41025 4.41375 3.42298 4.41375 2.20513C4.41375 0.987268 3.4257 0 2.20688 0C0.988052 0 0 0.987268 0 2.20513C0 3.42298 0.988052 4.41025 2.20688 4.41025Z" transform="translate(13.2412 13.2305)" fill="#465EDB"/>
<path d="M45.2414 0H1.1035C0.494125 0 0 0.493733 0 1.10262V3.30775C0 2.69886 0.494125 2.20513 1.1035 2.20513H45.2414C45.8508 2.20513 46.3449 2.69886 46.3449 3.30775V1.10262C46.3448 0.493733 45.8508 0 45.2414 0Z" transform="translate(8.82715 3.30664)" fill="#EFF2FA"/>
</svg>
