<svg width="64" height="56" viewBox="0 0 64 56" fill="none" xmlns="http://www.w3.org/2000/svg">
<path d="M60 0H4C1.796 0 0 1.79608 0 4.00019V40.0019C0 42.2099 1.796 44.002 4 44.002H60C62.208 44.002 64 42.2099 64 40.0019V4.00019C64 1.79608 62.208 0 60 0Z" transform="translate(0 11.998)" fill="#AFB9D2"/>
<path d="M64 0H0V12.0006H64V0Z" transform="translate(0 20)" fill="#5B5D6E"/>
<path d="M10 4.00019H2C0.896 4.00019 0 3.10414 0 2.00009C0 0.896041 0.896 0 2 0H10C11.104 0 12 0.896041 12 2.00009C12 3.10414 11.104 4.00019 10 4.00019Z" transform="translate(8 40)" fill="#FAFAFA"/>
<path d="M36 19.7849V4.00019C36 1.79608 34.208 0 32 0H0V4.00019C0 16.5288 4.768 24.1571 17.024 31.2134C17.928 31.7295 18.96 32.0015 20 32.0015C21.04 32.0015 22.072 31.7295 22.988 31.2054C29.052 27.7213 33.276 24.0851 36 19.7849Z" transform="translate(28 12)" fill="#FAFAFA"/>
<path d="M30.788 6.16229L16.788 0.162008C16.28 -0.0540025 15.716 -0.0540025 15.208 0.162008L1.208 6.16229C0.476 6.4743 0 7.19833 0 7.99837V15.9987C0 27.0033 4.068 33.4356 15.004 39.7358C15.312 39.9118 15.656 39.9999 16 39.9999C16.344 39.9999 16.688 39.9118 16.996 39.7358C27.932 33.4516 32 27.0193 32 15.9987V7.99837C32 7.19833 31.524 6.4743 30.788 6.16229Z" transform="translate(32)" fill="#C3E678"/>
<path d="M5.8183 10.138C5.44608 10.138 5.07369 9.99662 4.78979 9.71394L0.426103 5.36903C-0.142034 4.80351 -0.142034 3.88655 0.426103 3.32102C0.994076 2.7555 1.91499 2.7555 2.48297 3.32102L5.8183 6.64151L12.0625 0.424146C12.6305 -0.141382 13.5514 -0.141382 14.1194 0.424146C14.6875 0.989675 14.6875 1.90663 14.1194 2.47216L6.84665 9.71361C6.56275 9.99662 6.19036 10.138 5.8183 10.138Z" transform="translate(41 15)" fill="white"/>
</svg>
