<svg width="64" height="64" viewBox="0 0 64 64" fill="none" xmlns="http://www.w3.org/2000/svg">
<path d="M58.1818 0H5.81822C2.60931 0 0 2.60931 0 5.81822V58.1818C0 61.3905 2.60931 64 5.81822 64H58.1818C61.3905 64 64 61.3907 64 58.1818V5.81822C63.9999 2.60931 61.3905 0 58.1818 0Z" fill="#AFB9D2"/>
<path d="M2.90918 0H55.2727C56.8764 0 58.1818 1.30541 58.1818 2.90904V8.72726H0V2.90918C0 1.30541 1.30541 0 2.90918 0Z" transform="translate(2.90918 2.91016)" fill="#C7CFE2"/>
<path d="M55.2726 46.5453H2.90904C1.30541 46.5453 0 45.2399 0 43.6363V0H58.1816V43.6363C58.1816 45.2399 56.8762 46.5453 55.2726 46.5453Z" transform="translate(2.90918 14.5469)" fill="white"/>
<path d="M1.45459 2.90918C2.25794 2.90918 2.90918 2.25794 2.90918 1.45459C2.90918 0.651242 2.25794 0 1.45459 0C0.651242 0 0 0.651242 0 1.45459C0 2.25794 0.651242 2.90918 1.45459 2.90918Z" transform="translate(5.81787 5.81836)" fill="#EB5757"/>
<path d="M1.45459 2.90918C2.25794 2.90918 2.90918 2.25794 2.90918 1.45459C2.90918 0.651242 2.25794 0 1.45459 0C0.651242 0 0 0.651242 0 1.45459C0 2.25794 0.651242 2.90918 1.45459 2.90918Z" transform="translate(11.6367 5.81836)" fill="#F2C94C"/>
<path d="M1.45459 2.90918C2.25794 2.90918 2.90918 2.25794 2.90918 1.45459C2.90918 0.651242 2.25794 0 1.45459 0C0.651243 0 0 0.651242 0 1.45459C0 2.25794 0.651243 2.90918 1.45459 2.90918Z" transform="translate(17.4546 5.81836)" fill="#6FCF97"/>
<path d="M7.27281 11.6364H2.90918V1.45459C2.90918 0.650591 2.25859 0 1.45459 0C0.650589 0 0 0.650591 0 1.45459V13.0909C0 13.8949 0.650589 14.5455 1.45459 14.5455H7.27281C8.07681 14.5455 8.7274 13.8949 8.7274 13.0909C8.7274 12.2869 8.07681 11.6364 7.27281 11.6364Z" transform="translate(39.2725 19.9531)" fill="#5B5D6E"/>
<path d="M4.36363 2.90918H7.27267C8.07667 2.90918 8.72726 2.25859 8.72726 1.45459C8.72726 0.650591 8.07667 0 7.27267 0H4.36363C1.95736 0 0 1.95736 0 4.36363C0 6.7699 1.95736 8.72726 4.36363 8.72726C5.16613 8.72726 5.81822 9.37922 5.81822 10.1819C5.81822 10.9843 5.16626 11.6364 4.36363 11.6364H1.45459C0.65059 11.6364 0 12.287 0 13.091C0 13.895 0.65059 14.5455 1.45459 14.5455H4.36363C6.7699 14.5455 8.72726 12.5881 8.72726 10.1819C8.72726 7.77558 6.7699 5.81822 4.36363 5.81822C3.56113 5.81822 2.90904 5.16627 2.90904 4.36363C2.90918 3.56113 3.56113 2.90918 4.36363 2.90918Z" transform="translate(16 19.9531)" fill="#5B5D6E"/>
<path d="M4.36363 2.90918H7.27267C8.07667 2.90918 8.72726 2.25859 8.72726 1.45459C8.72726 0.650591 8.07667 0 7.27267 0H4.36363C1.95736 0 0 1.95736 0 4.36363C0 6.7699 1.95736 8.72726 4.36363 8.72726C5.16613 8.72726 5.81822 9.37922 5.81822 10.1819C5.81822 10.9843 5.16627 11.6364 4.36363 11.6364H1.45459C0.650589 11.6364 0 12.287 0 13.091C0 13.895 0.650588 14.5455 1.45445 14.5455H4.36349C6.76976 14.5455 8.72712 12.5881 8.72712 10.1819C8.72712 7.77558 6.76976 5.81822 4.36349 5.81822C3.56099 5.81822 2.9089 5.16627 2.9089 4.36363C2.90904 3.56113 3.56099 2.90918 4.36363 2.90918Z" transform="translate(27.6367 19.9531)" fill="#5B5D6E"/>
<path d="M7.27281 11.6364H2.90918V1.45459C2.90918 0.650591 2.25859 0 1.45459 0C0.650589 0 0 0.650591 0 1.45459V13.0909C0 13.8949 0.650589 14.5455 1.45459 14.5455H7.27281C8.07681 14.5455 8.7274 13.8949 8.7274 13.0909C8.7274 12.2869 8.07681 11.6364 7.27281 11.6364Z" transform="translate(27.8589 41.0352)" fill="#5B5D6E"/>
<path d="M8.02575 11.6365C7.22175 11.6365 6.21176 11.6364 6.21176 11.6364V1.45459C6.21176 0.650591 5.56117 0 4.75717 0C3.95317 0 3.30258 0.650591 3.30258 1.45459V11.6364L1.50571 11.6365C0.564706 11.6364 0 12.2869 0 13.0909C0 13.8949 0.701709 14.5455 1.50571 14.5455H8.02575C8.82975 14.5455 9.48034 13.8949 9.48034 13.0909C9.48034 12.2869 8.82975 11.6365 8.02575 11.6365Z" transform="translate(24.9155 55.5801) rotate(180)" fill="#5B5D6E"/>
<path d="M4.36363 2.90918H7.27267C8.07667 2.90918 8.72726 2.25859 8.72726 1.45459C8.72726 0.650591 8.07667 0 7.27267 0H4.36363C1.95736 0 0 1.95736 0 4.36363C0 6.7699 1.95736 8.72726 4.36363 8.72726C5.16613 8.72726 5.81822 9.37922 5.81822 10.1819C5.81822 10.9843 5.16627 11.6364 4.36363 11.6364H1.45459C0.650589 11.6364 0 12.287 0 13.091C0 13.895 0.650588 14.5455 1.45445 14.5455H4.36349C6.76976 14.5455 8.72712 12.5881 8.72712 10.1819C8.72712 7.77558 6.76976 5.81822 4.36349 5.81822C3.56099 5.81822 2.9089 5.16627 2.9089 4.36363C2.90904 3.56113 3.56099 2.90918 4.36363 2.90918Z" transform="translate(39.1528 41.0352)" fill="#5B5D6E"/>
</svg>
