<svg width="16" height="15" viewBox="0 0 16 15" fill="none" xmlns="http://www.w3.org/2000/svg">
<path opacity="0.8" d="M7.08203 0.242188C7.19141 0.0234375 7.32812 -0.113281 7.54688 -0.195312C7.76562 -0.25 7.95703 -0.25 8.17578 -0.195312C8.39453 -0.113281 8.55859 0.0234375 8.66797 0.242188L10.4453 3.85156L14.4375 4.42578C14.6562 4.48047 14.8477 4.58984 14.9844 4.75391C15.1211 4.94531 15.1758 5.13672 15.1758 5.35547C15.1758 5.57422 15.0938 5.76562 14.9297 5.92969L12.0312 8.74609L12.7148 12.7383C12.7422 12.957 12.6875 13.1758 12.5781 13.3672C12.4688 13.5586 12.3047 13.668 12.0859 13.7227C11.8672 13.7773 11.6484 13.75 11.457 13.6406L7.875 11.7812L4.29297 13.6406C4.07422 13.75 3.88281 13.7773 3.66406 13.7227C3.44531 13.668 3.25391 13.5586 3.14453 13.3672C3.03516 13.1758 2.98047 12.957 3.03516 12.7383L3.71875 8.74609L0.820312 5.92969C0.65625 5.76562 0.546875 5.57422 0.546875 5.35547C0.546875 5.13672 0.601562 4.94531 0.738281 4.75391C0.875 4.58984 1.06641 4.48047 1.3125 4.42578L5.30469 3.85156L7.08203 0.242188Z" transform="translate(0 1)" fill="#FFD143"/>
</svg>
