<svg width="56" height="56" viewBox="0 0 56 56" fill="none" xmlns="http://www.w3.org/2000/svg">
<path d="M28 17.625C30.5 17.625 32.875 18.375 35.125 19.625C37.375 20.875 39.125 22.625 40.375 24.875C41.625 27.125 42.375 29.5 42.375 32C42.375 34.625 41.625 37 40.375 39.25C39.125 41.5 37.375 43.25 35.125 44.5C32.875 45.75 30.5 46.375 28 46.375C25.375 46.375 23 45.75 20.75 44.5C18.5 43.25 16.75 41.5 15.5 39.25C14.25 37 13.625 34.625 13.625 32C13.625 29.5 14.25 27.125 15.5 24.875C16.75 22.625 18.5 20.875 20.75 19.625C23 18.375 25.375 17.625 28 17.625ZM28 41.375C30.5 41.375 32.75 40.5 34.625 38.625C36.375 36.875 37.375 34.625 37.375 32C37.375 29.5 36.375 27.25 34.625 25.375C32.75 23.625 30.5 22.625 28 22.625C25.375 22.625 23.125 23.625 21.375 25.375C19.5 27.25 18.625 29.5 18.625 32C18.625 34.625 19.5 36.875 21.375 38.625C23.125 40.5 25.375 41.375 28 41.375ZM46.375 17C46.375 16.125 46 15.375 45.375 14.625C44.625 14 43.875 13.625 43 13.625C42 13.625 41.25 14 40.625 14.625C39.875 15.375 39.625 16.125 39.625 17C39.625 18 39.875 18.75 40.625 19.375C41.25 20.125 42 20.375 43 20.375C43.875 20.375 44.625 20.125 45.25 19.375C45.875 18.75 46.25 18 46.375 17ZM55.875 20.375C55.875 22.75 56 26.625 56 32C56 37.5 55.875 41.375 55.75 43.75C55.625 46.125 55.25 48.125 54.75 49.875C54 52 52.75 53.875 51.25 55.375C49.75 56.875 47.875 58 45.875 58.75C44.125 59.375 42 59.75 39.625 59.875C37.25 60 33.375 60 28 60C22.5 60 18.625 60 16.25 59.875C13.875 59.75 11.875 59.375 10.125 58.625C8 58 6.125 56.875 4.625 55.375C3.125 53.875 2 52 1.25 49.875C0.625 48.125 0.25 46.125 0.125 43.75C0 41.375 0 37.5 0 32C0 26.625 0 22.75 0.125 20.375C0.25 18 0.625 15.875 1.25 14.125C2 12.125 3.125 10.25 4.625 8.75C6.125 7.25 8 6 10.125 5.25C11.875 4.75 13.875 4.375 16.25 4.25C18.625 4.125 22.5 4 28 4C33.375 4 37.25 4.125 39.625 4.25C42 4.375 44.125 4.75 45.875 5.25C47.875 6 49.75 7.25 51.25 8.75C52.75 10.25 54 12.125 54.75 14.125C55.25 15.875 55.625 18 55.875 20.375ZM49.875 48.5C50.375 47.125 50.625 44.875 50.875 41.75C50.875 40 51 37.375 51 34V30C51 26.625 50.875 24 50.875 22.25C50.625 19.125 50.375 16.875 49.875 15.5C48.875 13 47 11.125 44.5 10.125C43.125 9.625 40.875 9.375 37.75 9.125C35.875 9.125 33.25 9 30 9H26C22.625 9 20 9.125 18.25 9.125C15.125 9.375 12.875 9.625 11.5 10.125C8.875 11.125 7.125 13 6.125 15.5C5.625 16.875 5.25 19.125 5.125 22.25C5 24.125 5 26.75 5 30V34C5 37.375 5 40 5.125 41.75C5.25 44.875 5.625 47.125 6.125 48.5C7.125 51.125 9 52.875 11.5 53.875C12.875 54.375 15.125 54.75 18.25 54.875C20 55 22.625 55 26 55H30C33.375 55 36 55 37.75 54.875C40.875 54.75 43.125 54.375 44.5 53.875C47 52.875 48.875 51 49.875 48.5Z" transform="translate(0 -4)" fill="white"/>
</svg>
