<svg width="68" height="40" viewBox="0 0 68 40" fill="none" xmlns="http://www.w3.org/2000/svg">
<path d="M68.125 14.75C67.875 16 66.875 18.125 65.125 21C63.875 23.125 62.375 25.5 60.625 28.25C59.125 30.5 58.25 31.625 58.25 31.625C57.75 32.375 57.5 33 57.5 33.375C57.5 33.875 57.75 34.375 58.25 34.875L59.375 36.125C65.375 42.375 68.75 46.625 69.5 48.875C69.75 49.875 69.625 50.75 69.125 51.25C68.625 51.75 68 52 67 52H59.625C58.625 52 57.875 51.75 57.125 51.125C56.625 50.875 55.625 50 54.375 48.5C53.125 47 52 45.75 51 44.75C47.625 41.625 45.125 40 43.625 40C42.875 40 42.375 40.125 42.125 40.375C41.875 40.625 41.75 41.25 41.75 42C41.625 42.625 41.625 43.875 41.625 45.875V49.125C41.625 50.125 41.375 50.875 40.875 51.25C40.125 51.75 38.625 52 36.375 52C32.375 52 28.5 50.875 24.5 48.5C20.5 46.25 17 42.875 14 38.5C11.125 34.75 8.75 30.875 6.875 26.875C5.375 23.875 4.125 21.125 3.25 18.5C2.625 16.5 2.375 15 2.375 14.125C2.375 12.75 3.125 12 4.875 12H12.25C13.125 12 13.75 12.25 14.25 12.625C14.75 13.125 15.125 13.875 15.5 14.875C16.625 18.25 18 21.5 19.75 24.625C21.25 27.625 22.75 30 24.25 31.75C25.75 33.625 26.875 34.5 27.75 34.5C28.25 34.5 28.5 34.375 28.75 34C29 33.625 29.125 32.875 29.125 31.75V20.875C29 19.625 28.75 18.375 28.25 17.375C28 16.875 27.5 16.25 27 15.5C26.375 14.75 26.125 14.25 26.125 13.75C26.125 13.25 26.25 12.875 26.625 12.5C27 12.25 27.5 12 28 12H39.625C40.375 12 40.875 12.25 41.125 12.625C41.375 13.125 41.625 13.75 41.625 14.75V29.25C41.625 30 41.75 30.625 42 30.875C42.25 31.25 42.5 31.375 42.875 31.375C43.25 31.375 43.75 31.25 44.25 31C44.75 30.75 45.375 30.125 46.25 29.125C47.75 27.375 49.375 25.25 51 22.625C52 20.875 53.125 18.875 54.125 16.625L55.375 14.125C55.875 12.75 57 12 58.5 12H65.875C67.875 12 68.625 13 68.125 14.75Z" transform="translate(-2 -12)" fill="white"/>
</svg>
