<svg width="57" height="48" viewBox="0 0 57 48" fill="none" xmlns="http://www.w3.org/2000/svg">
<path d="M55.875 12.375C56.125 10.625 56 9.5 55.25 8.75C54.5 8 53.5 7.875 52.25 8.25L2.625 27.375C0.875 28.125 0 28.875 0 29.625C-0.125 30.5 0.5 31.125 2 31.5L14.75 35.5L44.25 16.875C44.625 16.625 45 16.5 45.375 16.5C45.75 16.5 46 16.5 46.125 16.75C46.25 17 46.125 17.125 45.875 17.375L22 39L21 52.125C21.625 52.125 22.125 52 22.625 51.75C22.875 51.625 23.125 51.375 23.625 50.875L29.875 44.875L42.75 54.375C43.875 55.125 44.875 55.25 45.625 54.875C46.375 54.5 47 53.625 47.375 52.125L55.875 12.375Z" transform="translate(1 -8)" fill="white"/>
</svg>
