<svg width="64" height="52" viewBox="0 0 64 52" fill="none" xmlns="http://www.w3.org/2000/svg">
<path d="M57.375 19C59.875 17.125 62.125 14.875 64 12.125C61.5 13.25 59 14 56.5 14.25C59.25 12.5 61.25 10.125 62.25 7C59.625 8.5 56.875 9.625 53.875 10.125C52.625 8.875 51.125 7.875 49.5 7.125C47.875 6.375 46.125 6 44.25 6C41.875 6 39.75 6.625 37.75 7.75C35.75 9 34.125 10.625 33 12.625C31.75 14.625 31.25 16.875 31.25 19.125C31.25 20.125 31.25 21.125 31.5 22.125C26.125 21.875 21.125 20.625 16.375 18.125C11.625 15.75 7.75 12.5 4.5 8.375C3.25 10.5 2.625 12.75 2.625 15C2.625 17.25 3.125 19.375 4.25 21.25C5.25 23.25 6.75 24.75 8.5 26C6.375 26 4.375 25.375 2.625 24.25V24.5C2.625 27.625 3.625 30.375 5.625 32.75C7.625 35.25 10.125 36.75 13.125 37.375C11.875 37.625 10.75 37.75 9.625 37.75C8.875 37.75 8 37.75 7.25 37.625C8 40.25 9.5 42.375 11.75 44.125C14 45.875 16.5 46.625 19.5 46.625C14.625 50.375 9.125 52.25 3.125 52.25C1.875 52.25 0.875 52.25 0 52.125C6 56.125 12.75 58 20.125 58C27.75 58 34.5 56.125 40.5 52.125C45.875 48.625 50.125 44 53.125 38C56 32.5 57.5 26.625 57.5 20.625C57.5 19.875 57.375 19.375 57.375 19Z" transform="translate(0 -6)" fill="white"/>
</svg>
