<svg width="80" height="36" viewBox="0 0 80 36" fill="none" xmlns="http://www.w3.org/2000/svg">
<path d="M13.875 32C13.875 31.75 13.625 31.5 13.375 31.5C13 31.5 12.875 31.75 12.875 32L12.125 40.125L12.875 48.75C12.875 49.125 13 49.25 13.375 49.25C13.625 49.25 13.875 49.125 13.875 48.75L14.625 40.125L13.875 32ZM16.625 26.375C16.75 26.375 16.875 26.5 17 26.625C17.125 26.75 17.25 26.875 17.25 27L17.875 40.125L17.25 48.75C17.25 49 17.125 49.125 17 49.25C16.875 49.375 16.75 49.375 16.625 49.375C16.125 49.375 16 49.25 16 48.75L15.375 40.125L16 27C16 26.625 16.125 26.375 16.625 26.375ZM19.75 23.375C19.875 23.375 20 23.5 20.25 23.625C20.375 23.75 20.5 23.875 20.5 24L21.125 40.25L20.5 48.75C20.5 49 20.375 49.125 20.25 49.25C20 49.375 19.875 49.375 19.75 49.375C19.25 49.375 19.125 49.25 19.125 48.75L18.5 40.25L19.125 24C19.125 23.625 19.25 23.375 19.75 23.375ZM0.875 35.375C1 35.375 1.125 35.5 1.25 35.75L1.875 40.125L1.25 44.5C1.125 44.75 1 44.875 0.875 44.875C0.625 44.875 0.625 44.75 0.625 44.5L0 40.125L0.625 35.75C0.625 35.5 0.625 35.375 0.875 35.375ZM3.875 32.625C4 32.625 4.125 32.75 4.25 33L5.125 40.125L4.25 47.25C4.125 47.5 4 47.5 3.75 47.5C3.5 47.5 3.5 47.375 3.5 47.125L2.75 40.125L3.5 33C3.5 32.75 3.625 32.625 3.875 32.625ZM7 31.25C7.25 31.25 7.375 31.375 7.375 31.625L8.25 40.125L7.375 48.375C7.375 48.625 7.25 48.75 7 48.75C6.75 48.75 6.625 48.625 6.625 48.375L5.875 40.125L6.625 31.625C6.625 31.375 6.75 31.25 7 31.25ZM10.125 31C10.375 31 10.625 31.125 10.625 31.375L11.5 40.125L10.625 48.625C10.625 49 10.375 49.125 10.125 49.125C9.875 49.125 9.75 49 9.75 48.625L9 40.125L9.75 31.375C9.75 31.125 9.875 31 10.125 31ZM40.375 17.125C40.625 17.375 40.875 17.625 40.875 18L41.375 40.125L40.875 48.25C40.875 48.5 40.75 48.75 40.5 49C40.25 49.25 40 49.25 39.75 49.25C39.5 49.25 39.25 49.25 39 49C38.75 48.75 38.75 48.5 38.75 48.25L38.25 40.125L38.75 18C38.75 17.75 38.75 17.5 39 17.25C39.25 17 39.5 16.875 39.75 16.875C40 16.875 40.125 17 40.375 17.125ZM37 19C37.25 19.25 37.5 19.5 37.5 19.875L37.875 40.25L37.5 48.375C37.5 48.625 37.375 48.875 37.125 49.125C36.875 49.375 36.625 49.375 36.375 49.375C36.125 49.375 35.875 49.375 35.75 49.125C35.5 48.875 35.5 48.625 35.5 48.375L35.125 40.125L35.5 19.875C35.5 19.5 35.625 19.25 35.875 19.125C36.125 19 36.25 18.875 36.5 18.875C36.625 18.875 36.75 19 37 19ZM23.125 21.875C23.25 21.875 23.375 22 23.625 22.125C23.75 22.25 23.875 22.375 23.875 22.625L24.5 40.125L23.875 48.5C23.75 49 23.5 49.25 23 49.25C22.5 49.25 22.375 49 22.375 48.5L21.875 40.125L22.375 22.625C22.375 22.375 22.375 22.25 22.5 22.125C22.625 22 22.875 21.875 23.125 21.875ZM70.125 29.625C72.875 29.625 75.125 30.625 77.125 32.625C79 34.625 80 36.875 80 39.625C80 42.375 79 44.625 77.125 46.5C75.125 48.5 72.875 49.375 70.125 49.375H42.875C42.5 49.375 42.25 49.25 42 49C41.75 48.75 41.75 48.5 41.75 48.125V17C41.75 16.75 41.75 16.5 42 16.25C42.125 16.125 42.375 16 42.75 15.75C44.75 15 46.875 14.625 49.125 14.625C52 14.625 54.75 15.375 57.25 16.75C59.75 18.25 61.875 20.125 63.5 22.5C65.125 25 66.125 27.625 66.375 30.375C67.625 29.875 68.875 29.625 70.125 29.625ZM33.125 22.125C33.625 22.125 34 22.5 34 23.125L34.5 40.25L34 48.375C34 48.625 33.875 48.875 33.75 49.125C33.5 49.375 33.375 49.375 33.125 49.375C32.875 49.375 32.625 49.375 32.375 49.125C32.125 48.875 32.125 48.625 32.125 48.375L31.75 40.25L32.125 23.125C32.125 22.875 32.125 22.75 32.375 22.5C32.625 22.25 32.875 22.125 33.125 22.125ZM26.375 21.125C26.625 21.125 26.75 21.25 27 21.375C27.125 21.625 27.25 21.75 27.25 22L27.75 40.125L27.25 48.5C27.125 49.125 26.875 49.375 26.375 49.375C26.125 49.375 26 49.375 25.875 49.125C25.625 49 25.625 48.75 25.625 48.5L25.125 40.125L25.625 22C25.625 21.75 25.625 21.625 25.875 21.375C26 21.25 26.125 21.125 26.375 21.125ZM29.75 21.625C30 21.625 30.125 21.75 30.375 21.875C30.5 22.125 30.625 22.25 30.625 22.5L31.125 40.125L30.625 48.5C30.625 48.75 30.5 49 30.375 49.125C30.125 49.375 30 49.375 29.75 49.375C29.125 49.375 28.875 49.125 28.875 48.5L28.375 40.125L28.875 22.5C28.875 22.25 28.875 22.125 29.125 21.875C29.25 21.75 29.5 21.625 29.75 21.625Z" transform="translate(0 -14)" fill="white"/>
</svg>
