<svg width="56" height="56" viewBox="0 0 56 56" fill="none" xmlns="http://www.w3.org/2000/svg">
<path d="M56 7.125C56 6.25 55.625 5.5 55 4.875C54.375 4.375 53.625 4 52.875 4H3.125C2.125 4 1.375 4.375 0.875 4.875C0.25 5.5 0 6.25 0 7.125V56.875C0 57.75 0.25 58.5 0.875 59.125C1.375 59.75 2.125 60 3.125 60H29.875V38.25H22.625V29.875H29.875V23.625C29.875 20.125 30.875 17.375 32.875 15.375C34.875 13.5 37.5 12.5 40.75 12.5C43.25 12.5 45.5 12.625 47.25 12.75V20.375H42.75C41.125 20.375 40 20.75 39.375 21.5C38.875 22.125 38.625 23.125 38.625 24.5V29.875H47L45.875 38.25H38.625V60H52.875C53.75 60 54.5 59.75 55.125 59.125C55.625 58.5 56 57.75 56 56.875V7.125Z" transform="translate(0 -4)" fill="white"/>
</svg>
