<svg width="1440" height="236" viewBox="0 0 1440 236" fill="none" xmlns="http://www.w3.org/2000/svg">
<path fill-rule="evenodd" clip-rule="evenodd" d="M4.23297e-06 235.087L0 92.187C0 92.187 10.3407 86.0427 34.9562 76.8801C84.0037 58.6233 148.172 40.1862 207.05 40.6035C258.604 40.9689 295.342 56.0756 330.823 70.665L332.008 71.1523C368.058 85.9729 402.984 100.097 452.152 99.7395C512.108 99.303 544.02 76.9612 577.01 53.7976L577.151 53.6985C609.774 30.7926 643.515 7.10116 707.182 6.99843C759.684 6.91372 796.382 22.6093 832.004 37.9853L832.727 38.2973C868.304 53.6549 902.919 68.5968 952.285 69.3817C1007.89 70.2659 1042.28 55.0862 1077.33 38.4354C1078.88 37.699 1080.43 36.9597 1081.99 36.2189C1115.43 20.2786 1150.37 3.62682 1205.27 0.591669C1253.92 -2.09819 1292.29 4.84207 1330.15 12.1508C1331.78 12.4638 1333.4 12.7775 1335.02 13.0911C1371.26 20.1055 1394.5 27.0969 1440 26.5081C1440 21.5486 1440 235.087 1440 235.087H4.23297e-06Z" fill="#D1DAE1"/>
<path fill-rule="evenodd" clip-rule="evenodd" d="M0 223.764V146.637C0 146.637 44.3917 95.8647 107.92 91.6641C160.308 88.2001 197.94 101.501 234.478 114.552L235.219 114.817C271.711 127.853 307.216 140.536 356.531 138.141C412.076 135.444 445.423 118.082 479.326 99.21C480.825 98.3754 482.326 97.5379 483.829 96.6985C516.181 78.6384 549.976 59.772 604.563 53.2096C652.941 47.3937 691.676 51.85 729.932 56.7063C731.571 56.9143 733.208 57.1229 734.846 57.3315C771.465 61.9986 807.964 66.6503 853.33 63.134C901.166 59.4264 935.469 48.0539 969.746 36.6904C971.774 36.0184 973.801 35.3463 975.83 34.6759C1012.13 22.6859 1049.2 11.2623 1102.23 10.4331C1152.32 9.64995 1189.2 21.4727 1224.58 32.8136C1225.96 33.2575 1227.35 33.7008 1228.73 34.1425C1265.53 45.914 1301.26 56.6413 1350.36 53.1794C1408.88 49.0542 1408.5 25.1798 1440 0.632812V0V223.764H0Z" transform="translate(0 11.3228)" fill="#E6ECF2"/>
</svg>
