<svg width="20" height="20" viewBox="0 0 20 20" fill="none" xmlns="http://www.w3.org/2000/svg">
<path fill-rule="evenodd" clip-rule="evenodd" d="M2 9C2 5.13379 5.13403 2 9 2C12.866 2 16 5.13379 16 9C16 10.8848 15.255 12.5962 14.0435 13.8545C14.0084 13.8813 13.975 13.9106 13.9429 13.9429C13.9109 13.9751 13.881 14.0083 13.8542 14.0435C12.5957 15.2549 10.8848 16 9 16C5.13403 16 2 12.8662 2 9ZM14.6178 16.0317C13.0781 17.2632 11.1251 18 9 18C4.02942 18 0 13.9707 0 9C0 4.0293 4.02942 0 9 0C13.9706 0 18 4.0293 18 9C18 11.125 17.2635 13.0781 16.0319 14.6177L19.7072 18.293C20.0977 18.6831 20.0977 19.3164 19.7072 19.707C19.3166 20.0977 18.6835 20.0977 18.2929 19.707L14.6178 16.0317Z" fill="#ADC0DB"/>
</svg>
