<svg width="40" height="40" viewBox="0 0 40 40" fill="none" xmlns="http://www.w3.org/2000/svg">
<circle cx="20" cy="20" r="20" fill="#4E76A1" fill-opacity="0.2"/>
<path fill-rule="evenodd" clip-rule="evenodd" d="M17.2129 7.19661C17.8763 7.84433 18.5765 8.45374 19.1715 9.16678C19.4344 9.48364 19.6832 9.81062 19.8736 10.1783C20.1433 10.7011 19.899 11.2763 19.4303 11.3075L16.5166 11.3062C15.7652 11.3686 15.1657 11.066 14.6616 10.5522C14.2582 10.1413 13.8846 9.70404 13.4967 9.27928C13.3377 9.10567 13.1713 8.94231 12.9724 8.81318C12.5747 8.555 12.2294 8.63405 12.0021 9.04889C11.7706 9.47083 11.7181 9.93804 11.6954 10.4083C11.6642 11.0944 11.4568 11.2747 10.7676 11.3062C9.29473 11.3756 7.89691 11.1528 6.59838 10.4098C5.45355 9.75477 4.56579 8.83007 3.79308 7.78322C2.28861 5.74478 1.13649 3.50486 0.101007 1.20219C-0.132072 0.683401 0.0383835 0.404915 0.610798 0.395059C1.56132 0.376594 2.51171 0.377908 3.46334 0.393744C3.84966 0.399396 4.10541 0.620975 4.25458 0.985938C4.76884 2.25043 5.39809 3.45348 6.18794 4.5686C6.39829 4.86549 6.61277 5.16237 6.9182 5.37134C7.25609 5.60271 7.51335 5.52602 7.67231 5.14963C7.77317 4.91096 7.81733 4.6539 7.84007 4.39828C7.91537 3.51886 7.92529 2.64095 7.79321 1.76462C7.71213 1.2177 7.40407 0.863648 6.85834 0.760153C6.57985 0.707386 6.62131 0.603759 6.75615 0.444802C6.99035 0.170653 7.21062 -8.82359e-08 7.6497 -8.82359e-08H10.9426C11.461 0.102313 11.5761 0.335195 11.6471 0.856814L11.6499 4.51452C11.6442 4.71645 11.7508 5.31568 12.1145 5.44934C12.4056 5.54449 12.5975 5.3116 12.7721 5.12702C13.5605 4.29025 14.1232 3.30135 14.6259 2.27737C14.849 1.82711 15.0408 1.35951 15.2267 0.892299C15.3644 0.545604 15.5806 0.375016 15.9711 0.382573L19.1403 0.385399C19.2343 0.385399 19.3294 0.386779 19.4204 0.402353C19.9544 0.493363 20.1007 0.723091 19.9358 1.24458C19.6759 2.06275 19.1703 2.74458 18.6759 3.42956C18.1473 4.16086 17.5821 4.86713 17.058 5.60277C16.5764 6.27454 16.6147 6.61316 17.2129 7.19661Z" transform="translate(10 14)" fill="#4E76A1"/>
</svg>
