<svg width="40" height="40" viewBox="0 0 40 40" fill="none" xmlns="http://www.w3.org/2000/svg">
<circle cx="20" cy="20" r="20" fill="#FC0D1B" fill-opacity="0.2"/>
<path d="M19.2205 1.20824C18.4985 0.350039 17.1656 -1.00136e-07 14.6201 -1.00136e-07H5.37973C2.77594 -1.00136e-07 1.42043 0.372656 0.701211 1.28633C0 2.17711 0 3.48969 0 5.30637V8.76887C0 12.2883 0.831992 14.0752 5.37973 14.0752H14.6201C16.8276 14.0752 18.0508 13.7663 18.8422 13.0089C19.6537 12.2323 20 10.9642 20 8.76887V5.30637C20 3.39055 19.9457 2.07023 19.2205 1.20824ZM12.8401 7.51562L8.64406 9.70859C8.55027 9.75762 8.44766 9.78195 8.34523 9.78195C8.22922 9.78195 8.11348 9.75074 8.01098 9.68867C7.81793 9.57172 7.70008 9.36246 7.70008 9.1368V4.76492C7.70008 4.53965 7.81762 4.33059 8.01027 4.21355C8.20297 4.09652 8.44266 4.08852 8.64258 4.19238L12.8386 6.37121C13.0521 6.48203 13.1861 6.70242 13.1864 6.94289C13.1867 7.18359 13.0532 7.4043 12.8401 7.51562Z" transform="translate(10 13)" fill="#FC0D1B"/>
</svg>
