<svg width="67" height="67" viewBox="0 0 67 67" fill="none" xmlns="http://www.w3.org/2000/svg">
<g filter="url(#filter0_d)">
<path d="M29.4997 59C45.7919 59 58.9993 45.7924 58.9993 29.5C58.9993 13.2076 45.7919 0 29.4997 0C13.2074 0 0 13.2076 0 29.5C0 45.7924 13.2074 59 29.4997 59Z" transform="translate(4)" fill="#41B4E6"/>
<path d="M14.3314 18.6613L27.6629 28.7268L34.3925 7.03343e-08L4.29034e-07 13.5286L10.4652 16.995L29.5645 4.18352L14.3314 18.6613Z" transform="translate(16.3037 15.137)" fill="white"/>
<path d="M-2.95401e-07 12.8114L2.86622 23.1255L3.86611 14.4778L19.0993 1.68802e-07L-2.95401e-07 12.8114Z" transform="translate(26.7689 19.3205)" fill="#D2D2D7"/>
<path d="M5.3327 3.27131L-1.688e-07 8.64775L0.999889 -1.40669e-06L5.3327 3.27131Z" transform="translate(29.6351 33.7983)" fill="#B9B9BE"/>
</g>
<defs>
<filter id="filter0_d" x="0" y="0" width="66.9993" height="67" filterUnits="userSpaceOnUse" color-interpolation-filters="sRGB">
<feFlood flood-opacity="0" result="BackgroundImageFix"/>
<feColorMatrix in="SourceAlpha" type="matrix" values="0 0 0 0 0 0 0 0 0 0 0 0 0 0 0 0 0 0 255 0"/>
<feOffset dy="4"/>
<feGaussianBlur stdDeviation="2"/>
<feColorMatrix type="matrix" values="0 0 0 0 0 0 0 0 0 0 0 0 0 0 0 0 0 0 0.25 0"/>
<feBlend mode="normal" in2="BackgroundImageFix" result="effect1_dropShadow"/>
<feBlend mode="normal" in="SourceGraphic" in2="effect1_dropShadow" result="shape"/>
</filter>
</defs>
</svg>
