<svg width="40" height="40" viewBox="0 0 40 40" fill="none" xmlns="http://www.w3.org/2000/svg">
<circle cx="20" cy="20" r="20" fill="#FAD2D7"/>
<path d="M13.75 0H6.25C2.79875 0 0 2.79875 0 6.25V13.75C0 17.2013 2.79875 20 6.25 20H13.75C17.2013 20 20 17.2013 20 13.75V6.25C20 2.79875 17.2013 0 13.75 0ZM18.125 13.75C18.125 16.1625 16.1625 18.125 13.75 18.125H6.25C3.8375 18.125 1.875 16.1625 1.875 13.75V6.25C1.875 3.8375 3.8375 1.875 6.25 1.875H13.75C16.1625 1.875 18.125 3.8375 18.125 6.25V13.75Z" transform="translate(10 10)" fill="#CD7992"/>
<path d="M5 0C2.23875 0 0 2.23875 0 5C0 7.76125 2.23875 10 5 10C7.76125 10 10 7.76125 10 5C10 2.23875 7.76125 0 5 0ZM5 8.125C3.2775 8.125 1.875 6.7225 1.875 5C1.875 3.27625 3.2775 1.875 5 1.875C6.7225 1.875 8.125 3.27625 8.125 5C8.125 6.7225 6.7225 8.125 5 8.125Z" transform="translate(15 15)" fill="#CD7992"/>
<path d="M0.66625 1.3325C1.03421 1.3325 1.3325 1.03421 1.3325 0.66625C1.3325 0.29829 1.03421 0 0.66625 0C0.298291 0 0 0.29829 0 0.66625C0 1.03421 0.298291 1.3325 0.66625 1.3325Z" transform="translate(24.7087 13.9587)" fill="#CD7992"/>
</svg>
