<svg width="16" height="16" viewBox="0 0 16 16" fill="none" xmlns="http://www.w3.org/2000/svg">
<path opacity="0.8" fill-rule="evenodd" clip-rule="evenodd" d="M8 0C6.41775 0 4.87102 0.469185 3.55542 1.34824C2.23983 2.22729 1.21445 3.47673 0.608951 4.93854C0.00345027 6.40035 -0.154931 8.00888 0.153751 9.56073C0.462433 11.1126 1.22432 12.538 2.34314 13.6569C3.46196 14.7757 4.88743 15.5376 6.43927 15.8463C7.99112 16.155 9.59966 15.9965 11.0615 15.391C12.5233 14.7855 13.7727 13.7602 14.6517 12.4446C15.5308 11.129 16 9.58225 16 8C16 5.87827 15.1572 3.84343 13.6569 2.34314C12.1566 0.842849 10.1217 0 8 0ZM8 14C6.81332 14 5.65326 13.6481 4.66657 12.9888C3.67987 12.3295 2.91086 11.3925 2.45673 10.2961C2.0026 9.19974 1.88379 7.99334 2.1153 6.82945C2.34681 5.66557 2.91827 4.59647 3.75739 3.75735C4.5965 2.91824 5.66559 2.34681 6.82947 2.1153C7.99336 1.88378 9.19973 2.0026 10.2961 2.45673C11.3924 2.91085 12.3295 3.67989 12.9888 4.66658C13.6481 5.65328 14 6.81331 14 8C14 9.5913 13.3678 11.1174 12.2426 12.2426C11.1174 13.3679 9.5913 14 8 14ZM8 4C7.80222 4 7.60891 4.05865 7.44446 4.16853C7.28001 4.27841 7.1518 4.43458 7.07611 4.61731C7.00043 4.80004 6.98064 5.0011 7.01923 5.19508C7.05782 5.38906 7.15306 5.56726 7.29291 5.70711C7.43276 5.84696 7.61095 5.9422 7.80494 5.98079C7.99892 6.01937 8.19997 5.99956 8.38269 5.92387C8.56542 5.84819 8.7216 5.72002 8.83149 5.55557C8.94137 5.39112 9 5.19778 9 5C9 4.73478 8.89463 4.48043 8.7071 4.29289C8.51956 4.10536 8.26522 4 8 4ZM8.10999 8H7.90003C7.78231 7.99868 7.66548 8.02072 7.55634 8.06485C7.4472 8.10898 7.34793 8.17433 7.26423 8.25711C7.18052 8.33989 7.11402 8.43845 7.06867 8.54709C7.02332 8.65573 7 8.77228 7 8.89V11.11C7 11.2277 7.02332 11.3443 7.06867 11.4529C7.11402 11.5615 7.18052 11.6601 7.26423 11.7429C7.34793 11.8257 7.4472 11.891 7.55634 11.9352C7.66548 11.9793 7.78231 12.0013 7.90003 12H8.10999C8.34603 12 8.57242 11.9062 8.73932 11.7393C8.90623 11.5724 9 11.346 9 11.11V8.89C9.00014 8.65906 8.91048 8.43711 8.75 8.27104C8.58953 8.10497 8.37082 8.00778 8.14002 8H8.10999Z" fill="#999AB0"/>
</svg>
