<svg width="21" height="22" viewBox="0 0 21 22" fill="none" xmlns="http://www.w3.org/2000/svg">
<path fill-rule="evenodd" clip-rule="evenodd" d="M9.8477 14.114L7.47499 16.6187C7.2142 16.8994 6.89629 17.1226 6.54207 17.2737C6.18785 17.4247 5.80529 17.5003 5.41945 17.4953C5.01958 17.4758 4.62759 17.3783 4.26608 17.2085C3.90458 17.0387 3.58075 16.7999 3.31322 16.506C2.7299 15.9277 2.39404 15.1502 2.37515 14.3344C2.35625 13.5186 2.65575 12.7268 3.21169 12.1228L5.5844 9.6181C5.70333 9.50168 5.79774 9.36318 5.86215 9.21058C5.92657 9.05797 5.95973 8.89427 5.95973 8.72895C5.95973 8.56362 5.92657 8.39993 5.86215 8.24732C5.79774 8.09471 5.70333 7.95622 5.5844 7.8398C5.47853 7.72429 5.34932 7.63198 5.20508 7.56879C5.06085 7.50561 4.90478 7.47294 4.74697 7.47294C4.58916 7.47294 4.43313 7.50561 4.28889 7.56879C4.14465 7.63198 4.01544 7.72429 3.90957 7.8398L1.52416 10.3445C0.525749 11.4377 -0.0183529 12.8623 0.000461949 14.334C0.0192768 15.8057 0.599608 17.2163 1.62565 18.2843C2.1025 18.7985 2.67746 19.2147 3.3176 19.5091C3.95773 19.8035 4.65044 19.9703 5.35602 20H5.49561C6.18514 19.9969 6.86638 19.8515 7.49567 19.5733C8.12496 19.2951 8.68837 18.8902 9.14982 18.3845L11.5226 15.8798C11.7589 15.6452 11.8915 15.3278 11.8915 14.9969C11.8915 14.6661 11.7589 14.3486 11.5226 14.114C11.4178 13.9967 11.2889 13.9028 11.1445 13.8385C11.0001 13.7741 10.8435 13.7409 10.6851 13.7409C10.5267 13.7409 10.3701 13.7741 10.2257 13.8385C10.0813 13.9028 9.95248 13.9967 9.8477 14.114ZM12.7152 6.59996C12.6082 6.48414 12.4779 6.39164 12.3326 6.32834C12.1873 6.26504 12.0303 6.23233 11.8715 6.23233C11.7127 6.23233 11.5556 6.26504 11.4103 6.32834C11.265 6.39164 11.1347 6.48414 11.0277 6.59996L6.28228 11.6093C6.16336 11.7257 6.06895 11.8643 6.00453 12.0169C5.94012 12.1695 5.90695 12.3332 5.90695 12.4985C5.90695 12.6638 5.94012 12.8275 6.00453 12.9801C6.06895 13.1327 6.16336 13.2712 6.28228 13.3877C6.38918 13.5015 6.51874 13.5923 6.66284 13.6543C6.80694 13.7164 6.96249 13.7485 7.11972 13.7485C7.27695 13.7485 7.43246 13.7164 7.57656 13.6543C7.72066 13.5923 7.85022 13.5015 7.95711 13.3877L12.7152 8.37829C12.939 8.13236 13.0629 7.81345 13.0629 7.48288C13.0629 7.1523 12.939 6.8334 12.7152 6.58746V6.59996ZM17.3592 1.69081C16.8906 1.16785 16.3164 0.747335 15.6735 0.456241C15.0306 0.165147 14.3332 0.00988228 13.6259 0.000448891C12.9186 -0.00898449 12.2172 0.127595 11.5665 0.401436C10.9159 0.675277 10.3304 1.08033 9.8477 1.5906L7.47499 4.09528C7.23867 4.32992 7.10601 4.64735 7.10601 4.9782C7.10601 5.30905 7.23867 5.62644 7.47499 5.86108C7.58086 5.97659 7.71007 6.0689 7.85431 6.13209C7.99855 6.19527 8.15458 6.22794 8.31239 6.22794C8.47019 6.22794 8.62626 6.19527 8.7705 6.13209C8.91474 6.0689 9.04395 5.97659 9.14982 5.86108L11.5226 3.3564C11.7902 3.07069 12.1166 2.84475 12.48 2.69373C12.8434 2.54272 13.2352 2.47015 13.6293 2.48082C14.0234 2.49149 14.4107 2.58519 14.7651 2.75565C15.1195 2.9261 15.433 3.16934 15.6843 3.46911C16.2677 4.04741 16.6035 4.82489 16.6224 5.64071C16.6413 6.45653 16.3418 7.24829 15.7858 7.8523L13.4131 10.357C13.2942 10.4734 13.1998 10.6119 13.1354 10.7645C13.071 10.9171 13.0378 11.0808 13.0378 11.2462C13.0378 11.4115 13.071 11.5751 13.1354 11.7278C13.1998 11.8804 13.2942 12.0189 13.4131 12.1353C13.52 12.2491 13.6496 12.3399 13.7937 12.402C13.9378 12.4641 14.0933 12.4961 14.2506 12.4961C14.4078 12.4961 14.5633 12.4641 14.7074 12.402C14.8515 12.3399 14.9811 12.2491 15.088 12.1353L17.4607 9.63063C18.4683 8.53936 19.0184 7.11104 18.9995 5.63468C18.9807 4.15831 18.3943 2.74414 17.3592 1.67827V1.69081Z" transform="translate(1 1)" fill="#999AB0" stroke="#F7F8FC" stroke-width="0.75"/>
</svg>
