<svg width="18" height="18" viewBox="0 0 18 18" fill="none" xmlns="http://www.w3.org/2000/svg">
<path opacity="0.8" fill-rule="evenodd" clip-rule="evenodd" d="M15 3H11C11 2.20435 10.6839 1.44127 10.1213 0.878662C9.55871 0.316053 8.79565 0 8 0C7.20435 0 6.44129 0.316053 5.87868 0.878662C5.31607 1.44127 5 2.20435 5 3H1C0.734784 3 0.480429 3.10537 0.292892 3.29291C0.105356 3.48044 0 3.73478 0 4C0 4.26522 0.105356 4.51956 0.292892 4.70709C0.480429 4.89463 0.734784 5 1 5H2V14C2 14.5304 2.21071 15.0391 2.58578 15.4142C2.96086 15.7893 3.46957 16 4 16H12C12.5304 16 13.0391 15.7893 13.4142 15.4142C13.7893 15.0391 14 14.5304 14 14V5H15C15.2652 5 15.5196 4.89463 15.7071 4.70709C15.8946 4.51956 16 4.26522 16 4C16 3.73478 15.8946 3.48044 15.7071 3.29291C15.5196 3.10537 15.2652 3 15 3ZM8 2C8.26522 2 8.51957 2.10537 8.70711 2.29291C8.89464 2.48044 9 2.73478 9 3H7C7 2.73478 7.10536 2.48044 7.29289 2.29291C7.48043 2.10537 7.73478 2 8 2ZM12 14H4V5H12V14ZM7 9H9C9.26522 9 9.51957 8.89463 9.70711 8.70709C9.89464 8.51956 10 8.26522 10 8C10 7.73478 9.89464 7.48044 9.70711 7.29291C9.51957 7.10537 9.26522 7 9 7H7C6.73478 7 6.48043 7.10537 6.29289 7.29291C6.10536 7.48044 6 7.73478 6 8C6 8.26522 6.10536 8.51956 6.29289 8.70709C6.48043 8.89463 6.73478 9 7 9Z" transform="translate(1 1)" fill="#EB5757" stroke="white" stroke-width="0.5"/>
</svg>
