<svg width="63" height="71" viewBox="0 0 63 71" fill="none" xmlns="http://www.w3.org/2000/svg">
<path d="M49.8195 3.6468V55.0194C49.8195 57.0337 48.1798 58.6662 46.1571 58.6662H3.66239C1.63957 58.6662 -3.82502e-08 57.0335 -3.82502e-08 55.0194V3.6468C-3.82502e-08 1.63259 1.6397 1.86205e-07 3.66239 1.86205e-07H46.1571C48.1799 1.86205e-07 49.8195 1.63273 49.8195 3.6468Z" transform="translate(0 12.3338)" fill="#4A7AE1"/>
<path d="M45.7709 3.6468V53.9152H3.66239C1.63956 53.9152 -1.57251e-07 52.2826 -1.57251e-07 50.2684V1.86205e-07H42.1087C44.1314 1.86205e-07 45.7709 1.63273 45.7709 3.6468Z" transform="translate(4.04883 12.3338)" fill="#5F8BEA"/>
<path d="M60.3661 56.3005L19.7019 68.5814C17.7659 69.1659 15.7214 68.0775 15.1343 66.1512L0.159297 16.9884C-0.429236 15.062 0.663854 13.0249 2.59991 12.4403L3.3908 12.2013L43.2641 0.157925C45.2002 -0.426578 47.2446 0.66186 47.8317 2.58968L62.4685 50.6365L62.8083 51.7523C63.3952 53.6787 62.3021 55.716 60.3661 56.3005Z" transform="translate(0.0332031)" fill="#C9D8F7"/>
<path d="M59.0775 50.6365L19.2028 62.6784C17.2668 63.2629 15.2223 62.1745 14.6352 60.2482L-1.65751e-07 12.2013L39.8733 0.157925C41.8094 -0.426578 43.8538 0.66186 44.4409 2.58968L59.0775 50.6365Z" transform="translate(3.42383)" fill="#DEE8FD"/>
<path d="M4.68327 9.41871C6.32632 9.52493 7.1328 9.63074 7.50868 10.8649C7.83205 11.9263 7.42818 12.5882 6.23789 12.9476C5.13101 13.282 4.59247 12.969 4.11702 12.6925C3.79852 12.5074 3.43755 12.2974 2.98619 12.4337C2.29767 12.6416 1.98181 13.5192 2.16954 14.1356C2.47746 15.1467 4.04655 15.786 5.76522 15.6441L5.89641 16.0744C6.11408 16.7887 6.87461 17.1935 7.59196 16.9769C8.30931 16.7602 8.71583 16.0029 8.49829 15.2886L8.35847 14.8296C10.0497 13.8186 10.6562 12.0775 10.0225 9.99753C9.10577 6.98806 6.68131 6.8444 5.23281 6.7587L5.06347 6.74885C3.62375 6.6662 2.97644 6.59409 2.7195 5.75097C2.57661 5.28184 2.64068 4.94195 2.92714 4.64839C3.22698 4.34081 3.69491 4.15402 4.03458 4.05126C4.85554 3.80332 5.37194 3.89734 5.74879 3.96584C6.01687 4.01465 6.2702 4.06083 6.54622 3.97749C7.32248 3.743 7.51188 2.8254 7.34588 2.2807C6.9927 1.12126 5.21708 1.24079 4.26604 1.395L4.13387 0.960953C3.9162 0.246653 3.15568 -0.158131 2.43846 0.0583359C1.72111 0.27508 1.3146 1.03237 1.53213 1.74667L1.71373 2.34282C0.199781 3.33433 -0.335693 4.84017 0.205769 6.61808C0.985791 9.17936 3.03605 9.31193 4.68327 9.41871Z" transform="translate(21.7695 15.1824)" fill="#4A7AE1"/>
<path d="M33.0357 0.766569C32.8618 0.195794 32.2559 -0.126204 31.6832 0.0467203L0.769885 9.38366C0.19681 9.55686 -0.126843 10.1598 0.0469593 10.7304C0.189009 11.1967 0.619059 11.4972 1.0842 11.4972C1.18851 11.4972 1.29463 11.482 1.39936 11.4504L32.3127 2.11349C32.8859 1.94029 33.2094 1.3372 33.0357 0.766569Z" transform="translate(15.4189 30.0803)" fill="#4A7AE1"/>
<path d="M33.0357 0.766518C32.8618 0.195743 32.2561 -0.126116 31.6832 0.0466691L0.769883 9.38347C0.196808 9.55667 -0.126842 10.1596 0.0469602 10.7303C0.18901 11.1965 0.61906 11.497 1.0842 11.497C1.18851 11.497 1.29463 11.4819 1.39936 11.4502L32.3127 2.1133C32.8857 1.9401 33.2095 1.33715 33.0357 0.766518Z" transform="translate(17.2236 36.0056)" fill="#4A7AE1"/>
<path d="M33.0356 0.766556C32.8617 0.19592 32.2557 -0.126213 31.6831 0.0467113L0.769883 9.38365C0.196808 9.55685 -0.126843 10.1598 0.04696 10.7304C0.18901 11.1966 0.61906 11.4971 1.0842 11.4971C1.18851 11.4971 1.29463 11.482 1.39936 11.4504L32.3127 2.11348C32.8858 1.94014 33.2095 1.33719 33.0356 0.766556Z" transform="translate(19.0293 41.9305)" fill="#4A7AE1"/>
<path d="M33.0357 0.766516C32.8618 0.195741 32.2561 -0.126114 31.6832 0.0466715L0.769884 9.38361C0.196809 9.55681 -0.126842 10.1598 0.0469609 10.7304C0.189011 11.1966 0.619061 11.4971 1.08421 11.4971C1.18851 11.4971 1.29463 11.482 1.39936 11.4504L32.3127 2.11344C32.8859 1.9401 33.2095 1.33701 33.0357 0.766516Z" transform="translate(20.834 47.8558)" fill="#4A7AE1"/>
<path d="M13.6578 4.81303L11.5815 5.43928C10.9381 3.53448 9.12784 2.15954 7.00098 2.15954C4.33615 2.15954 2.16877 4.3177 2.16877 6.97119V19.4538C2.16877 21.0044 3.43678 22.267 4.99404 22.267C6.5513 22.267 7.8193 21.0044 7.8193 19.4538V6.99851C7.8193 6.85748 7.78602 6.72352 7.72391 6.60551C7.58074 6.3247 7.28731 6.13181 6.9489 6.13181C6.46885 6.13181 6.07849 6.5205 6.07849 6.99851V17.7116C6.07849 18.3076 5.59274 18.7915 4.99404 18.7915C4.39534 18.7915 3.90958 18.3078 3.90958 17.7116V6.99851C3.90958 5.32987 5.27312 3.97213 6.9489 3.97213C8.26467 3.97213 9.38673 4.8086 9.80884 5.97483C9.92457 6.29447 9.98808 6.64004 9.98808 6.99851V19.4536C9.98808 22.1949 7.74689 24.4264 4.99404 24.4264C2.23966 24.4264 -1.74251e-07 22.1948 -1.74251e-07 19.4536V6.97119C-1.74251e-07 3.12706 3.14042 -1.26958e-07 7.00098 -1.26958e-07C10.1053 -1.26958e-07 12.744 2.02281 13.6578 4.81303Z" transform="translate(3.28711 3.30524)" fill="#4A7AE1"/>
</svg>
