<svg width="168" height="213" viewBox="0 0 168 213" fill="none" xmlns="http://www.w3.org/2000/svg">
<mask id="mask0" mask-type="alpha" maskUnits="userSpaceOnUse" x="0" y="0" width="168" height="213">
<rect width="168" height="213" rx="4" fill="white"/>
</mask>
<g mask="url(#mask0)">
<path d="M64.016 18.0396C46.8348 19.3746 39.0159 33.0396 22.516 33.0396C-14.7888 33.0396 5.51595 127.04 5.51595 127.04H204.516C210.516 118.04 251.478 15.3629 204.516 2.03962C186.777 -2.99284 175.475 2.36194 157.516 6.53962C137.032 11.3045 128.502 25.1703 107.516 26.5396C90.2436 27.6666 81.273 16.6988 64.016 18.0396Z" transform="translate(205.271 57) scale(-1 1)" fill="#BAFFD6"/>
<path d="M64.016 18.0396C46.8348 19.3746 39.0159 33.0396 22.516 33.0396C-14.7888 33.0396 5.51595 127.04 5.51595 127.04H204.516C210.516 118.04 251.478 15.3629 204.516 2.03962C186.777 -2.99284 175.475 2.36194 157.516 6.53962C137.032 11.3045 128.502 25.1703 107.516 26.5396C90.2436 27.6666 81.273 16.6988 64.016 18.0396Z" transform="translate(-21.5159 90.9604)" fill="#72FFAA"/>
</g>
</svg>
