<svg width="18" height="18" viewBox="0 0 18 18" fill="none" xmlns="http://www.w3.org/2000/svg">
<path opacity="0.8" fill-rule="evenodd" clip-rule="evenodd" d="M15 12C14.7348 12 14.4804 12.1054 14.2929 12.2929C14.1054 12.4805 14 12.7348 14 13V14H2V13C2 12.7348 1.89463 12.4805 1.70709 12.2929C1.51956 12.1054 1.26522 12 1 12C0.734784 12 0.480444 12.1054 0.292908 12.2929C0.105371 12.4805 0 12.7348 0 13V15C0 15.2652 0.105371 15.5196 0.292908 15.7071C0.480444 15.8946 0.734784 16 1 16H15C15.2652 16 15.5196 15.8946 15.7071 15.7071C15.8946 15.5196 16 15.2652 16 15V13C16 12.7348 15.8946 12.4805 15.7071 12.2929C15.5196 12.1054 15.2652 12 15 12ZM5.71002 4.71004L7 3.40999V11C7 11.2652 7.10537 11.5196 7.29291 11.7071C7.48044 11.8946 7.73478 12 8 12C8.26522 12 8.51956 11.8946 8.70709 11.7071C8.89463 11.5196 9 11.2652 9 11V3.40999L10.3 4.71004C10.4874 4.89629 10.7408 5.00081 11.005 5.00081C11.2692 5.00081 11.5227 4.89629 11.71 4.71004C11.8038 4.61708 11.8781 4.50646 11.9289 4.3846C11.9797 4.26274 12.0058 4.13203 12.0058 4.00002C12.0058 3.868 11.9797 3.73729 11.9289 3.61543C11.8781 3.49357 11.8038 3.38296 11.71 3.28999L8.71002 0.289995C8.61658 0.197313 8.50575 0.124 8.38391 0.0742355C8.26207 0.0244709 8.13161 -0.000744179 8 1.67143e-05C7.73766 0.00112134 7.48625 0.105251 7.29999 0.289995L4.29999 3.28999C4.20626 3.38296 4.13188 3.49357 4.08112 3.61543C4.03035 3.73729 4.00421 3.868 4.00421 4.00002C4.00421 4.13203 4.03035 4.26274 4.08112 4.3846C4.13188 4.50646 4.20626 4.61708 4.29999 4.71004C4.39327 4.80682 4.50514 4.88378 4.62885 4.93636C4.75255 4.98894 4.8856 5.01607 5.02002 5.01607C5.15444 5.01607 5.28748 4.98894 5.41119 4.93636C5.5349 4.88378 5.64671 4.80682 5.73999 4.71004H5.71002Z" transform="translate(1 1)" fill="#999AB0" stroke="#F7F8FC" stroke-width="0.75"/>
</svg>
