<svg width="20" height="21" viewBox="0 0 20 21" fill="none" xmlns="http://www.w3.org/2000/svg">
<path d="M9.6875 0.8125C11.4062 0.8125 13.0469 1.28125 14.5312 2.14062C16.0156 3 17.1875 4.17188 18.0469 5.65625C18.9062 7.14062 19.375 8.78125 19.375 10.5C19.375 12.2578 18.9062 13.8594 18.0469 15.3438C17.1875 16.8281 16.0156 18.0391 14.5312 18.8984C13.0469 19.7578 11.4062 20.1875 9.6875 20.1875C7.92969 20.1875 6.32812 19.7578 4.84375 18.8984C3.35938 18.0391 2.14844 16.8281 1.28906 15.3438C0.429688 13.8594 0 12.2578 0 10.5C0 8.78125 0.429688 7.14062 1.28906 5.65625C2.14844 4.17188 3.35938 3 4.84375 2.14062C6.32812 1.28125 7.92969 0.8125 9.6875 0.8125ZM14.4531 7.45312C14.4922 7.14062 14.4531 6.94531 14.2969 6.78906C14.1406 6.63281 13.9844 6.59375 13.7891 6.67188L4.45312 10.3047C4.10156 10.4219 3.90625 10.5391 3.90625 10.6953C3.90625 10.8516 4.02344 10.9688 4.33594 11.0469L6.71875 11.7891L12.2656 8.3125C12.3828 8.23438 12.5 8.23438 12.5781 8.23438C12.6562 8.27344 12.6562 8.3125 12.5781 8.39062L8.08594 12.4531L7.89062 14.9141C8.04688 14.9141 8.24219 14.8359 8.39844 14.6797L9.57031 13.5469L11.9922 15.3438C12.4609 15.6172 12.7344 15.5 12.8516 14.9531L14.4531 7.45312Z" fill="#0088CC"/>
</svg>
