<svg width="16" height="18" viewBox="0 0 16 18" fill="none" xmlns="http://www.w3.org/2000/svg">
<path opacity="0.8" fill-rule="evenodd" clip-rule="evenodd" d="M9 0H2C1.46957 0 0.960858 0.210712 0.585785 0.585785C0.210712 0.960858 0 1.46957 0 2V14C0 14.5304 0.210712 15.0391 0.585785 15.4142C0.960858 15.7893 1.46957 16 2 16H12C12.5304 16 13.0391 15.7893 13.4142 15.4142C13.7893 15.0391 14 14.5304 14 14V5C14 3.67392 13.4732 2.40216 12.5355 1.46448C11.5979 0.526796 10.3261 0 9 0ZM12 14H2V2H7V7H12V14ZM9 5V2C9.79565 2 10.5587 2.31608 11.1213 2.87869C11.6839 3.4413 12 4.20435 12 5H9Z" transform="translate(1 1)" fill="#999AB0" stroke="white" stroke-width="0.5"/>
</svg>
