<svg width="272" height="275" viewBox="0 0 272 275" fill="none" xmlns="http://www.w3.org/2000/svg">
<path d="M237.506 14.9744V145.335H5.41381e-07V14.9744C5.41381e-07 6.70601 6.70834 4.00492e-07 14.9936 4.00492e-07H222.512C230.791 0.000656566 237.506 6.70667 237.506 14.9744Z" transform="translate(17.248 112.277)" fill="#44516E"/>
<path d="M204.654 -4.9661e-06V112.526H5.41381e-07V-4.9661e-06H204.654Z" transform="translate(33.6738 128.682)" fill="#4A7AE1"/>
<path d="M128.398 -4.9661e-06H-3.3686e-06L4.04537 13.2559H106.834L106.893 15.0341L106.941 16.4041H126.966V128.93H39.3447L43.9498 144.022H143.392V14.9737C143.392 6.70601 136.677 -4.9661e-06 128.398 -4.9661e-06Z" transform="translate(111.361 112.277)" fill="#576789"/>
<path d="M26.1192 81.484H-4.01023e-07L0.661638 83.6519L13.0461 85.7477C13.7025 85.858 14.3635 85.9124 15.0231 85.9124C17.0291 85.9124 19.0159 85.4065 20.7867 84.4282L26.1192 81.484ZM97.0942 -4.9661e-06H77.0691L79.6062 73.2069C79.763 77.7311 76.1379 81.484 71.611 81.484H59.5853L59.4658 81.568L20.1553 106.378C17.0251 108.351 13.4173 109.383 9.75896 109.383C9.33977 109.383 8.92059 109.369 8.50074 109.342L9.4725 112.526H97.0942V-4.9661e-06Z" transform="translate(141.232 128.682)" fill="#618CE7"/>
<path d="M35.1988 2.32285e-06H0.108413L1.04266e-06 3.14828H36.1593L35.1988 2.32285e-06Z" transform="translate(80.207 125.533)" fill="#676767"/>
<path d="M82.694 -4.9661e-06H46.534L45.3618 33.9251L43.9604 74.3383C43.2159 74.8515 42.461 75.3508 41.689 75.8265L5.41381e-07 102.959V112.527H47.6352L61.1438 103.662C62.7503 102.606 64.6241 102.049 66.5289 102.049C67.0151 102.049 67.5033 102.085 67.9901 102.158L114.423 109.166C114.968 109.248 115.515 109.307 116.061 109.343L108.221 83.6526L95.4096 81.4846H107.56L82.694 -4.9661e-06Z" transform="translate(33.6738 128.682)" fill="#3D6AC9"/>
<path d="M102.789 2.32285e-06H-4.89248e-06L0.960586 3.14828H102.895L102.848 1.77821L102.789 2.32285e-06Z" transform="translate(115.406 125.533)" fill="#838383"/>
<path d="M101.935 -4.9661e-06H-1.20307e-06L24.8655 81.484H50.9847L45.6516 84.4288C43.8808 85.4072 41.894 85.9131 39.888 85.9131C39.229 85.9131 38.568 85.8586 37.911 85.7484L25.5265 83.6526L33.3663 109.343C33.7861 109.37 34.2053 109.383 34.6245 109.383C38.2829 109.383 41.89 108.351 45.0208 106.378L84.3313 81.5686L84.4509 81.4846H96.4765C101.003 81.4846 104.629 77.7317 104.472 73.2076L101.935 -4.9661e-06Z" transform="translate(116.367 128.682)" fill="#5982DA"/>
<path d="M143.453 154.715C143.61 159.239 139.985 162.992 135.458 162.992H8.28221C3.75525 162.992 0.130142 159.239 0.287025 154.714L1.64916 115.433L5.37666 7.72331C5.52575 3.41531 9.06129 1.24152e-06 13.3719 1.24152e-06H130.368C134.679 1.24152e-06 138.214 3.41534 138.363 7.72337L140.869 80.1375L143.453 154.715Z" transform="translate(77.5312 34.1206)" fill="#6FCF97"/>
<path d="M0 19.3569L19.4921 38.7138L58.4763 0" transform="translate(120.238 95.8002)" stroke="white" stroke-width="6.56601" stroke-linejoin="round"/>
<path d="M167.025 31.2042L127.715 56.0138C123.759 58.5072 119.042 59.498 114.423 58.8025L67.9902 51.7947C65.5985 51.4338 63.1609 51.9718 61.1438 53.2973L33.9556 71.1384H5.41381e-07V52.5952L41.689 25.4627C45.0201 23.4089 48.1082 21.0008 50.8809 18.2777C53.6536 15.5481 56.1241 12.5166 58.2332 9.22263C61.9388 3.43525 68.3581 -0.127722 75.2373 0.00351097C76.801 0.0297576 78.3648 0.200353 79.9219 0.508751L121.25 8.78301C124.489 9.43262 126.716 12.2804 126.716 15.4365C126.716 15.9746 126.65 16.5258 126.512 17.0769C125.658 20.5021 122.314 22.7068 118.825 22.136L92.7736 17.9103C92.4319 17.8578 92.0902 17.825 91.7551 17.825C88.5554 17.825 85.7827 20.2659 85.487 23.5533C85.1914 26.8276 87.4647 29.7737 90.7105 30.3249L120.606 35.384C123.26 35.8302 125.993 35.3643 128.346 34.0651L158.766 17.2672C160.008 16.5848 161.355 16.2567 162.682 16.2567C165.37 16.2567 167.985 17.5887 169.529 20.0034C171.946 23.7829 170.823 28.8092 167.025 31.2042Z" transform="translate(33.6738 170.069)" fill="#FCD18B"/>
<path d="M70.6393 57.3918C68.3147 57.3918 66.4297 55.5099 66.4297 53.1878V37.9188C66.4297 22.1006 53.9585 8.79094 38.1239 8.41627C21.8123 8.03044 8.41927 21.1702 8.41927 37.3748V53.1878C8.41927 55.5093 6.53489 57.3918 4.20964 57.3918C1.88504 57.3918 4.25085e-06 55.5099 4.25085e-06 53.1878V38.0015C4.25085e-06 17.5363 16.2124 0.394641 36.7014 0.00684728C57.6668 -0.390133 74.8483 16.5258 74.8483 37.3742V53.1871C74.8489 55.5093 72.9639 57.3918 70.6393 57.3918Z" transform="translate(111.83)" fill="#F9DE58"/>
<path d="M272 8.65062e-06C272 10.3281 263.616 18.7007 253.274 18.7007H18.7262C13.5553 18.7007 8.87722 16.6082 5.48626 13.2217C2.09595 9.84249 7.14323e-08 5.16403 7.14323e-08 8.65062e-06H272Z" transform="translate(0 256.299)" fill="#122244"/>
<path d="M134.85 8.65062e-06H117.603H18.1611H-3.3686e-06L5.70965 18.7007H116.125C126.466 18.7007 134.85 10.3281 134.85 8.65062e-06Z" transform="translate(137.15 256.299)" fill="#26375B"/>
</svg>
