<svg width="16" height="12" viewBox="0 0 16 12" fill="none" xmlns="http://www.w3.org/2000/svg">
<path opacity="0.8" d="M15.6875 5.96875C14.9375 6.5625 13.3125 7.75 10.875 9.5L10.5625 9.75C10.0625 10.125 9.6875 10.4062 9.375 10.5625C8.875 10.875 8.40625 11 8 11C7.5625 11 7.125 10.875 6.625 10.5938C6.3125 10.4375 5.9375 10.1562 5.4375 9.78125L5.125 9.5C2.59375 7.6875 1 6.5 0.3125 5.96875C0.25 5.9375 0.15625 5.9375 0.09375 5.96875C0.03125 6 0 6.0625 0 6.125V12.5C0 12.9375 0.125 13.2812 0.4375 13.5625C0.71875 13.875 1.0625 14 1.5 14H14.5C14.9062 14 15.25 13.875 15.5625 13.5625C15.8438 13.2812 16 12.9375 16 12.5V6.125C16 6.0625 15.9375 6 15.875 5.9375C15.8125 5.90625 15.75 5.90625 15.6875 5.96875ZM8 10C7.71875 10 7.375 9.875 7 9.625C6.75 9.5 6.4375 9.28125 6.03125 8.9375L5.71875 8.71875C3.15625 6.84375 1.40625 5.5625 0.5 4.84375L0.28125 4.6875C0.09375 4.5625 0 4.34375 0 4.09375V3.5C0 3.09375 0.125 2.75 0.4375 2.4375C0.71875 2.15625 1.0625 2 1.5 2H14.5C14.9062 2 15.25 2.15625 15.5625 2.4375C15.8438 2.75 16 3.09375 16 3.5V4.09375C16 4.34375 15.9062 4.5625 15.7188 4.6875L15.5625 4.8125C14.6562 5.53125 12.9062 6.84375 10.2812 8.71875L9.96875 8.9375C9.53125 9.28125 9.21875 9.5 9 9.625C8.59375 9.875 8.25 10 8 10Z" transform="translate(0 -2)" fill="#7A7C99"/>
</svg>
