<svg width="18" height="17" viewBox="0 0 18 17" fill="none" xmlns="http://www.w3.org/2000/svg">
<path opacity="0.8" d="M9 0C9.6875 0 10.3438 0.1875 10.9688 0.53125C11.5625 0.90625 12.0312 1.375 12.4062 1.96875C12.75 2.59375 12.9375 3.25 12.9375 3.9375C12.9375 4.71875 12.4688 5.8125 11.5312 7.21875C10.9062 8.125 10.1875 9.0625 9.375 10.0625C9.25 10.1875 9.125 10.25 9 10.25C8.84375 10.25 8.71875 10.1875 8.625 10.0625C7.78125 9.0625 7.0625 8.125 6.46875 7.21875C5.53125 5.8125 5.0625 4.71875 5.0625 3.9375C5.0625 3.25 5.21875 2.59375 5.59375 1.96875C5.9375 1.375 6.40625 0.90625 7.03125 0.53125C7.625 0.1875 8.28125 0 9 0ZM9 5.25C9.34375 5.25 9.65625 5.125 9.90625 4.875C10.1562 4.625 10.3125 4.3125 10.3125 3.9375C10.3125 3.59375 10.1562 3.28125 9.90625 3.03125C9.65625 2.78125 9.34375 2.625 9 2.625C8.625 2.625 8.3125 2.78125 8.0625 3.03125C7.8125 3.28125 7.6875 3.59375 7.6875 3.9375C7.6875 4.3125 7.8125 4.625 8.0625 4.875C8.3125 5.125 8.625 5.25 9 5.25ZM0.625 6.75L4.34375 5.25C4.46875 5.71875 4.6875 6.21875 5 6.71875V14L0.6875 15.9688C0.5 16.0312 0.34375 16.0312 0.21875 15.9062C0.0625 15.8125 0 15.6875 0 15.5V7.6875C0 7.5 0.03125 7.3125 0.15625 7.125C0.28125 6.96875 0.4375 6.84375 0.625 6.75ZM9 11.25C9.4375 11.25 9.84375 11.0938 10.1562 10.7188C10.8438 9.90625 11.4375 9.09375 12 8.3125V16L6 14V8.3125C6.53125 9.09375 7.15625 9.90625 7.84375 10.7188C8.15625 11.0938 8.53125 11.25 9 11.25ZM17.3125 5.03125C17.4688 4.96875 17.625 5 17.7812 5.09375C17.9062 5.21875 18 5.34375 18 5.5V13.3125C18 13.5312 17.9375 13.7188 17.8125 13.875C17.6875 14.0625 17.5625 14.1875 17.375 14.25L13 16V7L17.3125 5.03125Z" fill="#7A7C99"/>
</svg>
