<svg width="16" height="16" viewBox="0 0 16 16" fill="none" xmlns="http://www.w3.org/2000/svg">
<path opacity="0.8" d="M8 0.25C9.375 0.25 10.6875 0.625 11.875 1.3125C13.0625 2 14 2.9375 14.6875 4.125C15.375 5.3125 15.75 6.625 15.75 8C15.75 9.40625 15.375 10.6875 14.6875 11.875C14 13.0625 13.0625 14.0312 11.875 14.7188C10.6875 15.4062 9.375 15.75 8 15.75C6.59375 15.75 5.3125 15.4062 4.125 14.7188C2.9375 14.0312 1.96875 13.0625 1.28125 11.875C0.59375 10.6875 0.25 9.40625 0.25 8C0.25 6.625 0.59375 5.3125 1.28125 4.125C1.96875 2.9375 2.9375 2 4.125 1.3125C5.3125 0.625 6.59375 0.25 8 0.25ZM9.78125 11.1875C9.84375 11.25 9.9375 11.2812 10.0625 11.25C10.1562 11.25 10.25 11.1875 10.3125 11.0938L11.1875 9.90625C11.25 9.84375 11.25 9.75 11.25 9.625C11.25 9.53125 11.1875 9.4375 11.125 9.375L9.125 7.9375V3.625C9.125 3.53125 9.0625 3.4375 9 3.375C8.9375 3.3125 8.84375 3.25 8.75 3.25H7.25C7.125 3.25 7.03125 3.3125 6.96875 3.375C6.90625 3.4375 6.875 3.53125 6.875 3.625V8.875C6.875 9 6.90625 9.125 7.03125 9.1875L9.78125 11.1875Z" fill="#7A7C99"/>
</svg>
