<svg width="27" height="16" viewBox="0 0 27 16" fill="none" xmlns="http://www.w3.org/2000/svg">
<path d="M25.5469 5.53125C25.4531 6 25.0781 6.79688 24.4219 7.875C23.9531 8.67188 23.3906 9.5625 22.7344 10.5938C22.1719 11.4375 21.8438 11.8594 21.8438 11.8594C21.6562 12.1406 21.5625 12.375 21.5625 12.5156C21.5625 12.7031 21.6562 12.8906 21.8438 13.0781L22.2656 13.5469C24.5156 15.8906 25.7812 17.4844 26.0625 18.3281C26.1562 18.7031 26.1094 19.0312 25.9219 19.2188C25.7344 19.4062 25.5 19.5 25.125 19.5H22.3594C21.9844 19.5 21.7031 19.4062 21.4219 19.1719C21.2344 19.0781 20.8594 18.75 20.3906 18.1875C19.9219 17.625 19.5 17.1562 19.125 16.7812C17.8594 15.6094 16.9219 15 16.3594 15C16.0781 15 15.8906 15.0469 15.7969 15.1406C15.7031 15.2344 15.6562 15.4688 15.6562 15.75C15.6094 15.9844 15.6094 16.4531 15.6094 17.2031V18.4219C15.6094 18.7969 15.5156 19.0781 15.3281 19.2188C15.0469 19.4062 14.4844 19.5 13.6406 19.5C12.1406 19.5 10.6875 19.0781 9.1875 18.1875C7.6875 17.3438 6.375 16.0781 5.25 14.4375C4.17188 13.0312 3.28125 11.5781 2.57812 10.0781C2.01562 8.95312 1.54688 7.92188 1.21875 6.9375C0.984375 6.1875 0.890625 5.625 0.890625 5.29688C0.890625 4.78125 1.17188 4.5 1.82812 4.5H4.59375C4.92188 4.5 5.15625 4.59375 5.34375 4.73438C5.53125 4.92188 5.67188 5.20312 5.8125 5.57812C6.23438 6.84375 6.75 8.0625 7.40625 9.23438C7.96875 10.3594 8.53125 11.25 9.09375 11.9062C9.65625 12.6094 10.0781 12.9375 10.4062 12.9375C10.5938 12.9375 10.6875 12.8906 10.7812 12.75C10.875 12.6094 10.9219 12.3281 10.9219 11.9062V7.82812C10.875 7.35938 10.7812 6.89062 10.5938 6.51562C10.5 6.32812 10.3125 6.09375 10.125 5.8125C9.89062 5.53125 9.79688 5.34375 9.79688 5.15625C9.79688 4.96875 9.84375 4.82812 9.98438 4.6875C10.125 4.59375 10.3125 4.5 10.5 4.5H14.8594C15.1406 4.5 15.3281 4.59375 15.4219 4.73438C15.5156 4.92188 15.6094 5.15625 15.6094 5.53125V10.9688C15.6094 11.25 15.6562 11.4844 15.75 11.5781C15.8438 11.7188 15.9375 11.7656 16.0781 11.7656C16.2188 11.7656 16.4062 11.7188 16.5938 11.625C16.7812 11.5312 17.0156 11.2969 17.3438 10.9219C17.9062 10.2656 18.5156 9.46875 19.125 8.48438C19.5 7.82812 19.9219 7.07812 20.2969 6.23438L20.7656 5.29688C20.9531 4.78125 21.375 4.5 21.9375 4.5H24.7031C25.4531 4.5 25.7344 4.875 25.5469 5.53125Z" transform="translate(0 -4)" fill="#45668E"/>
</svg>
