<svg width="24" height="20" viewBox="0 0 24 20" fill="none" xmlns="http://www.w3.org/2000/svg">
<path d="M21.5156 7.125C22.4531 6.42188 23.2969 5.57812 24 4.54688C23.0625 4.96875 22.125 5.25 21.1875 5.34375C22.2188 4.6875 22.9688 3.79688 23.3438 2.625C22.3594 3.1875 21.3281 3.60938 20.2031 3.79688C19.7344 3.32812 19.1719 2.95312 18.5625 2.67188C17.9531 2.39062 17.2969 2.25 16.5938 2.25C15.7031 2.25 14.9062 2.48438 14.1562 2.90625C13.4062 3.375 12.7969 3.98438 12.375 4.73438C11.9062 5.48438 11.7188 6.32812 11.7188 7.17188C11.7188 7.54688 11.7188 7.92188 11.8125 8.29688C9.79688 8.20312 7.92188 7.73438 6.14062 6.79688C4.35938 5.90625 2.90625 4.6875 1.6875 3.14062C1.21875 3.9375 0.984375 4.78125 0.984375 5.625C0.984375 6.46875 1.17188 7.26562 1.59375 7.96875C1.96875 8.71875 2.53125 9.28125 3.1875 9.75C2.39062 9.75 1.64062 9.51562 0.984375 9.09375V9.1875C0.984375 10.3594 1.35938 11.3906 2.10938 12.2812C2.85938 13.2188 3.79688 13.7812 4.92188 14.0156C4.45312 14.1094 4.03125 14.1562 3.60938 14.1562C3.32812 14.1562 3 14.1562 2.71875 14.1094C3 15.0938 3.5625 15.8906 4.40625 16.5469C5.25 17.2031 6.1875 17.4844 7.3125 17.4844C5.48438 18.8906 3.42188 19.5938 1.17188 19.5938C0.703125 19.5938 0.328125 19.5938 0 19.5469C2.25 21.0469 4.78125 21.75 7.54688 21.75C10.4062 21.75 12.9375 21.0469 15.1875 19.5469C17.2031 18.2344 18.7969 16.5 19.9219 14.25C21 12.1875 21.5625 9.98438 21.5625 7.73438C21.5625 7.45312 21.5156 7.26562 21.5156 7.125Z" transform="translate(0 -2)" fill="#1DA1F2"/>
</svg>
