<svg width="21" height="22" viewBox="0 0 21 22" fill="none" xmlns="http://www.w3.org/2000/svg">
<path d="M21 2.67188C21 2.34375 20.8594 2.0625 20.625 1.82812C20.3906 1.64062 20.1094 1.5 19.8281 1.5H1.17188C0.796875 1.5 0.515625 1.64062 0.328125 1.82812C0.09375 2.0625 0 2.34375 0 2.67188V21.3281C0 21.6562 0.09375 21.9375 0.328125 22.1719C0.515625 22.4062 0.796875 22.5 1.17188 22.5H11.2031V14.3438H8.48438V11.2031H11.2031V8.85938C11.2031 7.54688 11.5781 6.51562 12.3281 5.76562C13.0781 5.0625 14.0625 4.6875 15.2812 4.6875C16.2188 4.6875 17.0625 4.73438 17.7188 4.78125V7.64062H16.0312C15.4219 7.64062 15 7.78125 14.7656 8.0625C14.5781 8.29688 14.4844 8.67188 14.4844 9.1875V11.2031H17.625L17.2031 14.3438H14.4844V22.5H19.8281C20.1562 22.5 20.4375 22.4062 20.6719 22.1719C20.8594 21.9375 21 21.6562 21 21.3281V2.67188Z" transform="translate(0 -1)" fill="#3B5998"/>
</svg>
