<svg width="22" height="18" viewBox="0 0 22 18" fill="none" xmlns="http://www.w3.org/2000/svg">
<path d="M20.9531 4.64062C21.0469 3.98438 21 3.5625 20.7188 3.28125C20.4375 3 20.0625 2.95312 19.5938 3.09375L0.984375 10.2656C0.328125 10.5469 0 10.8281 0 11.1094C-0.046875 11.4375 0.1875 11.6719 0.75 11.8125L5.53125 13.3125L16.5938 6.32812C16.7344 6.23438 16.875 6.1875 17.0156 6.1875C17.1562 6.1875 17.25 6.1875 17.2969 6.28125C17.3438 6.375 17.2969 6.42188 17.2031 6.51562L8.25 14.625L7.875 19.5469C8.10938 19.5469 8.29688 19.5 8.48438 19.4062C8.57812 19.3594 8.67188 19.2656 8.85938 19.0781L11.2031 16.8281L16.0312 20.3906C16.4531 20.6719 16.8281 20.7188 17.1094 20.5781C17.3906 20.4375 17.625 20.1094 17.7656 19.5469L20.9531 4.64062Z" transform="translate(1 -3)" fill="#0088CC"/>
</svg>
