<svg width="64" height="52" viewBox="0 0 64 52" fill="none" xmlns="http://www.w3.org/2000/svg">
<path d="M61.3333 0H2.66667C1.19999 0 0 1.18781 0 2.6396V40.3859C0 41.8377 1.19999 43.0255 2.66667 43.0255H61.3333C62.8 43.0255 64 41.8377 64 40.3859V2.6396C64 1.18781 62.8 0 61.3333 0Z" fill="#40596B"/>
<path d="M56 0H0V35.1067H56V0Z" transform="translate(4 4.48828)" fill="#F2F2F2"/>
<path d="M30.1333 7.12698V8.84276H0V7.12698H2.80002V0H27.2V7.12698H30.1333Z" transform="translate(16.9316 43.0254)" fill="#CDD6E0"/>
<path d="M24.4 0H0V1.97964H24.4V0Z" transform="translate(19.7324 43.0254)" fill="#ACB3BA"/>
<path d="M0.933297 16.1016L0 15.1777L9.06666 6.33502L14.8 12.0102L24 2.90359L28.8 7.65483L36.6667 0L37.4666 0.923825L28.8 9.5026L24 4.75136L14.8 13.8579L9.06666 8.1828L0.933297 16.1016Z" transform="translate(13.1992 13.4609)" fill="#FF7058"/>
<path d="M1.86672 3.69555C2.89768 3.69555 3.73344 2.86827 3.73344 1.84778C3.73344 0.82728 2.89768 0 1.86672 0C0.835759 0 0 0.82728 0 1.84778C0 2.86827 0.835759 3.69555 1.86672 3.69555Z" transform="translate(11.8672 27.1875)" fill="#F1543F"/>
<path d="M1.86672 3.69555C2.89768 3.69555 3.73344 2.86827 3.73344 1.84777C3.73344 0.827276 2.89768 0 1.86672 0C0.835759 0 0 0.827276 0 1.84777C0 2.86827 0.835759 3.69555 1.86672 3.69555Z" transform="translate(20.4004 18.7402)" fill="#F1543F"/>
<path d="M1.86672 3.69555C2.89768 3.69555 3.73344 2.86827 3.73344 1.84777C3.73344 0.827276 2.89768 0 1.86672 0C0.835761 0 0 0.827276 0 1.84777C0 2.86827 0.835761 3.69555 1.86672 3.69555Z" transform="translate(26.2676 24.5488)" fill="#F1543F"/>
<path d="M1.86672 3.69555C2.89768 3.69555 3.73344 2.86827 3.73344 1.84777C3.73344 0.827276 2.89768 0 1.86672 0C0.835759 0 0 0.827276 0 1.84777C0 2.86827 0.835759 3.69555 1.86672 3.69555Z" transform="translate(35.332 15.4414)" fill="#F1543F"/>
<path d="M1.86672 3.69555C2.89768 3.69555 3.73344 2.86827 3.73344 1.84777C3.73344 0.827276 2.89768 0 1.86672 0C0.835759 0 0 0.827276 0 1.84777C0 2.86827 0.835759 3.69555 1.86672 3.69555Z" transform="translate(40.1328 20.1914)" fill="#F1543F"/>
<path d="M1.86672 3.69555C2.89768 3.69555 3.73344 2.86827 3.73344 1.84777C3.73344 0.827276 2.89768 0 1.86672 0C0.835759 0 0 0.827276 0 1.84777C0 2.86827 0.835759 3.69555 1.86672 3.69555Z" transform="translate(48.2676 12.0098)" fill="#F1543F"/>
<path d="M15.3333 0H1.33334C0.533386 0 0 0.527972 0 1.3198V23.4924C0 24.2843 0.533386 24.8123 1.33334 24.8123H15.3333C16.1332 24.8123 16.6666 24.2843 16.6666 23.4924V1.3198C16.6666 0.527846 16.1334 0 15.3333 0Z" transform="translate(45.7324 27.1875)" fill="#334A5E"/>
<path d="M12.6666 0H0V16.8934H12.6666V0Z" transform="translate(47.7734 30.2246)" fill="#84DBFF"/>
<path d="M4.40005 0H0.266692C0.133346 0 0 0.131992 0 0.263985C0 0.395978 0.133346 0.52797 0.266692 0.52797H4.40005C4.53339 0.52797 4.66674 0.395978 4.66674 0.263985C4.66674 0.131992 4.53339 0 4.40005 0Z" transform="translate(51.7324 28.377)" fill="#ACB3BA"/>
<path d="M1.19999 2.37562C1.86272 2.37562 2.39998 1.84382 2.39998 1.18781C2.39998 0.531799 1.86272 0 1.19999 0C0.537253 0 0 0.531799 0 1.18781C0 1.84382 0.537253 2.37562 1.19999 2.37562Z" transform="translate(52.8008 48.3027)" fill="#ACB3BA"/>
<path d="M1.33334 3.95941L0 2.63961C0.533385 2.11163 0.799948 1.4518 0.799948 0.659965C0.799948 0.527972 0.799948 0.395978 0.799948 0.263985L2.66667 0C2.93336 1.45179 2.53333 2.90359 1.33334 3.95941Z" transform="translate(56.1328 38.0098)" fill="#40596B"/>
<path d="M3.46675 3.56343L1.60003 3.82741C1.46668 2.90359 0.933425 2.11163 0 1.71578L0.9333 0C2.40011 0.791831 3.3334 1.97977 3.46675 3.56343Z" transform="translate(55.332 34.3164)" fill="#F2F2F2"/>
<path d="M4.53327 0.494878L3.59997 2.21066C3.19993 1.94667 2.80002 1.94667 2.26663 1.94667C1.73325 1.94667 1.33334 2.07866 0.933296 2.21066L0 0.494878C1.5999 -0.164959 3.06658 -0.164959 4.53327 0.494878Z" transform="translate(51.7324 33.8203)" fill="#84DBFF"/>
<path d="M8.20007 7.65483C6.33335 9.5026 3.26676 9.5026 1.40004 7.65483C-0.46668 5.80705 -0.46668 2.7716 1.40004 0.923823C1.80008 0.527844 2.19999 0.263986 2.60003 0L3.53333 1.71578C2.60003 2.24375 1.9333 3.16757 1.9333 4.22339C1.9333 5.80718 3.26663 7.12698 4.86666 7.12698C5.66661 7.12698 6.33335 6.863 6.8666 6.33515L8.20007 7.65483Z" transform="translate(49.2676 34.3164)" fill="#FF7058"/>
</svg>
