<svg width="64" height="64" viewBox="0 0 64 64" fill="none" xmlns="http://www.w3.org/2000/svg">
<path d="M64 32.0001C64 34.6667 63.7333 37.2001 63.0667 39.6C62.6667 41.2001 62.1334 42.6668 61.6 44.1334C60.2667 47.6001 58.2667 50.6668 55.8666 53.3334C54.8 54.5334 53.7333 55.6001 52.4 56.6667C52.2667 56.6667 52.2667 56.8001 52.1333 56.8001C51.7333 57.2001 51.2 57.4667 50.8 57.8667C46.2666 61.2 40.6667 63.3334 34.8 63.8667C34.3999 63.8667 33.8667 63.8667 33.4666 64C32.9332 64 32.5333 64 31.9999 64C31.5999 64 31.0666 64 30.5333 64C30.1332 64 29.6 64 29.1999 63.8667C23.2 63.3333 17.7333 61.2 13.0665 57.8667C12.6665 57.6 12.1332 57.2001 11.7332 56.8001L11.5999 56.6667C10.3999 55.6001 9.19988 54.5334 8.13323 53.3334C5.73326 50.6668 3.73319 47.4667 2.39985 44.1334C1.73325 42.6668 1.33321 41.2001 0.933169 39.6C0.400039 37.2001 0 34.6666 0 32.0001C0 14.2667 14.2667 0 32.0001 0C49.7335 0 64 14.2667 64 32.0001Z" fill="#FF7058"/>
<path d="M26.1333 31.2V35.9999C19.3333 39.5999 13.4667 40.1333 10.9334 40.2666C10.8 40.1333 10.6667 40 10.6667 40C9.4667 38.9333 8.26671 37.8667 7.20007 36.6667C4.80009 34 2.80002 30.7999 1.46668 27.4667C0.800078 26 0.400039 24.5333 0 22.9333L4.13335 20.5333C4.13335 20.5333 5.46669 19.2 5.46669 17.8666C5.46669 17.7333 5.46669 17.5999 5.46669 17.3332C4.66674 16.1333 3.86666 14.6666 3.3334 13.1999C3.20006 13.1999 3.20006 13.1999 3.06671 13.3332C2.40011 13.4666 1.60003 12.3999 1.46668 11.1999C1.33334 10.1333 1.60003 9.06666 2.13329 8.79997C2.13329 8.39993 1.99994 8.00002 1.99994 7.46663C1.99994 3.33328 5.33322 0 9.46657 0C13.5999 0 16.9332 3.33328 16.9332 7.46663C16.9332 7.86667 16.9332 8.26658 16.7999 8.79997C17.3332 9.06666 17.5998 10.1333 17.4665 11.1999C17.3331 12.5333 16.5332 13.4666 15.8664 13.3332C15.7331 13.3332 15.7331 13.3332 15.5997 13.1999C15.0664 14.6666 14.2664 16.1333 13.4665 17.3332C13.4665 17.4666 13.3331 17.7333 13.3331 17.8666C13.3331 19.3333 14.6664 20.5333 14.6664 20.5333L17.7332 22.2667L22.2665 24.8C22.6666 25.0667 23.0665 25.3334 23.4665 25.5999C25.2 27.0668 26.1333 29.0667 26.1333 31.2Z" transform="translate(0.931641 16.666)" fill="#40596B"/>
<path d="M26.1333 22.9333C25.7333 24.5333 25.2 26 24.6667 27.4667C23.3333 30.9333 21.3334 34 18.9333 36.6667C17.8666 37.8667 16.8 38.9333 15.4666 40C15.3333 40 15.3333 40.1333 15.2 40.1333C12.6666 40 6.7999 39.4667 0 35.8666V31.0666C0 28.9334 0.933297 26.9333 2.53333 25.5999C2.93336 25.3333 3.19993 25.0666 3.73331 24.8L8.26671 22.2667L11.3334 20.5333C11.3334 20.5333 12.9334 18.9333 12.5334 17.3332C11.7335 16.1333 10.9334 14.6666 10.4001 13.1999C10.4001 13.1999 10.2668 13.1999 10.1334 13.3332C9.46683 13.4666 8.66675 12.3999 8.5334 11.1999C8.40005 10.1333 8.66675 9.06666 9.2 8.79997C9.2 8.39993 9.06666 8.00002 9.06666 7.46663C9.06666 3.33328 12.3999 0 16.5333 0C20.6666 0 23.9999 3.33328 23.9999 7.46663C23.9999 7.86667 23.9999 8.26658 23.8666 8.79997C24.4 9.06666 24.6665 10.1333 24.5332 11.1999C24.3998 12.5333 23.5999 13.4666 22.9331 13.3332C22.7998 13.3332 22.7998 13.3332 22.6665 13.1999C22.1331 14.6666 21.3331 16.1333 20.5332 17.3332C20.5332 17.4666 20.5332 17.5999 20.5332 17.8666C20.5332 19.3333 21.8665 20.5333 21.8665 20.5333L26.1333 22.9333Z" transform="translate(36.9316 16.666)" fill="#40596B"/>
<path d="M15.3333 4.40005L14.9333 15.7333L7.59998 20.6666L0.266694 15.7333L0 4.53339C0 4.53339 2.39998 2.26676 1.73338 0H13.4667C12.9332 2.13329 15.3333 4.40005 15.3333 4.40005Z" transform="translate(24.3984 31.4629)" fill="#F2F2F2"/>
<path d="M47.7334 15.2001V17.4667C46.6668 18.6667 45.6001 19.7333 44.2668 20.8C44.1334 20.8 44.1334 20.9333 44.0001 20.9333C43.6 21.3334 43.0668 21.5999 42.6667 22C38.1334 25.3333 32.5334 27.4667 26.6667 27.9999C26.2667 27.9999 25.7334 27.9999 25.3334 28.1333C24.8 28.1333 24.4001 28.1333 23.8667 28.1333C23.4667 28.1333 22.9334 28.1333 22.4 28.1333C22 28.1333 21.4667 28.1333 21.0667 27.9999C15.0667 27.4665 9.60004 25.3333 4.93331 22C4.53327 21.7333 4.00001 21.3334 3.59997 20.9333L3.46662 20.8C2.26663 19.7333 1.06664 18.6667 0 17.4667V15.2001C0 11.4668 1.99994 8.00014 5.2 6.13342L10.6667 3.06671L16.1334 0L20.9333 11.6L22.8001 3.73332L21.4667 2.26663H26.2667L24.9333 3.73332L26.8001 11.6L31.6 0L37.0667 3.06671L42.4001 6.13342C45.7335 8.00002 47.7334 11.4668 47.7334 15.2001Z" transform="translate(8.13281 35.8652)" fill="#F2F2F2"/>
<path d="M2.66667 3.73319C4.13943 3.73319 5.33334 2.89749 5.33334 1.86659C5.33334 0.835703 4.13943 0 2.66667 0C1.19391 0 0 0.835703 0 1.86659C0 2.89749 1.19391 3.73319 2.66667 3.73319Z" transform="translate(21.6973 24.7949) rotate(-112.421)" fill="#F2F2F2"/>
<path d="M1.8666 5.33334C2.89749 5.33334 3.73319 4.13943 3.73319 2.66667C3.73319 1.19391 2.89749 0 1.8666 0C0.835705 0 0 1.19391 0 2.66667C0 4.13943 0.835705 5.33334 1.8666 5.33334Z" transform="translate(42.2754 24.7285) rotate(-157.579)" fill="#F2F2F2"/>
<path d="M21.3334 10.6667C21.3334 11.2001 21.3334 11.8667 21.2 12.5334C20.4001 18.8001 16 29.0667 10.6667 29.0667C5.33334 29.0667 0.933297 18.9334 0.133346 12.5334C-2.28174e-07 11.8668 0 11.2001 0 10.6667C0 4.80009 4.79996 0 10.6667 0C16.5334 0 21.3334 4.79996 21.3334 10.6667Z" transform="translate(21.334 6.53125)" fill="#F2F2F2"/>
<path d="M21.0669 10.6667C21.0669 11.2001 21.0669 11.8667 20.9336 12.5334C20.6669 11.4668 19.4669 7.73345 18.2669 9.20013C17.8669 9.73352 16.9336 9.60017 16.6669 8.93344C16.4002 8.26684 16.2669 7.46676 16.2669 6.66681C16.2669 5.86686 15.4669 5.20012 14.8002 5.46682C14.2668 5.60016 13.6002 6.13342 13.0668 7.06685C13.0668 7.06685 12.2668 8.26684 10.5335 8.40018C8.80009 8.26684 8.00014 7.06685 8.00014 7.06685C7.33354 6.13355 6.66681 5.60016 6.26677 5.46682C5.46682 5.20012 4.80009 5.86686 4.80009 6.66681C4.80009 7.46676 4.66674 8.26684 4.40005 8.93344C4.13336 9.60005 3.3334 9.73339 2.80002 9.20013C1.60003 7.6001 0.400039 11.4668 0.133346 12.5334C-2.28174e-07 11.8668 0 11.2001 0 10.6667C0 4.80009 4.79996 0 10.6667 0C16.267 0 21.0669 4.79996 21.0669 10.6667Z" transform="translate(21.5996 6.53125)" fill="#F2F2F2"/>
</svg>
