<svg width="54" height="64" viewBox="0 0 54 64" fill="none" xmlns="http://www.w3.org/2000/svg">
<path d="M0 0L8.41084 8.26658L16.8218 0H0Z" transform="translate(18.8574 27.8672)" fill="#F8B64C"/>
<path d="M31.0662 0H0V34.1334H31.0662V0Z" transform="translate(11.666 18.2676)" fill="#40596B"/>
<path d="M19.8064 17.9333C13.159 18.7333 6.64735 18.7333 0 17.9333C0.949584 12.1999 0.949584 6.46669 0 0.599963C6.64735 -0.199988 13.159 -0.199988 19.8064 0.599963C18.8567 6.46656 18.8567 12.1999 19.8064 17.9333Z" transform="translate(17.3652 32.1992)" fill="#F8B64C"/>
<path d="M0 0V12.9333C0 20.4 6.24033 26.5334 13.8374 26.5334C21.4345 26.5334 27.6748 20.4001 27.6748 12.9333V0H0Z" transform="translate(13.4297 14.9336)" fill="#FFD15C"/>
<path d="M15.6009 0C7.05424 0 0 6.80003 0 15.2H31.2018C31.2018 6.7999 24.1475 0 15.6009 0Z" transform="translate(11.666 3.06641)" fill="#40596B"/>
<path d="M36.8995 18.9334H35.0002C35.0002 9.4667 27.539 1.73338 18.4496 1.73338C9.3603 1.73338 1.8993 9.4667 1.8993 18.9334H0C0 8.40006 8.2753 0 18.4498 0C28.6242 0 36.8995 8.53328 36.8995 18.9334Z" transform="translate(8.81836)" fill="#CDD6E0"/>
<path d="M8.95366 8.00002H0V6.26664H8.95354C10.5815 6.26664 11.9381 4.93331 11.9381 3.33328V0H13.8374V3.33328C13.8374 5.8666 11.6667 8.00002 8.95366 8.00002Z" transform="translate(29.8457 29.0664)" fill="#F2F2F2"/>
<path d="M5.96911 0H1.8993C0.81404 0 0 0.933297 0 1.86672V2.26676C0 3.3334 0.949584 4.13348 1.8993 4.13348H5.96911C7.05437 4.13348 7.86841 3.20019 7.86841 2.26676V1.86672C7.86828 0.933297 7.05437 0 5.96911 0Z" transform="translate(23.334 34)" fill="#ACB3BA"/>
<path d="M1.08526 0H0V6.80003H1.08526C1.89917 6.80003 2.44186 6.26664 2.44186 5.46669V1.33333C2.44186 0.533384 1.7635 0 1.08526 0Z" transform="translate(46.9375 20.4004)" fill="#CDD6E0"/>
<path d="M0 1.33333V5.46669C0 6.26664 0.542694 6.80003 1.3566 6.80003H2.44186V0H1.3566C0.678238 0.133346 0 0.666731 0 1.33333Z" transform="translate(5.1543 20.2676)" fill="#CDD6E0"/>
<path d="M3.12023 0H0V10.8H3.12023C4.61251 10.8 5.83344 9.60004 5.83344 8.13336V2.66667C5.83344 1.19999 4.61251 0 3.12023 0Z" transform="translate(41.1055 18.2656)" fill="#FF7058"/>
<path d="M0 2.66667V8.13336C0 9.60004 1.22093 10.8 2.71321 10.8H5.83344V0H2.71321C1.22093 0 0 1.19999 0 2.66667Z" transform="translate(7.59766 18.2656)" fill="#FF7058"/>
<path d="M1.49228 4.13335V0L0 4.13335H1.49228Z" transform="translate(33.5098 14.1348)" fill="#FFD15C"/>
<path d="M1.76349 3.06671V0L0 3.06671H1.76349Z" transform="translate(22.6562 15.2012)" fill="#FFD15C"/>
<path d="M0 0L9.36056 9.2L18.7211 0H0Z" transform="translate(17.9082 45.332)" fill="#F8B64C"/>
<path d="M37.8492 0H36.4926L27.1321 9.2L17.7715 0H16.4149C7.32571 0 0 7.19993 0 16.1334V18.6667H53.9927V16.1334C54.2642 7.20006 46.9384 0 37.8492 0Z" transform="translate(0 45.332)" fill="#FF7058"/>
</svg>
