<svg width="64" height="64" viewBox="0 0 64 64" fill="none" xmlns="http://www.w3.org/2000/svg">
<path d="M11.7333 8.26677H0L1.99994 4.00004L3.73331 0H8L9.73337 4.00004L11.7333 8.26677Z" transform="translate(26.1328 44.4004)" fill="#FF7058"/>
<path d="M29.3333 0H2.66667C1.19999 0 0 1.2 0 2.66669V11.3334H31.8667V2.66669C32 1.2 30.8 0 29.3333 0Z" transform="translate(16 52.666)" fill="#FFD15C"/>
<path d="M7.73343 4.13338C6.66679 4.66677 5.60015 5.20003 4.53338 5.60007L3.86678 5.73342L3.20005 5.46673C2.13341 5.06669 1.06677 4.53342 0 4.00003L1.73337 0H5.86672L7.73343 4.13338Z" transform="translate(28.1328 44.2676)" fill="#F1543F"/>
<path d="M0 0V5.46673C0 18.8002 8.26669 30.2669 19.8667 35.067C23.6 36.6671 27.7333 37.467 32 37.467C36.2667 37.467 40.4 36.6671 44.1333 35.067C55.7333 30.267 64 18.8002 64 5.46686V0H0ZM58.6665 5.46673C58.6665 11.8668 56.3999 17.7335 52.5333 22.4002C47.6 28.2668 40.2666 32.1336 32 32.1336C23.7334 32.1336 16.4 28.4003 11.4667 22.4002C7.73344 17.8667 5.33346 11.8668 5.33346 5.46673V5.33338H58.5332V5.46673H58.6665Z" transform="translate(0 7.33398)" fill="#F8B64C"/>
<path d="M43.2001 0H1.60003C0.666731 0 0 0.799956 0 1.60004C0 2.53334 0.666603 3.33343 1.60003 3.33343H43.2001C44.1333 3.33343 44.8001 2.53347 44.8001 1.73339C44.7999 0.799956 44.1333 0 43.2001 0Z" transform="translate(9.59961)" fill="#F8B64C"/>
<path d="M41.5999 0V14.4001C41.5999 27.7336 33.3332 39.867 20.7999 44.667C8.26669 39.7337 0 27.7336 0 14.2668V0H41.5999Z" transform="translate(11.1992 3.33398)" fill="#FFD15C"/>
<path d="M11.7334 0L14.5333 8.53333H23.4667L16.2667 13.8667L18.9334 22.4002L11.7334 17.0668L4.53338 22.4002L7.20005 13.8667L0 8.53333H8.93342L11.7334 0Z" transform="translate(20.2676 9.33398)" fill="white"/>
<path d="M41.4666 0H0V1.99995H41.4666V0Z" transform="translate(11.1992 3.33398)" fill="#FFC952"/>
</svg>
