<svg width="57" height="57" viewBox="0 0 57 57" fill="none" xmlns="http://www.w3.org/2000/svg">
<rect width="40" height="40" rx="12" transform="translate(28.2852) rotate(45)" fill="white"/>
<path d="M19.4375 8.46875C19.5938 8.53125 19.7188 8.65625 19.8438 8.78125C19.9375 8.9375 20 9.09375 20 9.25C20 10.4688 19.75 11.5625 19.2812 12.5625C18.875 13.4375 18.3125 14.1562 17.625 14.7812C17.0625 15.3125 16.4688 15.6875 15.8438 15.9375C15.5938 16.0312 15.375 16.0312 15.1562 15.9375C14.4375 15.6875 13.7812 15.25 13.1875 14.625C12.5 14 12 13.2188 11.625 12.3438C11.1875 11.4062 11 10.375 11 9.25C11 9.09375 11.0312 8.9375 11.1562 8.78125C11.25 8.65625 11.375 8.53125 11.5625 8.46875L15.1562 7.0625C15.375 7 15.5938 7 15.8438 7.0625L19.4375 8.46875ZM15.5 14.4375C16.1875 14.125 16.7812 13.625 17.3438 12.9062C18.0312 12 18.4062 10.9375 18.5 9.71875L15.5 8.53125V14.4375ZM7 8C6.25 8 5.59375 7.84375 4.96875 7.46875C4.34375 7.125 3.875 6.65625 3.53125 6.03125C3.15625 5.40625 3 4.75 3 4C3 3.28125 3.15625 2.625 3.53125 2C3.875 1.375 4.34375 0.90625 4.96875 0.53125C5.59375 0.1875 6.25 0 7 0C7.71875 0 8.375 0.1875 9 0.53125C9.625 0.90625 10.0938 1.375 10.4688 2C10.8125 2.625 11 3.28125 11 4C11 4.75 10.8125 5.40625 10.4688 6.03125C10.0938 6.65625 9.625 7.125 9 7.46875C8.375 7.84375 7.71875 8 7 8ZM10 9.25C10 10.6875 10.2812 12 10.9062 13.1875C11.4375 14.25 12.1562 15.1562 13.0938 15.875C12.9062 15.9688 12.6875 16 12.5 16H1.5C1.0625 16 0.71875 15.875 0.4375 15.5625C0.125 15.2812 0 14.9375 0 14.5V13.1875C0 12.4375 0.1875 11.75 0.5625 11.0938C0.9375 10.4688 1.4375 9.9375 2.09375 9.5625C2.71875 9.1875 3.4375 9 4.1875 9H4.71875C5.4375 9.34375 6.1875 9.5 7 9.5C7.78125 9.5 8.53125 9.34375 9.28125 9H9.8125L10.0312 9.03125V9.125C10 9.1875 10 9.21875 10 9.25Z" transform="translate(20 20)" fill="#465EDB"/>
</svg>
