<svg width="57" height="57" viewBox="0 0 57 57" fill="none" xmlns="http://www.w3.org/2000/svg">
<rect width="40" height="40" rx="12" transform="translate(28.2852) rotate(45)" fill="white"/>
<path d="M3 7C2.4375 7 1.96875 6.8125 1.59375 6.40625C1.1875 6.03125 1 5.5625 1 5C1 4.46875 1.1875 4 1.59375 3.59375C1.96875 3.21875 2.4375 3 3 3C3.53125 3 4 3.21875 4.40625 3.59375C4.78125 4 5 4.46875 5 5C5 5.5625 4.78125 6.03125 4.40625 6.40625C4 6.8125 3.53125 7 3 7ZM17 7C16.4375 7 15.9688 6.8125 15.5938 6.40625C15.1875 6.03125 15 5.5625 15 5C15 4.46875 15.1875 4 15.5938 3.59375C15.9688 3.21875 16.4375 3 17 3C17.5312 3 18 3.21875 18.4062 3.59375C18.7812 4 19 4.46875 19 5C19 5.5625 18.7812 6.03125 18.4062 6.40625C18 6.8125 17.5312 7 17 7ZM18 8C18.5312 8 19 8.21875 19.4062 8.59375C19.7812 9 20 9.46875 20 10V11C20 11.2812 19.875 11.5312 19.6875 11.7188C19.5 11.9062 19.25 12 19 12H16.9375C16.8125 11.2812 16.5625 10.625 16.1562 10C15.7188 9.40625 15.2188 8.9375 14.5938 8.59375C14.9688 8.21875 15.4375 8 16 8H18ZM10 8C9.375 8 8.78125 7.84375 8.25 7.53125C7.6875 7.21875 7.28125 6.8125 6.96875 6.25C6.65625 5.71875 6.5 5.125 6.5 4.5C6.5 3.875 6.65625 3.3125 6.96875 2.75C7.28125 2.21875 7.6875 1.78125 8.25 1.46875C8.78125 1.15625 9.375 1 10 1C10.625 1 11.1875 1.15625 11.75 1.46875C12.2812 1.78125 12.7188 2.21875 13.0312 2.75C13.3438 3.3125 13.5 3.875 13.5 4.5C13.5 5.125 13.3438 5.71875 13.0312 6.25C12.7188 6.8125 12.2812 7.21875 11.75 7.53125C11.1875 7.84375 10.625 8 10 8ZM12.4062 9C13.0312 9 13.625 9.1875 14.1875 9.5C14.75 9.8125 15.1875 10.25 15.5 10.8125C15.8125 11.375 16 11.9688 16 12.5938V13.5C16 13.9375 15.8438 14.2812 15.5625 14.5625C15.25 14.875 14.9062 15 14.5 15H5.5C5.0625 15 4.71875 14.875 4.4375 14.5625C4.125 14.2812 4 13.9375 4 13.5V12.5938C4 11.9688 4.15625 11.375 4.46875 10.8125C4.78125 10.25 5.21875 9.8125 5.78125 9.5C6.34375 9.1875 6.9375 9 7.59375 9H7.84375C8.53125 9.34375 9.25 9.5 10 9.5C10.7188 9.5 11.4375 9.34375 12.1562 9H12.4062ZM5.40625 8.59375C4.78125 8.9375 4.25 9.40625 3.84375 10C3.40625 10.625 3.15625 11.2812 3.0625 12H1C0.71875 12 0.46875 11.9062 0.28125 11.7188C0.09375 11.5312 0 11.2812 0 11V10C0 9.46875 0.1875 9 0.59375 8.59375C0.96875 8.21875 1.4375 8 2 8H4C4.53125 8 5 8.21875 5.40625 8.59375Z" transform="translate(18 20)" fill="#465EDB"/>
</svg>
