<svg width="57" height="57" viewBox="0 0 57 57" fill="none" xmlns="http://www.w3.org/2000/svg">
<rect width="40" height="40" rx="12" transform="translate(28.2852) rotate(45)" fill="white"/>
<path d="M4.65625 6.75C4.65625 6.5625 4.5625 6.375 4.4375 6.21875C4.28125 6.09375 4.09375 6 3.90625 6H0.75C0.53125 6 0.34375 6.09375 0.21875 6.21875C0.0625 6.375 0 6.5625 0 6.75V9.25C0 9.46875 0.0625 9.65625 0.21875 9.78125C0.34375 9.9375 0.53125 10 0.75 10H3.90625C4.09375 10 4.28125 9.9375 4.4375 9.78125C4.5625 9.65625 4.65625 9.46875 4.65625 9.25V6.75ZM0 11.75C0 11.5625 0.0625 11.375 0.21875 11.2188C0.34375 11.0938 0.53125 11 0.75 11H3.90625C4.09375 11 4.28125 11.0938 4.4375 11.2188C4.5625 11.375 4.65625 11.5625 4.65625 11.75V14.25C4.65625 14.4688 4.5625 14.6562 4.4375 14.7812C4.28125 14.9375 4.09375 15 3.90625 15H0.75C0.53125 15 0.34375 14.9375 0.21875 14.7812C0.0625 14.6562 0 14.4688 0 14.25V11.75ZM3.90625 1C4.09375 1 4.28125 1.09375 4.4375 1.21875C4.5625 1.375 4.65625 1.5625 4.65625 1.75V4.25C4.65625 4.46875 4.5625 4.65625 4.4375 4.78125C4.28125 4.9375 4.09375 5 3.90625 5H0.75C0.53125 5 0.34375 4.9375 0.21875 4.78125C0.0625 4.65625 0 4.46875 0 4.25V1.75C0 1.5625 0.0625 1.375 0.21875 1.21875C0.34375 1.09375 0.53125 1 0.75 1H3.90625ZM6.40625 15C6.1875 15 6 14.9375 5.875 14.7812C5.71875 14.6562 5.65625 14.4688 5.65625 14.25V11.75C5.65625 11.5625 5.71875 11.375 5.875 11.2188C6 11.0938 6.1875 11 6.40625 11H15.25C15.4375 11 15.625 11.0938 15.7812 11.2188C15.9062 11.375 16 11.5625 16 11.75V14.25C16 14.4688 15.9062 14.6562 15.7812 14.7812C15.625 14.9375 15.4375 15 15.25 15H6.40625ZM5.65625 1.75C5.65625 1.5625 5.71875 1.375 5.875 1.21875C6 1.09375 6.1875 1 6.40625 1H15.25C15.4375 1 15.625 1.09375 15.7812 1.21875C15.9062 1.375 16 1.5625 16 1.75V4.25C16 4.46875 15.9062 4.65625 15.7812 4.78125C15.625 4.9375 15.4375 5 15.25 5H6.40625C6.1875 5 6 4.9375 5.875 4.78125C5.71875 4.65625 5.65625 4.46875 5.65625 4.25V1.75ZM6.40625 10C6.1875 10 6 9.9375 5.875 9.78125C5.71875 9.65625 5.65625 9.46875 5.65625 9.25V6.75C5.65625 6.5625 5.71875 6.375 5.875 6.21875C6 6.09375 6.1875 6 6.40625 6H15.25C15.4375 6 15.625 6.09375 15.7812 6.21875C15.9062 6.375 16 6.5625 16 6.75V9.25C16 9.46875 15.9062 9.65625 15.7812 9.78125C15.625 9.9375 15.4375 10 15.25 10H6.40625Z" transform="translate(20 21)" fill="#465EDB"/>
</svg>
