<svg width="57" height="57" viewBox="0 0 57 57" fill="none" xmlns="http://www.w3.org/2000/svg">
<rect width="40" height="40" rx="12" transform="translate(28.2852) rotate(45)" fill="white"/>
<path d="M8.09375 0.5625C8.21875 0.3125 8.375 0.15625 8.625 0.0625C8.875 0 9.09375 0 9.34375 0.0625C9.59375 0.15625 9.78125 0.3125 9.90625 0.5625L11.9375 4.6875L16.5 5.34375C16.75 5.40625 16.9688 5.53125 17.125 5.71875C17.2812 5.9375 17.3438 6.15625 17.3438 6.40625C17.3438 6.65625 17.25 6.875 17.0625 7.0625L13.75 10.2812L14.5312 14.8438C14.5625 15.0938 14.5 15.3438 14.375 15.5625C14.25 15.7812 14.0625 15.9062 13.8125 15.9688C13.5625 16.0312 13.3125 16 13.0938 15.875L9 13.75L4.90625 15.875C4.65625 16 4.4375 16.0312 4.1875 15.9688C3.9375 15.9062 3.71875 15.7812 3.59375 15.5625C3.46875 15.3438 3.40625 15.0938 3.46875 14.8438L4.25 10.2812L0.9375 7.0625C0.75 6.875 0.625 6.65625 0.625 6.40625C0.625 6.15625 0.6875 5.9375 0.84375 5.71875C1 5.53125 1.21875 5.40625 1.5 5.34375L6.0625 4.6875L8.09375 0.5625Z" transform="translate(19 20)" fill="#465EDB"/>
</svg>
