<svg width="20" height="15" viewBox="0 0 20 15" fill="none" xmlns="http://www.w3.org/2000/svg">
<path opacity="0.8" d="M19.5312 15.5H2.5V3.46875C2.5 3.35156 2.42188 3.23438 2.34375 3.15625C2.26562 3.07812 2.14844 3 2.03125 3H0.46875C0.3125 3 0.195312 3.07812 0.117188 3.15625C0.0390625 3.23438 0 3.35156 0 3.46875V17.5312C0 17.6875 0.0390625 17.8047 0.117188 17.8828C0.195312 17.9609 0.3125 18 0.46875 18H19.5312C19.6484 18 19.7656 17.9609 19.8438 17.8828C19.9219 17.8047 20 17.6875 20 17.5312V15.9688C20 15.8516 19.9219 15.7344 19.8438 15.6562C19.7656 15.5781 19.6484 15.5 19.5312 15.5ZM7.5 13.7812C7.5 13.9375 7.42188 14.0547 7.34375 14.1328C7.26562 14.2109 7.14844 14.25 7.03125 14.25H5.46875C5.3125 14.25 5.19531 14.2109 5.11719 14.1328C5.03906 14.0547 5 13.9375 5 13.7812V10.9688C5 10.8516 5.03906 10.7344 5.11719 10.6562C5.19531 10.5781 5.3125 10.5 5.46875 10.5H7.03125C7.14844 10.5 7.26562 10.5781 7.34375 10.6562C7.42188 10.7344 7.5 10.8516 7.5 10.9688V13.7812ZM15 13.7812C15 13.9375 14.9219 14.0547 14.8438 14.1328C14.7656 14.2109 14.6484 14.25 14.5312 14.25H12.9688C12.8125 14.25 12.6953 14.2109 12.6172 14.1328C12.5391 14.0547 12.5 13.9375 12.5 13.7812V8.46875C12.5 8.35156 12.5391 8.23438 12.6172 8.15625C12.6953 8.07812 12.8125 8 12.9688 8H14.5312C14.6484 8 14.7656 8.07812 14.8438 8.15625C14.9219 8.23438 15 8.35156 15 8.46875V13.7812ZM11.25 13.7812C11.25 13.9375 11.1719 14.0547 11.0938 14.1328C11.0156 14.2109 10.8984 14.25 10.7812 14.25H9.21875C9.0625 14.25 8.94531 14.2109 8.86719 14.1328C8.78906 14.0547 8.75 13.9375 8.75 13.7812V5.96875C8.75 5.85156 8.78906 5.73438 8.86719 5.65625C8.94531 5.57812 9.0625 5.5 9.21875 5.5H10.7812C10.8984 5.5 11.0156 5.57812 11.0938 5.65625C11.1719 5.73438 11.25 5.85156 11.25 5.96875V13.7812ZM18.75 13.7812C18.75 13.9375 18.6719 14.0547 18.5938 14.1328C18.5156 14.2109 18.3984 14.25 18.2812 14.25H16.7188C16.5625 14.25 16.4453 14.2109 16.3672 14.1328C16.2891 14.0547 16.25 13.9375 16.25 13.7812V4.71875C16.25 4.60156 16.2891 4.48438 16.3672 4.40625C16.4453 4.32812 16.5625 4.25 16.7188 4.25H18.2812C18.3984 4.25 18.5156 4.32812 18.5938 4.40625C18.6719 4.48438 18.75 4.60156 18.75 4.71875V13.7812Z" transform="translate(0 -3)" fill="#465EDB"/>
</svg>
