<svg width="40" height="34" viewBox="0 0 40 34" fill="none" xmlns="http://www.w3.org/2000/svg">
<path d="M35.8594 11.875C37.4219 10.7031 38.8281 9.29688 40 7.57812C38.4375 8.28125 36.875 8.75 35.3125 8.90625C37.0312 7.8125 38.2812 6.32812 38.9062 4.375C37.2656 5.3125 35.5469 6.01562 33.6719 6.32812C32.8906 5.54688 31.9531 4.92188 30.9375 4.45312C29.9219 3.98438 28.8281 3.75 27.6562 3.75C26.1719 3.75 24.8438 4.14062 23.5938 4.84375C22.3438 5.625 21.3281 6.64062 20.625 7.89062C19.8438 9.14062 19.5312 10.5469 19.5312 11.9531C19.5312 12.5781 19.5312 13.2031 19.6875 13.8281C16.3281 13.6719 13.2031 12.8906 10.2344 11.3281C7.26562 9.84375 4.84375 7.8125 2.8125 5.23438C2.03125 6.5625 1.64062 7.96875 1.64062 9.375C1.64062 10.7812 1.95312 12.1094 2.65625 13.2812C3.28125 14.5312 4.21875 15.4688 5.3125 16.25C3.98438 16.25 2.73438 15.8594 1.64062 15.1562V15.3125C1.64062 17.2656 2.26562 18.9844 3.51562 20.4688C4.76562 22.0312 6.32812 22.9688 8.20312 23.3594C7.42188 23.5156 6.71875 23.5938 6.01562 23.5938C5.54688 23.5938 5 23.5938 4.53125 23.5156C5 25.1562 5.9375 26.4844 7.34375 27.5781C8.75 28.6719 10.3125 29.1406 12.1875 29.1406C9.14062 31.4844 5.70312 32.6562 1.95312 32.6562C1.17188 32.6562 0.546875 32.6562 0 32.5781C3.75 35.0781 7.96875 36.25 12.5781 36.25C17.3438 36.25 21.5625 35.0781 25.3125 32.5781C28.6719 30.3906 31.3281 27.5 33.2031 23.75C35 20.3125 35.9375 16.6406 35.9375 12.8906C35.9375 12.4219 35.8594 12.1094 35.8594 11.875Z" transform="translate(0 -3)" fill="#1DA1F2"/>
</svg>
