<svg width="43" height="30" viewBox="0 0 43 30" fill="none" xmlns="http://www.w3.org/2000/svg">
<path d="M42.9688 9.6875C43.2812 11.0938 43.5938 13.2812 43.75 16.0938L43.8281 20L43.75 23.9062C43.5938 26.875 43.2812 28.9844 42.9688 30.3906C42.6562 31.3281 42.1875 32.1094 41.5625 32.7344C40.8594 33.4375 40.0781 33.9062 39.1406 34.1406C37.7344 34.5312 34.6094 34.7656 29.6094 34.9219L22.5 35L15.3906 34.9219C10.3906 34.7656 7.1875 34.5312 5.85938 34.1406C4.92188 33.9062 4.0625 33.4375 3.4375 32.7344C2.73438 32.1094 2.26562 31.3281 2.03125 30.3906C1.64062 28.9844 1.40625 26.875 1.25 23.9062L1.17188 20C1.17188 18.9062 1.17188 17.5781 1.25 16.0938C1.40625 13.2812 1.64062 11.0938 2.03125 9.6875C2.26562 8.75 2.73438 7.96875 3.4375 7.26562C4.0625 6.64062 4.92188 6.17188 5.85938 5.85938C7.1875 5.54688 10.3906 5.23438 15.3906 5.07812L22.5 5L29.6094 5.07812C34.6094 5.23438 37.7344 5.54688 39.1406 5.85938C40.0781 6.17188 40.8594 6.64062 41.5625 7.26562C42.1875 7.96875 42.6562 8.75 42.9688 9.6875ZM18.125 26.4062L29.2969 20L18.125 13.6719V26.4062Z" transform="translate(-1 -5)" fill="#FF0000"/>
</svg>
