<svg width="64" height="84" viewBox="0 0 64 84" fill="none" xmlns="http://www.w3.org/2000/svg">
<path d="M58.182 0H34.9092C34.9092 1.59962 33.6066 2.89655 32.0001 2.89655C30.3935 2.89655 29.091 1.59962 29.091 0H5.81814C2.6049 0 0 2.59369 0 5.7931V72.4145C0 75.6139 2.6049 78.2076 5.81814 78.2076H58.1819C61.3951 78.2076 64 75.6139 64 72.4145V5.79326C64.0002 2.59369 61.3953 0 58.182 0Z" transform="translate(0 5.79297)" fill="#E1C3A0"/>
<path d="M50.9093 66.6214H1.45462C0.651348 66.6214 0 65.9729 0 65.1731V1.44836C0 0.648544 0.651348 0 1.45462 0H50.9093C51.7125 0 52.3639 0.648544 52.3639 1.44836V65.1731C52.3639 65.9729 51.7125 66.6214 50.9093 66.6214Z" transform="translate(5.81787 11.584)" fill="white"/>
<path d="M13.0909 26.0691C20.3208 26.0691 26.1818 20.2333 26.1818 13.0345C26.1818 5.83577 20.3208 0 13.0909 0C5.86099 0 0 5.83577 0 13.0345C0 20.2333 5.86099 26.0691 13.0909 26.0691Z" transform="translate(29.0908 49.2422)" fill="#E4EAF6"/>
<path d="M24.7273 2.89655H19.5567C18.6769 1.39143 17.1488 0.328784 15.3424 0.0800632C15.0835 0.0318284 14.819 0 14.5455 0C14.272 0 14.0075 0.0318284 13.7487 0.0800632C11.9423 0.328784 10.4142 1.39143 9.53427 2.89655H4.36369C1.95371 2.89655 0 4.84185 0 7.24145V13.0345C0 13.8344 0.651348 14.4829 1.45462 14.4829H27.6366C28.4398 14.4829 29.0912 13.8344 29.0912 13.0345V7.24145C29.091 4.84185 27.1373 2.89655 24.7273 2.89655ZM14.5455 7.96563C13.3405 7.96563 12.3637 6.9929 12.3637 5.79326C12.3637 4.59363 13.3405 3.62073 14.5455 3.62073C15.7505 3.62073 16.7273 4.59346 16.7273 5.7931C16.7273 6.99273 15.7505 7.96563 14.5455 7.96563Z" transform="translate(17.4546)" fill="#C7CFE2"/>
<path d="M21.8183 2.89671H1.45462C0.651348 2.89671 0 2.24817 0 1.44836C0 0.648544 0.651348 0 1.45462 0H21.8183C22.6215 0 23.2729 0.648544 23.2729 1.44836C23.2729 2.24817 22.6215 2.89671 21.8183 2.89671Z" transform="translate(20.3638 11.5879)" fill="#AFB9D2"/>
<path d="M21.8183 2.89671H1.45462C0.651348 2.89671 0 2.24817 0 1.44836C0 0.648544 0.651348 0 1.45462 0H21.8183C22.6215 0 23.2729 0.648544 23.2729 1.44836C23.2729 2.24833 22.6215 2.89671 21.8183 2.89671Z" transform="translate(20.3638 20.2773)" fill="#AFB9D2"/>
<path d="M27.6364 2.89671H1.45462C0.651348 2.89671 0 2.24817 0 1.44836C0 0.648545 0.651348 0 1.45462 0H27.6366C28.4398 0 29.0912 0.648545 29.0912 1.44836C29.091 2.24817 28.4397 2.89671 27.6364 2.89671Z" transform="translate(17.4546 26.0723)" fill="#AFB9D2"/>
<path d="M5.8183 2.89671H1.45462C0.651348 2.89671 0 2.24817 0 1.44836C0 0.648545 0.651348 0 1.45462 0H5.8183C6.62157 0 7.27292 0.648545 7.27292 1.44836C7.27292 2.24817 6.62157 2.89671 5.8183 2.89671Z" transform="translate(11.6372 33.3086)" fill="#C7CFE2"/>
<path d="M5.8183 2.89671H1.45462C0.651348 2.89671 0 2.24817 0 1.44836C0 0.648545 0.651348 0 1.45462 0H5.8183C6.62157 0 7.27292 0.648545 7.27292 1.44836C7.27292 2.24833 6.62157 2.89671 5.8183 2.89671Z" transform="translate(11.6362 44.8965)" fill="#C7CFE2"/>
<path d="M5.8183 2.89671H1.45462C0.651348 2.89671 0 2.24817 0 1.44836C0 0.648545 0.651348 0 1.45462 0H5.8183C6.62157 0 7.27292 0.648545 7.27292 1.44836C7.27292 2.24817 6.62157 2.89671 5.8183 2.89671Z" transform="translate(11.6362 39.1055)" fill="#C7CFE2"/>
<path d="M29.0912 2.89671H1.45462C0.651348 2.89671 0 2.24817 0 1.44836C0 0.648545 0.651348 0 1.45462 0H29.091C29.8943 0 30.5456 0.648545 30.5456 1.44836C30.5456 2.24817 29.8945 2.89671 29.0912 2.89671Z" transform="translate(21.8184 33.3086)" fill="#D7DEED"/>
<path d="M29.0912 2.89671H1.45462C0.651348 2.89671 0 2.24817 0 1.44836C0 0.648545 0.651348 0 1.45462 0H29.091C29.8943 0 30.5456 0.648545 30.5456 1.44836C30.5456 2.24833 29.8945 2.89671 29.0912 2.89671Z" transform="translate(21.8184 44.8965)" fill="#D7DEED"/>
<path d="M5.8183 2.89671H1.45462C0.651348 2.89671 0 2.24817 0 1.44836C0 0.648545 0.651348 0 1.45462 0H5.8183C6.62157 0 7.27292 0.648545 7.27292 1.44836C7.27292 2.24817 6.62157 2.89671 5.8183 2.89671Z" transform="translate(11.6367 50.6895)" fill="#C7CFE2"/>
<path d="M20.3638 2.89671H1.45462C0.651348 2.89671 0 2.24817 0 1.44836C0 0.648545 0.651348 0 1.45462 0H20.3638C21.1671 0 21.8184 0.648545 21.8184 1.44836C21.8184 2.24817 21.1671 2.89671 20.3638 2.89671Z" transform="translate(21.8179 50.6895)" fill="#D7DEED"/>
<path d="M5.8183 2.89671H1.45462C0.651348 2.89671 0 2.24817 0 1.44836C0 0.648545 0.651348 0 1.45462 0H5.8183C6.62157 0 7.27292 0.648545 7.27292 1.44836C7.27292 2.24817 6.62157 2.89671 5.8183 2.89671Z" transform="translate(11.6367 56.4844)" fill="#C7CFE2"/>
<path d="M20.3638 2.89671H1.45462C0.651348 2.89671 0 2.24817 0 1.44836C0 0.648545 0.651348 0 1.45462 0H20.3638C21.1671 0 21.8184 0.648545 21.8184 1.44836C21.8184 2.24817 21.1671 2.89671 20.3638 2.89671Z" transform="translate(21.8184 56.4844)" fill="#D7DEED"/>
<path d="M29.0912 2.89671H1.45462C0.651348 2.89671 0 2.24817 0 1.44836C0 0.648545 0.651348 0 1.45462 0H29.091C29.8943 0 30.5456 0.648545 30.5456 1.44836C30.5456 2.24817 29.8945 2.89671 29.0912 2.89671Z" transform="translate(21.8184 39.1055)" fill="#D7DEED"/>
<path d="M10.1818 20.276C15.8051 20.276 20.3636 15.7371 20.3636 10.138C20.3636 4.53894 15.8051 0 10.1818 0C4.55856 0 0 4.53894 0 10.138C0 15.7371 4.55856 20.276 10.1818 20.276Z" transform="translate(32 52.1387)" fill="#C3E678"/>
<path d="M14.5455 16.8374C8.9223 16.8374 4.36369 12.2984 4.36369 6.69939C4.36369 4.12785 5.33321 1.78715 6.91767 0C2.89753 1.3555 0 5.13504 0 9.59594C0 15.1949 4.55861 19.7339 10.1818 19.7339C13.2225 19.7339 15.9439 18.3998 17.8097 16.2953C16.7838 16.6413 15.6887 16.8374 14.5455 16.8374Z" transform="translate(32 52.6797)" fill="#A5D76E"/>
<path d="M5.8183 10.138C5.44608 10.138 5.07369 9.99662 4.78979 9.71394L0.426103 5.36903C-0.142034 4.80351 -0.142034 3.88655 0.426103 3.32102C0.994076 2.7555 1.91499 2.7555 2.48297 3.32102L5.8183 6.64151L12.0625 0.424146C12.6305 -0.141382 13.5514 -0.141382 14.1194 0.424146C14.6875 0.989675 14.6875 1.90663 14.1194 2.47216L6.84665 9.71361C6.56275 9.99662 6.19036 10.138 5.8183 10.138Z" transform="translate(34.9092 57.9316)" fill="white"/>
</svg>
