<svg width="64" height="65" viewBox="0 0 64 65" fill="none" xmlns="http://www.w3.org/2000/svg">
<path d="M5.41525 11.5805C7.42713 10.354 9.93101 8.82769 9.93101 5.04302C9.93101 2.26215 7.70351 0 4.9655 0C2.22738 0 0 2.26227 0 5.04302C0 5.66191 0.494126 6.16375 1.1035 6.16375C1.71288 6.16375 2.207 5.66191 2.207 5.04302C2.207 3.49815 3.4445 2.24133 4.96563 2.24133C6.48676 2.24133 7.72426 3.49815 7.72426 5.04302C7.72426 7.43732 6.41526 8.35683 4.27963 9.65885C2.37288 10.8212 0 12.2677 0 15.6895C0 16.3084 0.494126 16.8103 1.1035 16.8103H8.82763C9.43701 16.8103 9.93113 16.3084 9.93113 15.6895C9.93113 15.0707 9.43701 14.5688 8.82763 14.5688H2.35638C2.73825 13.2784 3.83325 12.5451 5.41525 11.5805Z" transform="translate(32 14.5684)" fill="#FF6464"/>
<path d="M9.93133 11.2071H8.82783V1.12103C8.82783 0.502141 8.33371 0.000302887 7.72433 0.000302887C7.11495 0.000302887 6.62083 0.502141 6.62083 1.12103V11.2071H2.44958L4.39245 1.34078C4.51195 0.733828 4.12445 0.143504 3.52683 0.0220113C2.92895 -0.0994813 2.34795 0.294195 2.22833 0.901149L0.0214499 12.1079C-0.0434251 12.4371 0.0405732 12.7786 0.250198 13.0382C0.459824 13.2978 0.772948 13.4484 1.10357 13.4484H6.62083V15.6897C6.62083 16.3086 7.11495 16.8105 7.72433 16.8105C8.33371 16.8105 8.82783 16.3086 8.82783 15.6897V13.4485H9.93133C10.5407 13.4485 11.0348 12.9467 11.0348 12.3278C11.0347 11.7089 10.5407 11.2071 9.93133 11.2071Z" transform="translate(43.0342 14.5664)" fill="#FF6464"/>
<path d="M14.3449 0C6.42251 0 0 6.52264 0 14.5688V40.3443H28.6896V14.5687C28.6898 6.52264 22.2673 0 14.3449 0Z" transform="translate(4.41406 14.5684)" fill="#5A4146"/>
<path d="M41.6417 22.4135C41.6417 10.0546 31.7416 0 19.5727 0C11.4417 0 3.99253 4.52011 0.132276 11.7962C-0.15685 12.3411 0.0437755 13.0208 0.580276 13.3143C1.11665 13.6079 1.78603 13.4042 2.07515 12.8593C5.54978 6.30987 12.2544 2.24133 19.5727 2.24133C30.5247 2.24133 39.4348 11.2906 39.4348 22.4135C39.4348 33.5365 30.5247 42.5857 19.5727 42.5857C19.3612 42.5857 19.1494 42.5812 18.9375 42.5744L20.353 41.1368C20.784 40.6992 20.784 39.9897 20.353 39.5521C19.9222 39.1144 19.2235 39.1144 18.7927 39.5521L15.4823 42.9142C15.0513 43.3518 15.0513 44.0613 15.4823 44.4989L18.7927 47.861C19.0082 48.0798 19.2904 48.1891 19.5729 48.1891C19.8554 48.1891 20.1378 48.0797 20.3532 47.861C20.7842 47.4234 20.7842 46.7138 20.3532 46.2762L18.9159 44.8167C19.1349 44.823 19.3542 44.8272 19.5728 44.8272C31.7416 44.8269 41.6417 34.7724 41.6417 22.4135Z" transform="translate(22.3584)" fill="#E4EAF6"/>
<path d="M35.4802 9.08388L25.6339 4.91721C24.8115 4.56924 24.2758 3.75307 24.2758 2.84816V0H13.2413V2.84828C13.2413 3.75307 12.7055 4.56924 11.8831 4.91734L2.03688 9.08401C0.803626 9.60578 0 10.83 0 12.1872V16.6699C0 17.9078 0.988126 18.9113 2.20688 18.9113H35.3104C36.5292 18.9113 37.5173 17.9078 37.5173 16.67V12.1873C37.5173 10.83 36.7137 9.60578 35.4802 9.08388Z" transform="translate(0 46.0879)" fill="#E6AF78"/>
<path d="M35.4802 3.3665L27.5246 0C25.8541 3.18191 22.5569 5.34922 18.7585 5.34922C14.9601 5.34922 11.6629 3.18178 9.99238 0L2.03688 3.3665C0.803626 3.88839 0 5.11259 0 6.46982V10.9525C0 12.1904 0.988126 13.1939 2.20688 13.1939H35.3104C36.5292 13.1939 37.5173 12.1904 37.5173 10.9526V6.46995C37.5173 5.11259 36.7137 3.88839 35.4802 3.3665Z" transform="translate(0 51.8047)" fill="#E4EAF6"/>
<path d="M2.03713 2.50386C0.803626 3.02576 0 4.24995 0 5.60719V10.0898C0 11.3278 0.988126 12.3313 2.20688 12.3313H13.2414C9.93101 6.72792 7.95451 0 7.95451 0L2.03713 2.50386Z" transform="translate(0 52.668)" fill="#D2555A"/>
<path d="M11.2043 2.50386C12.4378 3.02576 13.2414 4.24995 13.2414 5.60732V10.09C13.2414 11.3278 12.2533 12.3313 11.0345 12.3313H0C3.31038 6.72805 5.28688 0 5.28688 0L11.2043 2.50386Z" transform="translate(24.2759 52.668)" fill="#D2555A"/>
<path d="M13.9304 0H2.89588V2.84828C2.89588 3.75307 2.36013 4.56924 1.53775 4.91734L0 5.56822C11.768 8.61569 13.9304 0 13.9304 0Z" transform="translate(10.3452 46.0879)" fill="#D29B6E"/>
<path d="M5.37838 3.578L0.949126 0C0.35575 0.616349 0 1.44979 0 2.34606V6.82872C0 8.06662 0.988126 9.07017 2.20688 9.07017H6.62063V6.20336C6.62076 5.18203 6.16363 4.21606 5.37838 3.578Z" transform="translate(0 55.9277)" fill="#C04B50"/>
<path d="M10.1023 0.335247C7.64343 2.94829 4.45568 4.83834 0.874427 5.70022C0.330926 5.8311 -0.0460744 6.32964 0.00455067 6.89457L0.737926 15.088C0.870176 16.5652 1.71343 17.8803 2.99005 18.6006L8.73681 21.843C10.0699 22.595 11.6907 22.595 13.0238 21.843L18.7706 18.6006C20.0473 17.8803 20.8904 16.5652 21.0227 15.088L21.7561 6.89457C21.8067 6.32964 21.4296 5.8311 20.8862 5.70022C17.3049 4.83822 14.1172 2.94829 11.6583 0.335247C11.2377 -0.111749 10.5232 -0.111749 10.1023 0.335247Z" transform="translate(7.87842 26.2578)" fill="#F0C087"/>
<path d="M11.6573 0.334802C11.2368 -0.112194 10.5236 -0.11105 10.1021 0.33493C8.69563 1.82293 7.04626 3.06654 5.22913 4.03011C3.86375 4.755 2.4065 5.32641 0.872 5.70053C0.330125 5.83269 -0.045751 6.3292 0.00449904 6.89299L0.738125 15.0891C0.870375 16.5664 1.71363 17.8815 2.99038 18.602L8.73701 21.8443C9.21476 22.1138 9.73013 22.2828 10.2554 22.3591L8.58913 19.3129C7.91725 18.0847 7.50551 16.7274 7.38026 15.328L6.65975 7.27714C6.585 6.44257 6.97175 5.62969 7.67325 5.18854C8.81713 4.4691 9.89463 3.64303 10.8808 2.70587C13.8004 5.48078 17.4759 7.37248 21.448 8.11045L21.5173 8.1234L21.5871 8.13178L21.645 8.13863L21.7563 6.89591C21.8069 6.33098 21.4298 5.83244 20.8864 5.70155C17.3046 4.83917 14.1165 2.94848 11.6573 0.334802Z" transform="translate(7.87744 26.2559)" fill="#E6AF78"/>
<path d="M19.5704 0C17.8999 3.18191 14.6026 5.34923 10.8043 5.34923C7.00588 5.34923 3.70863 3.18178 2.03813 0L0 0.862505C2.00938 4.8531 6.08788 7.59055 10.8041 7.59055C15.5204 7.59055 19.5989 4.85297 21.6083 0.862505L19.5704 0Z" transform="translate(7.9541 51.8047)" fill="#D7DEED"/>
<path d="M9.84913 0C9.79426 0.190427 8.41163 4.66216 0 4.66216V6.90349C10.2069 6.90349 11.9106 0.847147 11.9785 0.588801L9.84913 0Z" transform="translate(19.8618 39.043)" fill="#464655"/>
<path d="M1.1035 2.24146C1.71295 2.24146 2.207 1.73969 2.207 1.12073C2.207 0.501767 1.71295 0 1.1035 0C0.494055 0 0 0.501767 0 1.12073C0 1.73969 0.494055 2.24146 1.1035 2.24146Z" transform="translate(18.7583 43.707)" fill="#5B5D6E"/>
<path d="M1.906 0H0.601876L0 6.72411H1.90613C2.5155 6.72411 3.00963 6.22227 3.00963 5.60338V1.12073C3.0095 0.501713 2.51538 0 1.906 0Z" transform="translate(28.9902 33.6191)" fill="#707487"/>
<path d="M2.40763 0H1.1035C0.494125 0 0 0.501839 0 1.12073V5.60338C0 6.22227 0.494125 6.72411 1.1035 6.72411H3.00938L2.40763 0Z" transform="translate(5.51758 33.6191)" fill="#707487"/>
<path d="M0 0.865682C1.02 3.89005 2.66075 8.38895 4.67775 12.669H7.13026C4.94038 8.19053 3.12488 3.20121 2.04538 0L0 0.865682Z" transform="translate(6.70654 52.3301)" fill="#C04B50"/>
<path d="M1.24238 3.578L5.67151 0C6.26488 0.616349 6.62063 1.44979 6.62063 2.34619V6.82885C6.62063 8.06662 5.6325 9.07017 4.41375 9.07017H0V6.20336C0 5.18203 0.457125 4.21606 1.24238 3.578Z" transform="translate(30.896 55.9297)" fill="#C04B50"/>
<path d="M7.13025 0.865682C6.11025 3.89005 4.4695 8.38895 2.4525 12.669H0C2.18988 8.19053 4.00538 3.20121 5.08488 0L7.13025 0.865682Z" transform="translate(23.6802 52.3301)" fill="#C04B50"/>
</svg>
