<svg width="70" height="48" viewBox="0 0 70 48" fill="none" xmlns="http://www.w3.org/2000/svg">
<path d="M68.75 15.5C69.25 17.75 69.75 21.25 70 25.75L70.125 32L70 38.25C69.75 43 69.25 46.375 68.75 48.625C68.25 50.125 67.5 51.375 66.5 52.375C65.375 53.5 64.125 54.25 62.625 54.625C60.375 55.25 55.375 55.625 47.375 55.875L36 56L24.625 55.875C16.625 55.625 11.5 55.25 9.375 54.625C7.875 54.25 6.5 53.5 5.5 52.375C4.375 51.375 3.625 50.125 3.25 48.625C2.625 46.375 2.25 43 2 38.25L1.875 32C1.875 30.25 1.875 28.125 2 25.75C2.25 21.25 2.625 17.75 3.25 15.5C3.625 14 4.375 12.75 5.5 11.625C6.5 10.625 7.875 9.875 9.375 9.375C11.5 8.875 16.625 8.375 24.625 8.125L36 8L47.375 8.125C55.375 8.375 60.375 8.875 62.625 9.375C64.125 9.875 65.375 10.625 66.5 11.625C67.5 12.75 68.25 14 68.75 15.5ZM29 42.25L46.875 32L29 21.875V42.25Z" transform="translate(-1 -8)" fill="white"/>
</svg>
