<svg width="12" height="12" viewBox="0 0 12 12" fill="none" xmlns="http://www.w3.org/2000/svg">
<path opacity="0.8" fill-rule="evenodd" clip-rule="evenodd" d="M11.25 9C11.0511 9 10.8603 9.07903 10.7197 9.21968C10.579 9.36033 10.5 9.55109 10.5 9.75V10.5H1.5V9.75C1.5 9.55109 1.42097 9.36033 1.28032 9.21968C1.13967 9.07903 0.948912 9 0.75 9C0.551088 9 0.360333 9.07903 0.219681 9.21968C0.0790285 9.36033 0 9.55109 0 9.75V11.25C0 11.4489 0.0790285 11.6397 0.219681 11.7803C0.360333 11.921 0.551088 12 0.75 12H11.25C11.4489 12 11.6397 11.921 11.7803 11.7803C11.921 11.6397 12 11.4489 12 11.25V9.75C12 9.55109 11.921 9.36033 11.7803 9.21968C11.6397 9.07903 11.4489 9 11.25 9ZM5.47499 8.78252C5.61551 8.9222 5.80561 9.0006 6.00375 9.0006C6.20189 9.0006 6.39199 8.9222 6.53252 8.78252L8.78252 6.53252C8.85281 6.46279 8.90859 6.37983 8.94667 6.28844C8.98475 6.19704 9.00435 6.09901 9.00435 6C9.00435 5.90099 8.98475 5.80296 8.94667 5.71156C8.90859 5.62017 8.85281 5.53721 8.78252 5.46748C8.64199 5.3278 8.45189 5.2494 8.25375 5.2494C8.05561 5.2494 7.86551 5.3278 7.72499 5.46748L6.75 6.44252V0.75C6.75 0.551088 6.67097 0.360333 6.53032 0.219681C6.38967 0.0790285 6.19891 0 6 0C5.80109 0 5.61033 0.0790285 5.46968 0.219681C5.32903 0.360333 5.25 0.551088 5.25 0.75V6.44252L4.28252 5.46748C4.14199 5.3278 3.95189 5.2494 3.75375 5.2494C3.55561 5.2494 3.36551 5.3278 3.22499 5.46748C3.15469 5.53721 3.09891 5.62017 3.06084 5.71156C3.02276 5.80296 3.00316 5.90099 3.00316 6C3.00316 6.09901 3.02276 6.19704 3.06084 6.28844C3.09891 6.37983 3.15469 6.46279 3.22499 6.53252L5.47499 8.78252Z" fill="#999AB0"/>
</svg>
