<svg width="14" height="16" viewBox="0 0 14 16" fill="none" xmlns="http://www.w3.org/2000/svg">
<path d="M2.17578 13.4922C2.69531 14.0391 3.32422 14.4219 4.03516 14.6133C4.74609 14.8047 5.45703 14.8047 6.16797 14.6133C6.87891 14.4492 7.50781 14.0664 8.05469 13.5195L12.7578 8.70703C12.8398 8.625 12.8945 8.51562 12.8945 8.40625C12.8945 8.29688 12.8398 8.1875 12.7578 8.07812L12.1289 7.47656C12.0195 7.39453 11.9102 7.33984 11.8008 7.33984C11.6914 7.33984 11.582 7.39453 11.5 7.47656L6.79688 12.2891C6.33203 12.7812 5.78516 13 5.12891 13C4.47266 13 3.89844 12.7812 3.43359 12.2891C2.96875 11.7969 2.75 11.2227 2.75 10.5391C2.75 9.85547 2.96875 9.25391 3.46094 8.76172L9.20312 2.91016C9.47656 2.63672 9.77734 2.5 10.1602 2.5C10.5156 2.5 10.8164 2.63672 11.0898 2.91016C11.3633 3.18359 11.5 3.51172 11.5 3.89453C11.5 4.27734 11.3633 4.63281 11.0898 4.90625L6.08594 9.99219C6.03125 10.0742 5.94922 10.1016 5.86719 10.1016C5.78516 10.1016 5.70312 10.0742 5.64844 10.0195C5.59375 9.96484 5.56641 9.88281 5.56641 9.77344C5.56641 9.66406 5.62109 9.58203 5.67578 9.5L9.61328 5.48047C9.69531 5.39844 9.75 5.28906 9.75 5.17969C9.75 5.07031 9.69531 4.96094 9.61328 4.85156L8.98438 4.25C8.875 4.16797 8.76562 4.14062 8.65625 4.14062C8.54688 4.14062 8.4375 4.19531 8.35547 4.25L4.44531 8.26953C4.03516 8.67969 3.81641 9.17188 3.81641 9.74609C3.81641 10.3203 4.00781 10.8125 4.39062 11.2227C4.77344 11.6328 5.26562 11.8516 5.86719 11.8516C6.44141 11.8516 6.93359 11.6602 7.34375 11.2227L12.3477 6.10938C12.7305 5.72656 13.0039 5.26172 13.1406 4.71484C13.2773 4.16797 13.2773 3.64844 13.1406 3.10156C13.0039 2.55469 12.7305 2.08984 12.3477 1.67969C11.9375 1.29688 11.4727 1.02344 10.9531 0.859375C10.4062 0.722656 9.88672 0.722656 9.33984 0.859375C8.79297 1.02344 8.32812 1.29688 7.94531 1.67969L2.23047 7.55859C1.68359 8.10547 1.32812 8.73438 1.13672 9.44531C0.945312 10.1562 0.945312 10.8945 1.13672 11.6055C1.30078 12.3438 1.65625 12.9727 2.17578 13.4922Z" fill="#465EDB"/>
<path d="M2.17578 13.4922L2.35709 13.3199L2.35256 13.3154L2.17578 13.4922ZM6.16797 14.6133L6.11172 14.3695L6.10298 14.3719L6.16797 14.6133ZM8.05469 13.5195L8.23148 13.6963L8.23348 13.6943L8.05469 13.5195ZM12.7578 8.70703L12.581 8.53024L12.579 8.5323L12.7578 8.70703ZM12.7578 8.07812L12.9578 7.92812L12.9455 7.91168L12.9306 7.89746L12.7578 8.07812ZM12.1289 7.47656L12.3017 7.2959L12.2909 7.28555L12.2789 7.27656L12.1289 7.47656ZM11.5 7.47656L11.3232 7.29977L11.3212 7.30183L11.5 7.47656ZM6.79688 12.2891L6.61805 12.1143L6.61512 12.1174L6.79688 12.2891ZM3.46094 8.76172L3.63772 8.9385L3.63937 8.93682L3.46094 8.76172ZM9.20312 2.91016L9.02634 2.73337L9.02469 2.73506L9.20312 2.91016ZM11.0898 4.90625L10.9131 4.72947L10.9116 4.73092L11.0898 4.90625ZM6.08594 9.99219L5.90773 9.81685L5.89109 9.83377L5.87792 9.85351L6.08594 9.99219ZM5.67578 9.5L5.49719 9.32506L5.48078 9.34181L5.46777 9.36132L5.67578 9.5ZM9.61328 5.48047L9.4365 5.30368L9.43469 5.30552L9.61328 5.48047ZM9.61328 4.85156L9.81328 4.70156L9.80094 4.68511L9.78609 4.6709L9.61328 4.85156ZM8.98438 4.25L9.15718 4.06934L9.14636 4.05899L9.13438 4.05L8.98438 4.25ZM8.35547 4.25L8.21679 4.04199L8.19475 4.05669L8.17627 4.07568L8.35547 4.25ZM4.44531 8.26953L4.62211 8.44632L4.62451 8.44385L4.44531 8.26953ZM7.34375 11.2227L7.16503 11.0478L7.16137 11.0517L7.34375 11.2227ZM12.3477 6.10938L12.1709 5.93259L12.169 5.93452L12.3477 6.10938ZM12.3477 1.67969L12.5304 1.50911L12.5245 1.50281L12.5182 1.49692L12.3477 1.67969ZM10.9531 0.859375L11.0284 0.620979L11.0211 0.618686L11.0138 0.616839L10.9531 0.859375ZM9.33984 0.859375L9.27914 0.616577L9.26801 0.619918L9.33984 0.859375ZM7.94531 1.67969L7.76852 1.50289L7.76605 1.50543L7.94531 1.67969ZM2.23047 7.55859L2.40726 7.73539L2.40973 7.73285L2.23047 7.55859ZM1.13672 11.6055L1.38101 11.5512L1.37812 11.5405L1.13672 11.6055ZM1.99453 13.6644C2.54412 14.2429 3.21266 14.6507 3.97016 14.8547L4.10015 14.3719C3.43578 14.193 2.84651 13.8352 2.35703 13.32L1.99453 13.6644ZM3.97016 14.8547C4.72367 15.0576 5.47945 15.0576 6.23296 14.8547L6.10298 14.3719C5.43461 14.5518 4.76852 14.5518 4.10015 14.3719L3.97016 14.8547ZM6.22418 14.8569C6.98875 14.6804 7.65777 14.27 8.23146 13.6963L7.87791 13.3428C7.35786 13.8628 6.76906 14.218 6.11175 14.3697L6.22418 14.8569ZM8.23348 13.6943L12.9366 8.88176L12.579 8.5323L7.87589 13.3448L8.23348 13.6943ZM12.9346 8.88381C13.0517 8.76669 13.1445 8.59693 13.1445 8.40625H12.6445C12.6445 8.43432 12.628 8.48331 12.581 8.53025L12.9346 8.88381ZM13.1445 8.40625C13.1445 8.2153 13.0506 8.05186 12.9578 7.92812L12.5578 8.22813C12.6291 8.32314 12.6445 8.37845 12.6445 8.40625H13.1445ZM12.9306 7.89746L12.3017 7.2959L11.9561 7.65722L12.585 8.25879L12.9306 7.89746ZM12.2789 7.27656C12.1552 7.18376 11.9917 7.08984 11.8008 7.08984V7.58984C11.8286 7.58984 11.8839 7.6053 11.9789 7.67656L12.2789 7.27656ZM11.8008 7.08984C11.6101 7.08984 11.4403 7.18267 11.3232 7.29979L11.6768 7.65334C11.7237 7.60639 11.7727 7.58984 11.8008 7.58984V7.08984ZM11.3212 7.30183L6.61808 12.1143L6.97567 12.4638L11.6788 7.6513L11.3212 7.30183ZM6.61512 12.1174C6.19986 12.5571 5.71988 12.75 5.12891 12.75V13.25C5.85043 13.25 6.4642 13.0054 6.97863 12.4607L6.61512 12.1174ZM5.12891 12.75C4.5347 12.75 4.02852 12.5549 3.61535 12.1174L3.25184 12.4607C3.76835 13.0076 4.41062 13.25 5.12891 13.25V12.75ZM3.61535 12.1174C3.19631 11.6737 3 11.1618 3 10.5391H2.5C2.5 11.2836 2.74119 11.92 3.25184 12.4607L3.61535 12.1174ZM3 10.5391C3 9.91433 3.19742 9.37878 3.63771 8.9385L3.28416 8.58494C2.74008 9.12903 2.5 9.79661 2.5 10.5391H3ZM3.63937 8.93682L9.38156 3.08526L9.02469 2.73506L3.2825 8.58662L3.63937 8.93682ZM9.3799 3.08693C9.61099 2.85584 9.8498 2.75 10.1602 2.75V2.25C9.70488 2.25 9.34213 2.4176 9.02635 2.73338L9.3799 3.08693ZM10.1602 2.75C10.4404 2.75 10.6798 2.85367 10.9131 3.08693L11.2666 2.73338C10.953 2.41977 10.5909 2.25 10.1602 2.25V2.75ZM10.9131 3.08693C11.1402 3.31402 11.25 3.57878 11.25 3.89453H11.75C11.75 3.44466 11.5864 3.05317 11.2666 2.73338L10.9131 3.08693ZM11.25 3.89453C11.25 4.2155 11.1366 4.50598 10.9131 4.72947L11.2666 5.08303C11.59 4.75964 11.75 4.33918 11.75 3.89453H11.25ZM10.9116 4.73092L5.90773 9.81685L6.26415 10.1675L11.2681 5.08158L10.9116 4.73092ZM5.87792 9.85351C5.87686 9.8551 5.87701 9.8545 5.87874 9.85304C5.88044 9.8516 5.8822 9.85058 5.88337 9.85005C5.88533 9.84915 5.8812 9.85156 5.86719 9.85156V10.3516C6.00686 10.3516 6.18014 10.3016 6.29395 10.1309L5.87792 9.85351ZM5.86719 9.85156C5.85332 9.85156 5.8414 9.84916 5.83299 9.84611C5.82461 9.84306 5.82313 9.84067 5.82521 9.84275L5.47166 10.1963C5.58384 10.3085 5.73554 10.3516 5.86719 10.3516V9.85156ZM5.82521 9.84275C5.83395 9.85149 5.81641 9.84428 5.81641 9.77344H5.31641C5.31641 9.92135 5.35355 10.0782 5.47166 10.1963L5.82521 9.84275ZM5.81641 9.77344C5.81641 9.75047 5.82373 9.72877 5.88379 9.63868L5.46777 9.36132C5.41846 9.43529 5.31641 9.57766 5.31641 9.77344H5.81641ZM5.85437 9.67494L9.79187 5.65541L9.43469 5.30552L5.49719 9.32506L5.85437 9.67494ZM9.79006 5.65725C9.90718 5.54013 10 5.37037 10 5.17969H9.5C9.5 5.20775 9.48345 5.25675 9.4365 5.30369L9.79006 5.65725ZM10 5.17969C10 4.98874 9.90608 4.8253 9.81328 4.70156L9.41328 5.00156C9.48454 5.09658 9.5 5.15189 9.5 5.17969H10ZM9.78609 4.6709L9.15718 4.06934L8.81157 4.43066L9.44048 5.03222L9.78609 4.6709ZM9.13438 4.05C8.97657 3.93165 8.8129 3.89062 8.65625 3.89062V4.39062C8.71835 4.39062 8.77343 4.40429 8.83437 4.45L9.13438 4.05ZM8.65625 3.89062C8.47173 3.89062 8.31128 3.979 8.21679 4.04199L8.49414 4.45801C8.52527 4.43726 8.55761 4.41926 8.58845 4.40692C8.61981 4.39438 8.6423 4.39062 8.65625 4.39062V3.89062ZM8.17627 4.07568L4.26611 8.09521L4.62451 8.44385L8.53467 4.42432L8.17627 4.07568ZM4.26854 8.09275C3.81509 8.5462 3.56641 9.10065 3.56641 9.74609H4.06641C4.06641 9.2431 4.25522 8.81318 4.62209 8.44631L4.26854 8.09275ZM3.56641 9.74609C3.56641 10.382 3.78073 10.9356 4.20786 11.3932L4.57339 11.0521C4.23489 10.6894 4.06641 10.2586 4.06641 9.74609H3.56641ZM4.20786 11.3932C4.63879 11.8549 5.19756 12.1016 5.86719 12.1016V11.6016C5.33369 11.6016 4.90809 11.4107 4.57339 11.0521L4.20786 11.3932ZM5.86719 12.1016C6.50533 12.1016 7.06529 11.8852 7.52613 11.3936L7.16137 11.0517C6.8019 11.4351 6.37748 11.6016 5.86719 11.6016V12.1016ZM7.52243 11.3975L12.5263 6.28423L12.169 5.93452L7.16507 11.0478L7.52243 11.3975ZM12.5244 6.28615C12.9379 5.87267 13.235 5.36815 13.3832 4.77548L12.8981 4.65421C12.7728 5.15529 12.523 5.58046 12.1709 5.9326L12.5244 6.28615ZM13.3832 4.77548C13.5298 4.18879 13.5298 3.62761 13.3832 3.04093L12.8981 3.1622C13.0249 3.66926 13.0249 4.14714 12.8981 4.65421L13.3832 4.77548ZM13.3832 3.04093C13.2348 2.4476 12.9382 1.94597 12.5304 1.50911L12.1649 1.85027C12.5228 2.23372 12.773 2.66178 12.8981 3.1622L13.3832 3.04093ZM12.5182 1.49692C12.0817 1.08948 11.5845 0.796596 11.0284 0.620979L10.8778 1.09777C11.3608 1.25028 11.7933 1.50427 12.1771 1.86245L12.5182 1.49692ZM11.0138 0.616839C10.4271 0.470168 9.86589 0.470168 9.27921 0.616839L9.40048 1.10191C9.90754 0.975144 10.3854 0.975144 10.8925 1.10191L11.0138 0.616839ZM9.26801 0.619918C8.68374 0.795198 8.18221 1.08924 7.76854 1.50291L8.12209 1.85646C8.47404 1.50451 8.9022 1.25168 9.41168 1.09883L9.26801 0.619918ZM7.76605 1.50543L2.05121 7.38434L2.40973 7.73285L8.12457 1.85395L7.76605 1.50543ZM2.05369 7.38182C1.47548 7.96003 1.09796 8.62762 0.895315 9.38032L1.37812 9.51031C1.55829 8.84113 1.89171 8.25091 2.40725 7.73537L2.05369 7.38182ZM0.895315 9.38032C0.692447 10.1338 0.692447 10.917 0.895315 11.6705L1.37812 11.5405C1.19818 10.8721 1.19818 10.1787 1.37812 9.51031L0.895315 9.38032ZM0.892672 11.6597C1.06736 12.4458 1.44688 13.1168 1.999 13.669L2.35256 13.3154C1.86562 12.8285 1.5342 12.2417 1.38077 11.5512L0.892672 11.6597Z" fill="white"/>
</svg>
