<svg width="11" height="15" viewBox="0 0 11 15" fill="none" xmlns="http://www.w3.org/2000/svg">
<path d="M6.125 4.46875C6.125 4.66016 6.17969 4.82422 6.31641 4.93359C6.42578 5.07031 6.58984 5.125 6.78125 5.125H10.5V14.0938C10.5 14.2852 10.418 14.4492 10.3086 14.5586C10.1719 14.6953 10.0078 14.75 9.84375 14.75H0.65625C0.464844 14.75 0.300781 14.6953 0.191406 14.5586C0.0546875 14.4492 0 14.2852 0 14.0938V1.40625C0 1.24219 0.0546875 1.07812 0.191406 0.941406C0.300781 0.832031 0.464844 0.75 0.65625 0.75H6.125V4.46875ZM10.5 4.08594C10.5 3.92188 10.418 3.75781 10.3086 3.62109L7.62891 0.941406C7.49219 0.832031 7.32812 0.75 7.16406 0.75H7V4.25H10.5V4.08594Z" fill="#999AB0"/>
</svg>
