<svg width="14" height="15" viewBox="0 0 14 15" fill="none" xmlns="http://www.w3.org/2000/svg">
<path d="M7 0.96875C8.20312 0.96875 9.35156 1.29688 10.3906 1.89844C11.4297 2.5 12.25 3.32031 12.8516 4.35938C13.4531 5.39844 13.7812 6.54688 13.7812 7.75C13.7812 8.98047 13.4531 10.1016 12.8516 11.1406C12.25 12.1797 11.4297 13.0273 10.3906 13.6289C9.35156 14.2305 8.20312 14.5312 7 14.5312C5.76953 14.5312 4.64844 14.2305 3.60938 13.6289C2.57031 13.0273 1.72266 12.1797 1.12109 11.1406C0.519531 10.1016 0.21875 8.98047 0.21875 7.75C0.21875 6.54688 0.519531 5.39844 1.12109 4.35938C1.72266 3.32031 2.57031 2.5 3.60938 1.89844C4.64844 1.29688 5.76953 0.96875 7 0.96875ZM7 13.2188C7.98438 13.2188 8.88672 12.9727 9.73438 12.4805C10.5547 11.9883 11.2383 11.332 11.7305 10.4844C12.2227 9.66406 12.4688 8.73438 12.4688 7.75C12.4688 6.76562 12.2227 5.86328 11.7305 5.01562C11.2383 4.19531 10.5547 3.51172 9.73438 3.01953C8.88672 2.52734 7.98438 2.28125 7 2.28125C6.01562 2.28125 5.08594 2.52734 4.26562 3.01953C3.41797 3.51172 2.76172 4.19531 2.26953 5.01562C1.77734 5.86328 1.53125 6.76562 1.53125 7.75C1.53125 8.73438 1.77734 9.66406 2.26953 10.4844C2.76172 11.332 3.41797 11.9883 4.26562 12.4805C5.08594 12.9727 6.01562 13.2188 7 13.2188ZM9.92578 6.24609C9.92578 5.80859 9.78906 5.39844 9.51562 5.01562C9.24219 4.66016 8.91406 4.35938 8.47656 4.14062C8.03906 3.92188 7.60156 3.8125 7.16406 3.8125C6.53516 3.8125 6.01562 3.94922 5.57812 4.19531C5.14062 4.44141 4.73047 4.79688 4.40234 5.28906C4.34766 5.37109 4.34766 5.45312 4.34766 5.53516C4.34766 5.64453 4.40234 5.69922 4.48438 5.75391L5.25 6.32812C5.30469 6.38281 5.38672 6.41016 5.46875 6.38281C5.55078 6.38281 5.63281 6.32812 5.6875 6.27344C5.90625 5.97266 6.125 5.75391 6.28906 5.64453C6.48047 5.53516 6.72656 5.45312 7 5.45312C7.27344 5.45312 7.54688 5.53516 7.76562 5.67188C7.98438 5.83594 8.12109 6 8.12109 6.21875C8.12109 6.38281 8.03906 6.54688 7.92969 6.65625C7.82031 6.76562 7.62891 6.875 7.35547 7.03906L7.30078 7.06641C6.91797 7.28516 6.64453 7.47656 6.48047 7.64062C6.17969 7.94141 6.04297 8.29688 6.04297 8.70703V8.95312C6.04297 9.0625 6.07031 9.14453 6.125 9.19922C6.17969 9.25391 6.26172 9.28125 6.37109 9.28125H7.62891C7.71094 9.28125 7.79297 9.25391 7.84766 9.19922C7.90234 9.14453 7.95703 9.0625 7.95703 8.95312V8.78906C7.95703 8.67969 8.01172 8.57031 8.14844 8.46094C8.20312 8.40625 8.36719 8.29688 8.58594 8.16016C8.99609 7.94141 9.29688 7.72266 9.48828 7.50391C9.76172 7.17578 9.92578 6.73828 9.92578 6.24609ZM8.14844 10.8125C8.14844 10.5117 8.01172 10.2383 7.79297 10.0195C7.57422 9.80078 7.30078 9.66406 7 9.66406C6.67188 9.66406 6.39844 9.80078 6.17969 10.0195C5.96094 10.2383 5.85156 10.5117 5.85156 10.8125C5.85156 11.1406 5.96094 11.4141 6.17969 11.6328C6.39844 11.8516 6.67188 11.9609 7 11.9609C7.30078 11.9609 7.57422 11.8516 7.79297 11.6328C8.01172 11.4141 8.14844 11.1406 8.14844 10.8125Z" fill="#ADAFC7"/>
</svg>
