<svg width="18" height="15" viewBox="0 0 18 15" fill="none" xmlns="http://www.w3.org/2000/svg">
<path d="M0 7.75C0 7.53125 0.0820312 7.3125 0.246094 7.14844C0.410156 6.98438 0.628906 6.875 0.875 6.875H1.75V12.125H0.875C0.628906 12.125 0.410156 12.043 0.246094 11.8789C0.0820312 11.7148 0 11.4961 0 11.25V7.75ZM12.6875 3.375C13.2891 3.375 13.7812 3.59375 14.2188 4.03125C14.6562 4.46875 14.875 4.96094 14.875 5.5625V13C14.875 13.4922 14.6836 13.9023 14.3555 14.2305C14 14.5859 13.5898 14.75 13.125 14.75H4.375C3.88281 14.75 3.47266 14.5859 3.14453 14.2305C2.78906 13.9023 2.625 13.4922 2.625 13V5.5625C2.625 4.96094 2.81641 4.46875 3.25391 4.03125C3.69141 3.59375 4.21094 3.375 4.8125 3.375H7.875V1.625C7.875 1.40625 7.95703 1.1875 8.12109 1.02344C8.28516 0.859375 8.50391 0.75 8.75 0.75C8.96875 0.75 9.1875 0.859375 9.35156 1.02344C9.51562 1.1875 9.625 1.40625 9.625 1.625V3.375H12.6875ZM7 12.125V11.25H5.25V12.125H7ZM6.125 8.84375C6.42578 8.84375 6.67188 8.76172 6.89062 8.54297C7.10938 8.32422 7.21875 8.07812 7.21875 7.75C7.21875 7.44922 7.10938 7.20312 6.89062 6.98438C6.67188 6.76562 6.42578 6.65625 6.125 6.65625C5.79688 6.65625 5.55078 6.76562 5.33203 6.98438C5.11328 7.20312 5.03125 7.44922 5.03125 7.75C5.03125 8.07812 5.11328 8.32422 5.33203 8.54297C5.55078 8.76172 5.79688 8.84375 6.125 8.84375ZM9.625 12.125V11.25H7.875V12.125H9.625ZM12.25 12.125V11.25H10.5V12.125H12.25ZM11.375 8.84375C11.6758 8.84375 11.9219 8.76172 12.1406 8.54297C12.3594 8.32422 12.4688 8.07812 12.4688 7.75C12.4688 7.44922 12.3594 7.20312 12.1406 6.98438C11.9219 6.76562 11.6758 6.65625 11.375 6.65625C11.0469 6.65625 10.8008 6.76562 10.582 6.98438C10.3633 7.20312 10.2812 7.44922 10.2812 7.75C10.2812 8.07812 10.3633 8.32422 10.582 8.54297C10.8008 8.76172 11.0469 8.84375 11.375 8.84375ZM16.625 6.875C16.8438 6.875 17.0625 6.98438 17.2266 7.14844C17.3906 7.3125 17.5 7.53125 17.5 7.75V11.25C17.5 11.4961 17.3906 11.7148 17.2266 11.8789C17.0625 12.043 16.8438 12.125 16.625 12.125H15.75V6.875H16.625Z" fill="#465EDB"/>
</svg>
