<svg width="18" height="13" viewBox="0 0 18 13" fill="none" xmlns="http://www.w3.org/2000/svg">
<path d="M2.875 5.875C2.38281 5.875 1.97266 5.71094 1.64453 5.35547C1.28906 5.02734 1.125 4.61719 1.125 4.125C1.125 3.66016 1.28906 3.25 1.64453 2.89453C1.97266 2.56641 2.38281 2.375 2.875 2.375C3.33984 2.375 3.75 2.56641 4.10547 2.89453C4.43359 3.25 4.625 3.66016 4.625 4.125C4.625 4.61719 4.43359 5.02734 4.10547 5.35547C3.75 5.71094 3.33984 5.875 2.875 5.875ZM15.125 5.875C14.6328 5.875 14.2227 5.71094 13.8945 5.35547C13.5391 5.02734 13.375 4.61719 13.375 4.125C13.375 3.66016 13.5391 3.25 13.8945 2.89453C14.2227 2.56641 14.6328 2.375 15.125 2.375C15.5898 2.375 16 2.56641 16.3555 2.89453C16.6836 3.25 16.875 3.66016 16.875 4.125C16.875 4.61719 16.6836 5.02734 16.3555 5.35547C16 5.71094 15.5898 5.875 15.125 5.875ZM16 6.75C16.4648 6.75 16.875 6.94141 17.2305 7.26953C17.5586 7.625 17.75 8.03516 17.75 8.5V9.375C17.75 9.62109 17.6406 9.83984 17.4766 10.0039C17.3125 10.168 17.0938 10.25 16.875 10.25H15.0703C14.9609 9.62109 14.7422 9.04688 14.3867 8.5C14.0039 7.98047 13.5664 7.57031 13.0195 7.26953C13.3477 6.94141 13.7578 6.75 14.25 6.75H16ZM9 6.75C8.45312 6.75 7.93359 6.61328 7.46875 6.33984C6.97656 6.06641 6.62109 5.71094 6.34766 5.21875C6.07422 4.75391 5.9375 4.23438 5.9375 3.6875C5.9375 3.14062 6.07422 2.64844 6.34766 2.15625C6.62109 1.69141 6.97656 1.30859 7.46875 1.03516C7.93359 0.761719 8.45312 0.625 9 0.625C9.54688 0.625 10.0391 0.761719 10.5312 1.03516C10.9961 1.30859 11.3789 1.69141 11.6523 2.15625C11.9258 2.64844 12.0625 3.14062 12.0625 3.6875C12.0625 4.23438 11.9258 4.75391 11.6523 5.21875C11.3789 5.71094 10.9961 6.06641 10.5312 6.33984C10.0391 6.61328 9.54688 6.75 9 6.75ZM11.1055 7.625C11.6523 7.625 12.1719 7.78906 12.6641 8.0625C13.1562 8.33594 13.5391 8.71875 13.8125 9.21094C14.0859 9.70312 14.25 10.2227 14.25 10.7695V11.5625C14.25 11.9453 14.1133 12.2461 13.8672 12.4922C13.5938 12.7656 13.293 12.875 12.9375 12.875H5.0625C4.67969 12.875 4.37891 12.7656 4.13281 12.4922C3.85938 12.2461 3.75 11.9453 3.75 11.5625V10.7695C3.75 10.2227 3.88672 9.70312 4.16016 9.21094C4.43359 8.71875 4.81641 8.33594 5.30859 8.0625C5.80078 7.78906 6.32031 7.625 6.89453 7.625H7.11328C7.71484 7.92578 8.34375 8.0625 9 8.0625C9.62891 8.0625 10.2578 7.92578 10.8867 7.625H11.1055ZM4.98047 7.26953C4.43359 7.57031 3.96875 7.98047 3.61328 8.5C3.23047 9.04688 3.01172 9.62109 2.92969 10.25H1.125C0.878906 10.25 0.660156 10.168 0.496094 10.0039C0.332031 9.83984 0.25 9.62109 0.25 9.375V8.5C0.25 8.03516 0.414062 7.625 0.769531 7.26953C1.09766 6.94141 1.50781 6.75 2 6.75H3.75C4.21484 6.75 4.625 6.94141 4.98047 7.26953Z" fill="#465EDB"/>
</svg>
