<svg width="348" height="95" viewBox="0 0 348 95" fill="none" xmlns="http://www.w3.org/2000/svg">
<path d="M0 1.54892V73.8318H51.7582V57.31H18.775V45.5382H48.1047V29.1197H18.775V18.0707H51.1493V1.54892H0Z" transform="translate(122.391 10.8418)" fill="#0E1045"/>
<path d="M58.3929 38.723C58.3929 64.5383 77.7768 75.3807 97.2622 75.3807C104.772 75.3807 111.775 73.8318 117.966 70.8372V52.2502C113.906 56.2774 107.208 58.5491 99.9009 58.5491C88.8389 58.5491 77.6753 52.7665 77.6753 38.723C77.6753 23.0273 88.8389 16.7283 100.104 16.7283C106.599 16.7283 113.094 18.8968 117.458 22.6142V4.54349C111.267 1.54892 104.062 0 96.8563 0C77.6753 0 58.3929 11.462 58.3929 38.723Z" transform="translate(122.391 10.8418)" fill="#0E1045"/>
<path d="M128.345 1.54892V73.8318H147.12V1.54892H128.345Z" transform="translate(122.391 10.8418)" fill="#0E1045"/>
<path d="M179.33 73.8318V50.2882H187.449L204.397 73.8318H225.608L206.021 47.6034C213.835 44.4023 219.62 37.8969 219.62 25.9186C219.62 6.81524 204.905 1.54892 190.494 1.54892H160.555V73.8318H179.33ZM179.33 18.0707H191.305C196.684 18.0707 200.338 20.8588 200.338 26.4349C200.338 32.011 196.684 34.799 191.305 34.799H179.33V18.0707Z" transform="translate(122.391 10.8418)" fill="#0E1045"/>
<path d="M14.1733 54.0224L26.4567 44.0983L15.1182 35.4548C14.4883 35.1347 13.8584 35.1347 13.2285 35.4548L1.88999 44.0983L14.1733 54.0224Z" fill="#3C59F0"/>
<path d="M12.5983 56.5837L0 46.3395V84.4351C0 85.0753 0.314958 85.3955 0.629916 85.7156L12.5983 94.9994V56.5837Z" fill="#3C59F0"/>
<path d="M15.7473 56.5832V94.9989L27.7157 86.0353C28.0306 85.7151 28.3456 85.395 28.3456 84.7547V46.6592L15.7473 56.5832Z" fill="#3C59F0"/>
<path d="M45.6689 18.8077L57.9522 8.88364L46.6138 0.240098C45.9838 -0.0800327 45.3539 -0.0800327 44.724 0.240098L33.3855 8.88364L45.6689 18.8077Z" fill="#3C59F0"/>
<path d="M44.0939 21.369L31.4955 11.1248V84.4348C31.4955 85.0751 31.8105 85.3952 32.1255 85.7153L44.0939 94.679V21.369Z" fill="#3C59F0"/>
<path d="M47.2428 21.3695V94.9997L59.2112 86.036C59.5262 85.7159 59.8411 85.3957 59.8411 84.7555V11.4455L47.2428 21.3695Z" fill="#3C59F0"/>
<path d="M75.5904 40.5777L62.9921 30.6537V84.7558C62.9921 85.3961 63.307 85.7162 63.622 86.0363L75.5904 95V40.5777Z" fill="#3C59F0"/>
<path d="M77.1654 38.0159L89.4488 28.0918L78.1103 19.4483C77.4804 19.1282 76.8505 19.1282 76.2206 19.4483L64.8821 28.0918L77.1654 38.0159Z" fill="#3C59F0"/>
<path d="M78.7394 40.5777V95L90.7078 86.0363C91.0227 85.7162 91.3377 85.3961 91.3377 84.7558V30.6537L78.7394 40.5777Z" fill="#3C59F0"/>
</svg>
