<svg width="10" height="10" viewBox="0 0 10 10" version="1.1" xmlns="http://www.w3.org/2000/svg" xmlns:xlink="http://www.w3.org/1999/xlink">
<title>Vector</title>
<desc>Created using Figma</desc>
<g id="Canvas" transform="translate(-13239 3559)">
<g id="Vector">
<use xlink:href="#path0_fill" transform="translate(13239 -3559)" fill="#ADAFC7"/>
</g>
</g>
<defs>
<path id="path0_fill" fill-rule="evenodd" d="M 6.308 4.95099L 9.548 1.68097C 9.73123 1.49404 9.83386 1.24277 9.83386 0.98102C 9.83386 0.719267 9.73123 0.467936 9.548 0.281007C 9.36153 0.100767 9.11234 1.49479e-06 8.853 1.49479e-06C 8.59366 1.49479e-06 8.34447 0.100767 8.158 0.281007L 4.948 3.55097L 1.708 0.281007C 1.52154 0.100767 1.27234 1.49479e-06 1.013 1.49479e-06C 0.753665 1.49479e-06 0.50447 0.100767 0.318004 0.281007C 0.134777 0.467936 0.0321455 0.719267 0.0321455 0.98102C 0.0321455 1.24277 0.134777 1.49404 0.318004 1.68097L 3.558 4.95099L 0.318004 8.22101C 0.174422 8.3549 0.0734283 8.52809 0.0276137 8.719C -0.0182009 8.9099 -0.00681123 9.11002 0.0603666 9.2945C 0.127545 9.47897 0.247537 9.63961 0.405383 9.75635C 0.563229 9.87309 0.751943 9.94078 0.948001 9.95099C 1.20687 9.94729 1.45421 9.84335 1.638 9.66101L 4.948 6.35101L 8.188 9.62097C 8.37426 9.80572 8.62566 9.90991 8.888 9.91101C 9.08087 9.90459 9.26777 9.84245 9.42614 9.73218C 9.5845 9.62191 9.70758 9.46821 9.78053 9.28955C 9.85347 9.11089 9.87317 8.91495 9.83723 8.72534C 9.80129 8.53574 9.71126 8.36059 9.578 8.22101L 6.308 4.95099Z"/>
</defs>
</svg>
