<svg width="16" height="17" viewBox="0 0 16 17" version="1.1" xmlns="http://www.w3.org/2000/svg" xmlns:xlink="http://www.w3.org/1999/xlink">
<title>Vector</title>
<desc>Created using Figma</desc>
<g id="Canvas" transform="translate(-11473 5641)">
<g id="Vector">
<use xlink:href="#path0_fill" transform="translate(11473 -5641)" fill="#E5E6FF"/>
</g>
</g>
<defs>
<path id="path0_fill" fill-rule="evenodd" d="M 15.5 2.73001C 15.3173 2.50754 15.0886 2.32713 14.8297 2.20114C 14.5709 2.07515 14.2878 2.00654 14 2L 4 2L 4 1C 4 0.734784 3.89463 0.480444 3.70709 0.292908C 3.51956 0.105371 3.26522 0 3 0L 1 0C 0.734784 0 0.480444 0.105371 0.292908 0.292908C 0.105371 0.480444 0 0.734784 0 1C 0 1.26522 0.105371 1.51956 0.292908 1.70709C 0.480444 1.89463 0.734784 2 1 2L 2 2L 2 9C 2 9.53043 2.21071 10.0391 2.58578 10.4142C 2.96086 10.7893 3.46957 11 4 11L 13 11C 13.4607 10.9973 13.9064 10.8356 14.2617 10.5423C 14.6171 10.2489 14.8602 9.84193 14.95 9.39001L 15.95 4.39001C 16.0032 4.09727 15.9904 3.79633 15.9126 3.50916C 15.8347 3.22198 15.6938 2.95581 15.5 2.73001ZM 13 9L 4 9L 4 4L 14 4L 13 9ZM 3 12C 2.60444 12 2.21775 12.1173 1.88885 12.3371C 1.55996 12.5568 1.30363 12.8692 1.15225 13.2346C 1.00088 13.6001 0.961251 14.0022 1.03842 14.3902C 1.11559 14.7781 1.30608 15.1345 1.58578 15.4142C 1.86549 15.6939 2.22187 15.8844 2.60983 15.9616C 2.99779 16.0387 3.39993 15.9991 3.76538 15.8477C 4.13083 15.6964 4.44317 15.44 4.66293 15.1111C 4.8827 14.7822 5 14.3956 5 14C 5 13.4696 4.78929 12.9609 4.41422 12.5858C 4.03914 12.2107 3.53043 12 3 12ZM 13 12C 12.6044 12 12.2178 12.1173 11.8889 12.3371C 11.56 12.5568 11.3036 12.8692 11.1523 13.2346C 11.0009 13.6001 10.9613 14.0022 11.0384 14.3902C 11.1156 14.7781 11.3061 15.1345 11.5858 15.4142C 11.8655 15.6939 12.2219 15.8844 12.6098 15.9616C 12.9978 16.0387 13.3999 15.9991 13.7654 15.8477C 14.1308 15.6964 14.4432 15.44 14.6629 15.1111C 14.8827 14.7822 15 14.3956 15 14C 15 13.4696 14.7893 12.9609 14.4142 12.5858C 14.0391 12.2107 13.5304 12 13 12Z"/>
</defs>
</svg>
