<svg width="29" height="23" viewBox="0 0 29 23" version="1.1" xmlns="http://www.w3.org/2000/svg" xmlns:xlink="http://www.w3.org/1999/xlink">
<title>Telegram</title>
<desc>Created using Figma</desc>
<g id="Canvas" transform="translate(-8751 4859)">
<g id="Telegram">
<use xlink:href="#path0_fill" transform="translate(8751 -4859)" fill="url(#paint0_linear)"/>
</g>
</g>
<defs>
<linearGradient id="paint0_linear" x1="0" y1="0" x2="1" y2="0" gradientUnits="userSpaceOnUse" gradientTransform="matrix(1.7495e-15 23 -28.5714 1.40834e-15 28.5714 -1.40834e-15)">
<stop offset="0" stop-color="#75D2FF"/>
<stop offset="1" stop-color="#4FABFF"/>
</linearGradient>
<path id="path0_fill" d="M 28.5714 1.43971C 28.5152 2.11184 28.3072 2.82312 28.1502 3.54237C 26.8412 9.49871 25.5269 15.4543 24.2075 21.4092C 24.132 21.7518 24.0501 22.0944 23.8588 22.4015C 23.5445 22.9049 23.0896 23.0907 22.4941 22.959C 22.1189 22.8767 21.7929 22.7082 21.4849 22.4877C 19.5005 21.0739 17.5078 19.6684 15.5291 18.2462C 15.2774 18.0649 15.1328 18.0852 14.9207 18.2878C 13.9447 19.2192 12.9495 20.1317 11.9709 21.0605C 11.5973 21.415 11.1844 21.6267 10.6413 21.6082C 10.2571 21.5952 10.0375 21.4444 9.9201 21.0927C 9.30832 19.2565 8.68598 17.4232 8.06629 15.5892C 7.85607 14.9667 7.63416 14.3479 7.43753 13.7214C 7.36658 13.4956 7.24543 13.3807 7.00804 13.3107C 5.06592 12.7379 3.12832 12.1506 1.18922 11.5706C 0.93334 11.4937 0.677082 11.4165 0.448375 11.2784C -0.1049 10.9441 -0.149056 10.4971 0.332135 10.074C 0.661232 9.78402 1.06204 9.61219 1.47227 9.45992C 4.11662 8.47892 6.76135 7.49852 9.40645 6.51873C 15.1166 4.40398 20.8268 2.28924 26.5372 0.174487C 26.5825 0.157811 26.627 0.138234 26.6727 0.122283C 27.7457 -0.26091 28.5643 0.277807 28.5714 1.43971ZM 10.6545 19.8583C 10.7583 19.8108 10.7489 19.7438 10.7542 19.6905C 10.8844 18.3524 11.0183 17.0147 11.1338 15.6751C 11.1621 15.3423 11.2693 15.0951 11.5388 14.8623C 15.2607 11.652 18.9767 8.43493 22.6866 5.21109C 22.9213 5.00735 23.1583 4.80578 23.3878 4.59661C 23.4825 4.51032 23.6067 4.41099 23.5335 4.26816C 23.458 4.11879 23.2923 4.12496 23.1462 4.14127C 22.8609 4.17281 22.6179 4.30695 22.3794 4.45159C 17.8002 7.22784 13.2184 10.0017 8.6339 12.7731C 8.37311 12.9304 8.33764 13.0743 8.43086 13.3419C 8.99697 14.9707 9.54835 16.6046 10.1039 18.236C 10.2869 18.7758 10.4696 19.3149 10.6545 19.8583Z"/>
</defs>
</svg>
