<svg width="50" height="50" viewBox="0 0 50 50" version="1.1" xmlns="http://www.w3.org/2000/svg" xmlns:xlink="http://www.w3.org/1999/xlink">
<title>&#208;&#157;&#208;&#176;&#208;&#178;&#208;&#181;&#209;&#128;&#209;&#133;</title>
<desc>Created using Figma</desc>
<g id="Canvas" transform="translate(-9620 1315)">
<g id="&#208;&#157;&#208;&#176;&#208;&#178;&#208;&#181;&#209;&#128;&#209;&#133;">
<g id="Rectangle 3">
<mask id="mask0_outline_ins">
<use xlink:href="#path0_fill" fill="white" transform="translate(9620 -1315)"/>
</mask>
<g mask="url(#mask0_outline_ins)">
<use xlink:href="#path1_stroke_2x" transform="translate(9620 -1315)" fill="#2F3170"/>
</g>
</g>
<g id="Vector">
<use xlink:href="#path2_fill" transform="matrix(-1 1.22465e-16 -1.22465e-16 -1 9649 -1283)" fill="#7779A8"/>
</g>
</g>
</g>
<defs>
<path id="path0_fill" d="M 0 5C 0 2.23858 2.23858 0 5 0L 45 0C 47.7614 0 50 2.23858 50 5L 50 45C 50 47.7614 47.7614 50 45 50L 5 50C 2.23858 50 0 47.7614 0 45L 0 5Z"/>
<path id="path1_stroke_2x" d="M 5 2L 45 2L 45 -2L 5 -2L 5 2ZM 48 5L 48 45L 52 45L 52 5L 48 5ZM 45 48L 5 48L 5 52L 45 52L 45 48ZM 2 45L 2 5L -2 5L -2 45L 2 45ZM 5 48C 3.34315 48 2 46.6569 2 45L -2 45C -2 48.866 1.13401 52 5 52L 5 48ZM 48 45C 48 46.6569 46.6569 48 45 48L 45 52C 48.866 52 52 48.866 52 45L 48 45ZM 45 2C 46.6569 2 48 3.34315 48 5L 52 5C 52 1.13401 48.866 -2 45 -2L 45 2ZM 5 -2C 1.13401 -2 -2 1.13401 -2 5L 2 5C 2 3.34315 3.34315 2 5 2L 5 -2Z"/>
<path id="path2_fill" d="M 8 9.293L 5.707 11.586L 5.707 0L 3.707 0L 3.707 11.586L 1.414 9.293L 0 10.706L 4.707 15.414L 9.414 10.706L 8 9.293Z"/>
</defs>
</svg>
