<svg width="30" height="21" viewBox="0 0 30 21" version="1.1" xmlns="http://www.w3.org/2000/svg" xmlns:xlink="http://www.w3.org/1999/xlink">
<title>YouTube</title>
<desc>Created using Figma</desc>
<g id="Canvas" transform="translate(-9554 4857)">
<g id="YouTube">
<use xlink:href="#path0_fill" transform="translate(9554 -4857)" fill="#FF0000"/>
</g>
</g>
<defs>
<path id="path0_fill" fill-rule="evenodd" d="M 26.7383 0.642578C 28.0234 0.988281 29.0361 2.00098 29.3828 3.28564C 30.0254 5.63281 30 10.5249 30 10.5249C 30 10.5249 30 15.3916 29.3828 17.7388C 29.0361 19.0234 28.0234 20.0366 26.7383 20.3823C 24.3906 21 15 21 15 21C 15 21 5.63477 21 3.26172 20.3574C 1.97656 20.0117 0.963867 18.999 0.618164 17.7144C 0 15.3916 0 10.5 0 10.5C 0 10.5 0 5.63281 0.618164 3.28564C 0.963867 2.00098 2.00195 0.963379 3.26172 0.617676C 5.60938 0 15 0 15 0C 15 0 24.3906 0 26.7383 0.642578ZM 19.8174 10.4995L 12.0088 14.9961L 12.0088 6.00293L 19.8174 10.4995Z"/>
</defs>
</svg>
