<?xml version="1.0" encoding="UTF-8"?>
<svg width="20px" height="20px" viewBox="0 0 20 20" version="1.1" xmlns="http://www.w3.org/2000/svg" xmlns:xlink="http://www.w3.org/1999/xlink">
    <!-- Generator: sketchtool 50.2 (55047) - http://www.bohemiancoding.com/sketch -->
    <title>B1974DAB-4888-4B1C-B0A9-4EE793949CAB</title>
    <desc>Created with sketchtool.</desc>
    <defs></defs>
    <g id="Design" stroke="none" stroke-width="1" fill="none" fill-rule="evenodd">
        <g id="Main" transform="translate(-380.000000, -500.000000)">
            <g id="Group-4" transform="translate(378.000000, 498.000000)">
                <g id="round-access_time-24px">
                    <g id="Bounding_Boxes">
                        <polygon id="Shape" points="0 0 24 0 24 24 0 24"></polygon>
                    </g>
                    <g id="Rounded" transform="translate(2.000000, 2.000000)" fill="#007EFF" fill-rule="nonzero">
                        <g id="Group">
                            <path d="M9.99,0 C4.47,0 0,4.48 0,10 C0,15.52 4.47,20 9.99,20 C15.52,20 20,15.52 20,10 C20,4.48 15.52,0 9.99,0 Z M10,18 C5.58,18 2,14.42 2,10 C2,5.58 5.58,2 10,2 C14.42,2 18,5.58 18,10 C18,14.42 14.42,18 10,18 Z M9.78,5 L9.72,5 C9.32,5 9,5.32 9,5.72 L9,10.44 C9,10.79 9.18,11.12 9.49,11.3 L13.64,13.79 C13.98,13.99 14.42,13.89 14.62,13.55 C14.83,13.21 14.72,12.76 14.37,12.56 L10.5,10.26 L10.5,5.72 C10.5,5.32 10.18,5 9.78,5 Z" id="Combined-Shape"></path>
                        </g>
                    </g>
                </g>
            </g>
        </g>
    </g>
</svg>