<?xml version="1.0" encoding="UTF-8"?>
<svg width="24px" height="11px" viewBox="0 0 24 11" version="1.1" xmlns="http://www.w3.org/2000/svg" xmlns:xlink="http://www.w3.org/1999/xlink">
    <!-- Generator: sketchtool 50.2 (55047) - http://www.bohemiancoding.com/sketch -->
    <title>CA52E20F-2C29-426E-8724-DF56C4DE926A</title>
    <desc>Created with sketchtool.</desc>
    <defs></defs>
    <g id="Design" stroke="none" stroke-width="1" fill="none" fill-rule="evenodd">
        <g id="Main" transform="translate(-100.000000, -505.000000)" fill="#007EFF" fill-rule="nonzero">
            <g id="Group-5" transform="translate(100.000000, 498.000000)">
                <g id="delivery" transform="translate(0.000000, 7.000000)">
                    <path d="M3.51334549,8.96671022 L3.53567469,8.98798014 L7.72045543,8.98798014 L7.72045543,11 L0.229368016,11 L0.229368016,9.33160439 L3.6870811,5.68021949 C4.1281909,5.17520251 4.42855469,4.72565979 4.63686455,4.3295793 C4.8451744,3.93378626 4.94932933,3.59116802 4.94932933,3.29928142 C4.94932933,2.88336817 4.84402192,2.55440293 4.633119,2.3070682 C4.42236014,2.05944604 4.10614981,1.94073687 3.68463209,1.94073687 C3.30748465,1.94073687 3.01115452,2.11003397 2.79535357,2.42951398 C2.57955263,2.74870656 2.47165216,3.09549255 2.47165216,3.67035537 L0.0163042028,3.67035537 L0.00132202793,3.6056833 C-0.0236002437,2.60614058 0.303846712,1.73867259 0.983518836,1.04337601 C1.6630469,0.348366867 2.56327392,0 3.68448803,0 C4.87499469,0 5.80374547,0.29174288 6.47088443,0.875372354 C7.13802339,1.45957669 7.47166489,2.25705513 7.47166489,3.27154429 C7.47166489,3.95448132 7.29432781,4.55521296 6.93965363,5.07977528 C6.58497945,5.60419389 5.93152613,6.37810295 4.97914962,7.41213744 L3.51334549,8.96671022 Z M14.6353054,0.221322184 L14.6353054,6.83224458 L15.7877803,6.83224458 L15.7877803,8.70054873 L14.6353054,8.70054873 L14.6353054,11 L12.186296,11 L12.186296,8.70054873 L7.93539202,8.70054873 L7.81380591,7.16106611 L12.186296,0.179213483 L12.186296,0.221322184 L14.6353054,0.221322184 Z M12.186296,6.83224458 L12.186296,3.41569114 L12.1145544,3.4198589 L11.8939995,3.74451267 L10.0337609,6.83224458 L12.186296,6.83224458 Z M23.9991646,11 L22.4260363,11 L21.5501553,11 L21.5501553,6.33283251 C21.5501553,5.71902273 21.4612706,5.2959237 21.2751459,5.06324797 C21.0891653,4.83085968 20.8091139,4.71459368 20.4270684,4.71459368 C20.1840402,4.71459368 19.986823,4.7505226 19.8084775,4.82209302 C19.6296998,4.89395088 19.3892647,4.99412072 19.3892647,5.12274628 L19.3892647,11 L16.796196,11 L16.796196,0.0776064803 L19.3892647,0.0776064803 L19.3892647,3.92789391 C19.5333241,3.56673635 19.8975061,3.28577215 20.2472823,3.08528874 C20.5970585,2.88480533 20.9515886,2.78463548 21.3732504,2.78463548 C22.2066338,2.78463548 22.8537485,3.07407891 23.3301529,3.65310949 C23.6708533,4.06772929 23.8723924,4.64877188 23.9694884,5.39034492 C24.0078082,5.68453096 23.9991646,6.00171152 23.9991646,6.34749151 L23.9991646,11 Z" id="Combined-Shape"></path>
                </g>
            </g>
        </g>
    </g>
</svg>