<svg width="16" height="20" viewBox="0 0 16 20" fill="none" xmlns="http://www.w3.org/2000/svg">
<path fill-rule="evenodd" clip-rule="evenodd" d="M13.9374 12.155C14.0074 11.6649 14.4174 11.295 14.9174 11.295C15.5174 11.295 16.0074 11.825 15.9174 12.4149C15.2974 16.8849 10.9774 20.165 6.14743 19.085C3.05743 18.395 0.757431 16.005 0.157425 12.895C-0.842575 7.77495 3.05743 3.29495 7.99744 3.29495V0.494949C7.99744 0.0549469 8.53743 -0.165039 8.84743 0.144958L12.6374 3.93495C12.8374 4.13495 12.8374 4.44495 12.6374 4.64496L8.84743 8.43495C8.53743 8.75496 7.99744 8.53496 7.99744 8.08496V5.29495C4.26743 5.29495 1.31743 8.71495 2.12743 12.585C2.60744 14.845 4.26743 16.575 6.51743 17.115C10.1674 17.9949 13.4574 15.5249 13.9374 12.155ZM6.23828 15H10.3828V13.7266H8.22266V13.6875C8.85547 13.1198 9.26823 12.7344 9.46094 12.5312C9.65625 12.3281 9.8125 12.1354 9.92969 11.9531C10.0469 11.7682 10.1328 11.5807 10.1875 11.3906C10.2448 11.2005 10.2734 10.9935 10.2734 10.7695C10.2734 10.47 10.1927 10.2005 10.0312 9.96094C9.87239 9.71875 9.64714 9.53255 9.35547 9.40234C9.06641 9.27214 8.73698 9.20703 8.36719 9.20703C8.07292 9.20703 7.8073 9.23698 7.57031 9.29688C7.33594 9.35677 7.11848 9.44402 6.91797 9.55859C6.71745 9.67058 6.47005 9.85808 6.17578 10.1211L7.02344 11.1133C7.2552 10.9128 7.46223 10.7617 7.64453 10.6602C7.82942 10.556 8.01172 10.5039 8.19141 10.5039C8.36589 10.5039 8.5013 10.5469 8.59766 10.6328C8.69402 10.7188 8.74219 10.8359 8.74219 10.9844C8.74219 11.1042 8.71745 11.2188 8.66797 11.3281C8.62109 11.4375 8.53645 11.569 8.41406 11.7227C8.29167 11.8737 8.03125 12.1575 7.63281 12.5742L6.23828 13.9844V15Z" fill="#007EFF"/>
</svg>
