<?xml version="1.0" encoding="UTF-8"?>
<svg width="38px" height="36px" viewBox="0 0 38 36" version="1.1" xmlns="http://www.w3.org/2000/svg" xmlns:xlink="http://www.w3.org/1999/xlink">
    <!-- Generator: sketchtool 50.2 (55047) - http://www.bohemiancoding.com/sketch -->
    <title>15205056-09F3-4F1F-9A3D-6222E10AA422</title>
    <desc>Created with sketchtool.</desc>
    <defs></defs>
    <g id="Design" stroke="none" stroke-width="1" fill="none" fill-rule="evenodd">
        <g id="Main" transform="translate(-278.000000, -2259.000000)">
            <g id="Group" transform="translate(127.000000, 2231.000000)">
                <g id="round-grade-24px" transform="translate(146.000000, 23.000000)">
                    <g id="Bounding_Boxes">
                        <polygon id="Shape" points="0 0 48 0 48 48 0 48"></polygon>
                    </g>
                    <g id="Rounded" transform="translate(5.000000, 5.000000)" fill="#007EFF" fill-rule="nonzero">
                        <path d="M19,29.54 L29.34,35.78 C30.1,36.24 31.04,35.56 30.84,34.7 L28.1,22.94 L37.22,15.04 C37.88,14.46 37.54,13.36 36.64,13.28 L24.62,12.26 L19.92,1.18 C19.58,0.36 18.42,0.36 18.08,1.18 L13.38,12.26 L1.36,13.28 C0.48,13.36 0.12,14.46 0.8,15.04 L9.92,22.94 L7.18,34.7 C6.98,35.56 7.92,36.24 8.68,35.78 L19,29.54 Z" id="Shape"></path>
                    </g>
                </g>
            </g>
        </g>
    </g>
</svg>