<svg width="16" height="15" viewBox="0 0 16 15" fill="none" xmlns="http://www.w3.org/2000/svg">
<path id="facebook" d="M8.01199 15H0.827885C0.370523 15 0 14.6292 0 14.1721V0.827878C0 0.370578 0.370581 0 0.827885 0H14.1722C14.6294 0 15 0.370578 15 0.827878V14.1721C15 14.6293 14.6293 15 14.1722 15H10.3498V9.19117H12.2995L12.5915 6.92737H10.3498V5.48208C10.3498 4.82665 10.5318 4.38 11.4717 4.38L12.6704 4.37948V2.35472C12.4631 2.32713 11.7515 2.26549 10.9236 2.26549C9.19526 2.26549 8.01199 3.32048 8.01199 5.25788V6.92737H6.05723V9.19117H8.01199V15Z" transform="translate(0.5)" fill="#78708D"/>
</svg>
