<svg width="15" height="14" viewBox="0 0 15 14" fill="none" xmlns="http://www.w3.org/2000/svg">
<path id="Combined Shape" fill-rule="evenodd" clip-rule="evenodd" d="M14.9454 2.30859L14.9542 2.31543C14.9759 2.33301 14.9831 2.36328 14.968 2.3877L10.4208 9.75391L7.15158 4.45801L9.75659 0.238281C9.85004 0.0869141 10.0225 0 10.1957 0C10.2376 0 10.2793 0.00683594 10.3202 0.0166016C10.3527 0.0253906 10.3848 0.0351562 10.4153 0.0507812L14.9454 2.30859ZM5.71671 8.30078V3.49707L9.99997 10.4355L5.71671 8.30078ZM10.6435 10.7568L14.1693 12.5137C14.6281 12.7432 15 12.583 15 12.1562V3.69922L10.6435 10.7568ZM0.553833 0.120117L4.97311 2.32324C4.98959 2.33105 5.00006 2.34766 5.00006 2.36621V12.1572C5.00006 12.4697 4.83035 12.6562 4.58841 12.6562C4.50256 12.6562 4.40753 12.6328 4.30777 12.583L0.415375 10.6436C0.18689 10.5293 0 10.2275 0 9.97363V0.460938C0 0.210938 0.135742 0.0615234 0.329224 0.0615234C0.398041 0.0615234 0.473999 0.0800781 0.553833 0.120117Z" transform="translate(0 0.40625)" fill="#78708D"/>
</svg>
