<svg width="15" height="14" viewBox="0 0 15 14" fill="none" xmlns="http://www.w3.org/2000/svg">
<path id="twitter" d="M15 1.49827C14.4488 1.7524 13.8554 1.92426 13.233 2.00105C13.8686 1.60614 14.3564 0.979957 14.5862 0.234019C13.991 0.599675 13.3333 0.865689 12.6307 1.00829C12.0708 0.387595 11.2705 0 10.3848 0C8.68639 0 7.30851 1.43063 7.30851 3.19491C7.30851 3.44539 7.33492 3.68855 7.38774 3.92257C4.83008 3.7891 2.56295 2.51845 1.0442 0.583221C0.779187 1.05674 0.627751 1.60614 0.627751 2.19119C0.627751 3.29913 1.17098 4.27726 1.99683 4.85042C1.49322 4.83488 1.01778 4.68953 0.602219 4.45186V4.49116C0.602219 6.03971 1.66315 7.33139 3.07184 7.62392C2.81388 7.69888 2.54182 7.73636 2.26096 7.73636C2.06286 7.73636 1.86917 7.71716 1.68163 7.67968C2.07343 8.9485 3.20919 9.8727 4.55626 9.89738C3.50326 10.7548 2.17556 11.2658 0.734284 11.2658C0.486001 11.2658 0.240359 11.2512 0 11.222C1.36204 12.127 2.98028 12.6562 4.71738 12.6562C10.3786 12.6562 13.4733 7.78846 13.4733 3.56606C13.4733 3.42711 13.4707 3.28816 13.4654 3.15195C14.0667 2.70128 14.5888 2.13908 15 1.49827Z" transform="translate(0 0.40625)" fill="#78708D"/>
</svg>
