<?xml version="1.0" encoding="UTF-8"?>
<svg width="15px" height="14px" viewBox="0 0 15 14" version="1.1" xmlns="http://www.w3.org/2000/svg" xmlns:xlink="http://www.w3.org/1999/xlink">
    <!-- Generator: sketchtool 50.2 (55047) - http://www.bohemiancoding.com/sketch -->
    <title>77D049E4-00BA-4545-B630-BF4ECF4DC3B9</title>
    <desc>Created with sketchtool.</desc>
    <defs></defs>
    <g id="Symbols" stroke="none" stroke-width="1" fill="none" fill-rule="evenodd">
        <g id="Component/Header" transform="translate(-1325.000000, -46.000000)" fill="#FFFFFF">
            <g id="Socials" transform="translate(1250.000000, 45.000000)">
                <path d="M89.9541346,3.72199968 C89.9759207,3.73914597 89.9830871,3.76943776 89.9680375,3.79401411 L85.4207675,11.1603471 L82.1515661,5.86442892 L84.7565788,1.64415481 C84.8500296,1.49298166 85.0224549,1.40625 85.1957402,1.40625 C85.2375924,1.40625 85.2793013,1.41267986 85.3201502,1.42311052 C85.352686,1.4313979 85.3847918,1.44168567 85.415321,1.45697445 L89.9402316,3.71242633 L89.9453915,3.71499828 C89.9489747,3.71671291 89.951268,3.71971351 89.9541346,3.72199968 Z M80.716695,4.90309346 L84.9999522,11.8420551 L80.716695,9.70705595 L80.716695,4.90309346 Z M85.6435014,12.1628337 L90,5.10541971 L90,13.5626856 C90,13.9887709 89.6280601,14.1489459 89.1692625,13.9201858 L85.6435014,12.1628337 Z M79.9731018,3.7288582 C79.9895847,3.73700269 80.0000478,3.75386321 80.0000478,3.77215259 L80.0000478,13.5626856 C80.0000478,13.8758912 79.8303457,14.0625 79.5884056,14.0625 C79.5025513,14.0625 79.4075238,14.0389238 79.3077665,13.9891996 L75.4153687,12.0490966 C75.1869016,11.9352167 75,11.6337277 75,11.3791052 L75,1.8671995 C75,1.61672074 75.135733,1.46740511 75.3292277,1.46740511 C75.3980259,1.46740511 75.4739905,1.48626603 75.553825,1.52598828 L79.9731018,3.7288582 Z" id="Combined-Shape"></path>
            </g>
        </g>
    </g>
</svg>