<?xml version="1.0" encoding="UTF-8"?>
<svg width="15px" height="14px" viewBox="0 0 15 14" version="1.1" xmlns="http://www.w3.org/2000/svg" xmlns:xlink="http://www.w3.org/1999/xlink">
    <!-- Generator: sketchtool 50.2 (55047) - http://www.bohemiancoding.com/sketch -->
    <title>4889DAA4-EBD7-413E-9B17-8814378F9A25</title>
    <desc>Created with sketchtool.</desc>
    <defs></defs>
    <g id="Symbols" stroke="none" stroke-width="1" fill="none" fill-rule="evenodd">
        <g id="Component/Header" transform="translate(-1250.000000, -46.000000)" fill="#FFFFFF" fill-rule="nonzero">
            <g id="Socials" transform="translate(1250.000000, 45.000000)">
                <path d="M15,2.90452314 C14.4488466,3.15865399 13.8554322,3.33051195 13.2329634,3.40729963 C13.8686387,3.01239172 14.3564006,2.38620667 14.5861947,1.64026944 C13.9910197,2.00592496 13.3333334,2.2719394 12.630745,2.41454496 C12.0707872,1.79384481 11.27047,1.40625 10.3847509,1.40625 C8.68638844,1.40625 7.308505,2.83687706 7.308505,4.60116464 C7.308505,4.85163879 7.33491813,5.09479952 7.38774438,5.32881896 C4.83007562,5.1953547 2.56295125,3.924702 1.04419781,1.98947057 C0.779186563,2.46299435 0.62775125,3.01239172 0.62775125,3.59744048 C0.62775125,4.70537652 1.17098094,5.68350499 1.99683031,6.25666985 C1.49322062,6.24112956 1.01778469,6.09578139 0.60221875,5.85810524 L0.60221875,5.89741334 C0.60221875,7.44596438 1.663145,8.73764227 3.07184375,9.03016649 C2.81387563,9.10512598 2.54182062,9.14260556 2.26096156,9.14260556 C2.06286312,9.14260556 1.86916719,9.12340888 1.68163406,9.08592898 C2.07342844,10.3547535 3.20919187,11.2789477 4.55626,11.3036296 C3.5032575,12.1610914 2.17555906,12.6720951 0.734284063,12.6720951 C0.486000938,12.6720951 0.240359063,12.6574689 0,12.6282165 C1.36203563,13.5332137 2.98027813,14.0625 4.71737969,14.0625 C10.3785878,14.0625 13.4733228,9.19471166 13.4733228,4.97230506 C13.4733228,4.83335589 13.4706816,4.69440671 13.4653987,4.55820015 C14.0667372,4.10752976 14.5888359,3.54533439 15,2.90452314" id="twitter"></path>
            </g>
        </g>
    </g>
</svg>