<?xml version="1.0" encoding="UTF-8"?>
<svg width="16px" height="15px" viewBox="0 0 16 15" version="1.1" xmlns="http://www.w3.org/2000/svg" xmlns:xlink="http://www.w3.org/1999/xlink">
    <!-- Generator: sketchtool 50.2 (55047) - http://www.bohemiancoding.com/sketch -->
    <title>756591F8-694D-45B3-9E4E-BE514E76FDE2</title>
    <desc>Created with sketchtool.</desc>
    <defs></defs>
    <g id="Symbols" stroke="none" stroke-width="1" fill="none" fill-rule="evenodd">
        <g id="Component/Header" transform="translate(-1287.000000, -45.000000)" fill="#FFFFFF" fill-rule="nonzero">
            <g id="Socials" transform="translate(1250.000000, 45.000000)">
                <path d="M45.5119859,15 L38.327885,15 C37.8705228,15 37.5,14.6292475 37.5,14.1720634 L37.5,0.827878438 C37.5,0.370578125 37.8705809,0 38.327885,0 L51.6721734,0 C52.1293609,0 52.5,0.370578125 52.5,0.827878438 L52.5,14.1720634 C52.5,14.6293056 52.1293028,15 51.6721734,15 L47.8497828,15 L47.8497828,9.19117344 L49.7995378,9.19117344 L50.0914859,6.92737063 L47.8497828,6.92737063 L47.8497828,5.48207531 C47.8497828,4.82665219 48.031785,4.38000312 48.9716531,4.38000312 L50.1704097,4.37947906 L50.1704097,2.35471594 C49.9630894,2.3271275 49.251495,2.26549063 48.42361,2.26549063 C46.6952606,2.26549063 45.5119859,3.32047688 45.5119859,5.25787781 L45.5119859,6.92737063 L43.5572256,6.92737063 L43.5572256,9.19117344 L45.5119859,9.19117344 L45.5119859,15 Z" id="facebook"></path>
            </g>
        </g>
    </g>
</svg>