<?xml version="1.0" encoding="UTF-8"?>
<svg width="44px" height="24px" viewBox="0 0 44 24" version="1.1" xmlns="http://www.w3.org/2000/svg" xmlns:xlink="http://www.w3.org/1999/xlink">
    <!-- Generator: sketchtool 50.2 (55047) - http://www.bohemiancoding.com/sketch -->
    <title>E47C14C9-C72B-4906-AB74-FDF866AF6059</title>
    <desc>Created with sketchtool.</desc>
    <defs></defs>
    <g id="Design" stroke="none" stroke-width="1" fill="none" fill-rule="evenodd">
        <g id="Main" transform="translate(-433.000000, -7050.000000)" fill="#00FF9D" fill-rule="nonzero">
            <g id="Group" transform="translate(259.000000, 6987.000000)">
                <g id="round-timeline-24px" transform="translate(174.000000, 63.000000)">
                    <path d="M44,4 C44,6.2 42.2,8 40,8 C39.64,8 39.3,7.96 38.98,7.86 L31.86,14.96 C31.96,15.28 32,15.64 32,16 C32,18.2 30.2,20 28,20 C25.8,20 24,18.2 24,16 C24,15.64 24.04,15.28 24.14,14.96 L19.04,9.86 C18.72,9.96 18.36,10 18,10 C17.64,10 17.28,9.96 16.96,9.86 L7.86,18.98 C7.96,19.3 8,19.64 8,20 C8,22.2 6.2,24 4,24 C1.8,24 0,22.2 0,20 C0,17.8 1.8,16 4,16 C4.36,16 4.7,16.04 5.02,16.14 L14.14,7.04 C14.04,6.72 14,6.36 14,6 C14,3.8 15.8,2 18,2 C20.2,2 22,3.8 22,6 C22,6.36 21.96,6.72 21.86,7.04 L26.96,12.14 C27.28,12.04 27.64,12 28,12 C28.36,12 28.72,12.04 29.04,12.14 L36.14,5.02 C36.04,4.7 36,4.36 36,4 C36,1.8 37.8,0 40,0 C42.2,0 44,1.8 44,4 Z" id="Shape"></path>
                </g>
            </g>
        </g>
    </g>
</svg>