<?xml version="1.0" encoding="UTF-8"?>
<svg width="40px" height="40px" viewBox="0 0 40 40" version="1.1" xmlns="http://www.w3.org/2000/svg" xmlns:xlink="http://www.w3.org/1999/xlink">
    <!-- Generator: sketchtool 50.2 (55047) - http://www.bohemiancoding.com/sketch -->
    <title>1AC29B6F-024C-4BC1-916A-1941ADBBDCD8</title>
    <desc>Created with sketchtool.</desc>
    <defs></defs>
    <g id="Design" stroke="none" stroke-width="1" fill="none" fill-rule="evenodd">
        <g id="Main" transform="translate(-967.000000, -7039.000000)">
            <g id="Group" transform="translate(789.000000, 6987.000000)">
                <g id="round-explore-24px" transform="translate(174.000000, 48.000000)">
                    <g id="Bounding_Boxes">
                        <polygon id="Shape" points="0 0 48 0 48 48 0 48"></polygon>
                    </g>
                    <g id="Rounded" transform="translate(4.000000, 4.000000)" fill="#007EFF" fill-rule="nonzero">
                        <path d="M20,17.8 C18.78,17.8 17.8,18.78 17.8,20 C17.8,21.22 18.78,22.2 20,22.2 C21.22,22.2 22.2,21.22 22.2,20 C22.2,18.78 21.22,17.8 20,17.8 Z M20,0 C8.96,0 0,8.96 0,20 C0,31.04 8.96,40 20,40 C31.04,40 40,31.04 40,20 C40,8.96 31.04,0 20,0 Z M24.38,24.38 L8,32 L15.62,15.62 L32,8 L24.38,24.38 Z" id="Shape"></path>
                    </g>
                </g>
            </g>
        </g>
    </g>
</svg>