<svg width="24" height="24" viewBox="0 0 24 24" fill="none" xmlns="http://www.w3.org/2000/svg">
<path d="M14.4325 0.85L15.8725 2.29L10.9925 7.17L7.7025 3.88C7.3125 3.49 6.6825 3.49 6.2925 3.88L0.2925 9.89C-0.0974999 10.28 -0.0974999 10.91 0.2925 11.3C0.6825 11.69 1.3125 11.69 1.7025 11.3L6.9925 6L10.2825 9.29C10.6725 9.68 11.3025 9.68 11.6925 9.29L17.2825 3.71L18.7225 5.15C19.0325 5.46 19.5725 5.24 19.5725 4.8V0.5C19.5825 0.22 19.3625 0 19.0825 0H14.7925C14.3425 0 14.1225 0.54 14.4325 0.85Z" transform="translate(2.4175 6)" fill="#8F8F9C"/>
</svg>
