<svg width="24" height="24" viewBox="0 0 24 24" fill="none" xmlns="http://www.w3.org/2000/svg">
<path d="M18 0.01C17.87 0.01 17.74 0.0599999 17.65 0.16L16.86 0.95C16.66 1.15 16.35 1.15 16.15 0.95L15.36 0.16C15.16 -0.0400001 14.85 -0.0400001 14.65 0.16L13.86 0.95C13.66 1.15 13.35 1.15 13.15 0.95L12.36 0.16C12.16 -0.0400001 11.85 -0.0400001 11.65 0.16L10.86 0.95C10.66 1.15 10.35 1.15 10.15 0.95L9.36 0.16C9.16 -0.0400001 8.85 -0.0400001 8.65 0.16L7.86 0.95C7.66 1.15 7.35 1.15 7.15 0.95L6.35 0.15C6.15 -0.0500001 5.84 -0.0500001 5.64 0.15L4.85 0.95C4.65 1.15 4.34 1.15 4.14 0.95L3.35 0.15C3.15 -0.0500001 2.84 -0.0500001 2.64 0.15L1.85 0.95C1.65 1.15 1.34 1.15 1.14 0.95L0.35 0.15C0.26 0.0599999 0.13 0.01 0 0.01V19.6C0.13 19.6 0.26 19.55 0.35 19.45L1.14 18.66C1.34 18.46 1.65 18.46 1.85 18.66L2.64 19.45C2.84 19.65 3.15 19.65 3.35 19.45L4.14 18.66C4.34 18.46 4.65 18.46 4.85 18.66L5.64 19.45C5.84 19.65 6.15 19.65 6.35 19.45L7.14 18.66C7.34 18.46 7.65 18.46 7.85 18.66L8.64 19.45C8.84 19.65 9.15 19.65 9.35 19.45L10.14 18.66C10.34 18.46 10.65 18.46 10.85 18.66L11.64 19.45C11.84 19.65 12.15 19.65 12.35 19.45L13.14 18.66C13.34 18.46 13.65 18.46 13.85 18.66L14.64 19.45C14.84 19.65 15.15 19.65 15.35 19.45L16.14 18.66C16.34 18.46 16.65 18.46 16.85 18.66L17.64 19.45C17.74 19.55 17.87 19.6 17.99 19.6V0.01H18ZM14 14.8H4C3.45 14.8 3 14.35 3 13.8C3 13.25 3.45 12.8 4 12.8H14C14.55 12.8 15 13.25 15 13.8C15 14.35 14.55 14.8 14 14.8ZM14 10.8H4C3.45 10.8 3 10.35 3 9.8C3 9.25 3.45 8.8 4 8.8H14C14.55 8.8 15 9.25 15 9.8C15 10.35 14.55 10.8 14 10.8ZM14 6.8H4C3.45 6.8 3 6.35 3 5.8C3 5.25 3.45 4.8 4 4.8H14C14.55 4.8 15 5.25 15 5.8C15 6.35 14.55 6.8 14 6.8Z" transform="translate(3 2.2002)" fill="#8F8F9C"/>
</svg>
