<svg width="24" height="24" viewBox="0 0 24 24" fill="none" xmlns="http://www.w3.org/2000/svg">
<path d="M4 8C6.20914 8 8 6.20914 8 4C8 1.79086 6.20914 0 4 0C1.79086 0 0 1.79086 0 4C0 6.20914 1.79086 8 4 8Z" transform="translate(5 5)" fill="#8F8F9C"/>
<path d="M8 0C5.33 0 0 1.34 0 4V5C0 5.55 0.45 6 1 6H15C15.55 6 16 5.55 16 5V4C16 1.34 10.67 0 8 0Z" transform="translate(1 15)" fill="#8F8F9C"/>
<path d="M0.100718 1.73672C0.420718 2.52672 0.420718 3.40671 0.100718 4.19671C-0.0892821 4.66671 -0.00928205 5.19672 0.350718 5.55672L0.380718 5.58672C0.960718 6.16672 1.95072 6.04672 2.33072 5.31672C3.09072 3.86672 3.09072 2.16672 2.31072 0.656716C1.93072 -0.0832844 0.930718 -0.223284 0.340718 0.366716L0.330718 0.376715C-0.0092825 0.726715 -0.0892821 1.26672 0.100718 1.73672Z" transform="translate(15.3693 6.0332)" fill="#8F8F9C"/>
<path d="M0.362045 0.341766C-0.0379546 0.741766 -0.0979557 1.36177 0.232044 1.82177C2.20204 4.56177 2.19205 8.23177 0.202046 11.0718C-0.117954 11.5218 -0.0479551 12.1418 0.342045 12.5318L0.372046 12.5618C0.862046 13.0518 1.69205 13.0118 2.11205 12.4618C4.86205 8.92177 4.87205 4.09177 2.11205 0.441766C1.69205 -0.108234 0.852045 -0.148234 0.362045 0.341766Z" transform="translate(18.818 2.54834)" fill="#8F8F9C"/>
</svg>
