<svg width="20" height="20" viewBox="0 0 20 20" fill="none" xmlns="http://www.w3.org/2000/svg">
<path d="M0.333141 1.61577C0.56282 1.78811 0.763789 1.80678 1.36443 1.84077C3.12436 1.94178 4.24034 2.31774 5.48162 3.22903C7.00121 4.34067 7.95453 5.89128 8.31585 7.83784C8.40885 8.34181 8.45482 8.76949 8.48615 9.41411C8.50514 9.84644 8.52013 10.0141 8.61849 10.2034C8.75716 10.4617 9.02582 10.6334 9.33745 10.6624C9.36811 10.665 9.39877 10.6664 9.42912 10.6664C9.70646 10.6664 9.96379 10.549 10.1281 10.3447C10.3464 10.0787 10.3461 9.83074 10.3248 9.29673C10.2621 7.64281 9.90043 6.15685 9.24979 4.88022C8.78583 3.97193 8.34284 3.37696 7.55619 2.60566C6.71724 1.79003 6.07058 1.33371 5.08327 0.862053C4.03734 0.362814 3.29736 0.204813 2.21373 0.0725129C1.99507 0.0475139 1.58341 0.0148589 1.29775 0.00552331C0.753438 -0.0124838 0.54079 0.00220313 0.289471 0.225515C0.0968224 0.395157 -0.00817406 0.652842 0.000497485 0.933144C0.00912997 1.21145 0.12979 1.4591 0.333141 1.61577Z" transform="translate(9.66626)" fill="white"/>
<path d="M5.57846 6.35669C5.57846 6.82499 5.61713 7.26466 6.07875 7.492C6.20543 7.55766 6.37042 7.59066 6.53139 7.59066C6.6744 7.59066 6.81373 7.56434 6.92005 7.51102C7.10672 7.41501 7.29504 7.21236 7.36871 7.02904C7.46237 6.79273 7.41972 5.94541 7.39304 5.70644C7.26805 4.63882 6.89704 3.63085 6.32043 2.7919C5.27582 1.2743 3.71052 0.356642 1.66892 0.0643483C0.976605 -0.03764 0.46229 -0.0736543 0.159645 0.38832C-0.0780024 0.739323 -0.0476917 1.18696 0.232962 1.50062C0.456625 1.75428 0.776925 1.81163 1.06027 1.83428C1.87157 1.89826 2.78021 2.16392 3.37585 2.51094L3.37687 2.51125C4.06985 2.91256 4.6435 3.4959 5.03645 4.19853C5.38081 4.81307 5.57846 5.59972 5.57846 6.35669Z" transform="translate(9.90674 2.40918)" fill="white"/>
<path d="M3.3765 0.903277C2.9205 0.485637 2.38619 0.223967 1.69621 0.079988C1.53821 0.046669 1.27021 0.0176464 1.10358 0.00831079C0.816245 -0.00934479 0.697929 -0.0063368 0.493601 0.0929563C0.246618 0.216936 0.0736168 0.446927 0.0182674 0.723284C-0.0367306 0.997922 0.0336186 1.27428 0.213612 1.48427C0.421612 1.72192 0.634612 1.78125 1.06424 1.83227C1.78222 1.91828 2.18654 2.15991 2.41521 2.63923C2.53087 2.88387 2.59653 3.15186 2.63454 3.5372C2.67387 3.8982 2.74453 4.12983 3.00151 4.31983C3.16319 4.44181 3.36783 4.50216 3.57048 4.50216C3.79215 4.50216 4.01179 4.42982 4.17213 4.28682L4.17413 4.28549C4.50544 3.98585 4.51946 3.61419 4.42978 3.03421C4.2908 2.10522 3.96648 1.4479 3.3765 0.903277Z" transform="translate(10.333 5)" fill="white"/>
<path d="M19.9979 15.8086C19.9816 15.4456 19.8569 15.121 19.6242 14.8407C19.3996 14.5757 17.9646 13.4411 17.3243 13.0027C16.8263 12.6638 16.0394 12.1864 15.6714 12.0001C15.1277 11.7298 14.5811 11.6825 14.0431 11.8608C13.9255 11.9001 13.8414 11.9351 13.7625 11.9764C13.4901 12.1194 13.2901 12.3447 12.9015 12.8227C12.4852 13.3254 12.3985 13.4231 12.3995 13.4231C12.3602 13.4467 12.2975 13.4801 12.2215 13.5147C11.9119 13.6558 11.4042 13.5397 10.5786 13.1374C9.8819 12.8004 9.25626 12.3678 8.54965 11.7351C7.94768 11.1988 7.34235 10.5032 7.00639 9.96351C6.53972 9.21486 6.25743 8.34857 6.25407 7.94624C6.25407 7.78957 6.32274 7.56458 6.39707 7.4406L6.42973 7.40693C6.45172 7.3856 6.47605 7.36259 6.50937 7.33326C6.62538 7.22892 6.79335 7.08928 6.96834 6.95093C7.73632 6.34595 7.97963 6.10096 8.10962 5.64598C8.23528 5.22533 8.12498 4.70734 7.76229 4.01639C7.22196 2.98541 5.50871 0.791162 4.79374 0.328523C4.67608 0.254854 4.48242 0.155522 4.34543 0.109547C4.05212 0.00587936 3.63081 -0.0294318 3.36879 0.0262302C3.00615 0.100563 2.60815 0.328875 1.72987 0.966859C1.2486 1.31919 0.506633 2.00815 0.305273 2.33747C-0.169709 3.1351 -0.048698 3.82706 0.38195 4.98604C0.792286 6.09202 1.31859 7.20529 1.94423 8.29224L1.97689 8.34724C2.1029 8.56489 2.23188 8.78191 2.36723 8.99956L2.40222 9.05456C2.53656 9.26822 2.67257 9.48153 2.81487 9.69387L3.03919 10.0202C3.12286 10.1422 3.20618 10.2638 3.2925 10.3849C3.46285 10.6222 3.63749 10.8588 3.8185 11.0948C5.74807 13.6074 7.971 15.6247 10.6139 17.2609L10.7222 17.3289C11.1059 17.5639 11.5142 17.7989 11.9355 18.0269L12.1001 18.1156C12.5361 18.3476 12.9504 18.5556 13.3668 18.7506L13.4964 18.8095C13.9881 19.0372 14.4377 19.2328 14.8703 19.4072C15.394 19.6185 15.6363 19.6832 16.0043 19.6832C16.0696 19.6832 16.1393 19.6812 16.2153 19.6775C16.4526 19.6662 16.6659 19.6308 16.8679 19.5692C17.1516 19.4832 17.4356 19.3389 17.7605 19.1145C17.8172 19.0755 17.8739 19.0359 17.9349 18.9909C18.0069 18.9379 18.0835 18.8729 18.1612 18.8059C18.5315 18.4855 18.9565 18.0202 19.2988 17.5613C19.4815 17.3163 19.7241 16.9606 19.8451 16.6553C19.9584 16.3696 20.0098 16.0846 19.9978 15.809V15.8086H19.9979Z" transform="translate(0 0.316406)" fill="white"/>
</svg>
