<svg width="20" height="12" viewBox="0 0 20 12" fill="none" xmlns="http://www.w3.org/2000/svg">
<path d="M19.8939 10.3053C19.8697 10.2531 19.8471 10.2098 19.8262 10.1751C19.4792 9.55015 18.8161 8.78306 17.8372 7.87362L17.8166 7.85279L17.8062 7.84258L17.7957 7.83212H17.7852C17.341 7.40863 17.0597 7.12389 16.9419 6.97811C16.7263 6.70041 16.678 6.41932 16.7959 6.13451C16.8791 5.91932 17.1917 5.46487 17.733 4.77055C18.0178 4.40257 18.2433 4.10766 18.4098 3.88547C19.6109 2.28871 20.1316 1.26835 19.9719 0.824008L19.9098 0.720171C19.8681 0.657657 19.7606 0.600469 19.5872 0.548313C19.4134 0.496267 19.1914 0.48766 18.9206 0.522345L15.9216 0.543061C15.8731 0.525846 15.8037 0.527451 15.7133 0.548313C15.623 0.569175 15.5779 0.579643 15.5779 0.579643L15.5257 0.605721L15.4843 0.63705C15.4495 0.657767 15.4114 0.694203 15.3697 0.746286C15.3282 0.798186 15.2935 0.859094 15.2658 0.928501C14.9393 1.7685 14.5681 2.54948 14.1515 3.27142C13.8946 3.7019 13.6587 4.07498 13.4432 4.39087C13.2281 4.70665 13.0476 4.9393 12.9019 5.08844C12.756 5.23772 12.6244 5.35731 12.5061 5.44766C12.388 5.53803 12.2979 5.57622 12.2355 5.56225C12.173 5.54828 12.1141 5.53442 12.0583 5.52056C11.9612 5.45805 11.8831 5.37303 11.8241 5.26544C11.765 5.15785 11.7252 5.02242 11.7043 4.85928C11.6836 4.69603 11.6714 4.55561 11.6679 4.43755C11.6646 4.31964 11.6661 4.15285 11.6732 3.93766C11.6804 3.72236 11.6836 3.57669 11.6836 3.50032C11.6836 3.23648 11.6888 2.95013 11.6991 2.64121C11.7096 2.33229 11.7181 2.08752 11.7252 1.9072C11.7323 1.7267 11.7356 1.53573 11.7356 1.3344C11.7356 1.13308 11.7233 0.975186 11.6991 0.86059C11.6752 0.746139 11.6384 0.635045 11.59 0.527341C11.5413 0.419748 11.4701 0.336518 11.3766 0.277432C11.2829 0.21842 11.1664 0.171589 11.0277 0.136794C10.6598 0.0535278 10.1912 0.00848441 9.62183 0.0014817C8.33067 -0.0123778 7.50103 0.070998 7.1331 0.2515C6.98732 0.327764 6.8554 0.431966 6.73745 0.563777C6.61245 0.71656 6.59502 0.799937 6.68525 0.81365C7.10184 0.876055 7.39676 1.02534 7.57033 1.26135L7.63288 1.38641C7.68153 1.47665 7.73012 1.6364 7.77873 1.86544C7.82728 2.09449 7.85861 2.34786 7.87239 2.62542C7.90704 3.13228 7.90704 3.56615 7.87239 3.92708C7.83764 4.28816 7.80481 4.56925 7.77348 4.77058C7.74215 4.97191 7.69532 5.13505 7.63288 5.25997C7.57033 5.38492 7.52872 5.4613 7.50785 5.48902C7.48703 5.51674 7.46967 5.53421 7.45588 5.54106C7.36565 5.57564 7.2718 5.59325 7.17468 5.59325C7.0774 5.59325 6.95945 5.5446 6.82064 5.44736C6.68186 5.35013 6.53783 5.21657 6.38855 5.04646C6.23927 4.87632 6.07091 4.63855 5.88341 4.33313C5.69605 4.02771 5.50165 3.66674 5.30032 3.25023L5.13375 2.94816C5.02962 2.75384 4.88738 2.47088 4.70688 2.09956C4.52627 1.72809 4.36663 1.36876 4.22785 1.02165C4.17237 0.875872 4.08904 0.764887 3.97798 0.688513L3.92586 0.657183C3.89121 0.629464 3.83559 0.600031 3.75929 0.568664C3.68288 0.537335 3.60315 0.514867 3.51977 0.501044L0.66657 0.521761C0.37501 0.521761 0.177183 0.587812 0.0730178 0.719733L0.0313298 0.782138C0.0105041 0.816896 0 0.872407 0 0.948817C0 1.02519 0.0208258 1.11892 0.0625138 1.22991C0.479029 2.20883 0.93198 3.15292 1.42137 4.06232C1.91075 4.97173 2.33602 5.70428 2.69692 6.25931C3.05789 6.81475 3.42582 7.33897 3.80072 7.83171C4.17562 8.32464 4.42378 8.64053 4.5452 8.7793C4.66676 8.91834 4.76224 9.02228 4.83165 9.09169L5.09203 9.34156C5.25863 9.50821 5.50329 9.70778 5.82611 9.94029C6.149 10.173 6.50646 10.402 6.89869 10.6278C7.29099 10.8532 7.74737 11.0372 8.26808 11.1795C8.78873 11.3219 9.29548 11.3791 9.7884 11.3515H10.9859C11.2288 11.3305 11.4128 11.2541 11.5379 11.1223L11.5793 11.0701C11.6072 11.0287 11.6333 10.9643 11.6573 10.8777C11.6817 10.7909 11.6938 10.6953 11.6938 10.5914C11.6867 10.2929 11.7094 10.0239 11.7613 9.78445C11.8132 9.54504 11.8724 9.36454 11.9386 9.24298C12.0047 9.12152 12.0793 9.01904 12.1624 8.93595C12.2456 8.85269 12.3049 8.80225 12.3397 8.78488C12.3743 8.76741 12.4019 8.75556 12.4227 8.74845C12.5893 8.69294 12.7854 8.7467 13.0112 8.90998C13.2369 9.07313 13.4485 9.27456 13.6465 9.51397C13.8444 9.75359 14.0821 10.0224 14.3597 10.3209C14.6375 10.6194 14.8804 10.8414 15.0886 10.9874L15.2968 11.1123C15.4358 11.1957 15.6163 11.2721 15.8385 11.3415C16.0603 11.4109 16.2546 11.4282 16.4215 11.3935L19.0872 11.352C19.3508 11.352 19.556 11.3083 19.7015 11.2217C19.8473 11.1349 19.9339 11.0393 19.9619 10.9353C19.9897 10.8312 19.9912 10.7131 19.9672 10.5811C19.9425 10.4494 19.9181 10.3573 19.8939 10.3053Z" fill="white"/>
</svg>
