<?xml version="1.0" encoding="UTF-8"?>
<svg width="16px" height="16px" viewBox="0 0 16 16" version="1.1" xmlns="http://www.w3.org/2000/svg" xmlns:xlink="http://www.w3.org/1999/xlink">
    <!-- Generator: sketchtool 50.2 (55047) - http://www.bohemiancoding.com/sketch -->
    <title>A8A94F6F-53B6-48B1-BA38-E81BDC4CE893</title>
    <desc>Created with sketchtool.</desc>
    <defs></defs>
    <g id="Design" stroke="none" stroke-width="1" fill="none" fill-rule="evenodd">
        <g id="Main" transform="translate(-978.000000, -1235.000000)" fill="#FFBC00" fill-rule="nonzero">
            <g id="Group-6" transform="translate(736.000000, 1231.000000)">
                <g id="round-arrow_forward-24px" transform="translate(210.000000, 0.000000)">
                    <g id="Rounded" transform="translate(32.000000, 4.000000)">
                        <path d="M1,9 L12.17,9 L7.29,13.88 C6.9,14.27 6.9,14.91 7.29,15.3 C7.68,15.69 8.31,15.69 8.7,15.3 L15.29,8.71 C15.68,8.32 15.68,7.69 15.29,7.3 L8.71,0.7 C8.32,0.31 7.69,0.31 7.3,0.7 C6.91,1.09 6.91,1.72 7.3,2.11 L12.17,7 L1,7 C0.45,7 0,7.45 0,8 C0,8.55 0.45,9 1,9 Z" id="Shape"></path>
                    </g>
                </g>
            </g>
        </g>
    </g>
</svg>