<svg width="55" height="34" viewBox="0 0 55 34" fill="none" xmlns="http://www.w3.org/2000/svg">
<path d="M49.5 64.49C55.33 64.49 59.4 61.3 60.72 56.02C60.94 55.14 61.16 53.82 61.16 52.83C61.16 49.2 58.41 46.01 53.79 45.35C57.09 40.07 60.61 36.33 67.32 31.6H57.42C50.49 36.44 42.68 43.81 40.7 52.39C40.48 53.38 40.37 54.48 40.37 55.58C40.37 60.42 43.78 64.49 49.5 64.49ZM22.66 64.49C28.49 64.49 32.56 61.3 33.88 56.02C34.1 55.14 34.32 53.82 34.32 52.83C34.32 49.2 31.57 46.01 26.95 45.35C30.25 40.07 33.77 36.33 40.48 31.6H30.58C23.65 36.44 15.84 43.81 13.86 52.39C13.64 53.38 13.53 54.48 13.53 55.58C13.53 60.42 16.94 64.49 22.66 64.49Z" transform="translate(-13 -31)" fill="white"/>
</svg>
