<svg width="18" height="18" viewBox="0 0 18 18" fill="none" xmlns="http://www.w3.org/2000/svg">
<g filter="url(#filter0_d)">
<path fill-rule="evenodd" clip-rule="evenodd" d="M7.99999 0C6.41774 0 4.871 0.469185 3.55541 1.34824C2.23981 2.22729 1.21443 3.47673 0.608933 4.93854C0.00343233 6.40035 -0.154949 8.00888 0.153733 9.56073C0.462415 11.1126 1.22431 12.538 2.34313 13.6569C3.46195 14.7757 4.88741 15.5376 6.43926 15.8463C7.9911 16.155 9.59964 15.9965 11.0614 15.391C12.5233 14.7855 13.7727 13.7602 14.6517 12.4446C15.5308 11.129 16 9.58225 16 8C16 5.87827 15.1571 3.84343 13.6568 2.34314C12.1566 0.842849 10.1217 0 7.99999 0ZM7.99999 14C6.8133 14 5.65325 13.6481 4.66655 12.9888C3.67986 12.3295 2.91084 11.3925 2.45671 10.2961C2.00259 9.19974 1.88377 7.99334 2.11528 6.82945C2.34679 5.66557 2.91826 4.59647 3.75737 3.75735C4.59649 2.91824 5.66557 2.34681 6.82945 2.1153C7.99334 1.88378 9.19971 2.0026 10.2961 2.45673C11.3924 2.91085 12.3295 3.67989 12.9888 4.66658C13.6481 5.65328 14 6.81331 14 8C14 9.5913 13.3678 11.1174 12.2426 12.2426C11.1174 13.3679 9.59128 14 7.99999 14Z" transform="translate(1)" fill="#F9FAFF"/>
<path d="M10.7577 5.10092L10.9274 5.27062C11.0851 5.43933 11.171 5.6627 11.167 5.8936C11.1631 6.1245 11.0695 6.34484 10.9061 6.50804L6.50794 10.9062C6.34103 11.0732 6.11466 11.1669 5.87861 11.1669C5.64257 11.1669 5.41619 11.0731 5.24928 10.9062L5.10081 10.7578C5.01664 10.6755 4.94961 10.5773 4.90364 10.4689C4.85768 10.3605 4.83369 10.2441 4.83304 10.1264C4.83238 10.0087 4.85505 9.89195 4.8998 9.78306C4.94455 9.67418 5.01048 9.57527 5.09372 9.49204L9.49193 5.09383C9.57517 5.01058 9.67407 4.94466 9.78296 4.89991C9.89184 4.85516 10.0086 4.83249 10.1263 4.83314C10.244 4.8338 10.3604 4.85779 10.4688 4.90375C10.5772 4.94971 10.6754 5.01675 10.7577 5.10092Z" transform="translate(1)" fill="#F9FAFF"/>
<path d="M5.24224 5.10092L5.07255 5.27062C4.91485 5.43933 4.82892 5.6627 4.83288 5.8936C4.83683 6.1245 4.93038 6.34484 5.09377 6.50804L9.49197 10.9062C9.65888 11.0732 9.88526 11.1669 10.1213 11.1669C10.3573 11.1669 10.5837 11.0731 10.7506 10.9062L10.8991 10.7578C10.9833 10.6755 11.0503 10.5773 11.0963 10.4689C11.1422 10.3605 11.1662 10.2441 11.1669 10.1264C11.1675 10.0087 11.1449 9.89195 11.1001 9.78306C11.0554 9.67418 10.9894 9.57527 10.9062 9.49204L6.50798 5.09383C6.42475 5.01058 6.32584 4.94466 6.21695 4.89991C6.10807 4.85516 5.99135 4.83249 5.87363 4.83314C5.75591 4.8338 5.6395 4.85779 5.53113 4.90375C5.42275 4.94971 5.32455 5.01675 5.24224 5.10092Z" transform="translate(1)" fill="#F9FAFF"/>
</g>
<defs>
<filter id="filter0_d" x="0" y="0" width="18" height="18" filterUnits="userSpaceOnUse" color-interpolation-filters="sRGB">
<feFlood flood-opacity="0" result="BackgroundImageFix"/>
<feColorMatrix in="SourceAlpha" type="matrix" values="0 0 0 0 0 0 0 0 0 0 0 0 0 0 0 0 0 0 255 0"/>
<feOffset dy="1"/>
<feGaussianBlur stdDeviation="0.5"/>
<feColorMatrix type="matrix" values="0 0 0 0 0 0 0 0 0 0 0 0 0 0 0 0 0 0 0.05 0"/>
<feBlend mode="normal" in2="BackgroundImageFix" result="effect1_dropShadow"/>
<feBlend mode="normal" in="SourceGraphic" in2="effect1_dropShadow" result="shape"/>
</filter>
</defs>
</svg>
