<svg width="39" height="40" viewBox="0 0 39 40" fill="none" xmlns="http://www.w3.org/2000/svg">
<path d="M18.9902 12.7348C18.9902 12.6061 19.1177 12.3489 19.1177 12.2202C19.1177 12.0916 18.9902 11.8343 18.9902 11.7057L17.4608 10.2907L26.5098 1.15771C26.7647 0.900439 26.7647 0.643171 26.7647 0.385902C26.7647 0.128634 26.3824 0 26.1275 0C20.0098 0 14.9118 4.63083 13.3824 6.17444L12.6176 5.274C12.4902 5.274 12.2353 5.14537 12.1078 5.14537C11.9804 5.14537 11.7255 5.274 11.598 5.274L10.451 6.43171L6.37255 10.6766L5.22549 11.7057C5.09804 11.963 5.09804 12.4775 5.22549 12.7348L5.9902 13.5066C4.58824 15.0502 0 20.1956 0 26.37C0 26.6273 0.127451 26.8845 0.382353 27.0132C0.509804 27.0132 0.509804 27.0132 0.637255 27.0132C0.764706 27.0132 1.01961 26.8845 1.14706 26.8845L10.1961 17.6229L11.598 19.0379C11.8529 19.2951 12.2353 19.2951 12.4902 19.0379L17.9706 13.5066L18.9902 12.7348Z" transform="translate(38.2353 0.769287) scale(-1 1)" fill="#5940FF"/>
<path d="M38.1078 33.5734L18.9902 14.407L14.2745 19.1664L33.2647 38.3329C33.3922 38.4615 33.5196 38.4615 33.7745 38.4615C35.9412 38.4615 38.2353 36.1461 38.2353 33.9594C38.2353 33.9594 38.1078 33.7021 38.1078 33.5734Z" transform="translate(38.2353 0.769287) scale(-1 1)" fill="#5940FF"/>
<path d="M5.48039 9.64769L9.55882 5.53139L8.53922 4.50232C7.64706 3.60188 6.2451 3.60188 5.35294 4.50232L4.46078 5.53139C3.56863 6.43183 3.56863 7.84681 4.46078 8.74725L5.48039 9.64769Z" transform="translate(38.2353 0.769287) scale(-1 1)" fill="#5940FF"/>
</svg>
