<svg width="39" height="40" viewBox="0 0 39 40" fill="none" xmlns="http://www.w3.org/2000/svg">
<path d="M30.0031 0C28.5363 0 27.2028 1.08223 26.0027 3.11141L15.2016 10.8223H6.00063C2.40025 10.8223 0 13.2573 0 16.9098C0 20.6976 2.40025 23.4032 5.60059 23.6737L8.00084 26.6499V33.1432C8.00084 34.496 8.53423 35.7135 9.601 36.3899L13.6014 39.0955C13.7348 39.2308 13.8681 39.2308 14.0015 39.2308C14.1348 39.2308 14.4015 39.0955 14.5349 39.0955L15.2016 38.4191C16.0017 37.6074 16.6684 36.2546 16.6684 35.1724V34.496C16.6684 33.4138 15.8683 32.061 15.2016 31.3846C15.0682 31.2493 15.2016 30.5729 15.3349 30.3024L16.0017 24.8912L27.0695 32.3316C27.2028 32.3316 27.2028 32.4668 27.3362 32.4668C28.1363 33.2785 29.0697 33.8196 30.1365 33.8196C34.0036 33.8196 37.4706 25.7029 37.4706 16.9098C37.4706 8.11671 33.8702 0 30.0031 0ZM15.3349 13.5279H6.00063C3.86707 13.5279 2.66695 14.7454 2.66695 16.9098C2.66695 17.3157 2.40025 17.5862 2.00021 17.5862C1.60017 17.5862 1.33347 17.3157 1.33347 16.9098C1.33347 14.069 3.20034 12.1751 6.00063 12.1751H15.3349C15.735 12.1751 16.0017 12.4456 16.0017 12.8515C16.0017 13.2573 15.735 13.5279 15.3349 13.5279ZM30.0031 32.4668C27.6029 32.4668 24.0025 26.244 24.0025 16.9098C24.0025 16.504 24.2692 16.2334 24.6692 16.2334C25.0693 16.2334 25.336 16.504 25.336 16.9098C25.336 26.1088 28.803 31.1141 30.0031 31.1141C30.4032 31.1141 30.6699 31.3846 30.6699 31.7905C30.6699 32.1963 30.4032 32.4668 30.0031 32.4668ZM28.6697 21.6446C28.2696 21.6446 28.0029 21.374 28.0029 20.9682C28.0029 20.5623 28.2696 20.2918 28.6697 20.2918C30.2698 20.2918 32.0033 18.8037 32.0033 16.9098C32.0033 15.0159 30.2698 13.5279 28.6697 13.5279C28.2696 13.5279 28.0029 13.2573 28.0029 12.8515C28.0029 12.4456 28.2696 12.1751 28.6697 12.1751C30.9366 12.1751 33.3368 14.2042 33.3368 16.9098C33.3368 19.6154 30.9366 21.6446 28.6697 21.6446Z" transform="translate(0.764709 0.769287)" fill="#5940FF"/>
</svg>
