<svg width="39" height="40" viewBox="0 0 39 40" fill="none" xmlns="http://www.w3.org/2000/svg">
<path d="M8.96552 5.43634C8.76643 5.28515 8.49878 5.2626 8.27596 5.37401C8.05314 5.48806 7.91207 5.71618 7.91207 5.96817V19.2308C7.91207 19.4602 8.03073 19.6737 8.22454 19.7944C8.41704 19.9151 8.66095 19.9257 8.86531 19.8236L12.2313 18.1313L13.2545 20.191C13.3705 20.4218 13.6039 20.557 13.8438 20.557C13.9427 20.557 14.0429 20.5345 14.1391 20.4867L16.7761 19.1605C17.1017 18.996 17.2336 18.5981 17.0714 18.2706L16.0483 16.2109L19.4143 14.5186C19.6187 14.4151 19.7558 14.2135 19.7756 13.9854C19.7967 13.756 19.6964 13.5332 19.5145 13.3952L8.96552 5.43634ZM34.2193 0H4.01602C1.80101 0 0 1.81698 0 4.05172V27.7772C0 30.0119 1.80101 31.8302 4.01602 31.8302H17.14V33.1565H11.2069C8.66227 33.1565 6.59229 35.2387 6.59229 37.7984C6.59229 38.1645 6.88763 38.4615 7.25152 38.4615H30.9838C31.3477 38.4615 31.643 38.1645 31.643 37.7984C31.643 35.2387 29.573 33.1565 27.0284 33.1565H21.0953V31.8302H34.2193C36.4343 31.8302 38.2353 30.0119 38.2353 27.7772V4.05172C38.2353 1.81698 36.4343 0 34.2193 0ZM19.7769 33.1565H18.4584V31.8302H19.7769V33.1565ZM36.9168 25.1989H1.31846V4.05172C1.31846 2.54907 2.5288 1.32626 4.01602 1.32626H34.2193C35.7065 1.32626 36.9168 2.54907 36.9168 4.05305V25.1989ZM26.3692 12.0398V8.00531C27.8617 8.22414 28.9283 9.15915 29.0087 10.0093C29.0443 10.3753 29.3792 10.6512 29.7286 10.6061C30.0899 10.5716 30.3575 10.248 30.3219 9.88329C30.1676 8.25862 28.4523 6.9191 26.3692 6.67904V5.96552C26.3692 5.59947 26.0738 5.30239 25.7099 5.30239C25.346 5.30239 25.0507 5.59947 25.0507 5.96552V6.67507C22.7896 6.90053 21.0953 8.24801 21.0953 9.9443C21.0953 12.2666 23.7547 12.9231 25.0507 13.1565V17.191C23.5582 16.9721 22.4916 16.0371 22.4112 15.187C22.3756 14.8223 22.0473 14.5544 21.6913 14.5902C21.33 14.6247 21.0624 14.9483 21.098 15.313C21.2522 16.9377 22.9675 18.2759 25.0507 18.5159V19.2308C25.0507 19.5968 25.346 19.8939 25.7099 19.8939C26.0738 19.8939 26.3692 19.5968 26.3692 19.2308V18.5212C28.6303 18.2958 30.3245 16.9483 30.3245 15.252C30.3245 12.9271 27.6599 12.2719 26.3692 12.0398ZM25.0507 11.805C24.0289 11.5995 22.4138 11.1247 22.4138 9.94562C22.4138 9.00398 23.5674 8.18966 25.0507 7.99867V11.805ZM26.3692 17.1976V13.3912C27.3897 13.5968 29.0061 14.0716 29.0061 15.2507C29.0061 16.195 27.8524 17.0066 26.3692 17.1976Z" transform="translate(0.764709 0.769287)" fill="#5940FF"/>
</svg>
