<svg width="416" height="150" viewBox="0 0 416 150" fill="none" xmlns="http://www.w3.org/2000/svg">
<g filter="url(#filter0_d)">
<path d="M0 10C0 4.47715 4.47715 0 10 0H326C331.523 0 336 4.47715 336 10V44C336 49.5228 331.523 54 326 54H10C4.47715 54 0 49.5228 0 44V10Z" transform="translate(40 30)" fill="#FF4040"/>
</g>
<path fill-rule="evenodd" clip-rule="evenodd" d="M5 1H371C373.209 1 375 2.79077 375 5V123C375 125.209 373.209 127 371 127H292V128H371C373.761 128 376 125.761 376 123V5C376 2.23853 373.761 0 371 0H5C2.23859 0 0 2.23853 0 5V123C0 125.761 2.23859 128 5 128H85V127H5C2.79083 127 1 125.209 1 123V5C1 2.79077 2.79083 1 5 1Z" transform="translate(20 15)" fill="#CFDAE8"/>
<path d="M0 5C0 2.23858 2.23858 0 5 0H94V74H0V5Z" transform="translate(20 15)" fill="#D72B2B"/>
<path d="M0 0H94V74H0V0Z" transform="translate(114 15)" fill="#D72B2B"/>
<path d="M0 0H94V74H0V0Z" transform="translate(208 15)" fill="#D72B2B"/>
<path d="M0 0H89C91.7614 0 94 2.23858 94 5V74H0V0Z" transform="translate(302 15)" fill="#D72B2B"/>
<line y1="-0.5" x2="74" y2="-0.5" transform="translate(113 15) rotate(90)" stroke="url(#paint0_linear)"/>
<line y1="-0.5" x2="74" y2="-0.5" transform="translate(207 15) rotate(90)" stroke="url(#paint1_linear)"/>
<line y1="-0.5" x2="74" y2="-0.5" transform="translate(301 15) rotate(90)" stroke="url(#paint2_linear)"/>
<path d="M8.26172 21H5.24414V12.7383L5.27344 11.3809L5.32227 9.89648C4.82096 10.3978 4.47266 10.7266 4.27734 10.8828L2.63672 12.2012L1.18164 10.3848L5.78125 6.72266H8.26172V21ZM25.7227 10.082V12.3184H21.1621V21H18.1836V10.082H25.7227ZM30.127 15.5215C30.127 16.6022 30.3027 17.4193 30.6543 17.9727C31.0124 18.526 31.5918 18.8027 32.3926 18.8027C33.1868 18.8027 33.7565 18.5293 34.1016 17.9824C34.4531 17.429 34.6289 16.6087 34.6289 15.5215C34.6289 14.4408 34.4531 13.6302 34.1016 13.0898C33.75 12.5495 33.1738 12.2793 32.373 12.2793C31.5788 12.2793 31.0059 12.5495 30.6543 13.0898C30.3027 13.6237 30.127 14.4342 30.127 15.5215ZM37.6758 15.5215C37.6758 17.2988 37.207 18.6888 36.2695 19.6914C35.332 20.694 34.0267 21.1953 32.3535 21.1953C31.3053 21.1953 30.3809 20.9674 29.5801 20.5117C28.7793 20.0495 28.1641 19.3887 27.7344 18.5293C27.3047 17.6699 27.0898 16.6673 27.0898 15.5215C27.0898 13.7376 27.5553 12.3509 28.4863 11.3613C29.4173 10.3717 30.7259 9.87695 32.4121 9.87695C33.4603 9.87695 34.3848 10.1048 35.1855 10.5605C35.9863 11.0163 36.6016 11.6706 37.0312 12.5234C37.4609 13.3763 37.6758 14.3757 37.6758 15.5215ZM46.9727 18.8223V12.3184H44.7363C44.5736 13.5293 44.349 14.6784 44.0625 15.7656C43.7826 16.8529 43.3919 17.8717 42.8906 18.8223H46.9727ZM51.5527 24.916H48.877V21H41.5332V24.916H38.8574V18.8223H39.7754C40.4004 17.8522 40.9245 16.6283 41.3477 15.1504C41.7708 13.6725 42.0671 11.9831 42.2363 10.082H49.9512V18.8223H51.5527V24.916Z" transform="translate(44 28)" fill="white"/>
<path d="M9.8584 41H8.10059V36.1733H3.16406V41H1.41357V30.292H3.16406V34.6719H8.10059V30.292H9.8584V41ZM17.5635 41L17.2192 39.8721H17.1606C16.77 40.3652 16.377 40.7021 15.9814 40.8828C15.5859 41.0586 15.0781 41.1465 14.458 41.1465C13.6621 41.1465 13.0396 40.9316 12.5903 40.502C12.146 40.0723 11.9238 39.4644 11.9238 38.6782C11.9238 37.8433 12.2339 37.2134 12.854 36.7886C13.4741 36.3638 14.4189 36.1318 15.6885 36.0928L17.0874 36.0488V35.6167C17.0874 35.0991 16.9653 34.7134 16.7212 34.4595C16.4819 34.2007 16.1084 34.0713 15.6006 34.0713C15.1855 34.0713 14.7876 34.1323 14.4067 34.2544C14.0259 34.3765 13.6597 34.5205 13.3081 34.6865L12.7515 33.4561C13.1909 33.2266 13.6719 33.0532 14.1943 32.936C14.7168 32.814 15.21 32.7529 15.6738 32.7529C16.7041 32.7529 17.4805 32.9775 18.0029 33.4268C18.5303 33.876 18.7939 34.5815 18.7939 35.5435V41H17.5635ZM15 39.8281C15.625 39.8281 16.1255 39.6548 16.5015 39.3081C16.8823 38.9565 17.0728 38.4658 17.0728 37.8359V37.1328L16.0327 37.1768C15.2222 37.2061 14.6313 37.3428 14.2603 37.5869C13.894 37.8262 13.7109 38.1948 13.7109 38.6929C13.7109 39.0542 13.8184 39.335 14.0332 39.5352C14.248 39.7305 14.5703 39.8281 15 39.8281ZM29.2017 41.1465C28.1763 41.1465 27.3804 40.7778 26.814 40.0405H26.7114C26.7798 40.7241 26.814 41.1392 26.814 41.2856V44.6035H25.0928V32.8994H26.4844C26.5234 33.0508 26.604 33.4121 26.7261 33.9834H26.814C27.3511 33.1631 28.1567 32.7529 29.231 32.7529C30.2417 32.7529 31.0278 33.1191 31.5894 33.8516C32.1558 34.584 32.439 35.6118 32.439 36.9351C32.439 38.2583 32.1509 39.291 31.5747 40.0332C31.0034 40.7754 30.2124 41.1465 29.2017 41.1465ZM28.7842 34.1592C28.1006 34.1592 27.6001 34.3594 27.2827 34.7598C26.9702 35.1602 26.814 35.7998 26.814 36.6787V36.9351C26.814 37.9214 26.9702 38.6367 27.2827 39.0811C27.5952 39.5205 28.1055 39.7402 28.8135 39.7402C29.4092 39.7402 29.8682 39.4961 30.1904 39.0078C30.5127 38.5195 30.6738 37.8237 30.6738 36.9204C30.6738 36.0122 30.5127 35.3262 30.1904 34.8623C29.873 34.3936 29.4043 34.1592 28.7842 34.1592ZM39.5068 41L39.1626 39.8721H39.104C38.7134 40.3652 38.3203 40.7021 37.9248 40.8828C37.5293 41.0586 37.0215 41.1465 36.4014 41.1465C35.6055 41.1465 34.9829 40.9316 34.5337 40.502C34.0894 40.0723 33.8672 39.4644 33.8672 38.6782C33.8672 37.8433 34.1772 37.2134 34.7974 36.7886C35.4175 36.3638 36.3623 36.1318 37.6318 36.0928L39.0308 36.0488V35.6167C39.0308 35.0991 38.9087 34.7134 38.6646 34.4595C38.4253 34.2007 38.0518 34.0713 37.5439 34.0713C37.1289 34.0713 36.731 34.1323 36.3501 34.2544C35.9692 34.3765 35.603 34.5205 35.2515 34.6865L34.6948 33.4561C35.1343 33.2266 35.6152 33.0532 36.1377 32.936C36.6602 32.814 37.1533 32.7529 37.6172 32.7529C38.6475 32.7529 39.4238 32.9775 39.9463 33.4268C40.4736 33.876 40.7373 34.5815 40.7373 35.5435V41H39.5068ZM36.9434 39.8281C37.5684 39.8281 38.0688 39.6548 38.4448 39.3081C38.8257 38.9565 39.0161 38.4658 39.0161 37.8359V37.1328L37.9761 37.1768C37.1655 37.2061 36.5747 37.3428 36.2036 37.5869C35.8374 37.8262 35.6543 38.1948 35.6543 38.6929C35.6543 39.0542 35.7617 39.335 35.9766 39.5352C36.1914 39.7305 36.5137 39.8281 36.9434 39.8281ZM44.9268 36.1367C45.7129 36.1367 46.2915 36.0513 46.6626 35.8804C47.0337 35.7046 47.2192 35.436 47.2192 35.0747C47.2192 34.4155 46.6333 34.0859 45.4614 34.0859C44.6802 34.0859 43.8818 34.2617 43.0664 34.6133L42.5098 33.3315C43.4521 32.9458 44.4922 32.7529 45.6299 32.7529C46.6357 32.7529 47.417 32.9385 47.9736 33.3096C48.5303 33.6758 48.8086 34.2031 48.8086 34.8916C48.8086 35.7998 48.2886 36.3955 47.2485 36.6787V36.7373C47.8979 36.9131 48.3618 37.1646 48.6401 37.4917C48.9233 37.8188 49.0649 38.2241 49.0649 38.7075C49.0649 39.4497 48.7378 40.043 48.0835 40.4873C47.4341 40.9268 46.5259 41.1465 45.3589 41.1465C44.0845 41.1465 43.1104 40.978 42.4365 40.6411V39.1543C43.3301 39.5742 44.2554 39.7842 45.2124 39.7842C45.9009 39.7842 46.4307 39.689 46.8018 39.4985C47.1777 39.3032 47.3657 39.0078 47.3657 38.6123C47.3657 38.207 47.1777 37.9092 46.8018 37.7188C46.4258 37.5283 45.8447 37.4331 45.0586 37.4331H44.0698V36.1367H44.9268ZM55.0415 41.1465C54.0161 41.1465 53.2202 40.7778 52.6538 40.0405H52.5513C52.6196 40.7241 52.6538 41.1392 52.6538 41.2856V44.6035H50.9326V32.8994H52.3242C52.3633 33.0508 52.4438 33.4121 52.5659 33.9834H52.6538C53.1909 33.1631 53.9966 32.7529 55.0708 32.7529C56.0815 32.7529 56.8677 33.1191 57.4292 33.8516C57.9956 34.584 58.2788 35.6118 58.2788 36.9351C58.2788 38.2583 57.9907 39.291 57.4146 40.0332C56.8433 40.7754 56.0522 41.1465 55.0415 41.1465ZM54.624 34.1592C53.9404 34.1592 53.4399 34.3594 53.1226 34.7598C52.8101 35.1602 52.6538 35.7998 52.6538 36.6787V36.9351C52.6538 37.9214 52.8101 38.6367 53.1226 39.0811C53.4351 39.5205 53.9453 39.7402 54.6533 39.7402C55.249 39.7402 55.708 39.4961 56.0303 39.0078C56.3525 38.5195 56.5137 37.8237 56.5137 36.9204C56.5137 36.0122 56.3525 35.3262 56.0303 34.8623C55.7129 34.3936 55.2441 34.1592 54.624 34.1592ZM65.3467 41L65.0024 39.8721H64.9438C64.5532 40.3652 64.1602 40.7021 63.7646 40.8828C63.3691 41.0586 62.8613 41.1465 62.2412 41.1465C61.4453 41.1465 60.8228 40.9316 60.3735 40.502C59.9292 40.0723 59.707 39.4644 59.707 38.6782C59.707 37.8433 60.0171 37.2134 60.6372 36.7886C61.2573 36.3638 62.2021 36.1318 63.4717 36.0928L64.8706 36.0488V35.6167C64.8706 35.0991 64.7485 34.7134 64.5044 34.4595C64.2651 34.2007 63.8916 34.0713 63.3838 34.0713C62.9688 34.0713 62.5708 34.1323 62.1899 34.2544C61.8091 34.3765 61.4429 34.5205 61.0913 34.6865L60.5347 33.4561C60.9741 33.2266 61.4551 33.0532 61.9775 32.936C62.5 32.814 62.9932 32.7529 63.457 32.7529C64.4873 32.7529 65.2637 32.9775 65.7861 33.4268C66.3135 33.876 66.5771 34.5815 66.5771 35.5435V41H65.3467ZM62.7832 39.8281C63.4082 39.8281 63.9087 39.6548 64.2847 39.3081C64.6655 38.9565 64.856 38.4658 64.856 37.8359V37.1328L63.8159 37.1768C63.0054 37.2061 62.4146 37.3428 62.0435 37.5869C61.6772 37.8262 61.4941 38.1948 61.4941 38.6929C61.4941 39.0542 61.6016 39.335 61.8164 39.5352C62.0312 39.7305 62.3535 39.8281 62.7832 39.8281ZM68.5107 36.1367C68.5107 34.3301 68.8159 32.9409 69.4263 31.9692C70.0415 30.9976 71.0181 30.3726 72.356 30.0942C73.3667 29.8892 74.5312 29.689 75.8496 29.4937L76.0913 31.0098C74.4897 31.2539 73.3179 31.4443 72.5757 31.5811C71.8091 31.7227 71.2549 32.0376 70.9131 32.5259C70.5762 33.0142 70.3809 33.749 70.3271 34.7305H70.437C70.7153 34.3252 71.0791 34.0127 71.5283 33.793C71.9775 33.5684 72.4585 33.4561 72.9712 33.4561C73.9673 33.4561 74.7437 33.771 75.3003 34.4009C75.8569 35.0308 76.1353 35.9146 76.1353 37.0522C76.1353 38.356 75.7959 39.3643 75.1172 40.0771C74.4434 40.79 73.5083 41.1465 72.312 41.1465C71.1255 41.1465 70.1953 40.707 69.5215 39.8281C68.8477 38.9492 68.5107 37.7188 68.5107 36.1367ZM72.4292 39.7402C73.7085 39.7402 74.3481 38.9004 74.3481 37.2207C74.3481 35.5996 73.7695 34.7891 72.6123 34.7891C72.2949 34.7891 71.9873 34.8574 71.6895 34.9941C71.3916 35.1309 71.1157 35.3115 70.8618 35.5361C70.6128 35.7607 70.4199 35.9927 70.2832 36.2319C70.2832 37.3843 70.4663 38.2583 70.8325 38.854C71.1987 39.4448 71.731 39.7402 72.4292 39.7402ZM85.3052 36.9351C85.3052 38.2583 84.9658 39.291 84.2871 40.0332C83.6084 40.7754 82.6636 41.1465 81.4526 41.1465C80.6958 41.1465 80.0269 40.9756 79.4458 40.6338C78.8647 40.292 78.418 39.8013 78.1055 39.1616C77.793 38.522 77.6367 37.7798 77.6367 36.9351C77.6367 35.6216 77.9736 34.5962 78.6475 33.8589C79.3213 33.1216 80.271 32.7529 81.4966 32.7529C82.6685 32.7529 83.5962 33.1313 84.2798 33.8882C84.9634 34.6401 85.3052 35.6558 85.3052 36.9351ZM79.4092 36.9351C79.4092 38.8052 80.1001 39.7402 81.4819 39.7402C82.8491 39.7402 83.5327 38.8052 83.5327 36.9351C83.5327 35.0845 82.8442 34.1592 81.4673 34.1592C80.7446 34.1592 80.2197 34.3984 79.8926 34.877C79.5703 35.3555 79.4092 36.0415 79.4092 36.9351ZM93.3765 32.8994V34.2471H90.7397V41H89.0112V34.2471H86.3745V32.8994H93.3765ZM99.9609 32.8994H101.851L98.5034 36.8032L102.136 41H100.159L96.6577 36.8911V41H94.9365V32.8994H96.6577V36.8325L99.9609 32.8994ZM102.246 32.8994H104.121L105.769 37.4917C106.018 38.146 106.184 38.7612 106.267 39.3374H106.326C106.37 39.0688 106.45 38.7441 106.567 38.3633C106.685 37.9775 107.305 36.1562 108.428 32.8994H110.288L106.824 42.0767C106.194 43.7612 105.144 44.6035 103.674 44.6035C103.293 44.6035 102.922 44.562 102.561 44.479V43.1167C102.82 43.1753 103.115 43.2046 103.447 43.2046C104.277 43.2046 104.861 42.7236 105.198 41.7617L105.498 41L102.246 32.8994ZM113.306 39.4253C113.071 40.3335 112.642 41.5029 112.017 42.9336H110.75C111.086 41.6152 111.338 40.3896 111.504 39.2568H113.196L113.306 39.4253ZM121.216 36.1367C122.002 36.1367 122.581 36.0513 122.952 35.8804C123.323 35.7046 123.508 35.436 123.508 35.0747C123.508 34.4155 122.922 34.0859 121.75 34.0859C120.969 34.0859 120.171 34.2617 119.355 34.6133L118.799 33.3315C119.741 32.9458 120.781 32.7529 121.919 32.7529C122.925 32.7529 123.706 32.9385 124.263 33.3096C124.819 33.6758 125.098 34.2031 125.098 34.8916C125.098 35.7998 124.578 36.3955 123.538 36.6787V36.7373C124.187 36.9131 124.651 37.1646 124.929 37.4917C125.212 37.8188 125.354 38.2241 125.354 38.7075C125.354 39.4497 125.027 40.043 124.373 40.4873C123.723 40.9268 122.815 41.1465 121.648 41.1465C120.374 41.1465 119.399 40.978 118.726 40.6411V39.1543C119.619 39.5742 120.544 39.7842 121.501 39.7842C122.19 39.7842 122.72 39.689 123.091 39.4985C123.467 39.3032 123.655 39.0078 123.655 38.6123C123.655 38.207 123.467 37.9092 123.091 37.7188C122.715 37.5283 122.134 37.4331 121.348 37.4331H120.359V36.1367H121.216ZM132.29 41L131.946 39.8721H131.887C131.497 40.3652 131.104 40.7021 130.708 40.8828C130.312 41.0586 129.805 41.1465 129.185 41.1465C128.389 41.1465 127.766 40.9316 127.317 40.502C126.873 40.0723 126.65 39.4644 126.65 38.6782C126.65 37.8433 126.96 37.2134 127.581 36.7886C128.201 36.3638 129.146 36.1318 130.415 36.0928L131.814 36.0488V35.6167C131.814 35.0991 131.692 34.7134 131.448 34.4595C131.208 34.2007 130.835 34.0713 130.327 34.0713C129.912 34.0713 129.514 34.1323 129.133 34.2544C128.752 34.3765 128.386 34.5205 128.035 34.6865L127.478 33.4561C127.917 33.2266 128.398 33.0532 128.921 32.936C129.443 32.814 129.937 32.7529 130.4 32.7529C131.431 32.7529 132.207 32.9775 132.729 33.4268C133.257 33.876 133.521 34.5815 133.521 35.5435V41H132.29ZM129.727 39.8281C130.352 39.8281 130.852 39.6548 131.228 39.3081C131.609 38.9565 131.799 38.4658 131.799 37.8359V37.1328L130.759 37.1768C129.949 37.2061 129.358 37.3428 128.987 37.5869C128.621 37.8262 128.438 38.1948 128.438 38.6929C128.438 39.0542 128.545 39.335 128.76 39.5352C128.975 39.7305 129.297 39.8281 129.727 39.8281ZM143.005 32.8994V41H141.277V34.2617H137.644V41H135.923V32.8994H143.005ZM144.243 32.8994H146.118L147.766 37.4917C148.015 38.146 148.181 38.7612 148.264 39.3374H148.323C148.367 39.0688 148.447 38.7441 148.564 38.3633C148.682 37.9775 149.302 36.1562 150.425 32.8994H152.285L148.821 42.0767C148.191 43.7612 147.141 44.6035 145.671 44.6035C145.291 44.6035 144.919 44.562 144.558 44.479V43.1167C144.817 43.1753 145.112 43.2046 145.444 43.2046C146.274 43.2046 146.858 42.7236 147.195 41.7617L147.495 41L144.243 32.8994ZM156.782 41.1465C155.557 41.1465 154.624 40.79 153.984 40.0771C153.35 39.3594 153.032 38.3315 153.032 36.9937C153.032 35.6313 153.364 34.584 154.028 33.8516C154.697 33.1191 155.662 32.7529 156.921 32.7529C157.776 32.7529 158.545 32.9116 159.229 33.229L158.708 34.6133C157.981 34.3301 157.38 34.1885 156.907 34.1885C155.505 34.1885 154.805 35.1187 154.805 36.979C154.805 37.8872 154.978 38.5708 155.325 39.0298C155.676 39.4839 156.189 39.7109 156.863 39.7109C157.629 39.7109 158.354 39.5205 159.038 39.1396V40.6411C158.73 40.8218 158.401 40.9512 158.049 41.0293C157.703 41.1074 157.28 41.1465 156.782 41.1465ZM165.967 32.8994H167.856L164.509 36.8032L168.142 41H166.165L162.664 36.8911V41H160.942V32.8994H162.664V36.8325L165.967 32.8994ZM175.027 32.8994V37.0522C175.027 37.5356 174.988 38.2461 174.91 39.1836L178.975 32.8994H181.077V41H179.421V36.9204C179.421 36.6958 179.434 36.332 179.458 35.8291C179.487 35.3262 179.512 34.96 179.531 34.7305L175.481 41H173.379V32.8994H175.027ZM195.198 43.8638H193.594V41H188.042V43.8638H186.453V39.667H187.112C187.688 38.8418 188.145 37.8457 188.481 36.6787C188.823 35.5068 189.026 34.2471 189.089 32.8994H194.011V39.667H195.198V43.8638ZM192.319 39.667V34.2178H190.576C190.483 35.2236 190.288 36.2148 189.99 37.1914C189.697 38.168 189.338 38.9932 188.914 39.667H192.319ZM203.884 36.9351C203.884 38.2583 203.545 39.291 202.866 40.0332C202.188 40.7754 201.243 41.1465 200.032 41.1465C199.275 41.1465 198.606 40.9756 198.025 40.6338C197.444 40.292 196.997 39.8013 196.685 39.1616C196.372 38.522 196.216 37.7798 196.216 36.9351C196.216 35.6216 196.553 34.5962 197.227 33.8589C197.9 33.1216 198.85 32.7529 200.076 32.7529C201.248 32.7529 202.175 33.1313 202.859 33.8882C203.542 34.6401 203.884 35.6558 203.884 36.9351ZM197.988 36.9351C197.988 38.8052 198.679 39.7402 200.061 39.7402C201.428 39.7402 202.112 38.8052 202.112 36.9351C202.112 35.0845 201.423 34.1592 200.046 34.1592C199.324 34.1592 198.799 34.3984 198.472 34.877C198.149 35.3555 197.988 36.0415 197.988 36.9351ZM209.978 41.1465C208.953 41.1465 208.157 40.7778 207.59 40.0405H207.488C207.556 40.7241 207.59 41.1392 207.59 41.2856V44.6035H205.869V32.8994H207.261C207.3 33.0508 207.38 33.4121 207.502 33.9834H207.59C208.127 33.1631 208.933 32.7529 210.007 32.7529C211.018 32.7529 211.804 33.1191 212.366 33.8516C212.932 34.584 213.215 35.6118 213.215 36.9351C213.215 38.2583 212.927 39.291 212.351 40.0332C211.78 40.7754 210.989 41.1465 209.978 41.1465ZM209.561 34.1592C208.877 34.1592 208.376 34.3594 208.059 34.7598C207.747 35.1602 207.59 35.7998 207.59 36.6787V36.9351C207.59 37.9214 207.747 38.6367 208.059 39.0811C208.372 39.5205 208.882 39.7402 209.59 39.7402C210.186 39.7402 210.645 39.4961 210.967 39.0078C211.289 38.5195 211.45 37.8237 211.45 36.9204C211.45 36.0122 211.289 35.3262 210.967 34.8623C210.649 34.3936 210.181 34.1592 209.561 34.1592ZM220.283 41L219.939 39.8721H219.88C219.49 40.3652 219.097 40.7021 218.701 40.8828C218.306 41.0586 217.798 41.1465 217.178 41.1465C216.382 41.1465 215.759 40.9316 215.31 40.502C214.866 40.0723 214.644 39.4644 214.644 38.6782C214.644 37.8433 214.954 37.2134 215.574 36.7886C216.194 36.3638 217.139 36.1318 218.408 36.0928L219.807 36.0488V35.6167C219.807 35.0991 219.685 34.7134 219.441 34.4595C219.202 34.2007 218.828 34.0713 218.32 34.0713C217.905 34.0713 217.507 34.1323 217.126 34.2544C216.746 34.3765 216.379 34.5205 216.028 34.6865L215.471 33.4561C215.911 33.2266 216.392 33.0532 216.914 32.936C217.437 32.814 217.93 32.7529 218.394 32.7529C219.424 32.7529 220.2 32.9775 220.723 33.4268C221.25 33.876 221.514 34.5815 221.514 35.5435V41H220.283ZM217.72 39.8281C218.345 39.8281 218.845 39.6548 219.221 39.3081C219.602 38.9565 219.792 38.4658 219.792 37.8359V37.1328L218.752 37.1768C217.942 37.2061 217.351 37.3428 216.98 37.5869C216.614 37.8262 216.431 38.1948 216.431 38.6929C216.431 39.0542 216.538 39.335 216.753 39.5352C216.968 39.7305 217.29 39.8281 217.72 39.8281ZM223.447 36.1367C223.447 34.3301 223.752 32.9409 224.363 31.9692C224.978 30.9976 225.955 30.3726 227.292 30.0942C228.303 29.8892 229.468 29.689 230.786 29.4937L231.028 31.0098C229.426 31.2539 228.254 31.4443 227.512 31.5811C226.746 31.7227 226.191 32.0376 225.85 32.5259C225.513 33.0142 225.317 33.749 225.264 34.7305H225.374C225.652 34.3252 226.016 34.0127 226.465 33.793C226.914 33.5684 227.395 33.4561 227.908 33.4561C228.904 33.4561 229.68 33.771 230.237 34.4009C230.793 35.0308 231.072 35.9146 231.072 37.0522C231.072 38.356 230.732 39.3643 230.054 40.0771C229.38 40.79 228.445 41.1465 227.249 41.1465C226.062 41.1465 225.132 40.707 224.458 39.8281C223.784 38.9492 223.447 37.7188 223.447 36.1367ZM227.366 39.7402C228.645 39.7402 229.285 38.9004 229.285 37.2207C229.285 35.5996 228.706 34.7891 227.549 34.7891C227.231 34.7891 226.924 34.8574 226.626 34.9941C226.328 35.1309 226.052 35.3115 225.798 35.5361C225.549 35.7607 225.356 35.9927 225.22 36.2319C225.22 37.3843 225.403 38.2583 225.769 38.854C226.135 39.4448 226.667 39.7402 227.366 39.7402ZM240.242 36.9351C240.242 38.2583 239.902 39.291 239.224 40.0332C238.545 40.7754 237.6 41.1465 236.389 41.1465C235.632 41.1465 234.963 40.9756 234.382 40.6338C233.801 40.292 233.354 39.8013 233.042 39.1616C232.729 38.522 232.573 37.7798 232.573 36.9351C232.573 35.6216 232.91 34.5962 233.584 33.8589C234.258 33.1216 235.208 32.7529 236.433 32.7529C237.605 32.7529 238.533 33.1313 239.216 33.8882C239.9 34.6401 240.242 35.6558 240.242 36.9351ZM234.346 36.9351C234.346 38.8052 235.037 39.7402 236.418 39.7402C237.786 39.7402 238.469 38.8052 238.469 36.9351C238.469 35.0845 237.781 34.1592 236.404 34.1592C235.681 34.1592 235.156 34.3984 234.829 34.877C234.507 35.3555 234.346 36.0415 234.346 36.9351ZM248.313 32.8994V34.2471H245.676V41H243.948V34.2471H241.311V32.8994H248.313ZM254.897 32.8994H256.787L253.44 36.8032L257.073 41H255.095L251.594 36.8911V41H249.873V32.8994H251.594V36.8325L254.897 32.8994ZM260.061 32.8994V37.0522C260.061 37.5356 260.022 38.2461 259.944 39.1836L264.009 32.8994H266.111V41H264.456V36.9204C264.456 36.6958 264.468 36.332 264.492 35.8291C264.521 35.3262 264.546 34.96 264.565 34.7305L260.515 41H258.413V32.8994H260.061Z" transform="translate(44 28)" fill="#FFE5E5"/>
<path d="M46.0566 14.4375C45.6986 14.4375 45.3145 14.5482 44.9043 14.7695C44.5007 14.9844 44.123 15.2676 43.7715 15.6191V13.3633C44.4421 12.6536 45.2754 12.2988 46.2715 12.2988C46.7467 12.2988 47.1927 12.3509 47.6094 12.4551C48.0326 12.5592 48.4883 12.7155 48.9766 12.9238C49.8164 13.2819 50.5553 13.4609 51.1934 13.4609C51.5384 13.4609 51.916 13.3568 52.3262 13.1484C52.7363 12.9401 53.1172 12.6504 53.4688 12.2793V14.5352C52.8112 15.2448 51.9779 15.5996 50.9688 15.5996C50.5391 15.5996 50.1289 15.5573 49.7383 15.4727C49.3477 15.388 48.8594 15.2253 48.2734 14.9844C47.4206 14.6198 46.6816 14.4375 46.0566 14.4375ZM67.002 16.5371C67.002 17.5723 66.6276 18.4056 65.8789 19.0371C65.1302 19.6621 64.082 20.0365 62.7344 20.1602V22.1621H61.3965V20.1992C59.8079 20.1667 58.4147 19.8867 57.2168 19.3594V16.7812C57.7832 17.0612 58.4635 17.3086 59.2578 17.5234C60.0586 17.7383 60.7715 17.8652 61.3965 17.9043V14.877L60.7422 14.623C59.4531 14.1152 58.5384 13.5651 57.998 12.9727C57.4642 12.3737 57.1973 11.6348 57.1973 10.7559C57.1973 9.81185 57.5651 9.03711 58.3008 8.43164C59.043 7.81966 60.0749 7.44857 61.3965 7.31836V5.82422H62.7344V7.2793C64.2253 7.3444 65.5729 7.64388 66.7773 8.17773L65.8594 10.4629C64.8438 10.0462 63.8021 9.79232 62.7344 9.70117V12.582C64.0039 13.0703 64.9056 13.4935 65.4395 13.8516C65.9798 14.2096 66.3737 14.6035 66.6211 15.0332C66.875 15.4629 67.002 15.9642 67.002 16.5371ZM64.0625 16.6836C64.0625 16.4102 63.9518 16.179 63.7305 15.9902C63.5091 15.8014 63.1771 15.6061 62.7344 15.4043V17.8359C63.6198 17.6862 64.0625 17.3021 64.0625 16.6836ZM60.1367 10.7559C60.1367 11.0423 60.2344 11.2799 60.4297 11.4688C60.6315 11.651 60.9538 11.8398 61.3965 12.0352V9.74023C60.5566 9.86393 60.1367 10.2025 60.1367 10.7559ZM75.7598 11.8789C77.14 11.8789 78.237 12.2663 79.0508 13.041C79.8711 13.8158 80.2812 14.877 80.2812 16.2246C80.2812 17.8197 79.7897 19.0469 78.8066 19.9062C77.8236 20.7656 76.4173 21.1953 74.5879 21.1953C72.9993 21.1953 71.7168 20.9382 70.7402 20.4238V17.8164C71.2546 18.0898 71.8535 18.3145 72.5371 18.4902C73.2207 18.6595 73.8685 18.7441 74.4805 18.7441C76.3229 18.7441 77.2441 17.9889 77.2441 16.4785C77.2441 15.0397 76.2904 14.3203 74.3828 14.3203C74.0378 14.3203 73.6569 14.3561 73.2402 14.4277C72.8236 14.4928 72.485 14.5645 72.2246 14.6426L71.0234 13.998L71.5605 6.72266H79.3047V9.28125H74.207L73.9434 12.084L74.2852 12.0156C74.6823 11.9245 75.1738 11.8789 75.7598 11.8789ZM91.8926 13.8613C91.8926 16.3548 91.4824 18.2005 90.6621 19.3984C89.8483 20.5964 88.5918 21.1953 86.8926 21.1953C85.2454 21.1953 84.002 20.5768 83.1621 19.3398C82.3288 18.1029 81.9121 16.2767 81.9121 13.8613C81.9121 11.3418 82.319 9.48633 83.1328 8.29492C83.9466 7.09701 85.1999 6.49805 86.8926 6.49805C88.5397 6.49805 89.7832 7.12305 90.623 8.37305C91.4694 9.62305 91.8926 11.4525 91.8926 13.8613ZM84.9102 13.8613C84.9102 15.6126 85.0599 16.8691 85.3594 17.6309C85.6654 18.3861 86.1764 18.7637 86.8926 18.7637C87.5957 18.7637 88.1035 18.3796 88.416 17.6113C88.7285 16.8431 88.8848 15.5931 88.8848 13.8613C88.8848 12.11 88.7253 10.8535 88.4062 10.0918C88.0938 9.32357 87.5892 8.93945 86.8926 8.93945C86.1829 8.93945 85.6751 9.32357 85.3691 10.0918C85.0632 10.8535 84.9102 12.11 84.9102 13.8613ZM108.514 13.8613C108.514 16.3548 108.104 18.2005 107.283 19.3984C106.469 20.5964 105.213 21.1953 103.514 21.1953C101.867 21.1953 100.623 20.5768 99.7832 19.3398C98.9499 18.1029 98.5332 16.2767 98.5332 13.8613C98.5332 11.3418 98.9401 9.48633 99.7539 8.29492C100.568 7.09701 101.821 6.49805 103.514 6.49805C105.161 6.49805 106.404 7.12305 107.244 8.37305C108.09 9.62305 108.514 11.4525 108.514 13.8613ZM101.531 13.8613C101.531 15.6126 101.681 16.8691 101.98 17.6309C102.286 18.3861 102.798 18.7637 103.514 18.7637C104.217 18.7637 104.725 18.3796 105.037 17.6113C105.35 16.8431 105.506 15.5931 105.506 13.8613C105.506 12.11 105.346 10.8535 105.027 10.0918C104.715 9.32357 104.21 8.93945 103.514 8.93945C102.804 8.93945 102.296 9.32357 101.99 10.0918C101.684 10.8535 101.531 12.11 101.531 13.8613ZM119.939 13.8613C119.939 16.3548 119.529 18.2005 118.709 19.3984C117.895 20.5964 116.639 21.1953 114.939 21.1953C113.292 21.1953 112.049 20.5768 111.209 19.3398C110.376 18.1029 109.959 16.2767 109.959 13.8613C109.959 11.3418 110.366 9.48633 111.18 8.29492C111.993 7.09701 113.247 6.49805 114.939 6.49805C116.587 6.49805 117.83 7.12305 118.67 8.37305C119.516 9.62305 119.939 11.4525 119.939 13.8613ZM112.957 13.8613C112.957 15.6126 113.107 16.8691 113.406 17.6309C113.712 18.3861 114.223 18.7637 114.939 18.7637C115.643 18.7637 116.15 18.3796 116.463 17.6113C116.775 16.8431 116.932 15.5931 116.932 13.8613C116.932 12.11 116.772 10.8535 116.453 10.0918C116.141 9.32357 115.636 8.93945 114.939 8.93945C114.23 8.93945 113.722 9.32357 113.416 10.0918C113.11 10.8535 112.957 12.11 112.957 13.8613ZM131.365 13.8613C131.365 16.3548 130.955 18.2005 130.135 19.3984C129.321 20.5964 128.064 21.1953 126.365 21.1953C124.718 21.1953 123.475 20.5768 122.635 19.3398C121.801 18.1029 121.385 16.2767 121.385 13.8613C121.385 11.3418 121.792 9.48633 122.605 8.29492C123.419 7.09701 124.673 6.49805 126.365 6.49805C128.012 6.49805 129.256 7.12305 130.096 8.37305C130.942 9.62305 131.365 11.4525 131.365 13.8613ZM124.383 13.8613C124.383 15.6126 124.533 16.8691 124.832 17.6309C125.138 18.3861 125.649 18.7637 126.365 18.7637C127.068 18.7637 127.576 18.3796 127.889 17.6113C128.201 16.8431 128.357 15.5931 128.357 13.8613C128.357 12.11 128.198 10.8535 127.879 10.0918C127.566 9.32357 127.062 8.93945 126.365 8.93945C125.656 8.93945 125.148 9.32357 124.842 10.0918C124.536 10.8535 124.383 12.11 124.383 13.8613Z" transform="translate(121 105)" fill="#122244"/>
<path d="M6.4502 31.6396C5.44434 31.6396 4.65332 31.9961 4.07715 32.709C3.50098 33.4219 3.21289 34.4058 3.21289 35.6606C3.21289 36.9741 3.48877 37.9678 4.04053 38.6416C4.59717 39.3154 5.40039 39.6523 6.4502 39.6523C6.9043 39.6523 7.34375 39.6084 7.76855 39.5205C8.19336 39.4277 8.63525 39.3105 9.09424 39.1689V40.6704C8.25439 40.9878 7.30225 41.1465 6.23779 41.1465C4.67041 41.1465 3.4668 40.6729 2.62695 39.7256C1.78711 38.7734 1.36719 37.4136 1.36719 35.646C1.36719 34.5327 1.56982 33.5586 1.9751 32.7236C2.38525 31.8887 2.97607 31.249 3.74756 30.8047C4.51904 30.3604 5.4248 30.1382 6.46484 30.1382C7.55859 30.1382 8.56934 30.3677 9.49707 30.8267L8.86719 32.2842C8.50586 32.1133 8.12256 31.9644 7.71729 31.8374C7.31689 31.7056 6.89453 31.6396 6.4502 31.6396ZM17.3047 32.8994V34.2471H14.668V41H12.9395V34.2471H10.3027V32.8994H17.3047ZM26.0498 36.9351C26.0498 38.2583 25.7104 39.291 25.0317 40.0332C24.353 40.7754 23.4082 41.1465 22.1973 41.1465C21.4404 41.1465 20.7715 40.9756 20.1904 40.6338C19.6094 40.292 19.1626 39.8013 18.8501 39.1616C18.5376 38.522 18.3813 37.7798 18.3813 36.9351C18.3813 35.6216 18.7183 34.5962 19.3921 33.8589C20.0659 33.1216 21.0156 32.7529 22.2412 32.7529C23.4131 32.7529 24.3408 33.1313 25.0244 33.8882C25.708 34.6401 26.0498 35.6558 26.0498 36.9351ZM20.1538 36.9351C20.1538 38.8052 20.8447 39.7402 22.2266 39.7402C23.5938 39.7402 24.2773 38.8052 24.2773 36.9351C24.2773 35.0845 23.5889 34.1592 22.2119 34.1592C21.4893 34.1592 20.9644 34.3984 20.6372 34.877C20.3149 35.3555 20.1538 36.0415 20.1538 36.9351ZM29.6826 32.8994V37.0522C29.6826 37.5356 29.6436 38.2461 29.5654 39.1836L33.6304 32.8994H35.7324V41H34.0771V36.9204C34.0771 36.6958 34.0894 36.332 34.1138 35.8291C34.1431 35.3262 34.1675 34.96 34.187 34.7305L30.1367 41H28.0347V32.8994H29.6826ZM42.8369 39.3521L42.9321 39.0005C43.1323 38.2729 43.3057 37.7139 43.4521 37.3232L45.2686 32.8994H47.561V41H45.9717V34.4595L45.8398 34.8989C45.6201 35.6851 45.4346 36.2637 45.2832 36.6348L43.5107 41H42.207L40.4346 36.6055C40.1904 35.9707 39.9658 35.2554 39.7607 34.4595V41H38.186V32.8994H40.4639L42.2217 37.1914C42.3779 37.5869 42.583 38.3071 42.8369 39.3521ZM57.207 36.9351C57.207 38.2583 56.8677 39.291 56.189 40.0332C55.5103 40.7754 54.5654 41.1465 53.3545 41.1465C52.5977 41.1465 51.9287 40.9756 51.3477 40.6338C50.7666 40.292 50.3198 39.8013 50.0073 39.1616C49.6948 38.522 49.5386 37.7798 49.5386 36.9351C49.5386 35.6216 49.8755 34.5962 50.5493 33.8589C51.2231 33.1216 52.1729 32.7529 53.3984 32.7529C54.5703 32.7529 55.498 33.1313 56.1816 33.8882C56.8652 34.6401 57.207 35.6558 57.207 36.9351ZM51.311 36.9351C51.311 38.8052 52.002 39.7402 53.3838 39.7402C54.751 39.7402 55.4346 38.8052 55.4346 36.9351C55.4346 35.0845 54.7461 34.1592 53.3691 34.1592C52.6465 34.1592 52.1216 34.3984 51.7944 34.877C51.4722 35.3555 51.311 36.0415 51.311 36.9351ZM62.4585 41.1465C61.2329 41.1465 60.3003 40.79 59.6606 40.0771C59.0259 39.3594 58.7085 38.3315 58.7085 36.9937C58.7085 35.6313 59.0405 34.584 59.7046 33.8516C60.3735 33.1191 61.3379 32.7529 62.5977 32.7529C63.4521 32.7529 64.2212 32.9116 64.9048 33.229L64.3848 34.6133C63.6572 34.3301 63.0566 34.1885 62.583 34.1885C61.1816 34.1885 60.481 35.1187 60.481 36.979C60.481 37.8872 60.6543 38.5708 61.001 39.0298C61.3525 39.4839 61.8652 39.7109 62.5391 39.7109C63.3057 39.7109 64.0308 39.5205 64.7144 39.1396V40.6411C64.4067 40.8218 64.0771 40.9512 63.7256 41.0293C63.3789 41.1074 62.9565 41.1465 62.4585 41.1465ZM72.7051 32.8994V34.2471H70.0684V41H68.3398V34.2471H65.7031V32.8994H72.7051ZM75.9863 36.1367H78.0151C80.2759 36.1367 81.4062 36.918 81.4062 38.4805C81.4062 39.3057 81.1182 39.9331 80.542 40.3628C79.9658 40.7876 79.1235 41 78.0151 41H74.2651V32.8994H75.9863V36.1367ZM79.6777 38.5244C79.6777 38.1191 79.5239 37.8359 79.2163 37.6748C78.9087 37.5137 78.4741 37.4331 77.9126 37.4331H75.9863V39.7256H77.9419C78.5083 39.7256 78.938 39.623 79.231 39.418C79.5288 39.2129 79.6777 38.915 79.6777 38.5244ZM91.3232 41.1465C90.2979 41.1465 89.502 40.7778 88.9355 40.0405H88.833C88.9014 40.7241 88.9355 41.1392 88.9355 41.2856V44.6035H87.2144V32.8994H88.606C88.645 33.0508 88.7256 33.4121 88.8477 33.9834H88.9355C89.4727 33.1631 90.2783 32.7529 91.3525 32.7529C92.3633 32.7529 93.1494 33.1191 93.7109 33.8516C94.2773 34.584 94.5605 35.6118 94.5605 36.9351C94.5605 38.2583 94.2725 39.291 93.6963 40.0332C93.125 40.7754 92.334 41.1465 91.3232 41.1465ZM90.9058 34.1592C90.2222 34.1592 89.7217 34.3594 89.4043 34.7598C89.0918 35.1602 88.9355 35.7998 88.9355 36.6787V36.9351C88.9355 37.9214 89.0918 38.6367 89.4043 39.0811C89.7168 39.5205 90.2271 39.7402 90.9351 39.7402C91.5308 39.7402 91.9897 39.4961 92.312 39.0078C92.6343 38.5195 92.7954 37.8237 92.7954 36.9204C92.7954 36.0122 92.6343 35.3262 92.312 34.8623C91.9946 34.3936 91.5259 34.1592 90.9058 34.1592ZM101.628 41L101.284 39.8721H101.226C100.835 40.3652 100.442 40.7021 100.046 40.8828C99.6509 41.0586 99.1431 41.1465 98.5229 41.1465C97.7271 41.1465 97.1045 40.9316 96.6553 40.502C96.2109 40.0723 95.9888 39.4644 95.9888 38.6782C95.9888 37.8433 96.2988 37.2134 96.9189 36.7886C97.5391 36.3638 98.4839 36.1318 99.7534 36.0928L101.152 36.0488V35.6167C101.152 35.0991 101.03 34.7134 100.786 34.4595C100.547 34.2007 100.173 34.0713 99.6655 34.0713C99.2505 34.0713 98.8525 34.1323 98.4717 34.2544C98.0908 34.3765 97.7246 34.5205 97.373 34.6865L96.8164 33.4561C97.2559 33.2266 97.7368 33.0532 98.2593 32.936C98.7817 32.814 99.2749 32.7529 99.7388 32.7529C100.769 32.7529 101.545 32.9775 102.068 33.4268C102.595 33.876 102.859 34.5815 102.859 35.5435V41H101.628ZM99.0649 39.8281C99.6899 39.8281 100.19 39.6548 100.566 39.3081C100.947 38.9565 101.138 38.4658 101.138 37.8359V37.1328L100.098 37.1768C99.2871 37.2061 98.6963 37.3428 98.3252 37.5869C97.959 37.8262 97.7759 38.1948 97.7759 38.6929C97.7759 39.0542 97.8833 39.335 98.0981 39.5352C98.313 39.7305 98.6353 39.8281 99.0649 39.8281ZM107.048 36.1367C107.834 36.1367 108.413 36.0513 108.784 35.8804C109.155 35.7046 109.341 35.436 109.341 35.0747C109.341 34.4155 108.755 34.0859 107.583 34.0859C106.802 34.0859 106.003 34.2617 105.188 34.6133L104.631 33.3315C105.574 32.9458 106.614 32.7529 107.751 32.7529C108.757 32.7529 109.539 32.9385 110.095 33.3096C110.652 33.6758 110.93 34.2031 110.93 34.8916C110.93 35.7998 110.41 36.3955 109.37 36.6787V36.7373C110.02 36.9131 110.483 37.1646 110.762 37.4917C111.045 37.8188 111.187 38.2241 111.187 38.7075C111.187 39.4497 110.859 40.043 110.205 40.4873C109.556 40.9268 108.647 41.1465 107.48 41.1465C106.206 41.1465 105.232 40.978 104.558 40.6411V39.1543C105.452 39.5742 106.377 39.7842 107.334 39.7842C108.022 39.7842 108.552 39.689 108.923 39.4985C109.299 39.3032 109.487 39.0078 109.487 38.6123C109.487 38.207 109.299 37.9092 108.923 37.7188C108.547 37.5283 107.966 37.4331 107.18 37.4331H106.191V36.1367H107.048ZM117.163 41.1465C116.138 41.1465 115.342 40.7778 114.775 40.0405H114.673C114.741 40.7241 114.775 41.1392 114.775 41.2856V44.6035H113.054V32.8994H114.446C114.485 33.0508 114.565 33.4121 114.688 33.9834H114.775C115.312 33.1631 116.118 32.7529 117.192 32.7529C118.203 32.7529 118.989 33.1191 119.551 33.8516C120.117 34.584 120.4 35.6118 120.4 36.9351C120.4 38.2583 120.112 39.291 119.536 40.0332C118.965 40.7754 118.174 41.1465 117.163 41.1465ZM116.746 34.1592C116.062 34.1592 115.562 34.3594 115.244 34.7598C114.932 35.1602 114.775 35.7998 114.775 36.6787V36.9351C114.775 37.9214 114.932 38.6367 115.244 39.0811C115.557 39.5205 116.067 39.7402 116.775 39.7402C117.371 39.7402 117.83 39.4961 118.152 39.0078C118.474 38.5195 118.635 37.8237 118.635 36.9204C118.635 36.0122 118.474 35.3262 118.152 34.8623C117.834 34.3936 117.366 34.1592 116.746 34.1592ZM127.468 41L127.124 39.8721H127.065C126.675 40.3652 126.282 40.7021 125.886 40.8828C125.491 41.0586 124.983 41.1465 124.363 41.1465C123.567 41.1465 122.944 40.9316 122.495 40.502C122.051 40.0723 121.829 39.4644 121.829 38.6782C121.829 37.8433 122.139 37.2134 122.759 36.7886C123.379 36.3638 124.324 36.1318 125.593 36.0928L126.992 36.0488V35.6167C126.992 35.0991 126.87 34.7134 126.626 34.4595C126.387 34.2007 126.013 34.0713 125.505 34.0713C125.09 34.0713 124.692 34.1323 124.312 34.2544C123.931 34.3765 123.564 34.5205 123.213 34.6865L122.656 33.4561C123.096 33.2266 123.577 33.0532 124.099 32.936C124.622 32.814 125.115 32.7529 125.579 32.7529C126.609 32.7529 127.385 32.9775 127.908 33.4268C128.435 33.876 128.699 34.5815 128.699 35.5435V41H127.468ZM124.905 39.8281C125.53 39.8281 126.03 39.6548 126.406 39.3081C126.787 38.9565 126.978 38.4658 126.978 37.8359V37.1328L125.938 37.1768C125.127 37.2061 124.536 37.3428 124.165 37.5869C123.799 37.8262 123.616 38.1948 123.616 38.6929C123.616 39.0542 123.723 39.335 123.938 39.5352C124.153 39.7305 124.475 39.8281 124.905 39.8281ZM130.632 36.1367C130.632 34.3301 130.938 32.9409 131.548 31.9692C132.163 30.9976 133.14 30.3726 134.478 30.0942C135.488 29.8892 136.653 29.689 137.971 29.4937L138.213 31.0098C136.611 31.2539 135.439 31.4443 134.697 31.5811C133.931 31.7227 133.376 32.0376 133.035 32.5259C132.698 33.0142 132.502 33.749 132.449 34.7305H132.559C132.837 34.3252 133.201 34.0127 133.65 33.793C134.099 33.5684 134.58 33.4561 135.093 33.4561C136.089 33.4561 136.865 33.771 137.422 34.4009C137.979 35.0308 138.257 35.9146 138.257 37.0522C138.257 38.356 137.917 39.3643 137.239 40.0771C136.565 40.79 135.63 41.1465 134.434 41.1465C133.247 41.1465 132.317 40.707 131.643 39.8281C130.969 38.9492 130.632 37.7188 130.632 36.1367ZM134.551 39.7402C135.83 39.7402 136.47 38.9004 136.47 37.2207C136.47 35.5996 135.891 34.7891 134.734 34.7891C134.417 34.7891 134.109 34.8574 133.811 34.9941C133.513 35.1309 133.237 35.3115 132.983 35.5361C132.734 35.7607 132.542 35.9927 132.405 36.2319C132.405 37.3843 132.588 38.2583 132.954 38.854C133.32 39.4448 133.853 39.7402 134.551 39.7402ZM147.427 36.9351C147.427 38.2583 147.087 39.291 146.409 40.0332C145.73 40.7754 144.785 41.1465 143.574 41.1465C142.817 41.1465 142.148 40.9756 141.567 40.6338C140.986 40.292 140.54 39.8013 140.227 39.1616C139.915 38.522 139.758 37.7798 139.758 36.9351C139.758 35.6216 140.095 34.5962 140.769 33.8589C141.443 33.1216 142.393 32.7529 143.618 32.7529C144.79 32.7529 145.718 33.1313 146.401 33.8882C147.085 34.6401 147.427 35.6558 147.427 36.9351ZM141.531 36.9351C141.531 38.8052 142.222 39.7402 143.604 39.7402C144.971 39.7402 145.654 38.8052 145.654 36.9351C145.654 35.0845 144.966 34.1592 143.589 34.1592C142.866 34.1592 142.341 34.3984 142.014 34.877C141.692 35.3555 141.531 36.0415 141.531 36.9351ZM155.498 32.8994V34.2471H152.861V41H151.133V34.2471H148.496V32.8994H155.498ZM162.083 32.8994H163.972L160.625 36.8032L164.258 41H162.28L158.779 36.8911V41H157.058V32.8994H158.779V36.8325L162.083 32.8994ZM167.246 32.8994V37.0522C167.246 37.5356 167.207 38.2461 167.129 39.1836L171.194 32.8994H173.296V41H171.641V36.9204C171.641 36.6958 171.653 36.332 171.677 35.8291C171.707 35.3262 171.731 34.96 171.75 34.7305L167.7 41H165.598V32.8994H167.246Z" transform="translate(121 105)" fill="#70708A"/>
<defs>
<filter id="filter0_d" x="0" y="0" width="416" height="134" filterUnits="userSpaceOnUse" color-interpolation-filters="sRGB">
<feFlood flood-opacity="0" result="BackgroundImageFix"/>
<feColorMatrix in="SourceAlpha" type="matrix" values="0 0 0 0 0 0 0 0 0 0 0 0 0 0 0 0 0 0 255 0"/>
<feOffset dy="10"/>
<feGaussianBlur stdDeviation="20"/>
<feColorMatrix type="matrix" values="0 0 0 0 0.735808 0 0 0 0 0.132445 0 0 0 0 0 0 0 0 0.3 0"/>
<feBlend mode="normal" in2="BackgroundImageFix" result="effect1_dropShadow"/>
<feBlend mode="normal" in="SourceGraphic" in2="effect1_dropShadow" result="shape"/>
</filter>
<linearGradient id="paint0_linear" x2="1" gradientUnits="userSpaceOnUse" gradientTransform="translate(0.000119638 -2737) scale(74 5476)">
<stop stop-color="#ED3838"/>
<stop offset="1" stop-color="#D72B2B"/>
</linearGradient>
<linearGradient id="paint1_linear" x2="1" gradientUnits="userSpaceOnUse" gradientTransform="translate(0.000119638 -2737) scale(74 5476)">
<stop stop-color="#ED3838"/>
<stop offset="1" stop-color="#D72B2B"/>
</linearGradient>
<linearGradient id="paint2_linear" x2="1" gradientUnits="userSpaceOnUse" gradientTransform="translate(0.000119638 -2737) scale(74 5476)">
<stop stop-color="#ED3838"/>
<stop offset="1" stop-color="#D72B2B"/>
</linearGradient>
</defs>
</svg>
