<svg width="832" height="148" viewBox="0 0 832 148" fill="none" xmlns="http://www.w3.org/2000/svg">
<g filter="url(#filter0_d)">
<path d="M0 10C0 4.47715 4.47715 0 10 0H742C747.523 0 752 4.47715 752 10V44C752 49.5228 747.523 54 742 54H9.99999C4.47714 54 0 49.5228 0 44V10Z" transform="translate(40 30)" fill="#5940FF"/>
</g>
<path fill-rule="evenodd" clip-rule="evenodd" d="M5 1H787C789.209 1 791 2.79077 791 5V123C791 125.209 789.209 127 787 127H500V128H787C789.761 128 792 125.761 792 123V5C792 2.23853 789.761 0 787 0H5C2.23858 0 0 2.23853 0 5V123C0 125.761 2.23859 128 5.00001 128H293V127H5.00001C2.79087 127 1 125.209 1 123V5C1 2.79077 2.79086 1 5 1Z" transform="translate(20 15)" fill="#CFDAE8"/>
<path d="M0 5C0 2.23858 2.23858 0 5 0H568V74H0V5Z" transform="translate(20 15)" fill="#122244"/>
<line y1="-0.5" x2="74" y2="-0.5" transform="translate(76 15) rotate(90)" stroke="url(#paint0_linear)"/>
<line y1="-0.5" x2="74" y2="-0.5" transform="translate(132 15) rotate(90)" stroke="url(#paint1_linear)"/>
<line y1="-0.5" x2="74" y2="-0.5" transform="translate(188 15) rotate(90)" stroke="url(#paint2_linear)"/>
<line y1="-0.5" x2="74" y2="-0.5" transform="translate(244 15) rotate(90)" stroke="url(#paint3_linear)"/>
<line y1="-0.5" x2="74" y2="-0.5" transform="translate(300 15) rotate(90)" stroke="url(#paint4_linear)"/>
<line y1="-0.5" x2="74" y2="-0.5" transform="translate(356 15) rotate(90)" stroke="url(#paint5_linear)"/>
<line y1="-0.5" x2="74" y2="-0.5" transform="translate(412 15) rotate(90)" stroke="url(#paint6_linear)"/>
<line y1="-0.5" x2="74" y2="-0.5" transform="translate(468 15) rotate(90)" stroke="url(#paint7_linear)"/>
<line y1="-0.5" x2="74" y2="-0.5" transform="translate(524 15) rotate(90)" stroke="url(#paint8_linear)"/>
<path d="M8.26172 21H5.24414V12.7383L5.27344 11.3809L5.32227 9.89648C4.82096 10.3978 4.47266 10.7266 4.27734 10.8828L2.63672 12.2012L1.18164 10.3848L5.78125 6.72266H8.26172V21ZM22.1289 13.8613C22.1289 16.3548 21.7188 18.2005 20.8984 19.3984C20.0846 20.5964 18.8281 21.1953 17.1289 21.1953C15.4818 21.1953 14.2383 20.5768 13.3984 19.3398C12.5651 18.1029 12.1484 16.2767 12.1484 13.8613C12.1484 11.3418 12.5553 9.48633 13.3691 8.29492C14.1829 7.09701 15.4362 6.49805 17.1289 6.49805C18.776 6.49805 20.0195 7.12305 20.8594 8.37305C21.7057 9.62305 22.1289 11.4525 22.1289 13.8613ZM15.1465 13.8613C15.1465 15.6126 15.2962 16.8691 15.5957 17.6309C15.9017 18.3861 16.4128 18.7637 17.1289 18.7637C17.832 18.7637 18.3398 18.3796 18.6523 17.6113C18.9648 16.8431 19.1211 15.5931 19.1211 13.8613C19.1211 12.11 18.9616 10.8535 18.6426 10.0918C18.3301 9.32357 17.8255 8.93945 17.1289 8.93945C16.4193 8.93945 15.9115 9.32357 15.6055 10.0918C15.2995 10.8535 15.1465 12.11 15.1465 13.8613ZM33.0664 21.1953C31.7839 21.1953 30.7747 20.6973 30.0391 19.7012C29.3099 18.7051 28.9453 17.3249 28.9453 15.5605C28.9453 13.7702 29.3164 12.377 30.0586 11.3809C30.8073 10.3783 31.8359 9.87695 33.1445 9.87695C34.5182 9.87695 35.5664 10.4108 36.2891 11.4785H36.3867C36.237 10.6647 36.1621 9.9388 36.1621 9.30078V5.80469H39.1504V21H36.8652L36.2891 19.584H36.1621C35.485 20.6582 34.4531 21.1953 33.0664 21.1953ZM34.1113 18.8223C34.873 18.8223 35.4297 18.6009 35.7812 18.1582C36.1393 17.7155 36.3346 16.9635 36.3672 15.9023V15.5801C36.3672 14.4082 36.1849 13.5684 35.8203 13.0605C35.4622 12.5527 34.8763 12.2988 34.0625 12.2988C33.3984 12.2988 32.8809 12.582 32.5098 13.1484C32.1452 13.7083 31.9629 14.5254 31.9629 15.5996C31.9629 16.6738 32.1484 17.4811 32.5195 18.0215C32.8906 18.5553 33.4212 18.8223 34.1113 18.8223ZM49.1992 21L48.623 19.5156H48.5449C48.0436 20.1471 47.526 20.5866 46.9922 20.834C46.4648 21.0749 45.7747 21.1953 44.9219 21.1953C43.8737 21.1953 43.0469 20.8958 42.4414 20.2969C41.8424 19.6979 41.543 18.8451 41.543 17.7383C41.543 16.5794 41.9466 15.7266 42.7539 15.1797C43.5677 14.6263 44.7917 14.3203 46.4258 14.2617L48.3203 14.2031V13.7246C48.3203 12.6178 47.7539 12.0645 46.6211 12.0645C45.7487 12.0645 44.7233 12.3281 43.5449 12.8555L42.5586 10.8438C43.8151 10.1862 45.2083 9.85742 46.7383 9.85742C48.2031 9.85742 49.3262 10.1764 50.1074 10.8145C50.8887 11.4525 51.2793 12.4225 51.2793 13.7246V21H49.1992ZM48.3203 15.9414L47.168 15.9805C46.3021 16.0065 45.6576 16.1628 45.2344 16.4492C44.8112 16.7357 44.5996 17.1719 44.5996 17.7578C44.5996 18.5977 45.0814 19.0176 46.0449 19.0176C46.735 19.0176 47.2852 18.819 47.6953 18.4219C48.112 18.0247 48.3203 17.4974 48.3203 16.8398V15.9414ZM52.793 10.082H56.0547L58.1152 16.2246C58.291 16.7585 58.4115 17.39 58.4766 18.1191H58.5352C58.6068 17.4486 58.7467 16.8171 58.9551 16.2246L60.9766 10.082H64.1699L59.5508 22.3965C59.1276 23.5358 58.5221 24.3887 57.7344 24.9551C56.9531 25.5215 56.0384 25.8047 54.9902 25.8047C54.4759 25.8047 53.9714 25.7493 53.4766 25.6387V23.2754C53.8346 23.36 54.2253 23.4023 54.6484 23.4023C55.1758 23.4023 55.6348 23.2396 56.0254 22.9141C56.4225 22.5951 56.7318 22.11 56.9531 21.459L57.1289 20.9219L52.793 10.082ZM73.3594 17.7578C73.3594 18.8776 72.9688 19.7305 72.1875 20.3164C71.4128 20.9023 70.2507 21.1953 68.7012 21.1953C67.9069 21.1953 67.2298 21.14 66.6699 21.0293C66.11 20.9251 65.5859 20.7689 65.0977 20.5605V18.0996C65.651 18.36 66.2728 18.5781 66.9629 18.7539C67.6595 18.9297 68.2715 19.0176 68.7988 19.0176C69.8796 19.0176 70.4199 18.7051 70.4199 18.0801C70.4199 17.8457 70.3483 17.6569 70.2051 17.5137C70.0618 17.3639 69.8145 17.1979 69.4629 17.0156C69.1113 16.8268 68.6426 16.6087 68.0566 16.3613C67.2168 16.0098 66.5983 15.6842 66.2012 15.3848C65.8105 15.0853 65.5241 14.7435 65.3418 14.3594C65.166 13.9688 65.0781 13.4902 65.0781 12.9238C65.0781 11.9538 65.4525 11.2051 66.2012 10.6777C66.9564 10.1439 68.0241 9.87695 69.4043 9.87695C70.7194 9.87695 71.9987 10.1634 73.2422 10.7363L72.3438 12.8848C71.7969 12.6504 71.2858 12.4583 70.8105 12.3086C70.3353 12.1589 69.8503 12.084 69.3555 12.084C68.4766 12.084 68.0371 12.3216 68.0371 12.7969C68.0371 13.0638 68.1771 13.2949 68.457 13.4902C68.7435 13.6855 69.3652 13.9753 70.3223 14.3594C71.1751 14.7044 71.8001 15.0267 72.1973 15.3262C72.5944 15.6257 72.8874 15.9707 73.0762 16.3613C73.265 16.752 73.3594 17.2174 73.3594 17.7578ZM8.41553 36.9351C8.41553 38.2583 8.07617 39.291 7.39746 40.0332C6.71875 40.7754 5.77393 41.1465 4.56299 41.1465C3.80615 41.1465 3.13721 40.9756 2.55615 40.6338C1.9751 40.292 1.52832 39.8013 1.21582 39.1616C0.90332 38.522 0.74707 37.7798 0.74707 36.9351C0.74707 35.6216 1.08398 34.5962 1.75781 33.8589C2.43164 33.1216 3.38135 32.7529 4.60693 32.7529C5.77881 32.7529 6.70654 33.1313 7.39014 33.8882C8.07373 34.6401 8.41553 35.6558 8.41553 36.9351ZM2.51953 36.9351C2.51953 38.8052 3.21045 39.7402 4.59229 39.7402C5.95947 39.7402 6.64307 38.8052 6.64307 36.9351C6.64307 35.0845 5.95459 34.1592 4.57764 34.1592C3.85498 34.1592 3.33008 34.3984 3.00293 34.877C2.68066 35.3555 2.51953 36.0415 2.51953 36.9351ZM17.5269 41H15.7983V36.0195C15.7983 35.3945 15.6714 34.9282 15.4175 34.6206C15.1685 34.313 14.7705 34.1592 14.2236 34.1592C13.4961 34.1592 12.9639 34.374 12.627 34.8037C12.29 35.2334 12.1216 35.9536 12.1216 36.9644V41H10.4004V32.8994H11.748L11.9897 33.9614H12.0776C12.3218 33.5757 12.6685 33.2778 13.1177 33.0679C13.5669 32.8579 14.0649 32.7529 14.6118 32.7529C16.5552 32.7529 17.5269 33.7417 17.5269 35.7192V41ZM29.2603 38.6929C29.2603 39.4839 28.9722 40.0918 28.396 40.5166C27.8198 40.9365 26.9946 41.1465 25.9204 41.1465C24.8413 41.1465 23.9746 40.9829 23.3203 40.6558V39.1689C24.2725 39.6084 25.1587 39.8281 25.979 39.8281C27.0386 39.8281 27.5684 39.5083 27.5684 38.8687C27.5684 38.6636 27.5098 38.4927 27.3926 38.356C27.2754 38.2192 27.0825 38.0776 26.814 37.9312C26.5454 37.7847 26.1719 37.6187 25.6934 37.4331C24.7607 37.0718 24.1284 36.7104 23.7964 36.3491C23.4692 35.9878 23.3057 35.519 23.3057 34.9429C23.3057 34.2495 23.584 33.7124 24.1406 33.3315C24.7021 32.9458 25.4639 32.7529 26.4258 32.7529C27.3779 32.7529 28.2788 32.9458 29.1284 33.3315L28.5718 34.6279C27.6978 34.2666 26.9629 34.0859 26.3672 34.0859C25.459 34.0859 25.0049 34.3447 25.0049 34.8623C25.0049 35.1162 25.1221 35.3311 25.3564 35.5068C25.5957 35.6826 26.1133 35.9243 26.9092 36.2319C27.5781 36.4907 28.064 36.7275 28.3667 36.9424C28.6694 37.1572 28.894 37.4062 29.0405 37.6895C29.187 37.9678 29.2603 38.3022 29.2603 38.6929ZM34.1455 39.7549C34.5654 39.7549 34.9854 39.689 35.4053 39.5571V40.8535C35.2148 40.9365 34.9683 41.0049 34.6655 41.0586C34.3677 41.1172 34.0576 41.1465 33.7354 41.1465C32.1045 41.1465 31.2891 40.2871 31.2891 38.5684V34.2031H30.1831V33.4414L31.3696 32.8115L31.9556 31.0977H33.0176V32.8994H35.3247V34.2031H33.0176V38.5391C33.0176 38.9541 33.1201 39.2617 33.3252 39.4619C33.5352 39.6572 33.8086 39.7549 34.1455 39.7549ZM42.0996 41L41.7554 39.8721H41.6968C41.3062 40.3652 40.9131 40.7021 40.5176 40.8828C40.1221 41.0586 39.6143 41.1465 38.9941 41.1465C38.1982 41.1465 37.5757 40.9316 37.1265 40.502C36.6821 40.0723 36.46 39.4644 36.46 38.6782C36.46 37.8433 36.77 37.2134 37.3901 36.7886C38.0103 36.3638 38.9551 36.1318 40.2246 36.0928L41.6235 36.0488V35.6167C41.6235 35.0991 41.5015 34.7134 41.2573 34.4595C41.0181 34.2007 40.6445 34.0713 40.1367 34.0713C39.7217 34.0713 39.3237 34.1323 38.9429 34.2544C38.562 34.3765 38.1958 34.5205 37.8442 34.6865L37.2876 33.4561C37.7271 33.2266 38.208 33.0532 38.7305 32.936C39.2529 32.814 39.7461 32.7529 40.21 32.7529C41.2402 32.7529 42.0166 32.9775 42.5391 33.4268C43.0664 33.876 43.3301 34.5815 43.3301 35.5435V41H42.0996ZM39.5361 39.8281C40.1611 39.8281 40.6616 39.6548 41.0376 39.3081C41.4185 38.9565 41.6089 38.4658 41.6089 37.8359V37.1328L40.5688 37.1768C39.7583 37.2061 39.1675 37.3428 38.7964 37.5869C38.4302 37.8262 38.2471 38.1948 38.2471 38.6929C38.2471 39.0542 38.3545 39.335 38.5693 39.5352C38.7842 39.7305 39.1064 39.8281 39.5361 39.8281ZM49.8413 32.7529C50.188 32.7529 50.4736 32.7773 50.6982 32.8262L50.5298 34.4302C50.2856 34.3716 50.0317 34.3423 49.7681 34.3423C49.0796 34.3423 48.5205 34.5669 48.0908 35.0161C47.666 35.4653 47.4536 36.0488 47.4536 36.7666V41H45.7324V32.8994H47.0801L47.3071 34.3276H47.395C47.6636 33.8442 48.0127 33.4609 48.4424 33.1777C48.877 32.8945 49.3433 32.7529 49.8413 32.7529ZM55.2246 39.7549C55.6445 39.7549 56.0645 39.689 56.4844 39.5571V40.8535C56.2939 40.9365 56.0474 41.0049 55.7446 41.0586C55.4468 41.1172 55.1367 41.1465 54.8145 41.1465C53.1836 41.1465 52.3682 40.2871 52.3682 38.5684V34.2031H51.2622V33.4414L52.4487 32.8115L53.0347 31.0977H54.0967V32.8994H56.4038V34.2031H54.0967V38.5391C54.0967 38.9541 54.1992 39.2617 54.4043 39.4619C54.6143 39.6572 54.8877 39.7549 55.2246 39.7549ZM65.0244 39.7549C65.4443 39.7549 65.8643 39.689 66.2842 39.5571V40.8535C66.0938 40.9365 65.8472 41.0049 65.5444 41.0586C65.2466 41.1172 64.9365 41.1465 64.6143 41.1465C62.9834 41.1465 62.168 40.2871 62.168 38.5684V34.2031H61.062V33.4414L62.2485 32.8115L62.8345 31.0977H63.8965V32.8994H66.2036V34.2031H63.8965V38.5391C63.8965 38.9541 63.999 39.2617 64.2041 39.4619C64.4141 39.6572 64.6875 39.7549 65.0244 39.7549ZM75.0366 41H73.3081V36.0195C73.3081 35.3945 73.1812 34.9282 72.9272 34.6206C72.6782 34.313 72.2803 34.1592 71.7334 34.1592C71.0107 34.1592 70.4785 34.3765 70.1367 34.811C69.7998 35.2407 69.6313 35.9634 69.6313 36.979V41H67.9102V29.6035H69.6313V32.4966C69.6313 32.9604 69.6021 33.4561 69.5435 33.9834H69.6533C69.8877 33.5928 70.2124 33.29 70.6274 33.0752C71.0474 32.8604 71.5356 32.7529 72.0923 32.7529C74.0552 32.7529 75.0366 33.7417 75.0366 35.7192V41ZM80.9692 41.1465C79.7095 41.1465 78.7231 40.7803 78.0103 40.0479C77.3022 39.3105 76.9482 38.2974 76.9482 37.0083C76.9482 35.6851 77.2778 34.645 77.937 33.8882C78.5962 33.1313 79.502 32.7529 80.6543 32.7529C81.7236 32.7529 82.5684 33.0776 83.1885 33.7271C83.8086 34.3765 84.1187 35.27 84.1187 36.4077V37.3379H78.7207C78.7451 38.124 78.9575 38.7295 79.3579 39.1543C79.7583 39.5742 80.3223 39.7842 81.0498 39.7842C81.5283 39.7842 81.9727 39.7402 82.3828 39.6523C82.7979 39.5596 83.2422 39.4082 83.7158 39.1982V40.5972C83.2959 40.7974 82.8711 40.939 82.4414 41.022C82.0117 41.105 81.521 41.1465 80.9692 41.1465ZM80.6543 34.0566C80.1074 34.0566 79.668 34.23 79.3359 34.5767C79.0088 34.9233 78.8135 35.4287 78.75 36.0928H82.4268C82.417 35.4238 82.2559 34.9185 81.9434 34.5767C81.6309 34.23 81.2012 34.0566 80.6543 34.0566ZM95.4126 38.6929C95.4126 39.4839 95.1245 40.0918 94.5483 40.5166C93.9722 40.9365 93.147 41.1465 92.0728 41.1465C90.9937 41.1465 90.127 40.9829 89.4727 40.6558V39.1689C90.4248 39.6084 91.311 39.8281 92.1313 39.8281C93.1909 39.8281 93.7207 39.5083 93.7207 38.8687C93.7207 38.6636 93.6621 38.4927 93.5449 38.356C93.4277 38.2192 93.2349 38.0776 92.9663 37.9312C92.6978 37.7847 92.3242 37.6187 91.8457 37.4331C90.9131 37.0718 90.2808 36.7104 89.9487 36.3491C89.6216 35.9878 89.458 35.519 89.458 34.9429C89.458 34.2495 89.7363 33.7124 90.293 33.3315C90.8545 32.9458 91.6162 32.7529 92.5781 32.7529C93.5303 32.7529 94.4312 32.9458 95.2808 33.3315L94.7241 34.6279C93.8501 34.2666 93.1152 34.0859 92.5195 34.0859C91.6113 34.0859 91.1572 34.3447 91.1572 34.8623C91.1572 35.1162 91.2744 35.3311 91.5088 35.5068C91.748 35.6826 92.2656 35.9243 93.0615 36.2319C93.7305 36.4907 94.2163 36.7275 94.519 36.9424C94.8218 37.1572 95.0464 37.4062 95.1929 37.6895C95.3394 37.9678 95.4126 38.3022 95.4126 38.6929ZM96.0498 32.8994H97.9248L99.5728 37.4917C99.8218 38.146 99.9878 38.7612 100.071 39.3374H100.129C100.173 39.0688 100.254 38.7441 100.371 38.3633C100.488 37.9775 101.108 36.1562 102.231 32.8994H104.092L100.627 42.0767C99.9976 43.7612 98.9478 44.6035 97.478 44.6035C97.0972 44.6035 96.7261 44.562 96.3647 44.479V43.1167C96.6235 43.1753 96.9189 43.2046 97.251 43.2046C98.0811 43.2046 98.6646 42.7236 99.0015 41.7617L99.3018 41L96.0498 32.8994ZM110.764 38.6929C110.764 39.4839 110.476 40.0918 109.9 40.5166C109.324 40.9365 108.499 41.1465 107.424 41.1465C106.345 41.1465 105.479 40.9829 104.824 40.6558V39.1689C105.776 39.6084 106.663 39.8281 107.483 39.8281C108.542 39.8281 109.072 39.5083 109.072 38.8687C109.072 38.6636 109.014 38.4927 108.896 38.356C108.779 38.2192 108.586 38.0776 108.318 37.9312C108.049 37.7847 107.676 37.6187 107.197 37.4331C106.265 37.0718 105.632 36.7104 105.3 36.3491C104.973 35.9878 104.81 35.519 104.81 34.9429C104.81 34.2495 105.088 33.7124 105.645 33.3315C106.206 32.9458 106.968 32.7529 107.93 32.7529C108.882 32.7529 109.783 32.9458 110.632 33.3315L110.076 34.6279C109.202 34.2666 108.467 34.0859 107.871 34.0859C106.963 34.0859 106.509 34.3447 106.509 34.8623C106.509 35.1162 106.626 35.3311 106.86 35.5068C107.1 35.6826 107.617 35.9243 108.413 36.2319C109.082 36.4907 109.568 36.7275 109.871 36.9424C110.173 37.1572 110.398 37.4062 110.544 37.6895C110.691 37.9678 110.764 38.3022 110.764 38.6929ZM115.649 39.7549C116.069 39.7549 116.489 39.689 116.909 39.5571V40.8535C116.719 40.9365 116.472 41.0049 116.169 41.0586C115.872 41.1172 115.562 41.1465 115.239 41.1465C113.608 41.1465 112.793 40.2871 112.793 38.5684V34.2031H111.687V33.4414L112.874 32.8115L113.459 31.0977H114.521V32.8994H116.829V34.2031H114.521V38.5391C114.521 38.9541 114.624 39.2617 114.829 39.4619C115.039 39.6572 115.312 39.7549 115.649 39.7549ZM122.073 41.1465C120.813 41.1465 119.827 40.7803 119.114 40.0479C118.406 39.3105 118.052 38.2974 118.052 37.0083C118.052 35.6851 118.381 34.645 119.041 33.8882C119.7 33.1313 120.605 32.7529 121.758 32.7529C122.827 32.7529 123.672 33.0776 124.292 33.7271C124.912 34.3765 125.222 35.27 125.222 36.4077V37.3379H119.824C119.849 38.124 120.061 38.7295 120.461 39.1543C120.862 39.5742 121.426 39.7842 122.153 39.7842C122.632 39.7842 123.076 39.7402 123.486 39.6523C123.901 39.5596 124.346 39.4082 124.819 39.1982V40.5972C124.399 40.7974 123.975 40.939 123.545 41.022C123.115 41.105 122.625 41.1465 122.073 41.1465ZM121.758 34.0566C121.211 34.0566 120.771 34.23 120.439 34.5767C120.112 34.9233 119.917 35.4287 119.854 36.0928H123.53C123.521 35.4238 123.359 34.9185 123.047 34.5767C122.734 34.23 122.305 34.0566 121.758 34.0566ZM134.004 41H132.275V36.0049C132.275 35.3848 132.158 34.9233 131.924 34.6206C131.689 34.313 131.323 34.1592 130.825 34.1592C130.161 34.1592 129.673 34.3765 129.36 34.811C129.053 35.2407 128.899 35.9585 128.899 36.9644V41H127.178V32.8994H128.525L128.767 33.9614H128.855C129.08 33.5757 129.404 33.2778 129.829 33.0679C130.259 32.8579 130.73 32.7529 131.243 32.7529C132.488 32.7529 133.313 33.1777 133.718 34.0273H133.835C134.075 33.627 134.412 33.3145 134.846 33.0898C135.281 32.8652 135.779 32.7529 136.34 32.7529C137.307 32.7529 138.01 32.9971 138.45 33.4854C138.894 33.9736 139.116 34.7183 139.116 35.7192V41H137.395V36.0049C137.395 35.3848 137.275 34.9233 137.036 34.6206C136.802 34.313 136.436 34.1592 135.938 34.1592C135.269 34.1592 134.778 34.3691 134.465 34.7891C134.158 35.2041 134.004 35.8438 134.004 36.708V41Z" transform="translate(44 28)" fill="white"/>
<path d="M55.3125 16.5371C55.3125 17.5723 54.9382 18.4056 54.1895 19.0371C53.4408 19.6621 52.3926 20.0365 51.0449 20.1602V22.1621H49.707V20.1992C48.1185 20.1667 46.7253 19.8867 45.5273 19.3594V16.7812C46.0938 17.0612 46.7741 17.3086 47.5684 17.5234C48.3691 17.7383 49.082 17.8652 49.707 17.9043V14.877L49.0527 14.623C47.7637 14.1152 46.849 13.5651 46.3086 12.9727C45.7747 12.3737 45.5078 11.6348 45.5078 10.7559C45.5078 9.81185 45.8757 9.03711 46.6113 8.43164C47.3535 7.81966 48.3854 7.44857 49.707 7.31836V5.82422H51.0449V7.2793C52.5358 7.3444 53.8835 7.64388 55.0879 8.17773L54.1699 10.4629C53.1543 10.0462 52.1126 9.79232 51.0449 9.70117V12.582C52.3145 13.0703 53.2161 13.4935 53.75 13.8516C54.2904 14.2096 54.6842 14.6035 54.9316 15.0332C55.1855 15.4629 55.3125 15.9642 55.3125 16.5371ZM52.373 16.6836C52.373 16.4102 52.2624 16.179 52.041 15.9902C51.8197 15.8014 51.4876 15.6061 51.0449 15.4043V17.8359C51.9303 17.6862 52.373 17.3021 52.373 16.6836ZM48.4473 10.7559C48.4473 11.0423 48.5449 11.2799 48.7402 11.4688C48.9421 11.651 49.2643 11.8398 49.707 12.0352V9.74023C48.8672 9.86393 48.4473 10.2025 48.4473 10.7559ZM58.291 21L63.6523 9.28125H56.6113V6.74219H66.8555V8.63672L61.4551 21H58.291ZM78.2031 13.8613C78.2031 16.3548 77.793 18.2005 76.9727 19.3984C76.1589 20.5964 74.9023 21.1953 73.2031 21.1953C71.556 21.1953 70.3125 20.5768 69.4727 19.3398C68.6393 18.1029 68.2227 16.2767 68.2227 13.8613C68.2227 11.3418 68.6296 9.48633 69.4434 8.29492C70.2572 7.09701 71.5104 6.49805 73.2031 6.49805C74.8503 6.49805 76.0938 7.12305 76.9336 8.37305C77.7799 9.62305 78.2031 11.4525 78.2031 13.8613ZM71.2207 13.8613C71.2207 15.6126 71.3704 16.8691 71.6699 17.6309C71.9759 18.3861 72.487 18.7637 73.2031 18.7637C73.9062 18.7637 74.4141 18.3796 74.7266 17.6113C75.0391 16.8431 75.1953 15.5931 75.1953 13.8613C75.1953 12.11 75.0358 10.8535 74.7168 10.0918C74.4043 9.32357 73.8997 8.93945 73.2031 8.93945C72.4935 8.93945 71.9857 9.32357 71.6797 10.0918C71.3737 10.8535 71.2207 12.11 71.2207 13.8613ZM89.6289 13.8613C89.6289 16.3548 89.2188 18.2005 88.3984 19.3984C87.5846 20.5964 86.3281 21.1953 84.6289 21.1953C82.9818 21.1953 81.7383 20.5768 80.8984 19.3398C80.0651 18.1029 79.6484 16.2767 79.6484 13.8613C79.6484 11.3418 80.0553 9.48633 80.8691 8.29492C81.6829 7.09701 82.9362 6.49805 84.6289 6.49805C86.276 6.49805 87.5195 7.12305 88.3594 8.37305C89.2057 9.62305 89.6289 11.4525 89.6289 13.8613ZM82.6465 13.8613C82.6465 15.6126 82.7962 16.8691 83.0957 17.6309C83.4017 18.3861 83.9128 18.7637 84.6289 18.7637C85.332 18.7637 85.8398 18.3796 86.1523 17.6113C86.4648 16.8431 86.6211 15.5931 86.6211 13.8613C86.6211 12.11 86.4616 10.8535 86.1426 10.0918C85.8301 9.32357 85.3255 8.93945 84.6289 8.93945C83.9193 8.93945 83.4115 9.32357 83.1055 10.0918C82.7995 10.8535 82.6465 12.11 82.6465 13.8613Z" transform="translate(349 105)" fill="#122244"/>
<path d="M6.40137 31.6396C5.39551 31.6396 4.60449 31.9961 4.02832 32.709C3.45215 33.4219 3.16406 34.4058 3.16406 35.6606C3.16406 36.9741 3.43994 37.9678 3.9917 38.6416C4.54834 39.3154 5.35156 39.6523 6.40137 39.6523C6.85547 39.6523 7.29492 39.6084 7.71973 39.5205C8.14453 39.4277 8.58643 39.3105 9.04541 39.1689V40.6704C8.20557 40.9878 7.25342 41.1465 6.18896 41.1465C4.62158 41.1465 3.41797 40.6729 2.57812 39.7256C1.73828 38.7734 1.31836 37.4136 1.31836 35.646C1.31836 34.5327 1.521 33.5586 1.92627 32.7236C2.33643 31.8887 2.92725 31.249 3.69873 30.8047C4.47021 30.3604 5.37598 30.1382 6.41602 30.1382C7.50977 30.1382 8.52051 30.3677 9.44824 30.8267L8.81836 32.2842C8.45703 32.1133 8.07373 31.9644 7.66846 31.8374C7.26807 31.7056 6.8457 31.6396 6.40137 31.6396ZM18.3545 36.9351C18.3545 38.2583 18.0151 39.291 17.3364 40.0332C16.6577 40.7754 15.7129 41.1465 14.502 41.1465C13.7451 41.1465 13.0762 40.9756 12.4951 40.6338C11.9141 40.292 11.4673 39.8013 11.1548 39.1616C10.8423 38.522 10.686 37.7798 10.686 36.9351C10.686 35.6216 11.0229 34.5962 11.6968 33.8589C12.3706 33.1216 13.3203 32.7529 14.5459 32.7529C15.7178 32.7529 16.6455 33.1313 17.3291 33.8882C18.0127 34.6401 18.3545 35.6558 18.3545 36.9351ZM12.4585 36.9351C12.4585 38.8052 13.1494 39.7402 14.5312 39.7402C15.8984 39.7402 16.582 38.8052 16.582 36.9351C16.582 35.0845 15.8936 34.1592 14.5166 34.1592C13.7939 34.1592 13.269 34.3984 12.9419 34.877C12.6196 35.3555 12.4585 36.0415 12.4585 36.9351ZM25.7812 38.6929C25.7812 39.4839 25.4932 40.0918 24.917 40.5166C24.3408 40.9365 23.5156 41.1465 22.4414 41.1465C21.3623 41.1465 20.4956 40.9829 19.8413 40.6558V39.1689C20.7935 39.6084 21.6797 39.8281 22.5 39.8281C23.5596 39.8281 24.0894 39.5083 24.0894 38.8687C24.0894 38.6636 24.0308 38.4927 23.9136 38.356C23.7964 38.2192 23.6035 38.0776 23.335 37.9312C23.0664 37.7847 22.6929 37.6187 22.2144 37.4331C21.2817 37.0718 20.6494 36.7104 20.3174 36.3491C19.9902 35.9878 19.8267 35.519 19.8267 34.9429C19.8267 34.2495 20.105 33.7124 20.6616 33.3315C21.2231 32.9458 21.9849 32.7529 22.9468 32.7529C23.8989 32.7529 24.7998 32.9458 25.6494 33.3315L25.0928 34.6279C24.2188 34.2666 23.4839 34.0859 22.8882 34.0859C21.98 34.0859 21.5259 34.3447 21.5259 34.8623C21.5259 35.1162 21.6431 35.3311 21.8774 35.5068C22.1167 35.6826 22.6343 35.9243 23.4302 36.2319C24.0991 36.4907 24.585 36.7275 24.8877 36.9424C25.1904 37.1572 25.415 37.4062 25.5615 37.6895C25.708 37.9678 25.7812 38.3022 25.7812 38.6929ZM30.6665 39.7549C31.0864 39.7549 31.5063 39.689 31.9263 39.5571V40.8535C31.7358 40.9365 31.4893 41.0049 31.1865 41.0586C30.8887 41.1172 30.5786 41.1465 30.2563 41.1465C28.6255 41.1465 27.8101 40.2871 27.8101 38.5684V34.2031H26.7041V33.4414L27.8906 32.8115L28.4766 31.0977H29.5386V32.8994H31.8457V34.2031H29.5386V38.5391C29.5386 38.9541 29.6411 39.2617 29.8462 39.4619C30.0562 39.6572 30.3296 39.7549 30.6665 39.7549ZM44.6338 36.9351C44.6338 38.2583 44.2944 39.291 43.6157 40.0332C42.937 40.7754 41.9922 41.1465 40.7812 41.1465C40.0244 41.1465 39.3555 40.9756 38.7744 40.6338C38.1934 40.292 37.7466 39.8013 37.4341 39.1616C37.1216 38.522 36.9653 37.7798 36.9653 36.9351C36.9653 35.6216 37.3022 34.5962 37.9761 33.8589C38.6499 33.1216 39.5996 32.7529 40.8252 32.7529C41.9971 32.7529 42.9248 33.1313 43.6084 33.8882C44.292 34.6401 44.6338 35.6558 44.6338 36.9351ZM38.7378 36.9351C38.7378 38.8052 39.4287 39.7402 40.8105 39.7402C42.1777 39.7402 42.8613 38.8052 42.8613 36.9351C42.8613 35.0845 42.1729 34.1592 40.7959 34.1592C40.0732 34.1592 39.5483 34.3984 39.2212 34.877C38.8989 35.3555 38.7378 36.0415 38.7378 36.9351ZM50.6836 34.2031H48.7061V41H46.9775V34.2031H45.6445V33.3975L46.9775 32.8701V32.3428C46.9775 31.3857 47.2021 30.6777 47.6514 30.2188C48.1006 29.7549 48.7866 29.5229 49.7095 29.5229C50.3149 29.5229 50.9106 29.623 51.4966 29.8232L51.0425 31.127C50.6177 30.9902 50.2124 30.9219 49.8267 30.9219C49.436 30.9219 49.1504 31.0439 48.9697 31.2881C48.7939 31.5273 48.7061 31.8887 48.7061 32.3721V32.8994H50.6836V34.2031ZM61.0327 41L60.6885 39.8721H60.6299C60.2393 40.3652 59.8462 40.7021 59.4507 40.8828C59.0552 41.0586 58.5474 41.1465 57.9272 41.1465C57.1313 41.1465 56.5088 40.9316 56.0596 40.502C55.6152 40.0723 55.3931 39.4644 55.3931 38.6782C55.3931 37.8433 55.7031 37.2134 56.3232 36.7886C56.9434 36.3638 57.8882 36.1318 59.1577 36.0928L60.5566 36.0488V35.6167C60.5566 35.0991 60.4346 34.7134 60.1904 34.4595C59.9512 34.2007 59.5776 34.0713 59.0698 34.0713C58.6548 34.0713 58.2568 34.1323 57.876 34.2544C57.4951 34.3765 57.1289 34.5205 56.7773 34.6865L56.2207 33.4561C56.6602 33.2266 57.1411 33.0532 57.6636 32.936C58.186 32.814 58.6792 32.7529 59.1431 32.7529C60.1733 32.7529 60.9497 32.9775 61.4722 33.4268C61.9995 33.876 62.2632 34.5815 62.2632 35.5435V41H61.0327ZM58.4692 39.8281C59.0942 39.8281 59.5947 39.6548 59.9707 39.3081C60.3516 38.9565 60.542 38.4658 60.542 37.8359V37.1328L59.502 37.1768C58.6914 37.2061 58.1006 37.3428 57.7295 37.5869C57.3633 37.8262 57.1802 38.1948 57.1802 38.6929C57.1802 39.0542 57.2876 39.335 57.5024 39.5352C57.7173 39.7305 58.0396 39.8281 58.4692 39.8281ZM72.627 34.2031H70.6494V41H68.9209V34.2031H67.5879V33.3975L68.9209 32.8701V32.3428C68.9209 31.3857 69.1455 30.6777 69.5947 30.2188C70.0439 29.7549 70.73 29.5229 71.6528 29.5229C72.2583 29.5229 72.854 29.623 73.4399 29.8232L72.9858 31.127C72.561 30.9902 72.1558 30.9219 71.77 30.9219C71.3794 30.9219 71.0938 31.0439 70.9131 31.2881C70.7373 31.5273 70.6494 31.8887 70.6494 32.3721V32.8994H72.627V34.2031ZM78.1201 32.7529C78.4668 32.7529 78.7524 32.7773 78.9771 32.8262L78.8086 34.4302C78.5645 34.3716 78.3105 34.3423 78.0469 34.3423C77.3584 34.3423 76.7993 34.5669 76.3696 35.0161C75.9448 35.4653 75.7324 36.0488 75.7324 36.7666V41H74.0112V32.8994H75.3589L75.5859 34.3276H75.6738C75.9424 33.8442 76.2915 33.4609 76.7212 33.1777C77.1558 32.8945 77.6221 32.7529 78.1201 32.7529ZM85.5542 41L85.21 39.8721H85.1514C84.7607 40.3652 84.3677 40.7021 83.9722 40.8828C83.5767 41.0586 83.0688 41.1465 82.4487 41.1465C81.6528 41.1465 81.0303 40.9316 80.5811 40.502C80.1367 40.0723 79.9146 39.4644 79.9146 38.6782C79.9146 37.8433 80.2246 37.2134 80.8447 36.7886C81.4648 36.3638 82.4097 36.1318 83.6792 36.0928L85.0781 36.0488V35.6167C85.0781 35.0991 84.9561 34.7134 84.7119 34.4595C84.4727 34.2007 84.0991 34.0713 83.5913 34.0713C83.1763 34.0713 82.7783 34.1323 82.3975 34.2544C82.0166 34.3765 81.6504 34.5205 81.2988 34.6865L80.7422 33.4561C81.1816 33.2266 81.6626 33.0532 82.1851 32.936C82.7075 32.814 83.2007 32.7529 83.6646 32.7529C84.6948 32.7529 85.4712 32.9775 85.9937 33.4268C86.521 33.876 86.7847 34.5815 86.7847 35.5435V41H85.5542ZM82.9907 39.8281C83.6157 39.8281 84.1162 39.6548 84.4922 39.3081C84.873 38.9565 85.0635 38.4658 85.0635 37.8359V37.1328L84.0234 37.1768C83.2129 37.2061 82.6221 37.3428 82.251 37.5869C81.8848 37.8262 81.7017 38.1948 81.7017 38.6929C81.7017 39.0542 81.8091 39.335 82.0239 39.5352C82.2388 39.7305 82.561 39.8281 82.9907 39.8281ZM96.3135 41H94.585V36.0195C94.585 35.3945 94.458 34.9282 94.2041 34.6206C93.9551 34.313 93.5571 34.1592 93.0103 34.1592C92.2827 34.1592 91.7505 34.374 91.4136 34.8037C91.0767 35.2334 90.9082 35.9536 90.9082 36.9644V41H89.187V32.8994H90.5347L90.7764 33.9614H90.8643C91.1084 33.5757 91.4551 33.2778 91.9043 33.0679C92.3535 32.8579 92.8516 32.7529 93.3984 32.7529C95.3418 32.7529 96.3135 33.7417 96.3135 35.7192V41ZM101.975 41.1465C100.75 41.1465 99.8169 40.79 99.1772 40.0771C98.5425 39.3594 98.2251 38.3315 98.2251 36.9937C98.2251 35.6313 98.5571 34.584 99.2212 33.8516C99.8901 33.1191 100.854 32.7529 102.114 32.7529C102.969 32.7529 103.738 32.9116 104.421 33.229L103.901 34.6133C103.174 34.3301 102.573 34.1885 102.1 34.1885C100.698 34.1885 99.9976 35.1187 99.9976 36.979C99.9976 37.8872 100.171 38.5708 100.518 39.0298C100.869 39.4839 101.382 39.7109 102.056 39.7109C102.822 39.7109 103.547 39.5205 104.231 39.1396V40.6411C103.923 40.8218 103.594 40.9512 103.242 41.0293C102.896 41.1074 102.473 41.1465 101.975 41.1465ZM113.262 41H111.533V36.0195C111.533 35.3945 111.406 34.9282 111.152 34.6206C110.903 34.313 110.505 34.1592 109.958 34.1592C109.236 34.1592 108.704 34.3765 108.362 34.811C108.025 35.2407 107.856 35.9634 107.856 36.979V41H106.135V29.6035H107.856V32.4966C107.856 32.9604 107.827 33.4561 107.769 33.9834H107.878C108.113 33.5928 108.438 33.29 108.853 33.0752C109.272 32.8604 109.761 32.7529 110.317 32.7529C112.28 32.7529 113.262 33.7417 113.262 35.7192V41ZM117.378 41H115.657V32.8994H117.378V41ZM115.554 30.7534C115.554 30.4458 115.637 30.209 115.803 30.043C115.974 29.877 116.216 29.7939 116.528 29.7939C116.831 29.7939 117.065 29.877 117.231 30.043C117.402 30.209 117.488 30.4458 117.488 30.7534C117.488 31.0464 117.402 31.2783 117.231 31.4492C117.065 31.6152 116.831 31.6982 116.528 31.6982C116.216 31.6982 115.974 31.6152 115.803 31.4492C115.637 31.2783 115.554 31.0464 115.554 30.7534ZM125.288 38.6929C125.288 39.4839 125 40.0918 124.424 40.5166C123.848 40.9365 123.022 41.1465 121.948 41.1465C120.869 41.1465 120.002 40.9829 119.348 40.6558V39.1689C120.3 39.6084 121.187 39.8281 122.007 39.8281C123.066 39.8281 123.596 39.5083 123.596 38.8687C123.596 38.6636 123.538 38.4927 123.42 38.356C123.303 38.2192 123.11 38.0776 122.842 37.9312C122.573 37.7847 122.2 37.6187 121.721 37.4331C120.789 37.0718 120.156 36.7104 119.824 36.3491C119.497 35.9878 119.333 35.519 119.333 34.9429C119.333 34.2495 119.612 33.7124 120.168 33.3315C120.73 32.9458 121.492 32.7529 122.454 32.7529C123.406 32.7529 124.307 32.9458 125.156 33.3315L124.6 34.6279C123.726 34.2666 122.991 34.0859 122.395 34.0859C121.487 34.0859 121.033 34.3447 121.033 34.8623C121.033 35.1162 121.15 35.3311 121.384 35.5068C121.624 35.6826 122.141 35.9243 122.937 36.2319C123.606 36.4907 124.092 36.7275 124.395 36.9424C124.697 37.1572 124.922 37.4062 125.068 37.6895C125.215 37.9678 125.288 38.3022 125.288 38.6929ZM130.693 41.1465C129.434 41.1465 128.447 40.7803 127.734 40.0479C127.026 39.3105 126.672 38.2974 126.672 37.0083C126.672 35.6851 127.002 34.645 127.661 33.8882C128.32 33.1313 129.226 32.7529 130.378 32.7529C131.448 32.7529 132.292 33.0776 132.913 33.7271C133.533 34.3765 133.843 35.27 133.843 36.4077V37.3379H128.445C128.469 38.124 128.682 38.7295 129.082 39.1543C129.482 39.5742 130.046 39.7842 130.774 39.7842C131.252 39.7842 131.697 39.7402 132.107 39.6523C132.522 39.5596 132.966 39.4082 133.44 39.1982V40.5972C133.02 40.7974 132.595 40.939 132.166 41.022C131.736 41.105 131.245 41.1465 130.693 41.1465ZM130.378 34.0566C129.832 34.0566 129.392 34.23 129.06 34.5767C128.733 34.9233 128.538 35.4287 128.474 36.0928H132.151C132.141 35.4238 131.98 34.9185 131.667 34.5767C131.355 34.23 130.925 34.0566 130.378 34.0566Z" transform="translate(349 105)" fill="#70708A"/>
<path d="M0 0H229C231.761 0 234 2.23858 234 5V74H0V0Z" transform="translate(578 15)" fill="#422BD7"/>
<line y1="-0.5" x2="74" y2="-0.5" transform="translate(636 15) rotate(90)" stroke="url(#paint9_linear)"/>
<line y1="-0.5" x2="74" y2="-0.5" transform="translate(695 15) rotate(90)" stroke="url(#paint10_linear)"/>
<line y1="-0.5" x2="74" y2="-0.5" transform="translate(754 15) rotate(90)" stroke="url(#paint11_linear)"/>
<path d="M4.63867 15.0234H0.859375V12.8848H4.63867V9.07617H6.77734V12.8848H10.5566V15.0234H6.77734V18.7832H4.63867V15.0234ZM22.5293 18.041H20.8105V21H17.8613V18.041H11.7676V15.9414L18.0273 6.72266H20.8105V15.6973H22.5293V18.041ZM17.8613 15.6973V13.2754C17.8613 12.8717 17.8776 12.2858 17.9102 11.5176C17.9427 10.7493 17.9688 10.3034 17.9883 10.1797H17.9102C17.6693 10.7135 17.3796 11.2344 17.041 11.7422L14.4238 15.6973H17.8613ZM33.0664 21.1953C31.7839 21.1953 30.7747 20.6973 30.0391 19.7012C29.3099 18.7051 28.9453 17.3249 28.9453 15.5605C28.9453 13.7702 29.3164 12.377 30.0586 11.3809C30.8073 10.3783 31.8359 9.87695 33.1445 9.87695C34.5182 9.87695 35.5664 10.4108 36.2891 11.4785H36.3867C36.237 10.6647 36.1621 9.9388 36.1621 9.30078V5.80469H39.1504V21H36.8652L36.2891 19.584H36.1621C35.485 20.6582 34.4531 21.1953 33.0664 21.1953ZM34.1113 18.8223C34.873 18.8223 35.4297 18.6009 35.7812 18.1582C36.1393 17.7155 36.3346 16.9635 36.3672 15.9023V15.5801C36.3672 14.4082 36.1849 13.5684 35.8203 13.0605C35.4622 12.5527 34.8763 12.2988 34.0625 12.2988C33.3984 12.2988 32.8809 12.582 32.5098 13.1484C32.1452 13.7083 31.9629 14.5254 31.9629 15.5996C31.9629 16.6738 32.1484 17.4811 32.5195 18.0215C32.8906 18.5553 33.4212 18.8223 34.1113 18.8223ZM49.1992 21L48.623 19.5156H48.5449C48.0436 20.1471 47.526 20.5866 46.9922 20.834C46.4648 21.0749 45.7747 21.1953 44.9219 21.1953C43.8737 21.1953 43.0469 20.8958 42.4414 20.2969C41.8424 19.6979 41.543 18.8451 41.543 17.7383C41.543 16.5794 41.9466 15.7266 42.7539 15.1797C43.5677 14.6263 44.7917 14.3203 46.4258 14.2617L48.3203 14.2031V13.7246C48.3203 12.6178 47.7539 12.0645 46.6211 12.0645C45.7487 12.0645 44.7233 12.3281 43.5449 12.8555L42.5586 10.8438C43.8151 10.1862 45.2083 9.85742 46.7383 9.85742C48.2031 9.85742 49.3262 10.1764 50.1074 10.8145C50.8887 11.4525 51.2793 12.4225 51.2793 13.7246V21H49.1992ZM48.3203 15.9414L47.168 15.9805C46.3021 16.0065 45.6576 16.1628 45.2344 16.4492C44.8112 16.7357 44.5996 17.1719 44.5996 17.7578C44.5996 18.5977 45.0814 19.0176 46.0449 19.0176C46.735 19.0176 47.2852 18.819 47.6953 18.4219C48.112 18.0247 48.3203 17.4974 48.3203 16.8398V15.9414ZM52.793 10.082H56.0547L58.1152 16.2246C58.291 16.7585 58.4115 17.39 58.4766 18.1191H58.5352C58.6068 17.4486 58.7467 16.8171 58.9551 16.2246L60.9766 10.082H64.1699L59.5508 22.3965C59.1276 23.5358 58.5221 24.3887 57.7344 24.9551C56.9531 25.5215 56.0384 25.8047 54.9902 25.8047C54.4759 25.8047 53.9714 25.7493 53.4766 25.6387V23.2754C53.8346 23.36 54.2253 23.4023 54.6484 23.4023C55.1758 23.4023 55.6348 23.2396 56.0254 22.9141C56.4225 22.5951 56.7318 22.11 56.9531 21.459L57.1289 20.9219L52.793 10.082ZM73.3594 17.7578C73.3594 18.8776 72.9688 19.7305 72.1875 20.3164C71.4128 20.9023 70.2507 21.1953 68.7012 21.1953C67.9069 21.1953 67.2298 21.14 66.6699 21.0293C66.11 20.9251 65.5859 20.7689 65.0977 20.5605V18.0996C65.651 18.36 66.2728 18.5781 66.9629 18.7539C67.6595 18.9297 68.2715 19.0176 68.7988 19.0176C69.8796 19.0176 70.4199 18.7051 70.4199 18.0801C70.4199 17.8457 70.3483 17.6569 70.2051 17.5137C70.0618 17.3639 69.8145 17.1979 69.4629 17.0156C69.1113 16.8268 68.6426 16.6087 68.0566 16.3613C67.2168 16.0098 66.5983 15.6842 66.2012 15.3848C65.8105 15.0853 65.5241 14.7435 65.3418 14.3594C65.166 13.9688 65.0781 13.4902 65.0781 12.9238C65.0781 11.9538 65.4525 11.2051 66.2012 10.6777C66.9564 10.1439 68.0241 9.87695 69.4043 9.87695C70.7194 9.87695 71.9987 10.1634 73.2422 10.7363L72.3438 12.8848C71.7969 12.6504 71.2858 12.4583 70.8105 12.3086C70.3353 12.1589 69.8503 12.084 69.3555 12.084C68.4766 12.084 68.0371 12.3216 68.0371 12.7969C68.0371 13.0638 68.1771 13.2949 68.457 13.4902C68.7435 13.6855 69.3652 13.9753 70.3223 14.3594C71.1751 14.7044 71.8001 15.0267 72.1973 15.3262C72.5944 15.6257 72.8874 15.9707 73.0762 16.3613C73.265 16.752 73.3594 17.2174 73.3594 17.7578Z" transform="translate(602 28)" fill="white"/>
<path d="M5.29541 34.2031H3.31787V41H1.58936V34.2031H0.256348V33.3975L1.58936 32.8701V32.3428C1.58936 31.3857 1.81396 30.6777 2.26318 30.2188C2.7124 29.7549 3.39844 29.5229 4.32129 29.5229C4.92676 29.5229 5.52246 29.623 6.1084 29.8232L5.6543 31.127C5.22949 30.9902 4.82422 30.9219 4.43848 30.9219C4.04785 30.9219 3.76221 31.0439 3.58154 31.2881C3.40576 31.5273 3.31787 31.8887 3.31787 32.3721V32.8994H5.29541V34.2031ZM13.8647 36.9351C13.8647 38.2583 13.5254 39.291 12.8467 40.0332C12.168 40.7754 11.2231 41.1465 10.0122 41.1465C9.25537 41.1465 8.58643 40.9756 8.00537 40.6338C7.42432 40.292 6.97754 39.8013 6.66504 39.1616C6.35254 38.522 6.19629 37.7798 6.19629 36.9351C6.19629 35.6216 6.5332 34.5962 7.20703 33.8589C7.88086 33.1216 8.83057 32.7529 10.0562 32.7529C11.228 32.7529 12.1558 33.1313 12.8394 33.8882C13.5229 34.6401 13.8647 35.6558 13.8647 36.9351ZM7.96875 36.9351C7.96875 38.8052 8.65967 39.7402 10.0415 39.7402C11.4087 39.7402 12.0923 38.8052 12.0923 36.9351C12.0923 35.0845 11.4038 34.1592 10.0269 34.1592C9.3042 34.1592 8.7793 34.3984 8.45215 34.877C8.12988 35.3555 7.96875 36.0415 7.96875 36.9351ZM19.9585 32.7529C20.3052 32.7529 20.5908 32.7773 20.8154 32.8262L20.647 34.4302C20.4028 34.3716 20.1489 34.3423 19.8853 34.3423C19.1968 34.3423 18.6377 34.5669 18.208 35.0161C17.7832 35.4653 17.5708 36.0488 17.5708 36.7666V41H15.8496V32.8994H17.1973L17.4243 34.3276H17.5122C17.7808 33.8442 18.1299 33.4609 18.5596 33.1777C18.9941 32.8945 19.4604 32.7529 19.9585 32.7529ZM31.6626 38.6929C31.6626 39.4839 31.3745 40.0918 30.7983 40.5166C30.2222 40.9365 29.397 41.1465 28.3228 41.1465C27.2437 41.1465 26.377 40.9829 25.7227 40.6558V39.1689C26.6748 39.6084 27.561 39.8281 28.3813 39.8281C29.4409 39.8281 29.9707 39.5083 29.9707 38.8687C29.9707 38.6636 29.9121 38.4927 29.7949 38.356C29.6777 38.2192 29.4849 38.0776 29.2163 37.9312C28.9478 37.7847 28.5742 37.6187 28.0957 37.4331C27.1631 37.0718 26.5308 36.7104 26.1987 36.3491C25.8716 35.9878 25.708 35.519 25.708 34.9429C25.708 34.2495 25.9863 33.7124 26.543 33.3315C27.1045 32.9458 27.8662 32.7529 28.8281 32.7529C29.7803 32.7529 30.6812 32.9458 31.5308 33.3315L30.9741 34.6279C30.1001 34.2666 29.3652 34.0859 28.7695 34.0859C27.8613 34.0859 27.4072 34.3447 27.4072 34.8623C27.4072 35.1162 27.5244 35.3311 27.7588 35.5068C27.998 35.6826 28.5156 35.9243 29.3115 36.2319C29.9805 36.4907 30.4663 36.7275 30.769 36.9424C31.0718 37.1572 31.2964 37.4062 31.4429 37.6895C31.5894 37.9678 31.6626 38.3022 31.6626 38.6929ZM32.2998 32.8994H34.1748L35.8228 37.4917C36.0718 38.146 36.2378 38.7612 36.3208 39.3374H36.3794C36.4233 39.0688 36.5039 38.7441 36.6211 38.3633C36.7383 37.9775 37.3584 36.1562 38.4814 32.8994H40.3418L36.8774 42.0767C36.2476 43.7612 35.1978 44.6035 33.728 44.6035C33.3472 44.6035 32.9761 44.562 32.6147 44.479V43.1167C32.8735 43.1753 33.1689 43.2046 33.501 43.2046C34.3311 43.2046 34.9146 42.7236 35.2515 41.7617L35.5518 41L32.2998 32.8994ZM47.0142 38.6929C47.0142 39.4839 46.7261 40.0918 46.1499 40.5166C45.5737 40.9365 44.7485 41.1465 43.6743 41.1465C42.5952 41.1465 41.7285 40.9829 41.0742 40.6558V39.1689C42.0264 39.6084 42.9126 39.8281 43.7329 39.8281C44.7925 39.8281 45.3223 39.5083 45.3223 38.8687C45.3223 38.6636 45.2637 38.4927 45.1465 38.356C45.0293 38.2192 44.8364 38.0776 44.5679 37.9312C44.2993 37.7847 43.9258 37.6187 43.4473 37.4331C42.5146 37.0718 41.8823 36.7104 41.5503 36.3491C41.2231 35.9878 41.0596 35.519 41.0596 34.9429C41.0596 34.2495 41.3379 33.7124 41.8945 33.3315C42.4561 32.9458 43.2178 32.7529 44.1797 32.7529C45.1318 32.7529 46.0327 32.9458 46.8823 33.3315L46.3257 34.6279C45.4517 34.2666 44.7168 34.0859 44.1211 34.0859C43.2129 34.0859 42.7588 34.3447 42.7588 34.8623C42.7588 35.1162 42.876 35.3311 43.1104 35.5068C43.3496 35.6826 43.8672 35.9243 44.6631 36.2319C45.332 36.4907 45.8179 36.7275 46.1206 36.9424C46.4233 37.1572 46.6479 37.4062 46.7944 37.6895C46.9409 37.9678 47.0142 38.3022 47.0142 38.6929ZM51.8994 39.7549C52.3193 39.7549 52.7393 39.689 53.1592 39.5571V40.8535C52.9688 40.9365 52.7222 41.0049 52.4194 41.0586C52.1216 41.1172 51.8115 41.1465 51.4893 41.1465C49.8584 41.1465 49.043 40.2871 49.043 38.5684V34.2031H47.937V33.4414L49.1235 32.8115L49.7095 31.0977H50.7715V32.8994H53.0786V34.2031H50.7715V38.5391C50.7715 38.9541 50.874 39.2617 51.0791 39.4619C51.2891 39.6572 51.5625 39.7549 51.8994 39.7549ZM58.3228 41.1465C57.063 41.1465 56.0767 40.7803 55.3638 40.0479C54.6558 39.3105 54.3018 38.2974 54.3018 37.0083C54.3018 35.6851 54.6313 34.645 55.2905 33.8882C55.9497 33.1313 56.8555 32.7529 58.0078 32.7529C59.0771 32.7529 59.9219 33.0776 60.542 33.7271C61.1621 34.3765 61.4722 35.27 61.4722 36.4077V37.3379H56.0742C56.0986 38.124 56.311 38.7295 56.7114 39.1543C57.1118 39.5742 57.6758 39.7842 58.4033 39.7842C58.8818 39.7842 59.3262 39.7402 59.7363 39.6523C60.1514 39.5596 60.5957 39.4082 61.0693 39.1982V40.5972C60.6494 40.7974 60.2246 40.939 59.7949 41.022C59.3652 41.105 58.8745 41.1465 58.3228 41.1465ZM58.0078 34.0566C57.4609 34.0566 57.0215 34.23 56.6895 34.5767C56.3623 34.9233 56.167 35.4287 56.1035 36.0928H59.7803C59.7705 35.4238 59.6094 34.9185 59.2969 34.5767C58.9844 34.23 58.5547 34.0566 58.0078 34.0566ZM70.2539 41H68.5254V36.0049C68.5254 35.3848 68.4082 34.9233 68.1738 34.6206C67.9395 34.313 67.5732 34.1592 67.0752 34.1592C66.4111 34.1592 65.9229 34.3765 65.6104 34.811C65.3027 35.2407 65.1489 35.9585 65.1489 36.9644V41H63.4277V32.8994H64.7754L65.0171 33.9614H65.105C65.3296 33.5757 65.6543 33.2778 66.0791 33.0679C66.5088 32.8579 66.98 32.7529 67.4927 32.7529C68.7378 32.7529 69.563 33.1777 69.9683 34.0273H70.0854C70.3247 33.627 70.6616 33.3145 71.0962 33.0898C71.5308 32.8652 72.0288 32.7529 72.5903 32.7529C73.5571 32.7529 74.2603 32.9971 74.6997 33.4854C75.144 33.9736 75.3662 34.7183 75.3662 35.7192V41H73.645V36.0049C73.645 35.3848 73.5254 34.9233 73.2861 34.6206C73.0518 34.313 72.6855 34.1592 72.1875 34.1592C71.5186 34.1592 71.0278 34.3691 70.7153 34.7891C70.4077 35.2041 70.2539 35.8438 70.2539 36.708V41ZM83.3862 41H81.665V32.8994H83.3862V41ZM81.5625 30.7534C81.5625 30.4458 81.6455 30.209 81.8115 30.043C81.9824 29.877 82.2241 29.7939 82.5366 29.7939C82.8394 29.7939 83.0737 29.877 83.2397 30.043C83.4106 30.209 83.4961 30.4458 83.4961 30.7534C83.4961 31.0464 83.4106 31.2783 83.2397 31.4492C83.0737 31.6152 82.8394 31.6982 82.5366 31.6982C82.2241 31.6982 81.9824 31.6152 81.8115 31.4492C81.6455 31.2783 81.5625 31.0464 81.5625 30.7534ZM92.981 41H91.2524V36.0195C91.2524 35.3945 91.1255 34.9282 90.8716 34.6206C90.6226 34.313 90.2246 34.1592 89.6777 34.1592C88.9502 34.1592 88.418 34.374 88.0811 34.8037C87.7441 35.2334 87.5757 35.9536 87.5757 36.9644V41H85.8545V32.8994H87.2021L87.4438 33.9614H87.5317C87.7759 33.5757 88.1226 33.2778 88.5718 33.0679C89.021 32.8579 89.519 32.7529 90.0659 32.7529C92.0093 32.7529 92.981 33.7417 92.981 35.7192V41ZM98.3936 39.7549C98.8135 39.7549 99.2334 39.689 99.6533 39.5571V40.8535C99.4629 40.9365 99.2163 41.0049 98.9136 41.0586C98.6157 41.1172 98.3057 41.1465 97.9834 41.1465C96.3525 41.1465 95.5371 40.2871 95.5371 38.5684V34.2031H94.4312V33.4414L95.6177 32.8115L96.2036 31.0977H97.2656V32.8994H99.5728V34.2031H97.2656V38.5391C97.2656 38.9541 97.3682 39.2617 97.5732 39.4619C97.7832 39.6572 98.0566 39.7549 98.3936 39.7549ZM104.817 41.1465C103.557 41.1465 102.571 40.7803 101.858 40.0479C101.15 39.3105 100.796 38.2974 100.796 37.0083C100.796 35.6851 101.125 34.645 101.785 33.8882C102.444 33.1313 103.35 32.7529 104.502 32.7529C105.571 32.7529 106.416 33.0776 107.036 33.7271C107.656 34.3765 107.966 35.27 107.966 36.4077V37.3379H102.568C102.593 38.124 102.805 38.7295 103.206 39.1543C103.606 39.5742 104.17 39.7842 104.897 39.7842C105.376 39.7842 105.82 39.7402 106.23 39.6523C106.646 39.5596 107.09 39.4082 107.563 39.1982V40.5972C107.144 40.7974 106.719 40.939 106.289 41.022C105.859 41.105 105.369 41.1465 104.817 41.1465ZM104.502 34.0566C103.955 34.0566 103.516 34.23 103.184 34.5767C102.856 34.9233 102.661 35.4287 102.598 36.0928H106.274C106.265 35.4238 106.104 34.9185 105.791 34.5767C105.479 34.23 105.049 34.0566 104.502 34.0566ZM116.763 32.8994V33.8442L115.378 34.1006C115.505 34.2715 115.61 34.4814 115.693 34.7305C115.776 34.9795 115.818 35.2432 115.818 35.5215C115.818 36.3564 115.53 37.0132 114.954 37.4917C114.377 37.9702 113.584 38.2095 112.573 38.2095C112.314 38.2095 112.08 38.1899 111.87 38.1509C111.499 38.3804 111.313 38.6489 111.313 38.9565C111.313 39.1421 111.399 39.2812 111.57 39.374C111.746 39.4668 112.065 39.5132 112.529 39.5132H113.943C114.836 39.5132 115.515 39.7036 115.979 40.0845C116.443 40.4653 116.675 41.0146 116.675 41.7324C116.675 42.6504 116.296 43.3584 115.54 43.8564C114.783 44.3545 113.689 44.6035 112.258 44.6035C111.155 44.6035 110.312 44.4082 109.731 44.0176C109.15 43.627 108.86 43.0703 108.86 42.3477C108.86 41.8496 109.016 41.4297 109.329 41.0879C109.646 40.751 110.088 40.5166 110.654 40.3848C110.425 40.2871 110.234 40.1309 110.083 39.916C109.937 39.6963 109.863 39.4668 109.863 39.2275C109.863 38.9248 109.949 38.6685 110.12 38.4585C110.291 38.2485 110.544 38.041 110.881 37.8359C110.461 37.6553 110.12 37.3623 109.856 36.957C109.597 36.5469 109.468 36.0684 109.468 35.5215C109.468 34.6426 109.744 33.9614 110.295 33.478C110.852 32.9946 111.643 32.7529 112.668 32.7529C112.898 32.7529 113.137 32.77 113.386 32.8042C113.64 32.8335 113.831 32.8652 113.958 32.8994H116.763ZM110.398 42.2598C110.398 42.6309 110.564 42.9165 110.896 43.1167C111.233 43.3169 111.704 43.417 112.31 43.417C113.247 43.417 113.945 43.2827 114.404 43.0142C114.863 42.7456 115.093 42.3892 115.093 41.9448C115.093 41.5933 114.966 41.3418 114.712 41.1904C114.463 41.0439 113.997 40.9707 113.313 40.9707H112.009C111.516 40.9707 111.123 41.0854 110.83 41.3149C110.542 41.5493 110.398 41.8643 110.398 42.2598ZM111.138 35.5215C111.138 36.0293 111.267 36.4199 111.526 36.6934C111.79 36.9668 112.166 37.1035 112.654 37.1035C113.65 37.1035 114.148 36.5713 114.148 35.5068C114.148 34.9795 114.023 34.5742 113.774 34.291C113.53 34.0029 113.157 33.8589 112.654 33.8589C112.156 33.8589 111.777 34.0005 111.519 34.2837C111.265 34.5669 111.138 34.9795 111.138 35.5215ZM122.38 32.7529C122.727 32.7529 123.013 32.7773 123.237 32.8262L123.069 34.4302C122.825 34.3716 122.571 34.3423 122.307 34.3423C121.619 34.3423 121.06 34.5669 120.63 35.0161C120.205 35.4653 119.993 36.0488 119.993 36.7666V41H118.271V32.8994H119.619L119.846 34.3276H119.934C120.203 33.8442 120.552 33.4609 120.981 33.1777C121.416 32.8945 121.882 32.7529 122.38 32.7529ZM129.814 41L129.47 39.8721H129.412C129.021 40.3652 128.628 40.7021 128.232 40.8828C127.837 41.0586 127.329 41.1465 126.709 41.1465C125.913 41.1465 125.291 40.9316 124.841 40.502C124.397 40.0723 124.175 39.4644 124.175 38.6782C124.175 37.8433 124.485 37.2134 125.105 36.7886C125.725 36.3638 126.67 36.1318 127.939 36.0928L129.338 36.0488V35.6167C129.338 35.0991 129.216 34.7134 128.972 34.4595C128.733 34.2007 128.359 34.0713 127.852 34.0713C127.437 34.0713 127.039 34.1323 126.658 34.2544C126.277 34.3765 125.911 34.5205 125.559 34.6865L125.002 33.4561C125.442 33.2266 125.923 33.0532 126.445 32.936C126.968 32.814 127.461 32.7529 127.925 32.7529C128.955 32.7529 129.731 32.9775 130.254 33.4268C130.781 33.876 131.045 34.5815 131.045 35.5435V41H129.814ZM127.251 39.8281C127.876 39.8281 128.376 39.6548 128.752 39.3081C129.133 38.9565 129.324 38.4658 129.324 37.8359V37.1328L128.284 37.1768C127.473 37.2061 126.882 37.3428 126.511 37.5869C126.145 37.8262 125.962 38.1948 125.962 38.6929C125.962 39.0542 126.069 39.335 126.284 39.5352C126.499 39.7305 126.821 39.8281 127.251 39.8281ZM136.465 39.7549C136.885 39.7549 137.305 39.689 137.725 39.5571V40.8535C137.534 40.9365 137.288 41.0049 136.985 41.0586C136.687 41.1172 136.377 41.1465 136.055 41.1465C134.424 41.1465 133.608 40.2871 133.608 38.5684V34.2031H132.502V33.4414L133.689 32.8115L134.275 31.0977H135.337V32.8994H137.644V34.2031H135.337V38.5391C135.337 38.9541 135.439 39.2617 135.645 39.4619C135.854 39.6572 136.128 39.7549 136.465 39.7549ZM141.072 41H139.351V32.8994H141.072V41ZM139.248 30.7534C139.248 30.4458 139.331 30.209 139.497 30.043C139.668 29.877 139.91 29.7939 140.222 29.7939C140.525 29.7939 140.759 29.877 140.925 30.043C141.096 30.209 141.182 30.4458 141.182 30.7534C141.182 31.0464 141.096 31.2783 140.925 31.4492C140.759 31.6152 140.525 31.6982 140.222 31.6982C139.91 31.6982 139.668 31.6152 139.497 31.4492C139.331 31.2783 139.248 31.0464 139.248 30.7534ZM150.725 36.9351C150.725 38.2583 150.386 39.291 149.707 40.0332C149.028 40.7754 148.083 41.1465 146.873 41.1465C146.116 41.1465 145.447 40.9756 144.866 40.6338C144.285 40.292 143.838 39.8013 143.525 39.1616C143.213 38.522 143.057 37.7798 143.057 36.9351C143.057 35.6216 143.394 34.5962 144.067 33.8589C144.741 33.1216 145.691 32.7529 146.917 32.7529C148.088 32.7529 149.016 33.1313 149.7 33.8882C150.383 34.6401 150.725 35.6558 150.725 36.9351ZM144.829 36.9351C144.829 38.8052 145.52 39.7402 146.902 39.7402C148.269 39.7402 148.953 38.8052 148.953 36.9351C148.953 35.0845 148.264 34.1592 146.887 34.1592C146.165 34.1592 145.64 34.3984 145.312 34.877C144.99 35.3555 144.829 36.0415 144.829 36.9351ZM159.836 41H158.108V36.0195C158.108 35.3945 157.981 34.9282 157.727 34.6206C157.478 34.313 157.08 34.1592 156.533 34.1592C155.806 34.1592 155.273 34.374 154.937 34.8037C154.6 35.2334 154.431 35.9536 154.431 36.9644V41H152.71V32.8994H154.058L154.299 33.9614H154.387C154.631 33.5757 154.978 33.2778 155.427 33.0679C155.876 32.8579 156.375 32.7529 156.921 32.7529C158.865 32.7529 159.836 33.7417 159.836 35.7192V41Z" transform="translate(602 28)" fill="#CCD5FF"/>
<defs>
<filter id="filter0_d" x="1.33514e-05" y="0" width="832" height="134" filterUnits="userSpaceOnUse" color-interpolation-filters="sRGB">
<feFlood flood-opacity="0" result="BackgroundImageFix"/>
<feColorMatrix in="SourceAlpha" type="matrix" values="0 0 0 0 0 0 0 0 0 0 0 0 0 0 0 0 0 0 255 0"/>
<feOffset dy="10"/>
<feGaussianBlur stdDeviation="20"/>
<feColorMatrix type="matrix" values="0 0 0 0 0.0351517 0 0 0 0 0 0 0 0 0 0.268559 0 0 0 0.3 0"/>
<feBlend mode="normal" in2="BackgroundImageFix" result="effect1_dropShadow"/>
<feBlend mode="normal" in="SourceGraphic" in2="effect1_dropShadow" result="shape"/>
</filter>
<linearGradient id="paint0_linear" x2="1" gradientUnits="userSpaceOnUse" gradientTransform="translate(0.000119638 -2737) scale(74 5476)">
<stop stop-color="#25375D"/>
<stop offset="1" stop-color="#122244"/>
</linearGradient>
<linearGradient id="paint1_linear" x2="1" gradientUnits="userSpaceOnUse" gradientTransform="translate(0.000119638 -2737) scale(74 5476)">
<stop stop-color="#25375D"/>
<stop offset="1" stop-color="#122244"/>
</linearGradient>
<linearGradient id="paint2_linear" x2="1" gradientUnits="userSpaceOnUse" gradientTransform="translate(0.000119638 -2737) scale(74 5476)">
<stop stop-color="#25375D"/>
<stop offset="1" stop-color="#122244"/>
</linearGradient>
<linearGradient id="paint3_linear" x2="1" gradientUnits="userSpaceOnUse" gradientTransform="translate(0.000119638 -2737) scale(74 5476)">
<stop stop-color="#25375D"/>
<stop offset="1" stop-color="#122244"/>
</linearGradient>
<linearGradient id="paint4_linear" x2="1" gradientUnits="userSpaceOnUse" gradientTransform="translate(0.000119638 -2737) scale(74 5476)">
<stop stop-color="#25375D"/>
<stop offset="1" stop-color="#122244"/>
</linearGradient>
<linearGradient id="paint5_linear" x2="1" gradientUnits="userSpaceOnUse" gradientTransform="translate(0.000119638 -2737) scale(74 5476)">
<stop stop-color="#25375D"/>
<stop offset="1" stop-color="#122244"/>
</linearGradient>
<linearGradient id="paint6_linear" x2="1" gradientUnits="userSpaceOnUse" gradientTransform="translate(0.000119638 -2737) scale(74 5476)">
<stop stop-color="#25375D"/>
<stop offset="1" stop-color="#122244"/>
</linearGradient>
<linearGradient id="paint7_linear" x2="1" gradientUnits="userSpaceOnUse" gradientTransform="translate(0.000119638 -2737) scale(74 5476)">
<stop stop-color="#25375D"/>
<stop offset="1" stop-color="#122244"/>
</linearGradient>
<linearGradient id="paint8_linear" x2="1" gradientUnits="userSpaceOnUse" gradientTransform="translate(0.000119638 -2737) scale(74 5476)">
<stop stop-color="#25375D"/>
<stop offset="1" stop-color="#122244"/>
</linearGradient>
<linearGradient id="paint9_linear" x2="1" gradientUnits="userSpaceOnUse" gradientTransform="translate(0.000119638 -2737) scale(74 5476)">
<stop stop-color="#5743DA"/>
<stop offset="1" stop-color="#422BD7"/>
</linearGradient>
<linearGradient id="paint10_linear" x2="1" gradientUnits="userSpaceOnUse" gradientTransform="translate(0.000119638 -2737) scale(74 5476)">
<stop stop-color="#5743DA"/>
<stop offset="1" stop-color="#422BD7"/>
</linearGradient>
<linearGradient id="paint11_linear" x2="1" gradientUnits="userSpaceOnUse" gradientTransform="translate(0.000119638 -2737) scale(74 5476)">
<stop stop-color="#5743DA"/>
<stop offset="1" stop-color="#422BD7"/>
</linearGradient>
</defs>
</svg>
