<svg width="832" height="150" viewBox="0 0 832 150" fill="none" xmlns="http://www.w3.org/2000/svg">
<g filter="url(#filter0_d)">
<path d="M0 10C0 4.47715 4.47715 0 10 0H742C747.523 0 752 4.47715 752 10V44C752 49.5228 747.523 54 742 54H9.99999C4.47714 54 0 49.5228 0 44V10Z" transform="translate(40 30)" fill="#5940FF"/>
</g>
<path fill-rule="evenodd" clip-rule="evenodd" d="M5 1H787C789.209 1 791 2.79077 791 5V123C791 125.209 789.209 127 787 127H500V128H787C789.761 128 792 125.761 792 123V5C792 2.23853 789.761 0 787 0H5C2.23858 0 0 2.23853 0 5V123C0 125.761 2.23859 128 5.00001 128H293V127H5.00001C2.79087 127 1 125.209 1 123V5C1 2.79077 2.79086 1 5 1Z" transform="translate(20 15)" fill="#CFDAE8"/>
<path d="M0 5C0 2.23858 2.23858 0 5 0H568V74H0V5Z" transform="translate(20 15)" fill="#122244"/>
<line y1="-0.5" x2="74" y2="-0.5" transform="translate(76 15) rotate(90)" stroke="url(#paint0_linear)"/>
<line y1="-0.5" x2="74" y2="-0.5" transform="translate(132 15) rotate(90)" stroke="url(#paint1_linear)"/>
<line y1="-0.5" x2="74" y2="-0.5" transform="translate(188 15) rotate(90)" stroke="url(#paint2_linear)"/>
<line y1="-0.5" x2="74" y2="-0.5" transform="translate(244 15) rotate(90)" stroke="url(#paint3_linear)"/>
<line y1="-0.5" x2="74" y2="-0.5" transform="translate(300 15) rotate(90)" stroke="url(#paint4_linear)"/>
<line y1="-0.5" x2="74" y2="-0.5" transform="translate(356 15) rotate(90)" stroke="url(#paint5_linear)"/>
<line y1="-0.5" x2="74" y2="-0.5" transform="translate(412 15) rotate(90)" stroke="url(#paint6_linear)"/>
<line y1="-0.5" x2="74" y2="-0.5" transform="translate(468 15) rotate(90)" stroke="url(#paint7_linear)"/>
<line y1="-0.5" x2="74" y2="-0.5" transform="translate(524 15) rotate(90)" stroke="url(#paint8_linear)"/>
<path d="M8.26172 21H5.24414V12.7383L5.27344 11.3809L5.32227 9.89648C4.82096 10.3978 4.47266 10.7266 4.27734 10.8828L2.63672 12.2012L1.18164 10.3848L5.78125 6.72266H8.26172V21ZM22.1289 13.8613C22.1289 16.3548 21.7188 18.2005 20.8984 19.3984C20.0846 20.5964 18.8281 21.1953 17.1289 21.1953C15.4818 21.1953 14.2383 20.5768 13.3984 19.3398C12.5651 18.1029 12.1484 16.2767 12.1484 13.8613C12.1484 11.3418 12.5553 9.48633 13.3691 8.29492C14.1829 7.09701 15.4362 6.49805 17.1289 6.49805C18.776 6.49805 20.0195 7.12305 20.8594 8.37305C21.7057 9.62305 22.1289 11.4525 22.1289 13.8613ZM15.1465 13.8613C15.1465 15.6126 15.2962 16.8691 15.5957 17.6309C15.9017 18.3861 16.4128 18.7637 17.1289 18.7637C17.832 18.7637 18.3398 18.3796 18.6523 17.6113C18.9648 16.8431 19.1211 15.5931 19.1211 13.8613C19.1211 12.11 18.9616 10.8535 18.6426 10.0918C18.3301 9.32357 17.8255 8.93945 17.1289 8.93945C16.4193 8.93945 15.9115 9.32357 15.6055 10.0918C15.2995 10.8535 15.1465 12.11 15.1465 13.8613ZM36.4453 18.8223V12.3184H34.209C34.0462 13.5293 33.8216 14.6784 33.5352 15.7656C33.2552 16.8529 32.8646 17.8717 32.3633 18.8223H36.4453ZM41.0254 24.916H38.3496V21H31.0059V24.916H28.3301V18.8223H29.248C29.873 17.8522 30.3971 16.6283 30.8203 15.1504C31.2435 13.6725 31.5397 11.9831 31.709 10.082H39.4238V18.8223H41.0254V24.916ZM45.8691 10.082V14.2812H50.0293V10.082H53.0078V21H50.0293V16.498H45.8691V21H42.8906V10.082H45.8691ZM60.6543 11.9961C60.0228 11.9961 59.528 12.1979 59.1699 12.6016C58.8118 12.9987 58.6068 13.5651 58.5547 14.3008H62.7344C62.7214 13.5651 62.5293 12.9987 62.1582 12.6016C61.7871 12.1979 61.2858 11.9961 60.6543 11.9961ZM61.0742 21.1953C59.3164 21.1953 57.9427 20.7103 56.9531 19.7402C55.9635 18.7702 55.4688 17.3965 55.4688 15.6191C55.4688 13.7897 55.9245 12.377 56.8359 11.3809C57.7539 10.3783 59.0202 9.87695 60.6348 9.87695C62.1777 9.87695 63.3789 10.3164 64.2383 11.1953C65.0977 12.0742 65.5273 13.2884 65.5273 14.8379V16.2832H58.4863C58.5189 17.1296 58.7695 17.7904 59.2383 18.2656C59.707 18.7409 60.3646 18.9785 61.2109 18.9785C61.8685 18.9785 62.4902 18.9102 63.0762 18.7734C63.6621 18.6367 64.2741 18.4186 64.9121 18.1191V20.4238C64.3913 20.6842 63.8346 20.8763 63.2422 21C62.6497 21.1302 61.9271 21.1953 61.0742 21.1953ZM70.8301 10.082V14.3984C70.8301 14.8542 70.7552 15.9674 70.6055 17.7383L75.6445 10.082H79.2285V21H76.3477V16.6445C76.3477 15.8698 76.4128 14.776 76.543 13.3633L71.5234 21H67.9492V10.082H70.8301ZM78.3496 5.38477C78.2259 6.60221 77.7669 7.49089 76.9727 8.05078C76.1784 8.60417 75.0326 8.88086 73.5352 8.88086C71.9922 8.88086 70.8496 8.61393 70.1074 8.08008C69.3717 7.54622 68.9583 6.64779 68.8672 5.38477H71.5332C71.5788 6.05534 71.7448 6.52734 72.0312 6.80078C72.3242 7.06771 72.8451 7.20117 73.5938 7.20117C74.2513 7.20117 74.7396 7.05469 75.0586 6.76172C75.3841 6.46224 75.5827 6.00326 75.6543 5.38477H78.3496Z" transform="translate(44 28)" fill="white"/>
<path d="M2.95166 32.8994V36.1514H6.76758V32.8994H8.48877V41H6.76758V37.5063H2.95166V41H1.23047V32.8994H2.95166ZM16.0254 41L15.6812 39.8721H15.6226C15.2319 40.3652 14.8389 40.7021 14.4434 40.8828C14.0479 41.0586 13.54 41.1465 12.9199 41.1465C12.124 41.1465 11.5015 40.9316 11.0522 40.502C10.6079 40.0723 10.3857 39.4644 10.3857 38.6782C10.3857 37.8433 10.6958 37.2134 11.3159 36.7886C11.936 36.3638 12.8809 36.1318 14.1504 36.0928L15.5493 36.0488V35.6167C15.5493 35.0991 15.4272 34.7134 15.1831 34.4595C14.9438 34.2007 14.5703 34.0713 14.0625 34.0713C13.6475 34.0713 13.2495 34.1323 12.8687 34.2544C12.4878 34.3765 12.1216 34.5205 11.77 34.6865L11.2134 33.4561C11.6528 33.2266 12.1338 33.0532 12.6562 32.936C13.1787 32.814 13.6719 32.7529 14.1357 32.7529C15.166 32.7529 15.9424 32.9775 16.4648 33.4268C16.9922 33.876 17.2559 34.5815 17.2559 35.5435V41H16.0254ZM13.4619 39.8281C14.0869 39.8281 14.5874 39.6548 14.9634 39.3081C15.3442 38.9565 15.5347 38.4658 15.5347 37.8359V37.1328L14.4946 37.1768C13.6841 37.2061 13.0933 37.3428 12.7222 37.5869C12.356 37.8262 12.1729 38.1948 12.1729 38.6929C12.1729 39.0542 12.2803 39.335 12.4951 39.5352C12.71 39.7305 13.0322 39.8281 13.4619 39.8281ZM25.3418 36.1367C26.1279 36.1367 26.7065 36.0513 27.0776 35.8804C27.4487 35.7046 27.6343 35.436 27.6343 35.0747C27.6343 34.4155 27.0483 34.0859 25.8765 34.0859C25.0952 34.0859 24.2969 34.2617 23.4814 34.6133L22.9248 33.3315C23.8672 32.9458 24.9072 32.7529 26.0449 32.7529C27.0508 32.7529 27.832 32.9385 28.3887 33.3096C28.9453 33.6758 29.2236 34.2031 29.2236 34.8916C29.2236 35.7998 28.7036 36.3955 27.6636 36.6787V36.7373C28.313 36.9131 28.7769 37.1646 29.0552 37.4917C29.3384 37.8188 29.48 38.2241 29.48 38.7075C29.48 39.4497 29.1528 40.043 28.4985 40.4873C27.8491 40.9268 26.9409 41.1465 25.7739 41.1465C24.4995 41.1465 23.5254 40.978 22.8516 40.6411V39.1543C23.7451 39.5742 24.6704 39.7842 25.6274 39.7842C26.3159 39.7842 26.8457 39.689 27.2168 39.4985C27.5928 39.3032 27.7808 39.0078 27.7808 38.6123C27.7808 38.207 27.5928 37.9092 27.2168 37.7188C26.8408 37.5283 26.2598 37.4331 25.4736 37.4331H24.4849V36.1367H25.3418ZM36.416 41L36.0718 39.8721H36.0132C35.6226 40.3652 35.2295 40.7021 34.834 40.8828C34.4385 41.0586 33.9307 41.1465 33.3105 41.1465C32.5146 41.1465 31.8921 40.9316 31.4429 40.502C30.9985 40.0723 30.7764 39.4644 30.7764 38.6782C30.7764 37.8433 31.0864 37.2134 31.7065 36.7886C32.3267 36.3638 33.2715 36.1318 34.541 36.0928L35.9399 36.0488V35.6167C35.9399 35.0991 35.8179 34.7134 35.5737 34.4595C35.3345 34.2007 34.9609 34.0713 34.4531 34.0713C34.0381 34.0713 33.6401 34.1323 33.2593 34.2544C32.8784 34.3765 32.5122 34.5205 32.1606 34.6865L31.604 33.4561C32.0435 33.2266 32.5244 33.0532 33.0469 32.936C33.5693 32.814 34.0625 32.7529 34.5264 32.7529C35.5566 32.7529 36.333 32.9775 36.8555 33.4268C37.3828 33.876 37.6465 34.5815 37.6465 35.5435V41H36.416ZM33.8525 39.8281C34.4775 39.8281 34.978 39.6548 35.354 39.3081C35.7349 38.9565 35.9253 38.4658 35.9253 37.8359V37.1328L34.8853 37.1768C34.0747 37.2061 33.4839 37.3428 33.1128 37.5869C32.7466 37.8262 32.5635 38.1948 32.5635 38.6929C32.5635 39.0542 32.6709 39.335 32.8857 39.5352C33.1006 39.7305 33.4229 39.8281 33.8525 39.8281ZM47.1313 32.8994V41H45.4028V34.2617H41.77V41H40.0488V32.8994H47.1313ZM48.3691 32.8994H50.2441L51.8921 37.4917C52.1411 38.146 52.3071 38.7612 52.3901 39.3374H52.4487C52.4927 39.0688 52.5732 38.7441 52.6904 38.3633C52.8076 37.9775 53.4277 36.1562 54.5508 32.8994H56.4111L52.9468 42.0767C52.3169 43.7612 51.2671 44.6035 49.7974 44.6035C49.4165 44.6035 49.0454 44.562 48.6841 44.479V43.1167C48.9429 43.1753 49.2383 43.2046 49.5703 43.2046C50.4004 43.2046 50.9839 42.7236 51.3208 41.7617L51.6211 41L48.3691 32.8994ZM60.9082 41.1465C59.6826 41.1465 58.75 40.79 58.1104 40.0771C57.4756 39.3594 57.1582 38.3315 57.1582 36.9937C57.1582 35.6313 57.4902 34.584 58.1543 33.8516C58.8232 33.1191 59.7876 32.7529 61.0474 32.7529C61.9019 32.7529 62.6709 32.9116 63.3545 33.229L62.8345 34.6133C62.1069 34.3301 61.5063 34.1885 61.0327 34.1885C59.6313 34.1885 58.9307 35.1187 58.9307 36.979C58.9307 37.8872 59.104 38.5708 59.4507 39.0298C59.8022 39.4839 60.3149 39.7109 60.9888 39.7109C61.7554 39.7109 62.4805 39.5205 63.1641 39.1396V40.6411C62.8564 40.8218 62.5269 40.9512 62.1753 41.0293C61.8286 41.1074 61.4062 41.1465 60.9082 41.1465ZM70.0928 32.8994H71.9824L68.6353 36.8032L72.2681 41H70.2905L66.7896 36.8911V41H65.0684V32.8994H66.7896V36.8325L70.0928 32.8994ZM80.7715 41.1465C79.5459 41.1465 78.6133 40.79 77.9736 40.0771C77.3389 39.3594 77.0215 38.3315 77.0215 36.9937C77.0215 35.6313 77.3535 34.584 78.0176 33.8516C78.6865 33.1191 79.6509 32.7529 80.9106 32.7529C81.7651 32.7529 82.5342 32.9116 83.2178 33.229L82.6978 34.6133C81.9702 34.3301 81.3696 34.1885 80.896 34.1885C79.4946 34.1885 78.7939 35.1187 78.7939 36.979C78.7939 37.8872 78.9673 38.5708 79.314 39.0298C79.6655 39.4839 80.1782 39.7109 80.8521 39.7109C81.6187 39.7109 82.3438 39.5205 83.0273 39.1396V40.6411C82.7197 40.8218 82.3901 40.9512 82.0386 41.0293C81.6919 41.1074 81.2695 41.1465 80.7715 41.1465ZM86.5796 32.8994V37.0522C86.5796 37.5356 86.5405 38.2461 86.4624 39.1836L90.5273 32.8994H92.6294V41H90.9741V36.9204C90.9741 36.6958 90.9863 36.332 91.0107 35.8291C91.04 35.3262 91.0645 34.96 91.084 34.7305L87.0337 41H84.9316V32.8994H86.5796ZM98.3496 41.1465C97.124 41.1465 96.1914 40.79 95.5518 40.0771C94.917 39.3594 94.5996 38.3315 94.5996 36.9937C94.5996 35.6313 94.9316 34.584 95.5957 33.8516C96.2646 33.1191 97.229 32.7529 98.4888 32.7529C99.3433 32.7529 100.112 32.9116 100.796 33.229L100.276 34.6133C99.5483 34.3301 98.9478 34.1885 98.4741 34.1885C97.0728 34.1885 96.3721 35.1187 96.3721 36.979C96.3721 37.8872 96.5454 38.5708 96.8921 39.0298C97.2437 39.4839 97.7563 39.7109 98.4302 39.7109C99.1968 39.7109 99.9219 39.5205 100.605 39.1396V40.6411C100.298 40.8218 99.9683 40.9512 99.6167 41.0293C99.27 41.1074 98.8477 41.1465 98.3496 41.1465ZM108.596 32.8994V34.2471H105.959V41H104.231V34.2471H101.594V32.8994H108.596ZM113.694 41.1465C112.434 41.1465 111.448 40.7803 110.735 40.0479C110.027 39.3105 109.673 38.2974 109.673 37.0083C109.673 35.6851 110.002 34.645 110.662 33.8882C111.321 33.1313 112.227 32.7529 113.379 32.7529C114.448 32.7529 115.293 33.0776 115.913 33.7271C116.533 34.3765 116.843 35.27 116.843 36.4077V37.3379H111.445C111.47 38.124 111.682 38.7295 112.083 39.1543C112.483 39.5742 113.047 39.7842 113.774 39.7842C114.253 39.7842 114.697 39.7402 115.107 39.6523C115.522 39.5596 115.967 39.4082 116.44 39.1982V40.5972C116.021 40.7974 115.596 40.939 115.166 41.022C114.736 41.105 114.246 41.1465 113.694 41.1465ZM113.379 34.0566C112.832 34.0566 112.393 34.23 112.061 34.5767C111.733 34.9233 111.538 35.4287 111.475 36.0928H115.151C115.142 35.4238 114.98 34.9185 114.668 34.5767C114.355 34.23 113.926 34.0566 113.379 34.0566ZM123.45 39.3521L123.545 39.0005C123.745 38.2729 123.918 37.7139 124.065 37.3232L125.881 32.8994H128.174V41H126.584V34.4595L126.453 34.8989C126.233 35.6851 126.047 36.2637 125.896 36.6348L124.124 41H122.82L121.047 36.6055C120.803 35.9707 120.579 35.2554 120.374 34.4595V41H118.799V32.8994H121.077L122.834 37.1914C122.991 37.5869 123.196 38.3071 123.45 39.3521ZM132.356 36.1367H133.997C135.129 36.1367 135.967 36.332 136.509 36.7227C137.051 37.1133 137.322 37.6992 137.322 38.4805C137.322 39.3154 137.039 39.9453 136.472 40.3701C135.911 40.79 135.085 41 133.997 41H130.635V32.8994H132.356V36.1367ZM135.615 38.5244C135.615 38.1191 135.464 37.8359 135.161 37.6748C134.863 37.5137 134.434 37.4331 133.872 37.4331H132.356V39.7256H133.652C134.346 39.7256 134.846 39.6279 135.154 39.4326C135.461 39.2373 135.615 38.9346 135.615 38.5244ZM140.325 41H138.596V32.8994H140.325V41Z" transform="translate(44 28)" fill="#CCD5FF"/>
<path d="M72.3125 16.5371C72.3125 17.5723 71.9382 18.4056 71.1895 19.0371C70.4408 19.6621 69.3926 20.0365 68.0449 20.1602V22.1621H66.707V20.1992C65.1185 20.1667 63.7253 19.8867 62.5273 19.3594V16.7812C63.0938 17.0612 63.7741 17.3086 64.5684 17.5234C65.3691 17.7383 66.082 17.8652 66.707 17.9043V14.877L66.0527 14.623C64.7637 14.1152 63.849 13.5651 63.3086 12.9727C62.7747 12.3737 62.5078 11.6348 62.5078 10.7559C62.5078 9.81185 62.8757 9.03711 63.6113 8.43164C64.3535 7.81966 65.3854 7.44857 66.707 7.31836V5.82422H68.0449V7.2793C69.5358 7.3444 70.8835 7.64388 72.0879 8.17773L71.1699 10.4629C70.1543 10.0462 69.1126 9.79232 68.0449 9.70117V12.582C69.3145 13.0703 70.2161 13.4935 70.75 13.8516C71.2904 14.2096 71.6842 14.6035 71.9316 15.0332C72.1855 15.4629 72.3125 15.9642 72.3125 16.5371ZM69.373 16.6836C69.373 16.4102 69.2624 16.179 69.041 15.9902C68.8197 15.8014 68.4876 15.6061 68.0449 15.4043V17.8359C68.9303 17.6862 69.373 17.3021 69.373 16.6836ZM65.4473 10.7559C65.4473 11.0423 65.5449 11.2799 65.7402 11.4688C65.9421 11.651 66.2643 11.8398 66.707 12.0352V9.74023C65.8672 9.86393 65.4473 10.2025 65.4473 10.7559ZM75.291 21L80.6523 9.28125H73.6113V6.74219H83.8555V8.63672L78.4551 21H75.291ZM95.2031 13.8613C95.2031 16.3548 94.793 18.2005 93.9727 19.3984C93.1589 20.5964 91.9023 21.1953 90.2031 21.1953C88.556 21.1953 87.3125 20.5768 86.4727 19.3398C85.6393 18.1029 85.2227 16.2767 85.2227 13.8613C85.2227 11.3418 85.6296 9.48633 86.4434 8.29492C87.2572 7.09701 88.5104 6.49805 90.2031 6.49805C91.8503 6.49805 93.0938 7.12305 93.9336 8.37305C94.7799 9.62305 95.2031 11.4525 95.2031 13.8613ZM88.2207 13.8613C88.2207 15.6126 88.3704 16.8691 88.6699 17.6309C88.9759 18.3861 89.487 18.7637 90.2031 18.7637C90.9062 18.7637 91.4141 18.3796 91.7266 17.6113C92.0391 16.8431 92.1953 15.5931 92.1953 13.8613C92.1953 12.11 92.0358 10.8535 91.7168 10.0918C91.4043 9.32357 90.8997 8.93945 90.2031 8.93945C89.4935 8.93945 88.9857 9.32357 88.6797 10.0918C88.3737 10.8535 88.2207 12.11 88.2207 13.8613ZM106.629 13.8613C106.629 16.3548 106.219 18.2005 105.398 19.3984C104.585 20.5964 103.328 21.1953 101.629 21.1953C99.9818 21.1953 98.7383 20.5768 97.8984 19.3398C97.0651 18.1029 96.6484 16.2767 96.6484 13.8613C96.6484 11.3418 97.0553 9.48633 97.8691 8.29492C98.6829 7.09701 99.9362 6.49805 101.629 6.49805C103.276 6.49805 104.52 7.12305 105.359 8.37305C106.206 9.62305 106.629 11.4525 106.629 13.8613ZM99.6465 13.8613C99.6465 15.6126 99.7962 16.8691 100.096 17.6309C100.402 18.3861 100.913 18.7637 101.629 18.7637C102.332 18.7637 102.84 18.3796 103.152 17.6113C103.465 16.8431 103.621 15.5931 103.621 13.8613C103.621 12.11 103.462 10.8535 103.143 10.0918C102.83 9.32357 102.326 8.93945 101.629 8.93945C100.919 8.93945 100.411 9.32357 100.105 10.0918C99.7995 10.8535 99.6465 12.11 99.6465 13.8613Z" transform="translate(332 105)" fill="#122244"/>
<path d="M6.07227 31.6396C5.06641 31.6396 4.27539 31.9961 3.69922 32.709C3.12305 33.4219 2.83496 34.4058 2.83496 35.6606C2.83496 36.9741 3.11084 37.9678 3.6626 38.6416C4.21924 39.3154 5.02246 39.6523 6.07227 39.6523C6.52637 39.6523 6.96582 39.6084 7.39062 39.5205C7.81543 39.4277 8.25732 39.3105 8.71631 39.1689V40.6704C7.87646 40.9878 6.92432 41.1465 5.85986 41.1465C4.29248 41.1465 3.08887 40.6729 2.24902 39.7256C1.40918 38.7734 0.989258 37.4136 0.989258 35.646C0.989258 34.5327 1.19189 33.5586 1.59717 32.7236C2.00732 31.8887 2.59814 31.249 3.36963 30.8047C4.14111 30.3604 5.04688 30.1382 6.08691 30.1382C7.18066 30.1382 8.19141 30.3677 9.11914 30.8267L8.48926 32.2842C8.12793 32.1133 7.74463 31.9644 7.33936 31.8374C6.93896 31.7056 6.5166 31.6396 6.07227 31.6396ZM16.9268 32.8994V34.2471H14.29V41H12.5615V34.2471H9.9248V32.8994H16.9268ZM25.6719 36.9351C25.6719 38.2583 25.3325 39.291 24.6538 40.0332C23.9751 40.7754 23.0303 41.1465 21.8193 41.1465C21.0625 41.1465 20.3936 40.9756 19.8125 40.6338C19.2314 40.292 18.7847 39.8013 18.4722 39.1616C18.1597 38.522 18.0034 37.7798 18.0034 36.9351C18.0034 35.6216 18.3403 34.5962 19.0142 33.8589C19.688 33.1216 20.6377 32.7529 21.8633 32.7529C23.0352 32.7529 23.9629 33.1313 24.6465 33.8882C25.3301 34.6401 25.6719 35.6558 25.6719 36.9351ZM19.7759 36.9351C19.7759 38.8052 20.4668 39.7402 21.8486 39.7402C23.2158 39.7402 23.8994 38.8052 23.8994 36.9351C23.8994 35.0845 23.2109 34.1592 21.834 34.1592C21.1113 34.1592 20.5864 34.3984 20.2593 34.877C19.937 35.3555 19.7759 36.0415 19.7759 36.9351ZM29.3047 32.8994V37.0522C29.3047 37.5356 29.2656 38.2461 29.1875 39.1836L33.2524 32.8994H35.3545V41H33.6992V36.9204C33.6992 36.6958 33.7114 36.332 33.7358 35.8291C33.7651 35.3262 33.7896 34.96 33.8091 34.7305L29.7588 41H27.6567V32.8994H29.3047ZM42.459 39.3521L42.5542 39.0005C42.7544 38.2729 42.9277 37.7139 43.0742 37.3232L44.8906 32.8994H47.1831V41H45.5938V34.4595L45.4619 34.8989C45.2422 35.6851 45.0566 36.2637 44.9053 36.6348L43.1328 41H41.8291L40.0566 36.6055C39.8125 35.9707 39.5879 35.2554 39.3828 34.4595V41H37.8081V32.8994H40.0859L41.8438 37.1914C42 37.5869 42.2051 38.3071 42.459 39.3521ZM56.8291 36.9351C56.8291 38.2583 56.4897 39.291 55.811 40.0332C55.1323 40.7754 54.1875 41.1465 52.9766 41.1465C52.2197 41.1465 51.5508 40.9756 50.9697 40.6338C50.3887 40.292 49.9419 39.8013 49.6294 39.1616C49.3169 38.522 49.1606 37.7798 49.1606 36.9351C49.1606 35.6216 49.4976 34.5962 50.1714 33.8589C50.8452 33.1216 51.7949 32.7529 53.0205 32.7529C54.1924 32.7529 55.1201 33.1313 55.8037 33.8882C56.4873 34.6401 56.8291 35.6558 56.8291 36.9351ZM50.9331 36.9351C50.9331 38.8052 51.624 39.7402 53.0059 39.7402C54.373 39.7402 55.0566 38.8052 55.0566 36.9351C55.0566 35.0845 54.3682 34.1592 52.9912 34.1592C52.2686 34.1592 51.7437 34.3984 51.4165 34.877C51.0942 35.3555 50.9331 36.0415 50.9331 36.9351ZM62.0806 41.1465C60.855 41.1465 59.9224 40.79 59.2827 40.0771C58.6479 39.3594 58.3306 38.3315 58.3306 36.9937C58.3306 35.6313 58.6626 34.584 59.3267 33.8516C59.9956 33.1191 60.96 32.7529 62.2197 32.7529C63.0742 32.7529 63.8433 32.9116 64.5269 33.229L64.0068 34.6133C63.2793 34.3301 62.6787 34.1885 62.2051 34.1885C60.8037 34.1885 60.103 35.1187 60.103 36.979C60.103 37.8872 60.2764 38.5708 60.623 39.0298C60.9746 39.4839 61.4873 39.7109 62.1611 39.7109C62.9277 39.7109 63.6528 39.5205 64.3364 39.1396V40.6411C64.0288 40.8218 63.6992 40.9512 63.3477 41.0293C63.001 41.1074 62.5786 41.1465 62.0806 41.1465ZM72.3271 32.8994V34.2471H69.6904V41H67.9619V34.2471H65.3252V32.8994H72.3271ZM75.6084 36.1367H77.6372C79.8979 36.1367 81.0283 36.918 81.0283 38.4805C81.0283 39.3057 80.7402 39.9331 80.1641 40.3628C79.5879 40.7876 78.7456 41 77.6372 41H73.8872V32.8994H75.6084V36.1367ZM79.2998 38.5244C79.2998 38.1191 79.146 37.8359 78.8384 37.6748C78.5308 37.5137 78.0962 37.4331 77.5347 37.4331H75.6084V39.7256H77.564C78.1304 39.7256 78.5601 39.623 78.853 39.418C79.1509 39.2129 79.2998 38.915 79.2998 38.5244ZM96.314 36.9497C96.314 38.1655 95.9453 39.1348 95.208 39.8574C94.4756 40.5801 93.46 40.9902 92.1611 41.0879V44.6035H90.5278V41.0879C89.2437 40.9902 88.2256 40.5752 87.4736 39.8428C86.7266 39.1055 86.353 38.1411 86.353 36.9497C86.353 35.7144 86.7168 34.7402 87.4443 34.0273C88.1719 33.3096 89.2046 32.9043 90.5425 32.8115V29.6035H92.1611V32.8115C93.46 32.9287 94.4756 33.3511 95.208 34.0786C95.9453 34.8062 96.314 35.7632 96.314 36.9497ZM88.1401 36.9497C88.1401 37.7505 88.3403 38.395 88.7407 38.8833C89.1411 39.3716 89.7417 39.6572 90.5425 39.7402V34.1592C89.7368 34.252 89.1338 34.54 88.7334 35.0234C88.3379 35.5068 88.1401 36.1489 88.1401 36.9497ZM94.5342 36.9497C94.5342 36.1587 94.334 35.5239 93.9336 35.0454C93.5381 34.5669 92.9473 34.2812 92.1611 34.1885V39.7402C92.957 39.6475 93.5503 39.3594 93.9409 38.876C94.3364 38.3877 94.5342 37.7456 94.5342 36.9497ZM102.415 41.1465C101.39 41.1465 100.594 40.7778 100.027 40.0405H99.9248C99.9932 40.7241 100.027 41.1392 100.027 41.2856V44.6035H98.3062V32.8994H99.6978C99.7368 33.0508 99.8174 33.4121 99.9395 33.9834H100.027C100.564 33.1631 101.37 32.7529 102.444 32.7529C103.455 32.7529 104.241 33.1191 104.803 33.8516C105.369 34.584 105.652 35.6118 105.652 36.9351C105.652 38.2583 105.364 39.291 104.788 40.0332C104.217 40.7754 103.426 41.1465 102.415 41.1465ZM101.998 34.1592C101.314 34.1592 100.813 34.3594 100.496 34.7598C100.184 35.1602 100.027 35.7998 100.027 36.6787V36.9351C100.027 37.9214 100.184 38.6367 100.496 39.0811C100.809 39.5205 101.319 39.7402 102.027 39.7402C102.623 39.7402 103.082 39.4961 103.404 39.0078C103.726 38.5195 103.887 37.8237 103.887 36.9204C103.887 36.0122 103.726 35.3262 103.404 34.8623C103.086 34.3936 102.618 34.1592 101.998 34.1592ZM112.72 41L112.376 39.8721H112.317C111.927 40.3652 111.534 40.7021 111.138 40.8828C110.743 41.0586 110.235 41.1465 109.615 41.1465C108.819 41.1465 108.196 40.9316 107.747 40.502C107.303 40.0723 107.081 39.4644 107.081 38.6782C107.081 37.8433 107.391 37.2134 108.011 36.7886C108.631 36.3638 109.576 36.1318 110.845 36.0928L112.244 36.0488V35.6167C112.244 35.0991 112.122 34.7134 111.878 34.4595C111.639 34.2007 111.265 34.0713 110.757 34.0713C110.342 34.0713 109.944 34.1323 109.563 34.2544C109.183 34.3765 108.816 34.5205 108.465 34.6865L107.908 33.4561C108.348 33.2266 108.829 33.0532 109.351 32.936C109.874 32.814 110.367 32.7529 110.831 32.7529C111.861 32.7529 112.637 32.9775 113.16 33.4268C113.687 33.876 113.951 34.5815 113.951 35.5435V41H112.72ZM110.157 39.8281C110.782 39.8281 111.282 39.6548 111.658 39.3081C112.039 38.9565 112.229 38.4658 112.229 37.8359V37.1328L111.189 37.1768C110.379 37.2061 109.788 37.3428 109.417 37.5869C109.051 37.8262 108.868 38.1948 108.868 38.6929C108.868 39.0542 108.975 39.335 109.19 39.5352C109.405 39.7305 109.727 39.8281 110.157 39.8281ZM118.074 32.8994V36.1514H121.89V32.8994H123.611V41H121.89V37.5063H118.074V41H116.353V32.8994H118.074ZM137.557 41H126.08V32.8994H127.801V39.6377H130.958V32.8994H132.679V39.6377H135.828V32.8994H137.557V41ZM141.673 32.8994V37.0522C141.673 37.5356 141.634 38.2461 141.556 39.1836L145.621 32.8994H147.723V41H146.067V36.9204C146.067 36.6958 146.08 36.332 146.104 35.8291C146.133 35.3262 146.158 34.96 146.177 34.7305L142.127 41H140.025V32.8994H141.673ZM151.963 36.1367C152.75 36.1367 153.328 36.0513 153.699 35.8804C154.07 35.7046 154.256 35.436 154.256 35.0747C154.256 34.4155 153.67 34.0859 152.498 34.0859C151.717 34.0859 150.918 34.2617 150.103 34.6133L149.546 33.3315C150.489 32.9458 151.529 32.7529 152.667 32.7529C153.672 32.7529 154.454 32.9385 155.01 33.3096C155.567 33.6758 155.845 34.2031 155.845 34.8916C155.845 35.7998 155.325 36.3955 154.285 36.6787V36.7373C154.935 36.9131 155.398 37.1646 155.677 37.4917C155.96 37.8188 156.102 38.2241 156.102 38.7075C156.102 39.4497 155.774 40.043 155.12 40.4873C154.471 40.9268 153.562 41.1465 152.396 41.1465C151.121 41.1465 150.147 40.978 149.473 40.6411V39.1543C150.367 39.5742 151.292 39.7842 152.249 39.7842C152.938 39.7842 153.467 39.689 153.838 39.4985C154.214 39.3032 154.402 39.0078 154.402 38.6123C154.402 38.207 154.214 37.9092 153.838 37.7188C153.462 37.5283 152.881 37.4331 152.095 37.4331H151.106V36.1367H151.963ZM159.69 36.1367H161.331C162.464 36.1367 163.301 36.332 163.843 36.7227C164.385 37.1133 164.656 37.6992 164.656 38.4805C164.656 39.3154 164.373 39.9453 163.807 40.3701C163.245 40.79 162.42 41 161.331 41H157.969V32.8994H159.69V36.1367ZM162.95 38.5244C162.95 38.1191 162.798 37.8359 162.496 37.6748C162.198 37.5137 161.768 37.4331 161.207 37.4331H159.69V39.7256H160.987C161.68 39.7256 162.181 39.6279 162.488 39.4326C162.796 39.2373 162.95 38.9346 162.95 38.5244ZM167.659 41H165.931V32.8994H167.659V41Z" transform="translate(332 105)" fill="#70708A"/>
<path d="M0 0H229C231.761 0 234 2.23858 234 5V74H0V0Z" transform="translate(578 15)" fill="#422BD7"/>
<line y1="-0.5" x2="74" y2="-0.5" transform="translate(636 15) rotate(90)" stroke="url(#paint9_linear)"/>
<line y1="-0.5" x2="74" y2="-0.5" transform="translate(695 15) rotate(90)" stroke="url(#paint10_linear)"/>
<line y1="-0.5" x2="74" y2="-0.5" transform="translate(754 15) rotate(90)" stroke="url(#paint11_linear)"/>
<path d="M4.63867 15.0234H0.859375V12.8848H4.63867V9.07617H6.77734V12.8848H10.5566V15.0234H6.77734V18.7832H4.63867V15.0234ZM22.5293 18.041H20.8105V21H17.8613V18.041H11.7676V15.9414L18.0273 6.72266H20.8105V15.6973H22.5293V18.041ZM17.8613 15.6973V13.2754C17.8613 12.8717 17.8776 12.2858 17.9102 11.5176C17.9427 10.7493 17.9688 10.3034 17.9883 10.1797H17.9102C17.6693 10.7135 17.3796 11.2344 17.041 11.7422L14.4238 15.6973H17.8613ZM36.4453 18.8223V12.3184H34.209C34.0462 13.5293 33.8216 14.6784 33.5352 15.7656C33.2552 16.8529 32.8646 17.8717 32.3633 18.8223H36.4453ZM41.0254 24.916H38.3496V21H31.0059V24.916H28.3301V18.8223H29.248C29.873 17.8522 30.3971 16.6283 30.8203 15.1504C31.2435 13.6725 31.5397 11.9831 31.709 10.082H39.4238V18.8223H41.0254V24.916ZM45.8691 10.082V14.2812H50.0293V10.082H53.0078V21H50.0293V16.498H45.8691V21H42.8906V10.082H45.8691ZM57.793 21H54.5703L57.5098 16.6836C56.8066 16.3906 56.2728 15.9674 55.9082 15.4141C55.5501 14.8607 55.3711 14.2096 55.3711 13.4609C55.3711 12.4062 55.765 11.5794 56.5527 10.9805C57.347 10.3815 58.4277 10.082 59.7949 10.082H64.873V21H61.8945V16.9375H60.2539L57.793 21ZM58.291 13.4805C58.291 13.9362 58.4701 14.2943 58.8281 14.5547C59.1862 14.8086 59.6549 14.9355 60.2344 14.9355H61.8945V12.1816H59.8535C59.3652 12.1816 58.9811 12.3021 58.7012 12.543C58.4277 12.7773 58.291 13.0898 58.291 13.4805Z" transform="translate(602 28)" fill="white"/>
<path d="M2.95166 32.8994V36.1514H6.76758V32.8994H8.48877V41H6.76758V37.5063H2.95166V41H1.23047V32.8994H2.95166ZM16.0254 41L15.6812 39.8721H15.6226C15.2319 40.3652 14.8389 40.7021 14.4434 40.8828C14.0479 41.0586 13.54 41.1465 12.9199 41.1465C12.124 41.1465 11.5015 40.9316 11.0522 40.502C10.6079 40.0723 10.3857 39.4644 10.3857 38.6782C10.3857 37.8433 10.6958 37.2134 11.3159 36.7886C11.936 36.3638 12.8809 36.1318 14.1504 36.0928L15.5493 36.0488V35.6167C15.5493 35.0991 15.4272 34.7134 15.1831 34.4595C14.9438 34.2007 14.5703 34.0713 14.0625 34.0713C13.6475 34.0713 13.2495 34.1323 12.8687 34.2544C12.4878 34.3765 12.1216 34.5205 11.77 34.6865L11.2134 33.4561C11.6528 33.2266 12.1338 33.0532 12.6562 32.936C13.1787 32.814 13.6719 32.7529 14.1357 32.7529C15.166 32.7529 15.9424 32.9775 16.4648 33.4268C16.9922 33.876 17.2559 34.5815 17.2559 35.5435V41H16.0254ZM13.4619 39.8281C14.0869 39.8281 14.5874 39.6548 14.9634 39.3081C15.3442 38.9565 15.5347 38.4658 15.5347 37.8359V37.1328L14.4946 37.1768C13.6841 37.2061 13.0933 37.3428 12.7222 37.5869C12.356 37.8262 12.1729 38.1948 12.1729 38.6929C12.1729 39.0542 12.2803 39.335 12.4951 39.5352C12.71 39.7305 13.0322 39.8281 13.4619 39.8281ZM25.2026 32.8994V37.0522C25.2026 37.5356 25.1636 38.2461 25.0854 39.1836L29.1504 32.8994H31.2524V41H29.5972V36.9204C29.5972 36.6958 29.6094 36.332 29.6338 35.8291C29.6631 35.3262 29.6875 34.96 29.707 34.7305L25.6567 41H23.5547V32.8994H25.2026ZM35.4272 32.8994V36.1514H39.2432V32.8994H40.9644V41H39.2432V37.5063H35.4272V41H33.7061V32.8994H35.4272ZM49.519 32.8994V34.2471H46.8823V41H45.1538V34.2471H42.5171V32.8994H49.519ZM54.6167 41.1465C53.3569 41.1465 52.3706 40.7803 51.6577 40.0479C50.9497 39.3105 50.5957 38.2974 50.5957 37.0083C50.5957 35.6851 50.9253 34.645 51.5845 33.8882C52.2437 33.1313 53.1494 32.7529 54.3018 32.7529C55.3711 32.7529 56.2158 33.0776 56.8359 33.7271C57.4561 34.3765 57.7661 35.27 57.7661 36.4077V37.3379H52.3682C52.3926 38.124 52.605 38.7295 53.0054 39.1543C53.4058 39.5742 53.9697 39.7842 54.6973 39.7842C55.1758 39.7842 55.6201 39.7402 56.0303 39.6523C56.4453 39.5596 56.8896 39.4082 57.3633 39.1982V40.5972C56.9434 40.7974 56.5186 40.939 56.0889 41.022C55.6592 41.105 55.1685 41.1465 54.6167 41.1465ZM54.3018 34.0566C53.7549 34.0566 53.3154 34.23 52.9834 34.5767C52.6562 34.9233 52.4609 35.4287 52.3975 36.0928H56.0742C56.0645 35.4238 55.9033 34.9185 55.5908 34.5767C55.2783 34.23 54.8486 34.0566 54.3018 34.0566ZM64.9585 32.8994V34.2471H61.4429V41H59.7217V32.8994H64.9585ZM70.6274 41.1465C69.6021 41.1465 68.8062 40.7778 68.2397 40.0405H68.1372C68.2056 40.7241 68.2397 41.1392 68.2397 41.2856V44.6035H66.5186V32.8994H67.9102C67.9492 33.0508 68.0298 33.4121 68.1519 33.9834H68.2397C68.7769 33.1631 69.5825 32.7529 70.6567 32.7529C71.6675 32.7529 72.4536 33.1191 73.0151 33.8516C73.5815 34.584 73.8647 35.6118 73.8647 36.9351C73.8647 38.2583 73.5767 39.291 73.0005 40.0332C72.4292 40.7754 71.6382 41.1465 70.6274 41.1465ZM70.21 34.1592C69.5264 34.1592 69.0259 34.3594 68.7085 34.7598C68.396 35.1602 68.2397 35.7998 68.2397 36.6787V36.9351C68.2397 37.9214 68.396 38.6367 68.7085 39.0811C69.021 39.5205 69.5312 39.7402 70.2393 39.7402C70.835 39.7402 71.2939 39.4961 71.6162 39.0078C71.9385 38.5195 72.0996 37.8237 72.0996 36.9204C72.0996 36.0122 71.9385 35.3262 71.6162 34.8623C71.2988 34.3936 70.8301 34.1592 70.21 34.1592ZM80.9326 41L80.5884 39.8721H80.5298C80.1392 40.3652 79.7461 40.7021 79.3506 40.8828C78.9551 41.0586 78.4473 41.1465 77.8271 41.1465C77.0312 41.1465 76.4087 40.9316 75.9595 40.502C75.5151 40.0723 75.293 39.4644 75.293 38.6782C75.293 37.8433 75.603 37.2134 76.2231 36.7886C76.8433 36.3638 77.7881 36.1318 79.0576 36.0928L80.4565 36.0488V35.6167C80.4565 35.0991 80.3345 34.7134 80.0903 34.4595C79.8511 34.2007 79.4775 34.0713 78.9697 34.0713C78.5547 34.0713 78.1567 34.1323 77.7759 34.2544C77.395 34.3765 77.0288 34.5205 76.6772 34.6865L76.1206 33.4561C76.5601 33.2266 77.041 33.0532 77.5635 32.936C78.0859 32.814 78.5791 32.7529 79.043 32.7529C80.0732 32.7529 80.8496 32.9775 81.3721 33.4268C81.8994 33.876 82.1631 34.5815 82.1631 35.5435V41H80.9326ZM78.3691 39.8281C78.9941 39.8281 79.4946 39.6548 79.8706 39.3081C80.2515 38.9565 80.4419 38.4658 80.4419 37.8359V37.1328L79.4019 37.1768C78.5913 37.2061 78.0005 37.3428 77.6294 37.5869C77.2632 37.8262 77.0801 38.1948 77.0801 38.6929C77.0801 39.0542 77.1875 39.335 77.4023 39.5352C77.6172 39.7305 77.9395 39.8281 78.3691 39.8281ZM91.7798 39.667H92.9517V43.8491H91.333V41H84.5654V32.8994H86.2866V39.6377H90.0586V32.8994H91.7798V39.667ZM96.0718 32.8994V37.0522C96.0718 37.5356 96.0327 38.2461 95.9546 39.1836L100.02 32.8994H102.122V41H100.466V36.9204C100.466 36.6958 100.479 36.332 100.503 35.8291C100.532 35.3262 100.557 34.96 100.576 34.7305L96.5259 41H94.4238V32.8994H96.0718ZM115.393 36.9351C115.393 38.2632 115.068 39.2983 114.419 40.0405C113.774 40.7778 112.874 41.1465 111.716 41.1465C110.652 41.1465 109.805 40.834 109.175 40.209C108.55 39.5791 108.186 38.6782 108.083 37.5063H106.296V41H104.575V32.8994H106.296V36.1514H108.098C108.22 35.0771 108.596 34.2422 109.226 33.6465C109.861 33.0508 110.701 32.7529 111.746 32.7529C112.869 32.7529 113.757 33.1313 114.412 33.8882C115.066 34.6401 115.393 35.6558 115.393 36.9351ZM109.841 36.9351C109.841 37.8579 109.988 38.5562 110.281 39.0298C110.579 39.5034 111.062 39.7402 111.731 39.7402C112.395 39.7402 112.876 39.5034 113.174 39.0298C113.472 38.5562 113.621 37.8579 113.621 36.9351C113.621 36.022 113.472 35.3311 113.174 34.8623C112.876 34.3936 112.395 34.1592 111.731 34.1592C111.062 34.1592 110.579 34.3936 110.281 34.8623C109.988 35.3311 109.841 36.022 109.841 36.9351ZM124.556 41.1465C123.33 41.1465 122.397 40.79 121.758 40.0771C121.123 39.3594 120.806 38.3315 120.806 36.9937C120.806 35.6313 121.138 34.584 121.802 33.8516C122.471 33.1191 123.435 32.7529 124.695 32.7529C125.549 32.7529 126.318 32.9116 127.002 33.229L126.482 34.6133C125.754 34.3301 125.154 34.1885 124.68 34.1885C123.279 34.1885 122.578 35.1187 122.578 36.979C122.578 37.8872 122.751 38.5708 123.098 39.0298C123.45 39.4839 123.962 39.7109 124.636 39.7109C125.403 39.7109 126.128 39.5205 126.812 39.1396V40.6411C126.504 40.8218 126.174 40.9512 125.823 41.0293C125.476 41.1074 125.054 41.1465 124.556 41.1465ZM130.364 32.8994V37.0522C130.364 37.5356 130.325 38.2461 130.247 39.1836L134.312 32.8994H136.414V41H134.758V36.9204C134.758 36.6958 134.771 36.332 134.795 35.8291C134.824 35.3262 134.849 34.96 134.868 34.7305L130.818 41H128.716V32.8994H130.364ZM142.134 41.1465C140.908 41.1465 139.976 40.79 139.336 40.0771C138.701 39.3594 138.384 38.3315 138.384 36.9937C138.384 35.6313 138.716 34.584 139.38 33.8516C140.049 33.1191 141.013 32.7529 142.273 32.7529C143.127 32.7529 143.896 32.9116 144.58 33.229L144.06 34.6133C143.333 34.3301 142.732 34.1885 142.258 34.1885C140.857 34.1885 140.156 35.1187 140.156 36.979C140.156 37.8872 140.33 38.5708 140.676 39.0298C141.028 39.4839 141.541 39.7109 142.214 39.7109C142.981 39.7109 143.706 39.5205 144.39 39.1396V40.6411C144.082 40.8218 143.752 40.9512 143.401 41.0293C143.054 41.1074 142.632 41.1465 142.134 41.1465ZM152.38 32.8994V34.2471H149.744V41H148.015V34.2471H145.378V32.8994H152.38ZM157.478 41.1465C156.218 41.1465 155.232 40.7803 154.519 40.0479C153.811 39.3105 153.457 38.2974 153.457 37.0083C153.457 35.6851 153.787 34.645 154.446 33.8882C155.105 33.1313 156.011 32.7529 157.163 32.7529C158.232 32.7529 159.077 33.0776 159.697 33.7271C160.317 34.3765 160.627 35.27 160.627 36.4077V37.3379H155.229C155.254 38.124 155.466 38.7295 155.867 39.1543C156.267 39.5742 156.831 39.7842 157.559 39.7842C158.037 39.7842 158.481 39.7402 158.892 39.6523C159.307 39.5596 159.751 39.4082 160.225 39.1982V40.5972C159.805 40.7974 159.38 40.939 158.95 41.022C158.521 41.105 158.03 41.1465 157.478 41.1465ZM157.163 34.0566C156.616 34.0566 156.177 34.23 155.845 34.5767C155.518 34.9233 155.322 35.4287 155.259 36.0928H158.936C158.926 35.4238 158.765 34.9185 158.452 34.5767C158.14 34.23 157.71 34.0566 157.163 34.0566ZM167.234 39.3521L167.329 39.0005C167.529 38.2729 167.703 37.7139 167.849 37.3232L169.666 32.8994H171.958V41H170.369V34.4595L170.237 34.8989C170.017 35.6851 169.832 36.2637 169.68 36.6348L167.908 41H166.604L164.832 36.6055C164.587 35.9707 164.363 35.2554 164.158 34.4595V41H162.583V32.8994H164.861L166.619 37.1914C166.775 37.5869 166.98 38.3071 167.234 39.3521ZM176.14 36.1367H177.781C178.914 36.1367 179.751 36.332 180.293 36.7227C180.835 37.1133 181.106 37.6992 181.106 38.4805C181.106 39.3154 180.823 39.9453 180.256 40.3701C179.695 40.79 178.87 41 177.781 41H174.419V32.8994H176.14V36.1367ZM179.399 38.5244C179.399 38.1191 179.248 37.8359 178.945 37.6748C178.647 37.5137 178.218 37.4331 177.656 37.4331H176.14V39.7256H177.437C178.13 39.7256 178.63 39.6279 178.938 39.4326C179.246 39.2373 179.399 38.9346 179.399 38.5244ZM184.109 41H182.38V32.8994H184.109V41Z" transform="translate(602 28)" fill="#CCD5FF"/>
<defs>
<filter id="filter0_d" x="1.33514e-05" y="0" width="832" height="134" filterUnits="userSpaceOnUse" color-interpolation-filters="sRGB">
<feFlood flood-opacity="0" result="BackgroundImageFix"/>
<feColorMatrix in="SourceAlpha" type="matrix" values="0 0 0 0 0 0 0 0 0 0 0 0 0 0 0 0 0 0 255 0"/>
<feOffset dy="10"/>
<feGaussianBlur stdDeviation="20"/>
<feColorMatrix type="matrix" values="0 0 0 0 0.0351517 0 0 0 0 0 0 0 0 0 0.268559 0 0 0 0.3 0"/>
<feBlend mode="normal" in2="BackgroundImageFix" result="effect1_dropShadow"/>
<feBlend mode="normal" in="SourceGraphic" in2="effect1_dropShadow" result="shape"/>
</filter>
<linearGradient id="paint0_linear" x2="1" gradientUnits="userSpaceOnUse" gradientTransform="translate(0.000119638 -2737) scale(74 5476)">
<stop stop-color="#25375D"/>
<stop offset="1" stop-color="#122244"/>
</linearGradient>
<linearGradient id="paint1_linear" x2="1" gradientUnits="userSpaceOnUse" gradientTransform="translate(0.000119638 -2737) scale(74 5476)">
<stop stop-color="#25375D"/>
<stop offset="1" stop-color="#122244"/>
</linearGradient>
<linearGradient id="paint2_linear" x2="1" gradientUnits="userSpaceOnUse" gradientTransform="translate(0.000119638 -2737) scale(74 5476)">
<stop stop-color="#25375D"/>
<stop offset="1" stop-color="#122244"/>
</linearGradient>
<linearGradient id="paint3_linear" x2="1" gradientUnits="userSpaceOnUse" gradientTransform="translate(0.000119638 -2737) scale(74 5476)">
<stop stop-color="#25375D"/>
<stop offset="1" stop-color="#122244"/>
</linearGradient>
<linearGradient id="paint4_linear" x2="1" gradientUnits="userSpaceOnUse" gradientTransform="translate(0.000119638 -2737) scale(74 5476)">
<stop stop-color="#25375D"/>
<stop offset="1" stop-color="#122244"/>
</linearGradient>
<linearGradient id="paint5_linear" x2="1" gradientUnits="userSpaceOnUse" gradientTransform="translate(0.000119638 -2737) scale(74 5476)">
<stop stop-color="#25375D"/>
<stop offset="1" stop-color="#122244"/>
</linearGradient>
<linearGradient id="paint6_linear" x2="1" gradientUnits="userSpaceOnUse" gradientTransform="translate(0.000119638 -2737) scale(74 5476)">
<stop stop-color="#25375D"/>
<stop offset="1" stop-color="#122244"/>
</linearGradient>
<linearGradient id="paint7_linear" x2="1" gradientUnits="userSpaceOnUse" gradientTransform="translate(0.000119638 -2737) scale(74 5476)">
<stop stop-color="#25375D"/>
<stop offset="1" stop-color="#122244"/>
</linearGradient>
<linearGradient id="paint8_linear" x2="1" gradientUnits="userSpaceOnUse" gradientTransform="translate(0.000119638 -2737) scale(74 5476)">
<stop stop-color="#25375D"/>
<stop offset="1" stop-color="#122244"/>
</linearGradient>
<linearGradient id="paint9_linear" x2="1" gradientUnits="userSpaceOnUse" gradientTransform="translate(0.000119638 -2737) scale(74 5476)">
<stop stop-color="#5743DA"/>
<stop offset="1" stop-color="#422BD7"/>
</linearGradient>
<linearGradient id="paint10_linear" x2="1" gradientUnits="userSpaceOnUse" gradientTransform="translate(0.000119638 -2737) scale(74 5476)">
<stop stop-color="#5743DA"/>
<stop offset="1" stop-color="#422BD7"/>
</linearGradient>
<linearGradient id="paint11_linear" x2="1" gradientUnits="userSpaceOnUse" gradientTransform="translate(0.000119638 -2737) scale(74 5476)">
<stop stop-color="#5743DA"/>
<stop offset="1" stop-color="#422BD7"/>
</linearGradient>
</defs>
</svg>
