<svg width="416" height="150" viewBox="0 0 416 150" fill="none" xmlns="http://www.w3.org/2000/svg">
<g filter="url(#filter0_d)">
<path d="M0 10C0 4.47715 4.47715 0 10 0H326C331.523 0 336 4.47715 336 10V44C336 49.5228 331.523 54 326 54H10C4.47715 54 0 49.5228 0 44V10Z" transform="translate(40 30)" fill="#FF4040"/>
</g>
<path fill-rule="evenodd" clip-rule="evenodd" d="M5 1H371C373.209 1 375 2.79077 375 5V123C375 125.209 373.209 127 371 127H292V128H371C373.761 128 376 125.761 376 123V5C376 2.23853 373.761 0 371 0H5C2.23859 0 0 2.23853 0 5V123C0 125.761 2.23859 128 5 128H85V127H5C2.79083 127 1 125.209 1 123V5C1 2.79077 2.79083 1 5 1Z" transform="translate(20 15)" fill="#CFDAE8"/>
<path d="M0 5C0 2.23858 2.23858 0 5 0H94V74H0V5Z" transform="translate(20 15)" fill="#D72B2B"/>
<path d="M0 0H94V74H0V0Z" transform="translate(114 15)" fill="#D72B2B"/>
<path d="M0 0H94V74H0V0Z" transform="translate(208 15)" fill="#D72B2B"/>
<path d="M0 0H89C91.7614 0 94 2.23858 94 5V74H0V0Z" transform="translate(302 15)" fill="#D72B2B"/>
<line y1="-0.5" x2="74" y2="-0.5" transform="translate(113 15) rotate(90)" stroke="url(#paint0_linear)"/>
<line y1="-0.5" x2="74" y2="-0.5" transform="translate(207 15) rotate(90)" stroke="url(#paint1_linear)"/>
<line y1="-0.5" x2="74" y2="-0.5" transform="translate(301 15) rotate(90)" stroke="url(#paint2_linear)"/>
<path d="M8.26172 21H5.24414V12.7383L5.27344 11.3809L5.32227 9.89648C4.82096 10.3978 4.47266 10.7266 4.27734 10.8828L2.63672 12.2012L1.18164 10.3848L5.78125 6.72266H8.26172V21ZM16.6211 10.082H19.8828L21.9434 16.2246C22.1191 16.7585 22.2396 17.39 22.3047 18.1191H22.3633C22.4349 17.4486 22.5749 16.8171 22.7832 16.2246L24.8047 10.082H27.998L23.3789 22.3965C22.9557 23.5358 22.3503 24.3887 21.5625 24.9551C20.7812 25.5215 19.8665 25.8047 18.8184 25.8047C18.304 25.8047 17.7995 25.7493 17.3047 25.6387V23.2754C17.6628 23.36 18.0534 23.4023 18.4766 23.4023C19.0039 23.4023 19.4629 23.2396 19.8535 22.9141C20.2507 22.5951 20.5599 22.11 20.7812 21.459L20.957 20.9219L16.6211 10.082ZM34.0918 11.9961C33.4603 11.9961 32.9655 12.1979 32.6074 12.6016C32.2493 12.9987 32.0443 13.5651 31.9922 14.3008H36.1719C36.1589 13.5651 35.9668 12.9987 35.5957 12.6016C35.2246 12.1979 34.7233 11.9961 34.0918 11.9961ZM34.5117 21.1953C32.7539 21.1953 31.3802 20.7103 30.3906 19.7402C29.401 18.7702 28.9062 17.3965 28.9062 15.6191C28.9062 13.7897 29.362 12.377 30.2734 11.3809C31.1914 10.3783 32.4577 9.87695 34.0723 9.87695C35.6152 9.87695 36.8164 10.3164 37.6758 11.1953C38.5352 12.0742 38.9648 13.2884 38.9648 14.8379V16.2832H31.9238C31.9564 17.1296 32.207 17.7904 32.6758 18.2656C33.1445 18.7409 33.8021 18.9785 34.6484 18.9785C35.306 18.9785 35.9277 18.9102 36.5137 18.7734C37.0996 18.6367 37.7116 18.4186 38.3496 18.1191V20.4238C37.8288 20.6842 37.2721 20.8763 36.6797 21C36.0872 21.1302 35.3646 21.1953 34.5117 21.1953ZM48.3203 21L47.7441 19.5156H47.666C47.1647 20.1471 46.6471 20.5866 46.1133 20.834C45.5859 21.0749 44.8958 21.1953 44.043 21.1953C42.9948 21.1953 42.168 20.8958 41.5625 20.2969C40.9635 19.6979 40.6641 18.8451 40.6641 17.7383C40.6641 16.5794 41.0677 15.7266 41.875 15.1797C42.6888 14.6263 43.9128 14.3203 45.5469 14.2617L47.4414 14.2031V13.7246C47.4414 12.6178 46.875 12.0645 45.7422 12.0645C44.8698 12.0645 43.8444 12.3281 42.666 12.8555L41.6797 10.8438C42.9362 10.1862 44.3294 9.85742 45.8594 9.85742C47.3242 9.85742 48.4473 10.1764 49.2285 10.8145C50.0098 11.4525 50.4004 12.4225 50.4004 13.7246V21H48.3203ZM47.4414 15.9414L46.2891 15.9805C45.4232 16.0065 44.7786 16.1628 44.3555 16.4492C43.9323 16.7357 43.7207 17.1719 43.7207 17.7578C43.7207 18.5977 44.2025 19.0176 45.166 19.0176C45.8561 19.0176 46.4062 18.819 46.8164 18.4219C47.2331 18.0247 47.4414 17.4974 47.4414 16.8398V15.9414ZM59.5703 9.87695C59.974 9.87695 60.3092 9.90625 60.5762 9.96484L60.3516 12.7578C60.1107 12.6927 59.8177 12.6602 59.4727 12.6602C58.5221 12.6602 57.7799 12.9043 57.2461 13.3926C56.7188 13.8809 56.4551 14.5645 56.4551 15.4434V21H53.4766V10.082H55.7324L56.1719 11.918H56.3184C56.6569 11.306 57.1126 10.8145 57.6855 10.4434C58.265 10.0658 58.8932 9.87695 59.5703 9.87695ZM3.14941 41H1.41357V30.292H7.45605V31.7715H3.14941V35.1187H7.18506V36.6055H3.14941V41ZM16.3989 36.9351C16.3989 38.2583 16.0596 39.291 15.3809 40.0332C14.7021 40.7754 13.7573 41.1465 12.5464 41.1465C11.7896 41.1465 11.1206 40.9756 10.5396 40.6338C9.9585 40.292 9.51172 39.8013 9.19922 39.1616C8.88672 38.522 8.73047 37.7798 8.73047 36.9351C8.73047 35.6216 9.06738 34.5962 9.74121 33.8589C10.415 33.1216 11.3647 32.7529 12.5903 32.7529C13.7622 32.7529 14.6899 33.1313 15.3735 33.8882C16.0571 34.6401 16.3989 35.6558 16.3989 36.9351ZM10.5029 36.9351C10.5029 38.8052 11.1938 39.7402 12.5757 39.7402C13.9429 39.7402 14.6265 38.8052 14.6265 36.9351C14.6265 35.0845 13.938 34.1592 12.561 34.1592C11.8384 34.1592 11.3135 34.3984 10.9863 34.877C10.6641 35.3555 10.5029 36.0415 10.5029 36.9351ZM22.4927 32.7529C22.8394 32.7529 23.125 32.7773 23.3496 32.8262L23.1812 34.4302C22.937 34.3716 22.6831 34.3423 22.4194 34.3423C21.731 34.3423 21.1719 34.5669 20.7422 35.0161C20.3174 35.4653 20.105 36.0488 20.105 36.7666V41H18.3838V32.8994H19.7314L19.9585 34.3276H20.0464C20.3149 33.8442 20.6641 33.4609 21.0938 33.1777C21.5283 32.8945 21.9946 32.7529 22.4927 32.7529ZM31.4868 41.1465C30.4761 41.1465 29.6875 40.7803 29.1211 40.0479C28.5547 39.3154 28.2715 38.2876 28.2715 36.9644C28.2715 35.6362 28.5571 34.6035 29.1284 33.8662C29.7046 33.124 30.5005 32.7529 31.5161 32.7529C32.5806 32.7529 33.3911 33.146 33.9478 33.9321H34.0356C33.9526 33.3511 33.9111 32.8921 33.9111 32.5552V29.6035H35.6396V41H34.292L33.9917 39.938H33.9111C33.3594 40.7437 32.5513 41.1465 31.4868 41.1465ZM31.9482 39.7549C32.6562 39.7549 33.1714 39.5571 33.4937 39.1616C33.8159 38.7612 33.9819 38.1143 33.9917 37.2207V36.979C33.9917 35.9585 33.8257 35.2334 33.4937 34.8037C33.1616 34.374 32.6416 34.1592 31.9336 34.1592C31.3281 34.1592 30.8618 34.4058 30.5347 34.8989C30.2075 35.3872 30.0439 36.0854 30.0439 36.9937C30.0439 37.8921 30.2026 38.5781 30.52 39.0518C30.8374 39.5205 31.3135 39.7549 31.9482 39.7549ZM41.6382 41.1465C40.3784 41.1465 39.3921 40.7803 38.6792 40.0479C37.9712 39.3105 37.6172 38.2974 37.6172 37.0083C37.6172 35.6851 37.9468 34.645 38.606 33.8882C39.2651 33.1313 40.1709 32.7529 41.3232 32.7529C42.3926 32.7529 43.2373 33.0776 43.8574 33.7271C44.4775 34.3765 44.7876 35.27 44.7876 36.4077V37.3379H39.3896C39.4141 38.124 39.6265 38.7295 40.0269 39.1543C40.4272 39.5742 40.9912 39.7842 41.7188 39.7842C42.1973 39.7842 42.6416 39.7402 43.0518 39.6523C43.4668 39.5596 43.9111 39.4082 44.3848 39.1982V40.5972C43.9648 40.7974 43.54 40.939 43.1104 41.022C42.6807 41.105 42.1899 41.1465 41.6382 41.1465ZM41.3232 34.0566C40.7764 34.0566 40.3369 34.23 40.0049 34.5767C39.6777 34.9233 39.4824 35.4287 39.4189 36.0928H43.0957C43.0859 35.4238 42.9248 34.9185 42.6123 34.5767C42.2998 34.23 41.8701 34.0566 41.3232 34.0566ZM48.5889 41L45.5127 32.8994H47.3291L48.9771 37.6089C49.2603 38.3999 49.4312 39.0396 49.4897 39.5278H49.5483C49.5923 39.1763 49.7632 38.5366 50.061 37.6089L51.709 32.8994H53.54L50.4492 41H48.5889ZM58.3081 41.1465C57.0483 41.1465 56.062 40.7803 55.3491 40.0479C54.6411 39.3105 54.2871 38.2974 54.2871 37.0083C54.2871 35.6851 54.6167 34.645 55.2759 33.8882C55.9351 33.1313 56.8408 32.7529 57.9932 32.7529C59.0625 32.7529 59.9072 33.0776 60.5273 33.7271C61.1475 34.3765 61.4575 35.27 61.4575 36.4077V37.3379H56.0596C56.084 38.124 56.2964 38.7295 56.6968 39.1543C57.0972 39.5742 57.6611 39.7842 58.3887 39.7842C58.8672 39.7842 59.3115 39.7402 59.7217 39.6523C60.1367 39.5596 60.5811 39.4082 61.0547 39.1982V40.5972C60.6348 40.7974 60.21 40.939 59.7803 41.022C59.3506 41.105 58.8599 41.1465 58.3081 41.1465ZM57.9932 34.0566C57.4463 34.0566 57.0068 34.23 56.6748 34.5767C56.3477 34.9233 56.1523 35.4287 56.0889 36.0928H59.7656C59.7559 35.4238 59.5947 34.9185 59.2822 34.5767C58.9697 34.23 58.54 34.0566 57.9932 34.0566ZM65.1343 41H63.4131V29.6035H65.1343V41ZM74.7876 36.9351C74.7876 38.2583 74.4482 39.291 73.7695 40.0332C73.0908 40.7754 72.146 41.1465 70.9351 41.1465C70.1782 41.1465 69.5093 40.9756 68.9282 40.6338C68.3472 40.292 67.9004 39.8013 67.5879 39.1616C67.2754 38.522 67.1191 37.7798 67.1191 36.9351C67.1191 35.6216 67.4561 34.5962 68.1299 33.8589C68.8037 33.1216 69.7534 32.7529 70.979 32.7529C72.1509 32.7529 73.0786 33.1313 73.7622 33.8882C74.4458 34.6401 74.7876 35.6558 74.7876 36.9351ZM68.8916 36.9351C68.8916 38.8052 69.5825 39.7402 70.9644 39.7402C72.3315 39.7402 73.0151 38.8052 73.0151 36.9351C73.0151 35.0845 72.3267 34.1592 70.9497 34.1592C70.2271 34.1592 69.7021 34.3984 69.375 34.877C69.0527 35.3555 68.8916 36.0415 68.8916 36.9351ZM80.8813 41.1465C79.856 41.1465 79.0601 40.7778 78.4937 40.0405H78.3911C78.4595 40.7241 78.4937 41.1392 78.4937 41.2856V44.6035H76.7725V32.8994H78.1641C78.2031 33.0508 78.2837 33.4121 78.4058 33.9834H78.4937C79.0308 33.1631 79.8364 32.7529 80.9106 32.7529C81.9214 32.7529 82.7075 33.1191 83.269 33.8516C83.8354 34.584 84.1187 35.6118 84.1187 36.9351C84.1187 38.2583 83.8306 39.291 83.2544 40.0332C82.6831 40.7754 81.8921 41.1465 80.8813 41.1465ZM80.4639 34.1592C79.7803 34.1592 79.2798 34.3594 78.9624 34.7598C78.6499 35.1602 78.4937 35.7998 78.4937 36.6787V36.9351C78.4937 37.9214 78.6499 38.6367 78.9624 39.0811C79.2749 39.5205 79.7852 39.7402 80.4932 39.7402C81.0889 39.7402 81.5479 39.4961 81.8701 39.0078C82.1924 38.5195 82.3535 37.8237 82.3535 36.9204C82.3535 36.0122 82.1924 35.3262 81.8701 34.8623C81.5527 34.3936 81.084 34.1592 80.4639 34.1592ZM92.9443 41H91.2158V36.0049C91.2158 35.3848 91.0986 34.9233 90.8643 34.6206C90.6299 34.313 90.2637 34.1592 89.7656 34.1592C89.1016 34.1592 88.6133 34.3765 88.3008 34.811C87.9932 35.2407 87.8394 35.9585 87.8394 36.9644V41H86.1182V32.8994H87.4658L87.7075 33.9614H87.7954C88.02 33.5757 88.3447 33.2778 88.7695 33.0679C89.1992 32.8579 89.6704 32.7529 90.1831 32.7529C91.4282 32.7529 92.2534 33.1777 92.6587 34.0273H92.7759C93.0151 33.627 93.3521 33.3145 93.7866 33.0898C94.2212 32.8652 94.7192 32.7529 95.2808 32.7529C96.2476 32.7529 96.9507 32.9971 97.3901 33.4854C97.8345 33.9736 98.0566 34.7183 98.0566 35.7192V41H96.3354V36.0049C96.3354 35.3848 96.2158 34.9233 95.9766 34.6206C95.7422 34.313 95.376 34.1592 94.8779 34.1592C94.209 34.1592 93.7183 34.3691 93.4058 34.7891C93.0981 35.2041 92.9443 35.8438 92.9443 36.708V41ZM103.997 41.1465C102.737 41.1465 101.75 40.7803 101.038 40.0479C100.33 39.3105 99.9756 38.2974 99.9756 37.0083C99.9756 35.6851 100.305 34.645 100.964 33.8882C101.624 33.1313 102.529 32.7529 103.682 32.7529C104.751 32.7529 105.596 33.0776 106.216 33.7271C106.836 34.3765 107.146 35.27 107.146 36.4077V37.3379H101.748C101.772 38.124 101.985 38.7295 102.385 39.1543C102.786 39.5742 103.35 39.7842 104.077 39.7842C104.556 39.7842 105 39.7402 105.41 39.6523C105.825 39.5596 106.27 39.4082 106.743 39.1982V40.5972C106.323 40.7974 105.898 40.939 105.469 41.022C105.039 41.105 104.548 41.1465 103.997 41.1465ZM103.682 34.0566C103.135 34.0566 102.695 34.23 102.363 34.5767C102.036 34.9233 101.841 35.4287 101.777 36.0928H105.454C105.444 35.4238 105.283 34.9185 104.971 34.5767C104.658 34.23 104.229 34.0566 103.682 34.0566ZM116.228 41H114.5V36.0195C114.5 35.3945 114.373 34.9282 114.119 34.6206C113.87 34.313 113.472 34.1592 112.925 34.1592C112.197 34.1592 111.665 34.374 111.328 34.8037C110.991 35.2334 110.823 35.9536 110.823 36.9644V41H109.102V32.8994H110.449L110.691 33.9614H110.779C111.023 33.5757 111.37 33.2778 111.819 33.0679C112.268 32.8579 112.766 32.7529 113.313 32.7529C115.256 32.7529 116.228 33.7417 116.228 35.7192V41ZM121.641 39.7549C122.061 39.7549 122.48 39.689 122.9 39.5571V40.8535C122.71 40.9365 122.463 41.0049 122.161 41.0586C121.863 41.1172 121.553 41.1465 121.23 41.1465C119.6 41.1465 118.784 40.2871 118.784 38.5684V34.2031H117.678V33.4414L118.865 32.8115L119.451 31.0977H120.513V32.8994H122.82V34.2031H120.513V38.5391C120.513 38.9541 120.615 39.2617 120.82 39.4619C121.03 39.6572 121.304 39.7549 121.641 39.7549ZM126.313 39.4253C126.079 40.3335 125.649 41.5029 125.024 42.9336H123.757C124.094 41.6152 124.346 40.3896 124.512 39.2568H126.204L126.313 39.4253ZM134.158 41H132.437V29.6035H134.158V41ZM141.694 41L141.35 39.8721H141.292C140.901 40.3652 140.508 40.7021 140.112 40.8828C139.717 41.0586 139.209 41.1465 138.589 41.1465C137.793 41.1465 137.17 40.9316 136.721 40.502C136.277 40.0723 136.055 39.4644 136.055 38.6782C136.055 37.8433 136.365 37.2134 136.985 36.7886C137.605 36.3638 138.55 36.1318 139.819 36.0928L141.218 36.0488V35.6167C141.218 35.0991 141.096 34.7134 140.852 34.4595C140.613 34.2007 140.239 34.0713 139.731 34.0713C139.316 34.0713 138.918 34.1323 138.538 34.2544C138.157 34.3765 137.791 34.5205 137.439 34.6865L136.882 33.4561C137.322 33.2266 137.803 33.0532 138.325 32.936C138.848 32.814 139.341 32.7529 139.805 32.7529C140.835 32.7529 141.611 32.9775 142.134 33.4268C142.661 33.876 142.925 34.5815 142.925 35.5435V41H141.694ZM139.131 39.8281C139.756 39.8281 140.256 39.6548 140.632 39.3081C141.013 38.9565 141.204 38.4658 141.204 37.8359V37.1328L140.164 37.1768C139.353 37.2061 138.762 37.3428 138.391 37.5869C138.025 37.8262 137.842 38.1948 137.842 38.6929C137.842 39.0542 137.949 39.335 138.164 39.5352C138.379 39.7305 138.701 39.8281 139.131 39.8281ZM151.04 41L150.798 39.938H150.71C150.471 40.314 150.129 40.6094 149.685 40.8242C149.246 41.0391 148.743 41.1465 148.176 41.1465C147.195 41.1465 146.462 40.9023 145.979 40.4141C145.496 39.9258 145.254 39.186 145.254 38.1948V32.8994H146.99V37.8945C146.99 38.5146 147.117 38.981 147.371 39.2935C147.625 39.6011 148.022 39.7549 148.564 39.7549C149.287 39.7549 149.817 39.54 150.154 39.1104C150.496 38.6758 150.667 37.9507 150.667 36.9351V32.8994H152.395V41H151.04ZM161.975 41H160.247V36.0195C160.247 35.3945 160.12 34.9282 159.866 34.6206C159.617 34.313 159.219 34.1592 158.672 34.1592C157.944 34.1592 157.412 34.374 157.075 34.8037C156.738 35.2334 156.57 35.9536 156.57 36.9644V41H154.849V32.8994H156.196L156.438 33.9614H156.526C156.77 33.5757 157.117 33.2778 157.566 33.0679C158.015 32.8579 158.513 32.7529 159.06 32.7529C161.003 32.7529 161.975 33.7417 161.975 35.7192V41ZM167.637 41.1465C166.411 41.1465 165.479 40.79 164.839 40.0771C164.204 39.3594 163.887 38.3315 163.887 36.9937C163.887 35.6313 164.219 34.584 164.883 33.8516C165.552 33.1191 166.516 32.7529 167.776 32.7529C168.63 32.7529 169.399 32.9116 170.083 33.229L169.563 34.6133C168.835 34.3301 168.235 34.1885 167.761 34.1885C166.36 34.1885 165.659 35.1187 165.659 36.979C165.659 37.8872 165.833 38.5708 166.179 39.0298C166.531 39.4839 167.043 39.7109 167.717 39.7109C168.484 39.7109 169.209 39.5205 169.893 39.1396V40.6411C169.585 40.8218 169.255 40.9512 168.904 41.0293C168.557 41.1074 168.135 41.1465 167.637 41.1465ZM178.923 41H177.195V36.0195C177.195 35.3945 177.068 34.9282 176.814 34.6206C176.565 34.313 176.167 34.1592 175.62 34.1592C174.897 34.1592 174.365 34.3765 174.023 34.811C173.687 35.2407 173.518 35.9634 173.518 36.979V41H171.797V29.6035H173.518V32.4966C173.518 32.9604 173.489 33.4561 173.43 33.9834H173.54C173.774 33.5928 174.099 33.29 174.514 33.0752C174.934 32.8604 175.422 32.7529 175.979 32.7529C177.942 32.7529 178.923 33.7417 178.923 35.7192V41ZM183.04 41H181.318V32.8994H183.04V41ZM181.216 30.7534C181.216 30.4458 181.299 30.209 181.465 30.043C181.636 29.877 181.877 29.7939 182.19 29.7939C182.493 29.7939 182.727 29.877 182.893 30.043C183.064 30.209 183.149 30.4458 183.149 30.7534C183.149 31.0464 183.064 31.2783 182.893 31.4492C182.727 31.6152 182.493 31.6982 182.19 31.6982C181.877 31.6982 181.636 31.6152 181.465 31.4492C181.299 31.2783 181.216 31.0464 181.216 30.7534ZM192.634 41H190.906V36.0195C190.906 35.3945 190.779 34.9282 190.525 34.6206C190.276 34.313 189.878 34.1592 189.331 34.1592C188.604 34.1592 188.071 34.374 187.734 34.8037C187.397 35.2334 187.229 35.9536 187.229 36.9644V41H185.508V32.8994H186.855L187.097 33.9614H187.185C187.429 33.5757 187.776 33.2778 188.225 33.0679C188.674 32.8579 189.172 32.7529 189.719 32.7529C191.663 32.7529 192.634 33.7417 192.634 35.7192V41ZM201.87 32.8994V33.8442L200.486 34.1006C200.613 34.2715 200.718 34.4814 200.801 34.7305C200.884 34.9795 200.925 35.2432 200.925 35.5215C200.925 36.3564 200.637 37.0132 200.061 37.4917C199.485 37.9702 198.691 38.2095 197.681 38.2095C197.422 38.2095 197.188 38.1899 196.978 38.1509C196.606 38.3804 196.421 38.6489 196.421 38.9565C196.421 39.1421 196.506 39.2812 196.677 39.374C196.853 39.4668 197.173 39.5132 197.637 39.5132H199.05C199.944 39.5132 200.623 39.7036 201.086 40.0845C201.55 40.4653 201.782 41.0146 201.782 41.7324C201.782 42.6504 201.404 43.3584 200.647 43.8564C199.89 44.3545 198.796 44.6035 197.366 44.6035C196.262 44.6035 195.42 44.4082 194.839 44.0176C194.258 43.627 193.967 43.0703 193.967 42.3477C193.967 41.8496 194.124 41.4297 194.436 41.0879C194.753 40.751 195.195 40.5166 195.762 40.3848C195.532 40.2871 195.342 40.1309 195.19 39.916C195.044 39.6963 194.971 39.4668 194.971 39.2275C194.971 38.9248 195.056 38.6685 195.227 38.4585C195.398 38.2485 195.652 38.041 195.989 37.8359C195.569 37.6553 195.227 37.3623 194.963 36.957C194.705 36.5469 194.575 36.0684 194.575 35.5215C194.575 34.6426 194.851 33.9614 195.403 33.478C195.959 32.9946 196.75 32.7529 197.776 32.7529C198.005 32.7529 198.245 32.77 198.494 32.8042C198.748 32.8335 198.938 32.8652 199.065 32.8994H201.87ZM195.505 42.2598C195.505 42.6309 195.671 42.9165 196.003 43.1167C196.34 43.3169 196.812 43.417 197.417 43.417C198.354 43.417 199.053 43.2827 199.512 43.0142C199.971 42.7456 200.2 42.3892 200.2 41.9448C200.2 41.5933 200.073 41.3418 199.819 41.1904C199.57 41.0439 199.104 40.9707 198.42 40.9707H197.117C196.624 40.9707 196.23 41.0854 195.938 41.3149C195.649 41.5493 195.505 41.8643 195.505 42.2598ZM196.245 35.5215C196.245 36.0293 196.375 36.4199 196.633 36.6934C196.897 36.9668 197.273 37.1035 197.761 37.1035C198.757 37.1035 199.255 36.5713 199.255 35.5068C199.255 34.9795 199.131 34.5742 198.882 34.291C198.638 34.0029 198.264 33.8589 197.761 33.8589C197.263 33.8589 196.885 34.0005 196.626 34.2837C196.372 34.5669 196.245 34.9795 196.245 35.5215ZM212.344 41L212 39.8721H211.941C211.55 40.3652 211.157 40.7021 210.762 40.8828C210.366 41.0586 209.858 41.1465 209.238 41.1465C208.442 41.1465 207.82 40.9316 207.371 40.502C206.926 40.0723 206.704 39.4644 206.704 38.6782C206.704 37.8433 207.014 37.2134 207.634 36.7886C208.254 36.3638 209.199 36.1318 210.469 36.0928L211.868 36.0488V35.6167C211.868 35.0991 211.746 34.7134 211.501 34.4595C211.262 34.2007 210.889 34.0713 210.381 34.0713C209.966 34.0713 209.568 34.1323 209.187 34.2544C208.806 34.3765 208.44 34.5205 208.088 34.6865L207.532 33.4561C207.971 33.2266 208.452 33.0532 208.975 32.936C209.497 32.814 209.99 32.7529 210.454 32.7529C211.484 32.7529 212.261 32.9775 212.783 33.4268C213.311 33.876 213.574 34.5815 213.574 35.5435V41H212.344ZM209.78 39.8281C210.405 39.8281 210.906 39.6548 211.282 39.3081C211.663 38.9565 211.853 38.4658 211.853 37.8359V37.1328L210.813 37.1768C210.002 37.2061 209.412 37.3428 209.041 37.5869C208.674 37.8262 208.491 38.1948 208.491 38.6929C208.491 39.0542 208.599 39.335 208.813 39.5352C209.028 39.7305 209.351 39.8281 209.78 39.8281ZM223.103 41H221.375V36.0195C221.375 35.3945 221.248 34.9282 220.994 34.6206C220.745 34.313 220.347 34.1592 219.8 34.1592C219.072 34.1592 218.54 34.374 218.203 34.8037C217.866 35.2334 217.698 35.9536 217.698 36.9644V41H215.977V32.8994H217.324L217.566 33.9614H217.654C217.898 33.5757 218.245 33.2778 218.694 33.0679C219.143 32.8579 219.641 32.7529 220.188 32.7529C222.131 32.7529 223.103 33.7417 223.103 35.7192V41ZM228.23 41.1465C227.219 41.1465 226.431 40.7803 225.864 40.0479C225.298 39.3154 225.015 38.2876 225.015 36.9644C225.015 35.6362 225.3 34.6035 225.872 33.8662C226.448 33.124 227.244 32.7529 228.259 32.7529C229.324 32.7529 230.134 33.146 230.691 33.9321H230.779C230.696 33.3511 230.654 32.8921 230.654 32.5552V29.6035H232.383V41H231.035L230.735 39.938H230.654C230.103 40.7437 229.294 41.1465 228.23 41.1465ZM228.691 39.7549C229.399 39.7549 229.915 39.5571 230.237 39.1616C230.559 38.7612 230.725 38.1143 230.735 37.2207V36.979C230.735 35.9585 230.569 35.2334 230.237 34.8037C229.905 34.374 229.385 34.1592 228.677 34.1592C228.071 34.1592 227.605 34.4058 227.278 34.8989C226.951 35.3872 226.787 36.0854 226.787 36.9937C226.787 37.8921 226.946 38.5781 227.263 39.0518C227.581 39.5205 228.057 39.7549 228.691 39.7549ZM242.849 32.7529C243.196 32.7529 243.481 32.7773 243.706 32.8262L243.538 34.4302C243.293 34.3716 243.04 34.3423 242.776 34.3423C242.087 34.3423 241.528 34.5669 241.099 35.0161C240.674 35.4653 240.461 36.0488 240.461 36.7666V41H238.74V32.8994H240.088L240.315 34.3276H240.403C240.671 33.8442 241.021 33.4609 241.45 33.1777C241.885 32.8945 242.351 32.7529 242.849 32.7529ZM248.752 41.1465C247.493 41.1465 246.506 40.7803 245.793 40.0479C245.085 39.3105 244.731 38.2974 244.731 37.0083C244.731 35.6851 245.061 34.645 245.72 33.8882C246.379 33.1313 247.285 32.7529 248.438 32.7529C249.507 32.7529 250.352 33.0776 250.972 33.7271C251.592 34.3765 251.902 35.27 251.902 36.4077V37.3379H246.504C246.528 38.124 246.741 38.7295 247.141 39.1543C247.542 39.5742 248.105 39.7842 248.833 39.7842C249.312 39.7842 249.756 39.7402 250.166 39.6523C250.581 39.5596 251.025 39.4082 251.499 39.1982V40.5972C251.079 40.7974 250.654 40.939 250.225 41.022C249.795 41.105 249.304 41.1465 248.752 41.1465ZM248.438 34.0566C247.891 34.0566 247.451 34.23 247.119 34.5767C246.792 34.9233 246.597 35.4287 246.533 36.0928H250.21C250.2 35.4238 250.039 34.9185 249.727 34.5767C249.414 34.23 248.984 34.0566 248.438 34.0566ZM255.703 41L252.627 32.8994H254.443L256.091 37.6089C256.375 38.3999 256.545 39.0396 256.604 39.5278H256.663C256.707 39.1763 256.877 38.5366 257.175 37.6089L258.823 32.8994H260.654L257.563 41H255.703ZM263.606 41H261.885V32.8994H263.606V41ZM261.782 30.7534C261.782 30.4458 261.865 30.209 262.031 30.043C262.202 29.877 262.444 29.7939 262.756 29.7939C263.059 29.7939 263.293 29.877 263.459 30.043C263.63 30.209 263.716 30.4458 263.716 30.7534C263.716 31.0464 263.63 31.2783 263.459 31.4492C263.293 31.6152 263.059 31.6982 262.756 31.6982C262.444 31.6982 262.202 31.6152 262.031 31.4492C261.865 31.2783 261.782 31.0464 261.782 30.7534ZM271.516 38.6929C271.516 39.4839 271.228 40.0918 270.652 40.5166C270.076 40.9365 269.25 41.1465 268.176 41.1465C267.097 41.1465 266.23 40.9829 265.576 40.6558V39.1689C266.528 39.6084 267.415 39.8281 268.235 39.8281C269.294 39.8281 269.824 39.5083 269.824 38.8687C269.824 38.6636 269.766 38.4927 269.648 38.356C269.531 38.2192 269.338 38.0776 269.07 37.9312C268.801 37.7847 268.428 37.6187 267.949 37.4331C267.017 37.0718 266.384 36.7104 266.052 36.3491C265.725 35.9878 265.562 35.519 265.562 34.9429C265.562 34.2495 265.84 33.7124 266.396 33.3315C266.958 32.9458 267.72 32.7529 268.682 32.7529C269.634 32.7529 270.535 32.9458 271.384 33.3315L270.828 34.6279C269.954 34.2666 269.219 34.0859 268.623 34.0859C267.715 34.0859 267.261 34.3447 267.261 34.8623C267.261 35.1162 267.378 35.3311 267.612 35.5068C267.852 35.6826 268.369 35.9243 269.165 36.2319C269.834 36.4907 270.32 36.7275 270.623 36.9424C270.925 37.1572 271.15 37.4062 271.296 37.6895C271.443 37.9678 271.516 38.3022 271.516 38.6929ZM275.105 41H273.384V32.8994H275.105V41ZM273.281 30.7534C273.281 30.4458 273.364 30.209 273.53 30.043C273.701 29.877 273.943 29.7939 274.255 29.7939C274.558 29.7939 274.792 29.877 274.958 30.043C275.129 30.209 275.215 30.4458 275.215 30.7534C275.215 31.0464 275.129 31.2783 274.958 31.4492C274.792 31.6152 274.558 31.6982 274.255 31.6982C273.943 31.6982 273.701 31.6152 273.53 31.4492C273.364 31.2783 273.281 31.0464 273.281 30.7534ZM284.758 36.9351C284.758 38.2583 284.419 39.291 283.74 40.0332C283.062 40.7754 282.117 41.1465 280.906 41.1465C280.149 41.1465 279.48 40.9756 278.899 40.6338C278.318 40.292 277.871 39.8013 277.559 39.1616C277.246 38.522 277.09 37.7798 277.09 36.9351C277.09 35.6216 277.427 34.5962 278.101 33.8589C278.774 33.1216 279.724 32.7529 280.95 32.7529C282.122 32.7529 283.049 33.1313 283.733 33.8882C284.417 34.6401 284.758 35.6558 284.758 36.9351ZM278.862 36.9351C278.862 38.8052 279.553 39.7402 280.935 39.7402C282.302 39.7402 282.986 38.8052 282.986 36.9351C282.986 35.0845 282.297 34.1592 280.92 34.1592C280.198 34.1592 279.673 34.3984 279.346 34.877C279.023 35.3555 278.862 36.0415 278.862 36.9351ZM293.87 41H292.141V36.0195C292.141 35.3945 292.014 34.9282 291.76 34.6206C291.511 34.313 291.113 34.1592 290.566 34.1592C289.839 34.1592 289.307 34.374 288.97 34.8037C288.633 35.2334 288.464 35.9536 288.464 36.9644V41H286.743V32.8994H288.091L288.333 33.9614H288.42C288.665 33.5757 289.011 33.2778 289.46 33.0679C289.91 32.8579 290.408 32.7529 290.955 32.7529C292.898 32.7529 293.87 33.7417 293.87 35.7192V41Z" transform="translate(44 28)" fill="white"/>
<path d="M34.0566 14.4375C33.6986 14.4375 33.3145 14.5482 32.9043 14.7695C32.5007 14.9844 32.123 15.2676 31.7715 15.6191V13.3633C32.4421 12.6536 33.2754 12.2988 34.2715 12.2988C34.7467 12.2988 35.1927 12.3509 35.6094 12.4551C36.0326 12.5592 36.4883 12.7155 36.9766 12.9238C37.8164 13.2819 38.5553 13.4609 39.1934 13.4609C39.5384 13.4609 39.916 13.3568 40.3262 13.1484C40.7363 12.9401 41.1172 12.6504 41.4688 12.2793V14.5352C40.8112 15.2448 39.9779 15.5996 38.9688 15.5996C38.5391 15.5996 38.1289 15.5573 37.7383 15.4727C37.3477 15.388 36.8594 15.2253 36.2734 14.9844C35.4206 14.6198 34.6816 14.4375 34.0566 14.4375ZM55.002 16.5371C55.002 17.5723 54.6276 18.4056 53.8789 19.0371C53.1302 19.6621 52.082 20.0365 50.7344 20.1602V22.1621H49.3965V20.1992C47.8079 20.1667 46.4147 19.8867 45.2168 19.3594V16.7812C45.7832 17.0612 46.4635 17.3086 47.2578 17.5234C48.0586 17.7383 48.7715 17.8652 49.3965 17.9043V14.877L48.7422 14.623C47.4531 14.1152 46.5384 13.5651 45.998 12.9727C45.4642 12.3737 45.1973 11.6348 45.1973 10.7559C45.1973 9.81185 45.5651 9.03711 46.3008 8.43164C47.043 7.81966 48.0749 7.44857 49.3965 7.31836V5.82422H50.7344V7.2793C52.2253 7.3444 53.5729 7.64388 54.7773 8.17773L53.8594 10.4629C52.8438 10.0462 51.8021 9.79232 50.7344 9.70117V12.582C52.0039 13.0703 52.9056 13.4935 53.4395 13.8516C53.9798 14.2096 54.3737 14.6035 54.6211 15.0332C54.875 15.4629 55.002 15.9642 55.002 16.5371ZM52.0625 16.6836C52.0625 16.4102 51.9518 16.179 51.7305 15.9902C51.5091 15.8014 51.1771 15.6061 50.7344 15.4043V17.8359C51.6198 17.6862 52.0625 17.3021 52.0625 16.6836ZM48.1367 10.7559C48.1367 11.0423 48.2344 11.2799 48.4297 11.4688C48.6315 11.651 48.9538 11.8398 49.3965 12.0352V9.74023C48.5566 9.86393 48.1367 10.2025 48.1367 10.7559ZM63.7598 11.8789C65.14 11.8789 66.237 12.2663 67.0508 13.041C67.8711 13.8158 68.2812 14.877 68.2812 16.2246C68.2812 17.8197 67.7897 19.0469 66.8066 19.9062C65.8236 20.7656 64.4173 21.1953 62.5879 21.1953C60.9993 21.1953 59.7168 20.9382 58.7402 20.4238V17.8164C59.2546 18.0898 59.8535 18.3145 60.5371 18.4902C61.2207 18.6595 61.8685 18.7441 62.4805 18.7441C64.3229 18.7441 65.2441 17.9889 65.2441 16.4785C65.2441 15.0397 64.2904 14.3203 62.3828 14.3203C62.0378 14.3203 61.6569 14.3561 61.2402 14.4277C60.8236 14.4928 60.485 14.5645 60.2246 14.6426L59.0234 13.998L59.5605 6.72266H67.3047V9.28125H62.207L61.9434 12.084L62.2852 12.0156C62.6823 11.9245 63.1738 11.8789 63.7598 11.8789ZM79.8926 13.8613C79.8926 16.3548 79.4824 18.2005 78.6621 19.3984C77.8483 20.5964 76.5918 21.1953 74.8926 21.1953C73.2454 21.1953 72.002 20.5768 71.1621 19.3398C70.3288 18.1029 69.9121 16.2767 69.9121 13.8613C69.9121 11.3418 70.319 9.48633 71.1328 8.29492C71.9466 7.09701 73.1999 6.49805 74.8926 6.49805C76.5397 6.49805 77.7832 7.12305 78.623 8.37305C79.4694 9.62305 79.8926 11.4525 79.8926 13.8613ZM72.9102 13.8613C72.9102 15.6126 73.0599 16.8691 73.3594 17.6309C73.6654 18.3861 74.1764 18.7637 74.8926 18.7637C75.5957 18.7637 76.1035 18.3796 76.416 17.6113C76.7285 16.8431 76.8848 15.5931 76.8848 13.8613C76.8848 12.11 76.7253 10.8535 76.4062 10.0918C76.0938 9.32357 75.5892 8.93945 74.8926 8.93945C74.1829 8.93945 73.6751 9.32357 73.3691 10.0918C73.0632 10.8535 72.9102 12.11 72.9102 13.8613ZM96.5137 13.8613C96.5137 16.3548 96.1035 18.2005 95.2832 19.3984C94.4694 20.5964 93.2129 21.1953 91.5137 21.1953C89.8665 21.1953 88.623 20.5768 87.7832 19.3398C86.9499 18.1029 86.5332 16.2767 86.5332 13.8613C86.5332 11.3418 86.9401 9.48633 87.7539 8.29492C88.5677 7.09701 89.821 6.49805 91.5137 6.49805C93.1608 6.49805 94.4043 7.12305 95.2441 8.37305C96.0905 9.62305 96.5137 11.4525 96.5137 13.8613ZM89.5312 13.8613C89.5312 15.6126 89.681 16.8691 89.9805 17.6309C90.2865 18.3861 90.7975 18.7637 91.5137 18.7637C92.2168 18.7637 92.7246 18.3796 93.0371 17.6113C93.3496 16.8431 93.5059 15.5931 93.5059 13.8613C93.5059 12.11 93.3464 10.8535 93.0273 10.0918C92.7148 9.32357 92.2103 8.93945 91.5137 8.93945C90.804 8.93945 90.2962 9.32357 89.9902 10.0918C89.6842 10.8535 89.5312 12.11 89.5312 13.8613ZM107.939 13.8613C107.939 16.3548 107.529 18.2005 106.709 19.3984C105.895 20.5964 104.639 21.1953 102.939 21.1953C101.292 21.1953 100.049 20.5768 99.209 19.3398C98.3757 18.1029 97.959 16.2767 97.959 13.8613C97.959 11.3418 98.3659 9.48633 99.1797 8.29492C99.9935 7.09701 101.247 6.49805 102.939 6.49805C104.587 6.49805 105.83 7.12305 106.67 8.37305C107.516 9.62305 107.939 11.4525 107.939 13.8613ZM100.957 13.8613C100.957 15.6126 101.107 16.8691 101.406 17.6309C101.712 18.3861 102.223 18.7637 102.939 18.7637C103.643 18.7637 104.15 18.3796 104.463 17.6113C104.775 16.8431 104.932 15.5931 104.932 13.8613C104.932 12.11 104.772 10.8535 104.453 10.0918C104.141 9.32357 103.636 8.93945 102.939 8.93945C102.23 8.93945 101.722 9.32357 101.416 10.0918C101.11 10.8535 100.957 12.11 100.957 13.8613ZM119.365 13.8613C119.365 16.3548 118.955 18.2005 118.135 19.3984C117.321 20.5964 116.064 21.1953 114.365 21.1953C112.718 21.1953 111.475 20.5768 110.635 19.3398C109.801 18.1029 109.385 16.2767 109.385 13.8613C109.385 11.3418 109.792 9.48633 110.605 8.29492C111.419 7.09701 112.673 6.49805 114.365 6.49805C116.012 6.49805 117.256 7.12305 118.096 8.37305C118.942 9.62305 119.365 11.4525 119.365 13.8613ZM112.383 13.8613C112.383 15.6126 112.533 16.8691 112.832 17.6309C113.138 18.3861 113.649 18.7637 114.365 18.7637C115.068 18.7637 115.576 18.3796 115.889 17.6113C116.201 16.8431 116.357 15.5931 116.357 13.8613C116.357 12.11 116.198 10.8535 115.879 10.0918C115.566 9.32357 115.062 8.93945 114.365 8.93945C113.656 8.93945 113.148 9.32357 112.842 10.0918C112.536 10.8535 112.383 12.11 112.383 13.8613Z" transform="translate(133 105)" fill="#122244"/>
<path d="M6.43262 31.6396C5.42676 31.6396 4.63574 31.9961 4.05957 32.709C3.4834 33.4219 3.19531 34.4058 3.19531 35.6606C3.19531 36.9741 3.47119 37.9678 4.02295 38.6416C4.57959 39.3154 5.38281 39.6523 6.43262 39.6523C6.88672 39.6523 7.32617 39.6084 7.75098 39.5205C8.17578 39.4277 8.61768 39.3105 9.07666 39.1689V40.6704C8.23682 40.9878 7.28467 41.1465 6.22021 41.1465C4.65283 41.1465 3.44922 40.6729 2.60938 39.7256C1.76953 38.7734 1.34961 37.4136 1.34961 35.646C1.34961 34.5327 1.55225 33.5586 1.95752 32.7236C2.36768 31.8887 2.9585 31.249 3.72998 30.8047C4.50146 30.3604 5.40723 30.1382 6.44727 30.1382C7.54102 30.1382 8.55176 30.3677 9.47949 30.8267L8.84961 32.2842C8.48828 32.1133 8.10498 31.9644 7.69971 31.8374C7.29932 31.7056 6.87695 31.6396 6.43262 31.6396ZM18.3857 36.9351C18.3857 38.2583 18.0464 39.291 17.3677 40.0332C16.689 40.7754 15.7441 41.1465 14.5332 41.1465C13.7764 41.1465 13.1074 40.9756 12.5264 40.6338C11.9453 40.292 11.4985 39.8013 11.186 39.1616C10.8735 38.522 10.7173 37.7798 10.7173 36.9351C10.7173 35.6216 11.0542 34.5962 11.728 33.8589C12.4019 33.1216 13.3516 32.7529 14.5771 32.7529C15.749 32.7529 16.6768 33.1313 17.3604 33.8882C18.0439 34.6401 18.3857 35.6558 18.3857 36.9351ZM12.4897 36.9351C12.4897 38.8052 13.1807 39.7402 14.5625 39.7402C15.9297 39.7402 16.6133 38.8052 16.6133 36.9351C16.6133 35.0845 15.9248 34.1592 14.5479 34.1592C13.8252 34.1592 13.3003 34.3984 12.9731 34.877C12.6509 35.3555 12.4897 36.0415 12.4897 36.9351ZM25.8125 38.6929C25.8125 39.4839 25.5244 40.0918 24.9482 40.5166C24.3721 40.9365 23.5469 41.1465 22.4727 41.1465C21.3936 41.1465 20.5269 40.9829 19.8726 40.6558V39.1689C20.8247 39.6084 21.7109 39.8281 22.5312 39.8281C23.5908 39.8281 24.1206 39.5083 24.1206 38.8687C24.1206 38.6636 24.062 38.4927 23.9448 38.356C23.8276 38.2192 23.6348 38.0776 23.3662 37.9312C23.0977 37.7847 22.7241 37.6187 22.2456 37.4331C21.313 37.0718 20.6807 36.7104 20.3486 36.3491C20.0215 35.9878 19.8579 35.519 19.8579 34.9429C19.8579 34.2495 20.1362 33.7124 20.6929 33.3315C21.2544 32.9458 22.0161 32.7529 22.978 32.7529C23.9302 32.7529 24.8311 32.9458 25.6807 33.3315L25.124 34.6279C24.25 34.2666 23.5151 34.0859 22.9194 34.0859C22.0112 34.0859 21.5571 34.3447 21.5571 34.8623C21.5571 35.1162 21.6743 35.3311 21.9087 35.5068C22.1479 35.6826 22.6655 35.9243 23.4614 36.2319C24.1304 36.4907 24.6162 36.7275 24.9189 36.9424C25.2217 37.1572 25.4463 37.4062 25.5928 37.6895C25.7393 37.9678 25.8125 38.3022 25.8125 38.6929ZM30.6978 39.7549C31.1177 39.7549 31.5376 39.689 31.9575 39.5571V40.8535C31.7671 40.9365 31.5205 41.0049 31.2178 41.0586C30.9199 41.1172 30.6099 41.1465 30.2876 41.1465C28.6567 41.1465 27.8413 40.2871 27.8413 38.5684V34.2031H26.7354V33.4414L27.9219 32.8115L28.5078 31.0977H29.5698V32.8994H31.877V34.2031H29.5698V38.5391C29.5698 38.9541 29.6724 39.2617 29.8774 39.4619C30.0874 39.6572 30.3608 39.7549 30.6978 39.7549ZM44.665 36.9351C44.665 38.2583 44.3257 39.291 43.647 40.0332C42.9683 40.7754 42.0234 41.1465 40.8125 41.1465C40.0557 41.1465 39.3867 40.9756 38.8057 40.6338C38.2246 40.292 37.7778 39.8013 37.4653 39.1616C37.1528 38.522 36.9966 37.7798 36.9966 36.9351C36.9966 35.6216 37.3335 34.5962 38.0073 33.8589C38.6812 33.1216 39.6309 32.7529 40.8564 32.7529C42.0283 32.7529 42.9561 33.1313 43.6396 33.8882C44.3232 34.6401 44.665 35.6558 44.665 36.9351ZM38.769 36.9351C38.769 38.8052 39.46 39.7402 40.8418 39.7402C42.209 39.7402 42.8926 38.8052 42.8926 36.9351C42.8926 35.0845 42.2041 34.1592 40.8271 34.1592C40.1045 34.1592 39.5796 34.3984 39.2524 34.877C38.9302 35.3555 38.769 36.0415 38.769 36.9351ZM50.7148 34.2031H48.7373V41H47.0088V34.2031H45.6758V33.3975L47.0088 32.8701V32.3428C47.0088 31.3857 47.2334 30.6777 47.6826 30.2188C48.1318 29.7549 48.8179 29.5229 49.7407 29.5229C50.3462 29.5229 50.9419 29.623 51.5278 29.8232L51.0737 31.127C50.6489 30.9902 50.2437 30.9219 49.8579 30.9219C49.4673 30.9219 49.1816 31.0439 49.001 31.2881C48.8252 31.5273 48.7373 31.8887 48.7373 32.3721V32.8994H50.7148V34.2031ZM58.7275 41.1465C57.7168 41.1465 56.9282 40.7803 56.3618 40.0479C55.7954 39.3154 55.5122 38.2876 55.5122 36.9644C55.5122 35.6362 55.7979 34.6035 56.3691 33.8662C56.9453 33.124 57.7412 32.7529 58.7568 32.7529C59.8213 32.7529 60.6318 33.146 61.1885 33.9321H61.2764C61.1934 33.3511 61.1519 32.8921 61.1519 32.5552V29.6035H62.8804V41H61.5327L61.2324 39.938H61.1519C60.6001 40.7437 59.792 41.1465 58.7275 41.1465ZM59.189 39.7549C59.897 39.7549 60.4121 39.5571 60.7344 39.1616C61.0566 38.7612 61.2227 38.1143 61.2324 37.2207V36.979C61.2324 35.9585 61.0664 35.2334 60.7344 34.8037C60.4023 34.374 59.8823 34.1592 59.1743 34.1592C58.5688 34.1592 58.1025 34.4058 57.7754 34.8989C57.4482 35.3872 57.2847 36.0854 57.2847 36.9937C57.2847 37.8921 57.4434 38.5781 57.7607 39.0518C58.0781 39.5205 58.5542 39.7549 59.189 39.7549ZM68.8789 41.1465C67.6191 41.1465 66.6328 40.7803 65.9199 40.0479C65.2119 39.3105 64.8579 38.2974 64.8579 37.0083C64.8579 35.6851 65.1875 34.645 65.8467 33.8882C66.5059 33.1313 67.4116 32.7529 68.564 32.7529C69.6333 32.7529 70.478 33.0776 71.0981 33.7271C71.7183 34.3765 72.0283 35.27 72.0283 36.4077V37.3379H66.6304C66.6548 38.124 66.8672 38.7295 67.2676 39.1543C67.668 39.5742 68.2319 39.7842 68.9595 39.7842C69.438 39.7842 69.8823 39.7402 70.2925 39.6523C70.7075 39.5596 71.1519 39.4082 71.6255 39.1982V40.5972C71.2056 40.7974 70.7808 40.939 70.3511 41.022C69.9214 41.105 69.4307 41.1465 68.8789 41.1465ZM68.564 34.0566C68.0171 34.0566 67.5776 34.23 67.2456 34.5767C66.9185 34.9233 66.7231 35.4287 66.6597 36.0928H70.3364C70.3267 35.4238 70.1655 34.9185 69.853 34.5767C69.5405 34.23 69.1108 34.0566 68.564 34.0566ZM75.8296 41L72.7534 32.8994H74.5698L76.2178 37.6089C76.501 38.3999 76.6719 39.0396 76.7305 39.5278H76.7891C76.833 39.1763 77.0039 38.5366 77.3018 37.6089L78.9497 32.8994H80.7808L77.6899 41H75.8296ZM85.5488 41.1465C84.2891 41.1465 83.3027 40.7803 82.5898 40.0479C81.8818 39.3105 81.5278 38.2974 81.5278 37.0083C81.5278 35.6851 81.8574 34.645 82.5166 33.8882C83.1758 33.1313 84.0815 32.7529 85.2339 32.7529C86.3032 32.7529 87.1479 33.0776 87.7681 33.7271C88.3882 34.3765 88.6982 35.27 88.6982 36.4077V37.3379H83.3003C83.3247 38.124 83.5371 38.7295 83.9375 39.1543C84.3379 39.5742 84.9019 39.7842 85.6294 39.7842C86.1079 39.7842 86.5522 39.7402 86.9624 39.6523C87.3774 39.5596 87.8218 39.4082 88.2954 39.1982V40.5972C87.8755 40.7974 87.4507 40.939 87.021 41.022C86.5913 41.105 86.1006 41.1465 85.5488 41.1465ZM85.2339 34.0566C84.687 34.0566 84.2476 34.23 83.9155 34.5767C83.5884 34.9233 83.3931 35.4287 83.3296 36.0928H87.0063C86.9966 35.4238 86.8354 34.9185 86.5229 34.5767C86.2104 34.23 85.7808 34.0566 85.2339 34.0566ZM92.375 41H90.6538V29.6035H92.375V41ZM102.028 36.9351C102.028 38.2583 101.689 39.291 101.01 40.0332C100.332 40.7754 99.3867 41.1465 98.1758 41.1465C97.4189 41.1465 96.75 40.9756 96.1689 40.6338C95.5879 40.292 95.1411 39.8013 94.8286 39.1616C94.5161 38.522 94.3599 37.7798 94.3599 36.9351C94.3599 35.6216 94.6968 34.5962 95.3706 33.8589C96.0444 33.1216 96.9941 32.7529 98.2197 32.7529C99.3916 32.7529 100.319 33.1313 101.003 33.8882C101.687 34.6401 102.028 35.6558 102.028 36.9351ZM96.1323 36.9351C96.1323 38.8052 96.8232 39.7402 98.2051 39.7402C99.5723 39.7402 100.256 38.8052 100.256 36.9351C100.256 35.0845 99.5674 34.1592 98.1904 34.1592C97.4678 34.1592 96.9429 34.3984 96.6157 34.877C96.2935 35.3555 96.1323 36.0415 96.1323 36.9351ZM108.122 41.1465C107.097 41.1465 106.301 40.7778 105.734 40.0405H105.632C105.7 40.7241 105.734 41.1392 105.734 41.2856V44.6035H104.013V32.8994H105.405C105.444 33.0508 105.524 33.4121 105.646 33.9834H105.734C106.271 33.1631 107.077 32.7529 108.151 32.7529C109.162 32.7529 109.948 33.1191 110.51 33.8516C111.076 34.584 111.359 35.6118 111.359 36.9351C111.359 38.2583 111.071 39.291 110.495 40.0332C109.924 40.7754 109.133 41.1465 108.122 41.1465ZM107.705 34.1592C107.021 34.1592 106.521 34.3594 106.203 34.7598C105.891 35.1602 105.734 35.7998 105.734 36.6787V36.9351C105.734 37.9214 105.891 38.6367 106.203 39.0811C106.516 39.5205 107.026 39.7402 107.734 39.7402C108.33 39.7402 108.789 39.4961 109.111 39.0078C109.433 38.5195 109.594 37.8237 109.594 36.9204C109.594 36.0122 109.433 35.3262 109.111 34.8623C108.793 34.3936 108.325 34.1592 107.705 34.1592ZM120.185 41H118.457V36.0049C118.457 35.3848 118.339 34.9233 118.105 34.6206C117.871 34.313 117.504 34.1592 117.006 34.1592C116.342 34.1592 115.854 34.3765 115.542 34.811C115.234 35.2407 115.08 35.9585 115.08 36.9644V41H113.359V32.8994H114.707L114.948 33.9614H115.036C115.261 33.5757 115.585 33.2778 116.01 33.0679C116.44 32.8579 116.911 32.7529 117.424 32.7529C118.669 32.7529 119.494 33.1777 119.899 34.0273H120.017C120.256 33.627 120.593 33.3145 121.027 33.0898C121.462 32.8652 121.96 32.7529 122.521 32.7529C123.488 32.7529 124.191 32.9971 124.631 33.4854C125.075 33.9736 125.297 34.7183 125.297 35.7192V41H123.576V36.0049C123.576 35.3848 123.457 34.9233 123.217 34.6206C122.983 34.313 122.617 34.1592 122.119 34.1592C121.45 34.1592 120.959 34.3691 120.646 34.7891C120.339 35.2041 120.185 35.8438 120.185 36.708V41ZM131.237 41.1465C129.978 41.1465 128.991 40.7803 128.278 40.0479C127.57 39.3105 127.216 38.2974 127.216 37.0083C127.216 35.6851 127.546 34.645 128.205 33.8882C128.864 33.1313 129.77 32.7529 130.922 32.7529C131.992 32.7529 132.836 33.0776 133.457 33.7271C134.077 34.3765 134.387 35.27 134.387 36.4077V37.3379H128.989C129.013 38.124 129.226 38.7295 129.626 39.1543C130.026 39.5742 130.59 39.7842 131.318 39.7842C131.796 39.7842 132.241 39.7402 132.651 39.6523C133.066 39.5596 133.51 39.4082 133.984 39.1982V40.5972C133.564 40.7974 133.139 40.939 132.709 41.022C132.28 41.105 131.789 41.1465 131.237 41.1465ZM130.922 34.0566C130.375 34.0566 129.936 34.23 129.604 34.5767C129.277 34.9233 129.082 35.4287 129.018 36.0928H132.695C132.685 35.4238 132.524 34.9185 132.211 34.5767C131.899 34.23 131.469 34.0566 130.922 34.0566ZM143.469 41H141.74V36.0195C141.74 35.3945 141.613 34.9282 141.359 34.6206C141.11 34.313 140.712 34.1592 140.166 34.1592C139.438 34.1592 138.906 34.374 138.569 34.8037C138.232 35.2334 138.063 35.9536 138.063 36.9644V41H136.342V32.8994H137.69L137.932 33.9614H138.02C138.264 33.5757 138.61 33.2778 139.06 33.0679C139.509 32.8579 140.007 32.7529 140.554 32.7529C142.497 32.7529 143.469 33.7417 143.469 35.7192V41ZM148.881 39.7549C149.301 39.7549 149.721 39.689 150.141 39.5571V40.8535C149.951 40.9365 149.704 41.0049 149.401 41.0586C149.104 41.1172 148.793 41.1465 148.471 41.1465C146.84 41.1465 146.025 40.2871 146.025 38.5684V34.2031H144.919V33.4414L146.105 32.8115L146.691 31.0977H147.753V32.8994H150.061V34.2031H147.753V38.5391C147.753 38.9541 147.856 39.2617 148.061 39.4619C148.271 39.6572 148.544 39.7549 148.881 39.7549Z" transform="translate(133 105)" fill="#70708A"/>
<defs>
<filter id="filter0_d" x="0" y="0" width="416" height="134" filterUnits="userSpaceOnUse" color-interpolation-filters="sRGB">
<feFlood flood-opacity="0" result="BackgroundImageFix"/>
<feColorMatrix in="SourceAlpha" type="matrix" values="0 0 0 0 0 0 0 0 0 0 0 0 0 0 0 0 0 0 255 0"/>
<feOffset dy="10"/>
<feGaussianBlur stdDeviation="20"/>
<feColorMatrix type="matrix" values="0 0 0 0 0.735808 0 0 0 0 0.132445 0 0 0 0 0 0 0 0 0.3 0"/>
<feBlend mode="normal" in2="BackgroundImageFix" result="effect1_dropShadow"/>
<feBlend mode="normal" in="SourceGraphic" in2="effect1_dropShadow" result="shape"/>
</filter>
<linearGradient id="paint0_linear" x2="1" gradientUnits="userSpaceOnUse" gradientTransform="translate(0.000119638 -2737) scale(74 5476)">
<stop stop-color="#ED3838"/>
<stop offset="1" stop-color="#D72B2B"/>
</linearGradient>
<linearGradient id="paint1_linear" x2="1" gradientUnits="userSpaceOnUse" gradientTransform="translate(0.000119638 -2737) scale(74 5476)">
<stop stop-color="#ED3838"/>
<stop offset="1" stop-color="#D72B2B"/>
</linearGradient>
<linearGradient id="paint2_linear" x2="1" gradientUnits="userSpaceOnUse" gradientTransform="translate(0.000119638 -2737) scale(74 5476)">
<stop stop-color="#ED3838"/>
<stop offset="1" stop-color="#D72B2B"/>
</linearGradient>
</defs>
</svg>
