<svg width="24" height="24" viewBox="0 0 24 24" fill="none" xmlns="http://www.w3.org/2000/svg">
<path d="M13.09 2.99148C12.39 1.96148 11.59 1.00148 10.69 0.141477C10.34 -0.198523 9.75 0.121477 9.85 0.601477C10.04 1.54148 10.24 2.78148 10.24 3.89148C10.24 5.95148 8.89 7.62148 6.83 7.62148C5.29 7.62148 4.03 6.69148 3.48 5.36148C3.38 5.16148 3.34 5.04148 3.28 4.82148C3.17 4.40148 2.62 4.27148 2.38 4.64148C2.2 4.91148 2.03 5.18148 1.87 5.47148C0.68 7.51148 0 9.89148 0 12.4315C0 16.8515 3.58 20.4315 8 20.4315C12.42 20.4315 16 16.8515 16 12.4315C16 8.94148 14.92 5.70148 13.09 2.99148ZM7.71 17.4315C5.93 17.4315 4.49 16.0315 4.49 14.2915C4.49 12.6715 5.54 11.5315 7.3 11.1715C8.77 10.8715 10.28 10.2415 11.33 9.25148C11.61 8.99148 12.07 9.11148 12.15 9.48148C12.38 10.5015 12.5 11.5615 12.5 12.6315C12.51 15.2815 10.36 17.4315 7.71 17.4315Z" transform="translate(4 1.56854)" fill="#E9E6F5"/>
</svg>
