<svg width="24" height="14" viewBox="0 0 24 14" fill="none" xmlns="http://www.w3.org/2000/svg">
<path d="M16.4725 0.301262C16.0825 -0.0887379 15.4525 -0.0887379 15.0625 0.301262L9.4225 5.94126L10.8325 7.35126L16.4725 1.70126C16.8525 1.32126 16.8525 0.681262 16.4725 0.301262ZM20.7125 0.291262L10.8325 10.1713L7.3525 6.70126C6.9625 6.31126 6.3325 6.31126 5.9425 6.70126C5.5525 7.09126 5.5525 7.72126 5.9425 8.11126L10.1225 12.2913C10.5125 12.6813 11.1425 12.6813 11.5325 12.2913L22.1225 1.71126C22.5125 1.32126 22.5125 0.691262 22.1225 0.301262H22.1125C21.7325 -0.098738 21.1025 -0.0987382 20.7125 0.291262ZM0.2925 8.12126L4.4725 12.3013C4.8625 12.6913 5.4925 12.6913 5.8825 12.3013L6.5825 11.6013L1.7025 6.70126C1.3125 6.31126 0.6825 6.31126 0.2925 6.70126C-0.0975 7.09126 -0.0975 7.73126 0.2925 8.12126Z" transform="translate(0.827499 0.998779)" fill="#E9E6F5"/>
</svg>
