<svg width="20" height="20" viewBox="0 0 20 20" fill="none" xmlns="http://www.w3.org/2000/svg">
<path d="M16.25 0H3.75C1.67969 0 0 1.67969 0 3.75V16.25C0 18.3203 1.67969 20 3.75 20H16.25C18.3203 20 20 18.3203 20 16.25V3.75C20 1.67969 18.3203 0 16.25 0ZM15.7422 10.7722H13.8702V17.6983H10.7452V10.7722H9.53125V8.4375H10.7452V6.95012C10.7452 5.00301 11.5535 3.84615 13.8522 3.84615H16.1779V6.17188H14.8257C13.9333 6.17188 13.8732 6.5024 13.8732 7.1274L13.8702 8.4375H15.9976L15.7422 10.7722Z" fill="#E9E6F5"/>
</svg>
