<svg width="24" height="24" viewBox="0 0 24 24" fill="none" xmlns="http://www.w3.org/2000/svg">
<path d="M1 2C1.55228 2 2 1.55228 2 1C2 0.447715 1.55228 0 1 0C0.447715 0 0 0.447715 0 1C0 1.55228 0.447715 2 1 2Z" transform="translate(11 16)" fill="#E9E6F5"/>
<path d="M1 2C1.55228 2 2 1.55228 2 1C2 0.447715 1.55228 0 1 0C0.447715 0 0 0.447715 0 1C0 1.55228 0.447715 2 1 2Z" transform="translate(6 11)" fill="#E9E6F5"/>
<path d="M1 2C1.55228 2 2 1.55228 2 1C2 0.447715 1.55228 0 1 0C0.447715 0 0 0.447715 0 1C0 1.55228 0.447715 2 1 2Z" transform="translate(16 11)" fill="#E9E6F5"/>
<path d="M9 0C8.45 0 8 0.45 8 1V3C8 3.55 8.45 4 9 4C9.55 4 10 3.55 10 3V2.08C13.31 2.56 15.87 5.33 16 8.74C16.14 12.59 12.97 15.94 9.12 16C5.19 16.06 2 12.91 2 9C2 7.32 2.59 5.78 3.58 4.58L8.29 9.3C8.68 9.69 9.31 9.69 9.7 9.3C10.09 8.91 10.09 8.28 9.7 7.89L4.26 2.46C3.88 2.08 3.26 2.07 2.86 2.44C1.1 4.07 0 6.4 0 9C0 14.04 4.14 18.12 9.21 18C13.91 17.89 17.84 13.99 17.99 9.29C18.16 4.19 14.07 0 9 0Z" transform="translate(3 3)" fill="#E9E6F5"/>
</svg>
