<svg width="168" height="213" viewBox="0 0 168 213" fill="none" xmlns="http://www.w3.org/2000/svg">
<mask id="mask0" mask-type="alpha" maskUnits="userSpaceOnUse" x="0" y="0" width="168" height="213">
<rect width="168" height="213" rx="4" fill="white"/>
</mask>
<g mask="url(#mask0)">
<path d="M141.255 75.0396C158.436 76.3746 166.255 90.0396 182.755 90.0396C220.059 90.0396 199.755 184.04 199.755 184.04H0.754547C-5.24545 175.04 -46.2076 72.3629 0.754547 59.0396C18.4931 54.0072 29.7955 59.3619 47.7545 63.5396C68.238 68.3045 76.7688 82.1703 97.7546 83.5396C115.027 84.6666 123.997 73.6988 141.255 75.0396Z" fill="#FFEDB7"/>
<path d="M42.5001 109C25.3189 110.335 17.5 124 1.00008 124C-36.3047 124 -15.9999 218 -15.9999 218H183C189 209 229.962 106.323 183 93C165.262 87.9676 153.959 93.3223 136 97.5C115.517 102.265 106.986 116.131 86.0001 117.5C68.7277 118.627 59.7572 107.659 42.5001 109Z" fill="#FFDC72"/>
</g>
</svg>
