<svg xmlns="http://www.w3.org/2000/svg" xmlns:xlink="http://www.w3.org/1999/xlink" width="392" height="312" viewBox="0 0 392 312"><defs><path id="t39pa" d="M679.25 1979c-1.115-53.106 1.66-100.66 8.3-142.72 21.01-112.847 81.885-169.27 182.6-169.27l-9.96 56.423c-27.676 0-48.97 7.209-63.91 21.574-14.94 14.391-25.185 36.51-30.71 66.38l-6.64 39.83h76.36l-21.58 127.782zm200.86 0c-1.116-53.106 1.66-100.66 8.3-142.72 21.009-112.847 81.884-169.27 182.598-169.27l-11.62 56.423c-27.675 0-48.97 7.209-63.91 21.574-14.94 14.391-25.184 36.51-30.709 66.38l-6.64 39.83h78.02l-21.58 127.782z"/></defs><g><g opacity=".03" transform="translate(-679 -1667)"><use fill="#fff" xlink:href="#t39pa"/></g></g></svg>