<svg width="11" height="7" viewBox="0 0 11 7" fill="none" xmlns="http://www.w3.org/2000/svg">
<path d="M3.14062 4.4375V5.51562C3.14062 5.67969 3.07031 5.82031 2.97656 5.91406C2.85938 6.03125 2.71875 6.07812 2.57812 6.07812C2.41406 6.07812 2.27344 6.03125 2.17969 5.91406L0.164062 3.89844C0.046875 3.80469 0 3.66406 0 3.5C0 3.35938 0.046875 3.21875 0.164062 3.10156L2.17969 1.08594C2.27344 0.992188 2.41406 0.921875 2.57812 0.921875C2.71875 0.921875 2.85938 0.992188 2.97656 1.08594C3.07031 1.20312 3.14062 1.34375 3.14062 1.48438V2.5625H10.2188C10.2891 2.5625 10.3594 2.60938 10.4062 2.65625C10.4531 2.70312 10.5 2.77344 10.5 2.84375V4.15625C10.5 4.25 10.4531 4.32031 10.4062 4.36719C10.3594 4.41406 10.2891 4.4375 10.2188 4.4375H3.14062Z" fill="#999AB0"/>
</svg>
