<svg xmlns="http://www.w3.org/2000/svg" width="26" height="26" viewBox="0 0 26 26">
  <metadata><?xpacket begin="﻿" id="W5M0MpCehiHzreSzNTczkc9d"?>
<x:xmpmeta xmlns:x="adobe:ns:meta/" x:xmptk="Adobe XMP Core 5.6-c138 79.159824, 2016/09/14-01:09:01        ">
   <rdf:RDF xmlns:rdf="http://www.w3.org/1999/02/22-rdf-syntax-ns#">
      <rdf:Description rdf:about=""/>
   </rdf:RDF>
</x:xmpmeta>
                                                                                                    
                                                                                                    
                                                                                                    
                                                                                                    
                                                                                                    
                                                                                                    
                                                                                                    
                                                                                                    
                                                                                                    
                                                                                                    
                                                                                                    
                                                                                                    
                                                                                                    
                                                                                                    
                                                                                                    
                                                                                                    
                                                                                                    
                                                                                                    
                                                                                                    
                                                                                                    
                           
<?xpacket end="w"?></metadata>
<defs>
    <style>
      .cls-1 {
        fill: #fff;
        fill-rule: evenodd;
      }
    </style>
  </defs>
  <path id="toggles" class="cls-1" d="M23.739,13.8V24.87a1.13,1.13,0,1,1-2.261,0V13.8A1.13,1.13,0,0,1,23.739,13.8ZM22.608,3.228a1.13,1.13,0,0,0,1.13-1.13V1.13a1.13,1.13,0,0,0-2.261,0V2.1A1.131,1.131,0,0,0,22.608,3.228ZM6.746,13a3.391,3.391,0,0,1-3.373,3.4,3.4,3.4,0,0,1,0-6.8A3.391,3.391,0,0,1,6.746,13ZM4.485,13a1.112,1.112,0,1,0-1.112,1.14A1.128,1.128,0,0,0,4.485,13Zm11.888,5.56A3.373,3.373,0,1,1,13,15.159,3.391,3.391,0,0,1,16.373,18.56Zm-2.261,0A1.112,1.112,0,1,0,13,19.7,1.128,1.128,0,0,0,14.112,18.56ZM26,8.092a3.373,3.373,0,1,1-3.373-3.4A3.391,3.391,0,0,1,26,8.092Zm-2.261,0a1.112,1.112,0,1,0-1.112,1.14A1.128,1.128,0,0,0,23.739,8.092ZM13,23.089a1.131,1.131,0,0,0-1.13,1.13v0.65a1.13,1.13,0,1,0,2.261,0v-0.65A1.13,1.13,0,0,0,13,23.089Zm0-9.324a1.131,1.131,0,0,0,1.13-1.131V1.13a1.13,1.13,0,0,0-2.261,0v11.5A1.131,1.131,0,0,0,13,13.765ZM3.391,17.883a1.13,1.13,0,0,0-1.13,1.13V24.87a1.13,1.13,0,1,0,2.261,0V19.013A1.13,1.13,0,0,0,3.391,17.883Zm0-9.709a1.131,1.131,0,0,0,1.13-1.131V1.13a1.13,1.13,0,0,0-2.261,0V7.043A1.131,1.131,0,0,0,3.391,8.174Z"/>
</svg>
