<svg xmlns="http://www.w3.org/2000/svg" width="19" height="17" viewBox="0 0 19 17">
  <metadata><?xpacket begin="﻿" id="W5M0MpCehiHzreSzNTczkc9d"?>
<x:xmpmeta xmlns:x="adobe:ns:meta/" x:xmptk="Adobe XMP Core 5.6-c138 79.159824, 2016/09/14-01:09:01        ">
   <rdf:RDF xmlns:rdf="http://www.w3.org/1999/02/22-rdf-syntax-ns#">
      <rdf:Description rdf:about=""/>
   </rdf:RDF>
</x:xmpmeta>
                                                                                                    
                                                                                                    
                                                                                                    
                                                                                                    
                                                                                                    
                                                                                                    
                                                                                                    
                                                                                                    
                                                                                                    
                                                                                                    
                                                                                                    
                                                                                                    
                                                                                                    
                                                                                                    
                                                                                                    
                                                                                                    
                                                                                                    
                                                                                                    
                                                                                                    
                                                                                                    
                           
<?xpacket end="w"?></metadata>
<defs>
    <style>
      .cls-1 {
        fill: #fff;
        fill-rule: evenodd;
      }
    </style>
  </defs>
  <path id="menu" class="cls-1" d="M17.4,3.113H1.6A1.581,1.581,0,0,1,0,1.556,1.581,1.581,0,0,1,1.6,0H17.4A1.581,1.581,0,0,1,19,1.556,1.581,1.581,0,0,1,17.4,3.113ZM19,8.5a1.581,1.581,0,0,0-1.6-1.556H1.6a1.557,1.557,0,1,0,0,3.113H17.4A1.581,1.581,0,0,0,19,8.5Zm0,6.944a1.581,1.581,0,0,0-1.6-1.556H1.6A1.557,1.557,0,1,0,1.6,17H17.4A1.581,1.581,0,0,0,19,15.444Z"/>
</svg>
