<svg xmlns="http://www.w3.org/2000/svg" width="24" height="23" viewBox="0 0 24 23">
  <metadata><?xpacket begin="﻿" id="W5M0MpCehiHzreSzNTczkc9d"?>
<x:xmpmeta xmlns:x="adobe:ns:meta/" x:xmptk="Adobe XMP Core 5.6-c138 79.159824, 2016/09/14-01:09:01        ">
   <rdf:RDF xmlns:rdf="http://www.w3.org/1999/02/22-rdf-syntax-ns#">
      <rdf:Description rdf:about=""/>
   </rdf:RDF>
</x:xmpmeta>
                                                                                                    
                                                                                                    
                                                                                                    
                                                                                                    
                                                                                                    
                                                                                                    
                                                                                                    
                                                                                                    
                                                                                                    
                                                                                                    
                                                                                                    
                                                                                                    
                                                                                                    
                                                                                                    
                                                                                                    
                                                                                                    
                                                                                                    
                                                                                                    
                                                                                                    
                                                                                                    
                           
<?xpacket end="w"?></metadata>
<defs>
    <style>
      .cls-1 {
        fill: #fff;
        fill-rule: evenodd;
      }
    </style>
  </defs>
  <path id="user" class="cls-1" d="M12,14.467a7.14,7.14,0,0,0,7.024-7.234A7.139,7.139,0,0,0,12,0,7.139,7.139,0,0,0,4.976,7.233,7.14,7.14,0,0,0,12,14.467ZM12,2.139a5.023,5.023,0,0,1,4.937,5.093A5.023,5.023,0,0,1,12,12.327,5.023,5.023,0,0,1,7.063,7.233,5.023,5.023,0,0,1,12,2.139Zm3.252,13.035a1.022,1.022,0,0,0-.993.2L12,17.348,9.741,15.379a1.022,1.022,0,0,0-.993-0.2C7.287,15.652,0,18.223,0,21.93A1.057,1.057,0,0,0,1.043,23H22.957A1.057,1.057,0,0,0,24,21.93C24,18.223,16.713,15.652,15.252,15.175ZM2.635,20.86c1.151-1.248,3.9-2.639,6.2-3.46l2.486,2.168a1.024,1.024,0,0,0,1.352,0L15.162,17.4c2.3,0.822,5.053,2.212,6.2,3.46H2.635Z"/>
</svg>
