<svg xmlns="http://www.w3.org/2000/svg" width="23" height="23" viewBox="0 0 23 23">
  <metadata><?xpacket begin="﻿" id="W5M0MpCehiHzreSzNTczkc9d"?>
<x:xmpmeta xmlns:x="adobe:ns:meta/" x:xmptk="Adobe XMP Core 5.6-c138 79.159824, 2016/09/14-01:09:01        ">
   <rdf:RDF xmlns:rdf="http://www.w3.org/1999/02/22-rdf-syntax-ns#">
      <rdf:Description rdf:about=""/>
   </rdf:RDF>
</x:xmpmeta>
                                                                                                    
                                                                                                    
                                                                                                    
                                                                                                    
                                                                                                    
                                                                                                    
                                                                                                    
                                                                                                    
                                                                                                    
                                                                                                    
                                                                                                    
                                                                                                    
                                                                                                    
                                                                                                    
                                                                                                    
                                                                                                    
                                                                                                    
                                                                                                    
                                                                                                    
                                                                                                    
                           
<?xpacket end="w"?></metadata>
<defs>
    <style>
      .cls-1 {
        fill: #fff;
        fill-rule: evenodd;
      }
    </style>
  </defs>
  <path id="Forma_1" data-name="Forma 1" class="cls-1" d="M11.5,0A11.5,11.5,0,1,0,23,11.5,11.513,11.513,0,0,0,11.5,0Zm0,21.029A9.529,9.529,0,1,1,21.029,11.5,9.54,9.54,0,0,1,11.5,21.028ZM15.95,7.05a0.986,0.986,0,0,0-1.394,0L11.5,10.106,8.444,7.05A0.986,0.986,0,0,0,7.05,8.444L10.106,11.5,7.05,14.556A0.986,0.986,0,1,0,8.444,15.95L11.5,12.894l3.056,3.056a0.986,0.986,0,1,0,1.394-1.394L12.894,11.5,15.95,8.444A0.985,0.985,0,0,0,15.95,7.05Z"/>
</svg>
