<svg width="13" height="12" viewBox="0 0 13 12" fill="none" xmlns="http://www.w3.org/2000/svg">
<path fill-rule="evenodd" clip-rule="evenodd" d="M11.7125 1.14008C11.5655 1.02813 11.3816 0.980462 11.2007 1.00732C11.0198 1.03418 10.8565 1.13341 10.746 1.28361L5.04407 9.17726L2.17226 6.19923C2.04228 6.06774 1.86752 5.99407 1.68551 5.99407C1.5035 5.99407 1.32877 6.06774 1.19879 6.19923C1.07139 6.33337 1 6.51368 1 6.70152C1 6.88935 1.07139 7.06971 1.19879 7.20385L4.63383 10.7919C4.76335 10.9244 4.93813 10.9992 5.12055 11H5.16923C5.26764 10.9916 5.36322 10.9616 5.44955 10.9121C5.53587 10.8627 5.61099 10.7947 5.6699 10.7129L11.8446 2.17343C11.9042 2.09768 11.9481 2.01021 11.9738 1.91633C11.9995 1.82245 12.0064 1.72414 11.994 1.62743C11.9817 1.53072 11.9503 1.43761 11.9019 1.35382C11.8535 1.27002 11.7891 1.19729 11.7125 1.14008Z" fill="#53C974"/>
<path fill-rule="evenodd" clip-rule="evenodd" d="M2.17226 6.19923L5.04407 9.17726L10.746 1.28361C10.8565 1.13341 11.0198 1.03418 11.2007 1.00732C11.3816 0.980462 11.5655 1.02813 11.7125 1.14008C11.7891 1.19729 11.8535 1.27002 11.9019 1.35382C11.9503 1.43761 11.9817 1.53072 11.994 1.62743C12.0064 1.72414 11.9995 1.82245 11.9738 1.91633C11.9481 2.01021 11.9042 2.09768 11.8446 2.17343L5.6699 10.7129C5.61099 10.7947 5.53587 10.8627 5.44955 10.9121C5.36322 10.9616 5.26764 10.9916 5.16923 11H5.12055C4.93813 10.9992 4.76335 10.9244 4.63383 10.7919L1.19879 7.20385C1.07139 7.06971 1 6.88935 1 6.70152C1 6.51368 1.07139 6.33337 1.19879 6.19923C1.32877 6.06774 1.5035 5.99407 1.68551 5.99407C1.86752 5.99407 2.04228 6.06774 2.17226 6.19923ZM12.6457 2.77218L6.48132 11.2974C6.48103 11.2978 6.48074 11.2982 6.48045 11.2986C6.33953 11.4939 6.15821 11.6586 5.94693 11.7797C5.73517 11.9011 5.49904 11.9755 5.2544 11.9964L5.21189 12H5.1162C4.6611 11.998 4.23168 11.8112 3.91853 11.4907L3.91146 11.4835L0.473716 7.89254C0.166856 7.56947 0 7.14137 0 6.70153C0 6.26163 0.166905 5.8336 0.473721 5.51057L0.480605 5.50332L0.487633 5.49621C0.802034 5.17818 1.23144 4.99409 1.68551 4.99409C2.13951 4.99409 2.56897 5.17813 2.88342 5.49621L2.89214 5.50504L4.93373 7.62225L9.94048 0.690934C10.2055 0.330799 10.6037 0.0850264 11.0538 0.0181828C11.503 -0.0485151 11.9562 0.0702751 12.3147 0.341745C12.4996 0.480707 12.6533 0.655289 12.7678 0.853611C12.8832 1.05329 12.9569 1.27348 12.9859 1.50063C13.015 1.72792 12.9989 1.95903 12.9384 2.18028C12.88 2.39371 12.781 2.59496 12.6457 2.77218Z" fill="#53C974"/>
</svg>
