<svg width="18" height="19" viewBox="0 0 18 19" fill="none" xmlns="http://www.w3.org/2000/svg">
<path d="M17.5 2.72656C17.5 2.45312 17.3828 2.21875 17.1875 2.02344C16.9922 1.86719 16.7578 1.75 16.5234 1.75H0.976562C0.664062 1.75 0.429688 1.86719 0.273438 2.02344C0.078125 2.21875 0 2.45312 0 2.72656V18.2734C0 18.5469 0.078125 18.7812 0.273438 18.9766C0.429688 19.1719 0.664062 19.25 0.976562 19.25H9.33594V12.4531H7.07031V9.83594H9.33594V7.88281C9.33594 6.78906 9.64844 5.92969 10.2734 5.30469C10.8984 4.71875 11.7188 4.40625 12.7344 4.40625C13.5156 4.40625 14.2188 4.44531 14.7656 4.48438V6.86719H13.3594C12.8516 6.86719 12.5 6.98438 12.3047 7.21875C12.1484 7.41406 12.0703 7.72656 12.0703 8.15625V9.83594H14.6875L14.3359 12.4531H12.0703V19.25H16.5234C16.7969 19.25 17.0312 19.1719 17.2266 18.9766C17.3828 18.7812 17.5 18.5469 17.5 18.2734V2.72656Z" transform="translate(0 -1)" fill="#3B5998"/>
</svg>
