<svg width="14" height="16" viewBox="0 0 14 16" fill="none" xmlns="http://www.w3.org/2000/svg">
<path d="M0 2.625C0 2.75 0.03125 2.84375 0.09375 2.90625C0.15625 2.96875 0.25 3 0.375 3H13.625C13.7188 3 13.8125 2.96875 13.875 2.90625C13.9375 2.84375 14 2.75 14 2.625V1.75C14 1.5625 13.9062 1.375 13.7812 1.21875C13.625 1.09375 13.4375 1 13.25 1H9.75L9.46875 0.40625C9.40625 0.28125 9.3125 0.1875 9.1875 0.125C9.0625 0.0625 8.90625 0 8.78125 0H5.21875C5.0625 0 4.9375 0.0625 4.8125 0.125C4.6875 0.1875 4.59375 0.28125 4.53125 0.40625L4.25 1H0.75C0.53125 1 0.34375 1.09375 0.21875 1.21875C0.0625 1.375 0 1.5625 0 1.75V2.625ZM13 4.375C13 4.28125 12.9375 4.1875 12.875 4.125C12.8125 4.0625 12.7188 4 12.625 4H1.375C1.25 4 1.15625 4.0625 1.09375 4.125C1.03125 4.1875 1 4.28125 1 4.375V14.5C1 14.9375 1.125 15.2812 1.4375 15.5625C1.71875 15.875 2.0625 16 2.5 16H11.5C11.9062 16 12.25 15.875 12.5625 15.5625C12.8438 15.2812 13 14.9375 13 14.5V4.375ZM4.5 6.5V13.5C4.5 13.6562 4.4375 13.7812 4.34375 13.875C4.25 13.9688 4.125 14 4 14C3.84375 14 3.71875 13.9688 3.625 13.875C3.53125 13.7812 3.5 13.6562 3.5 13.5V6.5C3.5 6.375 3.53125 6.25 3.625 6.15625C3.71875 6.0625 3.84375 6 4 6C4.125 6 4.25 6.0625 4.34375 6.15625C4.4375 6.25 4.5 6.375 4.5 6.5ZM7.5 6.5V13.5C7.5 13.6562 7.4375 13.7812 7.34375 13.875C7.25 13.9688 7.125 14 7 14C6.84375 14 6.71875 13.9688 6.625 13.875C6.53125 13.7812 6.5 13.6562 6.5 13.5V6.5C6.5 6.375 6.53125 6.25 6.625 6.15625C6.71875 6.0625 6.84375 6 7 6C7.125 6 7.25 6.0625 7.34375 6.15625C7.4375 6.25 7.5 6.375 7.5 6.5ZM10.5 6.5V13.5C10.5 13.6562 10.4375 13.7812 10.3438 13.875C10.25 13.9688 10.125 14 10 14C9.84375 14 9.71875 13.9688 9.625 13.875C9.53125 13.7812 9.5 13.6562 9.5 13.5V6.5C9.5 6.375 9.53125 6.25 9.625 6.15625C9.71875 6.0625 9.84375 6 10 6C10.125 6 10.25 6.0625 10.3438 6.15625C10.4375 6.25 10.5 6.375 10.5 6.5Z" fill="#999AB0"/>
</svg>
