<svg width="48" height="68" viewBox="0 0 48 68" fill="none" xmlns="http://www.w3.org/2000/svg">
<path d="M45.9961 1.77691V14.1988H4.29581C1.9237 14.1988 0 12.3049 0 9.96814V4.22916C0 3.45075 0.213549 2.71961 0.58979 2.093C1.33377 0.841105 2.71571 1.66324e-08 4.29568 1.66324e-08H44.1926C45.1885 -0.000132796 45.9961 0.795153 45.9961 1.77691Z" transform="translate(0 26.1016)" fill="#C93300"/>
<path d="M45.9961 1.77677V14.1986H4.29581C1.9237 14.1986 0 12.3047 0 9.96801V4.22916C0 3.45075 0.213549 2.71961 0.58979 2.093C1.33377 0.841105 2.71571 1.66352e-08 4.29568 1.66352e-08H44.1926C45.1885 -0.000132796 45.9961 0.795019 45.9961 1.77677Z" transform="translate(0 30.4893)" fill="#960E00"/>
<path d="M23.0412 11.3417C23.0412 17.6066 17.8835 22.6846 11.5199 22.6846C11.0574 22.6846 10.6018 22.658 10.1546 22.6048C8.69996 22.436 7.32747 22.0002 6.09109 21.3482C4.95926 20.7518 3.94022 19.9749 3.07604 19.056C1.35954 17.2377 0.244037 14.8647 0.0362882 12.2396C0.0117361 11.9437 1.05848e-08 11.6444 1.05848e-08 11.3416C-0.000269793 5.07784 5.15743 0 11.5198 0C11.8275 0 12.1316 0.0115547 12.432 0.0357267C15.0984 0.240259 17.5088 1.33849 19.3556 3.0284C20.289 3.87907 21.078 4.88247 21.6839 5.99664C22.346 7.21373 22.7887 8.56511 22.9602 9.99723C23.0141 10.4378 23.0412 10.8875 23.0412 11.3417Z" transform="translate(21.1328)" fill="#FFE223"/>
<path d="M19.3196 2.99254L3.03975 19.0204C1.32325 17.2021 0.207749 14.8291 0 12.204L12.396 0C15.0623 0.204532 17.4728 1.30263 19.3196 2.99254Z" transform="translate(21.0781 0.000976562)" fill="#FFCC18"/>
<path d="M16.8692 4.00059L4.06351 16.608C2.60887 16.4392 1.23638 16.0034 0 15.3514L15.5929 0C16.2551 1.2171 16.6977 2.56834 16.8692 4.00059Z" transform="translate(27.1338 5.96289)" fill="#FFCC18"/>
<path d="M23.0412 11.3418C23.0412 17.6067 17.8835 22.6847 11.5199 22.6847C11.0574 22.6847 10.6018 22.6582 10.1546 22.6049C8.69996 22.4361 7.32747 22.0003 6.09109 21.3484C4.95926 20.7519 3.94021 19.9751 3.07603 19.0561C1.35954 17.2378 0.244038 14.8648 0.0362893 12.2398C0.0117371 11.9439 0 11.6445 0 11.3417C0 5.07784 5.1577 0 11.5201 0C11.8278 0 12.1319 0.0115544 12.4323 0.0357263C15.0986 0.240258 17.5091 1.33849 19.3559 3.0284C20.2892 3.87907 21.0783 4.88247 21.6841 5.99664C22.3462 7.21373 22.789 8.56511 22.9604 9.99723C23.0143 10.4379 23.0412 10.8876 23.0412 11.3418Z" transform="translate(5.07324 13.5234)" fill="#FFE223"/>
<path d="M19.3197 2.99267L3.03974 19.0204C1.32325 17.2021 0.207749 14.8291 0 12.2041L12.396 0C15.0625 0.204665 17.4729 1.30276 19.3197 2.99267Z" transform="translate(5.28809 13.6123)" fill="#FFCC18"/>
<path d="M16.8692 4.00072L4.06351 16.6081C2.60887 16.4393 1.23638 16.0036 0 15.3516L15.593 0C16.2551 1.21736 16.6978 2.5686 16.8692 4.00072Z" transform="translate(11.3428 19.5723)" fill="#FFCC18"/>
<path d="M45.9952 6.77625V35.1235C45.9952 36.5295 44.8371 37.6697 43.4089 37.6697H4.29528C1.92357 37.6697 0 35.776 0 33.4399V0C0 2.33605 1.92357 4.22983 4.29528 4.22983H43.4089C44.8372 4.22983 45.9952 5.37016 45.9952 6.77625Z" transform="translate(0 30.3301)" fill="#FFBB00"/>
<path d="M5.30718 4.22983V37.6696H4.29528C1.92357 37.6696 0 35.7758 0 33.4398V0C0 2.33605 1.92357 4.22983 4.29528 4.22983H5.30718Z" transform="translate(0 30.3301)" fill="#EB9300"/>
<path d="M5.30718 10.4499H12.868C13.903 10.4499 14.7421 9.62376 14.7421 8.60482V1.84504C14.7421 0.826096 13.903 0 12.868 0H5.30718C2.37603 0 0 2.33923 0 5.22499C0 8.11049 2.3763 10.4499 5.30718 10.4499Z" transform="translate(33.2578 45.2422)" fill="#2F0900"/>
<path d="M2.12309 4.18042C3.29563 4.18042 4.24617 3.2446 4.24617 2.09021C4.24617 0.93582 3.29563 0 2.12309 0C0.950539 0 0 0.93582 0 2.09021C0 3.2446 0.950539 4.18042 2.12309 4.18042Z" transform="translate(36.3252 48.377)" fill="#FFE555"/>
<path d="M1.06087 7.38068C0.474854 7.38068 0 6.91305 0 6.33624V1.04444C0 0.467634 0.474854 0 1.06087 0C1.64688 0 2.12174 0.467634 2.12174 1.04444V6.33624C2.12174 6.91305 1.64688 7.38068 1.06087 7.38068Z" transform="translate(8.58496 4.23828)" fill="#FFFF62"/>
<path d="M1.06087 7.38068C0.474854 7.38068 0 6.91305 0 6.33624V1.04444C0 0.467634 0.474854 0 1.06087 0C1.64688 0 2.12174 0.467634 2.12174 1.04444V6.33624C2.12174 6.91305 1.64675 7.38068 1.06087 7.38068Z" transform="translate(13.8906 2.14941)" fill="#FFFF62"/>
<path d="M3.49883 0.352273C3.49883 0.254419 3.53343 0.171244 3.60261 0.102746C3.6718 0.0342487 3.75581 0 3.85465 0C3.95349 0 4.0375 0.0342487 4.10668 0.102746C4.17587 0.171244 4.21046 0.254419 4.21046 0.352273V0.939394C5.13953 1.01768 6.01918 1.36016 6.84941 1.96686C6.98778 2.07449 7.05697 2.18213 7.05697 2.28977C7.05697 2.39741 7.01744 2.49037 6.93837 2.56866C6.86918 2.63715 6.78023 2.6714 6.67151 2.6714C6.57267 2.6714 6.48372 2.63715 6.40465 2.56866C5.71279 2.02068 4.97151 1.70265 4.18081 1.61458V5.72443C5.30755 5.95928 6.12296 6.29688 6.62703 6.73722C7.1311 7.16777 7.38313 7.75979 7.38313 8.51326C7.38313 9.25695 7.08662 9.88321 6.4936 10.392C5.90058 10.8911 5.13953 11.1553 4.21046 11.1847V12.3295C4.21046 12.4274 4.17587 12.5106 4.10668 12.5791C4.0375 12.6476 3.95349 12.6818 3.85465 12.6818C3.75581 12.6818 3.6718 12.6476 3.60261 12.5791C3.53343 12.5106 3.49883 12.4274 3.49883 12.3295V11.17C2.26337 11.0721 1.15145 10.5975 0.163081 9.74621C0.0543604 9.65814 0 9.56029 0 9.45265C0 9.34501 0.034593 9.25695 0.103779 9.18845C0.182849 9.11017 0.271802 9.07102 0.370639 9.07102C0.47936 9.07102 0.568313 9.10527 0.637499 9.17377C1.4875 9.9566 2.45116 10.4018 3.52849 10.5095V6.32623C2.42151 6.0816 1.62093 5.744 1.12674 5.31345C0.632558 4.88289 0.385465 4.30066 0.385465 3.56676C0.385465 2.82307 0.677034 2.2017 1.26017 1.70265C1.8532 1.19381 2.59942 0.929609 3.49883 0.910038V0.352273ZM4.18081 10.5241C4.91221 10.5144 5.50029 10.3235 5.94505 9.95171C6.3997 9.57008 6.62703 9.10527 6.62703 8.55729C6.62703 8.00931 6.44912 7.57876 6.09331 7.26563C5.74738 6.94271 5.10988 6.6785 4.18081 6.47301V10.5241ZM3.52849 1.57055C2.81686 1.58033 2.23866 1.77115 1.79389 2.14299C1.35901 2.51484 1.14157 2.96986 1.14157 3.50805C1.14157 4.03646 1.30959 4.46212 1.64564 4.78504C1.98168 5.09817 2.6093 5.36237 3.52849 5.57765V1.57055Z" transform="translate(13.2637 18.5449)" fill="#A83B15"/>
<path d="M3.49883 0.352273C3.49883 0.254419 3.53343 0.171244 3.60261 0.102746C3.6718 0.0342487 3.75581 0 3.85465 0C3.95349 0 4.0375 0.0342487 4.10668 0.102746C4.17587 0.171244 4.21046 0.254419 4.21046 0.352273V0.939394C5.13953 1.01768 6.01918 1.36016 6.84941 1.96686C6.98778 2.07449 7.05697 2.18213 7.05697 2.28977C7.05697 2.39741 7.01744 2.49037 6.93837 2.56866C6.86918 2.63715 6.78023 2.6714 6.67151 2.6714C6.57267 2.6714 6.48372 2.63715 6.40465 2.56866C5.71279 2.02068 4.97151 1.70265 4.18081 1.61458V5.72443C5.30755 5.95928 6.12296 6.29688 6.62703 6.73722C7.1311 7.16777 7.38313 7.75979 7.38313 8.51326C7.38313 9.25695 7.08662 9.88321 6.4936 10.392C5.90058 10.8911 5.13953 11.1553 4.21046 11.1847V12.3295C4.21046 12.4274 4.17587 12.5106 4.10668 12.5791C4.0375 12.6476 3.95349 12.6818 3.85465 12.6818C3.75581 12.6818 3.6718 12.6476 3.60261 12.5791C3.53343 12.5106 3.49883 12.4274 3.49883 12.3295V11.17C2.26337 11.0721 1.15145 10.5975 0.163081 9.74621C0.0543604 9.65814 0 9.56029 0 9.45265C0 9.34501 0.034593 9.25695 0.103779 9.18845C0.182849 9.11017 0.271802 9.07102 0.370639 9.07102C0.47936 9.07102 0.568313 9.10527 0.637499 9.17377C1.4875 9.9566 2.45116 10.4018 3.52849 10.5095V6.32623C2.42151 6.0816 1.62093 5.744 1.12674 5.31345C0.632558 4.88289 0.385465 4.30066 0.385465 3.56676C0.385465 2.82307 0.677034 2.2017 1.26017 1.70265C1.8532 1.19381 2.59942 0.929609 3.49883 0.910038V0.352273ZM4.18081 10.5241C4.91221 10.5144 5.50029 10.3235 5.94505 9.95171C6.3997 9.57008 6.62703 9.10527 6.62703 8.55729C6.62703 8.00931 6.44912 7.57876 6.09331 7.26563C5.74738 6.94271 5.10988 6.6785 4.18081 6.47301V10.5241ZM3.52849 1.57055C2.81686 1.58033 2.23866 1.77115 1.79389 2.14299C1.35901 2.51484 1.14157 2.96986 1.14157 3.50805C1.14157 4.03646 1.30959 4.46212 1.64564 4.78504C1.98168 5.09817 2.6093 5.36237 3.52849 5.57765V1.57055Z" transform="translate(28.8789 5.02344)" fill="#A83B15"/>
</svg>
