<svg xmlns="http://www.w3.org/2000/svg" width="24" height="21" viewBox="0 0 24 21">
  <metadata><?xpacket begin="﻿" id="W5M0MpCehiHzreSzNTczkc9d"?>
<x:xmpmeta xmlns:x="adobe:ns:meta/" x:xmptk="Adobe XMP Core 5.6-c138 79.159824, 2016/09/14-01:09:01        ">
   <rdf:RDF xmlns:rdf="http://www.w3.org/1999/02/22-rdf-syntax-ns#">
      <rdf:Description rdf:about=""/>
   </rdf:RDF>
</x:xmpmeta>
                                                                                                    
                                                                                                    
                                                                                                    
                                                                                                    
                                                                                                    
                                                                                                    
                                                                                                    
                                                                                                    
                                                                                                    
                                                                                                    
                                                                                                    
                                                                                                    
                                                                                                    
                                                                                                    
                                                                                                    
                                                                                                    
                                                                                                    
                                                                                                    
                                                                                                    
                                                                                                    
                           
<?xpacket end="w"?></metadata>
<defs>
    <style>
      .cls-1 {
        fill: #009b7a;
        fill-rule: evenodd;
      }
    </style>
  </defs>
  <path class="cls-1" d="M12,13a0.5,0.5,0,0,1-.232-0.057l-11.5-6a0.5,0.5,0,0,1,0-.887l11.5-6a0.5,0.5,0,0,1,.463,0l11.5,6a0.5,0.5,0,0,1,0,.887l-11.5,6A0.5,0.5,0,0,1,12,13ZM1.581,6.491L12,11.931l10.419-5.44L12,1.051ZM12,17a0.5,0.5,0,0,1-.232-0.057l-11.5-6a0.5,0.5,0,0,1,0-.887L1.94,9.178a0.5,0.5,0,1,1,.463.887l-0.822.428L12,15.934l10.419-5.44L21.6,10.065a0.5,0.5,0,0,1,.463-0.887l1.671,0.873a0.5,0.5,0,0,1,0,.887l-11.5,6A0.5,0.5,0,0,1,12,17Zm0,4a0.5,0.5,0,0,1-.232-0.056l-11.5-6a0.5,0.5,0,0,1,0-.887L1.94,13.18a0.5,0.5,0,1,1,.463.887L1.581,14.5,12,19.936,22.418,14.5,21.6,14.067a0.5,0.5,0,0,1,.463-0.887l1.671,0.873a0.5,0.5,0,0,1,0,.887l-11.5,6A0.5,0.5,0,0,1,12,21Z"/>
</svg>
