<svg width="14" height="14" viewBox="0 0 14 14" fill="none" xmlns="http://www.w3.org/2000/svg">
<path d="M14 1.78125C14 1.5625 13.9062 1.375 13.75 1.21875C13.5938 1.09375 13.4062 1 13.2188 1H0.78125C0.53125 1 0.34375 1.09375 0.21875 1.21875C0.0625 1.375 0 1.5625 0 1.78125V14.2188C0 14.4375 0.0625 14.625 0.21875 14.7812C0.34375 14.9375 0.53125 15 0.78125 15H7.46875V9.5625H5.65625V7.46875H7.46875V5.90625C7.46875 5.03125 7.71875 4.34375 8.21875 3.84375C8.71875 3.375 9.375 3.125 10.1875 3.125C10.8125 3.125 11.375 3.15625 11.8125 3.1875V5.09375H10.6875C10.2812 5.09375 10 5.1875 9.84375 5.375C9.71875 5.53125 9.65625 5.78125 9.65625 6.125V7.46875H11.75L11.4688 9.5625H9.65625V15H13.2188C13.4375 15 13.625 14.9375 13.7812 14.7812C13.9062 14.625 14 14.4375 14 14.2188V1.78125Z" transform="translate(0 -1)" fill="#3B5998"/>
</svg>
