<svg width="15" height="12" viewBox="0 0 15 12" fill="none" xmlns="http://www.w3.org/2000/svg">
<path d="M13.9688 3.09375C14.0312 2.65625 14 2.375 13.8125 2.1875C13.625 2 13.375 1.96875 13.0625 2.0625L0.65625 6.84375C0.21875 7.03125 0 7.21875 0 7.40625C-0.03125 7.625 0.125 7.78125 0.5 7.875L3.6875 8.875L11.0625 4.21875C11.1562 4.15625 11.25 4.125 11.3438 4.125C11.4375 4.125 11.5 4.125 11.5312 4.1875C11.5625 4.25 11.5312 4.28125 11.4688 4.34375L5.5 9.75L5.25 13.0312C5.40625 13.0312 5.53125 13 5.65625 12.9375C5.71875 12.9062 5.78125 12.8438 5.90625 12.7188L7.46875 11.2188L10.6875 13.5938C10.9688 13.7812 11.2188 13.8125 11.4062 13.7188C11.5938 13.625 11.75 13.4062 11.8438 13.0312L13.9688 3.09375Z" transform="translate(1 -2)" fill="#0088CC"/>
</svg>
