<svg width="16" height="14" viewBox="0 0 16 14" fill="none" xmlns="http://www.w3.org/2000/svg">
<path d="M14.3438 4.75C14.9688 4.28125 15.5312 3.71875 16 3.03125C15.375 3.3125 14.75 3.5 14.125 3.5625C14.8125 3.125 15.3125 2.53125 15.5625 1.75C14.9062 2.125 14.2188 2.40625 13.4688 2.53125C13.1562 2.21875 12.7812 1.96875 12.375 1.78125C11.9688 1.59375 11.5312 1.5 11.0625 1.5C10.4688 1.5 9.9375 1.65625 9.4375 1.9375C8.9375 2.25 8.53125 2.65625 8.25 3.15625C7.9375 3.65625 7.8125 4.21875 7.8125 4.78125C7.8125 5.03125 7.8125 5.28125 7.875 5.53125C6.53125 5.46875 5.28125 5.15625 4.09375 4.53125C2.90625 3.9375 1.9375 3.125 1.125 2.09375C0.8125 2.625 0.65625 3.1875 0.65625 3.75C0.65625 4.3125 0.78125 4.84375 1.0625 5.3125C1.3125 5.8125 1.6875 6.1875 2.125 6.5C1.59375 6.5 1.09375 6.34375 0.65625 6.0625V6.125C0.65625 6.90625 0.90625 7.59375 1.40625 8.1875C1.90625 8.8125 2.53125 9.1875 3.28125 9.34375C2.96875 9.40625 2.6875 9.4375 2.40625 9.4375C2.21875 9.4375 2 9.4375 1.8125 9.40625C2 10.0625 2.375 10.5938 2.9375 11.0312C3.5 11.4688 4.125 11.6562 4.875 11.6562C3.65625 12.5938 2.28125 13.0625 0.78125 13.0625C0.46875 13.0625 0.21875 13.0625 0 13.0312C1.5 14.0312 3.1875 14.5 5.03125 14.5C6.9375 14.5 8.625 14.0312 10.125 13.0312C11.4688 12.1562 12.5312 11 13.2812 9.5C14 8.125 14.375 6.65625 14.375 5.15625C14.375 4.96875 14.3438 4.84375 14.3438 4.75Z" transform="translate(0 -1)" fill="#1DA1F2"/>
</svg>
