<svg width="40" height="40" viewBox="0 0 40 40" fill="none" xmlns="http://www.w3.org/2000/svg">
<path d="M0 0V9.99875H19.6C21.0782 8.15731 23.0364 6.72416 25.2812 5.87426C25.1179 5.61596 24.9979 5.32767 24.9979 4.99937C24.9979 4.07782 25.7429 3.33292 26.6644 3.33292C27.586 3.33292 28.331 4.07782 28.331 4.99937C28.331 5.04104 28.3093 5.0777 28.306 5.11769C28.8609 5.0477 29.4242 4.99937 29.9975 4.99937C31.1491 4.99937 32.2623 5.16269 33.3306 5.43599V0H0ZM13.3322 6.66583H4.99958V3.33292H13.3322V6.66583ZM21.6649 6.66583C20.7433 6.66583 19.9983 5.92093 19.9983 4.99937C19.9983 4.07782 20.7433 3.33292 21.6649 3.33292C22.5865 3.33292 23.3314 4.07782 23.3314 4.99937C23.3314 5.92093 22.5865 6.66583 21.6649 6.66583Z" transform="translate(0 11.6652)" fill="#3579FF"/>
<path d="M33.3306 9.99875V3.33292C33.3306 1.49315 31.8374 0 29.9975 0H3.33306C1.49321 0 0 1.49315 0 3.33292V9.99875H33.3306ZM26.6644 3.33292C27.5844 3.33292 28.331 4.07782 28.331 4.99937C28.331 5.92093 27.5844 6.66583 26.6644 6.66583C25.7429 6.66583 24.9979 5.92093 24.9979 4.99937C24.9979 4.07782 25.7429 3.33292 26.6644 3.33292ZM21.6649 3.33292C22.5848 3.33292 23.3314 4.07782 23.3314 4.99937C23.3314 5.92093 22.5848 6.66583 21.6649 6.66583C20.7433 6.66583 19.9983 5.92093 19.9983 4.99937C19.9983 4.07782 20.7433 3.33292 21.6649 3.33292ZM4.99958 3.33292H13.3322V6.66583H4.99958V3.33292Z" fill="#3579FF"/>
<path d="M16.6653 6.66583C16.6653 4.23447 17.3252 1.96309 18.4635 0H0V6.66583C0 8.50394 1.49321 9.99875 3.33306 9.99875H17.1019C16.8286 8.93055 16.6653 7.81902 16.6653 6.66583ZM13.3322 6.66583H4.99958V3.33292H13.3322V6.66583Z" transform="translate(0 23.3304)" fill="#3579FF"/>
<path d="M20.0017 11.6652V8.33229H18.1652C17.9485 7.26909 17.5235 6.28421 16.9453 5.40932L18.2501 4.10282L15.8937 1.74645L14.5871 3.05295C13.7139 2.47469 12.7306 2.04974 11.669 1.83477V0H8.33597V1.83644C7.27273 2.05141 6.28781 2.47636 5.41288 3.05462L4.10799 1.74978L1.75152 4.10615L3.05641 5.41099C2.47646 6.28421 2.05316 7.27076 1.83818 8.33229H0V11.6652H1.83651C2.05316 12.7284 2.47646 13.7133 3.05808 14.5882L1.75152 15.8947L4.11132 18.2494L5.41455 16.9429C6.28781 17.5228 7.2744 17.9478 8.33597 18.1627V19.9992H11.669V18.1627C12.7323 17.9461 13.7155 17.5211 14.5921 16.9412L15.897 18.246L18.2535 15.888L16.9469 14.5848C17.5252 13.7116 17.9502 12.7267 18.1668 11.6652H20.0017ZM9.99917 13.3317C8.15765 13.3317 6.66611 11.8385 6.66611 9.99875C6.66611 8.15898 8.15765 6.66583 9.99917 6.66583C11.839 6.66583 13.3322 8.15898 13.3322 9.99875C13.3322 11.8385 11.839 13.3317 9.99917 13.3317Z" transform="translate(19.9983 19.9976)" fill="#3579FF"/>
</svg>
