<svg width="34" height="30" viewBox="0 0 34 30" fill="none" xmlns="http://www.w3.org/2000/svg">
<path d="M32.4283 0.185C31.875 -0.0999999 31.2067 -0.0516665 30.6983 0.31L20.0233 7.93333L14.3333 3.66667C13.7083 3.19833 12.845 3.22833 12.25 3.735L3.33333 11.375V0H0V28.3317C0 29.2517 0.745 29.9983 1.66667 29.9983H31.6667C32.5883 29.9983 33.3333 29.2517 33.3333 28.3317V1.66667C33.3333 1.04333 32.985 0.471667 32.4283 0.185ZM13.4033 7.13667L19 11.3317C19.58 11.7683 20.3767 11.7783 20.9683 11.355L30 4.905V10.5667L19.9767 14.8617L12.285 11.785C11.7183 11.5583 11.0683 11.66 10.5983 12.0517L3.33333 18.1067V15.765L13.4033 7.13667ZM3.33333 22.4467L11.97 15.25L19.3817 18.2133C19.7933 18.3783 20.2517 18.37 20.6583 18.1967L30 14.1933V20.255L21.6667 21.645L11.94 20.0217C11.325 19.9183 10.7067 20.1683 10.3333 20.6667L5.83333 26.6667H3.33333V22.4467ZM10 26.665L12.3933 23.475L21.3933 24.9767C21.575 25.0067 21.7583 25.0067 21.94 24.9767L30 23.6333V26.665H10Z" transform="translate(0.333252)" fill="#3579FF"/>
</svg>
