<svg width="28" height="34" viewBox="0 0 28 34" fill="none" xmlns="http://www.w3.org/2000/svg">
<path d="M25.6373 0.126977C25.0123 -0.131346 24.2973 0.0119815 23.8207 0.488628C22.1791 2.13023 20.5608 2.96186 19.0125 2.96186C16.4593 2.96186 14.6761 0.681954 14.6661 0.666954C14.3527 0.250305 13.8611 0.00698196 13.3394 0.00364877C12.8811 -0.0296832 12.3245 0.246972 12.0045 0.658621C11.9878 0.681954 10.2062 2.96186 7.65468 2.96186C6.10475 2.96186 4.48815 2.13023 2.84488 0.488628C2.36657 0.0119815 1.64993 -0.131346 1.02829 0.126977C0.40665 0.383633 0 0.993607 0 1.66691V19.9995C0 26.3459 11.2712 32.464 12.5561 33.1406C12.7995 33.2689 13.0661 33.3323 13.3328 33.3323C13.5994 33.3323 13.8661 33.2689 14.1094 33.1406C15.3944 32.464 26.6656 26.3459 26.6656 19.9995V1.66691C26.6656 0.993607 26.2589 0.383633 25.6373 0.126977ZM19.9992 18.3329H14.9994V23.3327H11.6662V18.3329H6.66639V14.9997H11.6662V9.9999H14.9994V14.9997H19.9992V18.3329Z" transform="translate(0.669922 0.332825)" fill="#3579FF"/>
</svg>
