<svg width="40" height="40" viewBox="0 0 40 40" fill="none" xmlns="http://www.w3.org/2000/svg">
<path d="M29.9975 13.2583C22.6598 13.2583 16.7103 7.32833 16.6686 1.27157e-07C8.25764 0.755 1.66653 7.16 1.66653 14.925C1.66653 17.8167 2.56812 20.5783 4.28631 22.985C0 29.925 -1.58312e-10 29.925 -1.58312e-10 29.925C-1.58312e-10 29.925 10.9708 29.925 18.3318 29.925C27.521 29.925 34.9971 23.1967 34.9971 14.925C34.9971 14.0533 34.8971 13.2067 34.7371 12.375C33.2622 12.9383 31.6707 13.2583 29.9975 13.2583Z" transform="translate(0 10.0751)" fill="#3579FF"/>
<path d="M20.0017 11.6667V8.33333H18.1652C17.9485 7.27 17.5235 6.28333 16.9453 5.41L18.2501 4.10333L15.8937 1.74667L14.5871 3.05333C13.7139 2.475 12.7306 2.05 11.669 1.83667V0H8.33597V1.83667C7.27273 2.05167 6.28781 2.47667 5.41288 3.055L4.10799 1.75L1.75152 4.10667L3.05641 5.41167C2.47646 6.28667 2.05483 7.27167 1.83818 8.33333H2.41577e-07V11.6667H1.83818C2.05483 12.73 2.47813 13.715 3.05808 14.59L1.75152 15.8967L4.11132 18.2517L5.41455 16.945C6.28781 17.525 7.27439 17.9483 8.33597 18.165V20.0017H11.669V18.1633C12.7323 17.9467 13.7172 17.5217 14.5921 16.9433L15.897 18.2483L18.2535 15.89L16.9469 14.5867C17.5252 13.7117 17.9502 12.7283 18.1652 11.6667H20.0017ZM9.99916 13.3333C8.15765 13.3333 6.66611 11.8383 6.66611 10C6.66611 8.16 8.15765 6.66667 9.99916 6.66667C11.839 6.66667 13.3322 8.16 13.3322 10C13.3322 11.8383 11.839 13.3333 9.99916 13.3333Z" transform="translate(19.9983)" fill="#3579FF"/>
</svg>
