<svg width="34" height="32" viewBox="0 0 34 32" fill="none" xmlns="http://www.w3.org/2000/svg">
<path d="M11.6667 10C11.6667 9.08333 12.4167 8.33333 13.3333 8.33333H28.3333V1.66667C28.3333 0.75 27.5833 0 26.6667 0H1.66667C0.75 0 4.29153e-08 0.75 4.29153e-08 1.66667V20C4.29153e-08 20.9167 0.75 21.6667 1.66667 21.6667H3.33333V26.6667L8.33333 21.6667H11.6667V10Z" transform="translate(0.330078 0.333313)" fill="#3579FF"/>
<path d="M16.6667 0H1.66667C0.75 0 2.41597e-07 0.75 2.41597e-07 1.66667V13.3333C2.41597e-07 14.25 0.75 15 1.66667 15H10L15 20V15H16.6667C17.5833 15 18.3333 14.25 18.3333 13.3333V1.66667C18.3333 0.75 17.5833 0 16.6667 0Z" transform="translate(15.3301 11.9999)" fill="#3579FF"/>
</svg>
