<svg width="40" height="40" viewBox="0 0 40 40" fill="none" xmlns="http://www.w3.org/2000/svg">
<path d="M8.33333 28.3333V15L20.23 20.9517C22.665 18.3217 26.135 16.6683 30 16.6683V7.64167L22.3567 -5.58793e-10H3.33333C1.495 -5.58793e-10 0 1.495 0 3.33333V33.3333C0 35.17 1.495 36.6667 3.33333 36.6667H18.4633C17.3267 34.7033 16.6667 32.4317 16.6667 30.0017C16.6667 27.5317 17.3517 25.225 18.5217 23.2417L8.33333 28.3333ZM20 1.66667L28.3333 10H20V1.66667Z" transform="translate(0 0.0250244)" fill="#3579FF"/>
<path d="M10 0C4.485 0 0 4.48667 0 10C0 15.5133 4.485 20 10 20C15.515 20 20 15.5133 20 10C20 4.48667 15.515 0 10 0ZM15 11.6667H8.33333V3.33333H11.6667V8.33333H15V11.6667Z" transform="translate(20 20)" fill="#3579FF"/>
</svg>
