<svg width="14" height="15" viewBox="0 0 14 15" fill="none" xmlns="http://www.w3.org/2000/svg">
<path d="M7 -0.03125C8.20312 -0.03125 9.35156 0.296875 10.3906 0.898438C11.4297 1.5 12.25 2.32031 12.8516 3.35938C13.4531 4.39844 13.7812 5.54688 13.7812 6.75C13.7812 7.98047 13.4531 9.10156 12.8516 10.1406C12.25 11.1797 11.4297 12.0273 10.3906 12.6289C9.35156 13.2305 8.20312 13.5312 7 13.5312C5.76953 13.5312 4.64844 13.2305 3.60938 12.6289C2.57031 12.0273 1.72266 11.1797 1.12109 10.1406C0.519531 9.10156 0.21875 7.98047 0.21875 6.75C0.21875 5.54688 0.519531 4.39844 1.12109 3.35938C1.72266 2.32031 2.57031 1.5 3.60938 0.898438C4.64844 0.296875 5.76953 -0.03125 7 -0.03125ZM10.5547 3.19531C9.95312 2.62109 9.29688 2.21094 8.53125 1.96484C7.76562 1.74609 7 1.69141 6.23438 1.80078C5.44141 1.91016 4.73047 2.18359 4.10156 2.62109L11.1289 9.64844C11.5664 9.01953 11.8398 8.30859 11.9492 7.51562C12.0586 6.75 12.0039 5.98438 11.7852 5.21875C11.5391 4.45312 11.1289 3.79688 10.5547 3.19531ZM3.44531 10.3047C4.01953 10.9062 4.67578 11.3164 5.44141 11.5352C6.20703 11.7812 6.97266 11.8359 7.76562 11.7266C8.53125 11.6172 9.24219 11.3164 9.89844 10.8789L2.87109 3.85156C2.43359 4.50781 2.13281 5.21875 2.02344 5.98438C1.91406 6.77734 1.96875 7.54297 2.21484 8.30859C2.43359 9.07422 2.84375 9.73047 3.44531 10.3047Z" transform="translate(0 1)" fill="#FC5842"/>
</svg>
