<svg width="14" height="15" viewBox="0 0 14 15" fill="none" xmlns="http://www.w3.org/2000/svg">
<path d="M7 -0.03125C8.20312 -0.03125 9.35156 0.296875 10.3906 0.898438C11.4297 1.5 12.25 2.32031 12.8516 3.35938C13.4531 4.39844 13.7812 5.54688 13.7812 6.75C13.7812 7.98047 13.4531 9.10156 12.8516 10.1406C12.25 11.1797 11.4297 12.0273 10.3906 12.6289C9.35156 13.2305 8.20312 13.5312 7 13.5312C5.76953 13.5312 4.64844 13.2305 3.60938 12.6289C2.57031 12.0273 1.72266 11.1797 1.12109 10.1406C0.519531 9.10156 0.21875 7.98047 0.21875 6.75C0.21875 5.54688 0.519531 4.39844 1.12109 3.35938C1.72266 2.32031 2.57031 1.5 3.60938 0.898438C4.64844 0.296875 5.76953 -0.03125 7 -0.03125ZM7 1.28125C6.01562 1.28125 5.08594 1.52734 4.26562 2.01953C3.41797 2.51172 2.76172 3.19531 2.26953 4.01562C1.77734 4.86328 1.53125 5.76562 1.53125 6.75C1.53125 7.73438 1.77734 8.66406 2.26953 9.48438C2.76172 10.332 3.41797 10.9883 4.26562 11.4805C5.08594 11.9727 6.01562 12.2188 7 12.2188C7.98438 12.2188 8.88672 11.9727 9.73438 11.4805C10.5547 10.9883 11.2383 10.332 11.7305 9.48438C12.2227 8.66406 12.4688 7.73438 12.4688 6.75C12.4688 5.76562 12.2227 4.86328 11.7305 4.01562C11.2383 3.19531 10.5547 2.51172 9.73438 2.01953C8.88672 1.52734 7.98438 1.28125 7 1.28125ZM10.8281 4.83594C10.8828 4.91797 10.9375 5 10.9375 5.08203C10.9375 5.19141 10.8828 5.24609 10.8281 5.30078L6.125 9.97656C6.04297 10.0586 5.96094 10.0859 5.87891 10.0859C5.76953 10.0859 5.71484 10.0586 5.66016 9.97656L3.17188 7.48828C3.08984 7.43359 3.0625 7.35156 3.0625 7.24219C3.0625 7.16016 3.08984 7.07812 3.17188 7.02344L3.80078 6.39453C3.85547 6.33984 3.91016 6.3125 4.01953 6.3125C4.10156 6.3125 4.18359 6.33984 4.26562 6.39453L5.87891 8.0625L9.76172 4.20703C9.81641 4.15234 9.87109 4.125 9.98047 4.125C10.0625 4.125 10.1445 4.17969 10.2266 4.23438L10.8281 4.83594Z" transform="translate(0 1)" fill="#53C974"/>
</svg>
