<svg width="16" height="14" viewBox="0 0 16 14" fill="none" xmlns="http://www.w3.org/2000/svg">
<path d="M4 3.625C4 3.78125 4.03125 3.90625 4.125 4C4.21875 4.09375 4.34375 4.125 4.5 4.125H15.5C15.625 4.125 15.75 4.09375 15.8438 4C15.9375 3.90625 16 3.78125 16 3.625V2.375C16 2.25 15.9375 2.125 15.8438 2.03125C15.75 1.9375 15.625 1.875 15.5 1.875H4.5C4.34375 1.875 4.21875 1.9375 4.125 2.03125C4.03125 2.125 4 2.25 4 2.375V3.625ZM4.5 9.125C4.34375 9.125 4.21875 9.09375 4.125 9C4.03125 8.90625 4 8.78125 4 8.625V7.375C4 7.25 4.03125 7.125 4.125 7.03125C4.21875 6.9375 4.34375 6.875 4.5 6.875H15.5C15.625 6.875 15.75 6.9375 15.8438 7.03125C15.9375 7.125 16 7.25 16 7.375V8.625C16 8.78125 15.9375 8.90625 15.8438 9C15.75 9.09375 15.625 9.125 15.5 9.125H4.5ZM4.5 14.125C4.34375 14.125 4.21875 14.0938 4.125 14C4.03125 13.9062 4 13.7812 4 13.625V12.375C4 12.25 4.03125 12.125 4.125 12.0312C4.21875 11.9375 4.34375 11.875 4.5 11.875H15.5C15.625 11.875 15.75 11.9375 15.8438 12.0312C15.9375 12.125 16 12.25 16 12.375V13.625C16 13.7812 15.9375 13.9062 15.8438 14C15.75 14.0938 15.625 14.125 15.5 14.125H4.5ZM0.5 4.5C0.34375 4.5 0.21875 4.46875 0.125 4.375C0.03125 4.28125 0 4.15625 0 4V2C0 1.875 0.03125 1.75 0.125 1.65625C0.21875 1.5625 0.34375 1.5 0.5 1.5H2.5C2.625 1.5 2.75 1.5625 2.84375 1.65625C2.9375 1.75 3 1.875 3 2V4C3 4.15625 2.9375 4.28125 2.84375 4.375C2.75 4.46875 2.625 4.5 2.5 4.5H0.5ZM0.5 9.5C0.34375 9.5 0.21875 9.46875 0.125 9.375C0.03125 9.28125 0 9.15625 0 9V7C0 6.875 0.03125 6.75 0.125 6.65625C0.21875 6.5625 0.34375 6.5 0.5 6.5H2.5C2.625 6.5 2.75 6.5625 2.84375 6.65625C2.9375 6.75 3 6.875 3 7V9C3 9.15625 2.9375 9.28125 2.84375 9.375C2.75 9.46875 2.625 9.5 2.5 9.5H0.5ZM0.5 14.5C0.34375 14.5 0.21875 14.4688 0.125 14.375C0.03125 14.2812 0 14.1562 0 14V12C0 11.875 0.03125 11.75 0.125 11.6562C0.21875 11.5625 0.34375 11.5 0.5 11.5H2.5C2.625 11.5 2.75 11.5625 2.84375 11.6562C2.9375 11.75 3 11.875 3 12V14C3 14.1562 2.9375 14.2812 2.84375 14.375C2.75 14.4688 2.625 14.5 2.5 14.5H0.5Z" transform="translate(0 -1)" fill="#ADAFC7"/>
</svg>
