<svg width="14" height="15" viewBox="0 0 14 15" fill="none" xmlns="http://www.w3.org/2000/svg">
<path d="M7 -0.03125C8.20312 -0.03125 9.35156 0.296875 10.3906 0.898438C11.4297 1.5 12.25 2.32031 12.8516 3.35938C13.4531 4.39844 13.7812 5.54688 13.7812 6.75C13.7812 7.98047 13.4531 9.10156 12.8516 10.1406C12.25 11.1797 11.4297 12.0273 10.3906 12.6289C9.35156 13.2305 8.20312 13.5312 7 13.5312C5.76953 13.5312 4.64844 13.2305 3.60938 12.6289C2.57031 12.0273 1.72266 11.1797 1.12109 10.1406C0.519531 9.10156 0.21875 7.98047 0.21875 6.75C0.21875 5.54688 0.519531 4.39844 1.12109 3.35938C1.72266 2.32031 2.57031 1.5 3.60938 0.898438C4.64844 0.296875 5.76953 -0.03125 7 -0.03125ZM7 12.2188C7.98438 12.2188 8.88672 11.9727 9.73438 11.4805C10.5547 10.9883 11.2383 10.332 11.7305 9.48438C12.2227 8.66406 12.4688 7.73438 12.4688 6.75C12.4688 5.76562 12.2227 4.86328 11.7305 4.01562C11.2383 3.19531 10.5547 2.51172 9.73438 2.01953C8.88672 1.52734 7.98438 1.28125 7 1.28125C6.01562 1.28125 5.08594 1.52734 4.26562 2.01953C3.41797 2.51172 2.76172 3.19531 2.26953 4.01562C1.77734 4.86328 1.53125 5.76562 1.53125 6.75C1.53125 7.73438 1.77734 8.66406 2.26953 9.48438C2.76172 10.332 3.41797 10.9883 4.26562 11.4805C5.08594 11.9727 6.01562 12.2188 7 12.2188ZM8.69531 9.375C8.75 9.42969 8.83203 9.45703 8.94141 9.42969C9.02344 9.42969 9.10547 9.375 9.16016 9.29297L9.65234 8.58203C9.70703 8.52734 9.70703 8.44531 9.70703 8.33594C9.70703 8.25391 9.65234 8.17188 9.59766 8.11719L7.76562 6.80469V2.92188C7.76562 2.83984 7.71094 2.75781 7.65625 2.70312C7.60156 2.64844 7.51953 2.59375 7.4375 2.59375H6.5625C6.45312 2.59375 6.37109 2.64844 6.31641 2.70312C6.26172 2.75781 6.23438 2.83984 6.23438 2.92188V7.40625C6.23438 7.51562 6.26172 7.625 6.37109 7.67969L8.69531 9.375Z" transform="translate(0 1)" fill="#F2994A"/>
</svg>
