<svg width="16" height="14" viewBox="0 0 16 14" fill="none" xmlns="http://www.w3.org/2000/svg">
<path d="M4.65625 1.75C4.65625 1.5625 4.5625 1.375 4.4375 1.21875C4.28125 1.09375 4.09375 1 3.90625 1H0.75C0.53125 1 0.34375 1.09375 0.21875 1.21875C0.0625 1.375 0 1.5625 0 1.75V4.25C0 4.46875 0.0625 4.65625 0.21875 4.78125C0.34375 4.9375 0.53125 5 0.75 5H3.90625C4.09375 5 4.28125 4.9375 4.4375 4.78125C4.5625 4.65625 4.65625 4.46875 4.65625 4.25V1.75ZM10.3438 9.25C10.3438 9.46875 10.25 9.65625 10.125 9.78125C9.96875 9.9375 9.78125 10 9.59375 10H6.40625C6.1875 10 6 9.9375 5.875 9.78125C5.71875 9.65625 5.65625 9.46875 5.65625 9.25V6.75C5.65625 6.5625 5.71875 6.375 5.875 6.21875C6 6.09375 6.1875 6 6.40625 6H9.59375C9.78125 6 9.96875 6.09375 10.125 6.21875C10.25 6.375 10.3438 6.5625 10.3438 6.75V9.25ZM11.3438 1.75C11.3438 1.5625 11.4062 1.375 11.5625 1.21875C11.6875 1.09375 11.875 1 12.0938 1H15.25C15.4375 1 15.625 1.09375 15.7812 1.21875C15.9062 1.375 16 1.5625 16 1.75V4.25C16 4.46875 15.9062 4.65625 15.7812 4.78125C15.625 4.9375 15.4375 5 15.25 5H12.0938C11.875 5 11.6875 4.9375 11.5625 4.78125C11.4062 4.65625 11.3438 4.46875 11.3438 4.25V1.75ZM10.3438 4.25C10.3438 4.46875 10.25 4.65625 10.125 4.78125C9.96875 4.9375 9.78125 5 9.59375 5H6.40625C6.1875 5 6 4.9375 5.875 4.78125C5.71875 4.65625 5.65625 4.46875 5.65625 4.25V1.75C5.65625 1.5625 5.71875 1.375 5.875 1.21875C6 1.09375 6.1875 1 6.40625 1H9.59375C9.78125 1 9.96875 1.09375 10.125 1.21875C10.25 1.375 10.3438 1.5625 10.3438 1.75V4.25ZM3.90625 6C4.09375 6 4.28125 6.09375 4.4375 6.21875C4.5625 6.375 4.65625 6.5625 4.65625 6.75V9.25C4.65625 9.46875 4.5625 9.65625 4.4375 9.78125C4.28125 9.9375 4.09375 10 3.90625 10H0.75C0.53125 10 0.34375 9.9375 0.21875 9.78125C0.0625 9.65625 0 9.46875 0 9.25V6.75C0 6.5625 0.0625 6.375 0.21875 6.21875C0.34375 6.09375 0.53125 6 0.75 6H3.90625ZM0 11.75C0 11.5625 0.0625 11.375 0.21875 11.2188C0.34375 11.0938 0.53125 11 0.75 11H3.90625C4.09375 11 4.28125 11.0938 4.4375 11.2188C4.5625 11.375 4.65625 11.5625 4.65625 11.75V14.25C4.65625 14.4688 4.5625 14.6562 4.4375 14.7812C4.28125 14.9375 4.09375 15 3.90625 15H0.75C0.53125 15 0.34375 14.9375 0.21875 14.7812C0.0625 14.6562 0 14.4688 0 14.25V11.75ZM12.0938 10C11.875 10 11.6875 9.9375 11.5625 9.78125C11.4062 9.65625 11.3438 9.46875 11.3438 9.25V6.75C11.3438 6.5625 11.4062 6.375 11.5625 6.21875C11.6875 6.09375 11.875 6 12.0938 6H15.25C15.4375 6 15.625 6.09375 15.7812 6.21875C15.9062 6.375 16 6.5625 16 6.75V9.25C16 9.46875 15.9062 9.65625 15.7812 9.78125C15.625 9.9375 15.4375 10 15.25 10H12.0938ZM12.0938 15C11.875 15 11.6875 14.9375 11.5625 14.7812C11.4062 14.6562 11.3438 14.4688 11.3438 14.25V11.75C11.3438 11.5625 11.4062 11.375 11.5625 11.2188C11.6875 11.0938 11.875 11 12.0938 11H15.25C15.4375 11 15.625 11.0938 15.7812 11.2188C15.9062 11.375 16 11.5625 16 11.75V14.25C16 14.4688 15.9062 14.6562 15.7812 14.7812C15.625 14.9375 15.4375 15 15.25 15H12.0938ZM5.65625 11.75C5.65625 11.5625 5.71875 11.375 5.875 11.2188C6 11.0938 6.1875 11 6.40625 11H9.59375C9.78125 11 9.96875 11.0938 10.125 11.2188C10.25 11.375 10.3438 11.5625 10.3438 11.75V14.25C10.3438 14.4688 10.25 14.6562 10.125 14.7812C9.96875 14.9375 9.78125 15 9.59375 15H6.40625C6.1875 15 6 14.9375 5.875 14.7812C5.71875 14.6562 5.65625 14.4688 5.65625 14.25V11.75Z" transform="translate(0 -1)" fill="#ADAFC7"/>
</svg>
