<svg width="16" height="8" viewBox="0 0 16 8" version="1.1" xmlns="http://www.w3.org/2000/svg" xmlns:xlink="http://www.w3.org/1999/xlink">
<title>Vector</title>
<desc>Created using Figma</desc>
<g id="Canvas" transform="translate(-10607 4427)">
<g id="Vector">
<use xlink:href="#path0_fill" transform="translate(10607 -4427)" fill="#B2B4D6"/>
</g>
</g>
<defs>
<path id="path0_fill" fill-rule="evenodd" d="M 14.8878 2.9758L 3.32785 2.9758L 4.62784 1.69577C 4.81107 1.50884 4.9137 1.25757 4.9137 0.995818C 4.9137 0.734065 4.81107 0.482735 4.62784 0.295806C 4.53488 0.202077 4.42428 0.127702 4.30242 0.0769336C 4.18056 0.0261649 4.04985 2.92814e-05 3.91784 2.92814e-05C 3.78583 2.92814e-05 3.65513 0.0261649 3.53327 0.0769336C 3.41141 0.127702 3.30081 0.202077 3.20784 0.295806L 0.207843 3.29581C 0.125754 3.38087 0.0581916 3.47882 0.00784601 3.58578L 0.00784601 3.68582C -0.00261167 3.76883 -0.00261167 3.85282 0.00784601 3.93582C 0.00276618 3.96896 0.00276618 4.00266 0.00784601 4.0358C 0.00830919 4.14197 0.0286578 4.24711 0.0678436 4.34579C 0.116824 4.45353 0.184538 4.5517 0.267841 4.63577L 3.26784 7.63577C 3.35676 7.74104 3.46648 7.8268 3.59011 7.88766C 3.71373 7.94852 3.8486 7.9832 3.98625 7.98947C 4.1239 7.99574 4.26136 7.97347 4.39001 7.9241C 4.51866 7.87474 4.63572 7.79935 4.73384 7.7026C 4.83197 7.60586 4.90904 7.4899 4.96022 7.36197C 5.01141 7.23403 5.03559 7.09686 5.03128 6.95914C 5.02696 6.82141 4.99422 6.68609 4.93512 6.56161C 4.87602 6.43714 4.79184 6.32621 4.68785 6.23581L 3.32785 4.9758L 14.8878 4.9758C 15.1531 4.9758 15.4074 4.87043 15.595 4.68289C 15.7825 4.49535 15.8878 4.24101 15.8878 3.9758C 15.8878 3.71058 15.7825 3.45624 15.595 3.26871C 15.4074 3.08117 15.1531 2.9758 14.8878 2.9758Z"/>
</defs>
</svg>
