<svg width="20" height="16" viewBox="0 0 20 16" version="1.1" xmlns="http://www.w3.org/2000/svg" xmlns:xlink="http://www.w3.org/1999/xlink">
<title>Twitter</title>
<desc>Created using Figma</desc>
<g id="Canvas" transform="translate(-12652 3537)">
<g id="Twitter">
<use xlink:href="#path0_fill" transform="translate(12652 -3537)" fill="#1DA1F2"/>
</g>
</g>
<defs>
<path id="path0_fill" d="M 20 1.8854C 19.2639 2.20534 18.474 2.42233 17.6442 2.5192C 18.4915 2.02147 19.1402 1.23202 19.4476 0.294204C 18.6527 0.755128 17.7754 1.08982 16.8405 1.27125C 16.092 0.487914 15.0271 6.06516e-08 13.8461 6.06516e-08C 11.5803 6.06516e-08 9.74312 1.80206 9.74312 4.02336C 9.74312 4.3384 9.77936 4.6461 9.84936 4.94034C 6.44001 4.77237 3.41684 3.17015 1.39347 0.73551C 1.03977 1.32885 0.838563 2.02022 0.838563 2.75823C 0.838563 4.15453 1.56343 5.38655 2.66324 6.10734C 1.99085 6.08529 1.35847 5.90386 0.804838 5.60228L 0.804838 5.65254C 0.804838 7.6017 2.21958 9.22844 4.09546 9.59868C 3.75177 9.6894 3.38935 9.73966 3.01442 9.73966C 2.74948 9.73966 2.49327 9.71392 2.24206 9.66488C 2.76445 11.2647 4.27919 12.428 6.07387 12.4599C 4.67037 13.5387 2.90069 14.1798 0.978564 14.1798C 0.647387 14.1798 0.321177 14.1602 1.5524e-12 14.1247C 1.81592 15.2684 3.97177 15.9353 6.28883 15.9353C 13.8362 15.9353 17.9617 9.80342 17.9617 4.48554L 17.9479 3.96454C 18.754 3.40059 19.4513 2.69204 20 1.8854Z"/>
</defs>
</svg>
