<svg width="9" height="13" viewBox="0 0 9 13" fill="none" xmlns="http://www.w3.org/2000/svg">
<path d="M5.25 3.6875C5.25 3.85156 5.29688 3.99219 5.41406 4.08594C5.50781 4.20312 5.64844 4.25 5.8125 4.25H9V11.9375C9 12.1016 8.92969 12.2422 8.83594 12.3359C8.71875 12.4531 8.57812 12.5 8.4375 12.5H0.5625C0.398438 12.5 0.257812 12.4531 0.164062 12.3359C0.046875 12.2422 0 12.1016 0 11.9375V1.0625C0 0.921875 0.046875 0.78125 0.164062 0.664062C0.257812 0.570312 0.398438 0.5 0.5625 0.5H5.25V3.6875ZM7.03125 8.63281C7.14844 8.53906 7.17188 8.39844 7.125 8.23438C7.05469 8.09375 6.9375 8 6.77344 8H5.25V6.125C5.25 6.03125 5.20312 5.9375 5.13281 5.86719C5.0625 5.79688 4.96875 5.75 4.875 5.75H4.125C4.00781 5.75 3.91406 5.79688 3.84375 5.86719C3.77344 5.9375 3.75 6.03125 3.75 6.125V8H2.22656C2.03906 8 1.92188 8.09375 1.875 8.23438C1.80469 8.39844 1.82812 8.53906 1.96875 8.63281L4.21875 10.8828C4.28906 10.9766 4.38281 11 4.5 11C4.59375 11 4.6875 10.9766 4.78125 10.8828L7.03125 8.63281ZM8.83594 2.96094C8.92969 3.07812 9 3.21875 9 3.35938V3.5H6V0.5H6.14062C6.28125 0.5 6.42188 0.570312 6.53906 0.664062L8.83594 2.96094Z" fill="white"/>
</svg>
