<svg width="25" height="24" viewBox="0 0 25 24" version="1.1" xmlns="http://www.w3.org/2000/svg" xmlns:xlink="http://www.w3.org/1999/xlink">
<title>Facebook</title>
<desc>Created using Figma</desc>
<g id="Canvas" transform="translate(-9155 4859)">
<g id="Facebook">
<use xlink:href="#path0_fill" transform="translate(9155 -4859)" fill="#3B5998"/>
</g>
</g>
<defs>
<path id="path0_fill" d="M 0.24707 2.61572C 0 3.28564 0 4.12402 0 5.7998L 0 18.2002C 0 19.876 0 20.7144 0.24707 21.3843C 0.652344 22.4824 1.51758 23.3477 2.61523 23.7529C 3.28613 24 4.12402 24 5.7998 24L 11.8672 24L 11.8672 14.5454L 8.90625 14.5454L 8.90625 10.8608L 11.8672 10.8608L 11.8672 8.14355C 11.8672 4.99023 13.6602 3.27295 16.2783 3.27295C 17.5322 3.27295 18.6104 3.37305 18.9248 3.41797L 18.9248 6.71387L 17.1084 6.71484C 15.6846 6.71484 15.4092 7.44141 15.4092 8.5083L 15.4092 10.8608L 18.8057 10.8608L 18.3633 14.5454L 15.4092 14.5454L 15.4092 24L 18.6895 24C 20.3662 24 21.2041 24 21.874 23.7529C 22.9717 23.3477 23.8379 22.4824 24.2422 21.3843C 24.4902 20.7144 24.4902 19.876 24.4902 18.2002L 24.4902 5.7998C 24.4902 4.12402 24.4902 3.28564 24.2422 2.61572C 23.8379 1.51758 22.9717 0.652344 21.874 0.24707C 21.2041 0 20.3662 0 18.6895 0L 5.7998 0C 4.12402 0 3.28613 0 2.61523 0.24707C 1.51758 0.652344 0.652344 1.51758 0.24707 2.61572Z"/>
</defs>
</svg>
