<svg width="19" height="19" viewBox="0 0 19 19" fill="none" xmlns="http://www.w3.org/2000/svg">
<path d="M18.5312 6.5C18.9688 6.75 19.3438 7 19.5938 7.25C19.8438 7.5 20 7.75 20 8C20 8.25 19.8438 8.53125 19.5938 8.78125C19.3438 9.03125 18.9688 9.28125 18.5312 9.5C18 9.75 17.4062 9.9375 16.75 10.0625C16.0938 10.1875 15.4375 10.25 14.75 10.25H5.8125C5.65625 10.4688 5.5 10.625 5.3125 10.75H11.75C10.75 10.9688 9.875 11.3125 9.0625 11.7812C8.5625 12.0938 7.9375 12.5312 7.1875 13.1562C6.4375 13.7812 5.84375 14.2188 5.40625 14.4375C4.65625 14.8125 3.875 15 3 15V11H2.5V15C2.0625 15 1.71875 14.8125 1.4375 14.4375C1.125 14.0625 1 13.5625 1 13V11C0.3125 11 0 10.75 0 10.25V9C0 8.5 0.3125 8.25 1 8.25V7.75C0.3125 7.75 0 7.5 0 7V5.75C0 5.25 0.3125 5 1 5V3C1 2.4375 1.125 1.96875 1.4375 1.59375C1.71875 1.21875 2.0625 1 2.5 1V5H3V1C3.875 1 4.65625 1.1875 5.40625 1.5625C5.84375 1.8125 6.4375 2.21875 7.1875 2.84375C7.9375 3.46875 8.5625 3.9375 9.0625 4.21875C9.875 4.71875 10.75 5.0625 11.75 5.25H5.3125C5.5 5.375 5.65625 5.5625 5.8125 5.75H14.75C15.4375 5.75 16.0938 5.84375 16.75 5.96875C17.4062 6.09375 18 6.28125 18.5312 6.5ZM15.25 9.25C15.5625 9.25 15.7812 9.0625 15.9062 8.625C16.0312 8.21875 16.0312 7.8125 15.9062 7.375C15.7812 6.96875 15.5625 6.75 15.25 6.75C15.1875 6.75 15.125 6.78125 15.0625 6.84375C15 6.90625 15 6.9375 15 7V9C15 9.0625 15 9.125 15.0625 9.1875C15.125 9.25 15.1875 9.25 15.25 9.25Z" transform="translate(-1.72791 9.41418) rotate(-45)" fill="white"/>
</svg>
