<svg width="16" height="16" viewBox="0 0 16 16" fill="none" xmlns="http://www.w3.org/2000/svg">
<path d="M3.25 7C3.4375 7 3.625 7.09375 3.78125 7.21875C3.90625 7.375 4 7.5625 4 7.75V15.25C4 15.4688 3.90625 15.6562 3.78125 15.7812C3.625 15.9375 3.4375 16 3.25 16H0.75C0.53125 16 0.34375 15.9375 0.21875 15.7812C0.0625 15.6562 0 15.4688 0 15.25V7.75C0 7.5625 0.0625 7.375 0.21875 7.21875C0.34375 7.09375 0.53125 7 0.75 7H3.25ZM2 14.75C2.1875 14.75 2.375 14.6875 2.53125 14.5312C2.65625 14.4062 2.75 14.2188 2.75 14C2.75 13.8125 2.65625 13.625 2.53125 13.4688C2.375 13.3438 2.1875 13.25 2 13.25C1.78125 13.25 1.59375 13.3438 1.46875 13.4688C1.3125 13.625 1.25 13.8125 1.25 14C1.25 14.2188 1.3125 14.4062 1.46875 14.5312C1.59375 14.6875 1.78125 14.75 2 14.75ZM12 2.53125C12 1.53125 11.7188 0.84375 11.1562 0.40625C10.7812 0.15625 10.3125 0 9.75 0C9.46875 0 9.21875 0.25 9.03125 0.6875C8.90625 0.9375 8.8125 1.3125 8.6875 1.78125V1.8125C8.5625 2.28125 8.46875 2.625 8.40625 2.8125C8.28125 3.1875 8.09375 3.46875 7.90625 3.65625C7.5625 3.96875 7.15625 4.5 6.65625 5.21875C6.03125 6.09375 5.53125 6.75 5.125 7.1875C5.03125 7.25 5 7.34375 5 7.4375V14.125C5 14.25 5.03125 14.3438 5.09375 14.4062C5.15625 14.4688 5.25 14.5 5.375 14.5C5.71875 14.5 6.25 14.6875 6.96875 15C7.6875 15.3125 8.25 15.5312 8.6875 15.6562C9.375 15.9062 10.0625 16 10.75 16H10.8438C11.75 16 12.4375 15.9688 12.875 15.875C13.5938 15.75 14.0938 15.5 14.375 15.0938C14.625 14.7188 14.7188 14.25 14.5938 13.6875C14.8438 13.4062 15 13.0312 15.125 12.5938C15.2188 12.1562 15.2188 11.75 15.0938 11.3438C15.3438 11 15.5 10.5938 15.5625 10.125C15.5938 9.6875 15.5312 9.25 15.375 8.84375H15.4062C15.5625 8.65625 15.6875 8.4375 15.8125 8.15625C15.9375 7.90625 16 7.625 16 7.3125C16 6.84375 15.8125 6.4375 15.4375 6.0625C15.0625 5.6875 14.625 5.5 14.125 5.5H10.9688C11 5.3125 11.125 4.96875 11.375 4.53125C11.5625 4.15625 11.7188 3.875 11.8125 3.65625C11.9375 3.28125 12 2.90625 12 2.53125Z" fill="white"/>
</svg>
