<svg width="16" height="17" viewBox="0 0 16 17" fill="none" xmlns="http://www.w3.org/2000/svg">
<path d="M15.5 4C15.5 3.6875 15.4062 3.40625 15.25 3.15625C15.0625 2.90625 14.8438 2.75 14.5625 2.625L8.5625 0.125C8.1875 -0.03125 7.8125 -0.03125 7.4375 0.125L1.4375 2.625C1.125 2.75 0.90625 2.90625 0.75 3.15625C0.5625 3.40625 0.5 3.6875 0.5 4C0.5 5.96875 0.84375 7.8125 1.5625 9.53125C2.1875 11.0938 3.03125 12.4375 4.15625 13.5625C5.15625 14.625 6.25 15.4062 7.4375 15.875C7.8125 16.0625 8.1875 16.0625 8.5625 15.875C9.59375 15.4688 10.5938 14.7812 11.5625 13.8438C12.6875 12.7188 13.625 11.4062 14.3125 9.90625C15.0938 8.125 15.5 6.15625 15.5 4ZM8 13.9375V2.03125L13.5 4.34375C13.4375 6.59375 12.875 8.625 11.8125 10.375C10.8125 12 9.5625 13.1875 8 13.9375Z" fill="white"/>
</svg>
