<svg width="16" height="14" viewBox="0 0 16 14" fill="none" xmlns="http://www.w3.org/2000/svg">
<path d="M1 14V10H7V15H2C1.71875 15 1.46875 14.9062 1.28125 14.7188C1.09375 14.5312 1 14.2812 1 14ZM15 5C15.25 5 15.5 5.125 15.6875 5.3125C15.875 5.5 16 5.75 16 6V8.5C16 8.65625 15.9375 8.78125 15.8438 8.875C15.75 8.96875 15.625 9 15.5 9H0.5C0.34375 9 0.21875 8.96875 0.125 8.875C0.03125 8.78125 0 8.65625 0 8.5V6C0 5.75 0.09375 5.5 0.28125 5.3125C0.46875 5.125 0.71875 5 1 5H2.375C2.15625 4.625 2.0625 4.1875 2.0625 3.75C2.0625 3 2.3125 2.375 2.875 1.8125C3.40625 1.28125 4.0625 1 4.8125 1C5.4375 1 6 1.1875 6.5 1.53125C6.9375 1.84375 7.46875 2.375 8.03125 3.125C8.59375 2.375 9.09375 1.84375 9.5625 1.53125C10.0625 1.1875 10.625 1 11.25 1C12 1 12.625 1.28125 13.1875 1.8125C13.7188 2.375 14 3 14 3.75C14 4.1875 13.875 4.59375 13.6875 5H15ZM4.8125 5H7.5C6.96875 4.25 6.53125 3.65625 6.21875 3.28125C5.90625 2.96875 5.65625 2.75 5.4375 2.625C5.25 2.5625 5.0625 2.5 4.8125 2.5C4.4375 2.5 4.15625 2.625 3.90625 2.875C3.65625 3.125 3.5625 3.40625 3.5625 3.75C3.5625 4.125 3.65625 4.40625 3.90625 4.65625C4.15625 4.90625 4.4375 5 4.8125 5ZM11.25 5C11.5938 5 11.875 4.90625 12.125 4.65625C12.375 4.40625 12.5 4.125 12.5 3.75C12.5 3.40625 12.375 3.125 12.125 2.875C11.875 2.625 11.5938 2.5 11.25 2.5C11 2.5 10.7812 2.5625 10.625 2.625C10.375 2.75 10.125 2.96875 9.84375 3.28125C9.5 3.65625 9.0625 4.25 8.5625 5H11.25ZM9 15V10H15V14C15 14.2812 14.875 14.5312 14.6875 14.7188C14.5 14.9062 14.25 15 14 15H9Z" transform="translate(0 -1)" fill="white"/>
</svg>
