<svg width="20" height="20" viewBox="0 0 20 20" fill="none" xmlns="http://www.w3.org/2000/svg">
<path d="M9.6 2.04545C9.6 1.33636 9.53636 0.654545 9.41818 0H0V3.86818H5.38182C5.15 5.11818 4.44545 6.17727 3.38636 6.88636V9.39545H6.61818C8.50909 7.65454 9.6 5.09091 9.6 2.04545Z" transform="translate(10 8.18182)" fill="#4285F4"/>
<path d="M8.93636 8.1C11.6364 8.1 13.9 7.20454 15.5545 5.67727L12.3227 3.16818C11.4273 3.76818 10.2818 4.12273 8.93636 4.12273C6.33182 4.12273 4.12727 2.36364 3.34091 0H0V2.59091C1.64545 5.85909 5.02727 8.1 8.93636 8.1Z" transform="translate(1.06348 11.9)" fill="#34A853"/>
<path d="M4.40455 6.39091C4.20455 5.79091 4.09091 5.15 4.09091 4.49091C4.09091 3.83182 4.20455 3.19091 4.40455 2.59091V0H1.06364C0.363636 1.39351 -0.000616933 2.93147 7.84351e-07 4.49091C7.84351e-07 6.10455 0.386364 7.63182 1.06364 8.98182L4.40455 6.39091Z" transform="translate(0 5.50909)" fill="#FBBC05"/>
<path d="M8.93636 3.97727C10.4045 3.97727 11.7227 4.48182 12.7591 5.47273L15.6273 2.60455C13.8955 0.990909 11.6318 0 8.93636 0C5.02727 0 1.64545 2.24091 0 5.50909L3.34091 8.1C4.12727 5.73636 6.33182 3.97727 8.93636 3.97727Z" transform="translate(1.06348)" fill="#EA4335"/>
</svg>
