<svg width="16" height="16" viewBox="0 0 16 16" fill="none" xmlns="http://www.w3.org/2000/svg">
<path d="M7.75 0.25C9.125 0.25 10.4375 0.625 11.625 1.3125C12.8125 2 13.75 2.9375 14.4375 4.125C15.125 5.3125 15.5 6.625 15.5 8C15.5 9.40625 15.125 10.6875 14.4375 11.875C13.75 13.0625 12.8125 14.0312 11.625 14.7188C10.4375 15.4062 9.125 15.75 7.75 15.75C6.34375 15.75 5.0625 15.4062 3.875 14.7188C2.6875 14.0312 1.71875 13.0625 1.03125 11.875C0.34375 10.6875 0 9.40625 0 8C0 6.625 0.34375 5.3125 1.03125 4.125C1.71875 2.9375 2.6875 2 3.875 1.3125C5.0625 0.625 6.34375 0.25 7.75 0.25ZM11.5625 5.5625C11.5938 5.3125 11.5625 5.15625 11.4375 5.03125C11.3125 4.90625 11.1875 4.875 11.0312 4.9375L3.5625 7.84375C3.28125 7.9375 3.125 8.03125 3.125 8.15625C3.125 8.28125 3.21875 8.375 3.46875 8.4375L5.375 9.03125L9.8125 6.25C9.90625 6.1875 10 6.1875 10.0625 6.1875C10.125 6.21875 10.125 6.25 10.0625 6.3125L6.46875 9.5625L6.3125 11.5312C6.4375 11.5312 6.59375 11.4688 6.71875 11.3438L7.65625 10.4375L9.59375 11.875C9.96875 12.0938 10.1875 12 10.2812 11.5625L11.5625 5.5625Z" fill="#0088CC"/>
</svg>
