<svg width="76" height="64" viewBox="0 0 76 64" fill="none" xmlns="http://www.w3.org/2000/svg">
<path d="M35.6144 4.48378C26.8338 -2.15635 14.2877 -1.4213 6.34061 6.68865C-2.29029 15.4965 -2.0378 29.7367 6.65768 38.4799L27.8235 59.7616C33.4438 65.4127 42.5561 65.4127 48.1764 59.7616L69.3423 38.4799C78.0379 29.7367 78.2902 15.4965 69.6593 6.68865C61.7123 -1.4213 49.1662 -2.1562 40.3855 4.48378C38.9749 5.55047 37.0249 5.55047 35.6144 4.48378Z" fill="#E38892"/>
<path d="M35.6144 4.48378C26.8338 -2.15635 14.2877 -1.4213 6.34061 6.68865C-2.29029 15.4965 -2.0378 29.7367 6.65768 38.4799L27.8235 59.7616C33.4438 65.4127 42.5561 65.4127 48.1764 59.7616L69.3423 38.4799C78.0379 29.7367 78.2902 15.4965 69.6593 6.68865C61.7123 -1.4213 49.1662 -2.1562 40.3855 4.48378C38.9749 5.55047 37.0249 5.55047 35.6144 4.48378Z" fill="#E38892"/>
<path d="M26.1526 0C14.3591 0 12.784 6.49058 0 4.28959L15.9762 20.3532C21.5965 26.0043 30.7088 26.0043 36.3291 20.3532L52.3052 4.28959C39.5212 6.49058 37.9461 0 26.1526 0Z" transform="translate(11.8474 39.4082)" fill="#D66274"/>
<path opacity="0.15" d="M23.9149 0.0638338C17.6073 -0.413915 11.1366 1.78976 6.34061 6.68411C-2.29029 15.492 -2.0378 29.7322 6.65768 38.4754L27.8235 59.7571C33.4438 65.4081 42.5561 65.4081 48.1764 59.7571L66.4574 41.3761C25.2099 57.1291 12.0099 17.7135 23.9149 0.0638338Z" transform="translate(0 0.00463867)" fill="#812B2F"/>
</svg>
