<svg width="94" height="64" viewBox="0 0 94 64" fill="none" xmlns="http://www.w3.org/2000/svg">
<path d="M33.8601 0H16.1027C8.86447 0 2.56737 4.96921 0.866187 12.0237L0.0719587 15.3174C-0.312488 16.9114 0.892074 18.4459 2.52771 18.4459H47.4352C49.0709 18.4459 50.2752 16.9114 49.891 15.3174L49.0967 12.0237C47.3956 4.96921 41.0985 0 33.8601 0Z" transform="translate(0 45.5538)" fill="#7F9AE6"/>
<path d="M17.4563 0H0L4.73306 18.4459H12.7233L17.4563 0Z" transform="translate(16.2532 45.5538)" fill="#BBE0F1"/>
<path opacity="0.2" d="M21.0022 8.56459C20.5348 8.05707 20.9811 7.24929 21.6604 7.36435C22.7403 7.54733 23.8498 7.64269 24.9815 7.64269C30.802 7.64269 36.0355 5.1231 39.6569 1.1128C37.8529 0.392284 35.8937 0 33.8603 0H16.1027C8.86447 0 2.56737 4.96921 0.866187 12.0236L0.0719587 15.3172C-0.312488 16.9112 0.892074 18.4458 2.52771 18.4458H35.3202C29.9229 16.4263 24.7823 12.6695 21.0022 8.56459Z" transform="translate(0 45.5538)" fill="#254A74"/>
<path d="M19.7915 39.6889C30.722 39.6889 39.5829 30.8042 39.5829 19.8444C39.5829 8.88466 30.722 0 19.7915 0C8.86094 0 0 8.88466 0 19.8444C0 30.8042 8.86094 39.6889 19.7915 39.6889Z" transform="translate(5.19022 9.56323)" fill="#F8E47C"/>
<path opacity="0.15" d="M33.6556 32.5097C0.813506 38.1936 0.36058 9.78582 12.2415 0C5.05655 2.97575 0 10.0695 0 18.3484C0 29.3085 8.86117 38.1936 19.7922 38.1936C25.1913 38.1936 30.0848 36.0247 33.6556 32.5097Z" transform="translate(5.1893 11.0586)" fill="#C97B00"/>
<path d="M39.8079 0H18.9312C10.4215 0 3.0182 5.84215 1.01831 14.1358L0.0845523 18.008C-0.367273 19.882 1.04879 21.6862 2.97157 21.6862H55.7672C57.6902 21.6862 59.1062 19.8822 58.6542 18.008L57.7205 14.1358C55.7209 5.84215 48.3177 0 39.8079 0Z" transform="translate(35.2612 42.3137)" fill="#72CDA2"/>
<path d="M20.5225 0H0L5.56455 21.686H14.9582L20.5225 0Z" transform="translate(54.3694 42.3137)" fill="#F0F2FF"/>
<path opacity="0.15" d="M24.6913 10.0691C24.1418 9.4725 24.6663 8.5228 25.465 8.6581C26.7345 8.8733 28.039 8.98523 29.3695 8.98523C36.2124 8.98523 42.3652 6.0231 46.6227 1.3083C44.5019 0.461318 42.1987 0 39.8079 0H18.9312C10.4215 0 3.0182 5.84215 1.01831 14.1358L0.0845523 18.008C-0.367273 19.882 1.04879 21.6862 2.97157 21.6862H41.5243C35.1789 19.3117 29.1354 14.8951 24.6913 10.0691Z" transform="translate(35.2612 42.3137)" fill="#2C6245"/>
<path d="M23.2687 46.6621C36.1197 46.6621 46.5374 36.2164 46.5374 23.331C46.5374 10.4457 36.1197 0 23.2687 0C10.4178 0 0 10.4457 0 23.331C0 36.2164 10.4178 46.6621 23.2687 46.6621Z" transform="translate(41.3619)" fill="#F8E47C"/>
<path opacity="0.15" d="M39.5673 38.2204C0.956342 44.9024 0.423734 11.5048 14.3918 0C5.94478 3.49855 0 11.8384 0 21.5715C0 34.457 10.4177 44.9026 23.2687 44.9026C29.6163 44.9024 35.3692 42.3526 39.5673 38.2204Z" transform="translate(41.3621 1.75916)" fill="#C97B00"/>
</svg>
