<svg width="84" height="64" viewBox="0 0 84 64" fill="none" xmlns="http://www.w3.org/2000/svg">
<path d="M14.0647 10.1147H3.65367C1.63587 10.1147 0 11.7663 0 13.804V33.2709C0 35.3083 1.6357 36.9601 3.65367 36.9601H14.0649C16.3441 36.9601 18.5958 37.4611 20.664 38.4282L38.4451 46.7435C40.7646 47.8282 43.4159 46.1178 43.4159 43.5366V3.53823C43.4159 0.957056 40.7646 -0.753235 38.4451 0.331352L20.664 8.64657C18.5957 9.61371 16.3439 10.1147 14.0647 10.1147Z" transform="translate(0 8.46252)" fill="#F8E47C"/>
<g opacity="0.2">
<path opacity="0.2" d="M8.56127 2.48493H1.23047C0.550758 2.48493 0 1.9288 0 1.24246C0 0.556126 0.550758 0 1.23047 0H8.56144C9.24115 0 9.79191 0.556126 9.79191 1.24246C9.79191 1.9288 9.24098 2.48493 8.56127 2.48493Z" transform="translate(7.15837 34.3911)" fill="#C97B00"/>
<path opacity="0.2" d="M8.56127 2.48493H1.23047C0.550758 2.48493 0 1.9288 0 1.24246C0 0.556126 0.550758 0 1.23047 0H8.56144C9.24115 0 9.79191 0.556126 9.79191 1.24246C9.79174 1.9288 9.24098 2.48493 8.56127 2.48493Z" transform="translate(7.15837 39.024)" fill="#C97B00"/>
</g>
<path opacity="0.2" d="M38.4449 36.6286C40.7644 37.7134 43.4157 36.0029 43.4157 33.4218V31.6285C7.37723 24.254 8.15817 8.76317 8.36571 0H3.65367C1.6357 0 0 1.65181 0 3.68929V23.1562C0 25.1937 1.6357 26.8453 3.65367 26.8453H14.0649C16.3441 26.8453 18.5958 27.3463 20.6638 28.3134L38.4449 36.6286Z" transform="translate(0 18.5771)" fill="#C97B00"/>
<path d="M8.0891e-05 2.71905C8.0891e-05 3.41499 0.26291 4.11077 0.78873 4.64172C8.03816 11.962 12.0306 21.6779 12.0306 31.9999C12.0306 42.322 8.03816 52.0379 0.78873 59.3581C-0.26291 60.42 -0.26291 62.1416 0.78873 63.2035C1.84037 64.2655 3.54531 64.2655 4.59712 63.2035C12.8637 54.8563 17.4165 43.7745 17.4165 31.9999C17.4165 20.2253 12.8637 9.14357 4.59712 0.796543C3.54547 -0.265514 1.84054 -0.265514 0.78873 0.796543C0.263074 1.32749 8.0891e-05 2.02327 8.0891e-05 2.71905Z" transform="translate(66.5835)" fill="#BBE0F1"/>
<path d="M8.0891e-05 2.71921C8.0891e-05 3.41516 0.26291 4.11094 0.788731 4.64188C6.00149 9.90545 8.87225 16.8914 8.87225 24.3129C8.87225 31.7344 6.00149 38.7203 0.788731 43.9839C-0.26291 45.0458 -0.26291 46.7673 0.788731 47.8292C1.84037 48.8913 3.54547 48.8913 4.59711 47.8292C10.8271 41.5386 14.2581 33.187 14.2581 24.3129C14.2581 15.4387 10.8271 7.08721 4.59711 0.796543C3.54547 -0.265514 1.84054 -0.265514 0.788731 0.796543C0.26291 1.32749 8.0891e-05 2.02327 8.0891e-05 2.71921Z" transform="translate(58.9705 7.68701)" fill="#7F9AE6"/>
<path d="M0 2.71915C0 3.4151 0.26283 4.11088 0.788815 4.64182C3.96474 7.8487 5.71381 12.1047 5.71381 16.6256C5.71381 21.1465 3.96474 25.4025 0.788815 28.6094C-0.26299 29.6713 -0.262827 31.3929 0.788649 32.4548C1.84013 33.5167 3.54523 33.5168 4.59687 32.4548C8.79014 28.2209 11.0993 22.5992 11.0993 16.6256C11.0993 10.652 8.78998 5.03046 4.59687 0.796481C3.54523 -0.265576 1.84013 -0.265411 0.788649 0.796481C0.262993 1.32743 0 2.02337 0 2.71915Z" transform="translate(51.3576 15.3743)" fill="#6B7BAB"/>
<path opacity="0.2" d="M11.0808 1.49907C11.092 1.79213 11.0994 2.08584 11.0994 2.38072C11.0994 8.35432 8.79004 13.9759 4.59693 18.2099C3.54529 19.2719 1.84019 19.2718 0.788709 18.2099C-0.262931 17.148 -0.26293 15.4264 0.788875 14.3645C3.9648 11.1576 5.71386 6.90163 5.71386 2.38072C5.71386 1.57726 5.65759 0.78242 5.54882 0C7.0559 2.60039 10.0446 2.71453 11.0808 1.49907Z" transform="translate(51.3577 29.6193)" fill="#254A74"/>
<path opacity="0.2" d="M14.2581 3.82314C14.2581 12.6973 10.8271 21.0488 4.59712 27.3395C3.54547 28.4015 1.84054 28.4015 0.788731 27.3395C-0.26291 26.2776 -0.26291 24.556 0.788731 23.4941C6.00149 18.2306 8.87225 11.2446 8.87225 3.82314C8.87225 2.53313 8.7835 1.25688 8.61287 0C10.2865 2.95077 13.0537 3.36409 14.224 2.33202C14.2458 2.82735 14.2581 3.32433 14.2581 3.82314Z" transform="translate(58.9704 28.1769)" fill="#254A74"/>
<path opacity="0.2" d="M17.4165 3.94656C17.4165 15.7211 12.8637 26.8029 4.59712 35.1499C3.54547 36.212 1.84054 36.212 0.78873 35.1499C-0.26291 34.088 -0.26291 32.3665 0.78873 31.3046C8.03816 23.9843 12.0306 14.2684 12.0306 3.94639C12.0306 2.61961 11.9635 1.30293 11.8331 0C13.2429 2.52386 15.8434 3.36442 17.4014 2.79803C17.4111 3.18021 17.4165 3.56305 17.4165 3.94656Z" transform="translate(66.5835 28.0535)" fill="#254A74"/>
<path d="M4.17227 0.331418L0 2.28242V44.792L4.17227 46.7432C6.49179 47.828 9.14304 46.1175 9.14304 43.5363V3.53813C9.14304 0.957123 6.49179 -0.753335 4.17227 0.331418Z" transform="translate(34.2727 8.46265)" fill="#E38892"/>
<path opacity="0.2" d="M0 5.30946L4.17227 7.26062C6.49179 8.34537 9.14304 6.63492 9.14304 4.05374V2.26045C5.78583 1.57345 2.74854 0.815884 0.000162721 0V5.30946H0Z" transform="translate(34.2728 47.9452)" fill="#C97B00"/>
</svg>
