<svg width="90" height="64" viewBox="0 0 90 64" fill="none" xmlns="http://www.w3.org/2000/svg">
<path d="M19.0515 0H0V11.8243H30.9007C30.9007 5.29383 25.5956 0 19.0515 0Z" transform="translate(11.7056 4.05432)" fill="#BBE0F1"/>
<path opacity="0.2" d="M3.34511 0H0V11.8243H15.4576C8.24412 8.51936 4.43882 3.57407 3.34511 0Z" transform="translate(11.7058 4.05432)" fill="#254A74"/>
<path d="M2.98529 0H8.72031C10.3691 0 11.7056 1.33385 11.7056 2.97907V15.6312C11.7056 17.2766 10.369 18.6103 8.72031 18.6103H2.98529C1.33664 18.6103 0 17.2764 0 15.6312V2.97907C0 1.33385 1.33664 0 2.98529 0Z" fill="#7F9AE6"/>
<path opacity="0.2" d="M11.7056 15.5328V13.2975C4.89814 13.3234 2.59224 4.89529 2.23628 0C0.950799 0.33206 0 1.49401 0 2.88066V15.5328C0 17.1782 1.33664 18.5119 2.98529 18.5119H8.72031C10.3691 18.5119 11.7056 17.178 11.7056 15.5328Z" transform="translate(0 0.0983887)" fill="#254A74"/>
<path d="M56.7591 0H9.46616C4.23825 0 0 4.22925 0 9.44643V38.6751C0 43.8921 4.23808 48.1213 9.46616 48.1213H56.7591C61.987 48.1213 66.2253 43.8921 66.2253 38.6751V9.44643C66.2253 4.22925 61.9872 0 56.7591 0Z" transform="translate(2.23944 15.8787)" fill="#6B7BAB"/>
<path opacity="0.2" d="M61.7844 46.679C28.5015 42.5703 24.4849 11.0283 26.3262 0H9.46616C4.23825 0 0 4.22925 0 9.44643V38.6751C0 43.8921 4.23808 48.1213 9.46616 48.1213H56.7591C58.6059 48.1213 60.3278 47.5917 61.7844 46.679Z" transform="translate(2.23944 15.8787)" fill="#254A74"/>
<path d="M0 29.2613V5.26542C0 2.3574 2.36232 0 5.27642 0H47.3258C50.2399 0 52.6023 2.3574 52.6023 5.26542V29.2613C52.6023 32.1693 50.2399 34.5267 47.3258 34.5267H5.27624C2.36232 34.5267 0 32.1693 0 29.2613Z" transform="translate(9.05115 22.676)" fill="#F0F2FF"/>
<path d="M38.3668 34.5267C23.9862 26.1394 19.6173 10.4824 19.1831 0H5.27642C2.36232 0 0 2.3574 0 5.26542V29.2614C0 32.1695 2.36232 34.5267 5.27642 34.5267H38.3668Z" transform="translate(9.05096 22.676)" fill="#DBE1FF"/>
<path d="M0 4.32894L17.9416 0.080045C19.7755 -0.354281 21.5353 1.03377 21.5353 2.91474V27.0171C21.5353 28.9115 19.7518 30.302 17.9098 29.844L0.000171661 25.3899L0 4.32894Z" transform="translate(68.4647 25.1488)" fill="#72CDA2"/>
<path d="M4.28554 0.0800525L0 1.095V28.7861L4.25372 29.844C6.09591 30.3022 7.8792 28.9115 7.8792 27.0171V2.91458C7.8792 1.03361 6.11964 -0.354274 4.28554 0.0800525Z" transform="translate(82.1206 25.1488)" fill="#5B9675"/>
<path d="M18.7996 13.9717L5.68089 20.5174C3.07089 21.8197 0 19.9258 0 17.0137V3.92234C0 1.01028 3.07089 -0.883674 5.68089 0.418604L18.7996 6.96437C21.6929 8.40786 21.6929 12.5282 18.7996 13.9717Z" transform="translate(24.8674 29.4713)" fill="#E38892"/>
<path opacity="0.15" d="M21.5351 23.5333V20.4335C8.21986 19.0214 4.56591 7.6265 3.56905 0L0 0.845149V21.9061L17.9096 26.3603C19.7516 26.8183 21.5351 25.4277 21.5351 23.5333Z" transform="translate(68.4647 28.6326)" fill="#2C6245"/>
</svg>
