<svg width="80" height="64" viewBox="0 0 80 64" fill="none" xmlns="http://www.w3.org/2000/svg">
<path d="M31.0078 0C58.5241 0 62.0156 7.27929 62.0156 16.2587C62.0156 20.1796 61.3481 23.7755 58.3069 26.5834C57.1267 27.673 56.5081 29.2527 56.6902 30.8452C56.8466 32.2132 57.2327 33.3292 57.8906 34.507C58.4597 35.5258 57.6167 36.7684 56.4594 36.5935C52.9213 36.0584 49.707 34.6001 47.2259 32.6416C46.3408 31.9428 45.2105 31.6376 44.0908 31.7853C40.4847 32.2609 36.1695 32.5174 31.0078 32.5174C3.49141 32.5174 5.24377e-09 25.2381 5.24377e-09 16.2587C-0.000156245 7.27929 3.49141 0 31.0078 0Z" transform="translate(17.9844 27.3899)" fill="#72CDA2"/>
<path opacity="0.15" d="M23.1853 16.1588C21.3067 13.5731 23.1545 9.95587 26.3589 9.95587H38.4989C43.5052 9.95587 47.6416 6.25662 48.3095 1.45315C43.9959 0.520126 38.3602 0 31.0078 0C3.4914 0 0 7.27929 0 16.2587C0 25.2381 3.49156 32.5174 31.0078 32.5174C36.1695 32.5174 40.4847 32.2609 44.091 31.7853C45.2106 31.6376 46.3409 31.9428 47.2261 32.6416C49.7072 34.6001 52.9214 36.0586 56.4594 36.5935C57.6166 36.7684 58.4597 35.5258 57.8906 34.507C57.2327 33.3292 56.8466 32.2133 56.6902 30.8456C56.5086 29.2569 57.1206 27.6768 58.2989 26.5908C59.6036 25.3883 60.4713 24.041 61.0381 22.5855C39.2849 26.3013 27.8108 22.5256 23.1853 16.1588Z" transform="translate(17.9844 27.3898)" fill="#2C6245"/>
<path d="M0.0554556 36.5662C1.12952 31.7201 1.67124 26.7719 1.67124 21.8092V9.86809C1.67124 4.41812 6.10686 0 11.5784 0H56.4834C61.955 0 66.3906 4.41812 66.3906 9.86809V21.4197C66.3906 26.8696 61.955 31.2878 56.4834 31.2878H15.3351C13.5936 31.2878 11.9528 32.1008 10.9023 33.4844C8.89936 36.1224 6.15514 38.1089 3.01764 39.1921C1.33921 39.7715 -0.327513 38.2942 0.0554556 36.5662Z" fill="#F0F2FF"/>
<path d="M65.2367 26.0418C26.2601 30.0846 18.2844 10.6326 19.1441 0H11.5784C6.10686 0 1.67124 4.41812 1.67124 9.86809V21.8092C1.67124 26.7721 1.12952 31.7201 0.0554556 36.5662C-0.327513 38.2941 1.33921 39.7715 3.01764 39.1919C6.15514 38.1087 8.89936 36.1222 10.9023 33.4842C11.9528 32.1006 13.5936 31.2876 15.3351 31.2876H56.4833C60.2778 31.2878 63.5725 29.162 65.2367 26.0418Z" fill="#DBE1FF"/>
<path d="M42.1608 2.3345H1.17188C0.524688 2.3345 0 1.81188 0 1.16725C0 0.522617 0.524688 0 1.17188 0H42.1608C42.8081 0 43.3327 0.522617 43.3327 1.16725C43.3327 1.81188 42.808 2.3345 42.1608 2.3345Z" transform="translate(12.3646 11.1528)" fill="#495059"/>
<path d="M21.6663 2.3345H1.17188C0.524688 2.3345 0 1.81188 0 1.16725C0 0.522617 0.524688 0 1.17188 0H21.6663C22.3134 0 22.8381 0.522617 22.8381 1.16725C22.8381 1.81188 22.3134 2.3345 21.6663 2.3345Z" transform="translate(12.3646 17.8005)" fill="#495059"/>
</svg>
