<svg width="66" height="64" viewBox="0 0 66 64" fill="none" xmlns="http://www.w3.org/2000/svg">
<path d="M30.2319 59.3468L18.259 63.6482C14.3331 65.0585 10.2294 62.0465 10.344 57.8383L10.6933 45.0052C10.7455 43.0863 10.1415 41.2078 8.98274 39.6863L1.23371 29.5117C-1.30728 26.1753 0.260216 21.3016 4.25706 20.1113L16.4459 16.4813C18.2685 15.9385 19.8501 14.7775 20.9243 13.194L28.1081 2.60434C30.4637 -0.868114 35.5361 -0.868114 37.8917 2.60434L45.0755 13.194C46.1497 14.7775 47.7314 15.9385 49.554 16.4813L61.7428 20.1113C65.7396 21.3016 67.307 26.1753 64.7661 29.5117L57.0171 39.6865C55.8583 41.2079 55.2542 43.0864 55.3065 45.0053L55.6558 57.8385C55.7704 62.0465 51.6667 65.0587 47.7408 63.6483L35.7679 59.3469C33.9773 58.7036 32.0223 58.7036 30.2319 59.3468Z" transform="translate(0.000366211)" fill="#F8E47C"/>
<path opacity="0.15" d="M49.4784 0C38.798 2.20493 19.0681 -1.64584 0.305016 10.7142L0.00234605 21.8324C-0.112251 26.0404 3.99146 29.0527 7.9174 27.6421L19.8903 23.3408C21.6806 22.6976 23.6356 22.6976 25.426 23.3408L37.3989 27.6421C41.3248 29.0525 45.4285 26.0404 45.3139 21.8324L44.9646 8.9993C44.9124 7.08036 45.5164 5.20191 46.6752 3.68044L49.4784 0Z" transform="translate(10.3416 36.006)" fill="#C97B00"/>
<path opacity="0.15" d="M29.9455 0C29.244 0.425332 28.6133 1.00915 28.1081 1.75381L20.9243 12.3435C19.8502 13.9269 18.2685 15.0879 16.4459 15.6307L4.25698 19.2606C0.260259 20.4509 -1.30723 25.3247 1.23363 28.661L8.98265 38.8358C10.1414 40.3573 10.7456 42.2357 10.6932 44.1547L10.3439 56.9878C10.2293 61.1958 14.333 64.208 18.259 62.7975L30.2318 58.4961C32.0222 57.8529 33.9772 57.8529 35.7676 58.4961L47.7404 62.7975C50.442 63.7681 53.2277 62.6443 54.6651 60.4778C12.1212 39.2133 22.55 11.7641 29.9455 0Z" transform="translate(0 0.850708)" fill="#C97B00"/>
</svg>
