<svg width="62" height="64" viewBox="0 0 62 64" fill="none" xmlns="http://www.w3.org/2000/svg">
<path d="M54.8734 50.5283C59.3014 45.2148 61.9728 38.3995 61.9998 30.9635C62.0615 14.0091 48.0365 -0.000374992 30.9992 7.52819e-09C13.9532 0.000375007 0.120863 13.692 0.000779062 30.627C-0.119305 47.5622 13.6582 61.5232 30.6758 61.6969C33.5008 61.7258 36.2392 61.3773 38.8445 60.7006C40.3145 60.3187 41.8736 60.5175 43.188 61.276C45.0353 62.3421 47.1578 63.2688 49.29 63.8828C51.5344 64.5292 53.5786 62.3912 52.8663 60.1768C52.2989 58.4128 52.4269 56.6456 52.7395 54.9878C53.0495 53.3433 53.8001 51.8162 54.8734 50.5283Z" fill="#F0F2FF"/>
<path d="M52.8663 58.6513C52.2989 56.8873 52.4269 55.1201 52.7395 53.4622C53.0497 51.8178 53.8002 50.2907 54.8734 49.003C56.7002 46.811 58.227 44.3628 59.3934 41.7215C35.4073 54.0082 6.4333 31.903 21.3527 0C9.02302 4.0145 0.0971224 15.513 0.000779062 29.1016C-0.119305 46.0368 13.6582 59.9978 30.6758 60.1716C33.5008 60.2005 36.2392 59.852 38.8445 59.1752C40.3145 58.7933 41.8736 58.9921 43.188 59.7506C45.0353 60.8167 47.1576 61.7435 49.29 62.3574C51.5344 63.0037 53.5785 60.8658 52.8663 58.6513Z" transform="translate(0 1.52539)" fill="#DBE1FF"/>
<path d="M12.9788 21.8445V2.32852C12.9788 0.659651 11.2649 -0.466224 9.72289 0.189651C8.01497 0.91615 6.19085 1.3349 4.3357 1.42652L1.27671 1.57752C0.561605 1.6129 0 2.20015 0 2.91265V4.81677C0 5.55502 0.601424 6.15365 1.34328 6.15365H4.02745C4.64232 6.15365 5.14074 6.64964 5.14074 7.26152V21.8444H2.39276C1.07133 21.8444 0 22.9105 0 24.2255V25.195C0 26.5101 1.07121 27.5761 2.39276 27.5761H15.727C17.0484 27.5761 18.1197 26.51 18.1197 25.195V24.2255C18.1197 22.9105 17.0484 21.8444 15.727 21.8444L12.9788 21.8445Z" transform="translate(22.6276 21.3887)" fill="#7F9AE6"/>
<path d="M3.91905 7.79999C6.08348 7.79999 7.8381 6.05391 7.8381 3.9C7.8381 1.74609 6.08348 0 3.91905 0C1.75462 0 0 1.74609 0 3.9C0 6.05391 1.75462 7.79999 3.91905 7.79999Z" transform="translate(27.7679 9.23376)" fill="#7F9AE6"/>
</svg>
