<svg width="250" height="250" viewBox="0 0 250 250" version="1.1" xmlns="http://www.w3.org/2000/svg" xmlns:xlink="http://www.w3.org/1999/xlink">
<title>Instagram COLOR ICON</title>
<desc>Created using Figma</desc>
<g id="Canvas" transform="translate(-6883 6777)">
<g id="Instagram COLOR ICON">
<use xlink:href="#path0_fill" transform="translate(6883 -6777)" fill="#FF0058"/>
<use xlink:href="#path0_fill" transform="translate(6883 -6777)" fill="url(#paint1_radial)"/>
<use xlink:href="#path0_fill" transform="translate(6883 -6777)" fill="url(#paint2_radial)"/>
</g>
</g>
<defs>
<radialGradient id="paint1_radial" cx="0.5" cy="0.5" r="0.5" gradientUnits="userSpaceOnUse" gradientTransform="matrix(266 488 -920.22 501.596 405.11 -488.798)">
<stop offset="0" stop-color="#306CFF"/>
<stop offset="0.373321" stop-color="#AF36AD"/>
<stop offset="1" stop-color="#FFFFFF" stop-opacity="0"/>
</radialGradient>
<radialGradient id="paint2_radial" cx="0.5" cy="0.5" r="0.5" gradientUnits="userSpaceOnUse" gradientTransform="matrix(205 -284 465.705 336.16 -292.853 223.92)">
<stop offset="0" stop-color="#FFF173"/>
<stop offset="0.270718" stop-color="#FFBE40"/>
<stop offset="0.548131" stop-color="#FF6230"/>
<stop offset="1" stop-color="#FF0000" stop-opacity="0"/>
</radialGradient>
<path id="path0_fill" fill-rule="evenodd" d="M 0 99.2002C 0 64.4766 0 47.1152 6.75781 33.8525C 12.7021 22.1865 22.1865 12.7017 33.8525 6.75781C 47.1152 0 64.4766 0 99.2002 0L 150.8 0C 185.523 0 202.885 0 216.147 6.75781C 227.813 12.7017 237.298 22.1865 243.242 33.8525C 250 47.1152 250 64.4766 250 99.2002L 250 150.8C 250 185.523 250 202.885 243.242 216.147C 237.298 227.813 227.813 237.298 216.147 243.242C 202.885 250 185.523 250 150.8 250L 99.2002 250C 64.4766 250 47.1152 250 33.8525 243.242C 22.1865 237.298 12.7021 227.813 6.75781 216.147C 0 202.885 0 185.523 0 150.8L 0 99.2002ZM 216 51C 216 60.3887 208.389 68 199 68C 189.611 68 182 60.3887 182 51C 182 41.6113 189.611 34 199 34C 208.389 34 216 41.6113 216 51ZM 125 194C 163.107 194 194 163.107 194 125C 194 86.8926 163.107 56 125 56C 86.8926 56 56 86.8926 56 125C 56 163.107 86.8926 194 125 194ZM 162 125C 162 145.435 145.435 162 125 162C 104.565 162 88 145.435 88 125C 88 104.565 104.565 88 125 88C 145.435 88 162 104.565 162 125Z"/>
</defs>
</svg>
