<svg width="20" height="15" viewBox="0 0 20 15" version="1.1" xmlns="http://www.w3.org/2000/svg" xmlns:xlink="http://www.w3.org/1999/xlink">
<title>YouTube</title>
<desc>Created using Figma</desc>
<g id="Canvas" transform="translate(-8981 3885)">
<g id="YouTube">
<use xlink:href="#path0_fill" transform="translate(8981 -3884.08)" fill="#FF0000"/>
</g>
</g>
<defs>
<path id="path0_fill" fill-rule="evenodd" d="M 17.8254 0.426654C 18.6822 0.656191 19.3573 1.32859 19.5885 2.18157C 20.0168 3.74003 19.9999 6.98824 19.9999 6.98824C 19.9999 6.98824 19.9999 10.2196 19.5885 11.778C 19.3573 12.631 18.6822 13.3037 17.8254 13.5333C 16.2603 13.9434 9.99996 13.9434 9.99996 13.9434C 9.99996 13.9434 3.75649 13.9434 2.17447 13.5168C 1.3177 13.2872 0.642575 12.6148 0.412108 11.7618C 0 10.2196 0 6.9717 0 6.9717C 0 6.9717 0 3.74003 0.412108 2.18157C 0.642575 1.32859 1.33463 0.639656 2.17447 0.410119C 3.73957 0 9.99996 0 9.99996 0C 9.99996 0 16.2603 0 17.8254 0.426654ZM 13.2115 6.97138L 8.00582 9.95698L 8.00582 3.98578L 13.2115 6.97138Z"/>
</defs>
</svg>
