<svg width="18" height="15" viewBox="0 0 18 15" version="1.1" xmlns="http://www.w3.org/2000/svg" xmlns:xlink="http://www.w3.org/1999/xlink">
<title>Telegram</title>
<desc>Created using Figma</desc>
<g id="Canvas" transform="translate(-8598 4195)">
<g id="Telegram">
<use xlink:href="#path0_fill" transform="translate(8598 -4194.94)" fill="#DCDCE3"/>
</g>
</g>
<defs>
<path id="path0_fill" d="M 18 0.872803C 17.9646 1.28027 17.8336 1.71147 17.7347 2.14751C 16.9099 5.75845 16.082 9.36895 15.2507 12.979C 15.2032 13.1867 15.1516 13.3944 15.031 13.5805C 14.8331 13.8857 14.5465 13.9984 14.1713 13.9186C 13.9349 13.8687 13.7295 13.7665 13.5355 13.6329C 12.2853 12.7757 11.0299 11.9236 9.78332 11.0615C 9.62473 10.9516 9.53367 10.9639 9.40005 11.0867C 8.78519 11.6513 8.1582 12.2045 7.54168 12.7676C 7.30629 12.9825 7.04617 13.1109 6.70403 13.0997C 6.46198 13.0918 6.32361 13.0003 6.24966 12.7872C 5.86424 11.674 5.47217 10.5626 5.08176 9.45071C 4.94933 9.07335 4.80952 8.69819 4.68564 8.31842C 4.64094 8.1815 4.56462 8.11183 4.41507 8.06941C 3.19153 7.72216 1.97084 7.36612 0.749209 7.01448C 0.588004 6.96789 0.426562 6.92107 0.282476 6.83734C -0.0660869 6.6347 -0.0939051 6.36372 0.209245 6.10724C 0.416576 5.93142 0.669082 5.82724 0.927533 5.73494C 2.59347 5.14022 4.25965 4.54587 5.92606 3.95188C 9.52345 2.66985 13.1209 1.38781 16.7184 0.10578C 16.747 0.0956703 16.775 0.0838022 16.8038 0.074132C 17.4798 -0.158173 17.9955 0.168416 18 0.872803ZM 6.71235 12.0388C 6.77774 12.01 6.77179 11.9694 6.77512 11.9371C 6.85715 11.1259 6.94156 10.3149 7.01431 9.5028C 7.03215 9.30104 7.09967 9.15115 7.26943 9.01006C 9.61427 7.06386 11.9553 5.11355 14.2925 3.15915C 14.4404 3.03563 14.5897 2.91343 14.7343 2.78662C 14.794 2.73432 14.8722 2.6741 14.8261 2.58751C 14.7785 2.49696 14.6741 2.50069 14.5821 2.51058C 14.4024 2.5297 14.2493 2.61102 14.099 2.69871C 11.2141 4.38177 8.32757 6.06336 5.43936 7.74348C 5.27506 7.83887 5.25271 7.92612 5.31144 8.08831C 5.66809 9.07577 6.01546 10.0663 6.36545 11.0553C 6.48077 11.3826 6.59585 11.7094 6.71235 12.0388Z"/>
</defs>
</svg>
