<svg width="28" height="22" viewBox="0 0 28 22" version="1.1" xmlns="http://www.w3.org/2000/svg" xmlns:xlink="http://www.w3.org/1999/xlink">
<title>Twitter</title>
<desc>Created using Figma</desc>
<g id="Canvas" transform="translate(-9354 4858)">
<g id="Twitter">
<use xlink:href="#path0_fill" transform="translate(9354 -4858)" fill="#1DA1F2"/>
</g>
</g>
<defs>
<path id="path0_fill" d="M 28 2.60295C 26.9694 3.04466 25.8637 3.34422 24.7019 3.47796C 25.8881 2.79081 26.7962 1.7009 27.2266 0.406173C 26.1138 1.04252 24.8855 1.50458 23.5768 1.75506C 22.5287 0.673605 21.038 8.37344e-08 19.3845 8.37344e-08C 16.2124 8.37344e-08 13.6404 2.48788 13.6404 5.55458C 13.6404 5.98952 13.6911 6.41432 13.7891 6.82054C 9.01601 6.58864 4.78357 4.37664 1.95085 1.01543C 1.45568 1.83459 1.17399 2.78908 1.17399 3.80797C 1.17399 5.73567 2.18881 7.43657 3.72854 8.43168C 2.78719 8.40124 1.90185 8.15075 1.12677 7.7344L 1.12677 7.80379C 1.12677 10.4948 3.10741 12.7406 5.73365 13.2518C 5.25248 13.377 4.74509 13.4464 4.22018 13.4464C 3.84927 13.4464 3.49058 13.4109 3.13889 13.3431C 3.87023 15.5518 5.99087 17.1579 8.50341 17.2019C 6.53851 18.6913 4.06097 19.5764 1.36999 19.5764C 0.906341 19.5764 0.449648 19.5493 2.17336e-12 19.5003C 2.54229 21.0793 5.56048 22 8.80437 22C 19.3706 22 25.1463 13.5344 25.1463 6.19265L 25.1271 5.47337C 26.2556 4.69479 27.2319 3.71658 28 2.60295Z"/>
</defs>
</svg>
