<svg width="32" height="9" viewBox="0 0 32 9" fill="none" xmlns="http://www.w3.org/2000/svg">
<path d="M0 0.14674V6.99459H4.75937V5.42937H1.72644V4.31415H4.42341V2.75871H1.72644V1.71196H4.70337V0.14674H0Z" transform="translate(11.2544 1.02716)" fill="white"/>
<path d="M5.36945 3.66849C5.36945 6.11415 7.15188 7.14133 8.94364 7.14133C9.63422 7.14133 10.2781 6.99459 10.8474 6.71089V4.95002C10.4741 5.33154 9.85819 5.54676 9.18628 5.54676C8.16908 5.54676 7.14255 4.99893 7.14255 3.66849C7.14255 2.18153 8.16908 1.58479 9.20494 1.58479C9.8022 1.58479 10.3995 1.79022 10.8007 2.1424V0.430436C10.2315 0.14674 9.56889 0 8.90632 0C7.14255 0 5.36945 1.08587 5.36945 3.66849Z" transform="translate(11.2544 1.02716)" fill="white"/>
<path d="M11.8018 0.14674V6.99459H13.5283V0.14674H11.8018Z" transform="translate(11.2544 1.02716)" fill="white"/>
<path d="M16.4901 6.99459V4.76415H17.2367L18.7951 6.99459H20.7455L18.9444 4.5098C19.663 4.20654 20.1949 3.59023 20.1949 2.45544C20.1949 0.645654 18.8418 0.14674 17.5166 0.14674H14.7637V6.99459H16.4901ZM16.4901 1.71196H17.5913C18.0859 1.71196 18.4218 1.97609 18.4218 2.50436C18.4218 3.03262 18.0859 3.29675 17.5913 3.29675H16.4901V1.71196Z" transform="translate(11.2544 1.02716)" fill="white"/>
<path d="M1.30329 5.11791L2.4328 4.17774L1.39018 3.35888C1.33226 3.32855 1.27433 3.32855 1.21641 3.35888L0.173792 4.17774L1.30329 5.11791Z" fill="#3C59F0"/>
<path d="M1.15846 5.36056L0 4.39006V7.99911C0 8.05977 0.0289616 8.0901 0.0579232 8.12043L1.15846 8.99994V5.36056Z" fill="#3C59F0"/>
<path d="M1.44802 5.36052V8.9999L2.54856 8.15071C2.57753 8.12038 2.60649 8.09005 2.60649 8.0294V4.42034L1.44802 5.36052Z" fill="#3C59F0"/>
<path d="M4.19943 1.78178L5.32894 0.841608L4.28632 0.0227462C4.22839 -0.00758205 4.17047 -0.00758205 4.11255 0.0227462L3.06993 0.841608L4.19943 1.78178Z" fill="#3C59F0"/>
<path d="M4.0546 2.02443L2.89614 1.05393V7.99909C2.89614 8.05974 2.9251 8.09007 2.95406 8.1204L4.0546 8.96959V2.02443Z" fill="#3C59F0"/>
<path d="M4.34416 2.02448V8.99997L5.4447 8.15078C5.47366 8.12045 5.50263 8.09012 5.50263 8.02946V1.08431L4.34416 2.02448Z" fill="#3C59F0"/>
<path d="M6.95083 3.84421L5.79237 2.90403V8.0295C5.79237 8.09015 5.82133 8.12048 5.85029 8.15081L6.95083 9V3.84421Z" fill="#3C59F0"/>
<path d="M7.09566 3.60151L8.22517 2.66133L7.18255 1.84247C7.12462 1.81214 7.0667 1.81214 7.00878 1.84247L5.96616 2.66133L7.09566 3.60151Z" fill="#3C59F0"/>
<path d="M7.24039 3.84421V9L8.34093 8.15081C8.36989 8.12048 8.39886 8.09015 8.39886 8.0295V2.90403L7.24039 3.84421Z" fill="#3C59F0"/>
</svg>
