<svg width="18" height="12" viewBox="0 0 18 12" fill="none" xmlns="http://www.w3.org/2000/svg">
<path opacity="0.8" d="M17.7812 7.25C17.9062 7.5 18 7.75 18 8C18 8.28125 17.9062 8.53125 17.7812 8.75C16.875 10.2812 15.6562 11.5 14.125 12.375C12.5625 13.3125 10.8438 13.75 9 13.75C7.125 13.75 5.4375 13.3125 3.875 12.375C2.3125 11.5 1.09375 10.2812 0.21875 8.75C0.0625 8.53125 0 8.28125 0 8C0 7.75 0.0625 7.5 0.21875 7.25C1.09375 5.75 2.3125 4.53125 3.875 3.625C5.4375 2.71875 7.125 2.25 9 2.25C10.8438 2.25 12.5625 2.71875 14.125 3.625C15.6562 4.53125 16.875 5.75 17.7812 7.25ZM9 12.25C9.75 12.25 10.4688 12.0625 11.125 11.6875C11.75 11.3125 12.2812 10.7812 12.6562 10.125C13.0312 9.5 13.25 8.78125 13.25 8C13.25 7.25 13.0312 6.53125 12.6562 5.875C12.2812 5.25 11.75 4.71875 11.125 4.34375C10.4688 3.96875 9.75 3.75 9 3.75C8.21875 3.75 7.5 3.96875 6.875 4.34375C6.21875 4.71875 5.6875 5.25 5.3125 5.875C4.9375 6.53125 4.75 7.25 4.75 8C4.75 8.78125 4.9375 9.5 5.3125 10.125C5.6875 10.7812 6.21875 11.3125 6.875 11.6875C7.5 12.0625 8.21875 12.25 9 12.25ZM12.25 8C12.25 7.125 11.9062 6.34375 11.2812 5.71875C10.6562 5.09375 9.875 4.75 9 4.75C8.4375 4.75 7.9375 4.875 7.46875 5.125C7.84375 5.125 8.15625 5.28125 8.40625 5.53125C8.65625 5.78125 8.8125 6.09375 8.8125 6.46875C8.8125 6.84375 8.65625 7.1875 8.40625 7.4375C8.15625 7.6875 7.84375 7.8125 7.46875 7.8125C7.09375 7.8125 6.75 7.6875 6.5 7.4375C6.25 7.1875 6.125 6.84375 6.125 6.46875C5.875 6.96875 5.75 7.46875 5.75 8C5.75 8.90625 6.0625 9.6875 6.6875 10.3125C7.3125 10.9375 8.09375 11.25 9 11.25C9.875 11.25 10.6562 10.9375 11.2812 10.3125C11.9062 9.6875 12.25 8.90625 12.25 8Z" transform="translate(0 -2)" fill="#7A7C99"/>
</svg>
