<svg width="728" height="90" viewBox="0 0 728 90" fill="none" xmlns="http://www.w3.org/2000/svg">
<g filter="url(#filter0_d)">
<rect width="728" height="90" rx="1" fill="url(#paint0_linear)"/>
</g>
<path opacity="0.3" d="M28.5565 0C25.3389 0 22.2553 1.19983 20.1102 3.46617C17.9652 1.19983 14.8816 0 11.6639 0C5.22866 0 0 5.06594 0 11.1984C0 13.998 1.20661 16.6643 3.35171 19.0639C7.23969 23.1967 19.4399 35.0617 19.574 35.195C19.708 35.3283 19.8421 35.3283 19.9762 35.3283C20.1102 35.3283 20.3784 35.3283 20.3784 35.195C20.5125 35.0617 32.7127 23.1967 36.6006 19.0639C38.8798 16.6643 39.9524 13.998 39.9524 11.1984C40.2205 5.06594 34.9918 0 28.5565 0ZM11.3958 3.99943C7.37376 3.99943 4.02205 7.33228 4.02205 11.3317C4.02205 11.7317 3.75391 11.9983 3.35171 11.9983C2.9495 11.9983 2.68137 11.7317 2.68137 11.3317C2.68137 6.5324 6.56935 2.66629 11.3958 2.66629C11.798 2.66629 12.0661 2.93291 12.0661 3.33286C12.0661 3.7328 11.798 3.99943 11.3958 3.99943Z" transform="matrix(0.755253 -0.655433 0.653596 0.756844 57.7 61.0105)" fill="#414495"/>
<path opacity="0.6" d="M37.712 0C33.4628 0 29.3906 1.58629 26.5577 4.5826C23.7249 1.58629 19.6527 0 15.4035 0C6.90501 0 0 6.69765 0 14.8053C0 18.5067 1.59346 22.0317 4.42629 25.2043C9.56079 30.6682 25.6725 46.3548 25.8495 46.531C26.0266 46.7073 26.2036 46.7073 26.3807 46.7073C26.5577 46.7073 26.9118 46.7073 26.9118 46.531C27.0889 46.3548 43.2006 30.6682 48.3351 25.2043C51.345 22.0317 52.7614 18.5067 52.7614 14.8053C53.1155 6.69765 46.2105 0 37.712 0ZM15.0494 5.28762C9.73784 5.28762 5.31155 9.69397 5.31155 14.9816C5.31155 15.5103 4.95745 15.8629 4.42629 15.8629C3.89514 15.8629 3.54103 15.5103 3.54103 14.9816C3.54103 8.63644 8.67553 3.52508 15.0494 3.52508C15.5805 3.52508 15.9346 3.87759 15.9346 4.40635C15.9346 4.93511 15.5805 5.28762 15.0494 5.28762Z" transform="matrix(0.885305 -0.465011 0.46325 0.886228 253 19.5407)" fill="#414495"/>
<path opacity="0.6" d="M13.2371 0C11.7456 0 10.3162 0.556536 9.32188 1.60777C8.32754 0.556536 6.89819 0 5.40669 0C2.42369 0 0 2.34982 0 5.19434C0 6.49292 0.559313 7.72967 1.55365 8.84274C3.35588 10.7597 9.01115 16.2632 9.07329 16.3251C9.13544 16.3869 9.19759 16.3869 9.25973 16.3869C9.32188 16.3869 9.44617 16.3869 9.44617 16.3251C9.50831 16.2632 15.1636 10.7597 16.9658 8.84274C18.0223 7.72967 18.5195 6.49292 18.5195 5.19434C18.6438 2.34982 16.2201 0 13.2371 0ZM5.2824 1.85512C3.41802 1.85512 1.86438 3.40105 1.86438 5.25618C1.86438 5.44169 1.74008 5.56536 1.55365 5.56536C1.36721 5.56536 1.24292 5.44169 1.24292 5.25618C1.24292 3.03003 3.04515 1.23675 5.2824 1.23675C5.46883 1.23675 5.59313 1.36042 5.59313 1.54593C5.59313 1.73145 5.46883 1.85512 5.2824 1.85512Z" transform="matrix(0.834342 0.551247 -0.549068 0.835777 605.299 20.3979)" fill="#414495"/>
<g opacity="0.8" transform="matrix(0.852063 -0.52344 0.521526 0.853235 638.208 66.1308)">
<path d="M43.5028 0C43.2078 0 42.9129 0.295244 42.7654 0.590487C35.8345 8.70968 25.8067 13.286 15.1891 13.286H14.0094C12.8296 13.286 11.7974 14.3193 11.7974 15.5003V28.7862C11.7974 29.9672 12.8296 31.0006 14.0094 31.0006H15.1891C25.6593 31.0006 35.687 35.5768 42.7654 43.696C42.9129 43.9913 43.0604 44.2865 43.5028 44.2865C43.9452 44.2865 44.2401 43.9913 44.2401 43.5484V0.738109C44.2401 0.295244 43.9452 0 43.5028 0Z" fill="#414495"/>
<path d="M10.3227 28.7862V15.5003C10.3227 15.205 10.3227 15.0574 10.4702 14.7622H3.68667C1.62214 14.7622 0 16.5336 0 18.6003V25.6862C0 27.7529 1.62214 29.5244 3.68667 29.5244H10.4702C10.3227 29.2291 10.3227 29.0815 10.3227 28.7862ZM5.89868 24.3576C5.89868 24.8005 5.60374 25.0957 5.16134 25.0957C4.71894 25.0957 4.42401 24.8005 4.42401 24.3576V19.9289C4.42401 19.4861 4.71894 19.1908 5.16134 19.1908C5.60374 19.1908 5.89868 19.4861 5.89868 19.9289V24.3576ZM8.84802 24.3576C8.84802 24.8005 8.55309 25.0957 8.11068 25.0957C7.66828 25.0957 7.37335 24.8005 7.37335 24.3576V19.9289C7.37335 19.4861 7.66828 19.1908 8.11068 19.1908C8.55309 19.1908 8.84802 19.4861 8.84802 19.9289V24.3576Z" fill="#414495"/>
<path d="M19.0238 39.415C18.5814 38.9721 18.2865 38.3817 17.8441 37.6436C16.9593 36.0197 16.6643 34.2483 16.9593 32.4768C16.3694 32.4768 15.7795 32.4768 15.3371 32.4768H14.0099C12.8302 32.4768 11.7979 31.8863 11.0606 31.0006H7.96379L10.6182 40.7436C10.9131 42.8103 12.8302 44.2865 14.8947 44.2865H17.5491C18.4339 44.2865 19.3187 43.8437 19.7612 42.9579C20.2036 42.0722 20.2036 41.1865 19.6137 40.3007C19.6137 40.3007 19.1713 39.7103 19.0238 39.415Z" fill="#414495"/>
</g>
<g opacity="0.7" transform="matrix(0.776388 -0.630255 0.628123 0.778114 463.595 72.694)">
<path d="M36.7351 26.193H17.3279C15.3872 26.193 13.8623 27.7095 13.8623 29.6395V36.5324C13.8623 38.4624 15.3872 39.9788 17.3279 39.9788H36.7351C38.6758 39.9788 40.2007 38.4624 40.2007 36.5324V29.6395C40.2007 27.7095 38.6758 26.193 36.7351 26.193ZM30.2198 33.6373L24.6749 37.0838C24.5363 37.2217 24.3977 37.2217 24.259 37.2217C24.1204 37.2217 23.9818 37.2217 23.9818 37.0838C23.7046 36.9459 23.5659 36.6702 23.5659 36.5324V29.6395C23.5659 29.3637 23.7046 29.2259 23.9818 29.088C24.259 28.9502 24.5363 28.9502 24.6749 29.088L30.2198 32.5345C30.3585 32.6723 30.4971 32.9481 30.4971 33.0859C30.4971 33.2238 30.3585 33.4995 30.2198 33.6373Z" fill="#414495"/>
<path d="M20.7935 22.0573C21.5591 22.0573 22.1797 21.4401 22.1797 20.6787C22.1797 19.9173 21.5591 19.3001 20.7935 19.3001C20.0279 19.3001 19.4072 19.9173 19.4072 20.6787C19.4072 21.4401 20.0279 22.0573 20.7935 22.0573Z" fill="#414495"/>
<path d="M20.7935 0C9.28775 0 0 9.23648 0 20.6787C0 28.5366 4.43594 35.7052 11.5057 39.1517C11.6443 39.1517 11.6443 39.2895 11.783 39.2895C11.9216 39.2895 12.0602 39.2895 12.0602 39.1517L12.4761 39.0138C12.7533 38.8759 12.8919 38.4624 12.7533 38.1867C12.6147 37.6352 12.4761 37.0838 12.4761 36.5324V29.6395C12.4761 27.9852 13.3078 26.4687 14.8327 25.5037C14.9713 25.3659 15.1099 25.228 15.1099 25.0902C15.1099 24.9523 15.1099 24.6766 14.9713 24.5387C14.2782 23.4359 13.8623 22.0573 13.8623 20.6787C13.8623 16.8187 16.912 13.7858 20.7935 13.7858C24.6749 13.7858 27.7246 16.8187 27.7246 20.6787C27.7246 21.7816 27.4474 22.8844 26.8929 23.8494C26.7543 24.1251 26.7543 24.263 26.8929 24.5387C27.0315 24.6766 27.3088 24.8144 27.4474 24.8144H36.5965C37.5669 24.8144 38.3986 25.0902 39.2303 25.6416C39.369 25.7794 39.6462 25.7794 39.9235 25.6416L40.6166 25.228C40.7552 25.0902 40.8938 24.9523 41.0324 24.6766C41.3097 23.298 41.4483 21.9194 41.4483 20.5408C41.5869 9.23648 32.2992 0 20.7935 0ZM9.0105 32.3966C9.28775 32.6723 9.28775 33.0859 9.0105 33.3616C8.87188 33.4995 8.73326 33.4995 8.45601 33.4995C8.31739 33.4995 8.04014 33.4995 7.90152 33.3616C4.71319 29.9152 2.77246 25.5037 2.77246 20.6787C2.77246 15.8537 4.57456 11.4422 8.04014 7.99576C8.31739 7.72005 8.73326 7.72005 9.0105 7.99576C9.28775 8.27148 9.28775 8.68505 9.0105 8.96077C5.96079 12.1315 4.15869 16.2672 4.15869 20.6787C4.15869 25.0902 5.96079 29.2259 9.0105 32.3966Z" fill="#414495"/>
</g>
<g opacity="0.7" transform="matrix(0.85718 -0.515018 0.512883 0.858459 133.209 54.2487)">
<path d="M14.3865 10.2651H6.78608C6.02604 10.2651 5.42887 10.8593 5.42887 11.6157V14.317C5.42887 15.0734 6.02604 15.6677 6.78608 15.6677H14.3865C15.1465 15.6677 15.7437 15.0734 15.7437 14.317V11.6157C15.7437 10.8593 15.1465 10.2651 14.3865 10.2651ZM11.8349 13.1825L9.66338 14.5332C9.60909 14.5872 9.5548 14.5872 9.50052 14.5872C9.44623 14.5872 9.39194 14.5872 9.39194 14.5332C9.28336 14.4791 9.22907 14.3711 9.22907 14.317V11.6157C9.22907 11.5077 9.28336 11.4536 9.39194 11.3996C9.50052 11.3456 9.60909 11.3456 9.66338 11.3996L11.8349 12.7503C11.8892 12.8043 11.9435 12.9124 11.9435 12.9664C11.9435 13.0204 11.8892 13.1285 11.8349 13.1825Z" fill="#414495"/>
<path d="M8.1433 8.64425C8.44313 8.64425 8.68619 8.40237 8.68619 8.10399C8.68619 7.80561 8.44313 7.56372 8.1433 7.56372C7.84347 7.56372 7.60041 7.80561 7.60041 8.10399C7.60041 8.40237 7.84347 8.64425 8.1433 8.64425Z" fill="#414495"/>
<path d="M8.1433 0C3.63734 0 0 3.61978 0 8.10399C0 11.1835 1.73724 13.9929 4.50596 15.3436C4.56025 15.3436 4.56025 15.3976 4.61454 15.3976C4.66883 15.3976 4.72311 15.3976 4.72311 15.3436L4.88598 15.2895C4.99456 15.2355 5.04885 15.0734 4.99456 14.9654C4.94027 14.7493 4.88598 14.5332 4.88598 14.317V11.6157C4.88598 10.9674 5.21171 10.3731 5.80889 9.99492C5.86318 9.94089 5.91746 9.88687 5.91746 9.83284C5.91746 9.77881 5.91746 9.67076 5.86318 9.61673C5.59173 9.18452 5.42887 8.64425 5.42887 8.10399C5.42887 6.59124 6.62322 5.40266 8.1433 5.40266C9.66338 5.40266 10.8577 6.59124 10.8577 8.10399C10.8577 8.5362 10.7492 8.96841 10.532 9.3466C10.4777 9.45465 10.4777 9.50868 10.532 9.61673C10.5863 9.67076 10.6949 9.72479 10.7492 9.72479H14.3322C14.7122 9.72479 15.038 9.83284 15.3637 10.0489C15.418 10.103 15.5266 10.103 15.6351 10.0489L15.9066 9.88687C15.9609 9.83284 16.0152 9.77881 16.0694 9.67076C16.178 9.13049 16.2323 8.59023 16.2323 8.04996C16.2866 3.61978 12.6493 0 8.1433 0ZM3.52876 12.6962C3.63734 12.8043 3.63734 12.9664 3.52876 13.0744C3.47447 13.1285 3.42019 13.1285 3.31161 13.1285C3.25732 13.1285 3.14874 13.1285 3.09445 13.0744C1.84581 11.7238 1.08577 9.99492 1.08577 8.10399C1.08577 6.21306 1.79153 4.48421 3.14874 3.13354C3.25732 3.02549 3.42019 3.02549 3.52876 3.13354C3.63734 3.2416 3.63734 3.40368 3.52876 3.51173C2.33441 4.75434 1.62866 6.37514 1.62866 8.10399C1.62866 9.83284 2.33441 11.4536 3.52876 12.6962Z" fill="#414495"/>
</g>
<path d="M29.8523 18.8525L25.8337 17.8242L25.6041 17.0244C28.3597 16.5674 29.8523 15.7676 29.9671 15.6533C30.0819 15.5391 30.1967 15.4248 30.1967 15.1963C30.1967 14.9678 30.0819 14.8535 29.9671 14.7393C29.9671 14.7393 28.0152 13.1397 28.0152 7.88379C28.0152 3.31348 26.8671 1.02832 24.8004 1.02832H24.4559C23.767 0.342774 23.1929 0 21.8151 0C21.5855 0 21.3559 0.114258 21.3559 0.342774C21.3559 0.457031 21.3559 0.457031 21.241 0.571289L21.0114 1.37109C21.0114 1.48535 21.0114 1.59961 21.0114 1.82813C21.8151 3.31348 21.5855 4.79883 20.5521 5.94141C20.4373 6.05567 20.4373 6.16992 20.4373 6.28418V6.62696C20.4373 6.74121 20.4373 6.96973 20.5521 7.08399L20.667 7.19825C21.241 7.76953 21.4707 8.56934 21.3559 9.36914L21.1262 11.4258C21.0114 12.2256 20.667 12.9111 19.9781 13.2539C19.8632 13.3682 19.7484 13.4824 19.7484 13.5967C19.5188 14.5107 19.0595 15.4248 18.4855 16.2246C18.3706 16.3389 18.3706 16.5674 18.3706 16.7959C18.4855 17.0244 18.6003 17.1387 18.7151 17.1387L21.241 17.71C24.4559 18.5098 26.7522 21.252 26.7522 24.5654C26.7522 24.9082 26.9819 25.1367 27.3263 25.1367H33.756C34.1005 25.1367 34.3301 24.9082 34.3301 24.5654C34.4449 21.8232 32.6079 19.5381 29.8523 18.8525Z" transform="matrix(0.854188 0.519964 -0.517831 0.855483 494.013 1.95392)" fill="#414495"/>
<path d="M21.1262 18.8525L17.1077 17.8242L16.7632 16.5674C17.7966 15.5391 18.6003 14.0537 18.8299 12.5684C19.404 12.3398 19.8632 11.8828 19.9781 11.1973L20.2077 9.14063C20.2077 8.6836 20.0929 8.22657 19.8632 7.88379C19.6336 7.65528 19.5188 7.54102 19.1744 7.42676L19.2892 5.48438L19.6336 5.1416C20.2077 4.45606 20.7818 3.42774 19.7484 1.82813C18.9447 0.685547 17.5669 0 15.7299 0C15.041 0 13.3187 0 11.7113 1.02832C7.0038 1.14258 6.42972 3.19922 6.42972 5.25586C6.42972 5.71289 6.54454 6.74121 6.65936 7.42676C6.31491 7.54102 6.08527 7.65528 5.85564 7.88379C5.62601 8.22657 5.39637 8.6836 5.51119 9.14063L5.74082 11.1973C5.85564 11.8828 6.31491 12.4541 7.0038 12.5684C7.23344 13.9395 7.92234 15.4248 8.95568 16.4531L8.61123 17.8242L4.59266 18.8525C1.83706 19.5381 0 21.8232 0 24.5654C0 24.9082 0.229633 25.1367 0.574082 25.1367H25.1448C25.4893 25.1367 25.7189 24.9082 25.7189 24.5654C25.7189 21.8232 23.8818 19.5381 21.1262 18.8525Z" transform="matrix(0.854188 0.519964 -0.517831 0.855483 494.013 1.95392)" fill="#414495"/>
<g opacity="0.8" transform="matrix(0.807616 -0.589709 0.58782 0.808992 412 23.6738)">
<path d="M20.0715 12.5831H0.570712C0.359892 12.5831 0.149072 12.688 0.0436622 12.8977C-0.0617477 13.1074 0.0436622 13.3171 0.149072 13.422L5.31416 18.5601V26.2148C5.31416 27.9974 6.68449 29.3605 8.47645 29.3605H20.0715C21.8635 29.3605 23.2338 27.9974 23.2338 26.2148V15.7289C23.2338 13.9463 21.8635 12.5831 20.0715 12.5831ZM18.4904 25.1662H10.0576C9.74137 25.1662 9.53055 24.9565 9.53055 24.6419C9.53055 24.3273 9.74137 24.1176 10.0576 24.1176H18.4904C18.8066 24.1176 19.0174 24.3273 19.0174 24.6419C19.0174 24.9565 18.8066 25.1662 18.4904 25.1662ZM18.4904 20.9718H10.0576C9.74137 20.9718 9.53055 20.7621 9.53055 20.4475C9.53055 20.1329 9.74137 19.9232 10.0576 19.9232H18.4904C18.8066 19.9232 19.0174 20.1329 19.0174 20.4475C19.0174 20.7621 18.8066 20.9718 18.4904 20.9718ZM18.4904 16.7775H10.0576C9.74137 16.7775 9.53055 16.5677 9.53055 16.2532C9.53055 15.9386 9.74137 15.7289 10.0576 15.7289H18.4904C18.8066 15.7289 19.0174 15.9386 19.0174 16.2532C19.0174 16.5677 18.8066 16.7775 18.4904 16.7775Z" fill="#414495"/>
<path d="M31.6662 0.314577C31.5608 0.104859 31.35 0 31.1392 0H10.5842C8.79226 0 7.42193 1.36317 7.42193 3.14577V11.0102C7.42193 11.3248 7.63275 11.5345 7.94898 11.5345H20.0711C22.3901 11.5345 24.2875 13.422 24.2875 15.7289C24.2875 15.9386 24.3929 16.1483 24.6037 16.1483C24.7092 16.1483 24.7092 16.2532 24.8146 16.2532C24.92 16.2532 25.0254 16.2532 25.1308 16.1483C25.9741 15.5191 26.3957 14.6803 26.3957 13.6317V5.97697L31.5608 0.838873C31.6662 0.734014 31.6662 0.524296 31.6662 0.314577ZM21.6523 9.43732H12.1654C11.8491 9.43732 11.6383 9.2276 11.6383 8.91302C11.6383 8.59845 11.8491 8.38873 12.1654 8.38873H21.6523C21.9685 8.38873 22.1793 8.59845 22.1793 8.91302C22.1793 9.2276 21.9685 9.43732 21.6523 9.43732ZM21.6523 5.24296H12.1654C11.8491 5.24296 11.6383 5.03324 11.6383 4.71866C11.6383 4.40408 11.8491 4.19436 12.1654 4.19436H21.6523C21.9685 4.19436 22.1793 4.40408 22.1793 4.71866C22.1793 5.03324 21.9685 5.24296 21.6523 5.24296Z" fill="#414495"/>
</g>
<g opacity="0.3" transform="translate(658.248 -55.8896) scale(0.99875 1.00125) rotate(43.2662)">
<path d="M7.35054 27.4031L13.7216 22.369L7.84062 17.9845C7.5139 17.8222 7.18718 17.8222 6.86046 17.9845L0.979519 22.369L7.35054 27.4031Z" fill="#414495"/>
<path d="M6.53438 28.7024L0 23.5059V42.8302C0 43.155 0.16336 43.3173 0.326719 43.4797L6.53438 48.189V28.7024Z" fill="#414495"/>
<path d="M8.16798 28.7025V48.1892L14.3756 43.6423C14.539 43.4799 14.7024 43.3175 14.7024 42.9927V23.6685L8.16798 28.7025Z" fill="#414495"/>
<path d="M23.6865 9.54033L30.0575 4.50629L24.1766 0.121792C23.8499 -0.0405972 23.5231 -0.0405972 23.1964 0.121792L17.3155 4.50629L23.6865 9.54033Z" fill="#414495"/>
<path d="M22.8703 10.8396L16.336 5.64317V42.8302C16.336 43.155 16.4993 43.3173 16.6627 43.4797L22.8703 48.0266V10.8396Z" fill="#414495"/>
<path d="M24.5039 10.8398V48.1892L30.7116 43.6423C30.875 43.4799 31.0383 43.3175 31.0383 42.9927V5.80571L24.5039 10.8398Z" fill="#414495"/>
<path d="M39.2063 20.5831L32.6719 15.549V42.9927C32.6719 43.3175 32.8353 43.4799 32.9986 43.6423L39.2063 48.1892V20.5831Z" fill="#414495"/>
<path d="M40.0224 19.2837L46.3935 14.2496L40.5125 9.86511C40.1858 9.70272 39.8591 9.70272 39.5324 9.86511L33.6514 14.2496L40.0224 19.2837Z" fill="#414495"/>
<path d="M40.8399 20.5831V48.1892L47.0475 43.6423C47.2109 43.4799 47.3743 43.3175 47.3743 42.9927V15.549L40.8399 20.5831Z" fill="#414495"/>
</g>
<g opacity="0.5" transform="matrix(0.787217 -0.616676 0.614799 0.788684 23 -28.4741)">
<path d="M8.85464 33.029L16.5293 26.9615L9.44501 21.6768C9.05143 21.4811 8.65786 21.4811 8.26428 21.6768L1.17995 26.9615L8.85464 33.029Z" fill="#4447A4"/>
<path d="M7.87148 34.595L0 28.3317V51.6233C0 52.0148 0.196787 52.2105 0.393574 52.4062L7.87148 58.0823V34.595Z" fill="#4447A4"/>
<path d="M9.83935 34.5952V58.0825L17.3173 52.6021C17.514 52.4064 17.7108 52.2107 17.7108 51.8192V28.5277L9.83935 34.5952Z" fill="#4447A4"/>
<path d="M28.5333 11.499L36.208 5.43144L29.1237 0.146796C28.7301 -0.0489319 28.3366 -0.0489319 27.943 0.146796L20.8586 5.43144L28.5333 11.499Z" fill="#4447A4"/>
<path d="M27.5502 13.065L19.6787 6.80172V51.6233C19.6787 52.0148 19.8755 52.2105 20.0723 52.4062L27.5502 57.8866V13.065Z" fill="#4447A4"/>
<path d="M29.518 13.0652V58.0825L36.9959 52.6021C37.1927 52.4064 37.3895 52.2107 37.3895 51.8192V6.99764L29.518 13.0652Z" fill="#4447A4"/>
<path d="M47.2289 24.8088L39.3574 18.7413V51.8192C39.3574 52.2107 39.5542 52.4064 39.751 52.6021L47.2289 58.0825V24.8088Z" fill="#4447A4"/>
<path d="M48.212 23.2426L55.8867 17.1751L48.8024 11.8904C48.4088 11.6947 48.0152 11.6947 47.6217 11.8904L40.5373 17.1751L48.212 23.2426Z" fill="#4447A4"/>
<path d="M49.1967 24.8088V58.0825L56.6746 52.6021C56.8714 52.4064 57.0682 52.2107 57.0682 51.8192V18.7413L49.1967 24.8088Z" fill="#4447A4"/>
</g>
<g opacity="0.8" transform="matrix(0.882366 -0.470565 0.468767 0.883322 232 74.9352)">
<path d="M29.4426 18.5986L25.4792 17.5841L25.2527 16.7951C27.9705 16.3442 29.4426 15.5552 29.5559 15.4425C29.6691 15.3298 29.7823 15.217 29.7823 14.9916C29.7823 14.7662 29.6691 14.6535 29.5559 14.5407C29.5559 14.5407 27.6308 12.9627 27.6308 7.7776C27.6308 3.26885 26.4984 1.01447 24.46 1.01447H24.1203C23.4409 0.338157 22.8747 0 21.5158 0C21.2893 0 21.0628 0.112719 21.0628 0.338157C21.0628 0.450875 21.0628 0.450875 20.9496 0.563594L20.7231 1.35263C20.7231 1.46535 20.7231 1.57806 20.7231 1.8035C21.5158 3.26885 21.2893 4.73419 20.2701 5.86138C20.1569 5.9741 20.1569 6.08682 20.1569 6.19954V6.53769C20.1569 6.65041 20.1569 6.87585 20.2701 6.98857L20.3834 7.10129C20.9496 7.66488 21.176 8.45391 21.0628 9.24295L20.8363 11.2719C20.7231 12.0609 20.3834 12.7372 19.7039 13.0754C19.5907 13.1881 19.4774 13.3008 19.4774 13.4135C19.2509 14.3153 18.798 15.217 18.2318 16.0061C18.1185 16.1188 18.1185 16.3442 18.1185 16.5697C18.2318 16.7951 18.345 16.9078 18.4583 16.9078L20.9496 17.4714C24.1203 18.2605 26.3851 20.9657 26.3851 24.2346C26.3851 24.5727 26.6116 24.7981 26.9513 24.7981H33.2928C33.6325 24.7981 33.859 24.5727 33.859 24.2346C33.9723 21.5293 32.1604 19.2749 29.4426 18.5986Z" fill="#4447A4"/>
<path d="M20.8363 18.5986L16.8729 17.5841L16.5332 16.3442C17.5523 15.3298 18.345 13.8644 18.5715 12.3991C19.1377 12.1736 19.5907 11.7228 19.7039 11.0464L19.9304 9.01751C19.9304 8.56663 19.8171 8.11576 19.5907 7.7776C19.3642 7.55216 19.2509 7.43944 18.9112 7.32673L19.0245 5.41051L19.3642 5.07235C19.9304 4.39604 20.4966 3.38157 19.4774 1.8035C18.6847 0.676313 17.3258 0 15.514 0C14.8346 0 13.1359 0 11.5506 1.01447C6.90769 1.12719 6.34149 3.15613 6.34149 5.18507C6.34149 5.63594 6.45473 6.65041 6.56797 7.32673C6.22825 7.43944 6.00176 7.55216 5.77528 7.7776C5.5488 8.11576 5.32232 8.56663 5.43556 9.01751L5.66204 11.0464C5.77528 11.7228 6.22825 12.2864 6.90769 12.3991C7.13417 13.7517 7.81362 15.217 8.83279 16.2315L8.49306 17.5841L4.52963 18.5986C1.81185 19.2749 0 21.5293 0 24.2346C0 24.5727 0.226482 24.7981 0.566204 24.7981H24.7997C25.1395 24.7981 25.3659 24.5727 25.3659 24.2346C25.3659 21.5293 23.5541 19.2749 20.8363 18.5986Z" fill="#4447A4"/>
</g>
<g opacity="0.6" transform="matrix(0.907674 -0.419675 0.417979 0.908457 360 88.1191)">
<path d="M51.827 0C51.4756 0 51.1243 0.35193 50.9486 0.70386C42.6914 10.3819 30.7448 15.8369 18.0955 15.8369H16.6901C15.2846 15.8369 14.0548 17.0686 14.0548 18.4763V34.3132C14.0548 35.7209 15.2846 36.9527 16.6901 36.9527H18.0955C30.5691 36.9527 42.5157 42.4076 50.9486 52.0857C51.1243 52.4376 51.2999 52.7895 51.827 52.7895C52.3541 52.7895 52.7054 52.4376 52.7054 51.9097V0.879825C52.7054 0.35193 52.3541 0 51.827 0Z" fill="#414495"/>
<path d="M12.2979 34.3132V18.4763C12.2979 18.1244 12.2979 17.9484 12.4736 17.5965H4.39212C1.93253 17.5965 0 19.7081 0 22.1716V30.6179C0 33.0814 1.93253 35.193 4.39212 35.193H12.4736C12.2979 34.8411 12.2979 34.6651 12.2979 34.3132ZM7.02739 29.0342C7.02739 29.5621 6.67602 29.9141 6.14897 29.9141C5.62191 29.9141 5.27054 29.5621 5.27054 29.0342V23.7553C5.27054 23.2274 5.62191 22.8755 6.14897 22.8755C6.67602 22.8755 7.02739 23.2274 7.02739 23.7553V29.0342ZM10.5411 29.0342C10.5411 29.5621 10.1897 29.9141 9.66266 29.9141C9.13561 29.9141 8.78424 29.5621 8.78424 29.0342V23.7553C8.78424 23.2274 9.13561 22.8755 9.66266 22.8755C10.1897 22.8755 10.5411 23.2274 10.5411 23.7553V29.0342Z" fill="#414495"/>
<path d="M22.664 46.9827C22.137 46.4548 21.7856 45.7509 21.2585 44.8711C20.2044 42.9355 19.8531 40.8239 20.2044 38.7123C19.5017 38.7123 18.799 38.7123 18.2719 38.7123H16.6907C15.2853 38.7123 14.0555 38.0084 13.177 36.9527H9.48766L12.65 48.5663C13.0014 51.0299 15.2853 52.7895 17.7448 52.7895H20.9072C21.9613 52.7895 23.0154 52.2616 23.5424 51.2058C24.0695 50.15 24.0695 49.0942 23.3668 48.0385C23.3668 48.0385 22.8397 47.3346 22.664 46.9827Z" fill="#414495"/>
</g>
<defs>
<filter id="filter0_d" x="-4" y="-2" width="736" height="98" filterUnits="userSpaceOnUse" color-interpolation-filters="sRGB">
<feFlood flood-opacity="0" result="BackgroundImageFix"/>
<feColorMatrix in="SourceAlpha" type="matrix" values="0 0 0 0 0 0 0 0 0 0 0 0 0 0 0 0 0 0 255 0"/>
<feOffset dy="2"/>
<feGaussianBlur stdDeviation="2"/>
<feColorMatrix type="matrix" values="0 0 0 0 0.044469 0 0 0 0 0.044469 0 0 0 0 0.19214 0 0 0 0.16 0"/>
<feBlend mode="normal" in2="BackgroundImageFix" result="effect1_dropShadow"/>
<feBlend mode="normal" in="SourceGraphic" in2="effect1_dropShadow" result="shape"/>
</filter>
<linearGradient id="paint0_linear" x2="1" gradientUnits="userSpaceOnUse" gradientTransform="matrix(728 90 -728 47.0556 364 -23.5278)">
<stop stop-color="#3E408D"/>
<stop offset="1" stop-color="#0E1045"/>
</linearGradient>
</defs>
</svg>
