<svg width="584" height="330" viewBox="0 0 584 330" fill="none" xmlns="http://www.w3.org/2000/svg">
<rect width="584" height="330" rx="10" fill="url(#paint0_linear)"/>
<mask id="mask0" mask-type="alpha" maskUnits="userSpaceOnUse" x="0" y="0" width="584" height="330">
<rect width="584" height="330" rx="10" fill="url(#paint1_linear)"/>
</mask>
<g mask="url(#mask0)">
<path d="M152.599 61.1336C148.197 63.5639 141.349 63.5639 134.991 60.1615L35.7042 2.80776C29.835 -0.594586 18.0966 -1.08063 9.78197 2.32171C8.80377 2.80776 7.33647 3.29381 6.35828 3.77985C5.38008 4.2659 4.40188 4.75195 3.91278 5.72405C0.978193 8.15429 0 10.5845 0 13.5008V184.59C0 182.16 1.46729 179.244 3.91278 176.813C4.89098 176.327 5.38008 175.355 6.35828 174.869C7.33647 174.383 8.31468 173.897 9.78197 173.411C18.5857 170.009 29.835 170.495 35.7042 173.897L135.48 231.251C141.839 234.653 148.686 234.653 153.088 232.223C155.044 230.765 156.512 229.307 156.512 227.848V56.7592C156.022 58.7034 155.044 60.1615 152.599 61.1336Z" transform="translate(435.61 112.368)" fill="url(#paint2_linear)"/>
<path d="M13.6947 7.77678C6.35827 12.1512 2.44549 15.5536 -3.73153e-06 17.9838V179.352C2.44549 176.436 6.35827 173.033 13.6947 169.145C21.0312 164.771 26.9004 162.826 31.7914 161.368V3.70826e-06C26.9004 1.45815 21.0312 3.88839 13.6947 7.77678Z" transform="translate(543.066 179.215)" fill="#EBEBEB"/>
<path d="M35.7042 2.80776C29.835 -0.594587 18.0966 -1.08064 9.78197 2.32171C8.80377 2.80776 7.33647 3.29381 6.35828 3.77986C5.38008 4.2659 4.40188 5.238 3.91278 5.72405C0.978193 8.1543 0 10.5845 0 13.5008C0 16.4171 1.4673 19.3334 4.89099 20.7916L104.667 78.1454C105.645 78.6314 106.623 79.1174 107.113 80.0895C109.558 77.1733 113.471 73.7709 120.807 69.8825C128.144 65.5081 134.013 63.5639 138.904 62.1057C137.926 61.6197 136.948 61.1336 135.969 60.6476L35.7042 2.80776Z" transform="translate(436.443 118.082)" fill="white"/>
<path opacity="0.08" d="M122.301 76.9703H122.801V76.6823L122.552 76.5378L122.301 76.9703ZM123.9 75.9695H124.4V75.6815L124.151 75.537L123.9 75.9695ZM125.491 74.9805H125.991V74.6926L125.742 74.5481L125.491 74.9805ZM126.996 73.9056H127.496V73.6176L127.246 73.4731L126.996 73.9056ZM128.629 72.9598H129.129V72.6718L128.88 72.5273L128.629 72.9598ZM130.078 72.101H130.578V71.8131L130.328 71.6686L130.078 72.101ZM132.031 71.5345L132.531 71.535L132.531 71.2471L132.282 71.1024L132.031 71.5345ZM133.64 70.6852L134.14 70.6809L134.137 70.3963L133.892 70.2532L133.64 70.6852ZM135.383 69.8359L135.883 69.8334L135.882 69.5476L135.635 69.4038L135.383 69.8359ZM137.23 69.0681L137.73 69.0614L137.726 68.7784L137.481 68.636L137.23 69.0681ZM139.362 68.2714L139.861 68.2607L139.855 67.9804L139.613 67.8393L139.362 68.2714ZM141.462 67.5115L141.962 67.5002L141.956 67.2201L141.714 67.0793L141.462 67.5115ZM143.608 66.6175L144.108 66.6059L144.101 66.3255L143.859 66.1849L143.608 66.6175ZM145.664 65.7682L146.164 65.7557L146.157 65.4757L145.915 65.3355L145.664 65.7682ZM147.721 64.9189L148.22 64.9065L148.213 64.6265L147.971 64.4862L147.721 64.9189ZM-0.250916 6.44677L122.05 77.4027L122.552 76.5378L0.250916 5.5818L-0.250916 6.44677ZM121.801 76.9703V237.517H122.801V76.9703H121.801ZM1.34819 5.44599L123.649 76.402L124.151 75.537L1.85002 4.58102L1.34819 5.44599ZM123.4 75.9695V236.516H124.4V75.9695H123.4ZM2.93895 4.45705L125.24 75.413L125.742 74.5481L3.44078 3.59208L2.93895 4.45705ZM124.991 74.9805V235.527H125.991V74.9805H124.991ZM4.44372 3.38212L126.745 74.3381L127.246 73.4731L4.94555 2.51715L4.44372 3.38212ZM126.496 73.9056V234.452H127.496V73.9056H126.496ZM6.0775 2.43628L128.378 73.3923L128.88 72.5273L6.57933 1.57131L6.0775 2.43628ZM128.129 72.9598V233.506H129.129V72.9598H128.129ZM7.52571 1.57754L129.827 72.5335L130.328 71.6686L8.02754 0.712575L7.52571 1.57754ZM129.578 72.101V232.648H130.578V72.101H129.578ZM9.32439 0.718492L131.779 71.9667L132.282 71.1024L9.82729 -0.145851L9.32439 0.718492ZM131.531 71.5341L131.377 231.788L132.377 231.789L132.531 71.535L131.531 71.5341ZM12.4881 0.718406L133.388 71.1173L133.892 70.2532L12.9913 -0.145765L12.4881 0.718406ZM133.14 70.6896L134.541 231.793L135.541 231.785L134.14 70.6809L133.14 70.6896ZM15.6368 0.718455L135.132 70.2681L135.635 69.4038L16.1399 -0.145814L15.6368 0.718455ZM134.883 69.8384L135.689 231.791L136.689 231.786L135.883 69.8334L134.883 69.8384ZM18.8672 0.718395L136.978 69.5002L137.481 68.636L19.3704 -0.145754L18.8672 0.718395ZM136.73 69.0748L138.92 231.796L139.92 231.782L137.73 69.0614L136.73 69.0748ZM22.3022 0.718456L139.11 68.7036L139.613 67.8393L22.8052 -0.145815L22.3022 0.718456ZM138.862 68.2821L142.355 231.8L143.354 231.778L139.861 68.2607L138.862 68.2821ZM25.6145 0.718545L141.211 67.9437L141.714 67.0793L26.1172 -0.145904L25.6145 0.718545ZM140.963 67.5228L144.667 231.8L145.667 231.778L141.962 67.5002L140.963 67.5228ZM28.8865 0.718937L143.357 67.0501L143.859 66.1849L29.3879 -0.146297L28.8865 0.718937ZM143.108 66.6291L146.938 231.801L147.938 231.777L144.108 66.6059L143.108 66.6291ZM32.2807 0.71906L145.414 66.2009L145.915 65.3355L32.7817 -0.14642L32.2807 0.71906ZM145.164 65.7808L149.332 231.802L150.332 231.776L146.164 65.7557L145.164 65.7808ZM35.3067 0.432743L147.47 65.3516L147.971 64.4862L35.8076 -0.432743L35.3067 0.432743ZM147.221 64.9313L151.358 231.515L152.358 231.49L148.22 64.9065L147.221 64.9313Z" transform="translate(424.829 115.815)" fill="black"/>
<path d="M128.144 75.3376C123.742 77.7678 116.895 77.7678 112.493 75.3376L12.7166 17.9838C3.91279 13.1233 0 6.31863 0 -9.27065e-07V171.089C0 177.408 4.40189 184.213 12.7166 189.073L112.493 246.427C116.895 248.857 123.742 248.857 128.144 246.427C130.1 245.455 131.078 243.997 131.078 242.052V70.9631C131.078 72.9073 130.1 73.8794 128.144 75.3376Z" transform="translate(414.433 125.75)" fill="url(#paint3_linear)"/>
<path d="M126.677 90.4051L26.9004 33.0513C23.9658 31.1071 22.0094 28.6769 22.0094 25.7606C22.0094 23.3304 23.4767 20.4141 25.9222 17.9838C26.9004 17.4978 27.3895 16.5257 28.3677 16.0396C29.3459 15.5536 30.3241 15.0675 31.7914 14.5815C40.5952 11.1791 51.8444 11.6652 57.7136 15.0675L157.49 72.4213C163.848 75.8236 170.695 75.8236 175.097 73.3934C177.054 71.9352 178.521 70.4771 178.521 69.019C178.521 67.5608 177.543 65.6166 175.097 64.6445L75.3212 7.29073C58.2027 -2.43024 29.835 -2.43024 12.7166 7.29073C3.91279 12.1512 -1.86576e-06 18.9559 -1.86576e-06 25.2745C-1.86576e-06 31.5932 4.40189 38.3979 12.7166 43.2584L112.982 100.612C117.384 103.042 124.231 103.042 128.633 100.612C130.589 99.64 131.567 98.1819 131.567 96.2377C131.567 94.2935 130.1 92.3493 126.677 90.4051Z" transform="translate(413.944 100.476)" fill="#E3EDFF"/>
<path d="M93.9953 47.1516L15.4372 2.09088C11.3206 -0.2987 7.20402 -0.640066 4.45963 1.06678C1.71524 2.77362 0 6.18731 0 10.9665V55.003C0 64.5614 6.86097 76.5093 15.4372 81.6298L93.9953 126.69C98.1118 129.08 102.228 129.421 104.973 127.715C107.717 126.008 109.432 122.594 109.432 117.815V73.7783C109.432 64.22 102.228 52.2721 93.9953 47.1516Z" transform="translate(367 187.586)" fill="#F0F7F7"/>
<g filter="url(#filter0_d)">
<path d="M90.2217 112.31C88.8495 112.31 87.4773 111.969 85.7621 110.945L12.3497 68.6151C5.83182 64.86 1.63578e-07 54.9604 1.63578e-07 47.4502V6.14463C1.63578e-07 3.78727 0.511225 1.93863 1.53367 0.818272C1.85242 0.469 2.23163 0.139875 2.69717 0.057041C3.01775 1.69418e-06 3.39564 1.30222e-06 3.77353 1.30222e-06C5.14573 1.30222e-06 6.51792 0.341369 8.23316 1.36547L81.6455 43.6952C88.1634 47.4502 93.9953 57.3499 93.9953 64.86V106.166C93.9953 108.523 93.484 110.372 92.4616 111.492C92.1428 111.841 91.7636 112.17 91.2981 112.253C90.9775 112.31 90.5996 112.31 90.2217 112.31Z" transform="translate(374.547 195.822)" fill="url(#paint4_linear)"/>
</g>
<path d="M98.1119 47.1516L19.5538 2.09088C15.4372 -0.298699 11.3206 -0.640065 8.57621 1.06678L-1.63578e-07 6.18731C2.74439 4.48047 6.51792 4.82183 10.9776 7.21141L89.5356 51.9307C98.1119 56.7099 104.973 68.6578 104.973 78.5575V122.594C104.973 127.373 103.258 130.787 100.513 132.494L109.089 127.373C111.834 125.666 113.549 122.253 113.549 117.474V73.7783C113.549 63.8786 106.688 51.9307 98.1119 47.1516Z" transform="translate(371.46 182.808)" fill="url(#paint5_linear)"/>
<path d="M6.86097 25.944V37.2092L-3.27156e-07 33.4541V1.30222e-06L10.2915 5.80326C12.3497 6.82737 14.065 8.19285 15.4372 9.55832C16.8094 10.9238 18.1816 12.2893 19.2107 13.9961C20.2399 15.3616 20.926 17.0684 21.269 18.7753C21.6121 20.4821 21.9551 21.8476 21.9551 23.5544C21.9551 25.2613 21.6121 26.6268 21.269 27.6509C20.926 28.675 20.2399 29.6991 19.2107 30.0404C18.5246 30.3818 17.1524 30.3818 15.7802 30.3818C14.408 30.0404 12.6928 29.3577 10.6345 28.3336L6.86097 25.944ZM6.86097 20.1408L10.2915 22.189C12.3497 23.2131 13.3789 23.5544 14.408 22.8717C15.4372 22.189 15.4372 21.1649 15.4372 19.458C15.4372 18.7753 15.4372 18.0925 15.0941 17.0684C14.7511 16.3857 14.7511 15.703 14.065 15.0202C13.7219 14.6789 13.3789 13.9961 12.6928 13.3134C12.0067 12.6306 11.3206 12.2893 10.6345 11.6065L7.20402 9.55832V20.1408H6.86097Z" transform="translate(384.495 214.597)" fill="#FAFAFA"/>
<path d="M26.4147 32.0887C26.4147 34.4782 26.0717 36.5265 25.3856 38.2333C24.6995 39.9401 23.6703 40.9642 22.2981 41.647C20.926 42.3297 19.5538 42.6711 17.4955 42.3297C15.7802 41.9884 13.7219 41.3056 11.3206 39.9401L1.30863e-06 33.4541V-2.60444e-06L11.3206 6.48601C13.7219 7.85148 15.7802 9.55832 17.4955 11.2652C19.2107 13.3134 20.926 15.3616 22.2981 17.4098C23.6703 19.7994 24.6995 21.8476 25.3856 24.5785C26.0717 27.3095 26.4147 29.6991 26.4147 32.0887ZM19.5538 27.9922C19.5538 26.2854 19.2107 24.5785 18.8677 23.2131C18.5246 21.5062 17.8385 20.1408 17.1524 18.7753C16.4663 17.4098 15.4372 16.3857 14.7511 15.0202C13.7219 13.9961 12.6928 12.972 11.3206 12.2893L6.86097 9.55832V31.0646L11.3206 33.7955C12.6928 34.4782 13.7219 34.8196 14.7511 35.161C15.7802 35.161 16.4663 35.161 17.1524 34.4782C17.8385 33.7955 18.5246 33.1128 18.8677 32.0887C19.2107 31.0646 19.5538 29.6991 19.5538 27.9922Z" transform="translate(410.224 228.935)" fill="#FAFAFA"/>
<path d="M18.8677 10.5824V16.3857L6.86097 9.55832V18.0925L16.8094 23.8958V30.0404L6.86097 24.2372V37.2092L2.61725e-06 33.4541V5.20887e-06L18.8677 10.5824Z" transform="translate(439.726 246.345)" fill="#FAFAFA"/>
</g>
<defs>
<filter id="filter0_d" x="324.547" y="160.822" width="193.995" height="212.31" filterUnits="userSpaceOnUse" color-interpolation-filters="sRGB">
<feFlood flood-opacity="0" result="BackgroundImageFix"/>
<feColorMatrix in="SourceAlpha" type="matrix" values="0 0 0 0 0 0 0 0 0 0 0 0 0 0 0 0 0 0 255 0"/>
<feOffset dy="15"/>
<feGaussianBlur stdDeviation="25"/>
<feColorMatrix type="matrix" values="0 0 0 0 0 0 0 0 0 0.0255022 0 0 0 0 0.159389 0 0 0 0.25 0"/>
<feBlend mode="normal" in2="BackgroundImageFix" result="effect1_dropShadow"/>
<feBlend mode="normal" in="SourceGraphic" in2="effect1_dropShadow" result="shape"/>
</filter>
<linearGradient id="paint0_linear" x2="1" gradientUnits="userSpaceOnUse" gradientTransform="matrix(-468 -477 584.58 72.4684 181.71 440.766)">
<stop stop-color="#3574E2"/>
<stop offset="1" stop-color="#5830CB"/>
</linearGradient>
<linearGradient id="paint1_linear" x2="1" gradientUnits="userSpaceOnUse" gradientTransform="matrix(-268 182 -166.267 -244.832 419.133 150.416)">
<stop stop-color="#3574E2"/>
<stop offset="1" stop-color="#5830CB"/>
</linearGradient>
<linearGradient id="paint2_linear" x2="1" gradientUnits="userSpaceOnUse" gradientTransform="translate(-0.480631 55.4252) scale(156.829 123.001)">
<stop stop-color="#9EB7D4"/>
<stop offset="0.0719216" stop-color="#AABFE9"/>
<stop offset="0.3006" stop-color="#B7CFFF"/>
<stop offset="0.5494" stop-color="#C3D7FF"/>
<stop offset="0.7441" stop-color="#B2CDED"/>
<stop offset="0.8648" stop-color="#A2BEE8"/>
<stop offset="1" stop-color="#86ACD0"/>
</linearGradient>
<linearGradient id="paint3_linear" x2="1" gradientUnits="userSpaceOnUse" gradientTransform="translate(-0.402528 58.8156) scale(131.344 130.525)">
<stop stop-color="#9EB7D4"/>
<stop offset="0.0719216" stop-color="#AABFE9"/>
<stop offset="0.3006" stop-color="#B7CFFF"/>
<stop offset="0.5494" stop-color="#C3D7FF"/>
<stop offset="0.7441" stop-color="#B2CDED"/>
<stop offset="0.8648" stop-color="#A2BEE8"/>
<stop offset="1" stop-color="#86ACD0"/>
</linearGradient>
<linearGradient id="paint4_linear" x2="1" gradientUnits="userSpaceOnUse" gradientTransform="matrix(93.9953 112.31 -93.9953 31.5136 46.9976 -15.7568)">
<stop stop-color="#3574E2"/>
<stop offset="1" stop-color="#5830CB"/>
</linearGradient>
<linearGradient id="paint5_linear" x2="1" gradientUnits="userSpaceOnUse" gradientTransform="translate(98.8429 -50.8494) scale(160.319 159.534) rotate(60)">
<stop stop-color="#F0F7F7"/>
<stop offset="0.2556" stop-color="#ECF4F6"/>
<stop offset="0.5308" stop-color="#DFEDF3"/>
<stop offset="0.814" stop-color="#C9E1EF"/>
<stop offset="1" stop-color="#B7D6EB"/>
</linearGradient>
</defs>
</svg>
