<svg width="584" height="330" viewBox="0 0 584 330" fill="none" xmlns="http://www.w3.org/2000/svg">
<rect width="584" height="330" rx="10" transform="translate(-0.00012207)" fill="url(#paint0_linear)"/>
<mask id="mask0" mask-type="alpha" maskUnits="userSpaceOnUse" x="-1" y="0" width="585" height="330">
<rect width="584" height="330" rx="10" transform="translate(-0.00012207)" fill="url(#paint1_linear)"/>
</mask>
<g mask="url(#mask0)">
<path d="M7.9382 -3.44112e-07L1.37645e-06 4.51035V27.0621L7.9382 22.3713V-3.44112e-07Z" transform="translate(422.064 171.639)" fill="#D2D2D2"/>
<path d="M8.11862 -1.72056e-07L-1.37645e-06 4.69076L34.6394 24.5363L42.7581 20.0259L8.11862 -1.72056e-07Z" transform="translate(414.126 157.928)" fill="#EAEAEA"/>
<path d="M-1.37645e-06 -3.44112e-07L34.6394 19.8455V29.0466L7.93821 13.531V36.0828L-1.37645e-06 31.5724V-3.44112e-07Z" transform="translate(414.126 162.619)" fill="#DFDFDF"/>
<path d="M7.93821 -1.37645e-06L6.88224e-07 4.51034V27.0621L7.93821 22.3713V-1.37645e-06Z" transform="translate(398.43 185.35)" fill="#D2D2D2"/>
<path d="M8.11862 -3.44112e-07L1.37645e-06 4.51035L34.6394 24.5363L42.7581 20.0259L8.11862 -3.44112e-07Z" transform="translate(390.492 171.639)" fill="#EAEAEA"/>
<path d="M1.37645e-06 1.37645e-06L34.6394 20.0259V29.227L7.93821 13.7114V36.2632L1.37645e-06 31.5724V1.37645e-06Z" transform="translate(390.492 176.149)" fill="#DFDFDF"/>
<path d="M7.9382 -1.37645e-06L0 4.69076V27.2425L7.9382 22.5517V-1.37645e-06Z" transform="translate(374.796 198.882)" fill="#D2D2D2"/>
<path d="M8.11862 -1.37645e-06L6.88224e-07 4.51034L34.6394 24.5363L42.7581 19.8455L8.11862 -1.37645e-06Z" transform="translate(366.857 185.35)" fill="#EAEAEA"/>
<path d="M6.88224e-07 -1.37645e-06L34.6394 20.0259V29.227L7.93821 13.7114V36.2632L6.88224e-07 31.5724V-1.37645e-06Z" transform="translate(366.857 189.861)" fill="#DFDFDF"/>
<path d="M7.93821 2.7529e-06L1.72056e-07 4.69076V34.6394L7.93821 29.9487V2.7529e-06Z" transform="translate(351.161 212.593)" fill="#D2D2D2"/>
<path d="M7.93821 -1.37645e-06L0 4.69076L34.6394 24.7167L42.7581 20.0259L7.93821 -1.37645e-06Z" transform="translate(343.223 198.882)" fill="#EAEAEA"/>
<path d="M0 2.7529e-06L34.6394 20.0259V29.0466L7.93821 13.7114V43.6601L0 38.9694V2.7529e-06Z" transform="translate(343.223 203.573)" fill="#DFDFDF"/>
<path d="M119.254 1.37645e-06V46.0055L-5.50579e-06 114.924V68.9181L119.254 1.37645e-06Z" transform="translate(477.09 213.134)" fill="black"/>
<path d="M119.434 68.9181V114.924L0 46.0055V1.37645e-06L119.434 68.9181Z" transform="translate(357.656 213.134)" fill="#171717"/>
<path d="M0 68.9181L119.434 0L238.687 68.9181L119.434 137.836L0 68.9181Z" transform="translate(357.656 144.216)" fill="#1A1A1A"/>
<path d="M92.1914 -2.7529e-06V9.2011L-5.50579e-06 62.4232V53.2221L92.1914 -2.7529e-06Z" transform="translate(477.09 203.933)" fill="#DC9E00"/>
<path d="M92.3718 53.2221V62.4232L0 9.2011V-2.7529e-06L92.3718 53.2221Z" transform="translate(384.718 203.933)" fill="#EFAC00"/>
<path d="M0 53.4025L92.3718 0L184.563 53.4025L92.3718 106.625L0 53.4025Z" transform="translate(384.718 150.531)" fill="#FFCC31"/>
<path d="M-2.7529e-06 4.69076L7.93821 3.44112e-07L74.1501 38.2477L66.2119 42.9385L-2.7529e-06 4.69076Z" transform="translate(466.987 165.505)" fill="white"/>
<path d="M2.7529e-06 4.69076L7.9382 -6.88224e-07L74.1501 38.2477L66.3923 42.7581L2.7529e-06 4.69076Z" transform="translate(443.172 179.217)" fill="white"/>
<path d="M-1.37645e-06 4.51034L7.93821 0L61.7015 31.0312L53.7633 35.7219L-1.37645e-06 4.51034Z" transform="translate(419.538 192.928)" fill="white"/>
<path d="M7.93821 -2.7529e-06L0 4.69075L8.11862 0.180408L7.93821 -2.7529e-06Z" transform="translate(531.755 316.692)" fill="#DFDFDF"/>
<path d="M34.6394 29.0466V20.0259L5.50579e-06 -2.7529e-06V9.02069L26.7012 24.5363V54.485L34.6394 58.9953V29.0466Z" transform="translate(497.116 292.336)" fill="#DFDFDF"/>
<path d="M8.11862 9.2011V-2.7529e-06L0 4.69075V13.7114V43.6601L7.93821 39.1498V9.2011H8.11862Z" transform="translate(531.755 307.671)" fill="#D2D2D2"/>
<path d="M42.7581 20.0259L34.6394 24.7167L5.50579e-06 4.69076L7.9382 0L42.7581 20.0259Z" transform="translate(497.116 287.645)" fill="#EAEAEA"/>
<path d="M34.6394 29.0466V20.0259L2.7529e-06 0V9.02069L26.7012 24.5363V54.485L34.6394 58.9953V29.0466Z" transform="translate(520.75 278.624)" fill="#DFDFDF"/>
<path d="M8.11862 9.2011V0L-2.7529e-06 4.69076V13.7114V43.6601L7.93821 39.1498V9.2011H8.11862Z" transform="translate(555.39 293.959)" fill="#D2D2D2"/>
<path d="M42.7581 20.0259L34.6394 24.7167L2.7529e-06 4.69076L7.93821 2.7529e-06L42.7581 20.0259Z" transform="translate(520.75 273.933)" fill="#EAEAEA"/>
<path d="M34.6394 29.0466V20.0259L0 0V9.2011L26.7012 24.5363V65.5257L34.6394 70.036V29.0466Z" transform="translate(544.385 264.913)" fill="#DFDFDF"/>
<path d="M8.11871 9.2011V0L8.25869e-05 4.69075V13.7114L0 51.6061L8.11862 47.0958L8.11871 9.2011Z" transform="translate(579.024 280.248)" fill="#D2D2D2"/>
<path d="M42.7581 20.0259L34.6394 24.7167L0 4.69076L8.11862 5.50579e-06L42.7581 20.0259Z" transform="translate(544.385 260.222)" fill="#EAEAEA"/>
<path d="M34.6394 29.227V20.0259L-2.7529e-06 -1.37645e-06V9.20111L26.7012 24.5363V54.485L34.6394 59.1757V29.227Z" transform="translate(568.019 251.201)" fill="#DFDFDF"/>
<path d="M42.7581 20.0259L34.6395 24.5363L-2.7529e-06 4.51034L8.11863 -1.37645e-06L42.7581 20.0259Z" transform="translate(568.019 246.691)" fill="#EAEAEA"/>
</g>
<defs>
<linearGradient id="paint0_linear" x2="1" gradientUnits="userSpaceOnUse" gradientTransform="matrix(584 330 -584 92.5961 292 -46.298)">
<stop stop-color="#011A46"/>
<stop offset="1" stop-color="#42229C"/>
</linearGradient>
<linearGradient id="paint1_linear" x2="1" gradientUnits="userSpaceOnUse" gradientTransform="matrix(584 330 -584 92.5961 292 -46.298)">
<stop stop-color="#011A46"/>
<stop offset="1" stop-color="#42229C"/>
</linearGradient>
</defs>
</svg>
