<svg width="260" height="80" viewBox="0 0 260 80" fill="none" xmlns="http://www.w3.org/2000/svg">
<rect x="0.5" y="0.5" width="259" height="79" rx="0.5" stroke="#E7E8EF"/>
<rect x="0.5" y="0.5" width="139" height="31" rx="3.5" transform="translate(60 24)" stroke="#465EDB"/>
<path d="M0 0.308219V14.6918H10.3237V11.4041H3.74489V9.06164H9.59501V5.79452H3.74489V3.59589H10.2023V0.308219H0Z" transform="translate(143 32)" fill="#465EDB"/>
<path d="M11.6471 7.70548C11.6471 12.8425 15.5134 15 19.4 15C20.898 15 22.2947 14.6918 23.5295 14.0959V10.3973C22.7198 11.1986 21.3838 11.6507 19.9263 11.6507C17.7199 11.6507 15.4932 10.5 15.4932 7.70548C15.4932 4.58219 17.7199 3.32877 19.9668 3.32877C21.2624 3.32877 22.5579 3.76027 23.4283 4.5V0.90411C22.1935 0.308219 20.7563 0 19.3191 0C15.4932 0 11.6471 2.28082 11.6471 7.70548Z" transform="translate(143 32)" fill="#465EDB"/>
<path d="M25.5998 0.308219V14.6918H29.3447V0.308219H25.5998Z" transform="translate(143 32)" fill="#465EDB"/>
<path d="M35.7694 14.6918V10.0068H37.3888L40.7693 14.6918H45L41.0932 9.4726C42.6519 8.83562 43.8057 7.5411 43.8057 5.15753C43.8057 1.35616 40.8705 0.308219 37.996 0.308219H32.0245V14.6918H35.7694ZM35.7694 3.59589H38.158C39.2309 3.59589 39.9596 4.15068 39.9596 5.26027C39.9596 6.36986 39.2309 6.92466 38.158 6.92466H35.7694V3.59589Z" transform="translate(143 32)" fill="#465EDB"/>
<path d="M1.48242 5.83008V9H0V0.46875H3.26367C4.2168 0.46875 4.97266 0.716797 5.53125 1.21289C6.09375 1.70898 6.375 2.36523 6.375 3.18164C6.375 4.01758 6.09961 4.66797 5.54883 5.13281C5.00195 5.59766 4.23438 5.83008 3.24609 5.83008H1.48242ZM1.48242 4.64062H3.26367C3.79102 4.64062 4.19336 4.51758 4.4707 4.27148C4.74805 4.02148 4.88672 3.66211 4.88672 3.19336C4.88672 2.73242 4.74609 2.36523 4.46484 2.0918C4.18359 1.81445 3.79688 1.67188 3.30469 1.66406H1.48242V4.64062Z" transform="translate(72.8672 35)" fill="#465EDB"/>
<path d="M7.18945 5.77148C7.18945 5.15039 7.3125 4.5918 7.55859 4.0957C7.80469 3.5957 8.15039 3.21289 8.5957 2.94727C9.04102 2.67773 9.55273 2.54297 10.1309 2.54297C10.9863 2.54297 11.6797 2.81836 12.2109 3.36914C12.7461 3.91992 13.0352 4.65039 13.0781 5.56055L13.084 5.89453C13.084 6.51953 12.9629 7.07812 12.7207 7.57031C12.4824 8.0625 12.1387 8.44336 11.6895 8.71289C11.2441 8.98242 10.7285 9.11719 10.1426 9.11719C9.24805 9.11719 8.53125 8.82031 7.99219 8.22656C7.45703 7.62891 7.18945 6.83398 7.18945 5.8418V5.77148ZM8.61328 5.89453C8.61328 6.54688 8.74805 7.05859 9.01758 7.42969C9.28711 7.79688 9.66211 7.98047 10.1426 7.98047C10.623 7.98047 10.9961 7.79297 11.2617 7.41797C11.5312 7.04297 11.666 6.49414 11.666 5.77148C11.666 5.13086 11.5273 4.62305 11.25 4.24805C10.9766 3.87305 10.6035 3.68555 10.1309 3.68555C9.66602 3.68555 9.29688 3.87109 9.02344 4.24219C8.75 4.60938 8.61328 5.16016 8.61328 5.89453Z" transform="translate(72.8672 35)" fill="#465EDB"/>
<path d="M19.8574 7.03711L20.8652 2.66016H22.2539L20.5254 9H19.3535L17.9941 4.64648L16.6582 9H15.4863L13.752 2.66016H15.1406L16.166 6.99023L17.4668 2.66016H18.5391L19.8574 7.03711Z" transform="translate(72.8672 35)" fill="#465EDB"/>
<path d="M25.998 9.11719C25.0957 9.11719 24.3633 8.83398 23.8008 8.26758C23.2422 7.69727 22.9629 6.93945 22.9629 5.99414V5.81836C22.9629 5.18555 23.084 4.62109 23.3262 4.125C23.5723 3.625 23.916 3.23633 24.3574 2.95898C24.7988 2.68164 25.291 2.54297 25.834 2.54297C26.6973 2.54297 27.3633 2.81836 27.832 3.36914C28.3047 3.91992 28.541 4.69922 28.541 5.70703V6.28125H24.3984C24.4414 6.80469 24.6152 7.21875 24.9199 7.52344C25.2285 7.82812 25.6152 7.98047 26.0801 7.98047C26.7324 7.98047 27.2637 7.7168 27.6738 7.18945L28.4414 7.92188C28.1875 8.30078 27.8477 8.5957 27.4219 8.80664C27 9.01367 26.5254 9.11719 25.998 9.11719ZM25.8281 3.68555C25.4375 3.68555 25.1211 3.82227 24.8789 4.0957C24.6406 4.36914 24.4883 4.75 24.4219 5.23828H27.1348V5.13281C27.1035 4.65625 26.9766 4.29688 26.7539 4.05469C26.5312 3.80859 26.2227 3.68555 25.8281 3.68555Z" transform="translate(72.8672 35)" fill="#465EDB"/>
<path d="M32.9707 3.96094C32.7832 3.92969 32.5898 3.91406 32.3906 3.91406C31.7383 3.91406 31.2988 4.16406 31.0723 4.66406V9H29.6484V2.66016H31.0078L31.043 3.36914C31.3867 2.81836 31.8633 2.54297 32.4727 2.54297C32.6758 2.54297 32.8438 2.57031 32.9766 2.625L32.9707 3.96094Z" transform="translate(72.8672 35)" fill="#465EDB"/>
<path d="M36.5449 9.11719C35.6426 9.11719 34.9102 8.83398 34.3477 8.26758C33.7891 7.69727 33.5098 6.93945 33.5098 5.99414V5.81836C33.5098 5.18555 33.6309 4.62109 33.873 4.125C34.1191 3.625 34.4629 3.23633 34.9043 2.95898C35.3457 2.68164 35.8379 2.54297 36.3809 2.54297C37.2441 2.54297 37.9102 2.81836 38.3789 3.36914C38.8516 3.91992 39.0879 4.69922 39.0879 5.70703V6.28125H34.9453C34.9883 6.80469 35.1621 7.21875 35.4668 7.52344C35.7754 7.82812 36.1621 7.98047 36.627 7.98047C37.2793 7.98047 37.8105 7.7168 38.2207 7.18945L38.9883 7.92188C38.7344 8.30078 38.3945 8.5957 37.9688 8.80664C37.5469 9.01367 37.0723 9.11719 36.5449 9.11719ZM36.375 3.68555C35.9844 3.68555 35.668 3.82227 35.4258 4.0957C35.1875 4.36914 35.0352 4.75 34.9688 5.23828H37.6816V5.13281C37.6504 4.65625 37.5234 4.29688 37.3008 4.05469C37.0781 3.80859 36.7695 3.68555 36.375 3.68555Z" transform="translate(72.8672 35)" fill="#465EDB"/>
<path d="M39.9316 5.7832C39.9316 4.80664 40.1582 4.02344 40.6113 3.43359C41.0645 2.83984 41.6719 2.54297 42.4336 2.54297C43.1055 2.54297 43.6484 2.77734 44.0625 3.24609V0H45.4863V9H44.1973L44.127 8.34375C43.7012 8.85938 43.1328 9.11719 42.4219 9.11719C41.6797 9.11719 41.0781 8.81836 40.6172 8.2207C40.1602 7.62305 39.9316 6.81055 39.9316 5.7832ZM41.3555 5.90625C41.3555 6.55078 41.4785 7.05469 41.7246 7.41797C41.9746 7.77734 42.3281 7.95703 42.7852 7.95703C43.3672 7.95703 43.793 7.69727 44.0625 7.17773V4.4707C43.8008 3.96289 43.3789 3.70898 42.7969 3.70898C42.3359 3.70898 41.9805 3.89258 41.7305 4.25977C41.4805 4.62305 41.3555 5.17188 41.3555 5.90625Z" transform="translate(72.8672 35)" fill="#465EDB"/>
<path d="M55.5234 5.89453C55.5234 6.87891 55.3027 7.66211 54.8613 8.24414C54.4238 8.82617 53.8203 9.11719 53.0508 9.11719C52.3086 9.11719 51.7305 8.84961 51.3164 8.31445L51.2461 9H49.957V0H51.3809V3.26953C51.791 2.78516 52.3438 2.54297 53.0391 2.54297C53.8125 2.54297 54.4199 2.83008 54.8613 3.4043C55.3027 3.97852 55.5234 4.78125 55.5234 5.8125V5.89453ZM54.0996 5.77148C54.0996 5.08398 53.9785 4.56836 53.7363 4.22461C53.4941 3.88086 53.1426 3.70898 52.6816 3.70898C52.0645 3.70898 51.6309 3.97852 51.3809 4.51758V7.13086C51.6348 7.68164 52.0723 7.95703 52.6934 7.95703C53.1387 7.95703 53.4824 7.79102 53.7246 7.45898C53.9668 7.12695 54.0918 6.625 54.0996 5.95312V5.77148Z" transform="translate(72.8672 35)" fill="#465EDB"/>
<path d="M58.8691 6.96094L60.1582 2.66016H61.6758L59.1562 9.96094C58.7695 11.0273 58.1133 11.5605 57.1875 11.5605C56.9805 11.5605 56.752 11.5254 56.502 11.4551V10.3535L56.7715 10.3711C57.1309 10.3711 57.4004 10.3047 57.5801 10.1719C57.7637 10.043 57.9082 9.82422 58.0137 9.51562L58.2188 8.9707L55.9922 2.66016H57.5273L58.8691 6.96094Z" transform="translate(72.8672 35)" fill="#465EDB"/>
</svg>
