<svg width="348" height="130" viewBox="0 0 348 130" fill="none" xmlns="http://www.w3.org/2000/svg">
<path d="M122.393 12.3907V84.6736H174.151V68.1518H141.168V56.38H170.497V39.9615H141.168V28.9125H173.542V12.3907H122.393Z" fill="white"/>
<path d="M180.785 49.5648C180.785 75.3801 200.169 86.2225 219.655 86.2225C227.165 86.2225 234.167 84.6736 240.358 81.679V63.092C236.299 67.1192 229.601 69.3909 222.293 69.3909C211.231 69.3909 200.068 63.6083 200.068 49.5648C200.068 33.8691 211.231 27.5701 222.496 27.5701C228.992 27.5701 235.487 29.7386 239.851 33.456V15.3853C233.66 12.3907 226.454 10.8418 219.249 10.8418C200.068 10.8418 180.785 22.3038 180.785 49.5648Z" fill="white"/>
<path d="M250.737 12.3907V84.6736H269.512V12.3907H250.737Z" fill="white"/>
<path d="M301.723 84.6736V61.13H309.842L326.79 84.6736H348.001L328.414 58.4452C336.228 55.2441 342.013 48.7387 342.013 36.7604C342.013 17.657 327.297 12.3907 312.886 12.3907H282.948V84.6736H301.723ZM301.723 28.9125H313.698C319.077 28.9125 322.73 31.7006 322.73 37.2767C322.73 42.8528 319.077 45.6408 313.698 45.6408H301.723V28.9125Z" fill="white"/>
<path d="M14.1733 54.0224L26.4567 44.0983L15.1182 35.4548C14.4883 35.1347 13.8584 35.1347 13.2285 35.4548L1.88999 44.0983L14.1733 54.0224Z" fill="#3C59F0"/>
<path d="M12.5983 56.5837L0 46.3395V84.4351C0 85.0753 0.314958 85.3955 0.629916 85.7156L12.5983 94.9994V56.5837Z" fill="#3C59F0"/>
<path d="M15.7473 56.5832V94.9989L27.7157 86.0353C28.0306 85.7151 28.3456 85.395 28.3456 84.7547V46.6592L15.7473 56.5832Z" fill="#3C59F0"/>
<path d="M45.6689 18.8077L57.9522 8.88364L46.6138 0.240098C45.9838 -0.0800328 45.3539 -0.0800328 44.724 0.240098L33.3855 8.88364L45.6689 18.8077Z" fill="#3C59F0"/>
<path d="M44.0939 21.369L31.4955 11.1248V84.4348C31.4955 85.0751 31.8105 85.3952 32.1255 85.7153L44.0939 94.679V21.369Z" fill="#3C59F0"/>
<path d="M47.2428 21.3695V94.9997L59.2112 86.036C59.5262 85.7159 59.8411 85.3957 59.8411 84.7555V11.4455L47.2428 21.3695Z" fill="#3C59F0"/>
<path d="M75.5904 40.5777L62.9921 30.6537V84.7558C62.9921 85.3961 63.307 85.7162 63.622 86.0363L75.5904 95V40.5777Z" fill="#3C59F0"/>
<path d="M77.1654 38.0159L89.4488 28.0918L78.1103 19.4483C77.4804 19.1282 76.8505 19.1282 76.2206 19.4483L64.8821 28.0918L77.1654 38.0159Z" fill="#3C59F0"/>
<path d="M78.7394 40.5777V95L90.7078 86.0363C91.0227 85.7162 91.3377 85.3961 91.3377 84.7558V30.6537L78.7394 40.5777Z" fill="#3C59F0"/>
<path d="M125.188 124L127.184 118.971H139.469L141.427 124H147.377L136.436 97.127H130.217L119.237 124H125.188ZM132.712 104.575C132.943 104.037 133.134 103.5 133.326 102.463C133.518 103.5 133.71 104.037 133.902 104.575L137.665 114.211H128.988L132.712 104.575Z" fill="white"/>
<path d="M156.14 124V113.02H160.478L167.811 124H174.183L164.97 110.218L173.684 97.127H167.273L160.478 107.799H156.14V97.127H150.381V124H156.14Z" fill="white"/>
<path d="M180.111 124L182.107 118.971H194.392L196.35 124H202.3L191.359 97.127H185.14L174.16 124H180.111ZM187.635 104.575C187.866 104.037 188.058 103.5 188.25 102.463C188.442 103.5 188.634 104.037 188.825 104.575L192.588 114.211H183.912L187.635 104.575Z" fill="white"/>
<path d="M208.299 129.835V124H227.264V129.835H232.331V118.932H228.915V97.127H210.641C210.641 104.613 209.835 112.752 206.38 118.932H203.232V129.835H208.299ZM216.015 102.31H223.156V118.932H212.484C214.787 114.518 215.632 108.26 216.015 102.31Z" fill="white"/>
<path d="M236.347 97.127V124H255.503V118.932H242.105V112.944H254.121V107.915H242.105V102.194H255.273V97.127H236.347Z" fill="white"/>
<path d="M283.765 97.127L274.59 111.101L265.377 97.127H260.04V124H265.799V107.415L272.901 118.241H276.241L283.343 107.454V124H289.102V97.127H283.765Z" fill="white"/>
<path d="M318.44 124V97.127H313.027L300.512 114.671C300.589 113.558 300.627 112.214 300.627 110.986V97.127H294.869V124H300.282L312.797 106.456C312.72 107.569 312.682 108.913 312.682 110.141V124H318.44Z" fill="white"/>
<path d="M328.524 124L335.319 114.863H339.35V124H345.109V97.127H334.168C328.486 97.127 323.38 99.6607 323.38 106.11C323.38 110.487 325.914 112.982 329.369 114.134L321.883 124H328.524ZM329.292 106.11C329.292 103.423 331.288 102.194 334.206 102.194H339.35V110.064H334.206C331.288 110.064 329.292 108.798 329.292 106.11Z" fill="white"/>
</svg>
