<svg width="1049" height="783" viewBox="0 0 1049 783" fill="none" xmlns="http://www.w3.org/2000/svg">
<path fill-rule="evenodd" clip-rule="evenodd" d="M16.8325 87.9585L159.197 2.67359e-06C142.684 10.1625 137.469 32.0645 147.551 48.7101L159.545 68.3343L177.623 97.9458L207.869 147.707L219.863 167.331C229.945 183.977 224.73 205.879 208.217 216.041L65.678 304C82.1917 293.837 87.4065 271.935 77.3245 255.29L17.0063 156.293L5.01223 136.669C-4.89594 120.023 0.318881 98.121 16.8325 87.9585Z" transform="translate(764 3)" fill="#434D67"/>
<path fill-rule="evenodd" clip-rule="evenodd" d="M119.259 89.5492L128.298 83.9423C130.037 82.891 132.123 83.4166 133.166 85.1688C134.209 86.921 133.687 89.0235 131.949 90.0748L122.91 95.6818C121.171 96.7331 119.086 96.2074 118.043 94.4552C117.173 92.8783 117.695 90.6005 119.259 89.5492ZM10.791 52.7538L84.32 7.19763C86.0583 6.14633 88.1442 6.67198 89.1872 8.42414C90.2301 10.1763 89.7087 12.2789 87.9704 13.3302L14.4413 58.8864C12.7031 59.9377 10.6171 59.412 9.57417 57.6599C8.70503 55.9077 9.22651 53.8051 10.791 52.7538ZM1.75192 37.51C0.0136495 38.5613 -0.507835 40.8391 0.535131 42.4161C1.5781 44.1682 3.83786 44.6939 5.4023 43.6426L30.6073 28.0483C32.3456 26.997 32.8671 24.7192 31.8241 23.1423C30.7811 21.3901 28.5214 20.8645 26.9569 21.9158L1.75192 37.51ZM36.3436 16.1336C34.6053 17.1849 34.0839 19.4627 35.1268 21.0397C36.1698 22.7919 38.4295 23.3175 39.994 22.2662L65.199 6.67198C66.9373 5.62068 67.4587 3.34286 66.4158 1.76592C65.3728 0.0137585 63.1131 -0.511885 61.5486 0.539412L36.3436 16.1336ZM20.0038 67.8224C18.2655 68.8737 17.7441 71.1515 18.787 72.7284C19.83 74.4806 22.0897 75.0063 23.6542 73.955L97.1833 28.3988C98.9215 27.3475 99.443 25.0697 98.4 23.4927C97.3571 21.7405 95.0973 21.2149 93.5329 22.2662L20.0038 67.8224ZM29.2167 82.891L62.9392 62.0403C64.6775 60.989 66.7634 61.5146 67.8064 63.2668C68.8494 65.019 68.3279 67.1215 66.5896 68.1728L33.0409 89.0236C31.3026 90.0749 29.0429 89.5492 28.1737 87.797C26.9569 86.2201 27.6522 83.9423 29.2167 82.891ZM74.238 55.0316C72.4997 56.0829 71.9783 58.3607 73.0212 59.9377C74.0642 61.6898 76.3239 62.2155 77.8884 61.1642L82.2341 58.3607C83.9724 57.3094 84.4938 55.0316 83.4509 53.4547C82.4079 51.7025 80.1481 51.1769 78.5837 52.2282L74.238 55.0316ZM89.7087 45.57C87.9704 46.6213 87.4489 48.8991 88.4919 50.476C89.5348 52.2282 91.7946 52.7538 93.359 51.7025L97.7047 48.899C99.443 47.8478 99.9645 45.57 98.9215 43.993C97.8786 42.2409 95.6188 41.7152 94.0544 42.7665L89.7087 45.57ZM38.4295 97.9596C36.6913 99.0109 36.1698 101.289 37.2127 102.866C38.2557 104.618 40.5155 105.143 42.0799 104.092L115.609 58.5359C117.347 57.4846 117.869 55.2068 116.826 53.6299C115.783 51.8777 113.523 51.3521 111.959 52.4034L38.4295 97.9596ZM47.6424 113.028L81.3649 92.1775C83.1032 91.1262 85.1891 91.6518 86.2321 93.404C87.2751 95.1561 86.7536 97.2587 85.0153 98.31L51.2928 119.161C49.5545 120.212 47.4686 119.686 46.4256 117.934C45.3826 116.357 45.9041 114.079 47.6424 113.028ZM56.8553 128.272C55.117 129.323 54.5955 131.601 55.6385 133.178C56.6814 134.93 58.9412 135.456 60.5056 134.405L94.2282 113.554C95.9665 112.503 96.4879 110.225 95.445 108.648C94.402 106.896 92.1423 106.37 90.5778 107.421L56.8553 128.272ZM66.0681 143.341L99.7907 122.49C101.529 121.439 103.615 121.964 104.658 123.716C105.701 125.469 105.179 127.571 103.441 128.622L69.7185 149.473C67.9802 150.524 65.8943 149.999 64.8513 148.247C63.8084 146.494 64.3298 144.392 66.0681 143.341Z" transform="translate(794.899 82.8848)" fill="#F1F4FF"/>
<path fill-rule="evenodd" clip-rule="evenodd" d="M6.21866 39.7177C5.87101 41.4699 4.13274 42.5212 2.39446 41.9956C0.656186 41.6451 -0.386785 39.893 0.134698 38.1408L3.95891 22.5466C4.30657 20.7944 6.04484 19.7431 7.78311 20.2687C8.65225 20.444 9.34756 20.9696 9.69521 21.6705L13.3456 27.4526L19.6034 4.67452C20.1249 2.92235 21.8631 2.04627 23.4276 2.3967C24.6444 2.74713 25.5135 3.79845 25.6874 4.84974L27.078 11.8584L33.1619 1.52062C34.0311 -0.0563247 35.9432 -0.406741 37.5076 0.46934C39.0721 1.34542 39.4197 3.2728 38.5506 4.84974L28.1209 22.0209C27.7733 22.897 26.9041 23.4226 25.8612 23.7731C24.1229 24.1235 22.3846 22.897 22.037 21.1448L21.6893 19.3927L17.1698 35.863C16.996 36.7391 16.4745 37.4399 15.7792 37.9656C14.2147 38.8417 12.3026 38.4912 11.4335 36.9143L7.95694 31.4826L6.21866 39.7177Z" transform="translate(920.281 178.973)" fill="#848EAE"/>
<path fill-rule="evenodd" clip-rule="evenodd" d="M13.8887 10.9861C6.25969 10.9861 1.19394e-05 17.2083 1.19394e-05 24.7917C1.19394e-05 32.375 6.25969 38.5972 13.8887 38.5972C17.9966 38.5972 21.6155 36.8472 24.1585 34.125C28.0708 38.9861 34.0371 42 40.688 42C47.6324 42 53.7943 38.6944 57.7066 33.4444C59.4671 34.9028 61.8145 35.875 64.3575 35.875C68.0742 35.875 71.3019 33.9306 73.1602 31.1111C75.8988 37.3333 82.0607 41.7083 89.2985 41.7083C95.8516 41.7083 101.524 38.2083 104.557 32.9583C105.339 33.1528 106.121 33.25 106.904 33.25C111.99 33.25 116 29.1667 116 24.2083C116 19.1528 111.892 15.1667 106.904 15.1667C106.121 15.1667 105.339 15.2639 104.557 15.4583C101.524 10.2083 95.8516 6.70833 89.2985 6.70833C83.1366 6.70833 77.7572 9.81944 74.6273 14.4861C73.8449 13.8056 72.769 13.5139 71.6931 13.5139C70.0304 13.5139 68.4654 14.3889 67.683 15.75C66.6071 15.3611 65.5312 15.1667 64.3575 15.1667C63.2816 15.1667 62.2057 15.3611 61.1299 15.6528C58.7825 6.61112 50.4688 5.93397e-06 40.688 5.93397e-06C31.8853 5.93397e-06 24.2563 5.34722 21.1265 13.0278C18.9747 11.7639 16.5295 10.9861 13.8887 10.9861Z" transform="translate(722 765)" fill="#018A38"/>
<path fill-rule="evenodd" clip-rule="evenodd" d="M13.8887 10.9861C6.25969 10.9861 1.19394e-05 17.2083 1.19394e-05 24.7917C1.19394e-05 32.375 6.25969 38.5972 13.8887 38.5972C17.9966 38.5972 21.6155 36.8472 24.1585 34.125C28.0708 38.9861 34.0371 42 40.688 42C47.6324 42 53.7943 38.6944 57.7066 33.4444C59.4671 34.9028 61.8145 35.875 64.3575 35.875C68.0742 35.875 71.3019 33.9306 73.1602 31.1111C75.8988 37.3333 82.0607 41.7083 89.2985 41.7083C95.8516 41.7083 101.524 38.2083 104.557 32.9583C105.339 33.1528 106.121 33.25 106.904 33.25C111.99 33.25 116 29.1667 116 24.2083C116 19.1528 111.892 15.1667 106.904 15.1667C106.121 15.1667 105.339 15.2639 104.557 15.4583C101.524 10.2083 95.8516 6.70833 89.2985 6.70833C83.1366 6.70833 77.7572 9.81944 74.6273 14.4861C73.8449 13.8056 72.769 13.5139 71.6931 13.5139C70.0304 13.5139 68.4654 14.3889 67.683 15.75C66.6071 15.3611 65.5312 15.1667 64.3575 15.1667C63.2816 15.1667 62.2057 15.3611 61.1299 15.6528C58.7825 6.61112 50.4688 5.93397e-06 40.688 5.93397e-06C31.8853 5.93397e-06 24.2563 5.34722 21.1265 13.0278C18.9747 11.7639 16.5295 10.9861 13.8887 10.9861Z" transform="translate(731 762) scale(-1 1)" fill="#018A38"/>
<path fill-rule="evenodd" clip-rule="evenodd" d="M214.885 23.3563C231.028 23.3563 244.118 36.4533 244.118 52.6063C244.118 68.7593 231.028 81.8563 214.885 81.8563C206.377 81.8563 198.741 78.1455 193.287 72.2518C185.215 82.5111 172.562 89.0596 158.6 89.0596C143.984 89.0596 130.894 82.0746 122.822 70.9421C119.114 73.9981 114.096 75.9626 108.86 75.9626C101.007 75.9626 94.2439 71.8152 90.317 65.7033C84.645 78.8003 71.5555 88.1865 56.2845 88.1865C42.5406 88.1865 30.7602 80.7648 24.2155 69.6324C22.6884 70.069 20.9431 70.2873 19.1978 70.2873C8.5081 70.2873 0 61.7742 0 51.0783C0 40.3824 8.5081 31.8694 19.1978 31.8694C20.9431 31.8694 22.6884 32.0876 24.2155 32.5242C30.542 21.3918 42.5406 13.9701 56.2845 13.9701C69.1558 13.9701 80.5 20.5186 87.0447 30.5597C88.7899 29.25 90.9715 28.3768 93.1531 28.3768C96.6436 28.3768 99.916 30.3414 101.661 33.1791C103.843 32.5243 106.242 32.0877 108.642 32.0877C111.042 32.0877 113.224 32.5243 115.405 33.1791C120.423 13.9702 137.657 0 158.382 0C176.925 0 192.851 11.3507 199.396 27.5037C204.195 24.8843 209.431 23.3563 214.885 23.3563Z" transform="translate(824.701 737.157)" fill="#009E3F"/>
<path fill-rule="evenodd" clip-rule="evenodd" d="M132.918 14.424C142.903 14.424 151 22.5123 151 32.4878C151 42.4632 142.903 50.5515 132.918 50.5515C127.655 50.5515 122.932 48.2598 119.559 44.6201C114.566 50.9559 106.739 55 98.1028 55C89.0617 55 80.9651 50.6863 75.9723 43.8113C73.6783 45.6985 70.5746 46.9118 67.336 46.9118C62.4781 46.9118 58.2949 44.3505 55.8659 40.576C52.3575 48.6642 44.2609 54.4608 34.815 54.4608C26.3137 54.4608 19.0268 49.8774 14.9786 43.0024C14.034 43.2721 12.9544 43.4069 11.8749 43.4069C5.26272 43.4069 0 38.1495 0 31.5441C0 24.9387 5.26272 19.6814 11.8749 19.6814C12.9544 19.6814 14.034 19.8162 14.9786 20.0858C18.8919 13.2108 26.3137 8.62744 34.815 8.62744C42.7766 8.62744 49.7936 12.6716 53.8418 18.8725C54.9213 18.0637 56.2708 17.5245 57.6202 17.5245C59.7793 17.5245 61.8034 18.7378 62.8829 20.4902C64.2324 20.0858 65.7167 19.8162 67.2011 19.8162C68.6854 19.8162 70.0348 20.0858 71.3843 20.4902C74.4879 8.62747 85.1484 0 97.9678 0C109.438 0 119.289 7.00981 123.337 16.9853C126.306 15.3677 129.544 14.424 132.918 14.424Z" transform="translate(248 756)" fill="#009E3F"/>
<path fill-rule="evenodd" clip-rule="evenodd" d="M50.8589 -6.66148e-06C76.1651 -6.66148e-06 94.7085 20.5186 92.0906 46.0578C89.4727 71.3787 66.7844 92.1156 41.4781 92.1156C16.1719 92.1156 -2.3715 71.597 0.24639 46.0578C2.86428 20.5186 25.5526 -6.66148e-06 50.8589 -6.66148e-06Z" transform="translate(622 586)" fill="#FFCB33"/>
<path fill-rule="evenodd" clip-rule="evenodd" d="M50.8517 -6.66148e-06C58.0509 -6.66148e-06 64.5956 1.74627 70.4858 4.58396C71.1403 9.16791 71.1403 13.7518 70.704 18.5541C67.6498 48.2406 44.5251 73.3432 14.8558 82.5111C4.60239 74.2164 -1.28788 60.6828 0.239218 45.8395C2.8571 20.5186 25.5455 -6.66148e-06 50.8517 -6.66148e-06Z" transform="translate(622.007 586)" fill="#FFDA59"/>
<path fill-rule="evenodd" clip-rule="evenodd" d="M33.9803 -6.66148e-06C50.9965 -6.66148e-06 63.2133 13.7518 61.4681 30.5597C59.7228 47.5858 44.67 61.1194 27.6537 61.1194C10.6375 61.1194 -1.57936 47.3675 0.1659 30.5597C1.91116 13.7518 17.1822 -6.66148e-06 33.9803 -6.66148e-06Z" transform="translate(637.351 601.28)" fill="#FFBE00"/>
<path fill-rule="evenodd" clip-rule="evenodd" d="M33.9801 -6.66148e-06C44.2335 -6.66148e-06 52.9599 5.2388 57.7593 13.097C52.7417 7.63991 45.5425 4.1474 37.0344 4.1474C20.0181 4.1474 4.9653 17.8993 3.22004 34.7071C2.56557 41.2556 4.09263 47.3675 6.92867 52.388C1.91106 46.931 -0.706842 39.0727 0.165787 30.5597C1.91104 13.7518 16.9639 -6.66148e-06 33.9801 -6.66148e-06Z" transform="translate(637.352 601.28)" fill="#F5B01B"/>
<path fill-rule="evenodd" clip-rule="evenodd" d="M27.7346 26.2178C25.9893 42.589 1.33756 39.7513 0.246773 34.7308C-2.80743 22.0704 23.5896 31.6748 18.572 24.2532C16.8268 21.6338 0.246813 28.4006 1.99207 12.4659C3.73733 -3.90536 26.6438 -1.06768 27.9528 3.73456C31.2251 15.9584 6.57334 7.22709 11.3728 13.9939C12.6817 17.0498 29.2617 10.2831 27.7346 26.2178Z" transform="translate(653.632 612.389)" fill="#FFDA59"/>
<path fill-rule="evenodd" clip-rule="evenodd" d="M2.55683e-05 26.8432L129.443 104.227L89.6468 57.6709L309.994 147.008L29.3237 6.39991e-06L69.3296 56.4126L2.55683e-05 26.8432Z" transform="matrix(-0.849255 0.527982 0.527349 0.849648 415.264 498)" fill="#202A41"/>
<path fill-rule="evenodd" clip-rule="evenodd" d="M373.267 1.3323e-05C373.267 0.654864 373.267 1.0914 373.267 1.74625V179.211C373.267 223.522 409.481 259.976 453.985 259.976H373.267H80.7182H6.65763e-06C44.2859 259.976 80.7182 223.741 80.7182 179.211V1.74625C80.7182 1.0914 80.7182 0.654864 80.7182 1.3323e-05H373.267Z" transform="translate(291.686 575.372)" fill="#8C4833"/>
<path fill-rule="evenodd" clip-rule="evenodd" d="M88.1355 1.3323e-05C88.1355 0.654864 88.1355 1.0914 88.1355 1.74625V179.211C88.1355 223.522 124.35 259.976 168.854 259.976H88.1355H80.7181C36.4322 259.976 0 223.741 0 179.211V1.74625C0 1.0914 0 0.654864 0 1.3323e-05H88.1355Z" transform="translate(576.818 575.372)" fill="#823F2B"/>
<path fill-rule="evenodd" clip-rule="evenodd" d="M35.7778 -6.66148e-06H217.066C236.7 -6.66148e-06 252.844 16.153 252.844 35.7985H-1.33153e-05C-1.33153e-05 16.153 16.1436 -6.66148e-06 35.7778 -6.66148e-06Z" transform="translate(392.257 539.573)" fill="#EDB587"/>
<path fill-rule="evenodd" clip-rule="evenodd" d="M35.7778 -6.66148e-06H140.93C160.564 -6.66148e-06 176.707 16.153 176.707 35.7985H-1.33153e-05C-1.33153e-05 16.153 16.1436 -6.66148e-06 35.7778 -6.66148e-06Z" transform="translate(392.257 539.573)" fill="#FDCCA4"/>
<path fill-rule="evenodd" clip-rule="evenodd" d="M9.16261 0C14.1802 0 18.3252 4.14741 18.3252 9.16793V110.233C18.3252 115.254 14.1802 119.401 9.16261 119.401C4.14499 119.401 1.33153e-05 115.254 1.33153e-05 110.233V9.16793C1.33153e-05 4.14741 4.14499 0 9.16261 0Z" transform="translate(407.964 607.896)" fill="#823F2B"/>
<path fill-rule="evenodd" clip-rule="evenodd" d="M9.16261 1.3323e-05C14.1802 1.3323e-05 18.3252 4.14736 18.3252 9.16788V32.5242C18.3252 37.5447 14.1802 41.6922 9.16261 41.6922C4.14499 41.6922 1.33153e-05 37.5447 1.33153e-05 32.5242V9.16788C1.33153e-05 4.14736 4.14499 1.3323e-05 9.16261 1.3323e-05Z" transform="translate(407.964 747.815)" fill="#823F2B"/>
<path fill-rule="evenodd" clip-rule="evenodd" d="M9.16261 0C14.1802 0 18.3252 4.14741 18.3252 9.16793V50.6418C18.3252 55.6623 14.1802 59.8096 9.16261 59.8096C4.14499 59.8096 1.33153e-05 55.6623 1.33153e-05 50.6418V9.16793C1.33153e-05 4.14741 4.14499 0 9.16261 0Z" transform="translate(442.869 607.896)" fill="#823F2B"/>
<path fill-rule="evenodd" clip-rule="evenodd" d="M9.16261 0C14.1802 0 18.3252 4.14741 18.3252 9.16793V82.2929C18.3252 87.3134 14.1802 91.4607 9.16261 91.4607C4.145 91.4607 -1.33153e-05 87.3134 -1.33153e-05 82.2929V9.16793C0.218144 4.14741 4.145 0 9.16261 0Z" transform="translate(519.879 607.896)" fill="#823F2B"/>
<path fill-rule="evenodd" clip-rule="evenodd" d="M9.16261 -1.3323e-05C14.1802 -1.3323e-05 18.3252 4.1474 18.3252 9.16792V25.3209C18.3252 30.3414 14.1802 34.4888 9.16261 34.4888C4.145 34.4888 -1.33153e-05 30.3414 -1.33153e-05 25.3209V9.16792C0.218144 4.1474 4.145 -1.3323e-05 9.16261 -1.3323e-05Z" transform="translate(519.879 725.55)" fill="#823F2B"/>
<path fill-rule="evenodd" clip-rule="evenodd" d="M9.16261 -2.66459e-05C14.1802 -2.66459e-05 18.3252 4.14738 18.3252 9.1679V12.2239C18.3252 17.2444 14.1802 21.3918 9.16261 21.3918C4.145 21.3918 -1.33153e-05 17.2444 -1.33153e-05 12.2239V9.1679C0.218144 3.9291 4.145 -2.66459e-05 9.16261 -2.66459e-05Z" transform="translate(519.879 778.812)" fill="#823F2B"/>
<path fill-rule="evenodd" clip-rule="evenodd" d="M0.218164 44.0933H20.0704V10.041C20.0704 4.58395 15.4892 1.3323e-05 10.0352 1.3323e-05C4.58131 1.3323e-05 -6.65763e-06 4.58395 -6.65763e-06 10.041V44.0933H0.218164Z" transform="translate(372.186 557.909)" fill="#8C4833"/>
<path fill-rule="evenodd" clip-rule="evenodd" d="M0.21813 44.0933H20.0704V10.041C20.0704 4.58395 15.4891 1.3323e-05 10.0352 1.3323e-05C4.58127 1.3323e-05 2.66305e-05 4.58395 2.66305e-05 10.041V44.0933H0.21813Z" transform="translate(644.883 557.909)" fill="#823F2B"/>
<path fill-rule="evenodd" clip-rule="evenodd" d="M7.45634 6.66148e-06C12.0376 6.66148e-06 16.1827 3.71083 16.619 8.29478C17.0553 12.8787 13.7829 16.5895 9.20157 16.5895C4.62027 16.5895 0.475329 12.8787 0.0390146 8.29478C-0.3973 3.92911 2.87504 6.66148e-06 7.45634 6.66148e-06Z" transform="translate(498.46 405.547)" fill="#FAFFD6"/>
<path fill-rule="evenodd" clip-rule="evenodd" d="M0.245683 73.301L71.7371 51.6551L41.2734 50.6712L147.896 -1.50132e-05L-7.49741e-06 53.3769L34.1488 57.8045L0.245683 73.301Z" transform="matrix(-0.849255 0.527982 0.527349 0.849648 846.623 285.078)" fill="#242F49"/>
<path fill-rule="evenodd" clip-rule="evenodd" d="M180.339 7.61397L116.786 121.28L126.382 69.2509L2.21024e-05 231.682L146.661 2.76619e-06L141.229 59.4615L180.339 7.61397Z" transform="matrix(-0.849255 0.527982 0.527349 0.849648 380.154 180)" fill="#202A41"/>
<path fill-rule="evenodd" clip-rule="evenodd" d="M-1.31981e-05 101.019L82.1702 36.1411L72.0071 75.2793L240.24 -2.6901e-06L48.0047 123.761L51.897 76.3371L-1.31981e-05 101.019Z" transform="matrix(-0.963366 0.26819 0.267472 0.963566 295.853 346.59)" fill="#202A41"/>
<path fill-rule="evenodd" clip-rule="evenodd" d="M81.139 -3.75331e-06C137.153 -3.75331e-06 192.675 45.5057 205.451 101.588C217.98 157.671 182.848 203.177 126.835 203.177C70.8206 203.177 15.2981 157.671 2.52297 101.588C-10.0065 45.5057 25.3708 -3.75331e-06 81.139 -3.75331e-06Z" transform="matrix(-0.849255 0.527982 0.527349 0.849648 638.396 208.021)" fill="#DB3939"/>
<path fill-rule="evenodd" clip-rule="evenodd" d="M73.0409 0C123.404 0 173.522 41.0781 185.069 91.5033C196.37 141.928 164.678 183.007 114.314 183.007C63.9509 183.007 13.5875 141.928 2.28648 91.5033C-9.01458 40.8321 22.6775 0 73.0409 0Z" transform="matrix(-0.849255 0.527982 0.527349 0.849648 625.338 215.849)" fill="#FFDE91"/>
<path fill-rule="evenodd" clip-rule="evenodd" d="M46.7114 -7.50661e-06C78.8948 -7.50661e-06 111.078 26.3195 118.449 58.5424C125.819 90.7654 105.428 117.085 73.2443 117.085C41.0609 117.085 8.87747 90.7654 1.50721 58.5424C-5.86304 26.0735 14.528 -7.50661e-06 46.7114 -7.50661e-06Z" transform="matrix(-0.849255 0.527982 0.527349 0.849648 609.482 265.387)" fill="#FFEDC4"/>
<path fill-rule="evenodd" clip-rule="evenodd" d="M27.1809 33.2068C18.5823 36.1586 7.77254 31.239 2.61337 22.1379C-2.54581 13.0368 0.156617 2.95172 8.75525 0L27.1809 33.2068Z" transform="matrix(-0.849255 0.527982 0.527349 0.849648 603.839 317.555)" fill="#4D4D4D"/>
<path fill-rule="evenodd" clip-rule="evenodd" d="M-2.99896e-05 33.6988C9.82697 36.4045 18.4256 30.9931 18.917 21.6459C19.4083 12.2988 11.7924 2.70574 1.96542 0L-2.99896e-05 33.6988Z" transform="matrix(-0.849255 0.527982 0.527349 0.849648 573.244 336.575)" fill="#4D4D4D"/>
<path fill-rule="evenodd" clip-rule="evenodd" d="M4.19724 0C6.89966 0 9.11075 2.21377 9.35643 4.67354C9.60211 7.37928 7.63667 9.34712 5.17992 9.34712C2.4775 9.34712 0.266483 7.13331 0.0208078 4.67354C-0.224867 2.21377 1.74049 0 4.19724 0Z" transform="matrix(-0.849255 0.527982 0.527349 0.849648 539.669 424.065)" fill="#FAFFD6"/>
<path fill-rule="evenodd" clip-rule="evenodd" d="M78.3703 41.6623L97.0416 72.4094C98.7614 75.1152 98.5157 78.3128 96.3047 80.7726C94.3393 83.2324 91.1454 83.9703 88.1973 82.7404L4.42212 48.3037C1.7197 47.0738 0 44.6141 0 41.6623C0 38.7106 1.7197 36.2509 4.42212 35.021L88.1973 0.584258C91.1454 -0.645625 94.3393 0.092275 96.3047 2.55204C98.2701 5.01181 98.5157 8.20953 97.0416 10.9153L78.3703 41.6623Z" transform="matrix(-0.849255 0.527982 0.527349 0.849648 231.435 529.854)" fill="#C93434"/>
<path fill-rule="evenodd" clip-rule="evenodd" d="M78.3703 41.6623L97.0416 72.4094C98.7614 75.1152 98.5157 78.3128 96.3047 80.7726C94.3393 83.2324 91.1454 83.9703 88.1973 82.7404L4.42212 48.3037C1.7197 47.0738 0 44.6141 0 41.6623C0 38.7106 1.7197 36.2509 4.42212 35.021L88.1973 0.584258C91.1454 -0.645625 94.3393 0.092275 96.3047 2.55204C98.2701 5.01181 98.5157 8.20953 97.0416 10.9153L78.3703 41.6623Z" transform="matrix(-0.849255 0.527982 0.527349 0.849648 267.947 507.154)" fill="#DB3939"/>
<path fill-rule="evenodd" clip-rule="evenodd" d="M78.3703 41.6623L97.0416 72.4094C98.7614 75.1152 98.5157 78.3128 96.3047 80.7726C94.3393 83.2324 91.1454 83.9703 88.1973 82.7404L4.42212 48.3037C1.7197 47.0738 0 44.6141 0 41.6623C0 38.7106 1.7197 36.2509 4.42212 35.021L88.1973 0.584258C91.1454 -0.645625 94.3393 0.092275 96.3047 2.55204C98.2701 5.01181 98.5157 8.20953 97.0416 10.9153L78.3703 41.6623Z" transform="matrix(-0.849255 0.527982 0.527349 0.849648 297.156 488.994)" fill="#EB4141"/>
<path fill-rule="evenodd" clip-rule="evenodd" d="M78.3703 41.6623L97.0417 72.4094C98.7614 75.1152 98.5157 78.3128 96.3046 80.7726C94.3392 83.2324 91.1454 83.9703 88.1973 82.7404L4.42215 48.3037C1.71972 47.0738 7.49741e-06 44.6141 7.49741e-06 41.6623C7.49741e-06 38.7106 1.71972 36.2509 4.42215 35.021L88.1973 0.584258C91.1454 -0.645625 94.3392 0.092275 96.3046 2.55204C98.27 5.01181 98.5157 8.20953 97.0417 10.9153L78.3703 41.6623Z" transform="matrix(-0.849255 0.527982 0.527349 0.849648 806.875 173.071)" fill="#F1F5FF"/>
<path fill-rule="evenodd" clip-rule="evenodd" d="M10.3183 1.50132e-05H679.783C685.433 1.50132e-05 690.101 4.67356 690.101 10.331C690.101 15.9885 685.433 20.662 679.783 20.662H10.3183C4.66782 20.662 0 15.9885 0 10.331C0.245675 4.67356 4.91349 1.50132e-05 10.3183 1.50132e-05Z" transform="matrix(-0.849255 0.527982 0.527349 0.849648 750.782 243.868)" fill="#8C4833"/>
<path fill-rule="evenodd" clip-rule="evenodd" d="M10.3184 1.50132e-05H177.623C183.274 1.50132e-05 187.941 4.67356 187.941 10.331C187.941 15.9885 183.274 20.662 177.623 20.662H10.3184C4.66784 20.662 -1.49948e-05 15.9885 -1.49948e-05 10.331C-1.49948e-05 4.67356 4.66784 1.50132e-05 10.3184 1.50132e-05Z" transform="matrix(-0.849255 0.527982 0.527349 0.849648 771.053 231.3)" fill="#A6573F"/>
<path fill-rule="evenodd" clip-rule="evenodd" d="M7.37024 -1.50132e-05C11.301 -1.50132e-05 14.7405 3.19768 14.7405 7.37928V21.4C14.7405 25.3356 11.5467 28.7793 7.37024 28.7793C3.43944 28.7793 -1.49948e-05 25.5816 -1.49948e-05 21.4V7.37928C-1.49948e-05 3.44366 3.19376 -1.50132e-05 7.37024 -1.50132e-05Z" transform="matrix(-0.849255 0.527982 0.527349 0.849648 308.553 513.878)" fill="#B89F60"/>
<path fill-rule="evenodd" clip-rule="evenodd" d="M7.37027 -1.50132e-05C11.3011 -1.50132e-05 14.7405 3.19768 14.7405 7.37928V21.4C14.7405 25.3356 11.5467 28.7793 7.37027 28.7793C3.43947 28.7793 1.49948e-05 25.5816 1.49948e-05 21.4V7.37928C1.49948e-05 3.44366 3.43947 -1.50132e-05 7.37027 -1.50132e-05Z" transform="matrix(-0.849255 0.527982 0.527349 0.849648 324.827 503.76)" fill="#B89F60"/>
<path fill-rule="evenodd" clip-rule="evenodd" d="M85.1441 18.6956C51.7323 16.9737 22.0057 31.7323 8.00217 60.5116C-14.1086 106.017 11.1959 169.479 64.2618 202.194C102.587 225.808 144.843 227.284 173.833 209.081C205.034 202.932 230.092 177.105 236.971 139.224C247.044 84.1253 214.861 24.353 165.234 5.4128C135.262 -5.41017 106.027 0.493291 85.1441 18.6956Z" transform="matrix(-0.849255 0.527982 0.527349 0.849648 531.245 284.482)" fill="url(#paint0_radial)"/>
<path fill-rule="evenodd" clip-rule="evenodd" d="M101.671 24.2413C75.6291 2.1034 36.8125 -6.50577 14.7017 5.3011C-7.40901 17.108 -4.21526 44.6574 21.8263 66.7952C47.8679 88.9331 86.6845 97.5423 108.795 85.7354C130.906 73.9286 127.712 46.3792 101.671 24.2413Z" transform="matrix(-0.849255 0.527982 0.527349 0.849648 499.813 333.409)" fill="#EB4141"/>
<path fill-rule="evenodd" clip-rule="evenodd" d="M40.774 9.71311C30.21 0.857953 14.7325 -2.58574 5.88823 2.08782C-2.95607 6.76138 -1.72774 17.8303 8.83629 26.6855C19.4003 35.5406 34.8779 38.9843 43.7222 34.3108C52.5665 29.6372 51.3381 18.5683 40.774 9.71311Z" transform="matrix(-0.849255 0.527982 0.527349 0.849648 509.699 340.894)" fill="white"/>
<path fill-rule="evenodd" clip-rule="evenodd" d="M20.3466 4.81564C15.1874 0.388065 7.32582 -1.33377 2.90367 1.126C-1.51848 3.58576 -0.781443 8.99725 4.37773 13.4248C9.53691 17.8524 17.3985 19.5742 21.8207 17.1145C26.2428 14.6547 25.7515 9.24322 20.3466 4.81564Z" transform="matrix(-0.849255 0.527982 0.527349 0.849648 474.14 405.262)" fill="white"/>
<path fill-rule="evenodd" clip-rule="evenodd" d="M39.7125 -3.33074e-06C65.0187 -3.33074e-06 88.5797 20.5186 92.2884 46.0578C95.997 71.3787 78.5445 92.1156 53.0201 92.1156C27.7139 92.1156 4.15287 71.5969 0.444201 46.0578C-3.04631 20.5186 14.4063 -3.33074e-06 39.7125 -3.33074e-06Z" transform="translate(233.378 294.036)" fill="#F5B01B"/>
<path fill-rule="evenodd" clip-rule="evenodd" d="M39.7602 0C65.0664 0 88.6274 20.5186 92.336 46.0578C96.0447 71.3787 78.5921 92.1156 53.0678 92.1156C27.7615 92.1156 4.20054 71.5969 0.491871 46.0578C-3.2168 20.5186 14.4539 0 39.7602 0Z" transform="translate(238.784 287.269)" fill="#FFCB33"/>
<path fill-rule="evenodd" clip-rule="evenodd" d="M39.7602 0C46.9593 0 53.9404 1.74626 60.4851 4.58395C62.2303 9.1679 63.3211 13.7519 64.1937 18.5541C68.5569 48.2406 51.5406 73.3432 24.271 82.5111C11.836 74.2164 2.67344 60.6828 0.491871 45.8395C-3.2168 20.5186 14.4539 0 39.7602 0Z" transform="translate(238.784 287.269)" fill="#FFDA59"/>
<path fill-rule="evenodd" clip-rule="evenodd" d="M26.4892 0C43.5055 0 59.2128 13.7519 61.6125 30.5597C64.0123 47.5858 52.4499 61.1194 35.4337 61.1194C18.4174 61.1194 2.7101 47.3675 0.310373 30.5597C-2.08936 13.7519 9.69113 0 26.4892 0Z" transform="translate(254.237 302.549)" fill="#FFBE00"/>
<path fill-rule="evenodd" clip-rule="evenodd" d="M26.4938 0C36.7472 0 46.7824 5.2388 53.5453 13.097C47.2187 7.63992 39.1469 4.14739 30.6388 4.14739C13.6225 4.14739 2.06021 17.8992 4.45994 34.7071C5.33257 41.2556 8.38679 47.3675 12.5318 52.388C6.20522 46.9309 1.40575 39.0727 0.314964 30.5597C-2.08476 13.7519 9.47756 0 26.4938 0Z" transform="translate(254.232 302.549)" fill="#F5B01B"/>
<path fill-rule="evenodd" clip-rule="evenodd" d="M29.6225 25.9995C32.0223 42.3707 6.71604 39.533 4.09816 34.7308C-2.2284 22.0704 26.5683 31.6748 19.8055 24.2532C17.4057 21.6338 2.57105 28.4006 0.171322 12.4659C-2.22841 -3.90536 21.3326 -1.06767 23.9504 3.73456C30.277 15.9584 3.44368 7.22709 9.98839 13.9939C12.3881 16.8316 27.2228 9.84649 29.6225 25.9995Z" transform="translate(270.301 313.876)" fill="#FFDA59"/>
<path fill-rule="evenodd" clip-rule="evenodd" d="M35.6517 -6.66148e-06C18.6354 -6.66148e-06 2.92812 13.7519 0.310236 30.778C-2.08949 47.8041 9.69097 61.5559 26.7072 61.5559C43.7235 61.5559 59.4308 47.8041 62.0487 30.778C64.4484 13.7519 52.6679 -6.66148e-06 35.6517 -6.66148e-06Z" transform="translate(808.709 438.584)" fill="#F5B01B"/>
<path fill-rule="evenodd" clip-rule="evenodd" d="M35.6517 1.3323e-05C18.6354 1.3323e-05 2.92811 13.7518 0.310226 30.778C-2.0895 47.8041 9.69098 61.5559 26.7072 61.5559C43.7235 61.5559 59.4308 47.8041 62.0487 30.778C64.4484 13.9701 52.6679 1.3323e-05 35.6517 1.3323e-05Z" transform="translate(805 434)" fill="#FFCB33"/>
<path fill-rule="evenodd" clip-rule="evenodd" d="M16.7947 1.3323e-05C11.9952 1.3323e-05 7.19575 1.09142 2.83261 3.05597C1.74182 6.11194 0.869215 9.16791 0.432901 12.4422C-2.40314 32.306 8.94104 49.1138 27.2662 55.444C35.5562 49.7686 41.6646 40.819 43.1917 30.778C45.5914 13.9701 33.8109 1.3323e-05 16.7947 1.3323e-05Z" transform="translate(823.857 434)" fill="#FFDA59"/>
<path fill-rule="evenodd" clip-rule="evenodd" d="M23.8038 6.66148e-06C12.4596 6.66148e-06 1.98803 9.1679 0.242777 20.5186C-1.50248 31.8694 6.35118 41.0373 17.6953 41.0373C29.0395 41.0373 39.5111 31.8694 41.2563 20.5186C43.0016 9.38618 35.1479 6.66148e-06 23.8038 6.66148e-06Z" transform="translate(815.539 444.259)" fill="#FFBE00"/>
<path fill-rule="evenodd" clip-rule="evenodd" d="M18.107 6.66148e-06C11.126 6.66148e-06 4.58129 3.49254 -1.33153e-05 8.73134C4.14497 5.02052 9.5989 2.8377 15.271 2.8377C26.6152 2.8377 34.4688 12.0056 32.7236 23.3563C32.0691 27.722 30.1057 31.8694 27.2696 35.1436C31.6328 31.4328 34.687 26.194 35.5596 20.5186C37.3049 9.1679 29.4512 6.66148e-06 18.107 6.66148e-06Z" transform="translate(821.236 444.259)" fill="#F5B01B"/>
<path fill-rule="evenodd" clip-rule="evenodd" d="M17.042 23.1947C11.3699 32.7992 -0.628751 20.7936 0.0257206 17.0828C1.98913 7.9149 13.1151 24.941 12.4607 18.1742C12.2425 15.7731 1.77097 13.1537 7.00674 3.76754C12.4607 -5.83693 23.8049 5.5138 23.1504 9.22462C21.4051 18.1742 10.9336 2.45784 11.3699 8.78806C12.0244 10.9709 22.4959 13.8086 17.042 23.1947Z" transform="translate(824.046 451.406)" fill="#FFDA59"/>
<path fill-rule="evenodd" clip-rule="evenodd" d="M1.33153e-05 26.194L57.8116 6.66148e-06L37.9593 29.6865L96.6436 24.0112L19.1978 44.9664L30.542 20.3004L1.33153e-05 26.194Z" transform="translate(643 447)" fill="#242F49"/>
<path fill-rule="evenodd" clip-rule="evenodd" d="M119.861 10.7052C148.493 30.9012 149.706 72.9965 122.773 104.629C95.8402 136.261 50.7096 145.264 22.321 125.068C-6.31022 104.872 -7.52336 62.7768 19.4094 31.1445C46.3422 -0.244482 91.2301 -9.49085 119.861 10.7052Z" transform="translate(446.818 15.1663)" fill="#F5B01B"/>
<path fill-rule="evenodd" clip-rule="evenodd" d="M119.861 10.7052C148.493 30.9012 149.706 72.9965 122.773 104.629C95.8402 136.261 50.7096 145.264 22.3211 125.068C-6.31017 104.872 -7.52339 62.7768 19.4094 31.1445C46.3421 -0.24448 91.4727 -9.49085 119.861 10.7052Z" transform="translate(439.053 3)" fill="#FFCB33"/>
<path fill-rule="evenodd" clip-rule="evenodd" d="M119.914 10.6939C127.921 16.5337 133.987 24.0768 137.627 32.5932C133.987 39.163 129.62 45.2461 124.524 51.3293C92.9816 88.0714 43.2409 103.158 1.02202 91.7213C-2.61754 72.4986 3.44841 50.1126 19.4625 31.3766C46.3952 -0.255709 91.5258 -9.50207 119.914 10.6939Z" transform="translate(439 3.01123)" fill="#FFDA59"/>
<path fill-rule="evenodd" clip-rule="evenodd" d="M79.8493 7.10088C98.775 20.7271 99.7456 48.7095 81.7904 69.6355C63.8352 90.8048 33.7481 96.8879 14.8224 83.2617C-4.10331 69.6355 -5.07383 41.6531 12.8813 20.7271C30.8365 -0.198883 60.9236 -6.28201 79.8493 7.10088Z" transform="translate(462.809 25.5837)" fill="#FFBE00"/>
<path fill-rule="evenodd" clip-rule="evenodd" d="M79.8642 7.26907C91.5108 15.5421 96.3635 29.1684 94.1798 43.5246C93.6945 32.3316 88.8417 22.1119 79.3789 15.2988C60.4532 1.67259 30.3661 7.99905 12.4109 28.925C5.37444 37.1981 1.24958 46.2011 0.0363964 55.2042C-0.448879 43.7679 3.91864 31.3583 12.8962 20.8953C30.8514 -0.274018 60.9385 -6.35715 79.8642 7.26907Z" transform="translate(462.794 25.4155)" fill="#F5B01B"/>
<path fill-rule="evenodd" clip-rule="evenodd" d="M39.3777 46.7803C21.9078 67.2196 -3.08389 43.8604 0.31303 36.3173C9.04798 17.0946 29.4295 50.9168 30.6427 37.0473C31.128 32.1808 6.13631 28.0442 23.1209 8.33488C40.3482 -11.8611 63.6414 10.0382 60.4871 17.5812C52.7227 36.3173 33.3117 4.92832 31.8559 18.0679C31.3706 22.6911 56.6049 26.8276 39.3777 46.7803Z" transform="translate(479.016 43.329)" fill="#FFDA59"/>
<path fill-rule="evenodd" clip-rule="evenodd" d="M2.72936 5.16079C3.95774 0.979191 8.6256 -0.988625 13.0477 0.487234C17.4699 1.96309 20.1723 6.63664 18.9439 10.5723C18.9439 10.5723 9.11692 42.3033 30.982 63.2113C34.4214 66.409 34.6672 71.5745 31.4734 74.5262C28.2796 77.4779 23.1205 77.2319 19.681 74.0342C-10.0457 45.9929 2.72936 5.40677 2.72936 5.16079Z" transform="matrix(-0.849255 0.527982 0.527349 0.849648 452.92 274.967)" fill="#823F2B"/>
<path fill-rule="evenodd" clip-rule="evenodd" d="M86.7378 43.0299C86.7378 43.0299 81.4914 15.0107 54.0166 4.28658C54.0845 8.58889 51.9645 13.0929 48.209 15.4277C42.993 18.6705 36.3047 16.7462 33.6878 11.1322C32.0296 7.52891 32.2211 3.64459 33.7659 0.0773869C24.2357 -0.369686 13.0082 1.10732 0.00451566 4.84716C-0.412766 5.10659 28.087 78.0449 86.7378 43.0299Z" transform="translate(382.211 303.935)" fill="#009E3F"/>
<path fill-rule="evenodd" clip-rule="evenodd" d="M46.0161 1.68949C61.2623 5.46001 73.8333 14.8332 73.9301 22.3146C74.0269 29.796 60.9842 32.8347 45.7381 29.0642C30.4919 25.2936 17.9209 15.9204 17.8241 8.43905C17.7273 0.957658 30.1601 -2.23185 46.0161 1.68949Z" transform="translate(382.211 303.935)" fill="#009E3F"/>
<path fill-rule="evenodd" clip-rule="evenodd" d="M42.7475 3.75331e-06C42.7475 3.75331e-06 55.5226 68.1355 2.99896e-05 77.2367C23.3392 50.4252 42.7475 3.75331e-06 42.7475 3.75331e-06Z" transform="matrix(-0.849255 0.527982 0.527349 0.849648 418.102 286.471)" fill="#018A38"/>
<path fill-rule="evenodd" clip-rule="evenodd" d="M6.40186 3.75331e-06C10.3327 3.75331e-06 13.7721 3.1977 14.2635 7.13333C14.7548 11.069 11.8067 14.2666 7.87593 14.2666C3.94513 14.2666 0.505682 11.069 0.0143315 7.13333C-0.231344 3.1977 2.71674 3.75331e-06 6.40186 3.75331e-06Z" transform="matrix(-0.849255 0.527982 0.527349 0.849648 672.159 178)" fill="#DB3939"/>
<path fill-rule="evenodd" clip-rule="evenodd" d="M10.1493 -1.50132e-05C16.2912 -1.50132e-05 21.9418 5.16551 22.6788 11.3149C23.4158 17.4643 18.748 22.6299 12.6061 22.6299C6.46421 22.6299 0.813705 17.4643 0.0766798 11.3149C-0.660345 5.16551 4.00746 -1.50132e-05 10.1493 -1.50132e-05Z" transform="matrix(-0.849255 0.527982 0.527349 0.849648 786.325 272)" fill="#DB3939"/>
<path fill-rule="evenodd" clip-rule="evenodd" d="M7.62919 0C12.297 0 16.4735 3.68965 16.9648 8.36321C17.4562 13.0368 14.0167 16.7264 9.34888 16.7264C4.68105 16.7264 0.504602 13.0368 0.0132521 8.36321C-0.232423 3.68965 2.96137 0 7.62919 0Z" transform="matrix(-0.849255 0.527982 0.527349 0.849648 414.796 268.541)" fill="#EB4141"/>
<path fill-rule="evenodd" clip-rule="evenodd" d="M34.1488 25.1615C34.1488 25.1615 12.0381 31.8028 1.49948e-05 0.0718562C1.49948e-05 0.0718562 30.9551 -2.63389 34.1488 25.1615Z" transform="matrix(-0.962221 0.272269 0.271552 0.962424 576.859 195)" fill="#018A38"/>
<g filter="url(#filter0_f)">
<path opacity="0.3" fill-rule="evenodd" clip-rule="evenodd" d="M5.17779 -7.50661e-06C8.37157 -7.50661e-06 11.074 2.45977 11.3197 5.65746C11.5653 8.85516 9.35425 11.3149 6.16048 11.3149C2.9667 11.3149 0.264274 8.85516 0.0185992 5.65746C-0.227076 2.45977 1.98401 -7.50661e-06 5.17779 -7.50661e-06Z" transform="matrix(-0.849255 0.527982 0.527349 0.849648 774.798 314.671)" fill="#DB3939"/>
<path opacity="0.3" fill-rule="evenodd" clip-rule="evenodd" d="M8.68754 0C14.0924 0 18.7602 4.42758 19.4973 9.59309C19.9886 15.0046 16.0578 19.1862 10.8986 19.1862C5.49378 19.1862 0.825936 14.7586 0.0889106 9.59309C-0.648115 4.42758 3.28269 0 8.68754 0Z" transform="matrix(-0.849255 0.527982 0.527349 0.849648 492.594 204)" fill="#018A38"/>
<path opacity="0.3" fill-rule="evenodd" clip-rule="evenodd" d="M5.91172 -3.75331e-06C9.59685 -3.75331e-06 12.7906 2.95173 13.282 6.64138C13.7733 10.331 11.0709 13.2827 7.38579 13.2827C3.70066 13.2827 0.506884 10.331 0.0155335 6.64138C-0.230142 2.95173 2.47227 -3.75331e-06 5.91172 -3.75331e-06Z" transform="matrix(-0.849255 0.527982 0.527349 0.849648 335.329 404)" fill="#EB4141"/>
</g>
<path fill-rule="evenodd" clip-rule="evenodd" d="M3.84047 0.170441C6.78857 -0.567488 9.98235 1.15434 11.2107 4.10606C12.1934 7.05778 10.7194 10.0095 7.77129 10.7474C4.82319 11.4854 1.62941 9.76352 0.401036 6.8118C-0.827339 3.86008 0.892371 0.908371 3.84047 0.170441Z" transform="matrix(-0.849255 0.527982 0.527349 0.849648 448.995 278.649)" fill="#994F38"/>
<path fill-rule="evenodd" clip-rule="evenodd" d="M76.7884 0C76.7884 6.76758 74.1147 12.8906 69.7299 17.2949C65.345 21.6992 59.249 24.3848 52.6182 24.3848H49.7307C45.3458 24.3848 41.7096 28.0371 41.7096 32.4414V74.4433C41.7096 78.8476 45.3458 82.5 49.7307 82.5H41.7096H34.9719H26.9508C31.3357 82.5 34.9719 78.8476 34.9719 74.4433V32.4414C34.9719 28.0371 31.3357 24.3848 26.9508 24.3848H24.2771C17.6464 24.3848 11.5503 21.6992 7.16549 17.2949C2.78064 12.8906 3.26378e-06 6.76758 3.26378e-06 0.107428V0H3.52927V0.107428C3.52927 5.80079 5.88212 10.957 9.62529 14.7168C13.3685 18.4766 18.5019 20.8398 24.1702 20.8398H29.3037C27.6994 19.873 26.2022 18.6914 24.8119 17.2949C20.427 12.8906 17.6464 6.76758 17.6464 0.107428V0H21.1756V0.107428C21.1756 5.80079 23.5285 10.957 27.2717 14.7168C30.1592 17.6172 34.0093 19.7656 38.2873 20.5176C42.5652 19.7656 46.3083 17.7246 49.3029 14.7168C53.046 10.957 55.3989 5.80079 55.3989 0.107428V0H58.9282V0.107428C58.9282 6.76758 56.2545 12.8906 51.8696 17.2949C50.4793 18.6914 48.982 19.873 47.3778 20.8398H52.5113C58.1795 20.8398 63.313 18.4766 67.0562 14.7168C70.7993 10.957 73.1522 5.80079 73.1522 0.107428V0H76.7884ZM41.8165 24.3848H41.7096H41.8165Z" transform="translate(703.849 732.5)" fill="#8C4833"/>
<path fill-rule="evenodd" clip-rule="evenodd" d="M30.2662 6.55651e-06C41.4957 6.55651e-06 47.5917 8.27147 44.918 19.0137H0C6.30991 8.16405 19.0367 6.55651e-06 30.2662 6.55651e-06Z" transform="translate(680 720.254)" fill="#007E32"/>
<path fill-rule="evenodd" clip-rule="evenodd" d="M54.5433 -6.55651e-06C74.8633 -6.55651e-06 85.6651 14.8242 81.0663 34.2676H3.26378e-06C11.3365 14.8242 34.2232 -6.55651e-06 54.5433 -6.55651e-06Z" transform="translate(706.523 705)" fill="#018A38"/>
<path fill-rule="evenodd" clip-rule="evenodd" d="M29.8384 -1.3113e-05C40.961 -1.3113e-05 46.95 8.16405 44.3833 18.7988H-3.26378e-06C6.20296 8.16405 18.7158 -1.3113e-05 29.8384 -1.3113e-05Z" transform="translate(757.751 720.469)" fill="#009E3F"/>
<path fill-rule="evenodd" clip-rule="evenodd" d="M18.0741 1.3113e-05C24.8118 1.3113e-05 28.3411 4.94139 26.8439 11.3867H3.26378e-06C3.74317 4.94139 11.3364 1.3113e-05 18.0741 1.3113e-05Z" transform="translate(706.523 727.881)" fill="#009E3F"/>
<path fill-rule="evenodd" clip-rule="evenodd" d="M12.8337 1.3113e-05C17.6464 1.3113e-05 20.2131 3.54493 19.1436 8.05665H3.26378e-06C2.56675 3.54493 8.02108 1.3113e-05 12.8337 1.3113e-05Z" transform="translate(792.616 731.104)" fill="#009E3F"/>
<path fill-rule="evenodd" clip-rule="evenodd" d="M20.6409 -1.3113e-05C28.3411 -1.3113e-05 32.4051 5.58592 30.587 12.8906H0C4.38485 5.58592 13.0476 -1.3113e-05 20.6409 -1.3113e-05Z" transform="translate(740.96 726.377)" fill="#009E3F"/>
<path fill-rule="evenodd" clip-rule="evenodd" d="M61.6634 0C61.6634 5.41406 59.5164 10.3125 55.9952 13.8359C52.474 17.3594 47.5787 19.5078 42.254 19.5078H39.9352C36.4141 19.5078 33.4941 22.4297 33.4941 25.9531V59.5547C33.4941 63.0781 36.4141 66 39.9352 66H33.4941H28.0835H21.6423C25.1635 66 28.0835 63.0781 28.0835 59.5547V25.9531C28.0835 22.4297 25.1635 19.5078 21.6423 19.5078H19.4953C14.1706 19.5078 9.27528 17.3594 5.75411 13.8359C2.23294 10.3125 2.62092e-06 5.41407 2.62092e-06 0.0859427V0H2.83411V0.0859427C2.83411 4.64063 4.72352 8.76563 7.7294 11.7734C10.7353 14.7813 14.8576 16.6719 19.4094 16.6719H23.5317C22.2435 15.8984 21.0411 14.9531 19.9247 13.8359C16.4035 10.3125 14.1706 5.41407 14.1706 0.0859427V0H17.0047V0.0859427C17.0047 4.64063 18.8941 8.76563 21.9 11.7734C24.2188 14.0938 27.3105 15.8125 30.7458 16.4141C34.1811 15.8125 37.187 14.1797 39.5917 11.7734C42.5976 8.76563 44.487 4.64063 44.487 0.0859427V0H47.3211V0.0859427C47.3211 5.41407 45.174 10.3125 41.6529 13.8359C40.5364 14.9531 39.334 15.8984 38.0458 16.6719H42.1682C46.7199 16.6719 50.8423 14.7813 53.8481 11.7734C56.854 8.76563 58.7434 4.64063 58.7434 0.0859427V0H61.6634ZM33.5799 19.5078H33.4941H33.5799Z" transform="translate(296.848 734) scale(-1 1)" fill="#8C4833"/>
<path fill-rule="evenodd" clip-rule="evenodd" d="M24.3047 5.24521e-06C33.3223 5.24521e-06 38.2176 6.61717 36.0705 15.2109H0C5.06705 6.53124 15.287 5.24521e-06 24.3047 5.24521e-06Z" transform="translate(316 724.203) scale(-1 1)" fill="#007E32"/>
<path fill-rule="evenodd" clip-rule="evenodd" d="M43.7999 -5.24521e-06C60.1175 -5.24521e-06 68.7916 11.8594 65.0987 27.414H2.62092e-06C9.10352 11.8594 27.4823 -5.24521e-06 43.7999 -5.24521e-06Z" transform="translate(294.701 712) scale(-1 1)" fill="#018A38"/>
<path fill-rule="evenodd" clip-rule="evenodd" d="M23.9611 -1.04904e-05C32.8929 -1.04904e-05 37.7023 6.53124 35.6411 15.039H-2.62092e-06C4.98117 6.53124 15.0294 -1.04904e-05 23.9611 -1.04904e-05Z" transform="translate(253.564 724.375) scale(-1 1)" fill="#009E3F"/>
<path fill-rule="evenodd" clip-rule="evenodd" d="M14.5141 1.04904e-05C19.9247 1.04904e-05 22.7588 3.95311 21.5564 9.10936H2.62092e-06C3.00588 3.95311 9.10351 1.04904e-05 14.5141 1.04904e-05Z" transform="translate(294.701 730.305) scale(-1 1)" fill="#009E3F"/>
<path fill-rule="evenodd" clip-rule="evenodd" d="M10.3059 1.04904e-05C14.1706 1.04904e-05 16.2317 2.83595 15.3729 6.44532H2.62092e-06C2.06118 2.83595 6.44117 1.04904e-05 10.3059 1.04904e-05Z" transform="translate(225.566 732.883) scale(-1 1)" fill="#009E3F"/>
<path fill-rule="evenodd" clip-rule="evenodd" d="M16.5753 -1.04904e-05C22.7588 -1.04904e-05 26.0223 4.46874 24.5623 10.3125H0C3.52117 4.46874 10.4776 -1.04904e-05 16.5753 -1.04904e-05Z" transform="translate(267.047 729.102) scale(-1 1)" fill="#009E3F"/>
<path fill-rule="evenodd" clip-rule="evenodd" d="M153.763 2.04936e-05V0.167863C153.763 13.5985 148.217 25.6861 139.479 34.4161C130.74 43.146 118.473 48.6861 105.197 48.6861H99.4837C90.7453 48.6861 83.5193 55.9051 83.5193 64.635V106.606C83.5193 115.336 90.7453 122.555 99.4837 122.555H83.5193H69.9075H53.943C62.6815 122.555 69.9075 115.336 69.9075 106.606V64.635C69.9075 55.9051 62.6815 48.6861 53.943 48.6861H48.5656C35.2898 48.6861 23.0224 43.146 14.284 34.4161C5.54557 25.6861 2.05135e-05 13.4306 2.05135e-05 0.167863V2.04936e-05H7.22602V0.167863C7.22602 11.5839 11.9313 21.8248 19.3254 29.3796C26.8875 36.9343 37.1384 41.4671 48.5656 41.4671H58.8164C55.6235 39.4525 52.5986 37.1022 49.7418 34.4161C41.0034 25.6861 35.4579 13.4306 35.4579 0.167863V2.04936e-05H42.6839V0.167863C42.6839 11.5839 47.3892 21.8248 54.7833 29.3796C60.6649 35.2555 68.3951 39.4526 76.7974 40.9635C85.3678 39.4526 92.9299 35.2555 98.8115 29.3796C106.374 21.8248 110.911 11.5839 110.911 0.167863V2.04936e-05H118.137V0.167863C118.137 13.5985 112.591 25.6861 103.853 34.4161C101.164 37.1022 98.1394 39.4525 94.7784 41.4671H105.029C116.456 41.4671 126.707 36.7664 134.269 29.3796C141.832 21.8248 146.369 11.5839 146.369 0.167863V2.04936e-05H153.763ZM83.6873 48.6861H83.5193H83.6873Z" transform="translate(819.229 674.445)" fill="#8C4833"/>
<path fill-rule="evenodd" clip-rule="evenodd" d="M35.794 -2.04936e-05C49.2377 -2.04936e-05 56.2957 9.73725 53.2708 22.4964H2.05135e-05C7.22604 9.73725 22.3502 -2.04936e-05 35.794 -2.04936e-05Z" transform="translate(815.028 646.912)" fill="#007E32"/>
<path fill-rule="evenodd" clip-rule="evenodd" d="M50.7502 -2.04936e-05C69.5714 -2.04936e-05 79.6542 13.5986 75.285 31.7299H0C10.587 13.5986 31.7609 -2.04936e-05 50.7502 -2.04936e-05Z" transform="translate(771 657.825)" fill="#018A38"/>
<path fill-rule="evenodd" clip-rule="evenodd" d="M85.3678 -2.04936e-05C117.129 -2.04936e-05 134.101 23 126.875 53.3869H2.05135e-05C17.6449 23.1679 53.6069 -2.04936e-05 85.3678 -2.04936e-05Z" transform="translate(824.271 636)" fill="#018A38"/>
<path fill-rule="evenodd" clip-rule="evenodd" d="M59.9927 -2.04936e-05C82.343 -2.04936e-05 94.2743 16.2847 89.0649 37.438H-1.02568e-05C12.2674 16.2847 37.4745 -2.04936e-05 59.9927 -2.04936e-05Z" transform="translate(927.115 651.949)" fill="#009E3F"/>
<path fill-rule="evenodd" clip-rule="evenodd" d="M36.2981 1.02468e-05C49.7419 1.02468e-05 56.9679 9.73724 53.9431 22.6642H0C7.56211 9.90512 22.8544 1.02468e-05 36.2981 1.02468e-05Z" transform="translate(852.503 666.723)" fill="#009E3F"/>
<path fill-rule="evenodd" clip-rule="evenodd" d="M25.8792 0C35.4579 0 40.6673 7.0511 38.4827 16.1168H0C5.20945 7.0511 16.1325 0 25.8792 0Z" transform="translate(797.047 673.27)" fill="#009E3F"/>
<path fill-rule="evenodd" clip-rule="evenodd" d="M25.8793 0C35.4579 0 40.6674 7.0511 38.4828 16.1168H0C5.20945 7.0511 16.1325 0 25.8793 0Z" transform="translate(997.023 673.27)" fill="#018A38"/>
<path fill-rule="evenodd" clip-rule="evenodd" d="M41.1715 -2.04936e-05C56.6318 -2.04936e-05 64.698 11.0803 61.169 25.854H0C8.40234 11.0803 25.8792 -2.04936e-05 41.1715 -2.04936e-05Z" transform="translate(893.674 663.701)" fill="#009E3F"/>
<path fill-rule="evenodd" clip-rule="evenodd" d="M43.02 1.02468e-05C58.9844 1.02468e-05 67.5548 11.5839 63.8578 26.8613H-2.05135e-05C8.90646 11.7518 27.0555 1.02468e-05 43.02 1.02468e-05Z" transform="translate(944.592 662.526)" fill="#018A38"/>
<path fill-rule="evenodd" clip-rule="evenodd" d="M28.568 0C39.1549 0 44.8685 7.72264 42.3478 17.7956H2.05135e-05C5.88166 7.72264 17.981 0 28.568 0Z" transform="translate(918.377 671.591)" fill="#018A38"/>
<defs>
<filter id="filter0_f" x="322.881" y="203.193" width="459.568" height="220.956" filterUnits="userSpaceOnUse" color-interpolation-filters="sRGB">
<feFlood flood-opacity="0" result="BackgroundImageFix"/>
<feBlend mode="normal" in="SourceGraphic" in2="BackgroundImageFix" result="shape"/>
<feGaussianBlur stdDeviation="2" result="effect1_foregroundBlur"/>
</filter>
<radialGradient id="paint0_radial" cx="0.5" cy="0.5" r="0.5" gradientUnits="userSpaceOnUse" gradientTransform="translate(238.817) scale(238.817 221.476) rotate(90)">
<stop stop-color="#DB3939"/>
<stop offset="1" stop-color="#DB3939"/>
</radialGradient>
</defs>
</svg>
