<svg width="30" height="24" viewBox="0 0 30 24" fill="none" xmlns="http://www.w3.org/2000/svg">
<path d="M0 12C0 11.625 0.140625 11.25 0.421875 10.9688C0.703125 10.6875 1.07812 10.5 1.5 10.5H3V19.5H1.5C1.07812 19.5 0.703125 19.3594 0.421875 19.0781C0.140625 18.7969 0 18.4219 0 18V12ZM21.75 4.5C22.7812 4.5 23.625 4.875 24.375 5.625C25.125 6.375 25.5 7.21875 25.5 8.25V21C25.5 21.8438 25.1719 22.5469 24.6094 23.1094C24 23.7188 23.2969 24 22.5 24H7.5C6.65625 24 5.95312 23.7188 5.39062 23.1094C4.78125 22.5469 4.5 21.8438 4.5 21V8.25C4.5 7.21875 4.82812 6.375 5.57812 5.625C6.32812 4.875 7.21875 4.5 8.25 4.5H13.5V1.5C13.5 1.125 13.6406 0.75 13.9219 0.46875C14.2031 0.1875 14.5781 0 15 0C15.375 0 15.75 0.1875 16.0312 0.46875C16.3125 0.75 16.5 1.125 16.5 1.5V4.5H21.75ZM12 19.5V18H9V19.5H12ZM10.5 13.875C11.0156 13.875 11.4375 13.7344 11.8125 13.3594C12.1875 12.9844 12.375 12.5625 12.375 12C12.375 11.4844 12.1875 11.0625 11.8125 10.6875C11.4375 10.3125 11.0156 10.125 10.5 10.125C9.9375 10.125 9.51562 10.3125 9.14062 10.6875C8.76562 11.0625 8.625 11.4844 8.625 12C8.625 12.5625 8.76562 12.9844 9.14062 13.3594C9.51562 13.7344 9.9375 13.875 10.5 13.875ZM16.5 19.5V18H13.5V19.5H16.5ZM21 19.5V18H18V19.5H21ZM19.5 13.875C20.0156 13.875 20.4375 13.7344 20.8125 13.3594C21.1875 12.9844 21.375 12.5625 21.375 12C21.375 11.4844 21.1875 11.0625 20.8125 10.6875C20.4375 10.3125 20.0156 10.125 19.5 10.125C18.9375 10.125 18.5156 10.3125 18.1406 10.6875C17.7656 11.0625 17.625 11.4844 17.625 12C17.625 12.5625 17.7656 12.9844 18.1406 13.3594C18.5156 13.7344 18.9375 13.875 19.5 13.875ZM28.5 10.5C28.875 10.5 29.25 10.6875 29.5312 10.9688C29.8125 11.25 30 11.625 30 12V18C30 18.4219 29.8125 18.7969 29.5312 19.0781C29.25 19.3594 28.875 19.5 28.5 19.5H27V10.5H28.5Z" fill="#999AB0"/>
</svg>
