<svg width="32" height="40" viewBox="0 0 32 40" fill="none" xmlns="http://www.w3.org/2000/svg">
<path d="M29.8695 13.3332H21.2405V26C21.2405 26.8 20.7095 27.6 19.913 27.8666C19.1165 28.1333 18.1872 27.8666 17.6562 27.3333L15.0011 24.2666C14.7356 23.9999 14.2046 23.9999 13.9391 24.2666L11.284 27.3333C10.753 28 9.82374 28.1333 9.02722 27.8666C8.2307 27.6 7.69969 26.8 7.69969 26V13.3332H4.64636C2.65507 13.3332 1.06203 12.5332 0 11.1999V35.3333C0 38 1.9913 40 4.64636 40H29.8695C30.2677 40 30.5332 39.7333 30.5332 39.3333V13.1999C30.2677 13.3332 30.135 13.3332 29.8695 13.3332Z" transform="translate(0.588257)" fill="#5940FF"/>
<path d="M9.95649 6.66669C9.55823 6.66669 9.29273 6.93336 9.29273 7.33336V26.0001C9.29273 26.2668 9.42548 26.5334 9.69099 26.6668C9.95649 26.8001 10.222 26.6668 10.4875 26.5334L14.6029 21.7334L18.7182 26.5334C18.851 26.6668 18.9837 26.8001 19.2492 26.8001C19.382 26.8001 19.382 26.8001 19.5147 26.8001C19.7802 26.6668 19.913 26.4001 19.913 26.1334V7.46669C19.913 6.93336 19.6475 6.66669 19.2492 6.66669H9.95649Z" transform="translate(0.588257)" fill="#5940FF"/>
<path d="M4.64636 12H7.30143C7.69969 12 7.9652 11.7334 7.9652 11.3334V7.33336C7.9652 7.06669 7.9652 6.93336 8.09795 6.66669H4.64636C4.2481 6.66669 3.9826 6.40002 3.9826 6.00002C3.9826 5.60002 4.2481 5.33335 4.64636 5.33335H28.9402C29.073 3.60001 29.4712 2.00001 30.4005 1.2C30.5332 1.06667 30.666 0.666669 30.5332 0.533335C30.4005 0.133334 30.135 0 29.8695 0H4.77912C1.9913 0 0 2.00001 0 4.66668V7.33336C0 10 1.9913 12 4.64636 12Z" transform="translate(0.588257)" fill="#5940FF"/>
<path d="M21.9043 12.0002H29.8695C30.135 12.0002 30.4005 11.8668 30.5333 11.6002C30.666 11.3335 30.5333 11.0668 30.4005 10.9335C29.604 10.1335 29.073 8.40016 28.9402 6.80015H21.1078C21.2405 7.06682 21.2405 7.20015 21.2405 7.46682V11.4668C21.2405 11.7335 21.506 12.0002 21.9043 12.0002Z" transform="translate(0.588257)" fill="#5940FF"/>
</svg>
