<svg width="205" height="35" viewBox="0 0 205 35" fill="none" xmlns="http://www.w3.org/2000/svg">
<path d="M2.782 13V9.542H5.148C6.825 9.542 7.839 8.424 7.839 6.734C7.839 5.057 6.825 3.926 5.148 3.926H1.066V13H2.782ZM2.782 5.421H4.992C5.655 5.421 6.058 5.772 6.058 6.435V7.033C6.058 7.696 5.655 8.06 4.992 8.06H2.782V5.421ZM10.7894 13.156C11.8034 13.156 12.5444 12.701 12.7654 11.83H12.8434C12.9474 12.532 13.3894 13 14.1044 13H15.0274V11.674H14.3514V8.476C14.3514 6.929 13.3764 6.058 11.5434 6.058C10.1784 6.058 9.38539 6.578 8.89139 7.358L9.87939 8.242C10.2044 7.774 10.6464 7.384 11.4264 7.384C12.3104 7.384 12.6874 7.826 12.6874 8.58V9.074H11.5304C9.68439 9.074 8.63139 9.763 8.63139 11.154C8.63139 12.363 9.41139 13.156 10.7894 13.156ZM11.3484 11.947C10.6984 11.947 10.3214 11.674 10.3214 11.128V10.907C10.3214 10.374 10.7504 10.075 11.6214 10.075H12.6874V10.972C12.6874 11.609 12.0894 11.947 11.3484 11.947ZM18.6101 13.156C20.4691 13.156 21.6001 12.337 21.6001 10.998C21.6001 10.14 21.0151 9.568 20.0401 9.464V9.399C20.9891 9.256 21.4441 8.762 21.4441 7.904C21.4441 6.812 20.5341 6.058 18.6881 6.058C17.3751 6.058 16.4781 6.539 15.8671 7.358L16.8811 8.255C17.2191 7.722 17.8171 7.397 18.5711 7.397C19.3771 7.397 19.7411 7.683 19.7411 8.125V8.255C19.7411 8.723 19.4161 8.957 18.8181 8.957H17.4921V10.114H18.9741C19.5721 10.114 19.9101 10.348 19.9101 10.829V10.972C19.9101 11.492 19.4811 11.817 18.6231 11.817C17.8431 11.817 17.2061 11.492 16.7641 10.907L15.7241 11.895C16.4131 12.701 17.2581 13.156 18.6101 13.156ZM23.1661 15.6H24.8301V11.869H24.8821C25.1421 12.636 25.8571 13.156 26.7541 13.156C28.4701 13.156 29.4191 11.869 29.4191 9.594C29.4191 7.332 28.4701 6.058 26.7541 6.058C25.8571 6.058 25.1291 6.552 24.8821 7.332H24.8301V6.214H23.1661V15.6ZM26.2211 11.778C25.4281 11.778 24.8301 11.375 24.8301 10.673V8.515C24.8301 7.852 25.4281 7.423 26.2211 7.423C27.0791 7.423 27.6771 8.06 27.6771 9.022V10.192C27.6771 11.154 27.0791 11.778 26.2211 11.778ZM32.638 13.156C33.652 13.156 34.393 12.701 34.614 11.83H34.692C34.796 12.532 35.238 13 35.953 13H36.876V11.674H36.2V8.476C36.2 6.929 35.225 6.058 33.392 6.058C32.027 6.058 31.234 6.578 30.74 7.358L31.728 8.242C32.053 7.774 32.495 7.384 33.275 7.384C34.159 7.384 34.536 7.826 34.536 8.58V9.074H33.379C31.533 9.074 30.48 9.763 30.48 11.154C30.48 12.363 31.26 13.156 32.638 13.156ZM33.197 11.947C32.547 11.947 32.17 11.674 32.17 11.128V10.907C32.17 10.374 32.599 10.075 33.47 10.075H34.536V10.972C34.536 11.609 33.938 11.947 33.197 11.947ZM40.953 13.156C42.903 13.156 44.099 11.778 44.099 9.633C44.099 7.566 42.968 6.344 41.46 6.344C40.472 6.344 39.926 6.799 39.601 7.696H39.549C39.64 5.772 40.043 5.187 41.395 5.057L43.618 4.849V3.237L41.434 3.445C38.899 3.692 37.807 5.265 37.807 8.84C37.807 11.869 38.99 13.156 40.953 13.156ZM40.979 11.817C40.095 11.817 39.549 11.258 39.549 10.218V9.139C39.549 8.242 40.043 7.696 40.94 7.696C41.824 7.696 42.37 8.255 42.37 9.282V10.257C42.37 11.258 41.824 11.817 40.979 11.817ZM48.2643 13.156C50.2143 13.156 51.4233 11.778 51.4233 9.594C51.4233 7.423 50.2143 6.058 48.2643 6.058C46.3273 6.058 45.1183 7.423 45.1183 9.594C45.1183 11.778 46.3273 13.156 48.2643 13.156ZM48.2643 11.817C47.4063 11.817 46.8603 11.258 46.8603 10.231V8.97C46.8603 7.956 47.4063 7.397 48.2643 7.397C49.1353 7.397 49.6813 7.956 49.6813 8.97V10.231C49.6813 11.258 49.1353 11.817 48.2643 11.817ZM54.1747 13H55.8387V7.54H57.9057V6.214H52.1077V7.54H54.1747V13ZM60.7201 13.156C61.7341 13.156 62.4751 12.701 62.6961 11.83H62.7741C62.8781 12.532 63.3201 13 64.0351 13H64.9581V11.674H64.2821V8.476C64.2821 6.929 63.3071 6.058 61.4741 6.058C60.1091 6.058 59.3161 6.578 58.8221 7.358L59.8101 8.242C60.1351 7.774 60.5771 7.384 61.3571 7.384C62.2411 7.384 62.6181 7.826 62.6181 8.58V9.074H61.4611C59.6151 9.074 58.5621 9.763 58.5621 11.154C58.5621 12.363 59.3421 13.156 60.7201 13.156ZM61.2791 11.947C60.6291 11.947 60.2521 11.674 60.2521 11.128V10.907C60.2521 10.374 60.6811 10.075 61.5521 10.075H62.6181V10.972C62.6181 11.609 62.0201 11.947 61.2791 11.947ZM66.3048 13H67.9688V10.205H70.5818V13H72.2458V6.214H70.5818V8.879H67.9688V6.214H66.3048V13ZM76.8669 13.156C78.8169 13.156 80.0259 11.778 80.0259 9.594C80.0259 7.423 78.8169 6.058 76.8669 6.058C74.9299 6.058 73.7209 7.423 73.7209 9.594C73.7209 11.778 74.9299 13.156 76.8669 13.156ZM76.8669 11.817C76.0089 11.817 75.4629 11.258 75.4629 10.231V8.97C75.4629 7.956 76.0089 7.397 76.8669 7.397C77.7379 7.397 78.2839 7.956 78.2839 8.97V10.231C78.2839 11.258 77.7379 11.817 76.8669 11.817ZM84.5733 13H88.3693C89.6563 13 90.4363 12.181 90.4363 11.011C90.4363 10.114 89.8773 9.555 88.7723 9.451V9.399C89.7213 9.269 90.1763 8.775 90.1763 7.917C90.1763 6.89 89.5133 6.214 88.3043 6.214H84.5733V13ZM86.1983 11.791V10.075H88.0313C88.4733 10.075 88.7333 10.322 88.7333 10.751V11.115C88.7333 11.544 88.4733 11.791 88.0313 11.791H86.1983ZM86.1983 9.022V7.423H87.8363C88.2393 7.423 88.4863 7.657 88.4863 8.06V8.385C88.4863 8.788 88.2393 9.022 87.8363 9.022H86.1983ZM94.2794 13.052H94.8124C95.5404 13.052 96.0214 12.909 96.4114 12.519C96.9704 11.96 97.3474 10.816 97.3474 8.372V7.54H99.2584V13H100.922V6.214H95.7614V8.294C95.7614 10.27 95.5274 11.167 95.1634 11.674H94.2794V13.052ZM104.506 13.156C105.52 13.156 106.261 12.701 106.482 11.83H106.56C106.664 12.532 107.106 13 107.821 13H108.744V11.674H108.068V8.476C108.068 6.929 107.093 6.058 105.26 6.058C103.895 6.058 103.102 6.578 102.608 7.358L103.596 8.242C103.921 7.774 104.363 7.384 105.143 7.384C106.027 7.384 106.404 7.826 106.404 8.58V9.074H105.247C103.401 9.074 102.348 9.763 102.348 11.154C102.348 12.363 103.128 13.156 104.506 13.156ZM105.065 11.947C104.415 11.947 104.038 11.674 104.038 11.128V10.907C104.038 10.374 104.467 10.075 105.338 10.075H106.404V10.972C106.404 11.609 105.806 11.947 105.065 11.947ZM112.821 13.156C114.771 13.156 115.967 11.778 115.967 9.633C115.967 7.566 114.836 6.344 113.328 6.344C112.34 6.344 111.794 6.799 111.469 7.696H111.417C111.508 5.772 111.911 5.187 113.263 5.057L115.486 4.849V3.237L113.302 3.445C110.767 3.692 109.675 5.265 109.675 8.84C109.675 11.869 110.858 13.156 112.821 13.156ZM112.847 11.817C111.963 11.817 111.417 11.258 111.417 10.218V9.139C111.417 8.242 111.911 7.696 112.808 7.696C113.692 7.696 114.238 8.255 114.238 9.282V10.257C114.238 11.258 113.692 11.817 112.847 11.817ZM120.132 13.156C122.082 13.156 123.291 11.778 123.291 9.594C123.291 7.423 122.082 6.058 120.132 6.058C118.195 6.058 116.986 7.423 116.986 9.594C116.986 11.778 118.195 13.156 120.132 13.156ZM120.132 11.817C119.274 11.817 118.728 11.258 118.728 10.231V8.97C118.728 7.956 119.274 7.397 120.132 7.397C121.003 7.397 121.549 7.956 121.549 8.97V10.231C121.549 11.258 121.003 11.817 120.132 11.817ZM124.767 15.6H126.431V11.869H126.483C126.743 12.636 127.458 13.156 128.355 13.156C130.071 13.156 131.02 11.869 131.02 9.594C131.02 7.332 130.071 6.058 128.355 6.058C127.458 6.058 126.73 6.552 126.483 7.332H126.431V6.214H124.767V15.6ZM127.822 11.778C127.029 11.778 126.431 11.375 126.431 10.673V8.515C126.431 7.852 127.029 7.423 127.822 7.423C128.68 7.423 129.278 8.06 129.278 9.022V10.192C129.278 11.154 128.68 11.778 127.822 11.778ZM134.239 13.156C135.253 13.156 135.994 12.701 136.215 11.83H136.293C136.397 12.532 136.839 13 137.554 13H138.477V11.674H137.801V8.476C137.801 6.929 136.826 6.058 134.993 6.058C133.628 6.058 132.835 6.578 132.341 7.358L133.329 8.242C133.654 7.774 134.096 7.384 134.876 7.384C135.76 7.384 136.137 7.826 136.137 8.58V9.074H134.98C133.134 9.074 132.081 9.763 132.081 11.154C132.081 12.363 132.861 13.156 134.239 13.156ZM134.798 11.947C134.148 11.947 133.771 11.674 133.771 11.128V10.907C133.771 10.374 134.2 10.075 135.071 10.075H136.137V10.972C136.137 11.609 135.539 11.947 134.798 11.947ZM140.96 13H142.624V7.54H144.691V6.214H138.893V7.54H140.96V13ZM148.519 13.156C150.469 13.156 151.678 11.778 151.678 9.594C151.678 7.423 150.469 6.058 148.519 6.058C146.582 6.058 145.373 7.423 145.373 9.594C145.373 11.778 146.582 13.156 148.519 13.156ZM148.519 11.817C147.661 11.817 147.115 11.258 147.115 10.231V8.97C147.115 7.956 147.661 7.397 148.519 7.397C149.39 7.397 149.936 7.956 149.936 8.97V10.231C149.936 11.258 149.39 11.817 148.519 11.817ZM153.153 15.6H154.817V11.869H154.869C155.129 12.636 155.844 13.156 156.741 13.156C158.457 13.156 159.406 11.869 159.406 9.594C159.406 7.332 158.457 6.058 156.741 6.058C155.844 6.058 155.116 6.552 154.869 7.332H154.817V6.214H153.153V15.6ZM156.208 11.778C155.415 11.778 154.817 11.375 154.817 10.673V8.515C154.817 7.852 155.415 7.423 156.208 7.423C157.066 7.423 157.664 8.06 157.664 9.022V10.192C157.664 11.154 157.066 11.778 156.208 11.778ZM160.948 13H162.443L164.562 9.828L165.355 8.372H165.407L165.264 9.971V13H166.889V6.214H165.394L163.275 9.386L162.482 10.829H162.43L162.573 9.243V6.214H160.948V13ZM168.819 13H170.314L172.433 9.828L173.226 8.372H173.278L173.135 9.971V13H174.76V6.214H173.265L171.146 9.386L170.353 10.829H170.301L170.444 9.243V6.214H168.819V13ZM4.589 30.156C6.214 30.156 7.293 29.363 7.943 28.011L6.552 27.192C6.253 28.011 5.616 28.635 4.589 28.635C3.315 28.635 2.496 27.751 2.496 26.191V24.761C2.496 23.214 3.315 22.291 4.589 22.291C5.603 22.291 6.175 22.837 6.435 23.643L7.904 22.863C7.267 21.459 6.214 20.77 4.589 20.77C2.197 20.77 0.676 22.473 0.676 25.528C0.676 28.583 2.197 30.156 4.589 30.156ZM10.9668 30V25.84C10.9668 25.099 11.5518 24.787 12.6698 24.787H13.1898V23.214H12.8258C11.7468 23.214 11.2008 23.903 11.0318 24.618H10.9668V23.214H9.30282V30H10.9668ZM17.0339 30.156C18.9839 30.156 20.1929 28.778 20.1929 26.594C20.1929 24.423 18.9839 23.058 17.0339 23.058C15.0969 23.058 13.8879 24.423 13.8879 26.594C13.8879 28.778 15.0969 30.156 17.0339 30.156ZM17.0339 28.817C16.1759 28.817 15.6299 28.258 15.6299 27.231V25.97C15.6299 24.956 16.1759 24.397 17.0339 24.397C17.9049 24.397 18.4509 24.956 18.4509 25.97V27.231C18.4509 28.258 17.9049 28.817 17.0339 28.817ZM22.7628 30H24.5308L25.3888 27.01L25.8828 25.164H25.9218L26.4288 27.01L27.2998 30H29.0938L30.9528 23.214H29.4058L28.7298 26.009L28.1968 28.336H28.1448L27.5078 26.009L26.6888 23.214H25.1808L24.3878 26.009L23.7638 28.336H23.7118L23.1788 26.009L22.4898 23.214H20.8908L22.7628 30ZM33.8692 30V25.515C33.8692 24.787 34.5322 24.423 35.2212 24.423C36.0142 24.423 36.3392 24.917 36.3392 25.879V30H38.0032V25.71C38.0032 24.02 37.2232 23.058 35.8322 23.058C34.7792 23.058 34.2072 23.617 33.9342 24.345H33.8692V23.214H32.2052V30H33.8692ZM39.9517 30H41.5767V23.487H41.6287L42.3307 24.93L44.1897 28.362L46.0487 24.93L46.7507 23.487H46.8027V30H48.4277V20.926H46.5687L44.2677 25.359H44.2157L41.8887 20.926H39.9517V30ZM53.204 30.156C54.465 30.156 55.453 29.675 56.012 28.908L55.115 27.907C54.699 28.44 54.205 28.83 53.386 28.83C52.294 28.83 51.735 28.167 51.735 27.192V27.023H56.246V26.477C56.246 24.618 55.271 23.058 53.152 23.058C51.163 23.058 50.006 24.449 50.006 26.594C50.006 28.765 51.202 30.156 53.204 30.156ZM53.178 24.306C54.036 24.306 54.517 24.943 54.517 25.879V25.996H51.735V25.892C51.735 24.956 52.307 24.306 53.178 24.306ZM61.922 30H63.586V20.38H61.922V24.332H61.857C61.623 23.552 60.882 23.058 59.985 23.058C58.282 23.058 57.333 24.332 57.333 26.594C57.333 28.869 58.282 30.156 59.985 30.156C60.882 30.156 61.61 29.636 61.857 28.869H61.922V30ZM60.518 28.778C59.66 28.778 59.075 28.154 59.075 27.192V26.022C59.075 25.06 59.66 24.423 60.518 24.423C61.311 24.423 61.922 24.852 61.922 25.515V27.673C61.922 28.375 61.311 28.778 60.518 28.778ZM66.337 22.226C67.013 22.226 67.312 21.875 67.312 21.394V21.134C67.312 20.653 67.013 20.302 66.337 20.302C65.648 20.302 65.362 20.653 65.362 21.134V21.394C65.362 21.875 65.648 22.226 66.337 22.226ZM65.505 30H67.169V23.214H65.505V30ZM70.7747 30.156C71.7887 30.156 72.5297 29.701 72.7507 28.83H72.8287C72.9327 29.532 73.3747 30 74.0897 30H75.0127V28.674H74.3367V25.476C74.3367 23.929 73.3617 23.058 71.5287 23.058C70.1637 23.058 69.3707 23.578 68.8767 24.358L69.8647 25.242C70.1897 24.774 70.6317 24.384 71.4117 24.384C72.2957 24.384 72.6727 24.826 72.6727 25.58V26.074H71.5157C69.6697 26.074 68.6167 26.763 68.6167 28.154C68.6167 29.363 69.3967 30.156 70.7747 30.156ZM71.3337 28.947C70.6837 28.947 70.3067 28.674 70.3067 28.128V27.907C70.3067 27.374 70.7357 27.075 71.6067 27.075H72.6727V27.972C72.6727 28.609 72.0747 28.947 71.3337 28.947Z" transform="translate(30 1)" fill="white"/>
<path d="M17.7638 7.51871V0L13.7265 3.99252L10.4968 0.798503L7.26699 3.99252L3.22978 0V7.51871H0V24.6195L10.4968 35L14.3014 31.2374L17.5312 27.9796L21 24.6195V7.51871H17.7638ZM3.22978 25.5521L1.61489 23.9551V9.11571H3.22978V25.5521ZM6.45955 28.7461L4.84466 27.1491V19.8284L6.45955 21.4254V28.7461ZM12.9191 30.3431L10.4968 32.7386L8.07444 30.3431V23.0224L10.4968 25.418L12.9191 23.0097V30.3431ZM12.9191 20.7483L10.4968 23.1566L8.07444 20.7611V19.8284L10.4968 17.4329L12.9191 19.8284V20.7483ZM16.1489 27.0916L14.534 28.7206V21.4063L16.1489 19.8157V27.0916ZM16.1489 17.5671L14.5275 19.1641L11.6337 16.3022L12.9126 15.0374V13.4404L15.9034 10.4828L14.7601 9.35207L11.3042 12.7761V13.9067H9.68933V12.7761L6.22055 9.34568L5.08367 10.4764L8.07444 13.434V15.031L9.35343 16.2959L6.45955 19.1641L4.84466 17.5671V9.11571H16.1489V17.5671ZM16.1489 7.51871H4.84466V3.85837L7.26699 6.25388L10.4968 3.05986L13.7265 6.25388L16.1489 3.85837V7.51871ZM19.3787 23.9487L17.7638 25.5138V9.11571H19.3787V23.9487Z" fill="white"/>
</svg>
