<svg width="1440" height="1452" viewBox="0 0 1440 1452" fill="none" xmlns="http://www.w3.org/2000/svg">
<path opacity="0.5" fill-rule="evenodd" clip-rule="evenodd" d="M0 1440.68V146.637C0 146.637 44.3917 95.8647 107.92 91.6641C160.308 88.2001 197.94 101.501 234.478 114.552L235.219 114.817C271.711 127.853 307.216 140.536 356.531 138.141C412.076 135.444 445.423 118.082 479.326 99.21C480.825 98.3754 482.326 97.5379 483.829 96.6985C516.181 78.6384 549.976 59.772 604.563 53.2096C652.941 47.3937 691.676 51.85 729.932 56.7063C731.571 56.9143 733.208 57.1229 734.846 57.3315C771.465 61.9986 807.964 66.6503 853.33 63.134C901.166 59.4264 935.469 48.0539 969.746 36.6904C971.774 36.0184 973.801 35.3463 975.83 34.6759C1012.13 22.6859 1049.2 11.2623 1102.23 10.4331C1152.32 9.64995 1189.2 21.4727 1224.58 32.8136C1225.96 33.2575 1227.35 33.7008 1228.73 34.1425C1265.53 45.914 1301.26 56.6413 1350.36 53.1794C1408.88 49.0542 1408.5 25.1798 1440 0.632812V0V1440.68H0Z" transform="translate(0.00012207 11.3228)" fill="url(#paint0_linear)"/>
<path opacity="0.2" fill-rule="evenodd" clip-rule="evenodd" d="M0 1452V92.187C0 92.187 10.3407 86.0427 34.9562 76.8801C84.0037 58.6233 148.172 40.1862 207.05 40.6035C258.604 40.9689 295.342 56.0756 330.823 70.665L332.008 71.1523C368.058 85.9729 402.984 100.097 452.152 99.7395C512.108 99.303 544.02 76.9612 577.01 53.7976L577.151 53.6985C609.774 30.7926 643.515 7.10116 707.182 6.99843C759.684 6.91372 796.382 22.6093 832.004 37.9853L832.727 38.2973C868.304 53.6549 902.919 68.5968 952.285 69.3817C1007.89 70.2659 1042.28 55.0862 1077.33 38.4354C1078.88 37.699 1080.43 36.9597 1081.99 36.2189C1115.43 20.2786 1150.37 3.62682 1205.27 0.591669C1253.92 -2.09819 1292.29 4.84207 1330.15 12.1508C1331.78 12.4638 1333.4 12.7775 1335.02 13.0911C1371.26 20.1055 1394.5 27.0969 1440 26.5081C1440 21.5486 1440 1452 1440 1452H0Z" transform="translate(0.00012207)" fill="url(#paint1_linear)"/>
<path fill-rule="evenodd" clip-rule="evenodd" d="M0 1420.51V81.1762C0 81.1762 59.4812 110.445 86.1518 110.251C146.108 109.814 178.02 87.4724 211.01 64.3088L211.151 64.2097C243.773 41.3038 277.515 17.6124 341.182 17.5097C393.684 17.4249 430.382 33.1206 466.004 48.4965L466.727 48.8085C502.304 64.1661 536.919 79.108 586.285 79.8929C641.889 80.7771 676.284 65.5974 711.332 48.9466C712.882 48.2102 714.433 47.4709 715.988 46.7301C749.434 30.7898 784.374 14.138 839.27 11.1029C887.922 8.41304 926.29 15.3533 964.154 22.662C965.776 22.975 967.397 23.2887 969.017 23.6023C1005.26 30.6168 1041.38 37.6081 1086.88 37.0193C1134.86 36.3984 1169.82 27.2576 1204.76 18.124C1206.83 17.5838 1208.89 17.0437 1210.96 16.5053C1247.96 6.87689 1285.68 -2.13728 1338.66 0.44903C1390.66 2.98724 1440 32.2514 1440 32.2514V1420.51H0Z" transform="translate(0 31.4888)" fill="url(#paint2_linear)"/>
<path fill-rule="evenodd" clip-rule="evenodd" d="M0 1420.51V81.1762C0 81.1762 59.4812 110.445 86.1518 110.251C146.108 109.814 178.02 87.4724 211.01 64.3088L211.151 64.2097C243.773 41.3038 277.515 17.6124 341.182 17.5097C393.684 17.4249 430.382 33.1206 466.004 48.4965L466.727 48.8085C502.304 64.1661 536.919 79.108 586.285 79.8929C641.889 80.7771 676.284 65.5974 711.332 48.9466C712.882 48.2102 714.433 47.4709 715.988 46.7301C749.434 30.7898 784.374 14.138 839.27 11.1029C887.922 8.41304 926.29 15.3533 964.154 22.662C965.776 22.975 967.397 23.2887 969.017 23.6023C1005.26 30.6168 1041.38 37.6081 1086.88 37.0193C1134.86 36.3984 1169.82 27.2576 1204.76 18.124C1206.83 17.5838 1208.89 17.0437 1210.96 16.5053C1247.96 6.87689 1285.68 -2.13728 1338.66 0.44903C1390.66 2.98724 1440 32.2514 1440 32.2514V1420.51H0Z" transform="translate(0 31.4888)" fill="#101120"/>
<defs>
<linearGradient id="paint0_linear" x2="1" gradientUnits="userSpaceOnUse" gradientTransform="matrix(1498.25 361.632 -1498.25 4773.94 725.13 -2335.13)">
<stop stop-color="#007DFF"/>
<stop offset="1" stop-color="#FF00A8"/>
</linearGradient>
<linearGradient id="paint1_linear" x2="1" gradientUnits="userSpaceOnUse" gradientTransform="matrix(1498.25 367.313 -1498.25 4848.94 725.13 -2371.82)">
<stop stop-color="#007DFF"/>
<stop offset="1" stop-color="#FF00A8"/>
</linearGradient>
<linearGradient id="paint2_linear" x2="1" gradientUnits="userSpaceOnUse" gradientTransform="matrix(1498.25 351.512 -1498.25 4640.35 725.13 -2269.79)">
<stop stop-color="#007DFF"/>
<stop offset="1" stop-color="#FF00A8"/>
</linearGradient>
</defs>
</svg>
