<svg width="1440" height="478" viewBox="0 0 1440 478" fill="none" xmlns="http://www.w3.org/2000/svg">
<path opacity="0.2" fill-rule="evenodd" clip-rule="evenodd" d="M1440 85.7391C1440 85.7391 1321.66 84.5679 1286.33 79.9089C1284.69 79.6925 1283.05 79.4763 1281.41 79.2611C1244.48 74.4136 1208.02 70.1083 1162.47 75.7711C1111.25 82.1395 1079.57 100.419 1048.1 118.577C1046.73 119.372 1045.35 120.167 1043.97 120.96C1011.18 139.837 977.715 157.987 921.874 160.79C872.332 163.278 836.616 150.082 801.63 137.156L800.441 136.717C764.969 123.614 730.088 110.969 681.555 114.287C622.741 118.309 592.883 142.916 562.559 168.098L562.19 168.404C532.134 193.365 501.497 218.808 441.198 223.286C391.667 226.964 355.562 214.493 319.965 202.062L319.245 201.811C283.795 189.431 248.758 177.196 200.778 180.043C145.591 183.318 85.8483 205.329 39.7168 226.677C16.6943 237.33 0 245.297 0 245.297V236.797C53.0416 203.297 116.426 36.9464 182.109 33.0483C220.052 30.7965 253.438 72.8407 274.932 104.794C293.259 132.04 323.721 106.139 338.582 110.794C413.292 134.202 355.852 199.982 441.198 201.811C535.814 203.839 555.487 85.7391 567.545 85.7391C575.349 85.7391 569.569 119.768 594.066 94.7943C620.402 67.9443 653.035 38.7741 696.613 35.7943C733.279 33.2871 750.948 60.9409 778.827 80.2943C799.181 94.4237 815.256 20.5304 858.39 10.2944C938.914 -8.81483 844.902 152.389 929.996 141.294C987.636 133.779 937.818 60.7833 994.53 70.2943C1006.54 72.3087 1011.82 44.669 1023.7 49.7944C1075.86 72.2944 1089.67 -5.34903 1151.89 0.294355C1182.25 3.04815 1197.76 24.47 1227.03 29.7944C1253.57 34.6217 1264.86 -2.73417 1291.56 1.79436C1338.45 9.7454 1296 65.2943 1440 65.2943V85.7391Z" transform="translate(0.000244141 126.375)" fill="url(#paint0_linear)"/>
<path opacity="0.5" fill-rule="evenodd" clip-rule="evenodd" d="M1440 71.7304C1440 71.7304 1321.66 70.5591 1286.33 65.9001C1284.69 65.6837 1283.05 65.4675 1281.41 65.2524C1244.48 60.4048 1208.02 56.0995 1162.47 61.7623C1111.25 68.1307 1079.57 86.4107 1048.1 104.568C1046.73 105.363 1045.35 106.158 1043.97 106.951C1011.18 125.828 977.715 143.978 921.874 146.782C872.332 149.269 836.616 136.073 801.63 123.147L800.441 122.708C764.969 109.605 730.088 96.9598 681.555 100.278C622.74 104.3 592.883 128.907 562.559 154.089L562.19 154.395C532.134 179.356 501.497 204.799 441.198 209.277C391.667 212.956 355.562 200.484 319.965 188.053L319.245 187.802C283.795 175.422 248.758 163.187 200.778 166.034C145.591 169.31 85.8483 191.321 39.7168 212.668C16.6943 223.322 0 232.295 0 232.295V226.295C55.6937 193.795 122.614 45.0108 188.297 41.1127C226.24 38.8609 247.417 64.8319 268.911 96.7856C287.238 124.032 293.665 102.295 308.525 106.951C383.235 130.359 355.852 194.956 441.198 196.786C535.814 198.813 562.559 90.7856 574.617 90.7856C582.421 90.7856 567.057 121.759 591.554 96.7856C617.891 69.9356 647.731 47.9014 691.308 44.9216C727.975 42.4144 757.4 57.9321 785.28 77.2856C805.634 91.4149 810.835 32.0216 853.969 21.7856C934.494 2.67638 836.781 145.88 921.874 134.786C979.515 127.27 951.078 62.2193 1007.79 71.7304C1019.8 73.7447 1012.71 47.1602 1024.59 52.2856C1076.74 74.7856 1094.97 -5.35785 1157.19 0.28553C1187.55 3.03933 1196.87 16.4612 1226.14 21.7856C1252.68 26.6129 1291.01 0.840572 1296.87 27.2856C1304.5 61.7623 1440 57.7855 1440 57.7855V71.7304Z" transform="translate(0.000244141 140.376)" fill="url(#paint1_linear)"/>
<path fill-rule="evenodd" clip-rule="evenodd" d="M0.000183105 200.008L0 200.836V310.336H1440V44.4531V41.4805V37.9688C1440 37.9688 1299.64 40.4712 1253.55 19C1248.94 16.8511 1246.12 14.1851 1243.44 11.6606C1239.45 7.89355 1235.79 4.44287 1227.03 3.5C1218.13 2.5415 1214.23 6.02148 1209.85 9.92773C1205.25 14.0283 1200.13 18.5996 1188.14 19C1177.28 19.3628 1172.93 14.6958 1168.47 9.89697C1163.92 5.0166 1159.25 0 1147.47 0C1122.38 0 1098.42 15.8003 1076.18 30.4722C1054.53 44.7461 1034.51 57.9521 1016.64 54.5C989.467 49.2529 980.429 63.4263 970.211 79.4502C960.565 94.5757 949.868 111.351 921.88 115C870.391 121.713 870.592 85.7031 870.751 57.2109C870.854 38.6157 870.94 23.2227 856.627 25C841.06 26.9326 833.125 36.2549 825.583 45.1157C810.986 62.2632 797.859 77.6841 733.747 34.4844C727.159 30.0459 725.27 32.1997 721.988 35.9419C718.27 40.1807 712.764 46.4575 696.618 47.5C682.947 48.3823 683.718 41.0171 684.367 34.8184C684.965 29.1172 685.458 24.4028 674.517 28C661.325 32.3369 645.845 44.3394 630.487 56.2476C610.053 72.0913 589.834 87.7681 575.506 85C571.858 84.2954 566.476 91.498 558.508 102.161C538.208 129.328 501.124 178.956 433.178 177.5C384.153 176.449 353.822 145.548 330.517 121.806C313.251 104.216 299.842 90.5552 285.545 95.875C257.066 106.472 246.715 87.3213 236.091 67.6641C226.812 50.4976 217.326 32.9458 195.374 34.4844C181.604 35.4497 182.337 47.4331 182.977 57.9028C183.58 67.751 184.1 76.2603 172.39 73C137.895 63.396 111.796 92.6191 80.4739 127.691C58.0103 152.844 32.8604 181.005 0.000183105 200.008Z" transform="translate(0 167.664)" fill="url(#paint2_linear)"/>
<path fill-rule="evenodd" clip-rule="evenodd" d="M2326.42 0.0360035C2320.92 0.392937 2314.93 4.47985 2315.14 7.60876C2315.67 15.2889 2325.24 14.7225 2332.09 12.9076C2338.8 11.1283 2340.86 7.49743 2338.28 4.09167C2336.15 1.27819 2330.97 -0.259407 2326.42 0.0360035ZM240.119 140.036C234.612 140.393 228.625 144.48 228.84 147.609C229.368 155.289 238.936 154.723 245.782 152.908C252.494 151.128 254.557 147.497 251.977 144.092C249.846 141.278 244.671 139.741 240.119 140.036ZM406.692 172.416C406.831 171.757 408.27 170.779 409.396 170.6C410.326 170.453 411.275 170.682 411.539 171.239C411.857 171.913 411.232 172.721 409.782 173.224C408.303 173.736 406.35 174.034 406.692 172.416ZM2.74349 221.058C1.61788 221.237 0.178672 222.215 0.0393897 222.874C-0.302285 224.492 1.65035 224.194 3.12948 223.682C4.57967 223.179 5.20504 222.371 4.88619 221.697C4.62264 221.141 3.67403 220.911 2.74349 221.058ZM774.616 118.501C777.123 117.213 782.872 117.187 785.341 118.501C787.383 119.588 788.152 121.561 786.662 123.232C784.859 125.254 781.037 126.139 776.914 125.065C772.708 123.97 768.462 121.664 774.616 118.501ZM1471.6 39.0077C1470.95 37.1244 1466.26 35.246 1462.89 35.4632C1454.63 35.996 1455.7 39.2709 1457.98 41.5492C1460.21 43.7831 1464.23 44.3285 1467.78 43.2831C1470.72 42.4198 1472.13 40.5643 1471.6 39.0077ZM2453 55.4632C2456.37 55.246 2461.06 57.1244 2461.71 59.0077C2462.24 60.5643 2460.83 62.4198 2457.89 63.2831C2454.34 64.3285 2450.32 63.7831 2448.09 61.5492C2445.81 59.2709 2444.74 55.996 2453 55.4632ZM1014.82 125.747C1015.1 124.224 1012.53 123.211 1010.07 123.815C1004.05 125.3 1003.52 127.956 1004.24 129.611C1004.94 131.234 1007.55 131.198 1010.46 129.865C1012.87 128.763 1014.58 127.007 1014.82 125.747ZM493.874 193.545C497.249 193.116 501.553 194.831 501.845 196.791C502.087 198.411 500.343 200.463 497.275 201.552C493.561 202.871 489.682 202.529 487.878 200.292C486.037 198.009 485.588 194.598 493.874 193.545Z" transform="translate(70.7226)" fill="url(#paint3_linear)"/>
<defs>
<linearGradient id="paint0_linear" x2="1" gradientUnits="userSpaceOnUse" gradientTransform="matrix(2646.55 397.359 -2646.55 5245.58 1282.17 -2752.21)">
<stop stop-color="#0075FF"/>
<stop offset="1" stop-color="#FF005C"/>
</linearGradient>
<linearGradient id="paint1_linear" x2="1" gradientUnits="userSpaceOnUse" gradientTransform="matrix(2646.55 388.758 -2646.55 5132.03 1282.17 -2700.33)">
<stop stop-color="#0075FF"/>
<stop offset="1" stop-color="#FF005C"/>
</linearGradient>
<linearGradient id="paint2_linear" x2="1" gradientUnits="userSpaceOnUse" gradientTransform="matrix(1496.87 209.691 -1496.87 2768.15 725.189 -1354.02)">
<stop stop-color="#0075FF"/>
<stop offset="1" stop-color="#A82894"/>
</linearGradient>
<linearGradient id="paint3_linear" x2="1" gradientUnits="userSpaceOnUse" gradientTransform="matrix(2559.05 206.276 -2559.05 2723.07 1239.78 -1331.97)">
<stop stop-color="#0075FF"/>
<stop offset="1" stop-color="#FF005C"/>
</linearGradient>
</defs>
</svg>
