<svg width="81" height="80" viewBox="0 0 81 80" fill="none" xmlns="http://www.w3.org/2000/svg">
<path d="M63.3754 25.0105C57.0406 32.2251 47.2967 36.6608 37.9018 36.5004C31.5669 36.3935 25.3663 34.2292 20.4809 29.4194C18.6556 27.6292 16.9645 25.7053 15.3003 23.7547C11.7839 21.8308 8.50911 19.5328 6.01275 16.4065C4.77799 14.8834 3.78481 13.1466 2.95269 11.2761C1.93267 10.5279 0.912649 9.77976 2.04793e-07 8.95142C1.6374 15.3109 5.01957 21.3498 10.3613 26.4267C21.7425 37.1952 40.0224 39.9207 54.061 32.9733C66.4086 26.8543 74.703 13.6543 75.3472 -8.1545e-07C73.9783 6.62672 71.294 13.4138 67.6434 18.8915C66.4892 21.0292 65.0665 23.0599 63.3754 25.0105Z" transform="translate(4.60986 43.2051)" fill="#FD2702"/>
<path d="M36.472 3.73877C42.5653 2.91043 48.5781 3.68533 54.1345 5.74282C50.0007 3.20435 45.4643 1.41407 40.6327 0.639171C30.4593 -1.07095 18.6486 0.505568 10.4347 7.13229C1.25453 14.5606 0.207671 27.4667 0.019773 38.4222C-0.0339122 41.121 -0.0339122 43.8999 0.771366 46.4918C1.52296 48.9501 2.91878 50.687 4.58302 52.1833C-0.839191 31.2343 12.5284 6.99869 36.472 3.73877Z" fill="#FEBB00"/>
<path d="M30.7885 13.3871C29.7148 13.4939 28.6142 13.5207 27.5137 13.4939C19.5414 13.3603 11.8644 10.5279 4.64377 7.18786C3.0869 6.4664 1.53003 5.6915 -4.09586e-07 4.86316C1.66424 6.81377 3.35533 8.71093 5.18063 10.5279C10.066 15.3377 16.2666 17.5288 22.6015 17.6089C31.9964 17.7692 41.7403 13.3336 48.0751 6.11903C49.7662 4.16842 51.1889 2.13765 52.37 -1.6309e-06C51.6184 1.12227 50.8399 2.16437 50.0078 3.17976C45.0688 9.13847 38.3849 12.6923 30.7885 13.3871Z" transform="translate(19.8833 62.0967)" fill="#FF8C00"/>
<path d="M2.94421 32.1737C5.38689 24.104 12.4465 17.9048 18.7814 12.7477C27.1026 6.01413 35.2896 0.643273 46.5366 1.95259C48.0667 2.13963 49.6772 2.3534 51.2878 2.64732C51.0999 2.54044 50.9388 2.43356 50.7509 2.32667C45.1945 0.295904 39.1549 -0.505716 33.0885 0.322625C9.14485 3.58255 -4.22277 27.8182 1.19944 48.7405C2.13893 49.5688 3.13211 50.317 4.15213 51.0652C1.60208 45.1866 1.14576 38.0522 2.94421 32.1737Z" transform="translate(3.38354 3.41602)" fill="#FF8C00"/>
<path d="M17.9846 7.8826C13.4482 3.44697 6.52276 1.20243 0 2.03862e-07C12.616 5.10365 22.521 16.7271 24.3999 30.5684C24.4268 30.8089 24.4536 31.0761 24.5073 31.3166C24.7221 33.2138 24.7757 35.111 24.6952 37.0081C25.1784 34.6033 25.5273 32.2251 25.6615 29.9539C26.091 22.0713 23.7557 13.5207 17.9846 7.8826Z" transform="translate(55.2888 6.19727)" fill="#0072FE"/>
<path d="M1.02396e-07 0C0.805279 1.87045 1.8253 3.60729 3.06006 5.13037C5.55642 8.22996 8.83122 10.5547 12.3476 12.4785C9.8244 9.53928 7.38172 6.54656 4.69746 3.79433C3.24796 2.3247 1.61056 1.14899 1.02396e-07 0Z" transform="translate(7.53571 54.5078)" fill="#0022FE"/>
<path d="M25.0979 31.4235C25.071 31.183 25.0442 30.9158 24.9905 30.6753C23.1115 16.8073 13.2066 5.18381 0.590536 0.106883C0.402638 0.0801622 0.187898 0.0267205 -8.19172e-07 -2.03862e-07C18.0651 11.383 27.9969 37.0081 17.5819 56.0065C21.2325 50.5288 23.9168 43.7417 25.2857 37.115C25.3663 35.2178 25.3126 33.3207 25.0979 31.4235Z" transform="translate(54.6713 6.09033)" fill="#0022FE"/>
<path d="M16.9023 10.9929C10.5674 16.15 3.50783 22.3492 1.06516 30.4189C-0.706458 36.2974 -0.250133 43.4318 2.29992 49.3371C3.88363 50.5128 5.52103 51.6618 6.97053 53.1314C9.68164 55.8837 12.1243 58.8764 14.6207 61.8156C16.1507 62.644 17.7076 63.4189 19.2645 64.1403C26.4851 67.4804 34.1621 70.3128 42.1344 70.4464C43.2349 70.4731 44.3355 70.4197 45.4092 70.3395C53.0056 69.6715 59.6626 66.091 64.6553 60.1055C65.4874 59.1169 66.2659 58.048 67.0175 56.9258C77.4056 37.9274 67.4738 12.3023 49.4087 0.892529C47.7713 0.598602 46.1876 0.384836 44.6576 0.197792C33.4105 -1.11152 25.2235 4.25933 16.9023 10.9929Z" transform="translate(5.26263 5.1709)" fill="#0072FE"/>
<path fill-rule="evenodd" clip-rule="evenodd" d="M3.51433 10.0762C2.77379 10.0762 2.12202 10.0039 1.55904 9.86035C1.00038 9.7168 0.480703 9.53809 0 9.3252V7.01318H0.220864C0.705897 7.42676 1.24073 7.74463 1.82537 7.9668C2.41001 8.18896 2.97733 8.2998 3.52732 8.2998C3.6659 8.2998 3.84779 8.28467 4.07299 8.25391C4.30251 8.22363 4.48656 8.17578 4.62514 8.11035C4.79404 8.03613 4.93695 7.93408 5.05388 7.80322C5.17081 7.66846 5.22927 7.49219 5.22927 7.27441C5.22927 7.03076 5.134 6.83252 4.94345 6.68018C4.7529 6.52783 4.52554 6.41699 4.26137 6.34717C3.93224 6.26025 3.57929 6.17725 3.20252 6.09912C2.83009 6.02051 2.48147 5.9248 2.15667 5.81201C1.40746 5.54639 0.870462 5.18945 0.545663 4.74072C0.220864 4.29248 0.0584641 3.73096 0.0584641 3.05615C0.0584641 2.146 0.441727 1.41064 1.20825 0.849121C1.97478 0.283203 2.93186 0 4.07948 0C4.65546 0 5.22711 0.0585938 5.79442 0.17627C6.36607 0.293945 6.87709 0.452637 7.32748 0.652832V2.87305H7.11311C6.75366 2.56396 6.3141 2.30273 5.79442 2.08984C5.27907 1.87646 4.74857 1.76953 4.2029 1.76953C3.9907 1.76953 3.80015 1.78467 3.63126 1.81543C3.46236 1.8457 3.28481 1.90479 3.09859 1.9917C2.94701 2.06152 2.81493 2.16602 2.70233 2.30518C2.59406 2.43994 2.53993 2.59229 2.53993 2.76221C2.53993 3.01025 2.62654 3.2085 2.79977 3.35645C2.97733 3.5 3.31729 3.63086 3.81964 3.74805C4.14444 3.82227 4.45625 3.89404 4.75506 3.96387C5.05821 4.0332 5.38084 4.12939 5.72297 4.25098C6.39422 4.49512 6.89224 4.82373 7.21704 5.2373C7.54617 5.64648 7.71074 6.18848 7.71074 6.86328C7.71074 7.82959 7.33181 8.60645 6.57394 9.19434C5.82041 9.78223 4.80054 10.0762 3.51433 10.0762ZM18.8384 9.89941H16.4219V3.45459L14.6614 7.61426H13.005L11.2446 3.45459V9.89941H8.95797V0.17627H11.7577L13.9014 4.97607L16.0386 0.17627H18.8384V9.89941ZM28.3095 9.89941H30.726V0.17627H27.9263L25.7891 4.97607L23.6454 0.17627H20.8456V9.89941H23.1322V3.45459L24.8926 7.61426H26.5491L28.3095 3.45459V9.89941ZM0 24.7231H6.45701V22.8687H2.4295V15H0V24.7231ZM9.84142 15L6.57394 24.7231H9.00994L9.61406 22.7383H12.6542L13.2583 24.7231H15.7593L12.4918 15H9.84142ZM11.1341 17.7686L12.1215 20.9751H10.1467L11.1341 17.7686ZM24.4574 21.7456C24.4574 22.229 24.3664 22.6533 24.1846 23.019C24.0027 23.3848 23.758 23.687 23.4505 23.9268C23.0867 24.2139 22.6862 24.4185 22.2488 24.5405C21.8157 24.6626 21.2635 24.7231 20.5923 24.7231H16.7207V15H20.1376C20.8478 15 21.3848 15.0283 21.7486 15.085C22.1167 15.1372 22.461 15.2505 22.7814 15.4243C23.1279 15.6118 23.3856 15.8618 23.5545 16.1753C23.7277 16.4888 23.8143 16.8501 23.8143 17.2593C23.8143 17.7339 23.6952 18.1562 23.457 18.5264C23.2232 18.8965 22.8984 19.1685 22.4826 19.3423V19.3945C23.0802 19.521 23.5588 19.7798 23.9182 20.1719C24.2777 20.5591 24.4574 21.084 24.4574 21.7456ZM21.3458 17.749C21.3458 17.5923 21.3047 17.4312 21.2224 17.2661C21.1444 17.1006 21.021 16.981 20.8521 16.9067C20.6919 16.8369 20.5013 16.8003 20.2805 16.7959C20.0639 16.7871 19.7391 16.7827 19.3061 16.7827H19.1372V18.8398H19.4425C19.8582 18.8398 20.1484 18.8354 20.313 18.8267C20.4818 18.8179 20.6551 18.7725 20.8326 18.6895C21.0275 18.5981 21.1618 18.4717 21.2354 18.3105C21.309 18.1499 21.3458 17.9624 21.3458 17.749ZM21.9564 21.6997C21.9564 21.3994 21.8958 21.1646 21.7746 20.9946C21.6533 20.8247 21.4714 20.6963 21.2289 20.6094C21.0816 20.5527 20.8781 20.5225 20.6183 20.5181C20.3628 20.5093 20.0185 20.5049 19.5854 20.5049H19.1372V22.9404H19.2671C19.8994 22.9404 20.3368 22.936 20.5793 22.9277C20.8218 22.9189 21.0687 22.8599 21.3198 22.7515C21.5407 22.6553 21.7009 22.5161 21.8005 22.3335C21.9045 22.146 21.9564 21.9351 21.9564 21.6997ZM28.0822 15L24.8147 24.7231H27.2507L27.8548 22.7383H30.8949L31.499 24.7231H34L30.7325 15H28.0822ZM29.3749 17.7686L30.3622 20.9751H28.3875L29.3749 17.7686Z" transform="translate(35 31)" fill="white"/>
</svg>
