<svg width="559" height="622" viewBox="0 0 559 622" fill="none" xmlns="http://www.w3.org/2000/svg">
<path fill-rule="evenodd" clip-rule="evenodd" d="M56.2833 0C94.5495 0 219.559 0 251.763 0C283.967 0 309 12.8293 309 56.1693C309 124.909 309 535.529 309 558.67C309 581.811 307.884 622 254.63 622C201.376 622 71.6947 622 48.4703 622C25.246 622 0 608.024 0 568.377C0 528.729 0 96.7449 0 56.1693C0 9.91325 28.955 0 56.2833 0Z" transform="translate(159.095)" fill="#3B3E52"/>
<g filter="url(#filter0_d)">
<path fill-rule="evenodd" clip-rule="evenodd" d="M194.898 21.9586C206.222 22.1177 211.194 12.0914 211.326 5.09184C211.326 1.37909 212.398 0.15912 216.589 0.15912C220.78 0.15912 226.96 0.15912 240.834 0.15912C254.708 0.15912 270.657 6.52392 270.657 31.0284C270.657 55.5329 270.657 533.848 270.657 553.578C270.657 573.309 260.13 584.448 236.685 584.448C213.24 584.448 55.3374 584.448 31.4168 584.448C7.4961 584.448 0 569.968 0 554.056C0 538.144 0 49.3271 0 29.278C0 9.22896 14.3542 0 27.7515 0C41.1488 0 50.8778 0 54.7056 0C58.5333 0 59.3308 2.22768 59.3308 4.7736C59.3308 7.31952 60.7067 21.6926 76.5559 21.7994C89.9532 21.7994 179.747 21.9586 194.898 21.9586Z" transform="translate(177.431 23.0724)" fill="#18182F"/>
</g>
<mask id="mask0" mask-type="alpha" maskUnits="userSpaceOnUse" x="177" y="23" width="272" height="585">
<path fill-rule="evenodd" clip-rule="evenodd" d="M194.898 21.9586C206.222 22.1177 211.194 12.0914 211.326 5.09184C211.326 1.37909 212.398 0.15912 216.589 0.15912C220.78 0.15912 226.96 0.15912 240.834 0.15912C254.708 0.15912 270.657 6.52392 270.657 31.0284C270.657 55.5329 270.657 533.848 270.657 553.578C270.657 573.309 260.13 584.448 236.685 584.448C213.24 584.448 55.3374 584.448 31.4168 584.448C7.4961 584.448 0 569.968 0 554.056C0 538.144 0 49.3271 0 29.278C0 9.22896 14.3542 0 27.7515 0C41.1488 0 50.8778 0 54.7056 0C58.5333 0 59.3308 2.22768 59.3308 4.7736C59.3308 7.31952 60.7067 21.6926 76.5559 21.7994C89.9532 21.7994 179.747 21.9586 194.898 21.9586Z" transform="translate(177.431 23.0724)" fill="white"/>
</mask>
<g mask="url(#mask0)">
<path d="M240 0H16C7.16345 0 0 7.16345 0 16V274C0 282.837 7.16345 290 16 290H240C248.837 290 256 282.837 256 274V16C256 7.16345 248.837 0 240 0Z" transform="translate(185.095 483)" fill="#CCD3FE" fill-opacity="0.1"/>
<path d="M240 0H16C7.16345 0 0 7.16345 0 16V274C0 282.837 7.16345 290 16 290H240C248.837 290 256 282.837 256 274V16C256 7.16345 248.837 0 240 0Z" transform="translate(185.095 -120)" fill="#CCD3FE" fill-opacity="0.1"/>
</g>
<path fill-rule="evenodd" clip-rule="evenodd" d="M2.55108 0H96.3034C97.7123 0 98.8545 1.13985 98.8545 2.54592C98.8545 3.95199 97.7123 5.09184 96.3034 5.09184H2.55108C1.14216 5.09184 0 3.95199 0 2.54592C0 1.13985 1.14216 0 2.55108 0Z" transform="translate(264.008 597.336)" fill="#3B3E52"/>
<path fill-rule="evenodd" clip-rule="evenodd" d="M2.71053 0H35.2368C36.7338 0 37.9474 1.21109 37.9474 2.70504C37.9474 4.19899 36.7338 5.41008 35.2368 5.41008H2.71053C1.21354 5.41008 0 4.19899 0 2.70504C0 1.21109 1.21354 0 2.71053 0Z" transform="translate(293.665 27.0504)" fill="#18182F"/>
<path fill-rule="evenodd" clip-rule="evenodd" d="M4.4644 8.91072C6.93001 8.91072 8.92879 6.91599 8.92879 4.45536C8.92879 1.99473 6.93001 0 4.4644 0C1.99878 0 0 1.99473 0 4.45536C0 6.91599 1.99878 8.91072 4.4644 8.91072Z" transform="translate(341.497 25.1409)" fill="#18182F"/>
<path d="M206.095 0H16C7.16345 0 0 7.16344 0 16V158.935C0 167.772 7.16345 174.935 16 174.935H206.095C214.932 174.935 222.095 167.772 222.095 158.935V16C222.095 7.16344 214.932 0 206.095 0Z" transform="translate(26 124)" fill="url(#paint0_linear)"/>
<path d="M3.60352 10V8.97168H0.492188V7.62256C1.03125 6.59131 1.83105 5.27002 2.8916 3.65869H5.12842V7.71484H5.91943V8.97168H5.12842V10H3.60352ZM1.88525 7.69287V7.77197H3.64307V4.81006H3.56396C3.04834 5.604 2.48877 6.56494 1.88525 7.69287ZM9.66357 10.1714C8.85498 10.1714 8.20166 10 7.70361 9.65723C7.2085 9.31445 6.96094 8.86475 6.96094 8.30811C6.96094 7.91846 7.09131 7.57715 7.35205 7.28418C7.61572 6.98828 7.96582 6.78906 8.40234 6.68652V6.60303C8.04492 6.52686 7.75781 6.36426 7.54102 6.11523C7.32422 5.86328 7.21582 5.57031 7.21582 5.23633C7.21582 4.72949 7.4458 4.31201 7.90576 3.98389C8.36572 3.65283 8.95312 3.4873 9.66797 3.4873C10.3828 3.4873 10.9702 3.65283 11.4302 3.98389C11.8901 4.31201 12.1201 4.72949 12.1201 5.23633C12.1201 5.57031 12.0117 5.86328 11.7949 6.11523C11.5781 6.36426 11.291 6.52686 10.9336 6.60303V6.68652C11.3672 6.76562 11.7158 6.95312 11.9795 7.24902C12.2461 7.54199 12.3794 7.89062 12.3794 8.29492C12.3794 8.85449 12.1289 9.30713 11.6279 9.65283C11.1299 9.99854 10.4751 10.1714 9.66357 10.1714ZM8.92969 8.7959C9.12012 8.95703 9.36621 9.0376 9.66797 9.0376C9.96973 9.0376 10.2144 8.95703 10.4019 8.7959C10.5894 8.63184 10.6831 8.41943 10.6831 8.15869C10.6831 7.89795 10.5879 7.68555 10.3975 7.52148C10.21 7.35742 9.9668 7.27539 9.66797 7.27539C9.36621 7.27539 9.12012 7.35742 8.92969 7.52148C8.74219 7.68555 8.64844 7.89795 8.64844 8.15869C8.64844 8.41943 8.74219 8.63184 8.92969 8.7959ZM9.04834 5.95264C9.2124 6.10205 9.41895 6.17676 9.66797 6.17676C9.91699 6.17676 10.1221 6.10205 10.2832 5.95264C10.4473 5.80322 10.5293 5.61426 10.5293 5.38574C10.5293 5.15723 10.4473 4.96826 10.2832 4.81885C10.1221 4.6665 9.91699 4.59033 9.66797 4.59033C9.41602 4.59033 9.20801 4.6665 9.04395 4.81885C8.88281 4.96826 8.80225 5.15723 8.80225 5.38574C8.80225 5.61426 8.88428 5.80322 9.04834 5.95264ZM15.0776 10V5.11328H14.9941L13.4648 6.146V4.75732L15.0776 3.65869H16.6904V10H15.0776ZM22.2583 7.31494V6.20312H23.0361C23.3057 6.20312 23.5225 6.13428 23.6865 5.99658C23.8506 5.85596 23.9326 5.66992 23.9326 5.43848C23.9326 5.20703 23.8506 5.02539 23.6865 4.89355C23.5254 4.75879 23.3042 4.69141 23.0229 4.69141C22.7476 4.69141 22.5234 4.76758 22.3506 4.91992C22.1777 5.06934 22.0869 5.26855 22.0781 5.51758H20.6147C20.6265 4.89648 20.8521 4.40283 21.2915 4.03662C21.7339 3.67041 22.3228 3.4873 23.0581 3.4873C23.7612 3.4873 24.3325 3.64844 24.772 3.9707C25.2114 4.29004 25.4312 4.70605 25.4312 5.21875C25.4312 5.58203 25.3198 5.89551 25.0972 6.15918C24.8774 6.42285 24.5889 6.58838 24.2314 6.65576V6.73926C24.668 6.78613 25.0151 6.94434 25.2729 7.21387C25.5337 7.48047 25.6641 7.81738 25.6641 8.22461C25.6641 8.79883 25.4194 9.26758 24.9302 9.63086C24.4409 9.99121 23.8081 10.1714 23.0317 10.1714C22.2905 10.1714 21.6899 9.98535 21.23 9.61328C20.77 9.23828 20.5254 8.74023 20.4961 8.11914H22.0342C22.0459 8.3623 22.1426 8.5542 22.3242 8.69482C22.5088 8.83252 22.7534 8.90137 23.0581 8.90137C23.3452 8.90137 23.5781 8.82812 23.7568 8.68164C23.9355 8.53223 24.0249 8.33887 24.0249 8.10156C24.0249 7.8584 23.937 7.6665 23.7612 7.52588C23.5854 7.38525 23.3438 7.31494 23.0361 7.31494H22.2583ZM28.481 7.31494V6.20312H29.2588C29.5283 6.20312 29.7451 6.13428 29.9092 5.99658C30.0732 5.85596 30.1553 5.66992 30.1553 5.43848C30.1553 5.20703 30.0732 5.02539 29.9092 4.89355C29.748 4.75879 29.5269 4.69141 29.2456 4.69141C28.9702 4.69141 28.7461 4.76758 28.5732 4.91992C28.4004 5.06934 28.3096 5.26855 28.3008 5.51758H26.8374C26.8491 4.89648 27.0747 4.40283 27.5142 4.03662C27.9565 3.67041 28.5454 3.4873 29.2808 3.4873C29.9839 3.4873 30.5552 3.64844 30.9946 3.9707C31.4341 4.29004 31.6538 4.70605 31.6538 5.21875C31.6538 5.58203 31.5425 5.89551 31.3198 6.15918C31.1001 6.42285 30.8115 6.58838 30.4541 6.65576V6.73926C30.8906 6.78613 31.2378 6.94434 31.4956 7.21387C31.7563 7.48047 31.8867 7.81738 31.8867 8.22461C31.8867 8.79883 31.6421 9.26758 31.1528 9.63086C30.6636 9.99121 30.0308 10.1714 29.2544 10.1714C28.5132 10.1714 27.9126 9.98535 27.4526 9.61328C26.9927 9.23828 26.748 8.74023 26.7188 8.11914H28.2568C28.2686 8.3623 28.3652 8.5542 28.5469 8.69482C28.7314 8.83252 28.9761 8.90137 29.2808 8.90137C29.5679 8.90137 29.8008 8.82812 29.9795 8.68164C30.1582 8.53223 30.2476 8.33887 30.2476 8.10156C30.2476 7.8584 30.1597 7.6665 29.9839 7.52588C29.8081 7.38525 29.5664 7.31494 29.2588 7.31494H28.481ZM32.937 5.60107C32.937 4.97119 33.1626 4.46143 33.6138 4.07178C34.0649 3.68213 34.6582 3.4873 35.3936 3.4873C36.1025 3.4873 36.6738 3.66016 37.1074 4.00586C37.5439 4.35156 37.7622 4.80566 37.7622 5.36816C37.7622 5.71973 37.6465 6.07129 37.415 6.42285C37.1836 6.77148 36.7866 7.19629 36.2241 7.69727L35.1782 8.65967V8.74316H37.8501V10H33.0293V8.92334L35.0332 7.03809C35.4961 6.61035 35.8066 6.29102 35.9648 6.08008C36.123 5.86914 36.2021 5.66992 36.2021 5.48242C36.2021 5.24805 36.123 5.06055 35.9648 4.91992C35.8066 4.77637 35.5972 4.70459 35.3364 4.70459C35.064 4.70459 34.8413 4.78809 34.6685 4.95508C34.4985 5.12207 34.4136 5.33594 34.4136 5.59668V5.62744H32.937V5.60107ZM42.7236 8.76953C42.9316 9.04492 43.2261 9.18262 43.6069 9.18262C43.9878 9.18262 44.2808 9.04492 44.4858 8.76953C44.6938 8.49121 44.7979 8.1001 44.7979 7.59619C44.7979 7.09521 44.6938 6.70557 44.4858 6.42725C44.2778 6.14893 43.9849 6.00977 43.6069 6.00977C43.2261 6.00977 42.9316 6.14893 42.7236 6.42725C42.5156 6.70557 42.4116 7.09521 42.4116 7.59619C42.4116 8.1001 42.5156 8.49121 42.7236 8.76953ZM43.6069 10.0967C42.8862 10.0967 42.3208 9.87549 41.9106 9.43311C41.5005 8.98779 41.2954 8.37549 41.2954 7.59619C41.2954 6.82275 41.502 6.21338 41.915 5.76807C42.3281 5.31982 42.8921 5.0957 43.6069 5.0957C44.3247 5.0957 44.8887 5.31836 45.2988 5.76367C45.7119 6.20898 45.9185 6.81982 45.9185 7.59619C45.9185 8.37549 45.7119 8.98779 45.2988 9.43311C44.8887 9.87549 44.3247 10.0967 43.6069 10.0967ZM50.6338 5.19238V6.0625H49.1528V10H48.063V6.0625H46.582V5.19238H50.6338ZM52.6992 10H51.6577V5.19238H53.0464L54.4702 8.50146H54.5493L55.9775 5.19238H57.3398V10H56.2939V6.73047H56.2148L54.8877 9.77588H54.1055L52.7827 6.73047H52.6992V10ZM60.7852 5.96143C60.46 5.96143 60.1919 6.06836 59.981 6.28223C59.77 6.49609 59.6528 6.77881 59.6294 7.13037H61.8926C61.8809 6.77295 61.7754 6.48877 61.5762 6.27783C61.377 6.06689 61.1133 5.96143 60.7852 5.96143ZM61.9014 8.67725H62.9341C62.8315 9.1167 62.5898 9.46387 62.209 9.71875C61.8311 9.9707 61.3608 10.0967 60.7983 10.0967C60.0923 10.0967 59.5371 9.87695 59.1328 9.4375C58.7314 8.99512 58.5308 8.38721 58.5308 7.61377C58.5308 6.84033 58.7329 6.22803 59.1372 5.77686C59.5415 5.32275 60.0923 5.0957 60.7896 5.0957C61.4751 5.0957 62.0112 5.31104 62.3979 5.7417C62.7876 6.16943 62.9824 6.7627 62.9824 7.52148V7.87305H59.625V7.93018C59.6396 8.33154 59.7539 8.64941 59.9678 8.88379C60.1846 9.11523 60.4717 9.23096 60.8291 9.23096C61.3799 9.23096 61.7373 9.04639 61.9014 8.67725ZM67.7197 5.19238V6.0625H66.2388V10H65.1489V6.0625H63.668V5.19238H67.7197ZM69.7939 8.76953C70.002 9.04492 70.2964 9.18262 70.6772 9.18262C71.0581 9.18262 71.3511 9.04492 71.5562 8.76953C71.7642 8.49121 71.8682 8.1001 71.8682 7.59619C71.8682 7.09521 71.7642 6.70557 71.5562 6.42725C71.3481 6.14893 71.0552 6.00977 70.6772 6.00977C70.2964 6.00977 70.002 6.14893 69.7939 6.42725C69.5859 6.70557 69.4819 7.09521 69.4819 7.59619C69.4819 8.1001 69.5859 8.49121 69.7939 8.76953ZM70.6772 10.0967C69.9565 10.0967 69.3911 9.87549 68.981 9.43311C68.5708 8.98779 68.3657 8.37549 68.3657 7.59619C68.3657 6.82275 68.5723 6.21338 68.9854 5.76807C69.3984 5.31982 69.9624 5.0957 70.6772 5.0957C71.395 5.0957 71.959 5.31836 72.3691 5.76367C72.7822 6.20898 72.9888 6.81982 72.9888 7.59619C72.9888 8.37549 72.7822 8.98779 72.3691 9.43311C71.959 9.87549 71.395 10.0967 70.6772 10.0967ZM75.2651 7.11719H75.4761L77.0889 5.19238H78.3457L76.377 7.41162L78.4424 10H77.1152L75.4849 7.93457H75.2651V10H74.1753V5.19238H75.2651V7.11719ZM85.1177 7.48633V7.53906L86.647 9.34521H85.5483L84.0234 7.53467V7.49951L85.5615 5.68457H86.647L85.1177 7.48633ZM82.9204 7.48633V7.53906L84.4497 9.34521H83.3555L81.8306 7.53467V7.49951L83.3687 5.68457H84.4497L82.9204 7.48633ZM93.5464 10H92.417V7.26221H89.332V10H88.1982V3.65869H89.332V6.28223H92.417V3.65869H93.5464V10ZM97.7036 5.11328C98.313 5.11328 98.7949 5.33447 99.1494 5.77686C99.5068 6.21924 99.6855 6.82568 99.6855 7.59619C99.6855 8.36377 99.5083 8.97021 99.1538 9.41553C98.8022 9.85791 98.3232 10.0791 97.7168 10.0791C97.374 10.0791 97.0737 10.0088 96.8159 9.86816C96.561 9.72461 96.3721 9.52539 96.249 9.27051H96.1743V11.5381H95.0845V5.19238H96.1348V5.98779H96.2095C96.3472 5.71533 96.5479 5.50146 96.8115 5.34619C97.0781 5.19092 97.3755 5.11328 97.7036 5.11328ZM97.3608 9.15186C97.7388 9.15186 98.0332 9.01416 98.2441 8.73877C98.458 8.46338 98.5649 8.08252 98.5649 7.59619C98.5649 7.10986 98.458 6.729 98.2441 6.45361C98.0332 6.17822 97.7402 6.04053 97.3652 6.04053C96.9932 6.04053 96.6987 6.17969 96.4819 6.45801C96.2651 6.73633 96.1553 7.11572 96.1523 7.59619C96.1553 8.07666 96.2637 8.45605 96.4775 8.73438C96.6943 9.0127 96.9888 9.15186 97.3608 9.15186ZM102.524 9.22217C102.853 9.22217 103.126 9.12842 103.346 8.94092C103.566 8.75049 103.676 8.51611 103.676 8.23779V7.85547L102.59 7.92578C101.993 7.96387 101.694 8.18066 101.694 8.57617C101.694 8.77539 101.77 8.93359 101.922 9.05078C102.078 9.16504 102.278 9.22217 102.524 9.22217ZM102.204 10.0791C101.735 10.0791 101.353 9.94727 101.057 9.68359C100.761 9.41992 100.613 9.07129 100.613 8.6377C100.613 8.2041 100.77 7.86426 101.083 7.61816C101.399 7.37207 101.851 7.23145 102.437 7.19629L103.676 7.12158V6.71729C103.676 6.47998 103.598 6.29834 103.443 6.17236C103.288 6.04639 103.063 5.9834 102.771 5.9834C102.519 5.9834 102.311 6.02734 102.146 6.11523C101.982 6.2002 101.875 6.32324 101.826 6.48438H100.797C100.841 6.05957 101.046 5.72266 101.413 5.47363C101.782 5.22168 102.252 5.0957 102.823 5.0957C103.438 5.0957 103.913 5.23779 104.247 5.52197C104.584 5.80615 104.752 6.20459 104.752 6.71729V10H103.702V9.34082H103.627C103.493 9.57227 103.299 9.75391 103.047 9.88574C102.798 10.0146 102.517 10.0791 102.204 10.0791ZM108.215 5.95703H107.253V7.15674H108.123C108.659 7.15674 108.927 6.95459 108.927 6.55029C108.927 6.36572 108.867 6.2207 108.747 6.11523C108.627 6.00977 108.45 5.95703 108.215 5.95703ZM108.193 7.87305H107.253V9.23535H108.286C108.558 9.23535 108.765 9.17676 108.905 9.05957C109.049 8.94238 109.121 8.77393 109.121 8.5542C109.121 8.1001 108.812 7.87305 108.193 7.87305ZM106.176 10V5.19238H108.461C108.945 5.19238 109.321 5.30225 109.591 5.52197C109.863 5.73877 110 6.03467 110 6.40967C110 6.65576 109.919 6.87695 109.758 7.07324C109.6 7.2666 109.402 7.38379 109.165 7.4248V7.50391C109.478 7.53613 109.73 7.65479 109.92 7.85986C110.114 8.06494 110.21 8.31543 110.21 8.61133C110.21 9.0332 110.057 9.37012 109.749 9.62207C109.444 9.87402 109.027 10 108.497 10H106.176ZM112.5 10H111.423V5.19238H112.5V8.37402H112.575L114.693 5.19238H115.77V10H114.693V6.79639H114.618L112.5 10ZM120.85 5.19238V6.0625H119.369V10H118.279V6.0625H116.798V5.19238H120.85ZM125.886 6.80957H124.849C124.796 6.56641 124.679 6.37305 124.497 6.22949C124.315 6.08301 124.08 6.00977 123.79 6.00977C123.415 6.00977 123.122 6.14746 122.911 6.42285C122.703 6.69824 122.599 7.08496 122.599 7.58301C122.599 8.08691 122.704 8.47949 122.915 8.76074C123.126 9.04199 123.417 9.18262 123.79 9.18262C124.074 9.18262 124.307 9.1167 124.488 8.98486C124.673 8.85303 124.793 8.6626 124.849 8.41357H125.886C125.824 8.92627 125.609 9.33496 125.24 9.63965C124.874 9.94434 124.392 10.0967 123.794 10.0967C123.07 10.0967 122.506 9.87549 122.102 9.43311C121.698 8.99072 121.496 8.37402 121.496 7.58301C121.496 6.80078 121.698 6.19141 122.102 5.75488C122.506 5.31543 123.069 5.0957 123.79 5.0957C124.393 5.0957 124.878 5.25244 125.244 5.56592C125.613 5.87646 125.827 6.29102 125.886 6.80957ZM128.751 7.56543H129.577V6.05811H128.751C128.487 6.05811 128.276 6.12842 128.118 6.26904C127.963 6.40674 127.885 6.5957 127.885 6.83594C127.885 7.0498 127.964 7.22559 128.123 7.36328C128.281 7.49805 128.49 7.56543 128.751 7.56543ZM129.577 10V8.3916H128.949L127.824 10H126.576L127.863 8.20264C127.535 8.10889 127.277 7.94043 127.09 7.69727C126.902 7.45117 126.809 7.1626 126.809 6.83154C126.809 6.32764 126.977 5.9292 127.314 5.63623C127.654 5.34033 128.105 5.19238 128.667 5.19238H130.649V10H129.577ZM133.611 7.48633L132.078 5.68457H133.163L134.701 7.49951V7.53467L133.176 9.34521H132.078L133.611 7.53906V7.48633ZM135.804 7.48633L134.275 5.68457H135.36L136.894 7.49951V7.53467L135.369 9.34521H134.275L135.804 7.53906V7.48633Z" transform="translate(60.095 271)" fill="#E9E6F5"/>
<mask id="mask1" mask-type="alpha" maskUnits="userSpaceOnUse" x="33" y="133" width="207" height="125">
<path d="M205.8 0H0V124.265H205.8V0Z" transform="translate(33.8457 133.652)" fill="white"/>
</mask>
<g mask="url(#mask1)">
<path d="M81.5504 27.3532C88.2812 31.5383 93.8003 36.7037 102.779 39.1387C115.795 42.6703 131.637 39.1163 142.358 33.6085C153.08 28.1007 160.593 20.8383 170.724 14.9746C199.797 -1.85764 249.184 -4.43586 285.457 6.9177C290.636 8.54028 295.67 10.4538 299.329 13.1036C304.09 16.5525 306.134 20.9547 307.666 25.2629C311.088 34.8875 312.522 44.709 311.938 54.5252C311.548 61.2013 309.3 68.7591 299.54 72.4295C296.46 73.5843 292.895 74.2199 289.358 74.8152C236.918 83.5436 181.289 82.9348 126.731 81.6234C86.061 80.6431 44.91 79.2555 6.06898 72.2706C4.28269 71.9483 2.39086 71.5723 1.2417 70.7264C-0.0599075 69.7685 -0.0950861 68.4458 0.0690804 67.2373C0.631937 63.2625 2.77783 59.4265 4.39604 55.5458C7.74637 47.4699 8.82701 39.1398 7.59729 30.8692C6.51457 23.5463 -0.763478 17.3537 14.2617 15.3036C37.843 12.0876 65.3135 17.2619 81.5504 27.3532Z" transform="translate(-3.56128 186.092)" fill="#3B3E52" fill-opacity="0.2"/>
</g>
<path d="M10.0631 20.1803C15.6208 20.1803 20.1262 15.6628 20.1262 10.0902C20.1262 4.51752 15.6208 0 10.0631 0C4.50539 0 0 4.51752 0 10.0902C0 15.6628 4.50539 20.1803 10.0631 20.1803Z" transform="translate(78.5062 146.319)" fill="#E9E6F5"/>
<path fill-rule="evenodd" clip-rule="evenodd" d="M35.7204 60.0558L41.3307 63.5003L44.0569 72.3871H24.6506V86.6114H19.9161V72.3871H0L4.28171 58.2056L11.8487 52.8125L5.42613 54.4166L7.91229 46.1761L17.7714 39.1493L9.40201 41.2356L12.6182 30.5807L21.8459 24.0066L14.0126 25.9585L17.0052 16.035L21.8459 12.187L17.7221 13.6566L21.8459 0L27.5483 18.5905L21.9314 17.5899L28.4757 21.6085L32.1786 33.6709L26.6571 32.6867L33.0862 36.6364L36.9306 49.158L31.215 47.977L37.8119 52.0284L40.5381 60.912L35.7204 60.0558Z" transform="translate(143.686 171.052)" fill="#E9E6F5"/>
<g filter="url(#filter1_d)">
<path d="M15.0691 0C16.6064 0 18.0104 0.631328 19.0225 1.77772C19.9879 2.87134 20.5196 4.33596 20.5196 5.90179C20.5196 7.60626 19.853 9.19154 18.4218 10.8908C17.1426 12.4095 15.3024 13.975 13.1716 15.7876L13.1643 15.7937C12.3724 16.4674 11.5536 17.164 10.682 17.9253L10.6558 17.9482C10.5425 18.0472 10.4011 18.0968 10.2598 18.0968C10.1185 18.0968 9.9772 18.0473 9.86386 17.9482L9.83761 17.9253C8.9635 17.1618 8.14244 16.4633 7.34847 15.7879L7.3482 15.7877C5.21724 13.9749 3.37701 12.4095 2.09785 10.8908C0.666608 9.19158 0 7.60626 0 5.90179C0 4.33596 0.531707 2.87134 1.49709 1.77776C2.50921 0.631368 3.91324 0 5.45053 0C7.61263 0 8.98147 1.28906 9.74904 2.37048C9.94822 2.6511 10.1176 2.93247 10.2598 3.19725C10.4021 2.93247 10.5715 2.6511 10.7706 2.37048C11.5382 1.28906 12.907 0 15.0691 0Z" transform="translate(34.095 268)" fill="#E9E6F5"/>
</g>
<path d="M161.125 0H16C7.16344 0 0 7.16345 0 16V123.387C0 132.224 7.16345 139.387 16 139.387H161.125C169.962 139.387 177.125 132.224 177.125 123.387V16C177.125 7.16344 169.962 0 161.125 0Z" transform="translate(380.97 243)" fill="url(#paint1_linear)"/>
<path d="M2.10645 7.11426C1.62207 7.11426 1.22754 6.9873 0.922852 6.7334C0.618164 6.47949 0.461914 6.1582 0.454102 5.76953H1.42969C1.45508 5.92383 1.53125 6.04883 1.6582 6.14453C1.78516 6.23828 1.9375 6.28516 2.11523 6.28516C2.3125 6.28516 2.47363 6.22266 2.59863 6.09766C2.72363 5.97266 2.78613 5.80762 2.78613 5.60254C2.78613 5.39355 2.72266 5.22461 2.5957 5.0957C2.4707 4.96484 2.30957 4.89941 2.1123 4.89941C1.8291 4.89941 1.61426 5.01562 1.46777 5.24805H0.521484L0.720703 2.77246H3.5332V3.61035H1.5498L1.4707 4.5918H1.52637C1.70605 4.30273 2.00488 4.1582 2.42285 4.1582C2.82324 4.1582 3.15234 4.29199 3.41016 4.55957C3.66992 4.8252 3.7998 5.16406 3.7998 5.57617C3.7998 6.03516 3.64453 6.40625 3.33398 6.68945C3.02344 6.97266 2.61426 7.11426 2.10645 7.11426ZM6.17871 7.11133C5.89941 7.11133 5.6416 7.06055 5.40527 6.95898C5.1709 6.85742 4.97852 6.71484 4.82812 6.53125C4.67773 6.34766 4.58398 6.1377 4.54688 5.90137H5.59863C5.63184 6.01855 5.70117 6.1123 5.80664 6.18262C5.91406 6.25098 6.04004 6.28516 6.18457 6.28516C6.44434 6.28516 6.64941 6.16309 6.7998 5.91895C6.95215 5.67285 7.01855 5.35449 6.99902 4.96387H6.96973H6.94336C6.84766 5.16113 6.70801 5.3125 6.52441 5.41797C6.34277 5.52344 6.12988 5.57617 5.88574 5.57617C5.48535 5.57617 5.15332 5.44434 4.88965 5.18066C4.62598 4.91504 4.49414 4.58203 4.49414 4.18164C4.49414 3.73633 4.65234 3.37109 4.96875 3.08594C5.28516 2.80078 5.69043 2.6582 6.18457 2.6582C6.4834 2.6582 6.75195 2.7168 6.99023 2.83398C7.22852 2.95117 7.42578 3.12109 7.58203 3.34375C7.87109 3.73047 8.01562 4.23926 8.01562 4.87012C8.01562 5.56348 7.85156 6.11035 7.52344 6.51074C7.19531 6.91113 6.74707 7.11133 6.17871 7.11133ZM6.19336 4.80566C6.38281 4.80566 6.54102 4.74316 6.66797 4.61816C6.79492 4.49316 6.8584 4.33789 6.8584 4.15234C6.8584 3.96484 6.79395 3.80762 6.66504 3.68066C6.53809 3.55176 6.38086 3.4873 6.19336 3.4873C6.00586 3.4873 5.84766 3.55176 5.71875 3.68066C5.58984 3.80762 5.52539 3.96387 5.52539 4.14941C5.52539 4.33691 5.58887 4.49316 5.71582 4.61816C5.84277 4.74316 6.00195 4.80566 6.19336 4.80566ZM10.1924 4.06738C10.1924 3.64746 10.3428 3.30762 10.6436 3.04785C10.9443 2.78809 11.3398 2.6582 11.8301 2.6582C12.3027 2.6582 12.6836 2.77344 12.9727 3.00391C13.2637 3.23438 13.4092 3.53711 13.4092 3.91211C13.4092 4.14648 13.332 4.38086 13.1777 4.61523C13.0234 4.84766 12.7588 5.13086 12.3838 5.46484L11.6865 6.10645V6.16211H13.4678V7H10.2539V6.28223L11.5898 5.02539C11.8984 4.74023 12.1055 4.52734 12.2109 4.38672C12.3164 4.24609 12.3691 4.11328 12.3691 3.98828C12.3691 3.83203 12.3164 3.70703 12.2109 3.61328C12.1055 3.51758 11.9658 3.46973 11.792 3.46973C11.6104 3.46973 11.4619 3.52539 11.3467 3.63672C11.2334 3.74805 11.1768 3.89062 11.1768 4.06445V4.08496H10.1924V4.06738ZM15.9463 7.11426C15.4619 7.11426 15.0674 6.9873 14.7627 6.7334C14.458 6.47949 14.3018 6.1582 14.2939 5.76953H15.2695C15.2949 5.92383 15.3711 6.04883 15.498 6.14453C15.625 6.23828 15.7773 6.28516 15.9551 6.28516C16.1523 6.28516 16.3135 6.22266 16.4385 6.09766C16.5635 5.97266 16.626 5.80762 16.626 5.60254C16.626 5.39355 16.5625 5.22461 16.4355 5.0957C16.3105 4.96484 16.1494 4.89941 15.9521 4.89941C15.6689 4.89941 15.4541 5.01562 15.3076 5.24805H14.3613L14.5605 2.77246H17.373V3.61035H15.3896L15.3105 4.5918H15.3662C15.5459 4.30273 15.8447 4.1582 16.2627 4.1582C16.6631 4.1582 16.9922 4.29199 17.25 4.55957C17.5098 4.8252 17.6396 5.16406 17.6396 5.57617C17.6396 6.03516 17.4844 6.40625 17.1738 6.68945C16.8633 6.97266 16.4541 7.11426 15.9463 7.11426ZM18.5566 7L20.3115 3.65723V3.59863H18.2637V2.76953H21.3867V3.60156L19.6816 7H18.5566ZM24.5859 6.17969C24.7246 6.36328 24.9209 6.45508 25.1748 6.45508C25.4287 6.45508 25.624 6.36328 25.7607 6.17969C25.8994 5.99414 25.9688 5.7334 25.9688 5.39746C25.9688 5.06348 25.8994 4.80371 25.7607 4.61816C25.6221 4.43262 25.4268 4.33984 25.1748 4.33984C24.9209 4.33984 24.7246 4.43262 24.5859 4.61816C24.4473 4.80371 24.3779 5.06348 24.3779 5.39746C24.3779 5.7334 24.4473 5.99414 24.5859 6.17969ZM25.1748 7.06445C24.6943 7.06445 24.3174 6.91699 24.0439 6.62207C23.7705 6.3252 23.6338 5.91699 23.6338 5.39746C23.6338 4.88184 23.7715 4.47559 24.0469 4.17871C24.3223 3.87988 24.6982 3.73047 25.1748 3.73047C25.6533 3.73047 26.0293 3.87891 26.3027 4.17578C26.5781 4.47266 26.7158 4.87988 26.7158 5.39746C26.7158 5.91699 26.5781 6.3252 26.3027 6.62207C26.0293 6.91699 25.6533 7.06445 25.1748 7.06445ZM29.8594 3.79492V4.375H28.8721V7H28.1455V4.375H27.1582V3.79492H29.8594ZM31.2363 7H30.542V3.79492H31.4678L32.417 6.00098H32.4697L33.4219 3.79492H34.3301V7H33.6328V4.82031H33.5801L32.6953 6.85059H32.1738L31.292 4.82031H31.2363V7ZM36.627 4.30762C36.4102 4.30762 36.2314 4.37891 36.0908 4.52148C35.9502 4.66406 35.8721 4.85254 35.8564 5.08691H37.3652C37.3574 4.84863 37.2871 4.65918 37.1543 4.51855C37.0215 4.37793 36.8457 4.30762 36.627 4.30762ZM37.3711 6.11816H38.0596C37.9912 6.41113 37.8301 6.64258 37.5762 6.8125C37.3242 6.98047 37.0107 7.06445 36.6357 7.06445C36.165 7.06445 35.7949 6.91797 35.5254 6.625C35.2578 6.33008 35.124 5.9248 35.124 5.40918C35.124 4.89355 35.2588 4.48535 35.5283 4.18457C35.7979 3.88184 36.165 3.73047 36.6299 3.73047C37.0869 3.73047 37.4443 3.87402 37.7021 4.16113C37.9619 4.44629 38.0918 4.8418 38.0918 5.34766V5.58203H35.8535V5.62012C35.8633 5.8877 35.9395 6.09961 36.082 6.25586C36.2266 6.41016 36.418 6.4873 36.6562 6.4873C37.0234 6.4873 37.2617 6.36426 37.3711 6.11816ZM41.25 3.79492V4.375H40.2627V7H39.5361V4.375H38.5488V3.79492H41.25ZM42.6328 6.17969C42.7715 6.36328 42.9678 6.45508 43.2217 6.45508C43.4756 6.45508 43.6709 6.36328 43.8076 6.17969C43.9463 5.99414 44.0156 5.7334 44.0156 5.39746C44.0156 5.06348 43.9463 4.80371 43.8076 4.61816C43.6689 4.43262 43.4736 4.33984 43.2217 4.33984C42.9678 4.33984 42.7715 4.43262 42.6328 4.61816C42.4941 4.80371 42.4248 5.06348 42.4248 5.39746C42.4248 5.7334 42.4941 5.99414 42.6328 6.17969ZM43.2217 7.06445C42.7412 7.06445 42.3643 6.91699 42.0908 6.62207C41.8174 6.3252 41.6807 5.91699 41.6807 5.39746C41.6807 4.88184 41.8184 4.47559 42.0938 4.17871C42.3691 3.87988 42.7451 3.73047 43.2217 3.73047C43.7002 3.73047 44.0762 3.87891 44.3496 4.17578C44.625 4.47266 44.7627 4.87988 44.7627 5.39746C44.7627 5.91699 44.625 6.3252 44.3496 6.62207C44.0762 6.91699 43.7002 7.06445 43.2217 7.06445ZM46.2803 5.07812H46.4209L47.4961 3.79492H48.334L47.0215 5.27441L48.3984 7H47.5137L46.4268 5.62305H46.2803V7H45.5537V3.79492H46.2803V5.07812ZM52.8486 5.32422V5.35938L53.8682 6.56348H53.1357L52.1191 5.35645V5.33301L53.1445 4.12305H53.8682L52.8486 5.32422ZM51.3838 5.32422V5.35938L52.4033 6.56348H51.6738L50.6572 5.35645V5.33301L51.6826 4.12305H52.4033L51.3838 5.32422ZM58.4678 7H57.7148V5.1748H55.6582V7H54.9023V2.77246H55.6582V4.52148H57.7148V2.77246H58.4678V7ZM61.2393 3.74219C61.6455 3.74219 61.9668 3.88965 62.2031 4.18457C62.4414 4.47949 62.5605 4.88379 62.5605 5.39746C62.5605 5.90918 62.4424 6.31348 62.2061 6.61035C61.9717 6.90527 61.6523 7.05273 61.248 7.05273C61.0195 7.05273 60.8193 7.00586 60.6475 6.91211C60.4775 6.81641 60.3516 6.68359 60.2695 6.51367H60.2197V8.02539H59.4932V3.79492H60.1934V4.3252H60.2432C60.335 4.14355 60.4688 4.00098 60.6445 3.89746C60.8223 3.79395 61.0205 3.74219 61.2393 3.74219ZM61.0107 6.43457C61.2627 6.43457 61.459 6.34277 61.5996 6.15918C61.7422 5.97559 61.8135 5.72168 61.8135 5.39746C61.8135 5.07324 61.7422 4.81934 61.5996 4.63574C61.459 4.45215 61.2637 4.36035 61.0137 4.36035C60.7656 4.36035 60.5693 4.45312 60.4248 4.63867C60.2803 4.82422 60.207 5.07715 60.2051 5.39746C60.207 5.71777 60.2793 5.9707 60.4219 6.15625C60.5664 6.3418 60.7627 6.43457 61.0107 6.43457ZM64.4531 6.48145C64.6719 6.48145 64.8545 6.41895 65.001 6.29395C65.1475 6.16699 65.2207 6.01074 65.2207 5.8252V5.57031L64.4971 5.61719C64.0986 5.64258 63.8994 5.78711 63.8994 6.05078C63.8994 6.18359 63.9502 6.28906 64.0518 6.36719C64.1553 6.44336 64.2891 6.48145 64.4531 6.48145ZM64.2393 7.05273C63.9268 7.05273 63.6719 6.96484 63.4746 6.78906C63.2773 6.61328 63.1787 6.38086 63.1787 6.0918C63.1787 5.80273 63.2832 5.57617 63.4922 5.41211C63.7031 5.24805 64.0039 5.1543 64.3945 5.13086L65.2207 5.08105V4.81152C65.2207 4.65332 65.1689 4.53223 65.0654 4.44824C64.9619 4.36426 64.8125 4.32227 64.6172 4.32227C64.4492 4.32227 64.3105 4.35156 64.2012 4.41016C64.0918 4.4668 64.0205 4.54883 63.9873 4.65625H63.3018C63.3311 4.37305 63.4678 4.14844 63.7119 3.98242C63.958 3.81445 64.2715 3.73047 64.6523 3.73047C65.0625 3.73047 65.3789 3.8252 65.6016 4.01465C65.8262 4.2041 65.9385 4.46973 65.9385 4.81152V7H65.2383V6.56055H65.1885C65.0986 6.71484 64.9697 6.83594 64.8018 6.92383C64.6357 7.00977 64.4482 7.05273 64.2393 7.05273ZM68.2471 4.30469H67.6055V5.10449H68.1855C68.543 5.10449 68.7217 4.96973 68.7217 4.7002C68.7217 4.57715 68.6816 4.48047 68.6016 4.41016C68.5215 4.33984 68.4033 4.30469 68.2471 4.30469ZM68.2324 5.58203H67.6055V6.49023H68.2939C68.4756 6.49023 68.6133 6.45117 68.707 6.37305C68.8027 6.29492 68.8506 6.18262 68.8506 6.03613C68.8506 5.7334 68.6445 5.58203 68.2324 5.58203ZM66.8877 7V3.79492H68.4111C68.7334 3.79492 68.9844 3.86816 69.1641 4.01465C69.3457 4.15918 69.4365 4.35645 69.4365 4.60645C69.4365 4.77051 69.3828 4.91797 69.2754 5.04883C69.1699 5.17773 69.0381 5.25586 68.8799 5.2832V5.33594C69.0889 5.35742 69.2568 5.43652 69.3838 5.57324C69.5127 5.70996 69.5771 5.87695 69.5771 6.07422C69.5771 6.35547 69.4746 6.58008 69.2695 6.74805C69.0664 6.91602 68.7881 7 68.4346 7H66.8877ZM71.1035 7H70.3857V3.79492H71.1035V5.91602H71.1533L72.5654 3.79492H73.2832V7H72.5654V4.86426H72.5156L71.1035 7ZM76.6699 3.79492V4.375H75.6826V7H74.9561V4.375H73.9688V3.79492H76.6699ZM80.0273 4.87305H79.3359C79.3008 4.71094 79.2227 4.58203 79.1016 4.48633C78.9805 4.38867 78.8232 4.33984 78.6299 4.33984C78.3799 4.33984 78.1846 4.43164 78.0439 4.61523C77.9053 4.79883 77.8359 5.05664 77.8359 5.38867C77.8359 5.72461 77.9062 5.98633 78.0469 6.17383C78.1875 6.36133 78.3818 6.45508 78.6299 6.45508C78.8193 6.45508 78.9746 6.41113 79.0957 6.32324C79.2188 6.23535 79.2988 6.1084 79.3359 5.94238H80.0273C79.9863 6.28418 79.8428 6.55664 79.5967 6.75977C79.3525 6.96289 79.0312 7.06445 78.6328 7.06445C78.1504 7.06445 77.7744 6.91699 77.5049 6.62207C77.2354 6.32715 77.1006 5.91602 77.1006 5.38867C77.1006 4.86719 77.2354 4.46094 77.5049 4.16992C77.7744 3.87695 78.1494 3.73047 78.6299 3.73047C79.0322 3.73047 79.3555 3.83496 79.5996 4.04395C79.8457 4.25098 79.9883 4.52734 80.0273 4.87305ZM81.9375 5.37695H82.4883V4.37207H81.9375C81.7617 4.37207 81.6211 4.41895 81.5156 4.5127C81.4121 4.60449 81.3604 4.73047 81.3604 4.89062C81.3604 5.0332 81.4131 5.15039 81.5186 5.24219C81.624 5.33203 81.7637 5.37695 81.9375 5.37695ZM82.4883 7V5.92773H82.0693L81.3193 7H80.4873L81.3457 5.80176C81.127 5.73926 80.9551 5.62695 80.8301 5.46484C80.7051 5.30078 80.6426 5.1084 80.6426 4.8877C80.6426 4.55176 80.7549 4.28613 80.9795 4.09082C81.2061 3.89355 81.5068 3.79492 81.8818 3.79492H83.2031V7H82.4883ZM85.1777 5.32422L84.1553 4.12305H84.8789L85.9043 5.33301V5.35645L84.8877 6.56348H84.1553L85.1777 5.35938V5.32422ZM86.6396 5.32422L85.6201 4.12305H86.3438L87.3662 5.33301V5.35645L86.3496 6.56348H85.6201L86.6396 5.35938V5.32422Z" transform="translate(446.91 360.758)" fill="#E9E6F5"/>
<mask id="mask2" mask-type="alpha" maskUnits="userSpaceOnUse" x="387" y="250" width="165" height="100">
<path d="M164.13 0H0V99.0129H164.13V0Z" transform="translate(387.227 250.69)" fill="white"/>
</mask>
<g mask="url(#mask2)">
<path d="M65.0381 21.7948C70.4061 25.1295 74.8077 29.2452 81.9681 31.1854C92.3487 33.9994 104.983 31.1676 113.534 26.779C122.084 22.3904 128.076 16.6038 136.156 11.9317C159.342 -1.48015 198.729 -3.53446 227.658 5.51196C231.788 6.80482 235.803 8.3295 238.721 10.4409C242.518 13.1889 244.148 16.6965 245.37 20.1293C248.099 27.798 249.242 35.6237 248.777 43.4452C248.466 48.7647 246.673 54.7867 238.889 57.7112C236.433 58.6314 233.59 59.1378 230.769 59.6121C188.947 66.5668 144.582 66.0818 101.071 65.0368C68.6355 64.2557 35.8166 63.1501 4.84013 57.5846C3.41553 57.3278 1.90676 57.0282 0.99028 56.3542C-0.0477775 55.5909 -0.0758331 54.537 0.055093 53.5741C0.503983 50.407 2.21538 47.3505 3.50593 44.2584C6.17789 37.8236 7.03972 31.1863 6.05899 24.5963C5.19551 18.7615 -0.608889 13.8273 11.374 12.1938C30.1806 9.63127 52.0889 13.7541 65.0381 21.7948Z" transform="translate(357.394 292.474)" fill="#3B3E52" fill-opacity="0.2"/>
</g>
<path d="M8.02551 16.0795C12.4579 16.0795 16.051 12.48 16.051 8.03975C16.051 3.59952 12.4579 0 8.02551 0C3.59315 0 0 3.59952 0 8.03975C0 12.48 3.59315 16.0795 8.02551 16.0795Z" transform="translate(422.844 260.784)" fill="#E9E6F5"/>
<path fill-rule="evenodd" clip-rule="evenodd" d="M28.4877 47.8519L32.9621 50.5965L35.1363 57.6774H19.6594V69.0112H15.8835V57.6774H0L3.41473 46.3777L9.44958 42.0805L4.32745 43.3587L6.31024 36.7927L14.173 31.1938L7.49829 32.8562L10.0633 24.3664L17.4226 19.1282L11.1753 20.6835L13.562 12.7765L17.4226 9.71049L14.1337 10.8815L17.4226 0L21.9703 14.8127L17.4908 14.0155L22.71 17.2175L25.6631 26.8287L21.2596 26.0445L26.387 29.1916L29.4529 39.1687L24.8947 38.2277L30.1558 41.4558L32.33 48.5341L28.4877 47.8519Z" transform="translate(474.827 280.49)" fill="#E9E6F5"/>
<g filter="url(#filter2_d)">
<path d="M37.8211 0C41.6795 0 45.2034 1.59295 47.7436 4.48549C50.1666 7.24489 51.5011 10.9404 51.5011 14.8912C51.5011 19.1919 49.828 23.1918 46.2358 27.4794C43.0254 31.3114 38.4067 35.2613 33.0586 39.8348L33.0401 39.8507C31.0526 41.5504 28.9976 43.3079 26.8103 45.2285L26.7444 45.2865C26.4599 45.5363 26.1052 45.6613 25.7506 45.6613C25.3959 45.6613 25.0412 45.5364 24.7568 45.2865L24.6909 45.2285C22.4969 43.3021 20.4361 41.5397 18.4433 39.8354L18.4428 39.835C13.0945 35.2612 8.47576 31.3113 5.26529 27.4794C1.67308 23.1919 0 19.1919 0 14.8912C0 10.9404 1.3345 7.24489 3.75747 4.48559C6.29772 1.59305 9.82163 0 13.68 0C19.1065 0 22.5421 3.25252 24.4686 5.98113C24.9685 6.68917 25.3936 7.39913 25.7506 8.0672C26.1076 7.39913 26.5327 6.68917 27.0326 5.98113C28.959 3.25252 32.3946 0 37.8211 0Z" transform="translate(387.227 342.494)" fill="#ED4956"/>
</g>
<g filter="url(#filter3_d)">
<path d="M15.1992 0C16.7497 0 18.1659 0.637179 19.1867 1.7942C20.1604 2.89795 20.6967 4.37615 20.6967 5.9565C20.6967 7.67676 20.0244 9.27673 18.5808 10.9917C17.2906 12.5246 15.4345 14.1045 13.2852 15.9339L13.2778 15.9403C12.479 16.6202 11.6532 17.3232 10.7742 18.0914L10.7477 18.1146C10.6334 18.2145 10.4909 18.2645 10.3484 18.2645C10.2058 18.2645 10.0633 18.2146 9.94898 18.1146L9.9225 18.0914C9.04076 17.3208 8.21254 16.6158 7.41165 15.934L7.41161 15.934C5.26226 14.1045 3.40615 12.5245 2.11596 10.9917C0.67236 9.27677 0 7.67676 0 5.9565C0 4.37615 0.536296 2.89796 1.51001 1.79424C2.53086 0.63722 3.94701 0 5.49756 0C7.67832 0 9.05898 1.30101 9.83316 2.39245C10.0341 2.67567 10.2049 2.95965 10.3484 3.22688C10.4918 2.95965 10.6627 2.67567 10.8636 2.39245C11.6377 1.30101 13.0184 0 15.1992 0Z" transform="translate(374.713 320.384)" fill="#ED4956"/>
</g>
<g filter="url(#filter4_d)">
<path d="M12.0179 0C13.244 0 14.3637 0.503036 15.1709 1.41647C15.9408 2.28786 16.3648 3.45485 16.3648 4.7025C16.3648 6.0606 15.8332 7.32374 14.6918 8.6777C13.6716 9.88782 12.204 11.1351 10.5046 12.5794L10.4989 12.5843C9.86728 13.1211 9.21425 13.6761 8.51915 14.2827L8.49821 14.301C8.40782 14.3799 8.29512 14.4194 8.18242 14.4194C8.06972 14.4194 7.95702 14.3799 7.86663 14.301L7.8457 14.2827C7.14855 13.6743 6.49371 13.1178 5.86048 12.5796L5.86034 12.5795C4.16086 11.1351 2.69323 9.88779 1.67308 8.6777C0.531634 7.32377 0 6.0606 0 4.7025C0 3.45485 0.424048 2.28786 1.19396 1.4165C2.00115 0.503069 3.12089 0 4.34691 0C6.07123 0 7.16291 1.02711 7.77506 1.88878C7.93391 2.11237 8.06899 2.33657 8.18242 2.54754C8.29586 2.33657 8.43096 2.11237 8.58979 1.88878C9.20193 1.02711 10.2936 0 12.0179 0Z" transform="translate(398.778 298.274)" fill="#ED4956"/>
</g>
<path fill-rule="evenodd" clip-rule="evenodd" d="M9.7095 5.04234C10.2518 5.04234 10.6915 4.60334 10.6915 4.06177V0.980471C10.6915 0.439 10.2519 0 9.7095 0C9.16733 0 8.72757 0.438902 8.72757 0.980471V4.06187C8.72757 4.60334 9.16724 5.04234 9.7095 5.04234ZM2.92145 2.91733C3.30515 2.53459 3.92673 2.53469 4.31024 2.91733L6.49188 5.09604C6.8754 5.47897 6.8754 6.09971 6.49188 6.48264C6.3002 6.67405 6.04889 6.76981 5.79767 6.76981C5.54623 6.76981 5.29501 6.67405 5.10333 6.48264L2.92145 4.30402C2.53806 3.92109 2.53806 3.30025 2.92145 2.91733ZM23.2294 18.963L29.0728 24.798C29.4563 25.1809 29.4563 25.8016 29.0729 26.1846L26.2215 29.0321C26.0374 29.216 25.7877 29.3194 25.5272 29.3194C25.2669 29.3194 25.017 29.216 24.8329 29.0321L18.9898 23.1971L16.582 27.3598C16.394 27.6852 16.0363 27.8745 15.661 27.8473C15.2857 27.8202 14.959 27.5814 14.8195 27.2326L7.40524 8.66827C7.2598 8.30439 7.34552 7.88898 7.62302 7.61178C7.90054 7.33478 8.31668 7.24919 8.68109 7.3945L27.2709 14.799C27.6203 14.9381 27.8593 15.2643 27.8864 15.6391C27.9135 16.0137 27.724 16.3708 27.3982 16.5586L23.2294 18.963ZM5.04965 9.69563C5.04965 9.15425 4.61002 8.71516 4.06763 8.71516H0.982025C0.439758 8.71516 0 9.15416 0 9.69563C0 10.2371 0.439667 10.6762 0.982025 10.6762H4.06763C4.61002 10.6761 5.04965 10.2371 5.04965 9.69563ZM2.46945 14.9006L4.65164 12.7217C5.03534 12.339 5.6568 12.3391 6.04019 12.7217C6.42371 13.1047 6.42371 13.7255 6.04019 14.1084L3.85812 16.2872C3.66644 16.4786 3.41501 16.5743 3.16379 16.5743C2.91257 16.5743 2.66125 16.4786 2.46945 16.2872C2.08606 15.9043 2.08606 15.2835 2.46945 14.9006ZM14.1283 6.0314C13.9366 6.22281 13.6854 6.31857 13.434 6.31857C13.1826 6.31857 12.9314 6.22281 12.7396 6.0314C12.3561 5.64857 12.3561 5.02773 12.7396 4.6448L14.9214 2.46609C15.3048 2.08335 15.9265 2.08335 16.3101 2.46609C16.6935 2.84901 16.6935 3.46985 16.3101 3.85278L14.1283 6.0314Z" transform="translate(408.886 362.681)" fill="#E9E6F5"/>
<path fill-rule="evenodd" clip-rule="evenodd" d="M2.92099 0.0469838C3.16089 0.161322 3.26255 0.448219 3.14805 0.687785C2.32803 2.40352 1.33456 5.37596 1.04526 8.66969C0.755844 11.9648 1.17521 15.5282 3.11608 18.4816C3.26192 18.7035 3.19999 19.0015 2.97775 19.1471C2.75551 19.2928 2.45711 19.2309 2.31127 19.009C0.209055 15.8101 -0.21389 12.0036 0.0863068 8.5857C0.386628 5.16642 1.41469 2.08273 2.27929 0.273729C2.39379 0.0341626 2.68109 -0.0673546 2.92099 0.0469838Z" transform="translate(372.961 348.261)" fill="#E9E6F5"/>
<path fill-rule="evenodd" clip-rule="evenodd" d="M2.98108 0.0830111C3.20086 0.23217 3.25816 0.53133 3.10906 0.751204C2.30188 1.94154 1.32582 4.00287 1.04235 6.27754C0.760341 8.54059 1.16522 10.9794 3.06276 13.0145C3.24392 13.2088 3.23333 13.5132 3.03912 13.6944C2.84491 13.8756 2.54062 13.8651 2.35946 13.6708C0.217574 11.3736 -0.219096 8.62263 0.0879734 6.15852C0.393594 3.70603 1.43724 1.50275 2.31315 0.211051C2.46225 -0.00882239 2.76129 -0.066148 2.98108 0.0830111Z" transform="matrix(-0.596041 0.802954 -0.803752 -0.594964 443.367 342.356)" fill="#E9E6F5"/>
<path fill-rule="evenodd" clip-rule="evenodd" d="M1.62753 0.0400121C1.87123 0.14591 1.98287 0.429153 1.87689 0.672654C1.53615 1.4555 1.11841 2.8255 0.996934 4.34416C0.87522 5.86585 1.05491 7.48305 1.84861 8.80927C1.98499 9.03716 1.91066 9.33238 1.68258 9.46865C1.4545 9.60493 1.15905 9.53066 1.02266 9.30277C0.0877049 7.74052 -0.092743 5.8976 0.037638 4.26756C0.168261 2.63449 0.614841 1.16116 0.994377 0.289164C1.10036 0.0456637 1.38383 -0.0658856 1.62753 0.0400121Z" transform="matrix(0.888948 -0.458007 0.459022 0.888425 365.095 369.055)" fill="#DADADA"/>
<path d="M352 0H16C7.16345 0 2.31616e-06 7.16345 2.31616e-06 16V274C2.31616e-06 282.837 7.16345 290 16 290H352C360.837 290 368 282.837 368 274V16C368 7.16345 360.837 0 352 0Z" transform="translate(129.095 182)" fill="url(#paint2_linear)"/>
<path d="M324 0H16C7.16345 0 2.13993e-06 7.16344 2.13993e-06 16V193C2.13993e-06 201.837 7.16345 209 16 209H324C332.837 209 340 201.837 340 193V16C340 7.16344 332.837 0 324 0Z" transform="translate(143 198)" fill="url(#paint3_linear)"/>
<path d="M324 0H16C7.16345 0 2.13993e-06 7.16344 2.13993e-06 16V193C2.13993e-06 201.837 7.16345 209 16 209H324C332.837 209 340 201.837 340 193V16C340 7.16344 332.837 0 324 0Z" transform="translate(143 198)" fill="url(#paint4_linear)"/>
<path d="M6.31934 17.3428C4.86621 17.3428 3.68262 16.9619 2.76855 16.2002C1.85449 15.4385 1.38574 14.4746 1.3623 13.3086H4.28906C4.36523 13.7715 4.59375 14.1465 4.97461 14.4336C5.35547 14.7148 5.8125 14.8555 6.3457 14.8555C6.9375 14.8555 7.4209 14.668 7.7959 14.293C8.1709 13.918 8.3584 13.4229 8.3584 12.8076C8.3584 12.1807 8.16797 11.6738 7.78711 11.2871C7.41211 10.8945 6.92871 10.6982 6.33691 10.6982C5.4873 10.6982 4.84277 11.0469 4.40332 11.7441H1.56445L2.16211 4.31738H10.5996V6.83105H4.64941L4.41211 9.77539H4.5791C5.11816 8.9082 6.01465 8.47461 7.26855 8.47461C8.46973 8.47461 9.45703 8.87598 10.2305 9.67871C11.0098 10.4756 11.3994 11.4922 11.3994 12.7285C11.3994 14.1055 10.9336 15.2188 10.002 16.0684C9.07031 16.918 7.84277 17.3428 6.31934 17.3428ZM18.5361 17.334C17.6982 17.334 16.9248 17.1816 16.2158 16.877C15.5127 16.5723 14.9355 16.1445 14.4844 15.5938C14.0332 15.043 13.752 14.4131 13.6406 13.7041H16.7959C16.8955 14.0557 17.1035 14.3369 17.4199 14.5479C17.7422 14.7529 18.1201 14.8555 18.5537 14.8555C19.333 14.8555 19.9482 14.4893 20.3994 13.7568C20.8564 13.0186 21.0557 12.0635 20.9971 10.8916H20.9092H20.8301C20.543 11.4834 20.124 11.9375 19.5732 12.2539C19.0283 12.5703 18.3896 12.7285 17.6572 12.7285C16.4561 12.7285 15.46 12.333 14.6689 11.542C13.8779 10.7451 13.4824 9.74609 13.4824 8.54492C13.4824 7.20898 13.957 6.11328 14.9062 5.25781C15.8555 4.40234 17.0713 3.97461 18.5537 3.97461C19.4502 3.97461 20.2559 4.15039 20.9707 4.50195C21.6855 4.85352 22.2773 5.36328 22.7461 6.03125C23.6133 7.19141 24.0469 8.71777 24.0469 10.6104C24.0469 12.6904 23.5547 14.3311 22.5703 15.5322C21.5859 16.7334 20.2412 17.334 18.5361 17.334ZM18.5801 10.417C19.1484 10.417 19.623 10.2295 20.0039 9.85449C20.3848 9.47949 20.5752 9.01367 20.5752 8.45703C20.5752 7.89453 20.3818 7.42285 19.9951 7.04199C19.6143 6.65527 19.1426 6.46191 18.5801 6.46191C18.0176 6.46191 17.543 6.65527 17.1562 7.04199C16.7695 7.42285 16.5762 7.8916 16.5762 8.44824C16.5762 9.01074 16.7666 9.47949 17.1475 9.85449C17.5283 10.2295 18.0059 10.417 18.5801 10.417ZM30.5771 8.20215C30.5771 6.94238 31.0283 5.92285 31.9307 5.14355C32.833 4.36426 34.0195 3.97461 35.4902 3.97461C36.9082 3.97461 38.0508 4.32031 38.918 5.01172C39.791 5.70313 40.2275 6.61133 40.2275 7.73633C40.2275 8.43945 39.9961 9.14258 39.5332 9.8457C39.0703 10.543 38.2764 11.3926 37.1514 12.3945L35.0596 14.3193V14.4863H40.4033V17H30.7617V14.8467L34.7695 11.0762C35.6953 10.2207 36.3164 9.58203 36.6328 9.16016C36.9492 8.73828 37.1074 8.33984 37.1074 7.96484C37.1074 7.49609 36.9492 7.12109 36.6328 6.83984C36.3164 6.55273 35.8975 6.40918 35.376 6.40918C34.8311 6.40918 34.3857 6.57617 34.04 6.91016C33.7002 7.24414 33.5303 7.67188 33.5303 8.19336V8.25488H30.5771V8.20215ZM47.8389 17.3428C46.3857 17.3428 45.2021 16.9619 44.2881 16.2002C43.374 15.4385 42.9053 14.4746 42.8818 13.3086H45.8086C45.8848 13.7715 46.1133 14.1465 46.4941 14.4336C46.875 14.7148 47.332 14.8555 47.8652 14.8555C48.457 14.8555 48.9404 14.668 49.3154 14.293C49.6904 13.918 49.8779 13.4229 49.8779 12.8076C49.8779 12.1807 49.6875 11.6738 49.3066 11.2871C48.9316 10.8945 48.4482 10.6982 47.8564 10.6982C47.0068 10.6982 46.3623 11.0469 45.9229 11.7441H43.084L43.6816 4.31738H52.1191V6.83105H46.1689L45.9316 9.77539H46.0986C46.6377 8.9082 47.5342 8.47461 48.7881 8.47461C49.9893 8.47461 50.9766 8.87598 51.75 9.67871C52.5293 10.4756 52.9189 11.4922 52.9189 12.7285C52.9189 14.1055 52.4531 15.2188 51.5215 16.0684C50.5898 16.918 49.3623 17.3428 47.8389 17.3428ZM55.6699 17L60.9346 6.97168V6.7959H54.791V4.30859H64.1602V6.80469L59.0449 17H55.6699ZM70.8809 15.3594C71.1582 15.7266 71.5508 15.9102 72.0586 15.9102C72.5664 15.9102 72.957 15.7266 73.2305 15.3594C73.5078 14.9883 73.6465 14.4668 73.6465 13.7949C73.6465 13.127 73.5078 12.6074 73.2305 12.2363C72.9531 11.8652 72.5625 11.6797 72.0586 11.6797C71.5508 11.6797 71.1582 11.8652 70.8809 12.2363C70.6035 12.6074 70.4648 13.127 70.4648 13.7949C70.4648 14.4668 70.6035 14.9883 70.8809 15.3594ZM72.0586 17.1289C71.0977 17.1289 70.3438 16.834 69.7969 16.2441C69.25 15.6504 68.9766 14.834 68.9766 13.7949C68.9766 12.7637 69.252 11.9512 69.8027 11.3574C70.3535 10.7598 71.1055 10.4609 72.0586 10.4609C73.0156 10.4609 73.7676 10.7578 74.3145 11.3516C74.8652 11.9453 75.1406 12.7598 75.1406 13.7949C75.1406 14.834 74.8652 15.6504 74.3145 16.2441C73.7676 16.834 73.0156 17.1289 72.0586 17.1289ZM81.4277 10.5898V11.75H79.4531V17H78V11.75H76.0254V10.5898H81.4277ZM84.1816 17H82.793V10.5898H84.6445L86.543 15.002H86.6484L88.5527 10.5898H90.3691V17H88.9746V12.6406H88.8691L87.0996 16.7012H86.0566L84.293 12.6406H84.1816V17ZM94.9629 11.6152C94.5293 11.6152 94.1719 11.7578 93.8906 12.043C93.6094 12.3281 93.4531 12.7051 93.4219 13.1738H96.4395C96.4238 12.6973 96.2832 12.3184 96.0176 12.0371C95.752 11.7559 95.4004 11.6152 94.9629 11.6152ZM96.4512 15.2363H97.8281C97.6914 15.8223 97.3691 16.2852 96.8613 16.625C96.3574 16.9609 95.7305 17.1289 94.9805 17.1289C94.0391 17.1289 93.2988 16.8359 92.7598 16.25C92.2246 15.6602 91.957 14.8496 91.957 13.8184C91.957 12.7871 92.2266 11.9707 92.7656 11.3691C93.3047 10.7637 94.0391 10.4609 94.9688 10.4609C95.8828 10.4609 96.5977 10.748 97.1133 11.3223C97.6328 11.8926 97.8926 12.6836 97.8926 13.6953V14.1641H93.416V14.2402C93.4355 14.7754 93.5879 15.1992 93.873 15.5117C94.1621 15.8203 94.5449 15.9746 95.0215 15.9746C95.7559 15.9746 96.2324 15.7285 96.4512 15.2363ZM104.209 10.5898V11.75H102.234V17H100.781V11.75H98.8066V10.5898H104.209ZM106.975 15.3594C107.252 15.7266 107.645 15.9102 108.152 15.9102C108.66 15.9102 109.051 15.7266 109.324 15.3594C109.602 14.9883 109.74 14.4668 109.74 13.7949C109.74 13.127 109.602 12.6074 109.324 12.2363C109.047 11.8652 108.656 11.6797 108.152 11.6797C107.645 11.6797 107.252 11.8652 106.975 12.2363C106.697 12.6074 106.559 13.127 106.559 13.7949C106.559 14.4668 106.697 14.9883 106.975 15.3594ZM108.152 17.1289C107.191 17.1289 106.438 16.834 105.891 16.2441C105.344 15.6504 105.07 14.834 105.07 13.7949C105.07 12.7637 105.346 11.9512 105.896 11.3574C106.447 10.7598 107.199 10.4609 108.152 10.4609C109.109 10.4609 109.861 10.7578 110.408 11.3516C110.959 11.9453 111.234 12.7598 111.234 13.7949C111.234 14.834 110.959 15.6504 110.408 16.2441C109.861 16.834 109.109 17.1289 108.152 17.1289ZM114.27 13.1562H114.551L116.701 10.5898H118.377L115.752 13.5488L118.506 17H116.736L114.562 14.2461H114.27V17H112.816V10.5898H114.27V13.1562ZM127.406 13.6484V13.7188L129.445 16.127H127.98L125.947 13.7129V13.666L127.998 11.2461H129.445L127.406 13.6484ZM124.477 13.6484V13.7188L126.516 16.127H125.057L123.023 13.7129V13.666L125.074 11.2461H126.516L124.477 13.6484ZM138.645 17H137.139V13.3496H133.025V17H131.514V8.54492H133.025V12.043H137.139V8.54492H138.645V17ZM144.188 10.4844C145 10.4844 145.643 10.7793 146.115 11.3691C146.592 11.959 146.83 12.7676 146.83 13.7949C146.83 14.8184 146.594 15.627 146.121 16.2207C145.652 16.8105 145.014 17.1055 144.205 17.1055C143.748 17.1055 143.348 17.0117 143.004 16.8242C142.664 16.6328 142.412 16.3672 142.248 16.0273H142.148V19.0508H140.695V10.5898H142.096V11.6504H142.195C142.379 11.2871 142.646 11.002 142.998 10.7949C143.354 10.5879 143.75 10.4844 144.188 10.4844ZM143.73 15.8691C144.234 15.8691 144.627 15.6855 144.908 15.3184C145.193 14.9512 145.336 14.4434 145.336 13.7949C145.336 13.1465 145.193 12.6387 144.908 12.2715C144.627 11.9043 144.236 11.7207 143.736 11.7207C143.24 11.7207 142.848 11.9062 142.559 12.2773C142.27 12.6484 142.123 13.1543 142.119 13.7949C142.123 14.4355 142.268 14.9414 142.553 15.3125C142.842 15.6836 143.234 15.8691 143.73 15.8691ZM150.615 15.9629C151.053 15.9629 151.418 15.8379 151.711 15.5879C152.004 15.334 152.15 15.0215 152.15 14.6504V14.1406L150.703 14.2344C149.906 14.2852 149.508 14.5742 149.508 15.1016C149.508 15.3672 149.609 15.5781 149.812 15.7344C150.02 15.8867 150.287 15.9629 150.615 15.9629ZM150.188 17.1055C149.562 17.1055 149.053 16.9297 148.658 16.5781C148.264 16.2266 148.066 15.7617 148.066 15.1836C148.066 14.6055 148.275 14.1523 148.693 13.8242C149.115 13.4961 149.717 13.3086 150.498 13.2617L152.15 13.1621V12.623C152.15 12.3066 152.047 12.0645 151.84 11.8965C151.633 11.7285 151.334 11.6445 150.943 11.6445C150.607 11.6445 150.33 11.7031 150.111 11.8203C149.893 11.9336 149.75 12.0977 149.684 12.3125H148.312C148.371 11.7461 148.645 11.2969 149.133 10.9648C149.625 10.6289 150.252 10.4609 151.014 10.4609C151.834 10.4609 152.467 10.6504 152.912 11.0293C153.361 11.4082 153.586 11.9395 153.586 12.623V17H152.186V16.1211H152.086C151.906 16.4297 151.648 16.6719 151.312 16.8477C150.98 17.0195 150.605 17.1055 150.188 17.1055ZM158.203 11.6094H156.92V13.209H158.08C158.795 13.209 159.152 12.9395 159.152 12.4004C159.152 12.1543 159.072 11.9609 158.912 11.8203C158.752 11.6797 158.516 11.6094 158.203 11.6094ZM158.174 14.1641H156.92V15.9805H158.297C158.66 15.9805 158.936 15.9023 159.123 15.7461C159.314 15.5898 159.41 15.3652 159.41 15.0723C159.41 14.4668 158.998 14.1641 158.174 14.1641ZM155.484 17V10.5898H158.531C159.176 10.5898 159.678 10.7363 160.037 11.0293C160.4 11.3184 160.582 11.7129 160.582 12.2129C160.582 12.541 160.475 12.8359 160.26 13.0977C160.049 13.3555 159.785 13.5117 159.469 13.5664V13.6719C159.887 13.7148 160.223 13.873 160.477 14.1465C160.734 14.4199 160.863 14.7539 160.863 15.1484C160.863 15.7109 160.658 16.1602 160.248 16.4961C159.842 16.832 159.285 17 158.578 17H155.484ZM163.916 17H162.48V10.5898H163.916V14.832H164.016L166.84 10.5898H168.275V17H166.84V12.7285H166.74L163.916 17ZM175.049 10.5898V11.75H173.074V17H171.621V11.75H169.646V10.5898H175.049ZM181.764 12.7461H180.381C180.311 12.4219 180.154 12.1641 179.912 11.9727C179.67 11.7773 179.355 11.6797 178.969 11.6797C178.469 11.6797 178.078 11.8633 177.797 12.2305C177.52 12.5977 177.381 13.1133 177.381 13.7773C177.381 14.4492 177.521 14.9727 177.803 15.3477C178.084 15.7227 178.473 15.9102 178.969 15.9102C179.348 15.9102 179.658 15.8223 179.9 15.6465C180.146 15.4707 180.307 15.2168 180.381 14.8848H181.764C181.682 15.5684 181.395 16.1133 180.902 16.5195C180.414 16.9258 179.771 17.1289 178.975 17.1289C178.01 17.1289 177.258 16.834 176.719 16.2441C176.18 15.6543 175.91 14.832 175.91 13.7773C175.91 12.7344 176.18 11.9219 176.719 11.3398C177.258 10.7539 178.008 10.4609 178.969 10.4609C179.773 10.4609 180.42 10.6699 180.908 11.0879C181.4 11.502 181.686 12.0547 181.764 12.7461ZM185.584 13.7539H186.686V11.7441H185.584C185.232 11.7441 184.951 11.8379 184.74 12.0254C184.533 12.209 184.43 12.4609 184.43 12.7812C184.43 13.0664 184.535 13.3008 184.746 13.4844C184.957 13.6641 185.236 13.7539 185.584 13.7539ZM186.686 17V14.8555H185.848L184.348 17H182.684L184.4 14.6035C183.963 14.4785 183.619 14.2539 183.369 13.9297C183.119 13.6016 182.994 13.2168 182.994 12.7754C182.994 12.1035 183.219 11.5723 183.668 11.1816C184.121 10.7871 184.723 10.5898 185.473 10.5898H188.115V17H186.686ZM192.064 13.6484L190.02 11.2461H191.467L193.518 13.666V13.7129L191.484 16.127H190.02L192.064 13.7188V13.6484ZM194.988 13.6484L192.949 11.2461H194.396L196.441 13.666V13.7129L194.408 16.127H192.949L194.988 13.7188V13.6484Z" transform="translate(266.095 427)" fill="#E9E6F5"/>
<mask id="mask3" mask-type="alpha" maskUnits="userSpaceOnUse" x="142" y="198" width="342" height="207">
<path d="M341 0H0V206H341V0Z" transform="translate(142.095 198)" fill="white"/>
</mask>
<g mask="url(#mask3)">
<path d="M135.125 45.3449C146.277 52.2828 155.422 60.8458 170.299 64.8824C191.866 70.7369 218.115 64.8453 235.881 55.7147C253.646 46.5841 266.094 34.5448 282.881 24.8243C331.053 -3.07951 412.885 -7.35356 472.987 11.4678C481.569 14.1577 489.91 17.3298 495.973 21.7226C503.861 27.4399 507.248 34.7377 509.787 41.8797C515.456 57.8348 517.832 74.1164 516.866 90.3894C516.218 101.457 512.494 113.986 496.322 120.07C491.219 121.985 485.312 123.038 479.451 124.025C392.561 138.495 300.387 137.486 209.987 135.311C142.599 133.686 74.4135 131.386 10.056 119.807C7.09619 119.273 3.96154 118.649 2.05743 117.247C-0.0992637 115.659 -0.157553 113.466 0.114463 111.463C1.04709 104.874 4.60272 98.5145 7.28401 92.0812C12.8353 78.6934 14.6259 64.8842 12.5883 51.1735C10.7943 39.034 -1.26504 28.7681 23.6308 25.3696C62.7039 20.0382 108.221 28.616 135.125 45.3449Z" transform="translate(80.1135 284.933)" fill="#3B3E52" fill-opacity="0.2"/>
</g>
<path d="M16.674 33.454C25.8828 33.454 33.348 25.9651 33.348 16.727C33.348 7.48893 25.8828 -2.40032e-06 16.674 -2.40032e-06C7.46521 -2.40032e-06 0 7.48893 0 16.727C0 25.9651 7.46521 33.454 16.674 33.454Z" transform="translate(216.095 219)" fill="#E9E6F5"/>
<path fill-rule="evenodd" clip-rule="evenodd" d="M59.1868 99.5577L68.4828 105.268L73 120H40.8448V143.58H33V120H0L7.09457 96.4905L19.6327 87.5501L8.99081 90.2094L13.1103 76.5485L29.4463 64.8998L15.5786 68.3586L20.9077 50.6952L36.1976 39.797L23.2181 43.0327L28.1767 26.5821L36.1976 20.203L29.3646 22.6393L36.1976 0L45.6461 30.8185L36.3393 29.1598L47.1827 35.8216L53.3183 55.818L44.1694 54.1865L54.8222 60.7342L61.192 81.4919L51.7217 79.5341L62.6524 86.2503L67.1696 100.977L59.1868 99.5577Z" transform="translate(324.095 260)" fill="#E9E6F5"/>
<g filter="url(#filter5_d)">
<path d="M78.5781 0C86.5943 0 93.9157 3.31419 99.1932 9.33223C104.227 15.0733 107 22.7618 107 30.9818C107 39.9295 103.524 48.2515 96.0607 57.1718C89.3906 65.1446 79.7946 73.3624 68.6833 82.8778L68.6447 82.9109C64.5155 86.4473 60.2461 90.1038 55.7017 94.0996L55.5648 94.2202C54.9738 94.74 54.2369 95 53.5 95C52.7631 95 52.0262 94.7402 51.4352 94.2202L51.2983 94.0996C46.7401 90.0916 42.4586 86.4249 38.3183 82.8791L38.3173 82.8782C27.2054 73.3622 17.6094 65.1444 10.9393 57.1718C3.47604 48.2517 0 39.9295 0 30.9818C0 22.7618 2.7726 15.0733 7.80661 9.33244C13.0843 3.3144 20.4057 0 28.4219 0C39.6962 0 46.834 6.76699 50.8365 12.444C51.8751 13.9171 52.7583 15.3942 53.5 16.7841C54.2417 15.3942 55.1251 13.9171 56.1635 12.444C60.166 6.76699 67.3038 0 78.5781 0Z" transform="translate(142.095 389)" fill="#ED4956"/>
</g>
<g filter="url(#filter6_d)">
<path d="M31.5781 0C34.7996 0 37.7418 1.32568 39.8627 3.73289C41.8858 6.0293 43 9.10473 43 12.3927C43 15.9718 41.6031 19.3006 38.6038 22.8687C35.9233 26.0578 32.067 29.345 27.6017 33.1511L27.5858 33.1647C25.9265 34.5792 24.2109 36.0416 22.3848 37.6399L22.3298 37.6881C22.0923 37.896 21.7961 38 21.5 38C21.2039 38 20.9077 37.8961 20.6702 37.6881L20.6152 37.6399C18.7838 36.0369 17.0634 34.5705 15.3999 33.1524L15.3985 33.1513C10.933 29.3449 7.07669 26.0577 4.39616 22.8687C1.39691 19.3007 0 15.9718 0 12.3927C0 9.10473 1.11422 6.0293 3.13724 3.73298C5.25818 1.32576 8.2004 0 11.4219 0C15.9527 0 18.8211 2.7068 20.4296 4.97758C20.847 5.56683 21.2019 6.15767 21.5 6.71365C21.7981 6.15767 22.1531 5.56683 22.5704 4.97758C24.1789 2.7068 27.0473 0 31.5781 0Z" transform="translate(116.095 343)" fill="#ED4956"/>
</g>
<g filter="url(#filter7_d)">
<path d="M24.9688 0C27.516 0 29.8424 1.04659 31.5193 2.94702C33.119 4.75997 34 7.18795 34 9.78372C34 12.6093 32.8955 15.2373 30.524 18.0543C28.4045 20.572 25.3553 23.1671 21.8246 26.1719L21.8122 26.1825C20.5001 27.2992 19.1435 28.4539 17.6996 29.7157L17.6561 29.7537C17.4683 29.9179 17.2341 30 17 30C16.7659 30 16.5317 29.918 16.3439 29.7537L16.3004 29.7157C14.8521 28.45 13.4916 27.2922 12.1761 26.1725L12.1756 26.1721C8.6447 23.167 5.59552 20.5719 3.47604 18.0543C1.10453 15.2374 0 12.6093 0 9.78372C0 7.18795 0.881012 4.75998 2.48061 2.94709C4.15763 1.04665 6.48404 0 9.03125 0C12.6137 0 14.8818 2.13694 16.1537 3.92967C16.4837 4.39486 16.7643 4.86132 17 5.30025C17.2357 4.86132 17.5164 4.39486 17.8463 3.92967C19.1182 2.13694 21.3863 0 24.9688 0Z" transform="translate(166.095 297)" fill="#ED4956"/>
</g>
<path fill-rule="evenodd" clip-rule="evenodd" d="M20.1727 10.4908C21.2993 10.4908 22.213 9.57741 22.213 8.45065V2.03991C22.213 0.913361 21.2995 0 20.1727 0C19.0462 0 18.1326 0.913155 18.1326 2.03991V8.45086C18.1326 9.57741 19.0461 10.4908 20.1727 10.4908ZM6.0697 6.0696C6.86688 5.27332 8.15826 5.27352 8.95505 6.0696L13.4877 10.6025C14.2845 11.3992 14.2845 12.6907 13.4877 13.4874C13.0894 13.8856 12.5673 14.0848 12.0454 14.0848C11.523 14.0848 11.0011 13.8856 10.6028 13.4874L6.0697 8.95467C5.27316 8.15798 5.27316 6.8663 6.0697 6.0696ZM48.2619 39.4532L60.4024 51.5931C61.1992 52.3898 61.1992 53.6812 60.4026 54.4779L54.4785 60.4023C54.096 60.785 53.5772 61 53.0359 61C52.4951 61 51.9758 60.785 51.5934 60.4023L39.4537 48.2625L34.4512 56.9231C34.0605 57.6 33.3174 57.994 32.5377 57.9373C31.758 57.881 31.0791 57.3842 30.7895 56.6583L15.3853 18.0346C15.0831 17.2776 15.2612 16.4133 15.8378 15.8366C16.4144 15.2603 17.2789 15.0822 18.036 15.3845L56.6587 30.7898C57.3846 31.0792 57.8813 31.758 57.9375 32.5377C57.9938 33.3171 57.6 34.06 56.9232 34.4508L48.2619 39.4532ZM10.4913 20.1721C10.4913 19.0458 9.57785 18.1322 8.45099 18.1322H2.04028C0.913635 18.1322 0 19.0456 0 20.1721C0 21.2987 0.913452 22.2122 2.04028 22.2122H8.45099C9.57785 22.212 10.4913 21.2987 10.4913 20.1721ZM5.13062 31.0012L9.66434 26.468C10.4615 25.6718 11.7527 25.672 12.5493 26.468C13.346 27.2647 13.346 28.5564 12.5493 29.3531L8.01575 33.886C7.61746 34.2843 7.09512 34.4835 6.57318 34.4835C6.05124 34.4835 5.52911 34.2843 5.13062 33.886C4.33408 33.0895 4.33408 31.7978 5.13062 31.0012ZM29.3533 12.5485C28.955 12.9468 28.4331 13.146 27.9107 13.146C27.3886 13.146 26.8666 12.9468 26.4681 12.5485C25.6714 11.7521 25.6714 10.4604 26.4681 9.66367L31.001 5.13078C31.7976 4.33449 33.0894 4.33449 33.8862 5.13078C34.683 5.92747 34.683 7.21915 33.8862 8.01585L29.3533 12.5485Z" transform="translate(187.095 431)" fill="#E9E6F5"/>
<path fill-rule="evenodd" clip-rule="evenodd" d="M6.06872 0.0977516C6.56714 0.335637 6.77836 0.932536 6.54047 1.43096C4.83678 5.00061 2.77271 11.1849 2.17166 18.0376C1.57036 24.8933 2.44164 32.307 6.47404 38.4516C6.77705 38.9133 6.64838 39.5333 6.18665 39.8363C5.72491 40.1393 5.10496 40.0106 4.80194 39.5489C0.434338 32.8935 -0.444383 24.9738 0.179313 17.8629C0.803268 10.7489 2.9392 4.33319 4.73551 0.569503C4.97339 0.0710765 5.57029 -0.140134 6.06872 0.0977516Z" transform="translate(112.457 401)" fill="#E9E6F5"/>
<path fill-rule="evenodd" clip-rule="evenodd" d="M6.19915 0.172551C6.6562 0.482602 6.77536 1.10445 6.46531 1.56149C4.78677 4.0358 2.75704 8.32058 2.16758 13.0489C1.58113 17.7529 2.42307 22.8223 6.36902 27.0526C6.74573 27.4565 6.72372 28.0893 6.31986 28.466C5.916 28.8427 5.28322 28.8207 4.9065 28.4168C0.452445 23.6418 -0.455612 17.9235 0.182941 12.8014C0.818479 7.70356 2.98874 3.12371 4.81021 0.438703C5.12026 -0.0183387 5.74211 -0.137499 6.19915 0.172551Z" transform="translate(258.733 388.713) rotate(126.548)" fill="#E9E6F5"/>
<path fill-rule="evenodd" clip-rule="evenodd" d="M3.3824 0.083222C3.88886 0.303481 4.12087 0.892605 3.90061 1.39907C3.19248 3.02734 2.32431 5.87682 2.07186 9.03552C1.81891 12.2005 2.19235 15.5642 3.84184 18.3226C4.12528 18.7966 3.97081 19.4106 3.4968 19.6941C3.0228 19.9775 2.40877 19.823 2.12533 19.349C0.182271 16.0997 -0.192742 12.2666 0.0782206 8.87619C0.349685 5.47954 1.27778 2.41512 2.06655 0.60144C2.28681 0.094977 2.87593 -0.137037 3.3824 0.083222Z" transform="translate(96.1135 444.262) rotate(-27.2913)" fill="#DADADA"/>
<defs>
<filter id="filter0_d" x="175.431" y="21.0724" width="274.657" height="588.448" filterUnits="userSpaceOnUse" color-interpolation-filters="sRGB">
<feFlood flood-opacity="0" result="BackgroundImageFix"/>
<feColorMatrix in="SourceAlpha" type="matrix" values="0 0 0 0 0 0 0 0 0 0 0 0 0 0 0 0 0 0 255 0"/>
<feOffset/>
<feGaussianBlur stdDeviation="1"/>
<feColorMatrix type="matrix" values="0 0 0 0 0 0 0 0 0 0 0 0 0 0 0 0 0 0 0.04 0"/>
<feBlend mode="normal" in2="BackgroundImageFix" result="effect1_dropShadow"/>
<feBlend mode="normal" in="SourceGraphic" in2="effect1_dropShadow" result="shape"/>
</filter>
<filter id="filter1_d" x="0.0950317" y="254" width="88.5196" height="86.0968" filterUnits="userSpaceOnUse" color-interpolation-filters="sRGB">
<feFlood flood-opacity="0" result="BackgroundImageFix"/>
<feColorMatrix in="SourceAlpha" type="matrix" values="0 0 0 0 0 0 0 0 0 0 0 0 0 0 0 0 0 0 255 0"/>
<feOffset dy="20"/>
<feGaussianBlur stdDeviation="17"/>
<feColorMatrix type="matrix" values="0 0 0 0 0 0 0 0 0 0 0 0 0 0 0 0 0 0 0.25 0"/>
<feBlend mode="normal" in2="BackgroundImageFix" result="effect1_dropShadow"/>
<feBlend mode="normal" in="SourceGraphic" in2="effect1_dropShadow" result="shape"/>
</filter>
<filter id="filter2_d" x="353.227" y="328.494" width="119.501" height="113.661" filterUnits="userSpaceOnUse" color-interpolation-filters="sRGB">
<feFlood flood-opacity="0" result="BackgroundImageFix"/>
<feColorMatrix in="SourceAlpha" type="matrix" values="0 0 0 0 0 0 0 0 0 0 0 0 0 0 0 0 0 0 255 0"/>
<feOffset dy="20"/>
<feGaussianBlur stdDeviation="17"/>
<feColorMatrix type="matrix" values="0 0 0 0 0 0 0 0 0 0 0 0 0 0 0 0 0 0 0.25 0"/>
<feBlend mode="normal" in2="BackgroundImageFix" result="effect1_dropShadow"/>
<feBlend mode="normal" in="SourceGraphic" in2="effect1_dropShadow" result="shape"/>
</filter>
<filter id="filter3_d" x="340.713" y="306.384" width="88.6967" height="86.2645" filterUnits="userSpaceOnUse" color-interpolation-filters="sRGB">
<feFlood flood-opacity="0" result="BackgroundImageFix"/>
<feColorMatrix in="SourceAlpha" type="matrix" values="0 0 0 0 0 0 0 0 0 0 0 0 0 0 0 0 0 0 255 0"/>
<feOffset dy="20"/>
<feGaussianBlur stdDeviation="17"/>
<feColorMatrix type="matrix" values="0 0 0 0 0 0 0 0 0 0 0 0 0 0 0 0 0 0 0.25 0"/>
<feBlend mode="normal" in2="BackgroundImageFix" result="effect1_dropShadow"/>
<feBlend mode="normal" in="SourceGraphic" in2="effect1_dropShadow" result="shape"/>
</filter>
<filter id="filter4_d" x="364.778" y="284.274" width="84.3648" height="82.4194" filterUnits="userSpaceOnUse" color-interpolation-filters="sRGB">
<feFlood flood-opacity="0" result="BackgroundImageFix"/>
<feColorMatrix in="SourceAlpha" type="matrix" values="0 0 0 0 0 0 0 0 0 0 0 0 0 0 0 0 0 0 255 0"/>
<feOffset dy="20"/>
<feGaussianBlur stdDeviation="17"/>
<feColorMatrix type="matrix" values="0 0 0 0 0 0 0 0 0 0 0 0 0 0 0 0 0 0 0.25 0"/>
<feBlend mode="normal" in2="BackgroundImageFix" result="effect1_dropShadow"/>
<feBlend mode="normal" in="SourceGraphic" in2="effect1_dropShadow" result="shape"/>
</filter>
<filter id="filter5_d" x="108.095" y="375" width="175" height="163" filterUnits="userSpaceOnUse" color-interpolation-filters="sRGB">
<feFlood flood-opacity="0" result="BackgroundImageFix"/>
<feColorMatrix in="SourceAlpha" type="matrix" values="0 0 0 0 0 0 0 0 0 0 0 0 0 0 0 0 0 0 255 0"/>
<feOffset dy="20"/>
<feGaussianBlur stdDeviation="17"/>
<feColorMatrix type="matrix" values="0 0 0 0 0 0 0 0 0 0 0 0 0 0 0 0 0 0 0.25 0"/>
<feBlend mode="normal" in2="BackgroundImageFix" result="effect1_dropShadow"/>
<feBlend mode="normal" in="SourceGraphic" in2="effect1_dropShadow" result="shape"/>
</filter>
<filter id="filter6_d" x="82.095" y="329" width="111" height="106" filterUnits="userSpaceOnUse" color-interpolation-filters="sRGB">
<feFlood flood-opacity="0" result="BackgroundImageFix"/>
<feColorMatrix in="SourceAlpha" type="matrix" values="0 0 0 0 0 0 0 0 0 0 0 0 0 0 0 0 0 0 255 0"/>
<feOffset dy="20"/>
<feGaussianBlur stdDeviation="17"/>
<feColorMatrix type="matrix" values="0 0 0 0 0 0 0 0 0 0 0 0 0 0 0 0 0 0 0.25 0"/>
<feBlend mode="normal" in2="BackgroundImageFix" result="effect1_dropShadow"/>
<feBlend mode="normal" in="SourceGraphic" in2="effect1_dropShadow" result="shape"/>
</filter>
<filter id="filter7_d" x="132.095" y="283" width="102" height="98" filterUnits="userSpaceOnUse" color-interpolation-filters="sRGB">
<feFlood flood-opacity="0" result="BackgroundImageFix"/>
<feColorMatrix in="SourceAlpha" type="matrix" values="0 0 0 0 0 0 0 0 0 0 0 0 0 0 0 0 0 0 255 0"/>
<feOffset dy="20"/>
<feGaussianBlur stdDeviation="17"/>
<feColorMatrix type="matrix" values="0 0 0 0 0 0 0 0 0 0 0 0 0 0 0 0 0 0 0.25 0"/>
<feBlend mode="normal" in2="BackgroundImageFix" result="effect1_dropShadow"/>
<feBlend mode="normal" in="SourceGraphic" in2="effect1_dropShadow" result="shape"/>
</filter>
<linearGradient id="paint0_linear" x2="1" gradientUnits="userSpaceOnUse" gradientTransform="matrix(111.048 174.935 -222.095 140.847 111.048 -70.4235)">
<stop stop-color="#CCD3FE"/>
<stop offset="1" stop-color="#959EBB"/>
</linearGradient>
<linearGradient id="paint1_linear" x2="1" gradientUnits="userSpaceOnUse" gradientTransform="matrix(88.5627 139.387 -177.125 112.226 88.5627 -56.1128)">
<stop stop-color="#CCD3FE"/>
<stop offset="1" stop-color="#959EBB"/>
</linearGradient>
<linearGradient id="paint2_linear" x2="1" gradientUnits="userSpaceOnUse" gradientTransform="matrix(184 290 -368 233.49 184 -116.745)">
<stop stop-color="#CCD3FE"/>
<stop offset="1" stop-color="#959EBB"/>
</linearGradient>
<linearGradient id="paint3_linear" x2="1" gradientUnits="userSpaceOnUse" gradientTransform="matrix(170 209 -340 168.274 170 -84.1368)">
<stop stop-color="#CCD3FE"/>
<stop offset="1" stop-color="#959EBB"/>
</linearGradient>
<linearGradient id="paint4_linear" x2="1" gradientUnits="userSpaceOnUse" gradientTransform="translate(340) scale(340 209) rotate(90)">
<stop stop-color="white"/>
<stop offset="1" stop-color="white" stop-opacity="0"/>
</linearGradient>
</defs>
</svg>
