<svg width="358" height="719" viewBox="0 0 358 719" fill="none" xmlns="http://www.w3.org/2000/svg">
<path fill-rule="evenodd" clip-rule="evenodd" d="M302.665 0H55.335C26.1635 0 2.51526 23.6365 2.51526 52.7937V96.3694C1.1261 96.3694 0 97.4955 0 98.8847V120.67C0 122.059 1.1261 123.185 2.51526 123.185V148.325C1.1261 148.325 0 149.451 0 150.84V197.766C0 199.155 1.1261 200.281 2.51526 200.281V213.689C1.1261 213.689 0 214.815 0 216.204V263.129C0 264.518 1.1261 265.645 2.51526 265.645V666.206C2.51526 695.363 26.1635 719 55.335 719H302.665C331.837 719 355.485 695.363 355.485 666.206L355.485 248.885C356.874 248.885 358 247.759 358 246.369V167.6C358 166.211 356.874 165.085 355.485 165.085L355.485 52.7937C355.485 23.6365 331.837 0 302.665 0ZM6.70728 52.7937C6.70728 25.9506 28.4786 4.18997 55.335 4.18997H302.665C329.521 4.18997 351.293 25.9506 351.293 52.7937V666.206C351.293 693.049 329.521 714.81 302.665 714.81H55.335C28.4786 714.81 6.70728 693.049 6.70728 666.206V52.7937Z" fill="#AABBCC"/>
<path fill-rule="evenodd" clip-rule="evenodd" d="M329.494 48.6037C329.494 30.0841 314.487 15.0839 295.958 15.0839H266.194C262.49 15.0839 259.487 18.0854 259.487 21.7879V22.6259C259.487 32.8494 251.271 41.0618 241.042 41.0618H103.543C93.3148 41.0618 85.0984 32.8494 85.0984 22.6259V21.7879C85.0984 18.0854 82.0954 15.0839 78.3911 15.0839H48.6276C30.0988 15.0839 15.0913 30.0841 15.0913 48.6037V662.016C15.0913 680.536 30.0988 695.536 48.6276 695.536H295.958C314.487 695.536 329.494 680.536 329.494 662.016V48.6037ZM48.6276 0H295.958C322.787 0 344.585 21.7879 344.585 48.6037V662.016C344.585 688.832 322.787 710.62 295.958 710.62H48.6276C21.7986 710.62 0 688.832 0 662.016V48.6037C0 21.7879 21.7986 0 48.6276 0Z" transform="translate(6.70728 4.18997)" fill="#333333"/>
<path fill-rule="evenodd" clip-rule="evenodd" d="M0 2.09499C0 0.937958 0.93842 0 2.09602 0H110.251C111.408 0 112.347 0.937958 112.347 2.09499C112.347 3.25202 111.408 4.18998 110.251 4.18998H2.09602C0.93842 4.18998 0 3.25202 0 2.09499Z" transform="translate(123.246 686.737)" fill="#262626"/>
<path d="M64.9766 5.86597C64.9766 9.10563 62.349 11.7319 59.1077 11.7319C55.8665 11.7319 53.2389 9.10563 53.2389 5.86597C53.2389 2.62631 55.8665 0 59.1077 0C62.349 0 64.9766 2.62631 64.9766 5.86597Z" transform="translate(157.621 20.9499)" fill="#4F4F4F"/>
<path d="M2.51522 3.35198C1.1261 3.35198 0 4.47753 0 5.86597C0 7.25441 1.1261 8.37995 2.51522 8.37995H39.4052C40.7943 8.37995 41.9204 7.25441 41.9204 5.86597C41.9204 4.47753 40.7943 3.35198 39.4052 3.35198H2.51522Z" transform="translate(157.621 20.9499)" fill="#4F4F4F"/>
</svg>
