<svg width="1440" height="281" viewBox="0 0 1440 281" fill="none" xmlns="http://www.w3.org/2000/svg">
<path opacity="0.4" fill-rule="evenodd" clip-rule="evenodd" d="M1002.14 184.788C990.699 188.269 978.111 188.429 964.072 184.331C927.697 173.715 912.709 144.99 898.604 116.612C898.237 115.874 897.871 115.135 897.504 114.397C883.654 86.497 870.147 59.2874 838.588 46.0505C788.664 25.1104 749.707 45.2103 708.499 71.9013C703.893 74.8853 699.257 77.9535 694.577 81.0512C657.673 105.478 617.991 131.744 567.545 133.089C503.359 134.8 455.199 103.392 409.386 73.5142C406.128 71.3898 402.883 69.2732 399.644 67.1768C350.643 35.4572 303.187 8.26332 239.066 24.863C206.712 33.239 175.909 53.2576 147.832 78.8108C119.773 104.347 94.592 135.266 73.4713 165.195C52.3572 195.116 35.3456 223.983 23.6116 245.374C17.7459 256.068 13.2022 264.887 10.1273 271.027C8.58998 274.098 7.41997 276.498 6.63567 278.128C6.24353 278.943 5.94783 279.565 5.75086 279.982C5.65238 280.19 5.57859 280.348 5.52976 280.452L5.47529 280.568L5.46217 280.597L5.45915 280.603C5.45862 280.604 5.45849 280.605 2.72841 279.342C-0.00167311 278.08 -0.00101349 278.078 4.09916e-05 278.076L0.0193843 278.035L0.0781876 277.909C0.129924 277.798 0.206683 277.635 0.308176 277.42C0.511162 276.99 0.813097 276.355 1.21169 275.526C2.00886 273.87 3.19273 271.441 4.74496 268.341C7.84928 262.142 12.4277 253.256 18.3337 242.489C30.1431 220.961 47.2731 191.89 68.552 161.736C89.8242 131.591 115.288 100.299 143.778 74.3714C172.249 48.4604 203.9 27.761 237.556 19.0481C304.426 1.7365 353.908 30.4111 402.918 62.1364C406.091 64.1901 409.261 66.2563 412.435 68.3244C458.495 98.3409 505.147 128.743 567.384 127.084C615.989 125.788 654.164 100.553 691.22 76.0571C695.9 72.9636 700.562 69.8819 705.224 66.8618C746.537 40.1028 787.932 18.2875 840.919 40.5122C874.578 54.6302 888.997 83.7027 902.623 111.179C903.081 112.102 903.538 113.023 903.994 113.942C918.189 142.5 932.19 168.768 965.76 178.565C978.769 182.362 990.156 182.154 1000.39 179.042C1010.66 175.919 1019.95 169.815 1028.65 161.536C1046.14 144.889 1060.74 119.935 1075.67 94.2375L1076.2 93.333C1090.84 68.1353 1105.83 42.338 1124.04 24.3439C1142.63 5.97525 1164.87 -4.5396 1193.64 1.90402C1232.78 10.6722 1250.93 38.7047 1267.91 67.4201C1268.84 68.9919 1269.77 70.5657 1270.69 72.1388C1286.81 99.5256 1302.83 126.747 1335.31 141.133C1375.14 158.775 1431.32 158.864 1477.97 154.375C1501.22 152.138 1521.95 148.781 1536.87 145.984C1544.32 144.585 1550.32 143.327 1554.45 142.42C1556.52 141.966 1558.12 141.601 1559.2 141.349C1559.74 141.223 1560.15 141.125 1560.42 141.06C1560.56 141.027 1560.66 141.002 1560.73 140.986L1560.8 140.967L1560.82 140.963L1560.82 140.962C1560.82 140.962 1560.82 140.962 1561.54 143.878C1562.26 146.795 1562.26 146.795 1562.26 146.796L1562.26 146.797L1562.23 146.802L1562.15 146.823C1562.08 146.841 1561.97 146.867 1561.83 146.901C1561.54 146.969 1561.12 147.07 1560.57 147.198C1559.46 147.456 1557.84 147.827 1555.75 148.287C1551.56 149.206 1545.5 150.477 1537.98 151.888C1522.93 154.709 1502.02 158.096 1478.55 160.354C1431.78 164.855 1374.23 164.944 1332.87 146.624C1298.56 131.429 1281.62 102.612 1265.68 75.4869C1264.7 73.8081 1263.71 72.1359 1262.73 70.4738C1245.74 41.7345 1228.72 15.9188 1192.32 7.76558C1166.1 1.89231 1145.85 11.2427 1128.27 28.6134C1110.64 46.0403 1095.98 71.2581 1081.14 96.7998L1080.88 97.2522C1066.07 122.734 1051.04 148.526 1032.8 165.883C1023.64 174.606 1013.55 181.318 1002.14 184.788Z" transform="translate(-52.3342 0.396973)" fill="url(#paint0_linear)"/>
<defs>
<linearGradient id="paint0_linear" x2="1" gradientUnits="userSpaceOnUse" gradientTransform="matrix(1623.96 189.601 -1623.96 2502.94 786.761 -1224.29)">
<stop stop-color="#0075FF"/>
<stop offset="1" stop-color="#FF005C"/>
</linearGradient>
</defs>
</svg>
