<svg width="1440" height="164" viewBox="0 0 1440 164" fill="none" xmlns="http://www.w3.org/2000/svg">
<path fill-rule="evenodd" clip-rule="evenodd" d="M3.8034 163.295C3.80227 163.296 3.80193 163.296 1.89939 160.969C-0.00314422 158.642 -0.00190162 158.641 0.000130295 158.64L0.0383431 158.609L0.1551 158.514C0.257861 158.431 0.410305 158.308 0.611432 158.146C1.01369 157.822 1.61069 157.344 2.39445 156.722C3.96195 155.479 6.2766 153.659 9.27451 151.35C15.2701 146.733 23.9998 140.154 34.9522 132.299C56.8537 116.592 87.6613 95.7673 123.283 75.3024C194.355 34.4709 285.239 -5.31525 362.873 0.583924C416.574 4.66452 454.95 39.2561 490.597 71.3881C494.046 74.4967 497.469 77.5822 500.878 80.6149C539.87 115.303 576.915 143.12 630.083 125.677C657.775 116.591 672.557 95.8783 687.688 74.6756C688.24 73.9027 688.792 73.1292 689.345 72.3556C704.939 50.5449 721.419 28.6875 753.513 22.5553C795.921 14.4526 822.607 40.2441 848.284 67.1886C849.587 68.556 850.888 69.9264 852.188 71.2965C876.86 97.2907 901.416 123.163 939.303 125.532C984.219 128.341 1013.93 101.545 1044.58 73.8985L1045.07 73.4612C1075.6 45.9257 1107.18 17.6814 1155.14 22.517C1189.02 25.9328 1210.97 42.9402 1232.23 60.075C1232.91 60.6229 1233.59 61.171 1234.27 61.7188C1254.88 78.3538 1275.16 94.7164 1305.82 100.345C1356.16 109.586 1419.29 90.4819 1470.28 68.702C1495.68 57.8499 1517.9 46.4079 1533.78 37.6779C1541.71 33.3139 1548.05 29.6301 1552.41 27.04C1554.58 25.7451 1556.26 24.7238 1557.4 24.0278C1557.96 23.6798 1558.39 23.4131 1558.68 23.2343C1558.82 23.1448 1558.93 23.0774 1559 23.0327L1559.08 22.9828L1559.11 22.9682C1559.11 22.9677 1559.11 22.9677 1560.72 25.5054C1562.33 28.0432 1562.32 28.0438 1562.32 28.0449L1562.32 28.0488L1562.21 28.1181C1562.13 28.1661 1562.02 28.237 1561.87 28.3298C1561.57 28.5154 1561.13 28.789 1560.55 29.1441C1559.39 29.8543 1557.69 30.8905 1555.49 32.2008C1551.08 34.8213 1544.68 38.5392 1536.68 42.9394C1520.68 51.7378 1498.28 63.2749 1472.64 74.2249C1421.55 96.0495 1356.97 115.842 1304.73 106.254C1272.54 100.344 1251.2 83.1143 1230.74 66.597C1229.98 65.9798 1229.21 65.3635 1228.45 64.7489C1207.22 47.6322 1186.49 31.715 1154.54 28.4938C1109.58 23.9612 1079.9 50.1432 1049.1 77.9189L1047.97 78.9422C1017.81 106.146 986.385 134.495 938.927 131.528C898.597 129.006 872.473 101.443 848.182 75.8137C846.758 74.3104 845.339 72.8137 843.924 71.3292C818.044 44.1705 793.501 21.0313 754.644 28.4555C725.138 34.0932 709.881 53.9736 694.243 75.8456C693.604 76.739 692.964 77.6359 692.323 78.5351C677.403 99.4624 661.571 121.669 631.961 131.384C575.264 149.985 535.777 119.708 496.874 85.0998C493.482 82.0818 490.093 79.0309 486.696 75.9726C450.788 43.6475 413.955 10.4902 362.416 6.57386C286.748 0.824042 197.259 39.7331 126.284 80.509C90.8822 100.848 60.2478 121.555 38.4631 137.178C27.5725 144.989 18.898 151.526 12.9502 156.107C9.97644 158.397 7.68461 160.198 6.13855 161.425C5.36553 162.038 4.77898 162.508 4.38687 162.824C4.19082 162.981 4.04339 163.1 3.94556 163.18L3.8096 163.29L3.8034 163.295Z" transform="translate(-51.5051 0.0776367)" fill="url(#paint0_linear)"/>
<defs>
<linearGradient id="paint0_linear" x2="1" gradientUnits="userSpaceOnUse" gradientTransform="matrix(1624.03 110.337 -1624.03 1456.57 786.791 -712.468)">
<stop stop-color="#0075FF"/>
<stop offset="1" stop-color="#FF005C"/>
</linearGradient>
</defs>
</svg>
