<svg width="1440" height="281" viewBox="0 0 1440 281" fill="none" xmlns="http://www.w3.org/2000/svg">
<path opacity="0.2" fill-rule="evenodd" clip-rule="evenodd" d="M1105.12 165.95C1085.4 183.481 1062.01 192.559 1031.87 184.344C993.069 173.764 977.037 145.112 961.912 116.684C961.511 115.931 961.111 115.178 960.711 114.426C945.912 86.5747 931.441 59.3411 897.588 46.0764C843.947 25.0583 802.084 45.2696 757.993 71.949C753.058 74.9349 748.095 78.0037 743.085 81.101C703.565 105.535 661.174 131.745 607.29 133.087C538.708 134.795 487.243 103.443 438.176 73.551C434.695 71.4307 431.227 69.3178 427.766 67.2245C375.334 35.5185 324.404 8.22967 255.581 24.874C186.02 41.6968 123.524 105.259 78.1897 165.272C55.5881 195.192 37.3786 224.059 24.8189 245.448C18.5404 256.14 13.6771 264.959 10.386 271.098C8.74048 274.168 7.48824 276.568 6.64889 278.198C6.22921 279.012 5.91278 279.634 5.70203 280.051C5.59666 280.26 5.51771 280.417 5.46549 280.521L5.40725 280.637L5.39324 280.665L5.39002 280.672C5.38947 280.673 5.38934 280.673 2.69377 279.339C-0.00180567 278.005 -0.00109094 278.003 4.61774e-05 278.001L0.0208041 277.959L0.0838196 277.833C0.139247 277.723 0.22146 277.559 0.330151 277.344C0.547532 276.914 0.870834 276.279 1.2976 275.45C2.15113 273.793 3.4186 271.364 5.08038 268.264C8.40381 262.064 13.3052 253.177 19.6277 242.41C32.27 220.88 50.6074 191.809 73.3853 161.655C118.811 101.521 182.403 36.3906 254.165 19.0356C325.561 1.76902 378.399 30.3482 430.883 62.0864C434.285 64.1437 437.686 66.214 441.09 68.2865C490.367 98.2875 540.393 128.744 607.14 127.082C659.285 125.783 700.236 100.493 739.886 76.0053C744.896 72.9113 749.885 69.8301 754.874 66.8117C799.116 40.0415 843.266 18.3381 899.786 40.4844C935.745 54.5741 951.167 83.6211 965.778 111.141C966.261 112.051 966.744 112.96 967.226 113.866C982.393 142.374 997.392 168.715 1033.46 178.549C1061.23 186.121 1082.59 177.938 1101.11 161.465C1119.84 144.809 1135.47 119.851 1151.45 94.1587L1152.01 93.2619C1167.69 68.0577 1183.74 42.2606 1203.22 24.2725C1223.11 5.91623 1246.8 -4.5106 1277.41 1.89447C1319.17 10.6322 1338.58 38.5812 1356.78 67.3412C1357.78 68.9205 1358.78 70.5019 1359.77 72.0829C1377 99.4393 1394.16 126.689 1429 141.102C1471.73 158.782 1531.96 158.861 1581.91 154.371C1606.81 152.132 1629.01 148.774 1644.99 145.975C1652.97 144.576 1659.4 143.317 1663.83 142.409C1666.04 141.955 1667.75 141.589 1668.91 141.337C1669.48 141.211 1669.92 141.114 1670.22 141.048L1670.55 140.973L1670.65 140.951L1670.65 140.95C1670.65 140.949 1670.65 140.949 1671.33 143.876C1672 146.804 1672 146.804 1672 146.804L1671.99 146.806L1671.88 146.831L1671.53 146.909C1671.23 146.978 1670.78 147.078 1670.19 147.206C1669.01 147.463 1667.27 147.835 1665.04 148.294C1660.56 149.212 1654.08 150.482 1646.03 151.892C1629.93 154.712 1607.56 158.097 1582.45 160.354C1532.39 164.854 1470.88 164.933 1426.69 146.651C1390.04 131.484 1371.92 102.696 1354.84 75.5446C1353.79 73.8724 1352.74 72.2064 1351.69 70.5502C1333.53 41.8562 1315.29 15.9575 1276.18 7.77399C1247.92 1.8623 1226.14 11.3005 1207.31 28.6832C1188.43 46.1156 1172.74 71.3323 1156.85 96.866L1156.57 97.3281C1140.71 122.815 1124.62 148.602 1105.12 165.95Z" transform="translate(1545) scale(-1 1)" fill="url(#paint0_linear)"/>
<defs>
<linearGradient id="paint0_linear" x2="1" gradientUnits="userSpaceOnUse" gradientTransform="matrix(1738.04 189.647 -1738.04 2503.55 842.026 -1224.59)">
<stop stop-color="#0075FF"/>
<stop offset="1" stop-color="#FF005C"/>
</linearGradient>
</defs>
</svg>
