<svg width="531" height="362" viewBox="0 0 531 362" fill="none" xmlns="http://www.w3.org/2000/svg">
<path opacity="0.1" d="M218.226 356.67C254.117 336.774 295.118 330.416 335.187 338.943C391.965 351.035 463.324 346.295 477.146 253.012C500.753 93.6974 401.828 51.6483 401.828 51.6483C401.828 51.6483 336.043 46.1298 297.143 25.1193C241.888 -4.73588 178.729 -8.53775 123.195 16.7225C87.6802 32.8629 58.4342 55.3383 53.4372 86.1963C39.4661 172.496 62.4113 220.045 19.4876 248.216C-23.4361 276.388 13.2472 353.731 46.1536 351.053C79.0601 348.376 153.419 319.001 182.395 353.027C192.687 365.095 205.708 363.611 218.226 356.67Z" fill="url(#paint0_linear)"/>
<path opacity="0.1" d="M148.093 3.13193e-06H9.09573e-06V10.2627H148.093V3.13193e-06Z" transform="translate(240.426 70.0793)" fill="#6C63FF"/>
<path opacity="0.1" d="M148.093 3.13193e-06H9.09573e-06V10.2627H148.093V3.13193e-06Z" transform="translate(240.426 114.395)" fill="#6C63FF"/>
<path opacity="0.1" d="M148.093 -3.98609e-06H9.09573e-06V10.2627H148.093V-3.98609e-06Z" transform="translate(240.426 160.578)" fill="#6C63FF"/>
<path opacity="0.1" d="M9.31404 0H9.09573e-06V26.5897H9.31404V0Z" transform="translate(253.465 43.4895)" fill="#6C63FF"/>
<path opacity="0.1" d="M9.31404 0H9.09573e-06V1.86595H9.31404V0Z" transform="translate(253.465 47.6879)" fill="#6C63FF"/>
<path opacity="0.1" d="M9.31404 3.13193e-06H9.09573e-06V1.86595H9.31404V3.13193e-06Z" transform="translate(253.465 62.1489)" fill="#6C63FF"/>
<path opacity="0.1" d="M9.31404 0H9.09573e-06V26.5897H9.31404V0Z" transform="translate(267.436 43.4895)" fill="#6C63FF"/>
<path opacity="0.1" d="M9.31404 0H9.09573e-06V1.86595H9.31404V0Z" transform="translate(267.436 47.6879)" fill="#6C63FF"/>
<path opacity="0.1" d="M9.31404 3.13193e-06H9.09573e-06V1.86595H9.31404V3.13193e-06Z" transform="translate(267.436 62.1489)" fill="#6C63FF"/>
<path opacity="0.1" d="M9.31404 0H9.09573e-06V26.5897H9.31404V0Z" transform="translate(281.407 43.4895)" fill="#6C63FF"/>
<path opacity="0.1" d="M9.31404 0H9.09573e-06V1.86595H9.31404V0Z" transform="translate(281.407 47.6879)" fill="#6C63FF"/>
<path opacity="0.1" d="M9.31404 3.13193e-06H9.09573e-06V1.86595H9.31404V3.13193e-06Z" transform="translate(281.407 62.1489)" fill="#6C63FF"/>
<path opacity="0.1" d="M9.31404 0H9.09573e-06V26.5897H9.31404V0Z" transform="translate(295.378 43.4895)" fill="#6C63FF"/>
<path opacity="0.1" d="M9.31404 0H9.09573e-06V1.86595H9.31404V0Z" transform="translate(295.378 47.6879)" fill="#6C63FF"/>
<path opacity="0.1" d="M9.31404 3.13193e-06H9.09573e-06V1.86595H9.31404V3.13193e-06Z" transform="translate(295.378 62.1489)" fill="#6C63FF"/>
<path opacity="0.1" d="M9.31404 0H9.09573e-06V26.5897H9.31404V0Z" transform="translate(309.349 43.4895)" fill="#6C63FF"/>
<path opacity="0.1" d="M9.31404 0H9.09573e-06V1.86595H9.31404V0Z" transform="translate(309.349 47.6879)" fill="#6C63FF"/>
<path opacity="0.1" d="M9.31404 3.13193e-06H9.09573e-06V1.86595H9.31404V3.13193e-06Z" transform="translate(309.349 62.1489)" fill="#6C63FF"/>
<path opacity="0.1" d="M9.31404 0H9.09573e-06V26.5897H9.31404V0Z" transform="translate(323.32 43.4895)" fill="#6C63FF"/>
<path opacity="0.1" d="M9.31404 0H9.09573e-06V1.86595H9.31404V0Z" transform="translate(323.32 47.6879)" fill="#6C63FF"/>
<path opacity="0.1" d="M9.31404 3.13193e-06H9.09573e-06V1.86595H9.31404V3.13193e-06Z" transform="translate(323.32 62.1489)" fill="#6C63FF"/>
<path opacity="0.1" d="M9.31404 0H9.09573e-06V26.5897H9.31404V0Z" transform="translate(337.292 43.4895)" fill="#6C63FF"/>
<path opacity="0.1" d="M9.31404 0H9.09573e-06V1.86595H9.31404V0Z" transform="translate(337.292 47.6879)" fill="#6C63FF"/>
<path opacity="0.1" d="M9.31404 3.13193e-06H9.09573e-06V1.86595H9.31404V3.13193e-06Z" transform="translate(337.292 62.1489)" fill="#6C63FF"/>
<path opacity="0.1" d="M9.31717 -3.98474e-06H-1.25109e-05V26.5807H9.31717V-3.98474e-06Z" transform="matrix(0.893617 -0.448831 0.447624 0.894222 332.766 137.47)" fill="#6C63FF"/>
<path opacity="0.1" d="M9.31719 3.4155e-06H3.41206e-06V1.86532H9.31719V3.4155e-06Z" transform="matrix(0.893617 -0.448831 0.447624 0.894222 334.647 141.226)" fill="#6C63FF"/>
<path opacity="0.1" d="M9.3172 0H1.02362e-05V1.86532H9.3172V0Z" transform="matrix(0.893617 -0.448831 0.447624 0.894222 341.114 154.154)" fill="#6C63FF"/>
<path opacity="0.1" d="M9.31404 3.13193e-06H9.09573e-06V26.5897H9.31404V3.13193e-06Z" transform="translate(253.465 88.2722)" fill="#6C63FF"/>
<path opacity="0.1" d="M9.31404 3.13193e-06H9.09573e-06V1.86595H9.31404V3.13193e-06Z" transform="translate(253.465 92.4706)" fill="#6C63FF"/>
<path opacity="0.1" d="M9.31404 3.13193e-06H9.09573e-06V1.86595H9.31404V3.13193e-06Z" transform="translate(253.465 106.932)" fill="#6C63FF"/>
<path opacity="0.1" d="M9.31404 3.13193e-06H9.09573e-06V26.5897H9.31404V3.13193e-06Z" transform="translate(267.436 88.2722)" fill="#6C63FF"/>
<path opacity="0.1" d="M9.31404 3.13193e-06H9.09573e-06V1.86595H9.31404V3.13193e-06Z" transform="translate(267.436 92.4706)" fill="#6C63FF"/>
<path opacity="0.1" d="M9.31404 3.13193e-06H9.09573e-06V1.86595H9.31404V3.13193e-06Z" transform="translate(267.436 106.932)" fill="#6C63FF"/>
<path opacity="0.1" d="M9.31404 3.13193e-06H9.09573e-06V26.5897H9.31404V3.13193e-06Z" transform="translate(281.407 88.2722)" fill="#6C63FF"/>
<path opacity="0.1" d="M9.31404 3.13193e-06H9.09573e-06V1.86595H9.31404V3.13193e-06Z" transform="translate(281.407 92.4706)" fill="#6C63FF"/>
<path opacity="0.1" d="M9.31404 3.13193e-06H9.09573e-06V1.86595H9.31404V3.13193e-06Z" transform="translate(281.407 106.932)" fill="#6C63FF"/>
<path opacity="0.1" d="M9.31404 3.13193e-06H9.09573e-06V26.5897H9.31404V3.13193e-06Z" transform="translate(339.62 88.2722)" fill="#6C63FF"/>
<path opacity="0.1" d="M9.31404 3.13193e-06H9.09573e-06V1.86595H9.31404V3.13193e-06Z" transform="translate(339.62 92.4706)" fill="#6C63FF"/>
<path opacity="0.1" d="M9.31404 3.13193e-06H9.09573e-06V1.86595H9.31404V3.13193e-06Z" transform="translate(339.62 106.932)" fill="#6C63FF"/>
<path opacity="0.1" d="M9.31404 3.13193e-06H9.09573e-06V26.5897H9.31404V3.13193e-06Z" transform="translate(353.591 88.2722)" fill="#6C63FF"/>
<path opacity="0.1" d="M9.31404 3.13193e-06H9.09573e-06V1.86595H9.31404V3.13193e-06Z" transform="translate(353.591 92.4706)" fill="#6C63FF"/>
<path opacity="0.1" d="M9.31404 3.13193e-06H9.09573e-06V1.86595H9.31404V3.13193e-06Z" transform="translate(353.591 106.932)" fill="#6C63FF"/>
<path opacity="0.1" d="M9.31404 3.13193e-06H9.09573e-06V26.5897H9.31404V3.13193e-06Z" transform="translate(367.562 88.2722)" fill="#6C63FF"/>
<path opacity="0.1" d="M9.31404 3.13193e-06H9.09573e-06V1.86595H9.31404V3.13193e-06Z" transform="translate(367.562 92.4706)" fill="#6C63FF"/>
<path opacity="0.1" d="M9.31404 3.13193e-06H9.09573e-06V1.86595H9.31404V3.13193e-06Z" transform="translate(367.562 106.932)" fill="#6C63FF"/>
<path opacity="0.1" d="M9.31404 -3.98609e-06H9.09573e-06V26.5897H9.31404V-3.98609e-06Z" transform="translate(253.465 133.988)" fill="#6C63FF"/>
<path opacity="0.1" d="M9.31404 -3.98609e-06H9.09573e-06V1.86594H9.31404V-3.98609e-06Z" transform="translate(253.465 138.186)" fill="#6C63FF"/>
<path opacity="0.1" d="M9.31404 -3.98609e-06H9.09573e-06V1.86594H9.31404V-3.98609e-06Z" transform="translate(253.465 152.647)" fill="#6C63FF"/>
<path opacity="0.1" d="M9.31404 -3.98609e-06H9.09573e-06V26.5897H9.31404V-3.98609e-06Z" transform="translate(267.436 133.988)" fill="#6C63FF"/>
<path opacity="0.1" d="M9.31404 -3.98609e-06H9.09573e-06V1.86594H9.31404V-3.98609e-06Z" transform="translate(267.436 138.186)" fill="#6C63FF"/>
<path opacity="0.1" d="M9.31404 -3.98609e-06H9.09573e-06V1.86594H9.31404V-3.98609e-06Z" transform="translate(267.436 152.647)" fill="#6C63FF"/>
<path opacity="0.1" d="M9.31404 -3.98609e-06H9.09573e-06V26.5897H9.31404V-3.98609e-06Z" transform="translate(281.407 133.988)" fill="#6C63FF"/>
<path opacity="0.1" d="M9.31404 -3.98609e-06H9.09573e-06V1.86594H9.31404V-3.98609e-06Z" transform="translate(281.407 138.186)" fill="#6C63FF"/>
<path opacity="0.1" d="M9.31404 -3.98609e-06H9.09573e-06V1.86594H9.31404V-3.98609e-06Z" transform="translate(281.407 152.647)" fill="#6C63FF"/>
<path opacity="0.1" d="M9.31404 -3.98609e-06H9.09573e-06V26.5897H9.31404V-3.98609e-06Z" transform="translate(295.378 133.988)" fill="#6C63FF"/>
<path opacity="0.1" d="M9.31404 -3.98609e-06H9.09573e-06V1.86594H9.31404V-3.98609e-06Z" transform="translate(295.378 138.186)" fill="#6C63FF"/>
<path opacity="0.1" d="M9.31404 -3.98609e-06H9.09573e-06V1.86594H9.31404V-3.98609e-06Z" transform="translate(295.378 152.647)" fill="#6C63FF"/>
<path opacity="0.1" d="M9.31404 -3.98609e-06H9.09573e-06V26.5897H9.31404V-3.98609e-06Z" transform="translate(309.349 133.988)" fill="#6C63FF"/>
<path opacity="0.1" d="M9.31404 -3.98609e-06H9.09573e-06V1.86594H9.31404V-3.98609e-06Z" transform="translate(309.349 138.186)" fill="#6C63FF"/>
<path opacity="0.1" d="M9.31404 -3.98609e-06H9.09573e-06V1.86594H9.31404V-3.98609e-06Z" transform="translate(309.349 152.647)" fill="#6C63FF"/>
<path opacity="0.1" d="M9.31404 -3.98609e-06H9.09573e-06V26.5897H9.31404V-3.98609e-06Z" transform="translate(323.32 133.988)" fill="#6C63FF"/>
<path opacity="0.1" d="M9.31404 -3.98609e-06H9.09573e-06V1.86594H9.31404V-3.98609e-06Z" transform="translate(323.32 138.186)" fill="#6C63FF"/>
<path opacity="0.1" d="M9.31404 -3.98609e-06H9.09573e-06V1.86594H9.31404V-3.98609e-06Z" transform="translate(323.32 152.647)" fill="#6C63FF"/>
<path opacity="0.1" d="M9.31402 1.77731V25.9973H-1.25066e-05V-1.99305e-06C3.11708 0.550452 6.22176 1.14289 9.31402 1.77731Z" transform="translate(351.263 44.0819)" fill="#6C63FF"/>
<path opacity="0.1" d="M9.31404 0H9.09573e-06V1.86595H9.31404V0Z" transform="translate(351.263 47.6879)" fill="#6C63FF"/>
<path opacity="0.1" d="M9.31404 3.13193e-06H9.09573e-06V1.86595H9.31404V3.13193e-06Z" transform="translate(351.263 62.1489)" fill="#6C63FF"/>
<path opacity="0.1" d="M9.31402 2.23913V23.231H-1.25066e-05V-3.41665e-06C1.21081 0.265894 2.41699 0.545792 3.62316 0.830349C5.52943 1.27818 7.42637 1.74777 9.31402 2.23913Z" transform="translate(365.234 46.8575)" fill="#6C63FF"/>
<path opacity="0.1" d="M9.31402 1.39946V1.86594H-1.25066e-05V-1.99305e-06H3.62316C5.52943 0.441605 7.42637 0.908092 9.31402 1.39946Z" transform="translate(365.234 47.6973)" fill="#6C63FF"/>
<path opacity="0.1" d="M9.31404 3.13193e-06H9.09573e-06V1.86595H9.31404V3.13193e-06Z" transform="translate(365.234 62.1489)" fill="#6C63FF"/>
<g opacity="0.1">
<path opacity="0.1" d="M4.72136 0.316398C4.72136 0.316398 1.89921 -0.644561 0.530046 1.85114C0.172004 2.52675 -0.010135 3.28191 0.000447196 4.04674C0.0110294 4.81157 0.213993 5.56138 0.59059 6.22679C1.48474 7.84083 3.32427 9.95868 6.80772 9.75343C9.76493 9.59482 10.7476 7.33702 10.999 5.23317C11.0955 4.44621 10.9901 3.64761 10.6928 2.9128C10.3955 2.17798 9.91609 1.53118 9.29992 1.0335C8.68375 0.535808 7.95114 0.203657 7.17121 0.0683916C6.39128 -0.066874 5.58979 -0.000787181 4.84245 0.260422L4.72136 0.316398Z" transform="translate(304.81 104.88)" fill="#6C63FF"/>
<path opacity="0.1" d="M1.18669 6.5353C0.810094 5.86988 0.607102 5.12008 0.59652 4.35524C0.585938 3.59041 0.768105 2.83526 1.12615 2.15965C2.486 -0.331391 5.31746 0.624917 5.31746 0.624917L5.46183 0.573596C6.53924 0.183053 7.72344 0.209673 8.78228 0.648236C8.19772 0.299564 7.54319 0.0852328 6.86589 0.0206968C6.1886 -0.0438392 5.50545 0.0430355 4.86574 0.275052L4.72138 0.326359C4.72138 0.326359 1.89923 -0.6346 0.530064 1.8611C0.172022 2.53672 -0.0101452 3.29187 0.000436963 4.0567C0.0110191 4.82153 0.213983 5.57134 0.590579 6.23675C1.2904 7.57321 2.41439 8.63834 3.78531 9.26424C2.6861 8.60997 1.78724 7.66603 1.18669 6.5353Z" transform="translate(304.828 104.8)" fill="#6C63FF"/>
<path opacity="0.2" d="M-7.95876e-06 -1.13888e-06C-7.95876e-06 -1.13888e-06 1.04783 0.82568 3.59056 -1.13888e-06H-7.95876e-06Z" transform="translate(308.073 106.395)" fill="#6C63FF"/>
<path opacity="0.1" d="M-3.4109e-06 -3.98609e-06C-3.4109e-06 -3.98609e-06 1.79296 4.87012 1.64394 6.14363L3.06432 5.99435C3.06432 5.99435 0.670598 1.726 1.27135 -3.98609e-06H-3.4109e-06Z" transform="translate(307.845 100.401)" fill="#6C63FF"/>
<path opacity="0.2" d="M-3.4109e-06 -3.98609e-06C-3.4109e-06 -3.98609e-06 1.79296 4.87012 1.64394 6.14363L3.06432 5.99435C3.06432 5.99435 0.670598 1.726 1.27135 -3.98609e-06H-3.4109e-06Z" transform="translate(307.845 100.401)" fill="#6C63FF"/>
<path opacity="0.1" d="M5.5465 0.724394C5.5465 0.724394 2.7197 -0.721718 1.45765 0.472488C0.195601 1.66669 4.54787e-06 4.72219 4.54787e-06 4.72219C4.54787e-06 4.72219 4.60578 5.34728 5.5465 0.724394Z" transform="translate(309.629 100.087)" fill="#6C63FF"/>
<path opacity="0.1" d="M5.5465 0.724394C5.5465 0.724394 2.7197 -0.721718 1.45765 0.472488C0.195601 1.66669 4.54787e-06 4.72219 4.54787e-06 4.72219C4.54787e-06 4.72219 4.60578 5.34728 5.5465 0.724394Z" transform="translate(309.629 100.087)" fill="#6C63FF"/>
<path opacity="0.1" d="M0 4.00246C0 4.00246 0.740453 0.457151 5.54649 -6.26386e-06L0 4.00246Z" transform="translate(309.624 100.807)" fill="#6C63FF"/>
</g>
<g opacity="0.1">
<path opacity="0.1" d="M4.72136 0.316398C4.72136 0.316398 1.89921 -0.644561 0.530046 1.85114C0.172004 2.52675 -0.010135 3.28191 0.000447196 4.04674C0.0110294 4.81157 0.213993 5.56138 0.59059 6.22679C1.48474 7.84083 3.32427 9.95868 6.80772 9.75343C9.76493 9.59482 10.7476 7.33702 10.999 5.23317C11.0955 4.44621 10.9901 3.64761 10.6928 2.9128C10.3955 2.17798 9.91609 1.53118 9.29992 1.0335C8.68375 0.535808 7.95114 0.203657 7.17121 0.0683916C6.39128 -0.066874 5.58979 -0.000787181 4.84245 0.260422L4.72136 0.316398Z" transform="translate(364.419 151.062)" fill="#6C63FF"/>
<path opacity="0.1" d="M1.18669 6.5353C0.810094 5.86988 0.607102 5.12008 0.59652 4.35524C0.585938 3.59041 0.768105 2.83526 1.12615 2.15965C2.486 -0.331391 5.31746 0.624917 5.31746 0.624917L5.46183 0.573596C6.53924 0.183053 7.72344 0.209673 8.78228 0.648236C8.19772 0.299564 7.54319 0.0852328 6.86589 0.0206968C6.1886 -0.0438392 5.50545 0.0430355 4.86574 0.275052L4.72138 0.326359C4.72138 0.326359 1.89923 -0.6346 0.530064 1.8611C0.172022 2.53672 -0.0101452 3.29187 0.000436963 4.0567C0.0110191 4.82153 0.213983 5.57134 0.590579 6.23675C1.2904 7.57321 2.41439 8.63834 3.78531 9.26424C2.6861 8.60997 1.78724 7.66603 1.18669 6.5353Z" transform="translate(364.438 150.982)" fill="#6C63FF"/>
<path opacity="0.2" d="M-7.95876e-06 -1.13888e-06C-7.95876e-06 -1.13888e-06 1.04783 0.82568 3.59056 -1.13888e-06H-7.95876e-06Z" transform="translate(367.683 152.577)" fill="#6C63FF"/>
<path opacity="0.1" d="M-3.4109e-06 -3.98609e-06C-3.4109e-06 -3.98609e-06 1.79296 4.87012 1.64394 6.14363L3.06432 5.99435C3.06432 5.99435 0.670598 1.726 1.27135 -3.98609e-06H-3.4109e-06Z" transform="translate(367.455 146.583)" fill="#6C63FF"/>
<path opacity="0.2" d="M-3.4109e-06 -3.98609e-06C-3.4109e-06 -3.98609e-06 1.79296 4.87012 1.64394 6.14363L3.06432 5.99435C3.06432 5.99435 0.670598 1.726 1.27135 -3.98609e-06H-3.4109e-06Z" transform="translate(367.455 146.583)" fill="#6C63FF"/>
<path opacity="0.1" d="M5.5465 0.724394C5.5465 0.724394 2.7197 -0.721718 1.45765 0.472488C0.195601 1.66669 4.54787e-06 4.72219 4.54787e-06 4.72219C4.54787e-06 4.72219 4.60578 5.34728 5.5465 0.724394Z" transform="translate(369.239 146.269)" fill="#6C63FF"/>
<path opacity="0.1" d="M5.5465 0.724394C5.5465 0.724394 2.7197 -0.721718 1.45765 0.472488C0.195601 1.66669 4.54787e-06 4.72219 4.54787e-06 4.72219C4.54787e-06 4.72219 4.60578 5.34728 5.5465 0.724394Z" transform="translate(369.239 146.269)" fill="#6C63FF"/>
<path opacity="0.1" d="M0 4.00246C0 4.00246 0.740453 0.457151 5.54649 -6.26386e-06L0 4.00246Z" transform="translate(369.234 146.989)" fill="#6C63FF"/>
</g>
<path opacity="0.1" d="M25.1479 17.9131C39.0367 17.9131 50.2958 13.9031 50.2958 8.95656C50.2958 4.00999 39.0367 6.8333e-06 25.1479 6.8333e-06C11.2591 6.8333e-06 9.09573e-06 4.00999 9.09573e-06 8.95656C9.09573e-06 13.9031 11.2591 17.9131 25.1479 17.9131Z" transform="translate(438.232 276)" fill="black"/>
<path d="M10.3768 155.746C10.3768 155.746 24.7251 106.956 7.68511 71.0412C0.53659 55.9691 -1.83848 39.0496 1.46334 22.6946C3.0438 14.9366 5.33063 7.33995 8.29517 2.27777e-06" transform="translate(453.022 129.286)" stroke="#535461" stroke-width="2" stroke-miterlimit="10"/>
<path d="M-1.36436e-05 10.8272C-1.36436e-05 16.8075 10.8089 34.1515 10.8089 34.1515C10.8089 34.1515 21.6179 16.8122 21.6179 10.8272C21.6179 7.95561 20.479 5.20168 18.452 3.1712C16.4249 1.14071 13.6756 4.55553e-06 10.8089 4.55553e-06C7.94222 4.55553e-06 5.19294 1.14071 3.16587 3.1712C1.1388 5.20168 -1.36436e-05 7.95561 -1.36436e-05 10.8272Z" transform="translate(450.718 95.7593)" fill="#6C63FF"/>
<path d="M1.75323 16.7188C5.01314 21.7382 23.4782 30.4101 23.4782 30.4101C23.4782 30.4101 23.1429 9.96869 19.897 4.94929C19.1255 3.75473 18.1266 2.72408 16.9575 1.91618C15.7884 1.10828 14.4718 0.538949 13.083 0.240709C11.6942 -0.0575302 10.2604 -0.0788414 8.86339 0.177985C7.46637 0.434812 6.13353 0.96475 4.94097 1.73754C3.74841 2.51034 2.71949 3.51085 1.91295 4.68196C1.1064 5.85307 0.538035 7.17184 0.240298 8.56297C-0.0574397 9.95411 -0.0787152 11.3904 0.177679 12.7897C0.434074 14.1891 0.96312 15.5242 1.73461 16.7188H1.75323Z" transform="translate(431.096 122.988)" fill="#6C63FF"/>
<path d="M5.94259 20.4953C11.2749 23.187 31.5981 21.3257 31.5981 21.3257C31.5981 21.3257 21.008 3.85108 15.6758 1.15945C14.4083 0.519289 13.0273 0.135473 11.6118 0.029896C10.1962 -0.075681 8.77374 0.0990594 7.42559 0.544145C6.07745 0.98923 4.83004 1.69594 3.75456 2.62393C2.67908 3.55192 1.79659 4.683 1.1575 5.95262C0.51841 7.22223 0.135226 8.60549 0.0298272 10.0234C-0.0755721 11.4414 0.0988883 12.8662 0.543224 14.2167C0.98756 15.5671 1.69307 16.8166 2.6195 17.8939C3.54592 18.9712 4.67512 19.8552 5.94259 20.4953Z" transform="translate(427.675 175.815)" fill="#6C63FF"/>
<path d="M4.38062 19.5325C9.182 23.0871 29.5285 24.6965 29.5285 24.6965C29.5285 24.6965 22.04 5.67785 17.2386 2.12322C16.0974 1.27752 14.8011 0.66526 13.4237 0.321391C12.0463 -0.0224786 10.6148 -0.0912089 9.21088 0.119097C7.80695 0.329402 6.45811 0.814622 5.24139 1.54709C4.02467 2.27955 2.96392 3.24489 2.11965 4.388C1.27538 5.53111 0.664145 6.8296 0.320854 8.20932C-0.022436 9.58905 -0.0910792 11.023 0.118872 12.4293C0.328824 13.8356 0.813256 15.1867 1.54449 16.4055C2.27572 17.6242 3.23943 18.6868 4.38062 19.5325Z" transform="translate(439.482 219.471)" fill="#6C63FF"/>
<path d="M24.2165 18.6308C19.9367 22.7965 -4.54787e-06 27.1115 -4.54787e-06 27.1115C-4.54787e-06 27.1115 4.8852 7.2625 9.165 3.09678C10.1816 2.09816 11.3852 1.31057 12.7066 0.779264C14.0279 0.24796 15.4411 -0.0165864 16.8648 0.000808608C18.2886 0.0182036 19.695 0.317195 21.003 0.880624C22.3111 1.44405 23.4951 2.26082 24.4871 3.28398C25.4791 4.30714 26.2595 5.51654 26.7835 6.84272C27.3074 8.1689 27.5647 9.58572 27.5404 11.0118C27.5161 12.4378 27.2108 13.845 26.642 15.1525C26.0731 16.46 25.252 17.6421 24.2258 18.6308H24.2165Z" transform="translate(453.056 135.925)" fill="#6C63FF"/>
<path d="M25.6555 20.4953C20.3232 23.187 -1.25066e-05 21.3257 -1.25066e-05 21.3257C-1.25066e-05 21.3257 10.59 3.85108 15.9223 1.15946C17.1898 0.519292 18.5707 0.135462 19.9863 0.0298846C21.4019 -0.0756924 22.8243 0.0990623 24.1725 0.544147C25.5206 0.989232 26.768 1.69593 27.8435 2.62392C28.919 3.55191 29.8015 4.68299 30.4406 5.9526C31.0797 7.22222 31.4628 8.60549 31.5682 10.0234C31.6736 11.4414 31.4992 12.8663 31.0548 14.2167C30.6105 15.5671 29.905 16.8166 28.9786 17.8939C28.0521 18.9712 26.923 19.8552 25.6555 20.4953Z" transform="translate(462.914 184.142)" fill="#6C63FF"/>
<path d="M25.1479 19.6044C20.3465 23.159 -1.59175e-05 24.7684 -1.59175e-05 24.7684C-1.59175e-05 24.7684 7.48847 5.74974 12.2899 2.19511C13.4297 1.33063 14.7295 0.701257 16.1138 0.343426C17.4982 -0.0144058 18.9396 -0.0935721 20.3548 0.110496C21.7699 0.314563 23.1305 0.79782 24.3579 1.53228C25.5853 2.26673 26.655 3.23778 27.5051 4.38922C28.3552 5.54067 28.9688 6.84961 29.3104 8.24024C29.652 9.63088 29.7148 11.0756 29.4951 12.4907C29.2754 13.9058 28.7777 15.2632 28.0307 16.4843C27.2837 17.7054 26.3022 18.7659 25.1432 19.6044H25.1479Z" transform="translate(467.772 235.222)" fill="#6C63FF"/>
<path opacity="0.1" d="M25.1479 17.9131C39.0367 17.9131 50.2957 13.9031 50.2957 8.95655C50.2957 4.00999 39.0367 0 25.1479 0C11.2591 0 -2.27393e-06 4.00999 -2.27393e-06 8.95655C-2.27393e-06 13.9031 11.2591 17.9131 25.1479 17.9131Z" transform="translate(375.642 250.25)" fill="black"/>
<path d="M4.85086 72.9678C4.85086 72.9678 11.5709 50.11 3.5888 33.2838C0.195573 26.2479 -0.827398 18.2991 0.673503 10.6312C1.41512 6.9969 2.48761 3.43829 3.87753 5.69442e-06" transform="translate(394.919 187.513)" stroke="#535461" stroke-width="2" stroke-miterlimit="10"/>
<path d="M0.00465588 5.07304C0.00465588 7.87196 5.06683 15.9982 5.06683 15.9982C5.06683 15.9982 10.129 7.87196 10.129 5.07304C10.129 3.72758 9.59544 2.43724 8.64566 1.48586C7.69588 0.534476 6.40769 -2.84721e-06 5.0645 -2.84721e-06C3.72131 -2.84721e-06 2.43314 0.534476 1.48337 1.48586C0.533587 2.43724 -5.68483e-06 3.72758 -5.68483e-06 5.07304H0.00465588Z" transform="translate(393.823 171.804)" fill="#6C63FF"/>
<path d="M0.813077 7.83039C2.33126 10.1628 10.9933 14.2446 10.9933 14.2446C10.9933 14.2446 10.8349 4.66761 9.31676 2.31652C8.95533 1.75722 8.48747 1.2747 7.93987 0.896518C7.39227 0.518338 6.77566 0.251907 6.12527 0.112425C5.47487 -0.0270567 4.80342 -0.036854 4.14925 0.083597C3.49507 0.204048 2.87098 0.452387 2.31262 0.814433C1.75426 1.17648 1.27257 1.64514 0.895023 2.19366C0.51748 2.74219 0.251497 3.35983 0.11225 4.01132C-0.0269965 4.66281 -0.0367915 5.33539 0.0834568 5.99067C0.203705 6.64595 0.45164 7.27109 0.813077 7.83039Z" transform="translate(384.646 184.562)" fill="#6C63FF"/>
<path d="M2.77514 9.60219C5.2713 10.8617 14.7949 9.99403 14.7949 9.99403C14.7949 9.99403 9.83518 1.80719 7.34367 0.543016C6.74984 0.243149 6.10287 0.0633842 5.43968 0.0139761C4.77649 -0.0354321 4.11008 0.0464907 3.4785 0.255063C2.20296 0.676295 1.1467 1.58784 0.542114 2.78916C-0.062476 3.99048 -0.165891 5.38316 0.254632 6.66086C0.675154 7.93855 1.58517 8.99658 2.78447 9.60219H2.77514Z" transform="translate(383.047 209.31)" fill="#6C63FF"/>
<path d="M2.04922 9.14793C4.29856 10.8133 13.8315 11.569 13.8315 11.569C13.8315 11.569 10.3201 2.65908 8.0754 0.993725C7.54058 0.59768 6.93313 0.311042 6.28772 0.150154C5.6423 -0.0107338 4.97157 -0.0427097 4.31383 0.0560537C3.65608 0.154817 3.02418 0.382395 2.45423 0.725774C1.88429 1.06915 1.38745 1.52161 0.992067 2.05733C0.596689 2.59305 0.310505 3.20152 0.149888 3.84802C-0.0107293 4.49452 -0.042623 5.16638 0.0559742 5.82524C0.154571 6.48409 0.381738 7.11703 0.724539 7.68794C1.06734 8.25885 1.51904 8.75655 2.05385 9.1526L2.04922 9.14793Z" transform="translate(388.56 229.767)" fill="#6C63FF"/>
<path d="M11.3538 8.71067C9.34664 10.6606 1.13697e-05 12.6851 1.13697e-05 12.6851C1.13697e-05 12.6851 2.29125 3.3834 4.29376 1.43349C5.25716 0.496308 6.55277 -0.01914 7.89556 0.000543737C9.23835 0.0202275 10.5183 0.573419 11.4539 1.53843C12.3895 2.50345 12.9041 3.80123 12.8845 5.14629C12.8648 6.49134 12.3125 7.77349 11.3492 8.71067H11.3538Z" transform="translate(394.917 190.641)" fill="#6C63FF"/>
<path d="M12.0197 9.60219C9.52359 10.8617 -6.8218e-06 9.99403 -6.8218e-06 9.99403C-6.8218e-06 9.99403 4.95971 1.80721 7.45122 0.543032C8.65051 -0.0625767 10.0409 -0.166166 11.3164 0.255066C12.592 0.676297 13.6482 1.58785 14.2528 2.78917C14.8574 3.99049 14.9608 5.38317 14.5403 6.66086C14.1197 7.93855 13.2097 8.99658 12.0105 9.60219H12.0197Z" transform="translate(399.556 213.214)" fill="#6C63FF"/>
<path d="M11.7822 9.14977C9.53291 10.8151 5.68483e-06 11.5708 5.68483e-06 11.5708C5.68483e-06 11.5708 3.51139 2.66095 5.75607 0.995591C6.29058 0.599239 6.89779 0.312226 7.54304 0.150938C8.18828 -0.0103498 8.85892 -0.0427736 9.51667 0.0555567C10.1744 0.153887 10.8064 0.381046 11.3765 0.724024C11.9466 1.067 12.4437 1.51908 12.8394 2.0545C13.2351 2.58991 13.5216 3.19815 13.6826 3.84448C13.8436 4.49081 13.876 5.16258 13.7778 5.82144C13.6797 6.48029 13.4529 7.11335 13.1105 7.68442C12.7681 8.2555 12.3168 8.75342 11.7822 9.14977Z" transform="translate(401.81 237.163)" fill="#6C63FF"/>
<path d="M508.201 275.146L364.002 198.525H333.764L341.587 133.292C341.759 131.864 341.644 130.416 341.25 129.033C340.855 127.65 340.19 126.36 339.292 125.238C338.393 124.116 337.281 123.185 336.019 122.499C334.757 121.813 333.371 121.386 331.943 121.243L331.132 121.275H331.053L221.05 122.95C218.234 122.751 215.439 123.563 213.167 125.241C210.895 126.919 209.295 129.354 208.653 132.107L203.53 169.594L202.79 168.46L202.431 167.915C205.137 166.151 199.8 155.669 195.278 147.856L194.868 147.147C197.737 145.948 200.922 144.814 200.922 144.814L193.867 140.401C193.867 140.401 187.375 130.988 180.464 123.351C185.121 94.1398 175.285 60.3755 175.169 59.909L174.908 59.979C176.273 57.7644 176.993 55.2113 176.985 52.6085C176.986 50.6259 176.566 48.6657 175.754 46.8578C174.941 45.05 173.755 43.4357 172.272 42.1219C171.997 39.6215 171.602 37.0465 171.033 34.3362C170.931 33.8697 170.824 33.3519 170.708 32.8574C170.177 30.525 169.641 28.1926 168.938 25.9068C168.45 24.2772 167.845 22.6853 167.126 21.1439C163.452 13.3676 155.894 7.80709 147.613 5.84784C143.352 4.84023 138.984 6.40296 135.007 5.65658C133.004 5.28806 131.211 3.36147 129.26 2.58244C126.787 1.59349 124.109 1.13166 121.492 0.716492C118.232 0.170702 114.847 -0.370421 111.601 0.338639C106.245 1.50486 102.161 5.85251 99.1571 10.4427C96.1534 15.033 93.8202 20.1177 90.1086 24.1574C87.6264 26.8631 84.5714 29.0369 82.3593 31.9664C79.0994 36.2768 77.9677 41.7627 76.9199 47.0899C75.6252 53.6441 74.3306 60.2915 74.3585 66.9483C74.3585 68.4923 74.3818 70.0411 74.5169 71.5898C74.8568 75.5643 75.7603 79.4828 75.9745 83.4619C75.9745 83.8911 76.0071 84.3202 76.0164 84.7494C75.9699 92.0313 73.823 99.2105 71.6901 106.208C71.0101 108.433 70.3209 110.677 69.5152 112.869C65.2308 113.233 61.1326 114.091 58.0078 115.78C46.5888 121.9 37.801 135.55 37.801 135.55L21.0963 150.944C21.0963 150.944 27.6906 154.027 30.7689 159.313C30.8791 159.499 31.0053 159.675 31.1461 159.84L30.9039 160.4L21.0963 183.089C21.0963 183.089 27.2528 187.493 36.4644 186.611C37.9616 186.424 39.481 186.535 40.9352 186.938C40.9352 187.218 40.9072 187.502 40.8979 187.801C40.3344 200.783 40.0364 229.23 46.7425 248.444L31.5885 266.171L1.31794 275.151L-4.26362e-07 298.475H509.081L508.201 275.146ZM71.6109 188.169C72.9091 188.434 74.1753 188.838 75.3877 189.373V205.588C74.5867 199.86 73.4737 193.991 71.9229 189.112C71.8251 188.795 71.7366 188.482 71.6109 188.169ZM159.018 219.373C159.018 219.317 159.018 219.261 159.018 219.205C159.037 218.639 159.113 218.076 159.247 217.525C159.436 216.672 159.856 215.888 160.462 215.258C161.584 214.134 162.744 212.926 163.904 211.615C164.618 213.461 165.648 215.168 166.949 216.658C168.44 218.323 171.769 219.821 176.445 221.173C170.671 220.276 164.854 219.675 159.018 219.373ZM197.024 217.134L181.805 221.645C174.61 220.031 169.492 218.183 167.597 216.047C166.271 214.515 165.241 212.75 164.56 210.841C169.99 204.534 175.271 196.048 176.482 184.461C176.515 184.158 176.538 183.845 176.566 183.528C178.217 182.588 179.776 181.495 181.223 180.263L181.498 180.906C185.59 190.226 191.378 198.702 198.566 205.901L197.024 217.134ZM174.466 60.66C175.663 64.9844 183.78 95.5999 179.71 122.521C177.176 119.787 174.619 117.343 172.328 115.733C171.785 115.357 171.218 115.019 170.628 114.721C170.121 109.786 169.888 104.668 169.851 99.5977C169.897 93.3188 170.27 87.0912 170.782 81.1668C171.336 74.8879 171.988 68.8982 172.393 63.0065C173.169 62.3039 173.864 61.5169 174.466 60.66Z" transform="translate(21.9186 30.8077)" fill="url(#paint1_linear)"/>
<path d="M11.4377 1.9931e-06H15.4101V27.5227H11.4377C8.40421 27.5227 5.495 26.3156 3.35003 24.1671C1.20506 22.0185 3.18604e-05 19.1044 3.18604e-05 16.0658V11.4849C-0.0036433 9.978 0.289485 8.48518 0.862634 7.09193C1.43578 5.69869 2.27769 4.43238 3.34014 3.36554C4.40259 2.29871 5.66471 1.45229 7.05421 0.874778C8.44371 0.297265 9.93329 -2.50368e-06 11.4377 1.9931e-06Z" transform="translate(200.394 99.0061) rotate(-180)" fill="#DFE6F5"/>
<path d="M3.93517 1.99305e-06H2.80818C1.25727 1.99305e-06 2.27393e-06 1.25939 2.27393e-06 2.81292V24.6865C2.27393e-06 26.24 1.25727 27.4994 2.80818 27.4994H3.93517C5.48609 27.4994 6.74335 26.24 6.74335 24.6865V2.81292C6.74335 1.25939 5.48609 1.99305e-06 3.93517 1.99305e-06Z" transform="translate(188.356 99.0061) rotate(-180)" fill="#68739D"/>
<g opacity="0.1">
<path opacity="0.1" d="M11.4377 1.9931e-06H15.4101V27.5227H11.4377C8.40421 27.5227 5.495 26.3156 3.35003 24.1671C1.20506 22.0185 3.18604e-05 19.1044 3.18604e-05 16.0658V11.4849C-0.0036433 9.978 0.289485 8.48518 0.862634 7.09193C1.43578 5.69869 2.27769 4.43238 3.34014 3.36554C4.40259 2.29871 5.66471 1.45229 7.05421 0.874778C8.44371 0.297265 9.93329 -2.50368e-06 11.4377 1.9931e-06Z" transform="translate(200.394 99.0061) rotate(-180)" fill="black"/>
<path opacity="0.1" d="M3.93517 1.99305e-06H2.80818C1.25727 1.99305e-06 2.27393e-06 1.25939 2.27393e-06 2.81292V24.6865C2.27393e-06 26.24 1.25727 27.4994 2.80818 27.4994H3.93517C5.48609 27.4994 6.74335 26.24 6.74335 24.6865V2.81292C6.74335 1.25939 5.48609 1.99305e-06 3.93517 1.99305e-06Z" transform="translate(188.355 99.0061) rotate(-180)" fill="black"/>
</g>
<path d="M69.4314 0H0V72.1422H69.4314V0Z" transform="translate(121.416 86.0518)" fill="#865A61"/>
<path opacity="0.1" d="M69.4314 -2.84721e-06H0V72.1422H69.4314V-2.84721e-06Z" transform="translate(121.416 76.1155)" fill="black"/>
<path d="M90.0538 49.2517L85.8624 79.7599L83.8879 94.0997L83.1614 99.3663L77.0747 111.252L65.8978 133.065L44.3359 135.659L6.40914 82.083C6.40914 82.083 -13.4484 44.069 16.7431 47.521C33.6713 49.4616 37.6996 34.2821 38.0023 20.5721C38.0784 13.6692 37.4543 6.77648 36.1395 2.27777e-06L66.3263 14.6897C65.6246 17.9644 65.0968 20.9732 64.7429 23.7162C63.2713 34.9398 64.4914 41.9371 67.0435 46.1775C73.8381 57.4711 90.0538 49.2517 90.0538 49.2517Z" transform="translate(98.4229 96.6316)" fill="#FDC2CC"/>
<path opacity="0.1" d="M30.1961 14.685C29.4944 17.9597 28.9666 20.9686 28.6127 23.7115C25.4802 24.6045 22.2389 25.0567 18.982 25.055C12.9851 25.0649 7.0876 23.5206 1.8628 20.5721C1.93888 13.6692 1.31474 6.77648 -1.70545e-06 -2.84721e-06L30.1961 14.685Z" transform="translate(134.562 96.6409)" fill="black"/>
<path d="M34.9323 69.9823C54.2248 69.9823 69.8645 54.3162 69.8645 34.9912C69.8645 15.6661 54.2248 0 34.9323 0C15.6397 0 0 15.6661 0 34.9912C0 54.3162 15.6397 69.9823 34.9323 69.9823Z" transform="translate(118.612 50.846)" fill="#FDC2CC"/>
<path d="M143.613 89.448L2.55817e-06 100.69L23.2851 73.4755C48.27 58.1841 48.0557 37.1642 44.7353 24.1259C43.7048 19.9474 42.1477 15.9172 40.1016 12.1325L89.7407 12.3658H90.1598L94.2393 21.6535L94.4256 22.0733L97.462 28.982L107.81 10.4065L111.41 4.59409L113.422 1.32868C113.422 1.32868 143.18 -5.58465 143.608 12.1278C143.66 14.1616 143.581 16.1966 143.371 18.2202C141.89 32.476 134.103 41.955 127.653 48.4158C120.323 55.7537 143.613 89.448 143.613 89.448Z" transform="translate(56.5108 195.537)" fill="#EC7580"/>
<path d="M108.471 50.6389C107.419 54.8373 110.073 62.0539 113.594 69.1398C96.7122 70.9591 78.2006 70.0121 78.2006 70.0121L59.2046 75.1995L5.73278 90.7521C3.40427 87.734 1.54147 83.9414 -2.27393e-06 79.6684L5.29968 73.4735C21.9764 63.2667 27.4252 50.5083 28.2215 39.2753C28.5384 34.177 28.0416 29.0608 26.7499 24.1192C25.7202 19.9441 24.1647 15.9172 22.1208 12.1351L71.7599 12.3684H72.1791L76.2586 21.6561L76.4449 22.076L79.4813 28.9846L89.8292 10.4091L93.4197 4.59672L95.4315 1.33131C95.4315 1.33131 125.19 -5.59135 125.623 12.1351C125.675 14.1689 125.595 16.2039 125.385 18.2275C123.905 32.4833 116.118 41.9623 109.668 48.4231C109.074 49.0378 108.66 49.8044 108.471 50.6389Z" transform="translate(74.5009 196.393)" fill="#EC7580"/>
<path d="M92.7351 78.631C91.8736 88.9963 66.8607 75.1743 66.8607 75.1743C66.8607 75.1743 59.0975 72.5806 32.79 55.7358C19.4337 47.1855 8.90146 34.868 2.51945 20.3342C1.51318 18.0877 0.671149 15.7709 5.68483e-07 13.4022L18.1251 0L23.4108 8.09354L40.9817 34.9865L66.8561 52.2465C66.8561 52.2465 93.5967 68.2656 92.7351 78.631Z" transform="translate(202.266 190.801)" fill="#FDC2CC"/>
<path d="M497.243 75.1696H-2.13181e-07L49.7788 60.4147L174.224 23.5249L253.579 -6.26386e-06H355.791L497.243 75.1696Z" transform="translate(28.0472 228.391)" fill="#CBCDDA"/>
<path d="M1.29465 -1.36666e-05L3.55302e-07 22.8952H499.4L498.538 -1.36666e-05H1.29465Z" transform="translate(26.7524 303.56)" fill="#CBCDDA"/>
<path opacity="0.1" d="M1.29465 -1.36666e-05L3.55302e-07 22.8952H499.4L498.538 -1.36666e-05H1.29465Z" transform="translate(26.7524 303.56)" fill="black"/>
<path d="M0.602964 10.8178L105.707 -2.27777e-06L107.002 20.7353L58.96 25.5075C55.646 25.777 52.3104 25.5172 49.0778 24.7378L0.514479 12.1706C0.359609 12.13 0.223711 12.0366 0.130099 11.9065C0.0364875 11.7764 -0.00898686 11.6177 0.00148011 11.4576C0.0119471 11.2976 0.0777014 11.1462 0.187459 11.0295C0.297217 10.9127 0.444121 10.8379 0.602964 10.8178Z" transform="translate(157.808 260.364)" fill="#68739D"/>
<path opacity="0.2" d="M0.602964 10.8178L105.707 -2.27777e-06L107.002 20.7353L58.96 25.5075C55.646 25.777 52.3104 25.5172 49.0778 24.7378L0.514479 12.1706C0.359609 12.13 0.223711 12.0366 0.130099 11.9065C0.0364875 11.7764 -0.00898686 11.6177 0.00148011 11.4576C0.0119471 11.2976 0.0777014 11.1462 0.187459 11.0295C0.297217 10.9127 0.444121 10.8379 0.602964 10.8178Z" transform="translate(157.808 260.364)" fill="black"/>
<path d="M0.61559 10.8178L106.586 1.13888e-06L107.881 20.7353L59.8342 24.6352C56.5225 24.9087 53.1884 24.6536 49.9567 23.8795L0.527105 12.1753C0.369348 12.137 0.23013 12.0443 0.133971 11.9133C0.0378123 11.7823 -0.00910342 11.6215 0.00147175 11.4593C0.0120469 11.2971 0.0794405 11.1438 0.191786 11.0264C0.304131 10.9091 0.454207 10.8352 0.61559 10.8178Z" transform="translate(157.795 259.93)" fill="#68739D"/>
<path opacity="0.3" d="M0.319713 5.71913L56.3529 -4.55553e-06L57.0375 10.9624L31.6335 13.029C29.8813 13.1718 28.1176 13.0348 26.4083 12.6231L0.27314 6.43286C0.191066 6.41181 0.11892 6.36268 0.0691823 6.29398C0.019445 6.22528 -0.00474604 6.14132 0.000779552 6.05663C0.00630514 5.97195 0.0411983 5.89186 0.0994398 5.83022C0.157681 5.76859 0.235602 5.7293 0.319713 5.71913Z" transform="translate(183.216 265.784)" fill="white"/>
<path opacity="0.1" d="M23.3968 8.10287C23.0569 8.56936 22.4654 8.77928 21.562 8.64867C12.9372 7.35183 3.01775 19.8817 3.01775 19.8817C3.01775 19.8817 2.84078 20.0496 2.51945 20.3481C1.51318 18.1016 0.671148 15.7849 0 13.4162L18.1111 0L23.3968 8.10287Z" transform="translate(202.28 190.801)" fill="black"/>
<path opacity="0.1" d="M35.519 18.2105C31.4628 20.473 25.879 22.0964 21.5247 17.744C14.0036 10.2103 0.819633 11.2132 -1.70545e-06 11.2599C1.34588 11.0733 2.53807 8.30234 3.5533 4.5891L5.56514 1.3237C5.56514 1.3237 35.3234 -5.5803 35.7565 12.1462C35.8069 14.1706 35.7276 16.1962 35.519 18.2105Z" transform="translate(164.367 196.382)" fill="black"/>
<path opacity="0.1" d="M20.3465 -6.8333e-06L17.6454 19.5924L11.5587 31.4785C7.7866 30.511 3.88597 30.1442 -2.84242e-06 30.3916C4.28911 29.7992 7.06003 2.95286 7.06003 2.95286L7.30685 2.89689L20.3465 -6.8333e-06Z" transform="translate(163.93 176.392)" fill="black"/>
<path d="M59.4747 28.5117C50.8499 27.2148 40.9305 39.7447 40.9305 39.7447C40.9305 39.7447 29.288 50.9777 21.5247 43.2013C14.0036 35.6676 0.819633 36.6705 -1.70545e-06 36.7172C4.28911 36.1201 7.06003 9.27376 7.06003 9.27376L7.30685 9.21777L48.6937 3.41665e-06C48.6937 3.41665e-06 51.162 3.78787 53.9468 8.61134C58.9718 17.302 65.0259 29.3467 59.4747 28.5117Z" transform="translate(164.367 170.075)" fill="#EC7580"/>
<path opacity="0.1" d="M43.5524 11.233C43.9855 12.096 36.6507 16.4157 33.2045 15.1188C29.7583 13.822 21.1289 20.7167 20.2673 21.5983C19.4058 22.48 -5.68483e-06 20.3015 -5.68483e-06 20.3015C0.805189 16.6461 1.38531 12.9445 1.73707 9.21777L43.1239 3.41665e-06C43.1239 3.41665e-06 45.5922 3.78787 48.3771 8.61134C45.8017 9.67027 43.3428 10.8085 43.5524 11.233Z" transform="translate(169.937 170.075)" fill="black"/>
<path opacity="0.1" d="M23.7088 3.06015L19.5175 33.5684L17.543 47.9082C11.759 47.4743 4.7455 46.6953 4.7455 46.6953C4.7455 46.6953 12.0756 16.0238 5.68483e-06 0.0466487C5.68483e-06 0.0466487 0.256131 0.0466458 0.717176 -2.84721e-06C7.49313 11.2796 23.7088 3.06015 23.7088 3.06015Z" transform="translate(164.768 142.823)" fill="black"/>
<path d="M-6.8218e-06 0.228012C-6.8218e-06 0.228012 21.9951 -1.498 30.6199 4.54767C39.2447 10.5933 51.7534 28.7397 51.7534 28.7397L58.6551 33.0593C58.6551 33.0593 47.8741 36.9452 48.3072 37.8128C48.7403 38.6805 41.4055 42.9955 37.9593 41.6987C34.5131 40.4018 25.8837 47.2965 25.0221 48.1782C24.1606 49.0598 4.75482 46.8813 4.75482 46.8813C4.75482 46.8813 12.0756 16.2098 -6.8218e-06 0.228012Z" transform="translate(165.192 142.633)" fill="#EC7580"/>
<path d="M138.642 169.447C133.65 169.325 16.2791 166.274 5.07434 153.754C-6.85693 140.422 4.72507 102.007 14.4769 74.2693C25.0902 44.0737 12.4371 0.713718 12.3113 0.219242L13.145 -6.8333e-06C13.2754 0.499134 25.9937 44.111 15.2918 74.5539C0.123938 117.709 -3.01023 143.426 5.71701 153.176C16.6796 165.421 137.445 168.57 138.665 168.57L138.642 169.447Z" transform="translate(185.456 92.424)" fill="#DFE6F5"/>
<path d="M26.3777 1.65136L134.951 3.41665e-06C136.351 0.142978 137.708 0.563868 138.944 1.2381C140.179 1.91233 141.268 2.82637 142.147 3.92686C143.026 5.02734 143.677 6.2922 144.062 7.64756C144.447 9.00292 144.559 10.4216 144.391 11.8208L132.073 114.541C131.779 117.009 130.629 119.295 128.823 121C127.018 122.705 124.673 123.721 122.196 123.871L11.2238 130.752C9.65251 130.846 8.07999 130.588 6.62065 129.997C5.16131 129.406 3.85184 128.497 2.78754 127.335C1.72323 126.173 0.930857 124.789 0.468056 123.281C0.00525553 121.774 -0.116327 120.183 0.112157 118.623L14.847 10.6685C15.242 7.96836 16.6608 5.52455 18.8083 3.84519C20.9558 2.16582 23.6668 1.38009 26.3777 1.65136Z" transform="translate(216.577 152.582)" fill="#68739D"/>
<path opacity="0.2" d="M26.3777 1.65136L134.951 3.41665e-06C136.351 0.142978 137.708 0.563868 138.944 1.2381C140.179 1.91233 141.268 2.82637 142.147 3.92686C143.026 5.02734 143.677 6.2922 144.062 7.64756C144.447 9.00292 144.559 10.4216 144.391 11.8208L132.073 114.541C131.779 117.009 130.629 119.295 128.823 121C127.018 122.705 124.673 123.721 122.196 123.871L11.2238 130.752C9.65251 130.846 8.07999 130.588 6.62065 129.997C5.16131 129.406 3.85184 128.497 2.78754 127.335C1.72323 126.173 0.930857 124.789 0.468056 123.281C0.00525553 121.774 -0.116327 120.183 0.112157 118.623L14.847 10.6685C15.242 7.96836 16.6608 5.52455 18.8083 3.84519C20.9558 2.16582 23.6668 1.38009 26.3777 1.65136Z" transform="translate(216.577 152.582)" fill="black"/>
<path d="M26.3731 1.65136L134.947 3.41665e-06C136.348 0.140668 137.707 0.559879 138.945 1.2331C140.182 1.90632 141.273 2.82003 142.154 3.92077C143.035 5.0215 143.688 6.28713 144.074 7.64362C144.461 9.0001 144.573 10.4202 144.405 11.8208L132.087 114.541C131.793 117.009 130.643 119.295 128.837 121C127.032 122.705 124.686 123.721 122.21 123.871L11.2238 130.752C9.6525 130.846 8.07999 130.588 6.62064 129.997C5.1613 129.406 3.85185 128.497 2.78755 127.335C1.72324 126.173 0.93085 124.789 0.468049 123.281C0.0052487 121.774 -0.116333 120.183 0.11215 118.623L14.847 10.6685C15.242 7.96925 16.6601 5.52619 18.8066 3.84694C20.953 2.16769 23.6629 1.38136 26.3731 1.65136Z" transform="translate(217.443 152.582)" fill="#68739D"/>
<path opacity="0.3" d="M5.17394 10.3653C8.03143 10.3653 10.3479 8.04497 10.3479 5.18267C10.3479 2.32036 8.03143 6.26386e-06 5.17394 6.26386e-06C2.31645 6.26386e-06 4.54787e-06 2.32036 4.54787e-06 5.18267C4.54787e-06 8.04497 2.31645 10.3653 5.17394 10.3653Z" transform="translate(291.765 207.441)" fill="white"/>
<path opacity="0.1" d="M113.594 29.8691C96.7122 31.6884 78.2006 30.7415 78.2006 30.7415L59.2046 35.9241L5.73278 51.4768C3.40427 48.4586 1.54147 44.6661 -2.27393e-06 40.3931L5.29968 34.1981C21.9764 23.9914 27.4252 11.233 28.2215 -3.41665e-06C29.6466 11.1724 29.8841 21.2345 29.8841 21.2345L51.446 19.0746L82.7738 11.6109C84.9311 11.0966 87.1412 10.8383 89.3588 10.8411C93.4383 10.8411 100.699 10.9298 108.453 11.3496C107.419 15.5527 110.073 22.7739 113.594 29.8691Z" transform="translate(74.5009 235.668)" fill="black"/>
<path opacity="0.1" d="M133.94 8.0189C124.021 19.6811 73.1337 17.0921 73.1337 17.0921L54.1564 22.2747L0.679925 37.8227C0.447074 37.5195 0.21422 37.2116 -2.55817e-06 36.8898L124.449 0C132.394 1.60471 137.27 4.10508 133.94 8.0189Z" transform="translate(77.826 251.911)" fill="black"/>
<path d="M145.133 52.9473C135.214 64.6094 84.3265 62.0204 84.3265 62.0204L65.3491 67.1984L11.8726 82.7511C-0.701302 66.424 -0.421885 27.5144 0.262696 11.7752C0.448977 7.5488 0.658545 4.99243 0.658545 4.99243C0.658545 4.99243 18.7697 -6.24056 26.966 4.99243C28.4283 6.99366 29.6531 9.79258 30.6916 13.0393C35.4464 28.0089 36.0286 52.5088 36.0286 52.5088L57.5905 50.3489L88.9183 42.8852C91.0771 42.3707 93.2889 42.1124 95.5079 42.1154C108.492 42.1528 153.646 42.9365 145.133 52.9473Z" transform="translate(66.6333 206.12)" fill="#FDC2CC"/>
<path opacity="0.1" d="M30.4196 13.044C27.6673 12.4469 24.3282 12.5775 19.8016 14.4994C10.7437 18.3853 3.84669 17.5223 3.84669 17.5223C3.84669 17.5223 4.40088 13.114 1.42121e-06 11.7752C0.186282 7.5488 0.395843 4.99243 0.395843 4.99243C0.395843 4.99243 18.507 -6.24056 26.7033 4.99243C28.1516 6.99366 29.3858 9.79259 30.4196 13.044Z" transform="translate(66.9006 206.12)" fill="black"/>
<path opacity="0.1" d="M54.3148 9.93149C54.026 9.99213 50.1467 10.7245 42.6722 9.06383C34.909 7.33783 31.8912 10.7898 27.5788 12.5205C23.2664 14.2512 12.0756 15.1142 7.74461 13.3882C6.72473 12.9777 5.70018 12.4552 4.6151 11.9887C3.59018 7.81271 2.03938 3.78417 -2.27393e-06 0L49.6391 0.233243L54.1378 9.52098L54.3148 9.93149Z" transform="translate(96.6217 208.528)" fill="black"/>
<path d="M103.511 38.2239C103.511 38.2239 99.6322 39.0869 91.8689 37.3609C84.1057 35.6349 81.0879 39.0869 76.7755 40.8176C72.4631 42.5482 61.2491 43.4112 56.9367 41.6806C52.6243 39.9499 48.3119 36.4979 39.24 40.3837C30.1681 44.2696 23.2851 43.4066 23.2851 43.4066C23.2851 43.4066 24.1466 36.4932 15.0934 37.3422C6.04015 38.1913 -1.98969e-06 33.8856 -1.98969e-06 33.8856L9.62139 11.6249L12.5087 4.94009L84.6645 0H85.0091L103.511 38.2239Z" transform="translate(47.425 179.372)" fill="#EC7580"/>
<path opacity="0.1" d="M82.2149 17.4932C77.4694 9.71692 52.4566 16.6302 52.4566 16.6302C52.4566 16.6302 40.381 20.0869 37.7917 13.6074C35.2024 7.12792 16.6861 11.4289 16.6861 11.4289C16.6861 11.4289 3.2506 16.4763 3.12666e-06 11.6342L2.88735 4.94942L75.0105 0L82.2149 17.4932Z" transform="translate(57.079 179.372)" fill="black"/>
<path d="M71.1545 1.77513C71.1545 1.77513 47.4363 -2.97837 36.2269 3.07196C25.0175 9.12229 16.3927 22.5105 16.3927 22.5105L1.42121e-06 37.6293C1.42121e-06 37.6293 6.46859 40.6521 9.48634 45.8348C12.5041 51.0175 26.3075 45.8348 26.3075 45.8348C26.3075 45.8348 44.8517 41.5151 47.441 47.9946C50.0303 54.4741 62.1059 51.0174 62.1059 51.0174C62.1059 51.0174 87.1188 44.1041 91.8643 51.8804L71.1545 1.77513Z" transform="translate(47.4576 144.108)" fill="#EC7580"/>
<path opacity="0.1" d="M63.9109 0.705794C60.6976 0.16467 57.3911 -0.362454 54.2057 0.332611C48.9526 1.4755 44.9475 5.74385 41.9996 10.2408C39.0518 14.7377 36.7605 19.7291 33.1234 23.6896C30.6878 26.3439 27.6933 28.4757 25.5231 31.3493C22.3284 35.5803 21.2154 40.9776 20.1862 46.1836C18.6773 53.8246 17.1638 61.5776 17.8297 69.354C18.165 73.2538 19.0499 77.093 19.2594 81.0161C19.6832 88.8951 17.3594 96.6294 15.0681 104.177C13.4801 109.393 11.8408 114.706 8.70199 119.161C6.62031 122.114 3.95184 124.586 1.40911 127.147C0.795293 127.669 0.333544 128.348 0.072545 129.111C-0.476983 131.341 2.21011 132.843 4.26386 133.85C10.5462 136.99 14.6676 143.115 19.5528 148.162C24.438 153.21 31.4282 157.543 38.1483 155.519C40.1415 154.917 42.0322 153.774 44.1093 153.811C45.5064 153.835 46.8476 154.404 48.1749 154.87C51.4767 156.032 54.9534 156.615 58.4529 156.596C59.226 156.662 60.0015 156.5 60.6836 156.13C61.7221 155.425 61.9224 154.007 62.0248 152.757C62.6814 144.911 63.3334 137.036 62.891 129.176C61.8897 111.375 45.4691 90.7844 51.7142 74.0795C54.4292 66.793 59.3936 60.5234 62.1412 53.2509C65.0379 45.5865 75.2507 39.3635 77.2765 31.4193C77.5047 30.5236 77.8167 29.5533 78.5991 29.0868C79.6749 28.4244 81.0767 29.0029 82.1152 29.7213C87.9923 33.7797 89.9063 41.4114 92.0439 48.2314C93.7665 53.7246 95.9009 59.0795 98.4287 64.2506C99.8258 67.0495 102.825 70.2916 105.451 68.5936C104.129 80.3864 96.4914 90.6864 94.7636 102.423C93.0778 113.861 97.162 125.552 95.5786 136.999C94.5362 144.37 91.2042 151.224 86.055 156.592C91.8659 157.748 97.8418 157.802 103.672 156.75C109.582 155.682 115.906 152.878 118.039 147.253C120.368 141.062 116.768 134.42 114.938 128.057C110.546 112.761 110.886 94.6702 112.279 78.8143C113.713 62.5106 115.865 48.2361 112.218 32.2823C111.324 28.3685 110.416 24.422 108.702 20.7927C105.098 13.1657 97.6836 7.70777 89.5571 5.78584C85.3658 4.79689 81.0906 6.33162 77.188 5.6039C75.2228 5.23538 73.4624 3.35078 71.5531 2.58574C69.1035 1.5828 66.4769 1.13496 63.9109 0.705794Z" transform="translate(82.0425 34.4896)" fill="black"/>
<path d="M118.025 147.219C115.892 152.845 109.568 155.648 103.654 156.716C97.823 157.766 91.8475 157.712 86.0364 156.558C91.184 151.189 94.5157 144.335 95.56 136.965C97.148 125.513 93.0638 113.823 94.745 102.389C96.4727 90.648 104.11 80.348 105.433 68.5552C102.806 70.2532 99.7839 67.0251 98.4054 64.2122C95.8785 59.0407 93.7442 53.6858 92.0206 48.1931C89.8831 41.373 87.969 33.732 82.0919 29.6829C81.0534 28.9645 79.6516 28.386 78.5758 29.0531C77.7888 29.5196 77.4814 30.5039 77.2532 31.3855C75.2321 39.3158 65.0146 45.5481 62.1226 53.2125C59.3703 60.485 54.4059 66.7406 51.6909 74.0411C45.4691 90.7413 61.8898 111.332 62.8677 129.133C63.3055 136.993 62.6535 144.872 62.0015 152.714C61.8944 153.969 61.6942 155.387 60.6557 156.091C59.9751 156.461 59.2012 156.624 58.4296 156.558C54.9399 156.579 51.4726 155.998 48.1795 154.841C46.8523 154.375 45.5203 153.806 44.1139 153.782C42.0369 153.75 40.1462 154.893 38.153 155.49C31.4329 157.514 24.438 153.181 19.5575 148.133C14.6769 143.086 10.5415 136.97 4.26386 133.849C2.21011 132.823 -0.476985 131.34 0.072543 129.105C0.335722 128.344 0.797182 127.668 1.40911 127.146C3.95184 124.585 6.62497 122.108 8.70665 119.16C11.8455 114.705 13.4801 109.391 15.0728 104.176C17.3734 96.6284 19.6972 88.894 19.2641 81.015C19.0592 77.1105 18.1744 73.2714 17.8344 69.3529C17.1638 61.5905 18.682 53.8282 20.1908 46.1872C21.2154 40.9812 22.3284 35.5839 25.5278 31.3529C27.7026 28.4793 30.6924 26.3475 33.1327 23.6932C36.7745 19.7327 39.0564 14.7413 42.009 10.2397C44.9615 5.73811 48.9665 1.47442 54.2197 0.331532C57.4004 -0.363533 60.7115 0.168263 63.9249 0.704723C66.4909 1.13856 69.1174 1.58638 71.5438 2.57067C73.4578 3.33571 75.2181 5.22497 77.1787 5.58417C81.0813 6.31655 85.3704 4.78182 89.5478 5.77077C97.6742 7.68803 105.088 13.1459 108.693 20.773C109.398 22.2826 109.993 23.8417 110.472 25.4378C111.161 27.677 111.687 29.9674 112.209 32.2532C112.321 32.7197 112.428 33.2235 112.53 33.704C115.72 48.8928 113.662 59.9532 112.269 75.7531C110.877 91.553 110.537 112.722 114.924 128C116.754 134.381 120.373 141.029 118.025 147.219Z" transform="translate(82.0332 33.6277)" fill="#865A61"/>
<path opacity="0.05" d="M1.70545e-06 -5.69442e-07C1.70545e-06 -5.69442e-07 3.45085 5.59785 3.45085 9.50234C3.45085 9.50234 6.04015 -5.69442e-07 8.19635 -5.69442e-07" transform="translate(150.312 208.309)" fill="black"/>
<path d="M41.3823 20.7271V49.2388C41.389 53.896 39.8233 58.4186 36.9395 62.0718C36.4468 62.6948 35.9198 63.2898 35.3608 63.8538C33.4374 65.7889 31.1513 67.3244 28.6339 68.3722C26.1165 69.42 23.4172 69.9593 20.6912 69.9593C17.9651 69.9593 15.2658 69.42 12.7484 68.3722C10.231 67.3244 7.94495 65.7889 6.02156 63.8538C5.46254 63.2898 4.93548 62.6948 4.44284 62.0718C1.55906 58.4186 -0.00668606 53.896 4.09818e-05 49.2388V20.7271C-0.0097707 15.8824 1.68346 11.1888 4.7828 7.46955C5.33296 6.80945 5.92566 6.18614 6.55712 5.6036C10.3905 2.00352 15.4481 -4.05824e-07 20.7028 -4.05824e-07C25.9575 -4.05824e-07 31.0151 2.00352 34.8485 5.6036C35.0161 5.75288 35.1791 5.91615 35.3421 6.07009C35.8078 6.53658 36.213 7.00306 36.6228 7.46955C39.7137 11.1921 41.3986 15.8853 41.3823 20.7271Z" transform="translate(100.734 188.874)" fill="#DFE6F5"/>
<path opacity="0.1" d="M41.3823 20.7271V49.2388C41.389 53.896 39.8233 58.4186 36.9395 62.0718C36.4468 62.6948 35.9198 63.2898 35.3608 63.8538C33.4374 65.7889 31.1513 67.3244 28.6339 68.3722C26.1165 69.42 23.4172 69.9593 20.6912 69.9593C17.9651 69.9593 15.2658 69.42 12.7484 68.3722C10.231 67.3244 7.94495 65.7889 6.02156 63.8538C5.46254 63.2898 4.93548 62.6948 4.44284 62.0718C1.55906 58.4186 -0.00668606 53.896 4.09818e-05 49.2388V20.7271C-0.0097707 15.8824 1.68346 11.1888 4.7828 7.46955C5.33296 6.80945 5.92566 6.18614 6.55712 5.6036C10.3905 2.00352 15.4481 -4.05824e-07 20.7028 -4.05824e-07C25.9575 -4.05824e-07 31.0151 2.00352 34.8485 5.6036C35.0161 5.75288 35.1791 5.91615 35.3421 6.07009C35.8078 6.53658 36.213 7.00306 36.6228 7.46955C39.7137 11.1921 41.3986 15.8853 41.3823 20.7271Z" transform="translate(100.734 188.874)" fill="black"/>
<path d="M41.4102 20.7271V49.2388C41.4169 53.896 39.8512 58.4186 36.9674 62.0718C36.4748 62.6948 35.9477 63.2898 35.3887 63.8538C33.4653 65.7889 31.1793 67.3244 28.6619 68.3722C26.1444 69.42 23.4452 69.9593 20.7191 69.9593C17.993 69.9593 15.2938 69.42 12.7763 68.3722C10.2589 67.3244 7.97289 65.7889 6.0495 63.8538C5.49048 63.2898 4.96342 62.6948 4.47078 62.0718C1.57698 58.4223 0.00126523 53.8993 4.2403e-05 49.2388V20.7271C-0.00976928 15.8824 1.68345 11.1888 4.78279 7.46955C5.33295 6.80945 5.92566 6.18614 6.55711 5.6036C10.3905 2.00352 15.4481 -4.05824e-07 20.7028 -4.05824e-07C25.9575 -4.05824e-07 31.0151 2.00352 34.8485 5.6036C35.0161 5.75288 35.1791 5.91615 35.3421 6.07009C35.8078 6.53658 36.213 7.00306 36.6228 7.46955C39.7238 11.1882 41.4187 15.8818 41.4102 20.7271Z" transform="translate(101.572 188.874)" fill="#DFE6F5"/>
<path opacity="0.1" d="M1.29465 2.59366C2.00966 2.59366 2.5893 2.01305 2.5893 1.29683C2.5893 0.580607 2.00966 -3.98609e-06 1.29465 -3.98609e-06C0.579632 -3.98609e-06 0 0.580607 0 1.29683C0 2.01305 0.579632 2.59366 1.29465 2.59366Z" transform="translate(111.925 194.048)" fill="black"/>
<path opacity="0.1" d="M1.29465 2.59367C2.00966 2.59367 2.5893 2.01305 2.5893 1.29683C2.5893 0.580612 2.00966 0 1.29465 0C0.579632 0 0 0.580612 0 1.29683C0 2.01305 0.579632 2.59367 1.29465 2.59367Z" transform="translate(111.925 198.368)" fill="black"/>
<path opacity="0.1" d="M1.29465 2.59367C2.00966 2.59367 2.5893 2.01306 2.5893 1.29684C2.5893 0.580616 2.00966 5.12498e-06 1.29465 5.12498e-06C0.579632 5.12498e-06 0 0.580616 0 1.29684C0 2.01306 0.579632 2.59367 1.29465 2.59367Z" transform="translate(111.925 202.687)" fill="black"/>
<path opacity="0.1" d="M1.29465 2.59366C2.00966 2.59366 2.5893 2.01305 2.5893 1.29683C2.5893 0.580607 2.00966 -4.55553e-06 1.29465 -4.55553e-06C0.579632 -4.55553e-06 0 0.580607 0 1.29683C0 2.01305 0.579632 2.59366 1.29465 2.59366Z" transform="translate(111.925 207.007)" fill="black"/>
<path opacity="0.1" d="M1.29465 2.59366C2.00966 2.59366 2.5893 2.01305 2.5893 1.29683C2.5893 0.580611 2.00966 0 1.29465 0C0.579632 0 0 0.580611 0 1.29683C0 2.01305 0.579632 2.59366 1.29465 2.59366Z" transform="translate(111.925 211.327)" fill="black"/>
<path opacity="0.1" d="M1.29465 2.59367C2.00966 2.59367 2.5893 2.01306 2.5893 1.29684C2.5893 0.580616 2.00966 4.55553e-06 1.29465 4.55553e-06C0.579632 4.55553e-06 0 0.580616 0 1.29684C0 2.01306 0.579632 2.59367 1.29465 2.59367Z" transform="translate(111.925 215.646)" fill="black"/>
<path opacity="0.1" d="M1.29465 2.59366C2.00966 2.59366 2.5893 2.01305 2.5893 1.29683C2.5893 0.580606 2.00966 -5.12498e-06 1.29465 -5.12498e-06C0.579632 -5.12498e-06 0 0.580606 0 1.29683C0 2.01305 0.579632 2.59366 1.29465 2.59366Z" transform="translate(111.925 219.966)" fill="black"/>
<path opacity="0.1" d="M1.29465 2.59367C2.00966 2.59367 2.5893 2.01306 2.5893 1.29684C2.5893 0.580615 2.00966 3.98609e-06 1.29465 3.98609e-06C0.579632 3.98609e-06 0 0.580615 0 1.29684C0 2.01306 0.579632 2.59367 1.29465 2.59367Z" transform="translate(111.925 224.29)" fill="black"/>
<path opacity="0.1" d="M1.29465 2.59366C2.00966 2.59366 2.5893 2.01305 2.5893 1.29683C2.5893 0.580606 2.00966 -5.69442e-06 1.29465 -5.69442e-06C0.579632 -5.69442e-06 0 0.580606 0 1.29683C0 2.01305 0.579632 2.59366 1.29465 2.59366Z" transform="translate(111.925 228.61)" fill="black"/>
<path opacity="0.1" d="M1.29465 2.59366C2.00966 2.59366 2.5893 2.01305 2.5893 1.29683C2.5893 0.58061 2.00966 0 1.29465 0C0.579632 0 0 0.58061 0 1.29683C0 2.01305 0.579632 2.59366 1.29465 2.59366Z" transform="translate(111.925 232.93)" fill="black"/>
<path opacity="0.1" d="M1.29465 2.59367C2.00966 2.59367 2.5893 2.01306 2.5893 1.29684C2.5893 0.580615 2.00966 3.41665e-06 1.29465 3.41665e-06C0.579632 3.41665e-06 0 0.580615 0 1.29684C0 2.01306 0.579632 2.59367 1.29465 2.59367Z" transform="translate(111.925 237.249)" fill="black"/>
<path opacity="0.1" d="M1.29465 2.59367C2.00966 2.59367 2.5893 2.01305 2.5893 1.29683C2.5893 0.580605 2.00966 7.97218e-06 1.29465 7.97218e-06C0.579632 7.97218e-06 0 0.580605 0 1.29683C0 2.01305 0.579632 2.59367 1.29465 2.59367Z" transform="translate(111.925 241.569)" fill="black"/>
<path opacity="0.1" d="M1.29465 2.59368C2.00966 2.59368 2.5893 2.01305 2.5893 1.29683C2.5893 0.58061 2.00966 1.25277e-05 1.29465 1.25277e-05C0.579632 1.25277e-05 0 0.58061 0 1.29683C0 2.01305 0.579632 2.59368 1.29465 2.59368Z" transform="translate(111.925 245.889)" fill="black"/>
<path opacity="0.1" d="M1.29465 2.59365C2.00966 2.59365 2.5893 2.01306 2.5893 1.29684C2.5893 0.580614 2.00966 -1.13888e-05 1.29465 -1.13888e-05C0.579632 -1.13888e-05 0 0.580614 0 1.29684C0 2.01306 0.579632 2.59365 1.29465 2.59365Z" transform="translate(111.925 250.208)" fill="black"/>
<path opacity="0.1" d="M2.11893 0.867661C2.11861 1.1135 2.04853 1.35419 1.91687 1.56165C1.78521 1.76912 1.59739 1.93481 1.3753 2.03944C1.15322 2.14407 0.906023 2.18332 0.662524 2.15261C0.419024 2.12189 0.18925 2.02247 -5.68483e-07 1.86595C0.55016 1.20585 1.14287 0.582537 1.77432 2.27777e-06C1.99513 0.234827 2.11835 0.545073 2.11893 0.867661Z" transform="translate(106.359 194.477)" fill="black"/>
<path opacity="0.1" d="M1.29465 2.59367C2.00967 2.59367 2.5893 2.01305 2.5893 1.29683C2.5893 0.580612 2.00967 0 1.29465 0C0.579636 0 2.27393e-06 0.580612 2.27393e-06 1.29683C2.27393e-06 2.01305 0.579636 2.59367 1.29465 2.59367Z" transform="translate(105.889 198.368)" fill="black"/>
<path opacity="0.1" d="M1.29465 2.59367C2.00967 2.59367 2.5893 2.01306 2.5893 1.29684C2.5893 0.580616 2.00967 5.12498e-06 1.29465 5.12498e-06C0.579636 5.12498e-06 2.27393e-06 0.580616 2.27393e-06 1.29684C2.27393e-06 2.01306 0.579636 2.59367 1.29465 2.59367Z" transform="translate(105.889 202.687)" fill="black"/>
<path opacity="0.1" d="M1.29465 2.59366C2.00967 2.59366 2.5893 2.01305 2.5893 1.29683C2.5893 0.580607 2.00967 -4.55553e-06 1.29465 -4.55553e-06C0.579636 -4.55553e-06 2.27393e-06 0.580607 2.27393e-06 1.29683C2.27393e-06 2.01305 0.579636 2.59366 1.29465 2.59366Z" transform="translate(105.889 207.007)" fill="black"/>
<path opacity="0.1" d="M1.29465 2.59366C2.00967 2.59366 2.5893 2.01305 2.5893 1.29683C2.5893 0.580611 2.00967 0 1.29465 0C0.579636 0 2.27393e-06 0.580611 2.27393e-06 1.29683C2.27393e-06 2.01305 0.579636 2.59366 1.29465 2.59366Z" transform="translate(105.889 211.327)" fill="black"/>
<path opacity="0.1" d="M1.29465 2.59367C2.00967 2.59367 2.5893 2.01306 2.5893 1.29684C2.5893 0.580616 2.00967 4.55553e-06 1.29465 4.55553e-06C0.579636 4.55553e-06 2.27393e-06 0.580616 2.27393e-06 1.29684C2.27393e-06 2.01306 0.579636 2.59367 1.29465 2.59367Z" transform="translate(105.889 215.646)" fill="black"/>
<path opacity="0.1" d="M1.29465 2.59366C2.00967 2.59366 2.5893 2.01305 2.5893 1.29683C2.5893 0.580606 2.00967 -5.12498e-06 1.29465 -5.12498e-06C0.579636 -5.12498e-06 2.27393e-06 0.580606 2.27393e-06 1.29683C2.27393e-06 2.01305 0.579636 2.59366 1.29465 2.59366Z" transform="translate(105.889 219.966)" fill="black"/>
<path opacity="0.1" d="M1.29465 2.59367C2.00967 2.59367 2.5893 2.01306 2.5893 1.29684C2.5893 0.580615 2.00967 3.98609e-06 1.29465 3.98609e-06C0.579636 3.98609e-06 2.27393e-06 0.580615 2.27393e-06 1.29684C2.27393e-06 2.01306 0.579636 2.59367 1.29465 2.59367Z" transform="translate(105.889 224.29)" fill="black"/>
<path opacity="0.1" d="M1.29465 2.59366C2.00967 2.59366 2.5893 2.01305 2.5893 1.29683C2.5893 0.580606 2.00967 -5.69442e-06 1.29465 -5.69442e-06C0.579636 -5.69442e-06 2.27393e-06 0.580606 2.27393e-06 1.29683C2.27393e-06 2.01305 0.579636 2.59366 1.29465 2.59366Z" transform="translate(105.889 228.61)" fill="black"/>
<path opacity="0.1" d="M1.29465 2.59366C2.00967 2.59366 2.5893 2.01305 2.5893 1.29683C2.5893 0.58061 2.00967 0 1.29465 0C0.579636 0 2.27393e-06 0.58061 2.27393e-06 1.29683C2.27393e-06 2.01305 0.579636 2.59366 1.29465 2.59366Z" transform="translate(105.889 232.93)" fill="black"/>
<path opacity="0.1" d="M1.29465 2.59367C2.00967 2.59367 2.5893 2.01306 2.5893 1.29684C2.5893 0.580615 2.00967 3.41665e-06 1.29465 3.41665e-06C0.579636 3.41665e-06 2.27393e-06 0.580615 2.27393e-06 1.29684C2.27393e-06 2.01306 0.579636 2.59367 1.29465 2.59367Z" transform="translate(105.889 237.249)" fill="black"/>
<path opacity="0.1" d="M1.29465 2.59367C2.00967 2.59367 2.5893 2.01305 2.5893 1.29683C2.5893 0.580605 2.00967 7.97218e-06 1.29465 7.97218e-06C0.579636 7.97218e-06 2.27393e-06 0.580605 2.27393e-06 1.29683C2.27393e-06 2.01305 0.579636 2.59367 1.29465 2.59367Z" transform="translate(105.889 241.569)" fill="black"/>
<path opacity="0.1" d="M1.29465 2.59368C2.00967 2.59368 2.5893 2.01305 2.5893 1.29683C2.5893 0.58061 2.00967 1.25277e-05 1.29465 1.25277e-05C0.579636 1.25277e-05 2.27393e-06 0.58061 2.27393e-06 1.29683C2.27393e-06 2.01305 0.579636 2.59368 1.29465 2.59368Z" transform="translate(105.889 245.889)" fill="black"/>
<path opacity="0.1" d="M2.4589 1.30079C2.45924 1.57193 2.37443 1.83631 2.21647 2.05649C2.0585 2.27668 1.83539 2.44151 1.57873 2.52765C1.01971 1.96362 0.492634 1.3687 -5.68483e-06 0.745666C0.124471 0.478519 0.336411 0.262031 0.600625 0.132149C0.86484 0.00226773 1.16545 -0.0332042 1.45257 0.0316144C1.73968 0.0964329 1.99603 0.257651 2.17908 0.488506C2.36212 0.719361 2.46086 1.00598 2.4589 1.30079Z" transform="translate(106.02 250.204)" fill="black"/>
<path opacity="0.1" d="M1.29465 2.59366C2.00966 2.59366 2.5893 2.01305 2.5893 1.29683C2.5893 0.580607 2.00966 -3.98609e-06 1.29465 -3.98609e-06C0.579633 -3.98609e-06 0 0.580607 0 1.29683C0 2.01305 0.579633 2.59366 1.29465 2.59366Z" transform="translate(117.965 194.048)" fill="black"/>
<path opacity="0.1" d="M1.29465 2.59367C2.00966 2.59367 2.5893 2.01305 2.5893 1.29683C2.5893 0.580612 2.00966 0 1.29465 0C0.579633 0 0 0.580612 0 1.29683C0 2.01305 0.579633 2.59367 1.29465 2.59367Z" transform="translate(117.965 198.368)" fill="black"/>
<path opacity="0.1" d="M1.29465 2.59367C2.00966 2.59367 2.5893 2.01306 2.5893 1.29684C2.5893 0.580616 2.00966 5.12498e-06 1.29465 5.12498e-06C0.579633 5.12498e-06 0 0.580616 0 1.29684C0 2.01306 0.579633 2.59367 1.29465 2.59367Z" transform="translate(117.965 202.687)" fill="black"/>
<path opacity="0.1" d="M1.29465 2.59366C2.00966 2.59366 2.5893 2.01305 2.5893 1.29683C2.5893 0.580607 2.00966 -4.55553e-06 1.29465 -4.55553e-06C0.579633 -4.55553e-06 0 0.580607 0 1.29683C0 2.01305 0.579633 2.59366 1.29465 2.59366Z" transform="translate(117.965 207.007)" fill="black"/>
<path opacity="0.1" d="M1.29465 2.59366C2.00966 2.59366 2.5893 2.01305 2.5893 1.29683C2.5893 0.580611 2.00966 0 1.29465 0C0.579633 0 0 0.580611 0 1.29683C0 2.01305 0.579633 2.59366 1.29465 2.59366Z" transform="translate(117.965 211.327)" fill="black"/>
<path opacity="0.1" d="M1.29465 2.59367C2.00966 2.59367 2.5893 2.01306 2.5893 1.29684C2.5893 0.580616 2.00966 4.55553e-06 1.29465 4.55553e-06C0.579633 4.55553e-06 0 0.580616 0 1.29684C0 2.01306 0.579633 2.59367 1.29465 2.59367Z" transform="translate(117.965 215.646)" fill="black"/>
<path opacity="0.1" d="M1.29465 2.59366C2.00966 2.59366 2.5893 2.01305 2.5893 1.29683C2.5893 0.580606 2.00966 -5.12498e-06 1.29465 -5.12498e-06C0.579633 -5.12498e-06 0 0.580606 0 1.29683C0 2.01305 0.579633 2.59366 1.29465 2.59366Z" transform="translate(117.965 219.966)" fill="black"/>
<path opacity="0.1" d="M1.29465 2.59367C2.00966 2.59367 2.5893 2.01306 2.5893 1.29684C2.5893 0.580615 2.00966 3.98609e-06 1.29465 3.98609e-06C0.579633 3.98609e-06 0 0.580615 0 1.29684C0 2.01306 0.579633 2.59367 1.29465 2.59367Z" transform="translate(117.965 224.29)" fill="black"/>
<path opacity="0.1" d="M1.29465 2.59366C2.00966 2.59366 2.5893 2.01305 2.5893 1.29683C2.5893 0.580606 2.00966 -5.69442e-06 1.29465 -5.69442e-06C0.579633 -5.69442e-06 0 0.580606 0 1.29683C0 2.01305 0.579633 2.59366 1.29465 2.59366Z" transform="translate(117.965 228.61)" fill="black"/>
<path opacity="0.1" d="M1.29465 2.59366C2.00966 2.59366 2.5893 2.01305 2.5893 1.29683C2.5893 0.58061 2.00966 0 1.29465 0C0.579633 0 0 0.58061 0 1.29683C0 2.01305 0.579633 2.59366 1.29465 2.59366Z" transform="translate(117.965 232.93)" fill="black"/>
<path opacity="0.1" d="M1.29465 2.59367C2.00966 2.59367 2.5893 2.01306 2.5893 1.29684C2.5893 0.580615 2.00966 3.41665e-06 1.29465 3.41665e-06C0.579633 3.41665e-06 0 0.580615 0 1.29684C0 2.01306 0.579633 2.59367 1.29465 2.59367Z" transform="translate(117.965 237.249)" fill="black"/>
<path opacity="0.1" d="M1.29465 2.59367C2.00966 2.59367 2.5893 2.01305 2.5893 1.29683C2.5893 0.580605 2.00966 7.97218e-06 1.29465 7.97218e-06C0.579633 7.97218e-06 0 0.580605 0 1.29683C0 2.01305 0.579633 2.59367 1.29465 2.59367Z" transform="translate(117.965 241.569)" fill="black"/>
<path opacity="0.1" d="M1.29465 2.59368C2.00966 2.59368 2.5893 2.01305 2.5893 1.29683C2.5893 0.58061 2.00966 1.25277e-05 1.29465 1.25277e-05C0.579633 1.25277e-05 0 0.58061 0 1.29683C0 2.01305 0.579633 2.59368 1.29465 2.59368Z" transform="translate(117.965 245.889)" fill="black"/>
<path opacity="0.1" d="M1.29465 2.59365C2.00966 2.59365 2.5893 2.01306 2.5893 1.29684C2.5893 0.580614 2.00966 -1.13888e-05 1.29465 -1.13888e-05C0.579633 -1.13888e-05 0 0.580614 0 1.29684C0 2.01306 0.579633 2.59365 1.29465 2.59365Z" transform="translate(117.965 250.208)" fill="black"/>
<path opacity="0.1" d="M1.29464 2.59366C2.00966 2.59366 2.58929 2.01305 2.58929 1.29683C2.58929 0.580607 2.00966 -3.98609e-06 1.29464 -3.98609e-06C0.579629 -3.98609e-06 -5.11635e-06 0.580607 -5.11635e-06 1.29683C-5.11635e-06 2.01305 0.579629 2.59366 1.29464 2.59366Z" transform="translate(124 194.048)" fill="black"/>
<path opacity="0.1" d="M1.29464 2.59367C2.00966 2.59367 2.58929 2.01305 2.58929 1.29683C2.58929 0.580612 2.00966 0 1.29464 0C0.579629 0 -5.11635e-06 0.580612 -5.11635e-06 1.29683C-5.11635e-06 2.01305 0.579629 2.59367 1.29464 2.59367Z" transform="translate(124 198.368)" fill="black"/>
<path opacity="0.1" d="M1.29464 2.59367C2.00966 2.59367 2.58929 2.01306 2.58929 1.29684C2.58929 0.580616 2.00966 5.12498e-06 1.29464 5.12498e-06C0.579629 5.12498e-06 -5.11635e-06 0.580616 -5.11635e-06 1.29684C-5.11635e-06 2.01306 0.579629 2.59367 1.29464 2.59367Z" transform="translate(124 202.687)" fill="black"/>
<path opacity="0.1" d="M1.29464 2.59366C2.00966 2.59366 2.58929 2.01305 2.58929 1.29683C2.58929 0.580607 2.00966 -4.55553e-06 1.29464 -4.55553e-06C0.579629 -4.55553e-06 -5.11635e-06 0.580607 -5.11635e-06 1.29683C-5.11635e-06 2.01305 0.579629 2.59366 1.29464 2.59366Z" transform="translate(124 207.007)" fill="black"/>
<path opacity="0.1" d="M1.29464 2.59366C2.00966 2.59366 2.58929 2.01305 2.58929 1.29683C2.58929 0.580611 2.00966 0 1.29464 0C0.579629 0 -5.11635e-06 0.580611 -5.11635e-06 1.29683C-5.11635e-06 2.01305 0.579629 2.59366 1.29464 2.59366Z" transform="translate(124 211.327)" fill="black"/>
<path opacity="0.1" d="M1.29464 2.59367C2.00966 2.59367 2.58929 2.01306 2.58929 1.29684C2.58929 0.580616 2.00966 4.55553e-06 1.29464 4.55553e-06C0.579629 4.55553e-06 -5.11635e-06 0.580616 -5.11635e-06 1.29684C-5.11635e-06 2.01306 0.579629 2.59367 1.29464 2.59367Z" transform="translate(124 215.646)" fill="black"/>
<path opacity="0.1" d="M1.29464 2.59366C2.00966 2.59366 2.58929 2.01305 2.58929 1.29683C2.58929 0.580606 2.00966 -5.12498e-06 1.29464 -5.12498e-06C0.579629 -5.12498e-06 -5.11635e-06 0.580606 -5.11635e-06 1.29683C-5.11635e-06 2.01305 0.579629 2.59366 1.29464 2.59366Z" transform="translate(124 219.966)" fill="black"/>
<path opacity="0.1" d="M1.29464 2.59367C2.00966 2.59367 2.58929 2.01306 2.58929 1.29684C2.58929 0.580615 2.00966 3.98609e-06 1.29464 3.98609e-06C0.579629 3.98609e-06 -5.11635e-06 0.580615 -5.11635e-06 1.29684C-5.11635e-06 2.01306 0.579629 2.59367 1.29464 2.59367Z" transform="translate(124 224.29)" fill="black"/>
<path opacity="0.1" d="M1.29464 2.59366C2.00966 2.59366 2.58929 2.01305 2.58929 1.29683C2.58929 0.580606 2.00966 -5.69442e-06 1.29464 -5.69442e-06C0.579629 -5.69442e-06 -5.11635e-06 0.580606 -5.11635e-06 1.29683C-5.11635e-06 2.01305 0.579629 2.59366 1.29464 2.59366Z" transform="translate(124 228.61)" fill="black"/>
<path opacity="0.1" d="M1.29464 2.59366C2.00966 2.59366 2.58929 2.01305 2.58929 1.29683C2.58929 0.58061 2.00966 0 1.29464 0C0.579629 0 -5.11635e-06 0.58061 -5.11635e-06 1.29683C-5.11635e-06 2.01305 0.579629 2.59366 1.29464 2.59366Z" transform="translate(124 232.93)" fill="black"/>
<path opacity="0.1" d="M1.29464 2.59367C2.00966 2.59367 2.58929 2.01306 2.58929 1.29684C2.58929 0.580615 2.00966 3.41665e-06 1.29464 3.41665e-06C0.579629 3.41665e-06 -5.11635e-06 0.580615 -5.11635e-06 1.29684C-5.11635e-06 2.01306 0.579629 2.59367 1.29464 2.59367Z" transform="translate(124 237.249)" fill="black"/>
<path opacity="0.1" d="M1.29464 2.59367C2.00966 2.59367 2.58929 2.01305 2.58929 1.29683C2.58929 0.580605 2.00966 7.97218e-06 1.29464 7.97218e-06C0.579629 7.97218e-06 -5.11635e-06 0.580605 -5.11635e-06 1.29683C-5.11635e-06 2.01305 0.579629 2.59367 1.29464 2.59367Z" transform="translate(124 241.569)" fill="black"/>
<path opacity="0.1" d="M1.29464 2.59368C2.00966 2.59368 2.58929 2.01305 2.58929 1.29683C2.58929 0.58061 2.00966 1.25277e-05 1.29464 1.25277e-05C0.579629 1.25277e-05 -5.11635e-06 0.58061 -5.11635e-06 1.29683C-5.11635e-06 2.01305 0.579629 2.59368 1.29464 2.59368Z" transform="translate(124 245.889)" fill="black"/>
<path opacity="0.1" d="M1.29464 2.59365C2.00966 2.59365 2.58929 2.01306 2.58929 1.29684C2.58929 0.580614 2.00966 -1.13888e-05 1.29464 -1.13888e-05C0.579629 -1.13888e-05 -5.11635e-06 0.580614 -5.11635e-06 1.29684C-5.11635e-06 2.01306 0.579629 2.59365 1.29464 2.59365Z" transform="translate(124 250.208)" fill="black"/>
<path opacity="0.1" d="M1.29464 2.59366C2.00966 2.59366 2.58929 2.01305 2.58929 1.29683C2.58929 0.580607 2.00966 -3.98609e-06 1.29464 -3.98609e-06C0.579629 -3.98609e-06 -4.54787e-06 0.580607 -4.54787e-06 1.29683C-4.54787e-06 2.01305 0.579629 2.59366 1.29464 2.59366Z" transform="translate(130.04 194.048)" fill="black"/>
<path opacity="0.1" d="M1.29464 2.59367C2.00966 2.59367 2.58929 2.01305 2.58929 1.29683C2.58929 0.580612 2.00966 0 1.29464 0C0.579629 0 -4.54787e-06 0.580612 -4.54787e-06 1.29683C-4.54787e-06 2.01305 0.579629 2.59367 1.29464 2.59367Z" transform="translate(130.04 198.368)" fill="black"/>
<path opacity="0.1" d="M1.29464 2.59367C2.00966 2.59367 2.58929 2.01306 2.58929 1.29684C2.58929 0.580616 2.00966 5.12498e-06 1.29464 5.12498e-06C0.579629 5.12498e-06 -4.54787e-06 0.580616 -4.54787e-06 1.29684C-4.54787e-06 2.01306 0.579629 2.59367 1.29464 2.59367Z" transform="translate(130.04 202.687)" fill="black"/>
<path opacity="0.1" d="M1.29464 2.59366C2.00966 2.59366 2.58929 2.01305 2.58929 1.29683C2.58929 0.580607 2.00966 -4.55553e-06 1.29464 -4.55553e-06C0.579629 -4.55553e-06 -4.54787e-06 0.580607 -4.54787e-06 1.29683C-4.54787e-06 2.01305 0.579629 2.59366 1.29464 2.59366Z" transform="translate(130.04 207.007)" fill="black"/>
<path opacity="0.1" d="M1.29464 2.59366C2.00966 2.59366 2.58929 2.01305 2.58929 1.29683C2.58929 0.580611 2.00966 0 1.29464 0C0.579629 0 -4.54787e-06 0.580611 -4.54787e-06 1.29683C-4.54787e-06 2.01305 0.579629 2.59366 1.29464 2.59366Z" transform="translate(130.04 211.327)" fill="black"/>
<path opacity="0.1" d="M1.29464 2.59367C2.00966 2.59367 2.58929 2.01306 2.58929 1.29684C2.58929 0.580616 2.00966 4.55553e-06 1.29464 4.55553e-06C0.579629 4.55553e-06 -4.54787e-06 0.580616 -4.54787e-06 1.29684C-4.54787e-06 2.01306 0.579629 2.59367 1.29464 2.59367Z" transform="translate(130.04 215.646)" fill="black"/>
<path opacity="0.1" d="M1.29464 2.59366C2.00966 2.59366 2.58929 2.01305 2.58929 1.29683C2.58929 0.580606 2.00966 -5.12498e-06 1.29464 -5.12498e-06C0.579629 -5.12498e-06 -4.54787e-06 0.580606 -4.54787e-06 1.29683C-4.54787e-06 2.01305 0.579629 2.59366 1.29464 2.59366Z" transform="translate(130.04 219.966)" fill="black"/>
<path opacity="0.1" d="M1.29464 2.59367C2.00966 2.59367 2.58929 2.01306 2.58929 1.29684C2.58929 0.580615 2.00966 3.98609e-06 1.29464 3.98609e-06C0.579629 3.98609e-06 -4.54787e-06 0.580615 -4.54787e-06 1.29684C-4.54787e-06 2.01306 0.579629 2.59367 1.29464 2.59367Z" transform="translate(130.04 224.29)" fill="black"/>
<path opacity="0.1" d="M1.29464 2.59366C2.00966 2.59366 2.58929 2.01305 2.58929 1.29683C2.58929 0.580606 2.00966 -5.69442e-06 1.29464 -5.69442e-06C0.579629 -5.69442e-06 -4.54787e-06 0.580606 -4.54787e-06 1.29683C-4.54787e-06 2.01305 0.579629 2.59366 1.29464 2.59366Z" transform="translate(130.04 228.61)" fill="black"/>
<path opacity="0.1" d="M1.29464 2.59366C2.00966 2.59366 2.58929 2.01305 2.58929 1.29683C2.58929 0.58061 2.00966 0 1.29464 0C0.579629 0 -4.54787e-06 0.58061 -4.54787e-06 1.29683C-4.54787e-06 2.01305 0.579629 2.59366 1.29464 2.59366Z" transform="translate(130.04 232.93)" fill="black"/>
<path opacity="0.1" d="M1.29464 2.59367C2.00966 2.59367 2.58929 2.01306 2.58929 1.29684C2.58929 0.580615 2.00966 3.41665e-06 1.29464 3.41665e-06C0.579629 3.41665e-06 -4.54787e-06 0.580615 -4.54787e-06 1.29684C-4.54787e-06 2.01306 0.579629 2.59367 1.29464 2.59367Z" transform="translate(130.04 237.249)" fill="black"/>
<path opacity="0.1" d="M1.29464 2.59367C2.00966 2.59367 2.58929 2.01305 2.58929 1.29683C2.58929 0.580605 2.00966 7.97218e-06 1.29464 7.97218e-06C0.579629 7.97218e-06 -4.54787e-06 0.580605 -4.54787e-06 1.29683C-4.54787e-06 2.01305 0.579629 2.59367 1.29464 2.59367Z" transform="translate(130.04 241.569)" fill="black"/>
<path opacity="0.1" d="M1.29464 2.59368C2.00966 2.59368 2.58929 2.01305 2.58929 1.29683C2.58929 0.58061 2.00966 1.25277e-05 1.29464 1.25277e-05C0.579629 1.25277e-05 -4.54787e-06 0.58061 -4.54787e-06 1.29683C-4.54787e-06 2.01305 0.579629 2.59368 1.29464 2.59368Z" transform="translate(130.04 245.889)" fill="black"/>
<path opacity="0.1" d="M1.29464 2.59365C2.00966 2.59365 2.58929 2.01306 2.58929 1.29684C2.58929 0.580614 2.00966 -1.13888e-05 1.29464 -1.13888e-05C0.579629 -1.13888e-05 -4.54787e-06 0.580614 -4.54787e-06 1.29684C-4.54787e-06 2.01306 0.579629 2.59365 1.29464 2.59365Z" transform="translate(130.04 250.208)" fill="black"/>
<path opacity="0.1" d="M2.11896 1.87528C1.92971 2.0318 1.69995 2.13122 1.45645 2.16194C1.21295 2.19265 0.965741 2.1534 0.743655 2.04877C0.521569 1.94414 0.333752 1.77845 0.20209 1.57098C0.0704271 1.36352 0.000349668 1.12283 2.21697e-05 0.87699C-0.00177353 0.551181 0.121616 0.237162 0.344637 -6.8333e-06C0.512289 0.149269 0.675284 0.312539 0.838279 0.46648C1.28535 0.923637 1.70914 1.39013 2.11896 1.87528Z" transform="translate(136.081 194.468)" fill="black"/>
<path opacity="0.1" d="M1.29466 2.59367C2.00967 2.59367 2.5893 2.01305 2.5893 1.29683C2.5893 0.580612 2.00967 0 1.29466 0C0.57964 0 5.68483e-06 0.580612 5.68483e-06 1.29683C5.68483e-06 2.01305 0.57964 2.59367 1.29466 2.59367Z" transform="translate(136.076 198.368)" fill="black"/>
<path opacity="0.1" d="M1.29466 2.59367C2.00967 2.59367 2.5893 2.01306 2.5893 1.29684C2.5893 0.580616 2.00967 5.12498e-06 1.29466 5.12498e-06C0.57964 5.12498e-06 5.68483e-06 0.580616 5.68483e-06 1.29684C5.68483e-06 2.01306 0.57964 2.59367 1.29466 2.59367Z" transform="translate(136.076 202.687)" fill="black"/>
<path opacity="0.1" d="M1.29466 2.59366C2.00967 2.59366 2.5893 2.01305 2.5893 1.29683C2.5893 0.580607 2.00967 -4.55553e-06 1.29466 -4.55553e-06C0.57964 -4.55553e-06 5.68483e-06 0.580607 5.68483e-06 1.29683C5.68483e-06 2.01305 0.57964 2.59366 1.29466 2.59366Z" transform="translate(136.076 207.007)" fill="black"/>
<path opacity="0.1" d="M1.29466 2.59366C2.00967 2.59366 2.5893 2.01305 2.5893 1.29683C2.5893 0.580611 2.00967 0 1.29466 0C0.57964 0 5.68483e-06 0.580611 5.68483e-06 1.29683C5.68483e-06 2.01305 0.57964 2.59366 1.29466 2.59366Z" transform="translate(136.076 211.327)" fill="black"/>
<path opacity="0.1" d="M1.29466 2.59367C2.00967 2.59367 2.5893 2.01306 2.5893 1.29684C2.5893 0.580616 2.00967 4.55553e-06 1.29466 4.55553e-06C0.57964 4.55553e-06 5.68483e-06 0.580616 5.68483e-06 1.29684C5.68483e-06 2.01306 0.57964 2.59367 1.29466 2.59367Z" transform="translate(136.076 215.646)" fill="black"/>
<path opacity="0.1" d="M1.29466 2.59366C2.00967 2.59366 2.5893 2.01305 2.5893 1.29683C2.5893 0.580606 2.00967 -5.12498e-06 1.29466 -5.12498e-06C0.57964 -5.12498e-06 5.68483e-06 0.580606 5.68483e-06 1.29683C5.68483e-06 2.01305 0.57964 2.59366 1.29466 2.59366Z" transform="translate(136.076 219.966)" fill="black"/>
<path opacity="0.1" d="M1.29466 2.59367C2.00967 2.59367 2.5893 2.01306 2.5893 1.29684C2.5893 0.580615 2.00967 3.98609e-06 1.29466 3.98609e-06C0.57964 3.98609e-06 5.68483e-06 0.580615 5.68483e-06 1.29684C5.68483e-06 2.01306 0.57964 2.59367 1.29466 2.59367Z" transform="translate(136.076 224.29)" fill="black"/>
<path opacity="0.1" d="M1.29466 2.59366C2.00967 2.59366 2.5893 2.01305 2.5893 1.29683C2.5893 0.580606 2.00967 -5.69442e-06 1.29466 -5.69442e-06C0.57964 -5.69442e-06 5.68483e-06 0.580606 5.68483e-06 1.29683C5.68483e-06 2.01305 0.57964 2.59366 1.29466 2.59366Z" transform="translate(136.076 228.61)" fill="black"/>
<path opacity="0.1" d="M1.29466 2.59366C2.00967 2.59366 2.5893 2.01305 2.5893 1.29683C2.5893 0.58061 2.00967 0 1.29466 0C0.57964 0 5.68483e-06 0.58061 5.68483e-06 1.29683C5.68483e-06 2.01305 0.57964 2.59366 1.29466 2.59366Z" transform="translate(136.076 232.93)" fill="black"/>
<path opacity="0.1" d="M1.29466 2.59367C2.00967 2.59367 2.5893 2.01306 2.5893 1.29684C2.5893 0.580615 2.00967 3.41665e-06 1.29466 3.41665e-06C0.57964 3.41665e-06 5.68483e-06 0.580615 5.68483e-06 1.29684C5.68483e-06 2.01306 0.57964 2.59367 1.29466 2.59367Z" transform="translate(136.076 237.249)" fill="black"/>
<path opacity="0.1" d="M1.29466 2.59367C2.00967 2.59367 2.5893 2.01305 2.5893 1.29683C2.5893 0.580605 2.00967 7.97218e-06 1.29466 7.97218e-06C0.57964 7.97218e-06 5.68483e-06 0.580605 5.68483e-06 1.29683C5.68483e-06 2.01305 0.57964 2.59367 1.29466 2.59367Z" transform="translate(136.076 241.569)" fill="black"/>
<path opacity="0.1" d="M1.29466 2.59368C2.00967 2.59368 2.5893 2.01305 2.5893 1.29683C2.5893 0.58061 2.00967 1.25277e-05 1.29466 1.25277e-05C0.57964 1.25277e-05 5.68483e-06 0.58061 5.68483e-06 1.29683C5.68483e-06 2.01305 0.57964 2.59368 1.29466 2.59368Z" transform="translate(136.076 245.889)" fill="black"/>
<path opacity="0.1" d="M2.46674 0.746053C1.97411 1.36909 1.44703 1.96402 0.888003 2.52804C0.684454 2.46058 0.500825 2.34353 0.353586 2.18742C0.206347 2.03132 0.100114 1.84103 0.0444307 1.63364C-0.011253 1.42625 -0.0146481 1.20826 0.0345533 0.999227C0.0837548 0.790198 0.184004 0.596679 0.326313 0.436049C0.468622 0.275419 0.648536 0.152703 0.849886 0.0789237C1.05124 0.00514429 1.26773 -0.0173801 1.47992 0.0133525C1.69211 0.0440851 1.89336 0.127107 2.0656 0.254995C2.23784 0.382883 2.37568 0.551624 2.46674 0.746053Z" transform="translate(136.073 250.199)" fill="black"/>
<path d="M3.5207 3.98609e-06H2.51479C1.12592 3.98609e-06 2.55817e-06 1.12781 2.55817e-06 2.51903V55.3673C2.55817e-06 56.7585 1.12592 57.8863 2.51479 57.8863H3.5207C4.90958 57.8863 6.0355 56.7585 6.0355 55.3673V2.51903C6.0355 1.12781 4.90958 3.98609e-06 3.5207 3.98609e-06Z" transform="translate(118.398 235.953)" fill="#54576B"/>
<path d="M38.1642 1.02499e-05H3.23663C1.44909 1.02499e-05 1.98969e-06 1.45152 1.98969e-06 3.24207V4.53425C1.98969e-06 6.3248 1.44909 7.77633 3.23663 7.77633H38.1642C39.9518 7.77633 41.4009 6.3248 41.4009 4.53425V3.24207C41.4009 1.45152 39.9518 1.02499e-05 38.1642 1.02499e-05Z" transform="translate(100.715 286.062)" fill="#54576B"/>
<path opacity="0.1" d="M3.5207 3.98609e-06H2.51479C1.12592 3.98609e-06 2.55817e-06 1.12781 2.55817e-06 2.51903V55.3673C2.55817e-06 56.7585 1.12592 57.8863 2.51479 57.8863H3.5207C4.90958 57.8863 6.0355 56.7585 6.0355 55.3673V2.51903C6.0355 1.12781 4.90958 3.98609e-06 3.5207 3.98609e-06Z" transform="translate(118.398 235.953)" fill="black"/>
<path opacity="0.1" d="M38.1642 1.02499e-05H3.23663C1.44909 1.02499e-05 1.98969e-06 1.45152 1.98969e-06 3.24207V4.53425C1.98969e-06 6.3248 1.44909 7.77633 3.23663 7.77633H38.1642C39.9518 7.77633 41.4009 6.3248 41.4009 4.53425V3.24207C41.4009 1.45152 39.9518 1.02499e-05 38.1642 1.02499e-05Z" transform="translate(100.715 286.062)" fill="black"/>
<path d="M3.5207 3.98609e-06H2.51478C1.1259 3.98609e-06 0 1.12781 0 2.51903V55.3673C0 56.7585 1.1259 57.8863 2.51478 57.8863H3.5207C4.90958 57.8863 6.03548 56.7585 6.03548 55.3673V2.51903C6.03548 1.12781 4.90958 3.98609e-06 3.5207 3.98609e-06Z" transform="translate(119.259 235.953)" fill="#54576B"/>
<path d="M38.1642 1.02499e-05H3.23663C1.44909 1.02499e-05 -2.27393e-06 1.45152 -2.27393e-06 3.24207V4.53425C-2.27393e-06 6.3248 1.44909 7.77633 3.23663 7.77633H38.1642C39.9518 7.77633 41.4009 6.3248 41.4009 4.53425V3.24207C41.4009 1.45152 39.9518 1.02499e-05 38.1642 1.02499e-05Z" transform="translate(101.577 286.062)" fill="#54576B"/>
<path d="M81.6654 17.1089C78.4287 24.1629 73.24 30.139 66.7149 34.3283C60.1898 38.5176 52.6021 40.7443 44.8517 40.7443C37.1013 40.7443 29.5136 38.5176 22.9885 34.3283C16.4634 30.139 11.2747 24.1629 8.038 17.1089C3.7489 10.9466 1.42121e-06 -1.34064 1.42121e-06 0.119467C1.29709e-06 6.01941 1.16012 11.8616 3.41413 17.3124C5.66814 22.7633 8.97189 27.716 13.1368 31.8879C17.3016 36.0598 22.246 39.3691 27.6877 41.6269C33.1294 43.8847 38.9617 45.0468 44.8517 45.0468C50.7417 45.0468 56.574 43.8847 62.0157 41.6269C67.4574 39.3691 72.4018 36.0598 76.5666 31.8879C80.7315 27.716 84.0353 22.7633 86.2893 17.3124C88.5433 11.8616 89.7034 6.01941 89.7034 0.119467C89.7034 -1.34064 85.9545 10.9466 81.6654 17.1089Z" transform="translate(76.5639 223.742)" fill="#54576B"/>
<path d="M40.5393 -5.69442e-06C33.3043 0.00185229 26.1772 1.75763 19.7666 5.1174C13.356 8.47716 7.85232 13.3411 3.72563 19.2939C1.26589 24.6185 -0.00550048 30.4163 1.6743e-05 36.2833C-8.98696e-05 37.7262 0.0760839 39.1682 0.228213 40.603C1.24208 30.6006 5.9263 21.3311 13.3733 14.5905C20.8204 7.85 30.5001 4.11822 40.537 4.11822C50.574 4.11822 60.2536 7.85 67.7007 14.5905C75.1477 21.3311 79.8319 30.6006 80.8458 40.603C80.9979 39.1682 81.0741 37.7262 81.074 36.2833C81.0795 30.4163 79.8081 24.6185 77.3484 19.2939C73.2221 13.3418 67.7192 8.47821 61.3095 5.11848C54.8998 1.75874 47.7736 0.00260497 40.5393 -5.69442e-06Z" transform="translate(80.8763 178.929)" fill="#54576B"/>
<path opacity="0.1" d="M1.7231 3.45201C2.67474 3.45201 3.44619 2.67925 3.44619 1.72601C3.44619 0.772765 2.67474 2.27777e-06 1.7231 2.27777e-06C0.771459 2.27777e-06 -2.27393e-06 0.772765 -2.27393e-06 1.72601C-2.27393e-06 2.67925 0.771459 3.45201 1.7231 3.45201Z" transform="translate(120.554 239.843)" fill="black"/>
<path opacity="0.2" d="M0.647331 1.29684C1.00484 1.29684 1.29465 1.00652 1.29465 0.648414C1.29465 0.290304 1.00484 -9.11107e-06 0.647331 -9.11107e-06C0.289823 -9.11107e-06 0 0.290304 0 0.648414C0 1.00652 0.289823 1.29684 0.647331 1.29684Z" transform="translate(202.49 283.04)" fill="black"/>
<path d="M59.2219 55.5655C56.6475 55.5817 54.1019 55.0223 51.7707 53.9282C43.0807 49.8324 38.7962 50.3502 32.3137 51.1292C26.2384 51.9679 20.0943 52.1914 13.9744 51.7963C12.2677 51.7169 10.6003 51.2569 9.09367 50.4499C7.58707 49.6428 6.2793 48.5091 5.26574 47.1314C-4.34633 34.6296 2.085 1.71432 2.36442 0.319523C2.39328 0.213697 2.46109 0.122736 2.55421 0.0649821C2.64732 0.00722854 2.75881 -0.0130498 2.86625 0.00823726C2.97368 0.0295243 3.06909 0.0908114 3.13324 0.179725C3.19739 0.268638 3.22553 0.378589 3.212 0.487451C3.1468 0.823321 -3.42424 34.4103 5.95033 46.5996C6.88918 47.8806 8.10187 48.9354 9.49979 49.6867C10.8977 50.4381 12.4456 50.8672 14.0302 50.9426C20.0914 51.3321 26.1762 51.1086 32.1926 50.2756C38.8242 49.4732 43.2064 48.9414 52.12 53.1445C66.3378 59.8479 83.0006 42.7978 83.1636 42.6252C83.2455 42.5542 83.351 42.5166 83.4593 42.5197C83.5675 42.5228 83.6707 42.5664 83.7484 42.642C83.8261 42.7175 83.8728 42.8194 83.8792 42.9277C83.8856 43.036 83.8513 43.1428 83.783 43.2269C83.6573 43.3762 71.74 55.5655 59.2219 55.5655Z" transform="translate(119.494 241.166)" fill="#DFE6F5"/>
<path d="M84.1383 24.6865C77.0177 11.8348 62.5623 3.02283 45.9508 3.02283C22.2931 3.02283 3.04103 20.852 3.04103 42.7675H0C0 19.1866 20.6073 -2.84721e-07 45.9275 -2.84721e-07C60.5877 -2.84721e-07 73.6646 6.42818 82.0799 16.4203C82.7691 18.6595 83.2954 20.9499 83.8169 23.2357C83.9334 23.7255 84.0405 24.206 84.1383 24.6865Z" transform="translate(110.42 42.6406)" fill="#68739D"/>
<path d="M11.4377 0H15.4101V27.5227H11.4377C8.40421 27.5227 5.49501 26.3156 3.35004 24.1671C1.20506 22.0185 3.4987e-05 19.1044 3.4987e-05 16.0658V11.4849C-0.00364017 9.978 0.289488 8.48518 0.862637 7.09193C1.43579 5.69868 2.2777 4.43238 3.34014 3.36554C4.40259 2.2987 5.66471 1.45229 7.05421 0.874776C8.44371 0.297263 9.9333 -4.49672e-06 11.4377 0Z" transform="translate(105.4 72.7802)" fill="#DFE6F5"/>
<path d="M3.93518 0H2.80818C1.25726 0 -3.4109e-06 1.25939 -3.4109e-06 2.81292V24.6865C-3.4109e-06 26.24 1.25726 27.4994 2.80818 27.4994H3.93518C5.48609 27.4994 6.74336 26.24 6.74336 24.6865V2.81292C6.74336 1.25939 5.48609 0 3.93518 0Z" transform="translate(117.439 72.8035)" fill="#68739D"/>
<path d="M12.3431 0.843905C12.3431 0.843905 4.94776 -1.66577 1.3898 4.86038C0.451103 6.62981 -0.0265417 8.60795 0.0011369 10.6115C0.0288155 12.6151 0.560906 14.5792 1.54812 16.322C3.87663 20.553 8.7013 26.0482 17.8477 25.5584C25.5876 25.1432 28.163 19.2282 28.8615 13.7236C29.1293 11.6598 28.8637 9.56166 28.0901 7.63014C27.3165 5.69862 26.0608 3.9984 24.4432 2.69226C22.8257 1.38611 20.9005 0.517802 18.8519 0.170484C16.8034 -0.176834 14.7002 0.0084626 12.7436 0.708634L12.3431 0.843905Z" transform="translate(361.068 269.685)" fill="#6C63FF"/>
<path opacity="0.1" d="M3.10359 17.1142C2.11637 15.3715 1.58425 13.4074 1.55657 11.4038C1.52889 9.40026 2.00654 7.42212 2.94524 5.65269C6.50319 -0.878125 13.8985 1.63622 13.8985 1.63622L14.2758 1.50095C17.0955 0.478999 20.1947 0.548864 22.9657 1.69686C21.4366 0.784847 19.7245 0.223932 17.9528 0.054535C16.1812 -0.114862 14.3941 0.11149 12.7203 0.717251L12.3431 0.852522C12.3431 0.852522 4.94774 -1.65718 1.38978 4.86896C0.451084 6.6384 -0.0265326 8.61654 0.001146 10.6201C0.0288246 12.6237 0.560915 14.5878 1.54813 16.3305C3.0896 19.1295 5.70219 22.4462 9.93076 24.2608C7.04507 22.5493 4.68362 20.0773 3.10359 17.1142Z" transform="translate(361.078 269.48)" fill="white"/>
<path opacity="0.2" d="M9.09573e-06 6.8333e-06C9.09573e-06 6.8333e-06 2.74299 2.15984 9.39786 6.8333e-06H9.09573e-06Z" transform="translate(369.593 273.668)" fill="black"/>
<path d="M4.54787e-06 0C4.54787e-06 0 4.69893 12.7491 4.30774 16.0844L8.03335 15.6926C8.03335 15.6926 1.74171 4.51093 3.32975 0H4.54787e-06Z" transform="translate(369.006 257.975)" fill="#6C63FF"/>
<path opacity="0.2" d="M4.54787e-06 0C4.54787e-06 0 4.69893 12.7491 4.30774 16.0844L8.03335 15.6926C8.03335 15.6926 1.74171 4.51093 3.32975 0H4.54787e-06Z" transform="translate(369.006 257.975)" fill="black"/>
<path d="M14.5299 1.89673C14.5299 1.89673 7.13455 -1.89116 3.81876 1.23897C0.502963 4.36909 0 12.3693 0 12.3693C0 12.3693 12.0663 14.0347 14.5299 1.89673Z" transform="translate(373.658 257.142)" fill="#6C63FF"/>
<path opacity="0.1" d="M14.5299 1.89673C14.5299 1.89673 7.13455 -1.89116 3.81876 1.23897C0.502963 4.36909 0 12.3693 0 12.3693C0 12.3693 12.0663 14.0347 14.5299 1.89673Z" transform="translate(373.658 257.142)" fill="white"/>
<path d="M4.54787e-06 10.4726C4.54787e-06 10.4726 1.94198 1.18489 14.5252 1.36666e-05" transform="translate(373.663 259.039)" stroke="#6C63FF" stroke-miterlimit="10"/>
<defs>
<linearGradient id="paint0_linear" x2="1" gradientUnits="userSpaceOnUse" gradientTransform="matrix(499.776 244.6 -499.776 3228.99 242.126 -1579.43)">
<stop stop-color="#0075FF"/>
<stop offset="1" stop-color="#FF005C"/>
</linearGradient>
<linearGradient id="paint1_linear" x2="1" gradientUnits="userSpaceOnUse" gradientTransform="translate(105.533 298.489) scale(298.012 298.514) rotate(-90)">
<stop stop-color="#808080" stop-opacity="0.25"/>
<stop offset="0.54" stop-color="#808080" stop-opacity="0.12"/>
<stop offset="1" stop-color="#808080" stop-opacity="0.1"/>
</linearGradient>
</defs>
</svg>
