<svg width="520" height="400" viewBox="0 0 520 400" fill="none" xmlns="http://www.w3.org/2000/svg">
<path opacity="0.1" d="M487.236 226.436C468.076 255.241 472.925 295.277 482.572 326.989C485.82 337.605 489.491 348.823 487.31 360.556C484.642 374.905 473.765 385.956 462.614 392.143C442.294 403.426 418.707 402.499 401.209 389.736C386.086 378.703 375.808 359.879 360.374 349.389C334.579 331.896 300.134 341.254 270.389 356.289C249.345 366.914 226.241 380.465 206.297 371.965C192.265 365.982 183.17 349.871 178.65 332.475C176.469 324.077 175.04 314.927 170.391 308.448C167.606 304.599 163.894 301.955 160.047 299.808C124.916 279.987 78.5635 294.637 44.5732 272.349C21.6362 257.323 7.98903 227.113 2.89397 195.044C-2.20109 162.975 0.309315 128.866 3.7153 95.2985C6.1329 71.4472 9.59921 45.9311 22.9123 26.8102C36.9956 6.58556 59.8398 -2.02649 79.9881 0.398985C100.136 2.82446 117.853 14.8359 133.273 29.3377C152.544 47.4244 170.103 70.362 194.571 76.6414C211.235 80.9312 229.193 76.9057 246.705 74.7863C275.985 71.2849 305.001 73.2327 333.822 75.5469C361.418 77.7637 389.19 80.3654 415.107 89.8168C433.445 96.5043 447.746 109.823 464.939 118.681C476.145 124.455 488.628 125.466 499.129 133.058C512.066 142.403 523.5 159.349 519.003 180.287C514.729 200.224 497.402 211.132 487.236 226.436Z" fill="url(#paint0_linear)"/>
<path opacity="0.1" d="M18.9742 6.22726e-06H-5.66444e-06V28.7068H18.9742V6.22726e-06Z" transform="translate(408.721 118.918)" fill="#6C63FF"/>
<path opacity="0.1" d="M15.2852 0H9.0631e-06V23.1231H15.2852V0Z" transform="translate(410.564 121.71)" fill="#6C63FF"/>
<path opacity="0.1" d="M29.1411 0H-5.66444e-06V28.7068H29.1411V0Z" transform="translate(370.207 98.9761)" fill="#6C63FF"/>
<path opacity="0.1" d="M23.4753 0H1.13289e-05V23.1231H23.4753V0Z" transform="translate(373.038 101.768)" fill="#6C63FF"/>
<path opacity="0.1" d="M89.0707 0H0V2.36982H89.0707V0Z" transform="translate(29.9887 56.2637)" fill="#6C63FF"/>
<path opacity="0.1" d="M89.0707 0H0V2.36982H89.0707V0Z" transform="translate(29.9887 67.853)" fill="#6C63FF"/>
<path d="M9.09965 2.26446e-06H-3.39866e-06V101.629H9.09965V2.26446e-06Z" transform="translate(180.247 209.912)" fill="#D6D6E3"/>
<path d="M61.0897 103.595V9.85029C61.0909 7.2374 62.1303 4.73196 63.9794 2.88481C65.8285 1.03765 68.3359 -2.89316e-07 70.9503 0C73.5615 0.00491204 76.0641 1.04472 77.9092 2.89135C79.7543 4.73797 80.7912 7.24061 80.7924 9.85029V123.305C80.7924 125.919 79.7535 128.425 77.9043 130.273C76.0551 132.122 73.547 133.16 70.9318 133.16H9.86066C7.24545 133.16 4.73734 132.122 2.88811 130.273C1.03887 128.425 6.79733e-06 125.919 6.79733e-06 123.305C6.79733e-06 120.691 1.03887 118.185 2.88811 116.336C4.73734 114.488 7.24545 113.45 9.86066 113.45H51.229C53.8442 113.45 56.3523 112.412 58.2016 110.563C60.0508 108.715 61.0897 106.209 61.0897 103.595Z" transform="translate(394.053 116.989)" fill="#AEBEE1"/>
<path d="M61.0897 103.595V9.85029C61.0909 7.2374 62.1303 4.73196 63.9794 2.88481C65.8285 1.03765 68.3359 -2.89316e-07 70.9503 0C73.5615 0.00491204 76.0641 1.04472 77.9092 2.89135C79.7543 4.73797 80.7912 7.24061 80.7924 9.85029V123.305C80.7924 125.919 79.7535 128.425 77.9043 130.273C76.0551 132.122 73.547 133.16 70.9318 133.16H9.86066C7.24545 133.16 4.73734 132.122 2.88811 130.273C1.03887 128.425 6.79733e-06 125.919 6.79733e-06 123.305C6.79733e-06 120.691 1.03887 118.185 2.88811 116.336C4.73734 114.488 7.24545 113.45 9.86066 113.45H51.229C53.8442 113.45 56.3523 112.412 58.2016 110.563C60.0508 108.715 61.0897 106.209 61.0897 103.595Z" transform="translate(394.053 116.989)" fill="#68739D"/>
<path d="M-7.93022e-06 122.776C0.13538 120.258 1.23186 117.887 3.06363 116.152C4.89541 114.417 7.32306 113.45 9.84674 113.45H51.2151C53.8303 113.45 56.3384 112.412 58.1876 110.563C60.0369 108.715 61.0757 106.209 61.0757 103.595V9.85029C61.074 7.31733 62.0482 4.88097 63.7962 3.04682C65.5441 1.21267 67.9316 0.121581 70.4631 0V122.776H-7.93022e-06Z" transform="translate(394.067 116.989)" fill="#D6D6E3"/>
<path d="M19.6981 103.6V9.85493C19.6981 7.24525 18.6624 4.74212 16.8182 2.89463C14.974 1.04714 12.4719 0.00613928 9.86068 -1.13223e-06C7.24548 -1.13223e-06 4.73738 1.03828 2.88815 2.88644C1.03892 4.73459 2.72984e-05 7.24124 2.72984e-05 9.85493V123.31C-0.00302417 124.606 0.249774 125.89 0.743952 127.088C1.23813 128.286 1.96398 129.375 2.87993 130.293C3.79588 131.211 4.88394 131.939 6.08181 132.435C7.27967 132.932 8.56381 133.188 9.86068 133.188H70.9272C73.5424 133.188 76.0505 132.149 77.8997 130.301C79.7489 128.453 80.7878 125.946 80.7878 123.333C80.7878 120.719 79.7489 118.212 77.8997 116.364C76.0505 114.516 73.5424 113.478 70.9272 113.478H29.5634C28.2662 113.478 26.9815 113.223 25.7831 112.727C24.5847 112.23 23.4961 111.502 22.5797 110.585C21.6632 109.667 20.937 108.578 20.4425 107.379C19.948 106.181 19.6951 104.896 19.6981 103.6Z" transform="translate(69.6309 120.147)" fill="#AEBEE1"/>
<path d="M19.6981 103.6V9.85493C19.6981 7.24525 18.6624 4.74212 16.8182 2.89463C14.974 1.04714 12.4719 0.00613928 9.86068 -1.13223e-06C7.24548 -1.13223e-06 4.73738 1.03828 2.88815 2.88644C1.03892 4.73459 2.72984e-05 7.24124 2.72984e-05 9.85493V123.31C-0.00302417 124.606 0.249774 125.89 0.743952 127.088C1.23813 128.286 1.96398 129.375 2.87993 130.293C3.79588 131.211 4.88394 131.939 6.08181 132.435C7.27967 132.932 8.56381 133.188 9.86068 133.188H70.9272C73.5424 133.188 76.0505 132.149 77.8997 130.301C79.7489 128.453 80.7878 125.946 80.7878 123.333C80.7878 120.719 79.7489 118.212 77.8997 116.364C76.0505 114.516 73.5424 113.478 70.9272 113.478H29.5634C28.2662 113.478 26.9815 113.223 25.7831 112.727C24.5847 112.23 23.4961 111.502 22.5797 110.585C21.6632 109.667 20.937 108.578 20.4425 107.379C19.948 106.181 19.6951 104.896 19.6981 103.6Z" transform="translate(69.6309 120.147)" fill="#68739D"/>
<path d="M70.4492 122.767C70.3138 120.248 69.2173 117.877 67.3856 116.143C65.5538 114.408 63.1261 113.441 60.6024 113.441H19.2387C17.9434 113.441 16.6607 113.187 15.4638 112.692C14.2669 112.197 13.1793 111.471 12.2632 110.556C11.347 109.641 10.6203 108.554 10.1245 107.358C9.62863 106.162 9.37342 104.88 9.37342 103.586V9.84102C9.37294 7.31195 8.39961 4.87988 6.65485 3.04807C4.91008 1.21627 2.52744 0.124964 0 -1.69834e-06V122.767H70.4492Z" transform="translate(79.9556 120.161)" fill="#D6D6E3"/>
<path d="M9.09965 2.26446e-06H1.13289e-05V103.998H9.09965V2.26446e-06Z" transform="translate(360.277 209.912)" fill="#D6D6E3"/>
<path opacity="0.1" d="M9.09965 2.26446e-06H-3.39866e-06V7.51293H9.09965V2.26446e-06Z" transform="translate(180.247 209.912)" fill="black"/>
<path opacity="0.1" d="M9.09965 2.26446e-06H1.13289e-05V7.51293H9.09965V2.26446e-06Z" transform="translate(360.277 209.912)" fill="black"/>
<path opacity="0.1" d="M1.83757 6.22726e-06C1.69217 1.60153 1.50811 3.22469 1.28537 4.8695H-3.96511e-06V6.22726e-06H1.83757Z" transform="translate(210.91 148.024)" fill="black"/>
<path d="M39.1225 50.5825C39.1503 52.2288 37.9624 53.5784 36.4914 53.5784H8.71914V50.6845H31.8279C32.8255 50.6845 33.4474 49.4787 32.9462 48.5141L11.9906 5.9176C11.8423 5.61064 11.6123 5.35043 11.3258 5.16554C11.0393 4.98065 10.7074 4.87821 10.3664 4.86949H-3.96511e-06V-3.39669e-06H13.0903C13.3289 0.00601589 13.5611 0.0775863 13.7617 0.206841C13.9622 0.336095 14.1233 0.518049 14.2272 0.732748L38.2501 47.1089C38.8036 48.1845 39.1021 49.373 39.1225 50.5825Z" transform="translate(210.91 148.028)" fill="#68739D"/>
<path d="M3.93963 86.357L3.55912 86.997L-6.79733e-06 84.6225L11.0115 2.26446e-06H13.8467C13.8467 2.26446e-06 13.9627 0.389563 14.1529 1.13158C16.0508 8.4451 25.3732 49.8636 3.93963 86.357Z" transform="translate(195.086 104.527)" fill="#68739D"/>
<path opacity="0.1" d="M14.1483 1.13158L3.93963 86.357L3.55912 86.997L-6.79733e-06 84.6225L11.0115 2.26446e-06H13.8467C13.8467 2.26446e-06 13.9581 0.403476 14.1483 1.13158Z" transform="translate(195.086 104.527)" fill="black"/>
<path d="M87.7861 3.39864e-06H0V6.7284H87.7861V3.39864e-06Z" transform="matrix(0.118992 -0.992895 0.992912 0.118856 191.866 190.814)" fill="#D6D6E3"/>
<path d="M2.7777 0.788398C2.77649 0.998347 2.69251 1.19934 2.54396 1.3478C2.39542 1.49626 2.19429 1.58021 1.98422 1.58143H0.796297C0.58585 1.58143 0.384029 1.49787 0.23522 1.34915C0.0864116 1.20043 0.00280842 0.998723 0.00280842 0.788398C-0.000932363 0.757593 -0.000932363 0.726444 0.00280842 0.69564C0.0265096 0.504203 0.119206 0.327969 0.263557 0.199921C0.407907 0.0718739 0.594015 0.000793921 0.787022 -2.26446e-06H1.97494C2.15127 0.00183766 2.32204 0.0619928 2.46055 0.171064C2.59907 0.280134 2.69754 0.431988 2.74059 0.602896C2.76093 0.662868 2.7734 0.72522 2.7777 0.788398Z" transform="translate(166.193 197.855)" fill="#E3EDF9"/>
<path d="M2.7749 0.788407C2.77369 0.998357 2.68969 1.19935 2.54115 1.34781C2.3926 1.49627 2.19149 1.58022 1.98142 1.58144H0.793498C0.583051 1.58144 0.381216 1.49788 0.232407 1.34916C0.0835981 1.20044 -5.098e-06 0.998733 -5.098e-06 0.788407C0.000434417 0.71458 0.0113746 0.64119 0.0324805 0.570439C0.0675565 0.441811 0.13645 0.324909 0.23201 0.231888C0.304601 0.157995 0.39128 0.0994053 0.486924 0.0595769C0.582568 0.0197484 0.68524 -0.000509876 0.788853 7.399e-06H1.97677C2.12993 -0.000699352 2.28006 0.0426462 2.40924 0.124878C2.53842 0.20711 2.64119 0.324756 2.7053 0.463769C2.75051 0.566071 2.7742 0.676573 2.7749 0.788407Z" transform="translate(169.755 197.855)" fill="#E3EDF9"/>
<path d="M2.77503 0.793049C2.77381 1.003 2.68981 1.204 2.54127 1.35246C2.39272 1.50091 2.19159 1.58486 1.98152 1.58608H0.793605C0.583157 1.58608 0.381337 1.50252 0.232528 1.3538C0.083719 1.20508 0.000115842 1.00337 0.000115842 0.793049C-0.00189442 0.679444 0.0219013 0.566853 0.0697176 0.463768C0.134066 0.326866 0.235623 0.210798 0.362796 0.128798C0.489969 0.0467987 0.637647 0.00217015 0.788974 6.9288e-06H1.97689C2.08127 -0.000608512 2.18472 0.0194879 2.28127 0.0591235C2.37782 0.0987591 2.46554 0.157148 2.53934 0.230911C2.61315 0.304674 2.67157 0.39234 2.71123 0.488833C2.75089 0.585326 2.771 0.688735 2.77038 0.793049H2.77503Z" transform="translate(172.919 197.85)" fill="#E3EDF9"/>
<path d="M2.77429 0.788407C2.77307 0.998357 2.68908 1.19935 2.54054 1.34781C2.39199 1.49627 2.19088 1.58022 1.9808 1.58144H0.792886C0.647815 1.58132 0.505552 1.54147 0.381562 1.4662C0.257572 1.39093 0.156591 1.28312 0.089617 1.15451C0.0226431 1.0259 -0.00776215 0.881414 0.00169069 0.736735C0.0111435 0.592057 0.060091 0.45273 0.143231 0.333916L0.236043 0.231888C0.308634 0.157995 0.395313 0.0994053 0.490957 0.0595769C0.586601 0.0197484 0.689273 -0.000509876 0.792886 7.399e-06H1.9808C2.089 0.0013197 2.19581 0.0246164 2.29473 0.0684649C2.39364 0.112313 2.4826 0.175806 2.5562 0.255085C2.69564 0.397674 2.77389 0.589024 2.77429 0.788407Z" transform="translate(176.484 197.855)" fill="#E3EDF9"/>
<path opacity="0.1" d="M2.75451 1.69834e-06C2.77053 0.0620947 2.77833 0.126023 2.7777 0.190146C2.77649 0.400095 2.69251 0.601093 2.54396 0.749552C2.39542 0.898011 2.19429 0.981956 1.98422 0.983174H0.796297C0.58585 0.983174 0.384029 0.899619 0.23522 0.750897C0.0864116 0.602174 0.00280842 0.400471 0.00280842 0.190146C-0.000932363 0.159341 -0.000932363 0.128192 0.00280842 0.0973876L2.75451 1.69834e-06Z" transform="translate(166.193 198.453)" fill="black"/>
<path opacity="0.1" d="M2.70993 6.79338e-06C2.75173 0.0983332 2.7738 0.203895 2.7749 0.310719C2.77369 0.520669 2.68969 0.72168 2.54115 0.87014C2.3926 1.0186 2.19149 1.10253 1.98142 1.10375H0.793498C0.583051 1.10375 0.381216 1.02021 0.232407 0.871484C0.0835981 0.722762 -5.098e-06 0.521044 -5.098e-06 0.310719C0.000434417 0.236892 0.0113746 0.163501 0.0324805 0.0927506L2.70993 6.79338e-06Z" transform="translate(169.755 198.328)" fill="black"/>
<path opacity="0.1" d="M2.65438 1.69834e-06C2.73246 0.125294 2.77422 0.269779 2.77502 0.417384C2.7738 0.627334 2.68982 0.828345 2.54127 0.976805C2.39273 1.12526 2.1916 1.20919 1.98153 1.21041H0.793609C0.583162 1.21041 0.381341 1.12687 0.232532 0.978149C0.0837236 0.829427 0.000120373 0.627709 0.000120373 0.417384C-0.00188989 0.303779 0.0219058 0.191202 0.0697222 0.0881175L2.65438 1.69834e-06Z" transform="translate(172.924 198.221)" fill="black"/>
<path opacity="0.1" d="M2.77429 0.537967C2.77307 0.747916 2.68908 0.948914 2.54054 1.09737C2.39199 1.24583 2.19088 1.32978 1.9808 1.33099H0.792886C0.647815 1.33088 0.505552 1.29103 0.381562 1.21576C0.257572 1.14049 0.156591 1.03268 0.089617 0.904073C0.0226431 0.775462 -0.00776215 0.630973 0.00169069 0.486294C0.0111435 0.341616 0.060091 0.20229 0.143231 0.0834754L2.5562 1.69834e-06C2.69677 0.143738 2.77511 0.336979 2.77429 0.537967Z" transform="translate(176.484 198.105)" fill="black"/>
<path d="M22.9463 3.46588H7.08817e-06V2.42242C-0.000257242 1.95914 0.179649 1.51389 0.501749 1.18073C0.823849 0.847569 1.26291 0.652578 1.72619 0.636935L20.1297 0.00158425C20.4953 -0.0108532 20.8597 0.0503259 21.2013 0.181496C21.5428 0.312665 21.8544 0.511144 22.1176 0.765118C22.3808 1.01909 22.5902 1.32336 22.7334 1.65986C22.8766 1.99636 22.9506 2.35821 22.951 2.72386L22.9463 3.46588Z" transform="translate(163.43 198.34)" fill="#D6D6E3"/>
<path d="M0.000478476 50.5825C-0.0273634 52.2288 1.16055 53.5784 2.63153 53.5784H30.4177V50.6845H7.28112C6.28346 50.6845 5.66167 49.4787 6.16282 48.5141L27.1184 5.9176C27.2667 5.61064 27.4967 5.35043 27.7832 5.16554C28.0697 4.98065 28.4016 4.87821 28.7426 4.86949H39.1136V-3.39669e-06H26.0326C25.7977 0.00891951 25.5697 0.0813527 25.3727 0.209572C25.1758 0.337792 25.0174 0.516999 24.9143 0.728105L0.89141 47.1042C0.330715 48.1797 0.0258383 49.37 0.000478476 50.5825Z" transform="translate(299.586 148.028)" fill="#68739D"/>
<path d="M13.8695 86.357L14.25 86.997L17.8091 84.6225L6.79766 2.26446e-06H3.96244C3.96244 2.26446e-06 3.84641 0.389563 3.65616 1.13158C1.75363 8.4451 -7.58731 49.8636 13.8695 86.357Z" transform="translate(336.727 104.527)" fill="#68739D"/>
<path opacity="0.1" d="M-9.0631e-06 1.13158L10.2087 86.357L10.5892 86.997L14.1483 84.6225L3.14149 2.26446e-06H0.306267C0.306267 2.26446e-06 0.190244 0.403476 -9.0631e-06 1.13158Z" transform="translate(340.384 104.527)" fill="black"/>
<path d="M6.72838 -3.39672e-06H-1.35945e-05V87.7861H6.72838V-3.39672e-06Z" transform="matrix(0.992912 -0.118856 0.118992 0.992895 340.634 104.443)" fill="#D6D6E3"/>
<path d="M0 0.788398C0.00121784 0.998347 0.0851975 1.19934 0.233743 1.3478C0.382289 1.49626 0.583431 1.58021 0.793503 1.58143H1.98142C2.19187 1.58143 2.39367 1.49787 2.54248 1.34915C2.69129 1.20043 2.7749 0.998723 2.7749 0.788398C2.77864 0.757593 2.77864 0.726444 2.7749 0.69564C2.75119 0.504203 2.65851 0.327969 2.51416 0.199921C2.36981 0.0718739 2.18369 0.000793921 1.99068 -2.26446e-06H0.802764C0.62643 0.00183766 0.455668 0.0619928 0.317152 0.171064C0.178636 0.280134 0.0801814 0.431988 0.0371304 0.602896C0.0167878 0.662868 0.00430177 0.72522 0 0.788398Z" transform="translate(380.648 197.855)" fill="#E3EDF9"/>
<path d="M0.00149536 0.788407C0.0027132 0.998357 0.0866929 1.19935 0.235238 1.34781C0.383784 1.49627 0.584898 1.58022 0.79497 1.58144H1.98289C2.08709 1.58144 2.19029 1.56093 2.28656 1.52107C2.38283 1.48122 2.4703 1.4228 2.54398 1.34916C2.61766 1.27552 2.6761 1.1881 2.71598 1.09189C2.75586 0.995672 2.77639 0.89255 2.77639 0.788407C2.77595 0.71458 2.76501 0.64119 2.74391 0.570439C2.70883 0.441811 2.63994 0.324909 2.54438 0.231888C2.47178 0.157995 2.38509 0.0994053 2.28945 0.0595769C2.1938 0.0197484 2.09115 -0.000509876 1.98753 7.399e-06H0.776419C0.623263 -0.000699352 0.473147 0.0426462 0.343967 0.124878C0.214788 0.20711 0.111998 0.324756 0.0478871 0.463769C0.0106044 0.567728 -0.00517052 0.678173 0.00149536 0.788407Z" transform="translate(377.087 197.855)" fill="#E3EDF9"/>
<path d="M4.53155e-06 0.793049C0.00122237 1.003 0.085202 1.204 0.233748 1.35246C0.382293 1.50091 0.583408 1.58486 0.793479 1.58608H1.98143C2.19187 1.58608 2.39368 1.50252 2.54249 1.3538C2.6913 1.20508 2.7749 1.00337 2.7749 0.793049C2.77691 0.679444 2.75313 0.566853 2.70531 0.463768C2.64096 0.326866 2.53941 0.210798 2.41223 0.128798C2.28506 0.0467987 2.13737 0.00217015 1.98604 6.9288e-06H0.798124C0.693749 -0.000608512 0.590294 0.0194879 0.493745 0.0591235C0.397196 0.0987591 0.309479 0.157148 0.235674 0.230911C0.161868 0.304674 0.103445 0.39234 0.0637861 0.488833C0.0241275 0.585326 0.00403357 0.688735 0.00464937 0.793049H4.53155e-06Z" transform="translate(373.924 197.85)" fill="#E3EDF9"/>
<path d="M7.93022e-06 0.788407C0.00122577 0.998357 0.0852054 1.19935 0.233751 1.34781C0.382297 1.49627 0.583411 1.58022 0.793483 1.58144H1.9814C2.12647 1.58132 2.26873 1.54147 2.39272 1.4662C2.51671 1.39093 2.6177 1.28312 2.68467 1.15451C2.75164 1.0259 2.78206 0.881414 2.77261 0.736735C2.76316 0.592057 2.7142 0.45273 2.63106 0.333916L2.53824 0.231888C2.46565 0.157995 2.37899 0.0994053 2.28334 0.0595769C2.1877 0.0197484 2.08501 -0.000509876 1.9814 7.399e-06H0.793483C0.685281 0.0013197 0.578475 0.0246164 0.479559 0.0684649C0.380644 0.112313 0.291688 0.175806 0.218089 0.255085C0.0786445 0.397674 0.000407291 0.589024 7.93022e-06 0.788407Z" transform="translate(370.36 197.855)" fill="#E3EDF9"/>
<path opacity="0.1" d="M0.0232306 1.69834e-06C0.00720517 0.0620947 -0.000589652 0.126023 3.47141e-05 0.190146C0.00125255 0.400095 0.0852322 0.601093 0.233778 0.749552C0.382323 0.898011 0.583466 0.981956 0.793538 0.983174H1.98146C2.1919 0.983174 2.39371 0.899619 2.54252 0.750897C2.69133 0.602174 2.77493 0.400471 2.77493 0.190146C2.77867 0.159341 2.77867 0.128192 2.77493 0.0973876L0.0232306 1.69834e-06Z" transform="translate(380.648 198.453)" fill="black"/>
<path opacity="0.1" d="M0.0649507 6.79338e-06C0.0231587 0.0983332 0.00110812 0.203895 7.93022e-06 0.310719C0.00122577 0.520669 0.0852054 0.72168 0.233751 0.87014C0.382297 1.0186 0.583411 1.10253 0.793483 1.10375H1.9814C2.0856 1.10375 2.1888 1.08324 2.28507 1.04338C2.38134 1.00353 2.46881 0.945124 2.54249 0.871484C2.61617 0.797844 2.67462 0.710414 2.71449 0.614199C2.75437 0.517984 2.7749 0.414861 2.7749 0.310719C2.77446 0.236892 2.76352 0.163501 2.74242 0.0927506L0.0649507 6.79338e-06Z" transform="translate(377.089 198.328)" fill="black"/>
<path opacity="0.1" d="M0.120653 1.69834e-06C0.0425706 0.125294 0.000800807 0.269779 0 0.417384C0.00121784 0.627334 0.0851975 0.828345 0.233743 0.976805C0.382289 1.12526 0.583431 1.20919 0.793503 1.21041H1.98142C2.19187 1.21041 2.39368 1.12687 2.54248 0.978149C2.69129 0.829427 2.7749 0.627709 2.7749 0.417384C2.77691 0.303779 2.75312 0.191202 2.70531 0.0881175L0.120653 1.69834e-06Z" transform="translate(373.919 198.221)" fill="black"/>
<path opacity="0.1" d="M1.42256e-05 0.537967C0.00123206 0.747916 0.0852117 0.948914 0.233757 1.09737C0.382303 1.24583 0.583417 1.32978 0.793489 1.33099H1.98141C2.12648 1.33088 2.26874 1.29103 2.39273 1.21576C2.51672 1.14049 2.6177 1.03268 2.68468 0.904073C2.75165 0.775462 2.78207 0.630973 2.77262 0.486294C2.76316 0.341616 2.7142 0.20229 2.63106 0.0834754L0.218095 1.69834e-06C0.0775263 0.143738 -0.000800746 0.336979 1.42256e-05 0.537967Z" transform="translate(370.36 198.105)" fill="black"/>
<path d="M0.00463578 3.46588H22.951V2.42242C22.9512 1.95914 22.7713 1.51389 22.4492 1.18073C22.1271 0.847569 21.688 0.652578 21.2248 0.636935L2.82131 0.00158425C2.45565 -0.0108532 2.09122 0.0503259 1.74971 0.181496C1.40819 0.312665 1.09656 0.511144 0.833343 0.765118C0.570131 1.01909 0.360726 1.32336 0.217562 1.65986C0.0743979 1.99636 0.00040145 2.35821 -9.0631e-06 2.72386L0.00463578 3.46588Z" transform="translate(363.237 198.34)" fill="#D6D6E3"/>
<path d="M113.87 128.895C124.575 110.748 120.696 74.1431 121.127 73.4428C121.512 72.826 120.037 55.588 110.199 51.3771C108.422 47.8571 106.673 43.8919 106.673 43.8919C106.5 44.0536 106.31 44.1951 106.106 44.314C106.029 44.1037 105.953 43.8904 105.879 43.674C105.754 43.3076 105.638 42.9319 105.522 42.5563C105.797 42.6442 106.078 42.7154 106.362 42.7696C107.112 42.9527 107.901 42.8826 108.608 42.5702C108.848 42.4411 109.066 42.2735 109.253 42.074C110.027 41.5592 110.454 40.6317 110.816 39.7552L113.679 32.9008C114.969 29.8075 116.269 26.6957 116.955 23.4169C117.977 18.4827 117.582 13.3603 115.814 8.64144C115.136 6.84204 114.199 5.04265 112.607 3.96672C109.42 1.80559 104.983 3.2989 101.341 2.03284C100.144 1.61545 99.0624 0.910535 97.8652 0.483875C95.2805 -0.443648 92.3618 0.0525757 89.8746 1.20734C87.3874 2.36211 85.3735 4.1986 83.1972 5.84496C82.1253 6.66581 80.413 7.5145 79.1509 8.62752C77.9258 9.58287 76.9838 10.7376 77.1648 12.2588C77.369 13.9979 79.2019 15.0413 80.9095 15.4495C81.1926 15.5144 81.4849 15.5654 81.7726 15.6164C79.7458 17.6684 78.2854 20.2101 77.5335 22.9938C76.7816 25.7775 76.7639 28.7084 77.4821 31.501C78.2002 34.2936 79.6298 36.8528 81.6316 38.9291C83.6334 41.0055 86.1391 42.5284 88.9048 43.3493C89.7756 44.9835 90.5292 46.6774 91.16 48.4183C91.2435 48.6563 91.3255 48.8959 91.4059 49.1371C88.5939 49.9347 86.3944 50.5979 85.9535 50.9643C84.6218 52.0681 87.4106 61.7328 87.4106 61.7328C86.7006 62.6325 85.9768 63.6575 85.2436 64.7566C79.6836 73.1967 76.1633 82.8132 74.9606 92.8466C74.4966 96.5149 73.8934 100.267 73.1277 103.833L39.8706 97.1688L39.801 97.9897L39.0075 97.7949L36.511 97.1781L36.4136 97.7393L36.0331 97.5584C29.8475 94.6599 19.4254 90.9591 12.3675 94.7758C4.91981 98.7827 20.9938 104.107 31.3092 106.94C27.8893 107.107 24.6179 107.928 22.0286 109.848C14.5485 115.45 35.7036 118.367 45.6942 119.402L46.0979 119.443V119.657L49.5596 119.977L50.3716 120.051L50.4505 121.284C50.4505 121.284 55.4064 122.096 62.0281 123.079C54.469 124.967 45.1281 126.275 38.6409 127.04C31.764 127.847 25.9079 132.633 24.0611 139.306C23.4641 141.22 23.4063 143.261 23.894 145.205C25.8244 151.944 23.4671 201.515 22.9335 212.191L10.7063 219.226C10.7063 219.226 -8.31897 221.545 4.35371 226.002C5.49554 226.391 6.66305 226.701 7.84785 226.929C6.17734 228.005 6.32119 229.41 11.2446 231.136C23.9265 235.578 53.4064 230.941 53.4064 230.941C53.4064 230.941 52.7614 225.719 51.7127 221.378L52.0375 221.406C52.0375 221.406 48.9935 210.085 53.6106 204.377C58.2277 198.668 52.8357 155.218 52.8357 155.218C52.8357 155.218 60.9191 151.874 85.0812 151.656C104.57 156.656 114.069 138.759 113.935 129.507C113.893 129.298 113.884 129.085 113.87 128.895Z" transform="translate(345.417 85.4836)" fill="url(#paint1_linear)"/>
<path d="M29.8946 6.96218L27.8296 15.3099C27.8296 15.3099 25.9735 14.8925 23.1893 14.1783C13.7602 11.7389 -6.12815 5.88163 1.84391 1.58256C8.7162 -2.12753 18.8367 1.48052 24.8459 4.29555C27.0454 5.32974 28.6974 6.25727 29.4352 6.6932C29.7461 6.86943 29.8946 6.96218 29.8946 6.96218Z" transform="translate(357.365 179.294)" fill="#F8B9BF"/>
<path opacity="0.1" d="M6.12521 4.98544L4.6403 11.0143C4.6403 11.0143 2.78418 10.5969 -5.66444e-06 9.88275L1.67514 1.13223e-06C3.87465 1.03419 5.5266 1.9617 6.26441 2.39764L6.12521 4.98544Z" transform="translate(380.555 183.626)" fill="black"/>
<path d="M5.76326 11.979L6.79733e-06 10.5552L1.79116 2.83057e-06L6.39898 1.13621L5.76326 11.979Z" transform="translate(380.921 183.232)" fill="#D9DFE8"/>
<path opacity="0.1" d="M2.4872 11.3807L5.66444e-06 10.7685L0.937329 6.79338e-06L3.12292 0.537958L2.4872 11.3807Z" transform="translate(384.197 183.831)" fill="black"/>
<path d="M57.4285 1.07841C57.4285 1.07841 46.3613 -5.31222 41.4426 13.0203C36.5239 31.3528 36.0598 39.7979 36.0598 39.7979L1.10902 32.8136L1.24618e-05 45.5717C1.24618e-05 45.5717 37.3684 57.6295 42.069 56.753C46.7697 55.8765 62.0224 30.3186 62.0224 30.3186C62.0224 30.3186 75.8876 10.5113 57.4285 1.07841Z" transform="translate(384.866 150.414)" fill="#6C63FF"/>
<g opacity="0.1">
<path opacity="0.1" d="M29.8946 6.96218L27.8296 15.3099C27.8296 15.3099 25.9735 14.8925 23.1893 14.1783C13.7602 11.7389 -6.12815 5.88163 1.84391 1.58256C8.7162 -2.12753 18.8367 1.48052 24.8459 4.29555C27.0454 5.32974 28.6974 6.25727 29.4352 6.6932C29.7461 6.86943 29.8946 6.96218 29.8946 6.96218Z" transform="translate(357.365 179.294)" fill="black"/>
<path opacity="0.1" d="M6.12521 4.98544L4.6403 11.0143C4.6403 11.0143 2.78418 10.5969 -5.66444e-06 9.88275L1.67514 1.13223e-06C3.87465 1.03419 5.5266 1.9617 6.26441 2.39764L6.12521 4.98544Z" transform="translate(380.555 183.626)" fill="black"/>
<path opacity="0.1" d="M5.76326 11.979L6.79733e-06 10.5552L1.79116 2.83057e-06L6.39898 1.13621L5.76326 11.979Z" transform="translate(380.921 183.232)" fill="black"/>
<path opacity="0.1" d="M2.4872 11.3807L5.66444e-06 10.7685L0.937329 6.79338e-06L3.12292 0.537958L2.4872 11.3807Z" transform="translate(384.197 183.831)" fill="black"/>
<path opacity="0.1" d="M57.4285 1.07841C57.4285 1.07841 46.3613 -5.31222 41.4426 13.0203C36.5239 31.3528 36.0598 39.7979 36.0598 39.7979L1.10902 32.8136L1.24618e-05 45.5717C1.24618e-05 45.5717 37.3684 57.6295 42.069 56.753C46.7697 55.8765 62.0224 30.3186 62.0224 30.3186C62.0224 30.3186 75.8876 10.5113 57.4285 1.07841Z" transform="translate(384.866 150.878)" fill="black"/>
</g>
<path d="M24.6718 0.835675L10.4029 9.04887C10.4029 9.04887 -8.08415 11.3121 4.23123 15.625C16.5466 19.938 45.1773 15.4349 45.1773 15.4349C45.1773 15.4349 43.5857 2.57942 41.3676 0.784668C39.1496 -1.01009 24.6718 0.835675 24.6718 0.835675Z" transform="translate(347.229 292.707)" fill="#68739D"/>
<path d="M58.1106 0.212168C58.1106 0.212168 51.0109 3.92226 38.3986 7.12685C31.0066 8.9819 21.7538 10.299 15.3594 11.0503C12.0861 11.4063 8.99239 12.7262 6.47092 14.8424C3.94945 16.9586 2.11389 19.7759 1.19719 22.9365C0.61326 24.8017 0.557061 26.792 1.03479 28.6871C3.13685 36.0285 9.0631e-06 95.7053 9.0631e-06 95.7053L21.6702 97.7087C21.6702 97.7087 18.7144 86.7129 23.2016 81.171C27.6887 75.629 22.4498 33.4453 22.4498 33.4453C22.4498 33.4453 30.3012 30.199 53.7626 29.9857C75.4978 35.5508 84.4536 11.7737 81.0987 5.10949C77.7437 -1.55476 58.1106 0.212168 58.1106 0.212168Z" transform="translate(369.404 201.181)" fill="#6394E2"/>
<g opacity="0.1">
<path opacity="0.1" d="M24.6718 0.835675L10.4029 9.04887C10.4029 9.04887 -8.08415 11.3121 4.23123 15.625C16.5466 19.938 45.1773 15.4349 45.1773 15.4349C45.1773 15.4349 43.5857 2.57942 41.3676 0.784668C39.1496 -1.01009 24.6718 0.835675 24.6718 0.835675Z" transform="translate(347.229 292.707)" fill="black"/>
<path opacity="0.1" d="M58.1106 0.212168C58.1106 0.212168 51.0109 3.92226 38.3986 7.12685C31.0066 8.9819 21.7538 10.299 15.3594 11.0503C12.0861 11.4063 8.99239 12.7262 6.47092 14.8424C3.94945 16.9586 2.11389 19.7759 1.19719 22.9365C0.61326 24.8017 0.557061 26.792 1.03479 28.6871C3.13685 36.0285 9.0631e-06 95.7053 9.0631e-06 95.7053L21.6702 97.7087C21.6702 97.7087 18.7144 86.7129 23.2016 81.171C27.6887 75.629 22.4498 33.4453 22.4498 33.4453C22.4498 33.4453 30.3012 30.199 53.7626 29.9857C75.4978 35.5508 84.4536 11.7737 81.0987 5.10949C77.7437 -1.55476 58.1106 0.212168 58.1106 0.212168Z" transform="translate(369.404 201.181)" fill="black"/>
</g>
<path d="M24.6679 0.835675L10.3989 9.04887C10.3989 9.04887 -8.07877 11.2935 4.22733 15.625C16.5334 19.9566 45.1734 15.4349 45.1734 15.4349C45.1734 15.4349 43.5818 2.57942 41.3637 0.784668C39.1456 -1.01009 24.6679 0.835675 24.6679 0.835675Z" transform="translate(353.924 297.692)" fill="#68739D"/>
<path d="M53.7626 29.9936C30.3012 30.207 22.4498 33.4533 22.4498 33.4533C22.4498 33.4533 27.6887 75.6556 23.2016 81.179C18.7144 86.7024 21.6703 97.7167 21.6703 97.7167L6.79733e-06 95.7133C6.79733e-06 95.7133 0.0371111 95.0083 0.0974352 93.7469C0.61715 83.3772 2.90482 35.2388 1.0255 28.6951C0.55126 26.8058 0.607474 24.8224 1.18792 22.963C2.10019 19.7982 3.93318 16.9758 6.45401 14.8545C8.97485 12.7331 12.0698 11.4085 15.3455 11.049C21.7352 10.3023 30.988 9.00381 38.38 7.12557L38.7419 7.03282C51.1316 3.85141 58.092 0.21089 58.092 0.21089C58.092 0.21089 77.7252 -1.55141 81.0801 5.11284C81.5533 6.1696 81.7877 7.31755 81.7669 8.47511C81.9339 17.4674 72.6997 34.8492 53.7626 29.9936Z" transform="translate(376.072 206.158)" fill="#6394E2"/>
<path d="M30.0239 3.98383L29.2304 12.5634C29.2304 12.5634 27.3232 12.4289 24.488 12.1321C14.8037 11.1257 -5.73898 8.2968 1.52311 2.85688C7.76896 -1.81784 18.3117 0.222723 24.6736 2.11487C26.9937 2.81051 28.7756 3.48296 29.5691 3.80295C29.8615 3.91426 30.0239 3.98383 30.0239 3.98383Z" transform="translate(367.129 192.674)" fill="#F8B9BF"/>
<path d="M24.7978 21.5232C24.7978 21.5232 21.893 23.7956 18.3431 26.2906C14.4499 27.1718 9.93025 27.8999 6.67275 28.3729C7.83747 24.6628 7.1368 20.489 5.82359 16.8299C4.39504 13.0064 2.43458 9.4031 1.24618e-05 6.12629L19.6378 -3.39669e-06C18.0972 3.90023 18.7932 8.3477 20.1018 12.2155C21.2571 15.5082 22.8357 18.637 24.7978 21.5232Z" transform="translate(429.993 119.043)" fill="#F8B9BF"/>
<path opacity="0.1" d="M5.31317 4.28979L4.74239 10.4532C4.74239 10.4532 2.83524 10.3187 6.79733e-06 10.0219L0.185602 0C2.50576 0.695642 4.28766 1.3681 5.08115 1.6881L5.31317 4.28979Z" transform="translate(391.617 194.785)" fill="black"/>
<path d="M5.91176 11.2508L1.35947e-05 10.7036L0.194899 3.39669e-06L4.92337 0.43594L5.91176 11.2508Z" transform="translate(392.007 194.349)" fill="#D9DFE8"/>
<path opacity="0.1" d="M18.9742 9.33088C18.9742 9.33088 16.0694 11.6033 12.5196 14.0983C8.62633 14.9795 4.10666 15.7076 0.849163 16.1806C2.01388 12.4705 1.31321 8.29669 6.79733e-06 4.63761C4.79809 3.24633 11.6611 1.44694 14.2829 5.66115e-07C15.4349 3.30057 17.0119 6.43722 18.9742 9.33088Z" transform="translate(435.816 131.235)" fill="black"/>
<path d="M20.4568 5.66115e-07C20.4568 5.66115e-07 23.7422 7.45264 25.8117 10.8195C27.8813 14.1865 1.76566 17.3122 1.76566 17.3122C1.76566 17.3122 -0.94428 7.93032 0.350366 6.85439C1.64501 5.77847 18.2712 2.17968 20.4568 5.66115e-07Z" transform="translate(430.408 131.467)" fill="#D9DFE8"/>
<path opacity="0.1" d="M43.0435 8.47975C41.9449 10.4165 40.5762 12.1873 38.9786 13.7388C27.4428 24.6928 8.53352 13.275 -7.93022e-06 7.03282C12.3896 3.85141 19.3501 0.21089 19.3501 0.21089C19.3501 0.21089 38.9833 -1.55141 42.3382 5.11284C42.8184 6.16957 43.0593 7.31924 43.0435 8.47975Z" transform="translate(414.833 206.158)" fill="black"/>
<path d="M43.3683 81.2752C30.2548 93.7226 7.63795 77.2405 1.54058 72.3849C0.552198 71.5965 -2.26578e-06 71.1096 -2.26578e-06 71.1096C2.40832 68.8557 4.52429 64.0789 6.19944 58.2356C7.7607 52.6449 8.88855 46.9423 9.57296 41.1784C10.7404 31.4333 14.159 22.0931 19.5589 13.8953C20.2689 12.8287 20.951 11.8316 21.661 10.9597C26.6122 4.66647 34.9323 0.668849 34.9323 0.668849C52.4912 -4.46035 54.8531 21.5706 54.3844 22.3219C53.9157 23.0732 58.6118 66.8012 43.3683 81.2752Z" transform="translate(410.517 137.838)" fill="#6C63FF"/>
<path opacity="0.1" d="M45.0667 28.7378C45.0667 28.7378 33.7768 56.2852 29.2618 57.8574C26.6771 58.7524 12.8722 57.0551 1.54058 55.4365C0.552198 54.6481 -2.26578e-06 54.1612 -2.26578e-06 54.1612C2.40832 51.9073 4.52429 47.1306 6.19944 41.2872L20.7932 41.9828C20.7932 41.9828 19.9812 33.5702 22.125 14.7044C24.2688 -4.16143 36.1527 0.513282 36.1527 0.513282C55.8136 7.09406 45.0667 28.7378 45.0667 28.7378Z" transform="translate(410.517 154.791)" fill="black"/>
<path opacity="0.1" d="M3.22966 11.019L0.677494 10.7825L-1.13289e-06 3.39669e-06L2.24128 0.20406L3.22966 11.019Z" transform="translate(394.689 194.581)" fill="black"/>
<path d="M50.9645 0.512263C50.9645 0.512263 39.0807 -4.15781 36.9369 14.7034C34.793 33.5645 35.6051 41.9818 35.6051 41.9818L1.24618e-05 40.2798L0.802777 53.0611C0.802777 53.0611 39.554 59.4192 44.069 57.8517C48.584 56.2842 59.8739 28.7321 59.8739 28.7321C59.8739 28.7321 70.6069 7.0884 50.9645 0.512263Z" transform="translate(395.422 153.577)" fill="#6C63FF"/>
<path opacity="0.1" d="M16.1529 5.43528C15.6332 2.61561 18.5798 2.65271 19.6378 -1.13223e-06L7.93022e-06 6.12628C1.36312 7.95526 2.57955 9.88898 3.63799 11.9094C4.6568 12.2117 5.70278 12.4136 6.76094 12.5123C11.443 12.9575 12.9047 8.35234 16.1529 5.43528Z" transform="translate(431.032 120.727)" fill="black"/>
<path d="M16.2132 32.4449C25.1675 32.4449 32.4264 25.1818 32.4264 16.2224C32.4264 7.26303 25.1675 2.26576e-06 16.2132 2.26576e-06C7.25888 2.26576e-06 -1.24546e-05 7.26303 -1.24546e-05 16.2224C-1.24546e-05 25.1818 7.25888 32.4449 16.2132 32.4449Z" transform="matrix(0.092076 -0.995752 0.995762 0.09197 420.586 130.055)" fill="#F8B9BF"/>
<path opacity="0.1" d="M0.0218142 11.5612C0.221348 13.2493 2.00324 14.2789 3.65983 14.6592C5.31642 15.0395 7.11222 15.058 8.56464 15.9438C10.8848 17.3722 11.5112 20.5443 11.2189 23.2712C11.0565 24.8109 10.8245 26.6984 12.0866 27.5935C12.483 27.8361 12.9254 27.994 13.3859 28.0572C14.7025 28.3236 16.054 28.3706 17.3859 28.1964C18.1654 28.0943 18.9682 27.9181 19.706 28.1361C20.9218 28.4885 21.641 29.7685 21.8777 31.0068C22.1143 32.245 21.9844 33.5343 22.1747 34.7818C22.4398 36.3438 23.1723 37.7889 24.2757 38.9264C25.3791 40.0639 26.8016 40.8406 28.3555 41.1539C29.0841 41.331 29.8509 41.2625 30.5365 40.9591C31.4181 40.4953 31.8683 39.5075 32.2488 38.5846L35.033 31.925C36.2859 28.9245 37.548 25.8961 38.2162 22.7147C39.2084 17.923 38.8239 12.9485 37.1072 8.36593C36.4483 6.62219 35.5387 4.87381 33.9935 3.82571C30.8984 1.72487 26.569 3.17644 23.0517 1.97066C21.887 1.56719 20.8383 0.880823 19.6782 0.468075C17.1678 -0.426984 14.3325 0.0460543 11.9149 1.17299C9.49733 2.29993 7.54376 4.07614 5.4185 5.69467C3.57629 7.12769 -0.326209 8.64419 0.0218142 11.5612Z" transform="translate(422.203 89.1957)" fill="black"/>
<path d="M0.0212745 11.5612C0.220808 13.2493 2.00267 14.2789 3.65926 14.6592C5.31585 15.0395 7.11165 15.058 8.56407 15.9438C10.8842 17.3722 11.5107 20.5443 11.2183 23.2712C11.0559 24.8109 10.8239 26.6984 12.0861 27.5935C12.4825 27.8361 12.9249 27.994 13.3854 28.0572C14.7019 28.3236 16.0534 28.3706 17.3853 28.1964C18.1649 28.0943 18.9676 27.9181 19.7055 28.1361C20.9212 28.4885 21.6405 29.7685 21.8771 31.0068C22.1138 32.245 21.9839 33.5343 22.1741 34.7818C22.4392 36.3438 23.1718 37.7888 24.2752 38.9264C25.3786 40.0639 26.8011 40.8406 28.355 41.1539C29.0836 41.331 29.8503 41.2625 30.536 40.9591C31.4176 40.4953 31.8677 39.5075 32.2482 38.5846L35.0324 31.925C36.2853 28.9245 37.5474 25.8961 38.2156 22.7147C39.2078 17.923 38.8233 12.9485 37.1066 8.36593C36.4477 6.62219 35.5382 4.87381 33.993 3.82571C30.8979 1.72487 26.5685 3.17644 23.0511 1.97066C21.8864 1.56719 20.8377 0.880821 19.6776 0.468073C17.1672 -0.426986 14.332 0.0460523 11.9144 1.17299C9.49679 2.29993 7.54322 4.07614 5.41796 5.69467C3.58039 7.12769 -0.322108 8.64419 0.0212745 11.5612Z" transform="translate(422.63 88.8386)" fill="#B96B6B"/>
<path opacity="0.1" d="M16.4041 -1.69834e-06C16.4041 -1.69834e-06 10.2093 24.0507 4.04236 26.2767C-2.12461 28.5028 0.59923 29.1335 0.59923 29.1335" transform="translate(419.686 164.45)" fill="black"/>
<path d="M6.73308 7.92561e-06H1.13289e-05V44.2289H6.73308V7.92561e-06Z" transform="translate(429.649 252.555)" fill="#D6D6E3"/>
<path opacity="0.1" d="M6.73308 7.92561e-06H1.13289e-05V3.2788H6.73308V7.92561e-06Z" transform="translate(429.649 252.555)" fill="black"/>
<path d="M3.39866e-06 2.17504V3.10257C3.39866e-06 3.3882 0.0562904 3.67104 0.16566 3.93493C0.27503 4.19881 0.435334 4.43859 0.637423 4.64056C0.839511 4.84253 1.07943 5.00274 1.34347 5.11205C1.60751 5.22135 1.89051 5.27761 2.17631 5.27761H31.4938C31.7796 5.27761 32.0626 5.22135 32.3266 5.11205C32.5907 5.00274 32.8306 4.84253 33.0327 4.64056C33.2348 4.43859 33.3951 4.19881 33.5044 3.93493C33.6138 3.67104 33.6701 3.3882 33.6701 3.10257V2.17504C33.6701 1.88941 33.6138 1.60657 33.5044 1.34269C33.3951 1.0788 33.2348 0.839023 33.0327 0.637051C32.8306 0.43508 32.5907 0.274869 32.3266 0.165563C32.0626 0.0562566 31.7796 2.26446e-06 31.4938 2.26446e-06H2.17631C1.89051 2.26446e-06 1.60751 0.0562566 1.34347 0.165563C1.07943 0.274869 0.839511 0.43508 0.637423 0.637051C0.435334 0.839023 0.27503 1.0788 0.16566 1.34269C0.0562904 1.60657 3.39866e-06 1.88941 3.39866e-06 2.17504Z" transform="translate(416.178 250.148)" fill="#D6D6E3"/>
<path opacity="0.1" d="M1.13289e-05 0.793048H32.6724C32.4688 0.544669 32.2124 0.344644 31.9219 0.207486C31.6313 0.0703292 31.3139 -0.000537173 30.9926 5.35585e-06H1.67516C1.35463 0.000149751 1.03812 0.0713446 0.748454 0.208477C0.458783 0.34561 0.20317 0.545275 1.13289e-05 0.793048Z" transform="translate(416.68 250.148)" fill="black"/>
<path d="M52.765 4.52892e-06H2.55217C1.14264 4.52892e-06 0 1.14199 0 2.55069V2.73618C0 4.14489 1.14264 5.28687 2.55217 5.28687H52.765C54.1745 5.28687 55.3171 4.14489 55.3171 2.73618V2.55069C55.3171 1.14199 54.1745 4.52892e-06 52.765 4.52892e-06Z" transform="translate(405.362 294.377)" fill="#D6D6E3"/>
<path d="M3.36888 6.73381C5.22945 6.73381 6.73772 5.22639 6.73772 3.3669C6.73772 1.50741 5.22945 -1.24545e-05 3.36888 -1.24545e-05C1.50831 -1.24545e-05 9.0631e-06 1.50741 9.0631e-06 3.3669C9.0631e-06 5.22639 1.50831 6.73381 3.36888 6.73381Z" transform="translate(454.183 299.664)" fill="#68739D"/>
<path d="M3.36885 6.73381C5.22943 6.73381 6.73772 5.22639 6.73772 3.3669C6.73772 1.50741 5.22943 -1.24545e-05 3.36885 -1.24545e-05C1.50828 -1.24545e-05 1.35947e-05 1.50741 1.35947e-05 3.3669C1.35947e-05 5.22639 1.50828 6.73381 3.36885 6.73381Z" transform="translate(405.116 299.664)" fill="#68739D"/>
<path d="M3.36885 6.73381C5.22942 6.73381 6.73772 5.22639 6.73772 3.3669C6.73772 1.50741 5.22942 -1.24545e-05 3.36885 -1.24545e-05C1.50828 -1.24545e-05 1.13289e-05 1.50741 1.13289e-05 3.3669C1.13289e-05 5.22639 1.50828 6.73381 3.36885 6.73381Z" transform="translate(429.649 299.664)" fill="#68739D"/>
<path d="M48.9692 0H3.94426C1.7659 0 -4.53155e-06 1.76488 -4.53155e-06 3.94197V4.2295C-4.53155e-06 6.40659 1.7659 8.17147 3.94426 8.17147H48.9692C51.1475 8.17147 52.9135 6.40659 52.9135 4.2295V3.94197C52.9135 1.76488 51.1475 0 48.9692 0Z" transform="translate(425.863 198.23)" fill="#D6D6E3"/>
<path opacity="0.1" d="M6.73308 0C6.73308 0 4.0881 2.61098 -1.13289e-05 0H6.73308Z" transform="translate(429.649 294.377)" fill="black"/>
<path opacity="0.1" d="M52.9134 6.22726e-06V0.644627C52.9134 1.53636 52.559 2.39156 51.9281 3.02211C51.2972 3.65266 50.4415 4.0069 49.5492 4.0069H3.36423C2.47198 4.0069 1.61627 3.65266 0.985359 3.02211C0.354444 2.39156 1.13289e-06 1.53636 1.13289e-06 0.644627V6.22726e-06H52.9134Z" transform="translate(425.863 202.4)" fill="black"/>
<path d="M9.09964 2.26446e-06H0V115.875H9.09964V2.26446e-06Z" transform="translate(381.641 209.912)" fill="#D6D6E3"/>
<path opacity="0.1" d="M9.09964 2.26446e-06H0V7.51293H9.09964V2.26446e-06Z" transform="translate(381.641 209.912)" fill="black"/>
<path d="M6.73309 1.13223e-05H0V44.2289H6.73309V1.13223e-05Z" transform="translate(108.094 255.718)" fill="#D6D6E3"/>
<path opacity="0.1" d="M6.73309 1.13223e-05H0V3.27878H6.73309V1.13223e-05Z" transform="translate(108.094 255.718)" fill="black"/>
<path d="M33.6701 2.1565V3.08402C33.6701 3.66088 33.4408 4.21409 33.0327 4.62199C32.6245 5.02989 32.071 5.25907 31.4938 5.25907H2.17631C1.59911 5.25907 1.04556 5.02989 0.637427 4.62199C0.22929 4.21409 2.83222e-07 3.66088 2.83222e-07 3.08402V2.1565C0.00489572 1.58287 0.236341 1.03438 0.643948 0.630482C1.05155 0.226586 1.60232 -2.08629e-05 2.17631 1.44062e-09H31.4938C31.7796 1.44062e-09 32.0626 0.0562543 32.3266 0.16556C32.5907 0.274866 32.8306 0.435078 33.0327 0.637049C33.2347 0.83902 33.3951 1.0788 33.5044 1.34268C33.6138 1.60657 33.6701 1.88941 33.6701 2.17504V2.1565Z" transform="translate(94.6236 253.334)" fill="#D6D6E3"/>
<path opacity="0.1" d="M32.6771 0.769952H-3.39866e-06C0.205897 0.525813 0.463268 0.330219 0.753672 0.197128C1.04407 0.0640374 1.36033 -0.00324589 1.67979 0.000120382H30.9973C31.3167 -0.00324589 31.633 0.0640374 31.9234 0.197128C32.2138 0.330219 32.4712 0.525813 32.6771 0.769952Z" transform="translate(95.1201 253.334)" fill="black"/>
<path d="M52.7649 7.92561e-06H2.55217C1.14264 7.92561e-06 0 1.14199 0 2.5507V2.73618C0 4.14489 1.14264 5.28687 2.55217 5.28687H52.7649C54.1745 5.28687 55.3171 4.14489 55.3171 2.73618V2.5507C55.3171 1.14199 54.1745 7.92561e-06 52.7649 7.92561e-06Z" transform="translate(83.8024 297.54)" fill="#D6D6E3"/>
<path d="M3.36887 6.73382C5.22944 6.73382 6.73773 5.2264 6.73773 3.3669C6.73773 1.50741 5.22944 -9.05784e-06 3.36887 -9.05784e-06C1.50829 -9.05784e-06 3.39866e-06 1.50741 3.39866e-06 3.3669C3.39866e-06 5.2264 1.50829 6.73382 3.36887 6.73382Z" transform="translate(83.5611 302.827)" fill="#68739D"/>
<path d="M3.36886 6.73382C5.22944 6.73382 6.73773 5.2264 6.73773 3.3669C6.73773 1.50741 5.22944 -9.05784e-06 3.36886 -9.05784e-06C1.50829 -9.05784e-06 -5.66444e-06 1.50741 -5.66444e-06 3.3669C-5.66444e-06 5.2264 1.50829 6.73382 3.36886 6.73382Z" transform="translate(132.623 302.827)" fill="#68739D"/>
<path d="M3.36887 6.73382C5.22944 6.73382 6.73773 5.2264 6.73773 3.3669C6.73773 1.50741 5.22944 -9.05784e-06 3.36887 -9.05784e-06C1.50829 -9.05784e-06 -3.39866e-06 1.50741 -3.39866e-06 3.3669C-3.39866e-06 5.2264 1.50829 6.73382 3.36887 6.73382Z" transform="translate(108.09 302.827)" fill="#68739D"/>
<path opacity="0.1" d="M6.79733e-06 3.39669e-06C6.79733e-06 3.39669e-06 2.64497 2.61098 6.73309 3.39669e-06H6.79733e-06Z" transform="translate(108.094 297.54)" fill="black"/>
<path d="M9.65648 46.9744C9.65648 46.9744 2.10205 33.2517 4.86303 21.3238C6.05246 16.3281 5.58842 11.0817 3.54056 6.37209C2.55731 4.14458 1.37218 2.01165 0 -3.39669e-06" transform="translate(270.208 117.42)" stroke="#535461" stroke-width="2" stroke-miterlimit="10"/>
<path d="M6.66339 2.8697C7.05782 4.6691 4.94647 10.6006 4.94647 10.6006C4.94647 10.6006 0.542832 6.10212 0.143766 4.30272C0.0102231 3.86291 -0.0309026 3.40027 0.0229716 2.94382C0.0768457 2.48737 0.224567 2.04698 0.456839 1.6503C0.689112 1.25362 1.00093 0.909216 1.37272 0.638705C1.74451 0.368195 2.16824 0.177423 2.61731 0.0783646C3.06638 -0.0206941 3.53109 -0.0258955 3.98227 0.0630795C4.43345 0.152054 4.86134 0.33329 5.2391 0.595404C5.61686 0.857519 5.93633 1.19485 6.17744 1.58623C6.41855 1.9776 6.5761 2.41458 6.6402 2.8697H6.66339Z" transform="translate(265.22 107.019)" fill="#6C63FF"/>
<path d="M6.43271 4.62125C5.78771 6.34645 0.790111 10.1864 0.790111 10.1864C0.790111 10.1864 -0.462796 4.01836 0.186848 2.30245C0.325993 1.87518 0.550112 1.48043 0.845735 1.1419C1.14136 0.803367 1.50241 0.52805 1.90717 0.332466C2.31193 0.136882 2.75207 0.0250686 3.20115 0.00375141C3.65023 -0.0175658 4.09897 0.052053 4.52046 0.208416C4.94194 0.364779 5.32749 0.604664 5.65388 0.913668C5.98028 1.22267 6.24082 1.59442 6.41986 2.00658C6.59889 2.41874 6.69273 2.86281 6.69574 3.31213C6.69875 3.76144 6.61086 4.20674 6.43736 4.62125H6.43271Z" transform="translate(273.028 114.046)" fill="#6C63FF"/>
<path d="M7.67971 5.93815C6.2505 7.10219 5.66444e-06 7.88595 5.66444e-06 7.88595C5.66444e-06 7.88595 2.03709 1.93125 3.4663 0.767208C3.80551 0.486223 4.19703 0.275162 4.61828 0.146208C5.03953 0.0172547 5.48218 -0.027035 5.92065 0.0158888C6.35912 0.0588126 6.78476 0.188094 7.17297 0.39629C7.56118 0.604485 7.90429 0.887464 8.18249 1.22889C8.46069 1.57031 8.66847 1.96342 8.79385 2.38553C8.91923 2.80764 8.95972 3.25039 8.91297 3.68822C8.86623 4.12605 8.73317 4.55029 8.5215 4.93646C8.30983 5.32263 8.02373 5.66307 7.67971 5.93815Z" transform="translate(275.289 129.805)" fill="#6C63FF"/>
<path d="M7.23889 5.60247C6.02777 6.99375 -1.13289e-05 8.82097 -1.13289e-05 8.82097C-1.13289e-05 8.82097 0.99766 2.60658 2.20878 1.21993C2.49206 0.874721 2.84183 0.589881 3.23733 0.382307C3.63283 0.174734 4.06603 0.048656 4.51121 0.0115443C4.95638 -0.0255673 5.40448 0.0270443 5.82892 0.166264C6.25337 0.305483 6.6455 0.528475 6.98209 0.822009C7.31868 1.11554 7.59288 1.47364 7.78839 1.87507C7.98391 2.2765 8.09676 2.71308 8.12027 3.15892C8.14379 3.60476 8.07748 4.05077 7.92528 4.47052C7.77307 4.89027 7.53809 5.27519 7.23424 5.60247H7.23889Z" transform="translate(275.475 143.655)" fill="#6C63FF"/>
<path d="M1.6567 6.23404C3.22512 7.2033 9.52203 7.16156 9.52203 7.16156C9.52203 7.16156 6.73784 1.51758 5.16942 0.548323C4.79698 0.303579 4.37924 0.135909 3.94089 0.0551946C3.50253 -0.0255197 3.05244 -0.0176339 2.61719 0.0783911C2.18194 0.174416 1.77035 0.356631 1.40673 0.614276C1.04311 0.87192 0.734836 1.19977 0.500106 1.57847C0.265377 1.95716 0.108951 2.37903 0.0400689 2.81915C-0.0288133 3.25927 -0.00874729 3.70871 0.0990641 4.14096C0.206875 4.5732 0.400244 4.97948 0.667774 5.33579C0.935303 5.6921 1.27158 5.99122 1.6567 6.21549V6.23404Z" transform="translate(265.396 119.84)" fill="#6C63FF"/>
<path d="M2.3785 6.52852C4.16502 6.99228 10.165 5.08158 10.165 5.08158C10.165 5.08158 5.81697 0.52744 4.03045 0.0729536C3.188 -0.106115 2.30891 0.0473612 1.5771 0.501262C0.84528 0.955163 0.317434 1.67432 0.10403 2.50827C-0.109374 3.34222 0.00819397 4.22635 0.432114 4.97565C0.856035 5.72496 1.55347 6.28138 2.3785 6.52852Z" transform="translate(264.582 135.359)" fill="#6C63FF"/>
<path d="M1.97502 6.37496C3.65481 7.12626 9.89603 6.26365 9.89603 6.26365C9.89603 6.26365 6.37867 1.04171 4.69888 0.290416C3.89093 -0.0705807 2.97257 -0.096029 2.14586 0.21968C1.31914 0.535389 0.651792 1.16638 0.290585 1.97386C-0.0706212 2.78133 -0.0960842 3.69915 0.219808 4.52538C0.5357 5.35162 1.16707 6.01859 1.97502 6.37959V6.37496Z" transform="translate(266.994 150.891)" fill="#6C63FF"/>
<path d="M6.66339 2.8697C7.05782 4.6691 4.94647 10.6006 4.94647 10.6006C4.94647 10.6006 0.542832 6.10212 0.143766 4.30272C0.0102231 3.86291 -0.0309026 3.40027 0.0229716 2.94382C0.0768457 2.48737 0.224567 2.04698 0.456839 1.6503C0.689112 1.25362 1.00093 0.909216 1.37272 0.638705C1.74451 0.368195 2.16824 0.177423 2.61731 0.0783646C3.06638 -0.0206941 3.53109 -0.0258955 3.98227 0.0630795C4.43345 0.152054 4.86134 0.33329 5.2391 0.595404C5.61686 0.857519 5.93633 1.19485 6.17744 1.58623C6.41855 1.9776 6.5761 2.41458 6.6402 2.8697H6.66339Z" transform="translate(265.22 107.019)" fill="#6C63FF"/>
<path d="M6.43271 4.62125C5.78771 6.34645 0.790111 10.1864 0.790111 10.1864C0.790111 10.1864 -0.462796 4.01836 0.186848 2.30245C0.325993 1.87518 0.550112 1.48043 0.845735 1.1419C1.14136 0.803367 1.50241 0.52805 1.90717 0.332466C2.31193 0.136882 2.75207 0.0250686 3.20115 0.00375141C3.65023 -0.0175658 4.09897 0.052053 4.52046 0.208416C4.94194 0.364779 5.32749 0.604664 5.65388 0.913668C5.98028 1.22267 6.24082 1.59442 6.41986 2.00658C6.59889 2.41874 6.69273 2.86281 6.69574 3.31213C6.69875 3.76144 6.61086 4.20674 6.43736 4.62125H6.43271Z" transform="translate(273.028 114.046)" fill="#6C63FF"/>
<path d="M7.67971 5.93815C6.2505 7.10219 5.66444e-06 7.88595 5.66444e-06 7.88595C5.66444e-06 7.88595 2.03709 1.93125 3.4663 0.767208C3.80551 0.486223 4.19703 0.275162 4.61828 0.146208C5.03953 0.0172547 5.48218 -0.027035 5.92065 0.0158888C6.35912 0.0588126 6.78476 0.188094 7.17297 0.39629C7.56118 0.604485 7.90429 0.887464 8.18249 1.22889C8.46069 1.57031 8.66847 1.96342 8.79385 2.38553C8.91923 2.80764 8.95972 3.25039 8.91297 3.68822C8.86623 4.12605 8.73317 4.55029 8.5215 4.93646C8.30983 5.32263 8.02373 5.66307 7.67971 5.93815Z" transform="translate(275.289 129.805)" fill="#6C63FF"/>
<path d="M7.23889 5.60247C6.02777 6.99375 -1.13289e-05 8.82097 -1.13289e-05 8.82097C-1.13289e-05 8.82097 0.99766 2.60658 2.20878 1.21993C2.49206 0.874721 2.84183 0.589881 3.23733 0.382307C3.63283 0.174734 4.06603 0.048656 4.51121 0.0115443C4.95638 -0.0255673 5.40448 0.0270443 5.82892 0.166264C6.25337 0.305483 6.6455 0.528475 6.98209 0.822009C7.31868 1.11554 7.59288 1.47364 7.78839 1.87507C7.98391 2.2765 8.09676 2.71308 8.12027 3.15892C8.14379 3.60476 8.07748 4.05077 7.92528 4.47052C7.77307 4.89027 7.53809 5.27519 7.23424 5.60247H7.23889Z" transform="translate(275.475 143.655)" fill="#6C63FF"/>
<path d="M1.6567 6.23404C3.22512 7.2033 9.52203 7.16156 9.52203 7.16156C9.52203 7.16156 6.73784 1.51758 5.16942 0.548323C4.79698 0.303579 4.37924 0.135909 3.94089 0.0551946C3.50253 -0.0255197 3.05244 -0.0176339 2.61719 0.0783911C2.18194 0.174416 1.77035 0.356631 1.40673 0.614276C1.04311 0.87192 0.734836 1.19977 0.500106 1.57847C0.265377 1.95716 0.108951 2.37903 0.0400689 2.81915C-0.0288133 3.25927 -0.00874729 3.70871 0.0990641 4.14096C0.206875 4.5732 0.400244 4.97948 0.667774 5.33579C0.935303 5.6921 1.27158 5.99122 1.6567 6.21549V6.23404Z" transform="translate(265.396 119.84)" fill="#6C63FF"/>
<path d="M2.3785 6.52852C4.16502 6.99228 10.165 5.08158 10.165 5.08158C10.165 5.08158 5.81697 0.52744 4.03045 0.0729536C3.188 -0.106115 2.30891 0.0473612 1.5771 0.501262C0.84528 0.955163 0.317434 1.67432 0.10403 2.50827C-0.109374 3.34222 0.00819397 4.22635 0.432114 4.97565C0.856035 5.72496 1.55347 6.28138 2.3785 6.52852Z" transform="translate(264.582 135.359)" fill="#6C63FF"/>
<path d="M1.97502 6.37496C3.65481 7.12626 9.89603 6.26365 9.89603 6.26365C9.89603 6.26365 6.37867 1.04171 4.69888 0.290416C3.89093 -0.0705807 2.97257 -0.096029 2.14586 0.21968C1.31914 0.535389 0.651792 1.16638 0.290585 1.97386C-0.0706212 2.78133 -0.0960842 3.69915 0.219808 4.52538C0.5357 5.35162 1.16707 6.01859 1.97502 6.37959V6.37496Z" transform="translate(266.994 150.891)" fill="#6C63FF"/>
<path d="M7.95538 43.6492C6.86854 43.6495 5.79317 43.4271 4.79567 42.9958C3.79816 42.5646 2.8997 41.9336 2.1557 41.1418C1.4117 40.35 0.837976 39.4142 0.469931 38.3921C0.101887 37.3701 -0.0526691 36.2835 0.0158132 35.1995L2.23851 6.22726e-06H13.6722L15.8949 35.1995C15.9634 36.2835 15.8089 37.3701 15.4408 38.3921C15.0728 39.4142 14.4991 40.35 13.7551 41.1418C13.0111 41.9336 12.1126 42.5646 11.1151 42.9958C10.1176 43.4271 9.04221 43.6495 7.95538 43.6492Z" transform="translate(268.837 158.806)" fill="#6C63FF"/>
<path opacity="0.1" d="M6.49643 0H0V26.8982H6.49643V0Z" transform="translate(38.796 29.4119)" fill="#6C63FF"/>
<path opacity="0.1" d="M6.49643 0H0V26.8982H6.49643V0Z" transform="translate(47.1486 29.4119)" fill="#6C63FF"/>
<path opacity="0.1" d="M6.49644 0H0V26.8982H6.49644V0Z" transform="translate(55.5012 29.4119)" fill="#6C63FF"/>
<path opacity="0.1" d="M6.49644 0H2.83222e-06V26.8982H6.49644V0Z" transform="translate(63.8537 29.4119)" fill="#6C63FF"/>
<path opacity="0.1" d="M6.49644 0H2.83222e-06V26.8982H6.49644V0Z" transform="translate(80.5588 29.4119)" fill="#6C63FF"/>
<path opacity="0.1" d="M6.49644 0H2.83222e-06V26.8982H6.49644V0Z" transform="translate(88.9114 29.4119)" fill="#6C63FF"/>
<path opacity="0.1" d="M6.49643 0H0V1.39128H6.49643V0Z" transform="translate(38.796 34.5133)" fill="#6C63FF"/>
<path opacity="0.1" d="M6.49643 0H0V1.39128H6.49643V0Z" transform="translate(38.796 51.2086)" fill="#6C63FF"/>
<path opacity="0.1" d="M6.49643 0H0V1.39128H6.49643V0Z" transform="translate(47.1486 34.5133)" fill="#6C63FF"/>
<path opacity="0.1" d="M6.49643 0H0V1.39128H6.49643V0Z" transform="translate(47.1486 51.2086)" fill="#6C63FF"/>
<path opacity="0.1" d="M6.49644 0H0V1.39128H6.49644V0Z" transform="translate(55.5012 34.5133)" fill="#6C63FF"/>
<path opacity="0.1" d="M6.49644 0H0V1.39128H6.49644V0Z" transform="translate(55.5012 51.2086)" fill="#6C63FF"/>
<path opacity="0.1" d="M6.49644 0H2.83222e-06V1.39128H6.49644V0Z" transform="translate(63.8537 34.5133)" fill="#6C63FF"/>
<path opacity="0.1" d="M6.49644 0H2.83222e-06V1.39128H6.49644V0Z" transform="translate(63.8537 51.2086)" fill="#6C63FF"/>
<path opacity="0.1" d="M6.49644 0H2.83222e-06V1.39128H6.49644V0Z" transform="translate(72.2063 34.5133)" fill="#6C63FF"/>
<path opacity="0.1" d="M6.49644 0H2.83222e-06V1.39128H6.49644V0Z" transform="translate(72.2063 51.2086)" fill="#6C63FF"/>
<path opacity="0.1" d="M6.49644 0H2.83222e-06V1.39128H6.49644V0Z" transform="translate(80.5588 34.5133)" fill="#6C63FF"/>
<path opacity="0.1" d="M6.49644 0H2.83222e-06V1.39128H6.49644V0Z" transform="translate(80.5588 51.2086)" fill="#6C63FF"/>
<path opacity="0.1" d="M6.49644 0H2.83222e-06V1.39128H6.49644V0Z" transform="translate(88.9114 34.5133)" fill="#6C63FF"/>
<path opacity="0.1" d="M6.49644 0H2.83222e-06V1.39128H6.49644V0Z" transform="translate(88.9114 51.2086)" fill="#6C63FF"/>
<path opacity="0.1" d="M6.49644 0H2.83222e-06V26.8982H6.49644V0Z" transform="translate(72.2063 29.4119)" fill="#6C63FF"/>
<path opacity="0.1" d="M6.49577 0H3.9647e-06V26.9009H6.49577V0Z" transform="matrix(0.907577 -0.419885 0.420287 0.907391 95.6217 32.016)" fill="#6C63FF"/>
<path opacity="0.1" d="M6.49576 0H0V1.39143H6.49576V0Z" transform="matrix(0.907577 -0.419885 0.420287 0.907391 97.7677 36.6498)" fill="#6C63FF"/>
<path opacity="0.1" d="M6.49577 0H5.09747e-06V1.39143H6.49577V0Z" transform="matrix(0.907577 -0.419885 0.420287 0.907391 104.782 51.799)" fill="#6C63FF"/>
<path d="M102.639 224.146L90.848 216.629C90.7876 206.041 90.6206 156.887 92.8247 150.311C93.3932 148.407 93.4254 146.383 92.9176 144.463C91.3863 137.78 85.7993 132.79 79.0291 131.691C72.644 130.652 63.4562 128.95 56.0596 126.752C62.6535 126.07 67.5954 125.481 67.5954 125.481L67.7253 124.261L71.9712 124.057V123.876L72.3749 123.853C82.2912 123.264 103.349 121.302 96.1936 115.431C93.7389 113.419 90.5371 112.468 87.1589 112.148C97.4883 109.792 113.632 105.229 106.435 100.939C99.5949 96.8669 89.1218 100.067 82.8713 102.669L82.4861 102.831L82.4165 102.27L79.9201 102.771L79.1266 102.928L79.0894 102.112L44.0597 107.519C43.7851 103.508 43.3081 99.5131 42.6305 95.5498C43.4147 90.3279 47.062 82.7129 45.7766 78.6271C44.2825 73.8829 38.148 72.3293 35.568 68.0441C34.8905 66.9264 34.2176 65.8783 33.5587 64.9601C32.1166 63.0014 30.4589 61.2109 28.6168 59.6222C28.7283 56.8668 29.3449 54.1553 30.4358 51.6223C31.1351 49.9279 31.9539 48.2851 32.8859 46.7065C36.9689 45.6942 40.5117 43.1632 42.7916 39.6299C45.0715 36.0966 45.9167 31.827 45.1548 27.6922C47.3729 28.6429 50.0689 28.7403 51.4564 26.8853L50.7975 26.6302C50.8624 26.5607 50.9274 26.4911 50.9831 26.4123C49.6327 25.8975 48.1989 25.3131 47.1409 24.3763C46.873 24.0756 46.6467 23.7402 46.4681 23.3793C45.8277 22.0807 45.9019 20.5225 45.2894 19.2054C45.0012 18.6057 44.592 18.072 44.0876 17.6379C43.013 16.5398 41.6536 15.7626 40.1619 15.3933C38.4867 14.9063 36.7234 14.6605 35.1179 14.002C32.9297 11.4627 30.0411 9.62439 26.8132 8.71704C23.5853 7.80969 20.1614 7.87355 16.9696 8.90063L16.3896 9.10004C16.7924 7.15896 16.4166 5.13743 15.3432 3.47044C14.2697 1.80346 12.5843 0.624273 10.6497 0.186643C8.71512 -0.250987 6.68594 0.0879175 4.99884 1.13043C3.31173 2.17294 2.10156 3.83572 1.62875 5.76096C1.77585 4.07078 2.4886 2.47947 3.65193 1.24393C3.53128 1.34595 3.40599 1.44334 3.28998 1.55C2.5654 2.23087 1.9821 3.0477 1.5734 3.95387C1.1647 4.86004 0.938594 5.83779 0.908 6.8313C0.877406 7.8248 1.04292 8.81459 1.39509 9.74416C1.74726 10.6737 2.2792 11.5249 2.96052 12.249L3.09509 12.3788C3.63085 13.034 4.27229 13.5951 4.99297 14.0391C3.66666 13.571 2.49701 12.7429 1.61513 11.6477C0.733241 10.5526 0.17397 9.23359 -2.83222e-06 7.83861C-2.83222e-06 7.99629 -2.83222e-06 8.15396 -2.83222e-06 8.30237C0.0578794 9.29898 0.312466 10.2743 0.749091 11.1722C1.18572 12.07 1.79576 12.8727 2.54408 13.5339C3.2924 14.1952 4.16422 14.7019 5.10933 15.025C6.05444 15.3481 7.05417 15.4812 8.05094 15.4165L8.25975 15.3933L8.14839 15.5463C5.99041 18.7184 4.9675 22.5258 5.24544 26.3515C5.52338 30.1772 7.08587 33.797 9.67968 36.6243C9.98767 37.3293 10.3973 37.9856 10.8954 38.5721C11.0705 38.7723 11.258 38.9613 11.4569 39.1379C12.7278 40.478 14.4657 41.2783 16.3107 41.3732C16.62 41.7411 16.9495 42.0951 17.2991 42.4352C16.9931 43.7363 16.593 45.0135 16.1019 46.2566C15.113 48.7323 13.882 51.1043 12.4267 53.3382C2.40368 56.1857 1.52202 73.1965 1.88397 73.8411C2.31552 74.611 0.389789 101.324 7.81428 133.592C7.50802 142.816 12.8908 158.069 31.9996 154.049C55.8972 155.324 63.7346 158.983 63.7346 158.983C63.7346 158.983 61.4655 200.522 64.7045 206.57C66.7323 210.359 65.2938 215.924 63.7764 219.852C63.2139 220.823 62.7655 221.857 62.44 222.931C61.976 223.91 61.6372 224.503 61.6372 224.503H61.962C60.737 228.756 59.8693 233.89 59.8693 233.89C59.8693 233.89 88.8387 239.766 101.581 235.921C106.528 234.428 106.732 233.046 105.126 231.905C106.309 231.731 107.478 231.475 108.625 231.14C121.377 227.295 102.639 224.146 102.639 224.146Z" transform="translate(77.937 82.6182)" fill="url(#paint2_linear)"/>
<path d="M33.4102 16.6954C33.4102 19.9974 32.4305 23.2253 30.5949 25.9709C28.7593 28.7164 26.1504 30.8563 23.0979 32.12C20.0454 33.3836 16.6866 33.7142 13.4461 33.07C10.2056 32.4258 7.22907 30.8357 4.89282 28.5008C2.55657 26.166 0.96556 23.1911 0.32099 19.9525C-0.32358 16.7139 0.00724008 13.357 1.27161 10.3064C2.53598 7.25567 4.67711 4.6482 7.42425 2.81368C10.1714 0.979168 13.4012 0 16.7051 0C18.8989 0 21.0711 0.431842 23.0979 1.27086C25.1247 2.10989 26.9662 3.33966 28.5174 4.88997C30.0686 6.44029 31.2991 8.28078 32.1386 10.3064C32.9781 12.3319 33.4102 14.5029 33.4102 16.6954Z" transform="translate(84.1319 92.8729)" fill="#FA595F"/>
<path d="M-1.69933e-06 6.02578L1.69371 14.4755C1.69371 14.4755 3.57768 14.137 6.3665 13.548C15.8931 11.5306 36.0227 6.54983 28.227 1.90294C21.5218 -2.09005 11.2528 1.04962 5.12755 3.60031C2.88164 4.52783 1.19256 5.39043 0.436188 5.7939C0.15313 5.93767 -1.69933e-06 6.02578 -1.69933e-06 6.02578Z" transform="translate(155.17 181.979)" fill="#F8B9BF"/>
<path opacity="0.1" d="M0.0417605 4.8092L1.25752 10.8752C1.25752 10.8752 3.14149 10.5367 5.93031 9.94769L4.69136 -2.83057e-06C2.44545 0.92752 0.75637 1.79012 -5.66444e-07 2.19359L0.0417605 4.8092Z" transform="translate(155.607 185.579)" fill="black"/>
<path d="M0.157774 11.7888L5.97671 10.6248L4.65887 3.39669e-06L5.66444e-06 0.932154L0.157774 11.7888Z" transform="translate(155.198 185.189)" fill="#D9DFE8"/>
<path opacity="0.1" d="M0.157774 11.2972L2.66818 10.7917L2.20878 2.26446e-06L5.66444e-06 0.440567L0.157774 11.2972Z" transform="translate(155.198 185.681)" fill="black"/>
<path d="M10.2422 0.892334C10.2422 0.892334 21.5692 -5.00671 25.6851 13.5298C29.8011 32.0664 29.8614 40.5161 29.8614 40.5161L65.0906 35.0762L65.6382 47.8714C65.6382 47.8714 27.7733 58.2735 23.119 57.1883C18.4648 56.1031 4.33506 29.896 4.33506 29.896C4.33506 29.896 -8.6114 9.51366 10.2422 0.892334Z" transform="translate(91.4811 149.951)" fill="#6C63FF"/>
<g opacity="0.1">
<path opacity="0.1" d="M-1.69933e-06 6.02578L1.69371 14.4755C1.69371 14.4755 3.57768 14.137 6.3665 13.548C15.8931 11.5306 36.0227 6.54983 28.227 1.90294C21.5218 -2.09005 11.2528 1.04962 5.12755 3.60031C2.88164 4.52783 1.19256 5.39043 0.436188 5.7939C0.15313 5.93767 -1.69933e-06 6.02578 -1.69933e-06 6.02578Z" transform="translate(155.17 181.979)" fill="black"/>
<path opacity="0.1" d="M0.0417605 4.8092L1.25752 10.8752C1.25752 10.8752 3.14149 10.5367 5.93031 9.94769L4.69136 -2.83057e-06C2.44545 0.92752 0.75637 1.79012 -5.66444e-07 2.19359L0.0417605 4.8092Z" transform="translate(155.607 185.579)" fill="black"/>
<path opacity="0.1" d="M0.157774 11.7888L5.97671 10.6248L4.65887 3.39669e-06L5.66444e-06 0.932154L0.157774 11.7888Z" transform="translate(155.198 185.189)" fill="black"/>
<path opacity="0.1" d="M0.157774 11.2972L2.66818 10.7917L2.20878 2.26446e-06L5.66444e-06 0.440567L0.157774 11.2972Z" transform="translate(155.198 185.681)" fill="black"/>
<path opacity="0.1" d="M10.2422 0.892334C10.2422 0.892334 21.5692 -5.00671 25.6851 13.5298C29.8011 32.0664 29.8614 40.5161 29.8614 40.5161L65.0906 35.0762L65.6382 47.8714C65.6382 47.8714 27.7733 58.2735 23.119 57.1883C18.4648 56.1031 4.33506 29.896 4.33506 29.896C4.33506 29.896 -8.6114 9.51366 10.2422 0.892334Z" transform="translate(92.4092 150.878)" fill="black"/>
</g>
<path d="M21.1273 1.39116L35.0204 10.2026C35.0204 10.2026 53.3914 13.2773 40.895 17.0477C28.3987 20.8181 5.66444e-07 15.0536 5.66444e-07 15.0536C5.66444e-07 15.0536 2.15775 2.28156 4.4547 0.588832C6.75165 -1.1039 21.1273 1.39116 21.1273 1.39116Z" transform="translate(144.674 294.475)" fill="#F37291"/>
<path d="M24.0424 0.523002C24.0424 0.523002 30.9704 4.54382 43.4296 8.30029C50.7335 10.5032 59.9213 12.2052 66.2692 13.2393C69.5258 13.7417 72.5593 15.2004 74.9844 17.43C77.4094 19.6596 79.1164 22.5594 79.8885 25.7609C80.3869 27.6434 80.3564 29.6267 79.8004 31.493C77.3781 38.7369 77.87 98.4926 77.87 98.4926L56.1348 99.5361C56.1348 99.5361 59.5733 88.6794 55.3367 82.9473C51.1001 77.2152 58.1951 35.3051 58.1951 35.3051C58.1951 35.3051 50.4968 31.7156 27.0633 30.4681C5.10068 35.1057 -2.79249 10.9205 0.854796 4.40932C4.50208 -2.10189 24.0424 0.523002 24.0424 0.523002Z" transform="translate(90.2515 200.824)" fill="#96A2D0"/>
<g opacity="0.1">
<path opacity="0.1" d="M21.1273 1.39116L35.0204 10.2026C35.0204 10.2026 53.3914 13.2773 40.895 17.0477C28.3987 20.8181 5.66444e-07 15.0536 5.66444e-07 15.0536C5.66444e-07 15.0536 2.15775 2.28156 4.4547 0.588832C6.75165 -1.1039 21.1273 1.39116 21.1273 1.39116Z" transform="translate(144.674 294.475)" fill="black"/>
<path opacity="0.1" d="M24.0424 0.523002C24.0424 0.523002 30.9704 4.54382 43.4296 8.30029C50.7335 10.5032 59.9213 12.2052 66.2692 13.2393C69.5258 13.7417 72.5593 15.2004 74.9844 17.43C77.4094 19.6596 79.1164 22.5594 79.8885 25.7609C80.3869 27.6434 80.3564 29.6267 79.8004 31.493C77.3781 38.7369 77.87 98.4926 77.87 98.4926L56.1348 99.5361C56.1348 99.5361 59.5733 88.6794 55.3367 82.9473C51.1001 77.2152 58.1951 35.3051 58.1951 35.3051C58.1951 35.3051 50.4968 31.7156 27.0633 30.4681C5.10068 35.1057 -2.79249 10.9205 0.854796 4.40932C4.50208 -2.10189 24.0424 0.523002 24.0424 0.523002Z" transform="translate(90.2515 200.824)" fill="black"/>
</g>
<path d="M21.1273 1.39115L35.0204 10.2026C35.0204 10.2026 53.3914 13.2774 40.895 17.0477C28.3987 20.8181 -5.66444e-06 15.0536 -5.66444e-06 15.0536C-5.66444e-06 15.0536 2.15774 2.28158 4.45469 0.588854C6.75165 -1.10388 21.1273 1.39115 21.1273 1.39115Z" transform="translate(137.751 299.163)" fill="#F37291"/>
<path d="M23.7131 29.9959C47.1467 31.2434 54.8449 34.8329 54.8449 34.8329C54.8449 34.8329 52.6222 75.5604 55.773 81.4873C59.1372 87.7759 52.7661 99.0639 52.7661 99.0639L74.5013 98.0204C74.5013 98.0204 74.5013 97.3155 74.5013 96.0541C74.4363 85.6751 74.2785 37.481 76.4363 31.0208C76.9923 29.1545 77.0228 27.1712 76.5245 25.2887C75.7518 22.0875 74.0446 19.188 71.6196 16.9585C69.1947 14.729 66.1614 13.2702 62.9051 12.7672C56.5526 11.7376 47.3694 10.0356 40.0655 7.83274L39.7082 7.72144C27.4717 4.01135 20.683 0.0554633 20.683 0.0554633C20.683 0.0554633 6.20985 -0.946259 2.58577 5.56495C2.12173 6.409 0.121758 8.06925 0.0382328 9.40952C-0.504683 18.3787 4.60431 34.0167 23.7131 29.9959Z" transform="translate(86.7015 205.98)" fill="#96A2D0"/>
<path d="M-1.13289e-06 3.21089L0.412993 11.8183C0.412993 11.8183 2.32479 11.7673 5.17394 11.5957C14.8954 11.016 35.5448 9.09602 28.5286 3.34074C22.4962 -1.6076 11.8699 -0.0308159 5.4338 1.57844C3.07188 2.17205 1.25753 2.76567 0.468675 3.04857C0.162414 3.15059 -1.13289e-06 3.21089 -1.13289e-06 3.21089Z" transform="translate(144.832 194.75)" fill="#F8B9BF"/>
<path d="M0 21.2774C0 21.2774 2.78419 23.675 6.23658 26.3277C10.088 27.3758 14.5891 28.308 17.8049 28.9248C16.8072 25.1451 17.6935 21.0408 19.1645 17.4281C20.7608 13.6702 22.879 10.1559 25.4567 6.98889L6.10665 1.69834e-06C7.47554 3.96516 6.57068 8.39408 5.0997 12.183C3.80118 15.4225 2.08693 18.4795 0 21.2774Z" transform="translate(89.7002 118.106)" fill="#F8B9BF"/>
<path opacity="0.1" d="M-1.13289e-06 4.06254L0.296985 10.2445C0.296985 10.2445 2.20878 10.1935 5.05793 10.0219L5.31779 3.39669e-06C2.95587 0.593618 1.14152 1.18722 0.352667 1.47012L-1.13289e-06 4.06254Z" transform="translate(144.948 196.324)" fill="black"/>
<path d="M-2.26578e-06 10.9865L5.92568 10.7036L6.20409 -6.79338e-06L1.46169 0.227246L-2.26578e-06 10.9865Z" transform="translate(143.676 195.874)" fill="#D9DFE8"/>
<path d="M6.341 81.0641C18.8698 94.0819 42.2338 78.6108 48.5168 74.0289C49.5376 73.2822 50.1084 72.8231 50.1084 72.8231C47.7882 70.4625 44.076 68.2782 42.6514 62.3653C41.2923 56.3303 40.3711 50.2051 39.8951 44.0374C39.5099 39.1447 44.5679 29.8278 43.1062 25.1809C41.6445 20.534 35.626 19.0082 33.097 14.8019C32.4335 13.7074 31.7745 12.6779 31.1249 11.7782C26.4567 5.28551 18.3223 0.912246 18.3223 0.912246C0.990728 -5.00071 -0.368886 19.7363 0.0626632 20.5062C0.494212 21.276 -1.4872 48.5452 6.341 81.0641Z" transform="translate(80.821 136.83)" fill="#6C63FF"/>
<path opacity="0.1" d="M2.3991 28.1914C2.3991 28.1914 12.4639 56.2119 16.9047 57.9788C19.4476 58.9898 33.3175 57.9 44.7048 56.7823C45.7257 56.0356 46.2964 55.5765 46.2964 55.5765C43.9763 53.216 42.0877 48.3511 40.6677 42.4428L26.0554 42.4938C26.0554 42.4938 27.2387 34.1461 25.9301 15.1829C24.6215 -3.78031 12.5428 0.388906 12.5428 0.388906C-7.37804 6.09781 2.3991 28.1914 2.3991 28.1914Z" transform="translate(84.633 154.076)" fill="black"/>
<path opacity="0.1" d="M-2.26578e-06 10.8659L2.55681 10.7454L3.71225 -2.26446e-06L1.46169 0.106668L-2.26578e-06 10.8659Z" transform="translate(143.676 195.995)" fill="black"/>
<path d="M12.5422 0.38351C12.5422 0.38351 24.607 -3.75788 25.9295 15.1775C27.252 34.1129 26.0687 42.4884 26.0687 42.4884L61.7155 42.3586L60.3466 55.0934C60.3466 55.0934 21.368 59.7311 16.9133 57.9734C12.4587 56.2158 2.40311 28.1907 2.40311 28.1907C2.40311 28.1907 -7.3833 6.09241 12.5422 0.38351Z" transform="translate(84.977 152.876)" fill="#6C63FF"/>
<path opacity="0.1" d="M3.24822 5.56514C3.89322 2.78257 0.928063 2.69445 1.41611e-06 0L19.3594 6.95642C17.9173 8.72327 16.6171 10.6011 15.4708 12.5726C14.4397 12.8293 13.386 12.9846 12.3247 13.0363C7.61938 13.2682 6.36187 8.61669 3.24822 5.56514Z" transform="translate(94.7118 119.771)" fill="black"/>
<path d="M16.2225 32.4262C25.1819 32.4262 32.445 25.1674 32.445 16.2131C32.445 7.25887 25.1819 3.11364e-06 16.2225 3.11364e-06C7.26306 3.11364e-06 0 7.25887 0 16.2131C0 25.1674 7.26306 32.4262 16.2225 32.4262Z" transform="translate(90.3801 99.572) rotate(-2.75159)" fill="#F8B9BF"/>
<path opacity="0.1" d="M0 6.79338e-06C0 6.79338e-06 5.13218 24.2965 11.1924 26.7776C17.2527 29.2587 14.5056 29.7874 14.5056 29.7874" transform="translate(98.9808 165.285)" fill="black"/>
<path opacity="0.1" d="M9.28061 5.06428C9.28061 5.06428 4.99297 6.40454 -6.23088e-06 -1.13223e-06L9.28061 5.06428Z" transform="translate(110.851 173.943)" fill="black"/>
<path d="M7.4245 14.8404C11.5249 14.8404 14.849 11.5182 14.849 7.42018C14.849 3.32213 11.5249 -2.54752e-06 7.4245 -2.54752e-06C3.32406 -2.54752e-06 0 3.32213 0 7.42018C0 11.5182 3.32406 14.8404 7.4245 14.8404Z" transform="translate(80.4196 84.989)" fill="#FA595F"/>
<path d="M2.6925 10.1517C1.40188 8.77634 0.683607 6.96147 0.683607 5.07587C0.683607 3.19027 1.40188 1.3754 2.6925 -1.13223e-06C2.57185 0.0973888 2.45121 0.194783 2.33984 0.301448C0.904859 1.6495 0.0644709 3.51205 0.00355505 5.47935C-0.0573608 7.44666 0.666187 9.35758 2.01502 10.7917C3.36385 12.2259 5.22748 13.0658 7.19594 13.1267C9.16439 13.1875 11.0764 12.4644 12.5114 11.1164C12.6274 11.0097 12.7295 10.8938 12.8316 10.7825C11.3778 11.9847 9.52051 12.5886 7.63721 12.4714C5.75391 12.3543 3.9859 11.5249 2.6925 10.1517Z" transform="translate(79.9359 86.1763)" fill="#FA595F"/>
<path d="M7.81428 7.42018C5.92996 7.5336 4.07317 6.92541 2.62157 5.71931C1.16996 4.51322 0.232551 2.79979 -1.13289e-06 0.927525C-1.13289e-06 1.08057 -1.13289e-06 1.23361 -1.13289e-06 1.39129C0.123068 3.35555 1.02185 5.19051 2.49863 6.49248C3.22985 7.13715 4.08097 7.63157 5.00338 7.9475C5.92579 8.26343 6.90143 8.3947 7.8746 8.33379C8.84777 8.27289 9.79942 8.02102 10.6752 7.59255C11.551 7.16409 12.3337 6.56742 12.9788 5.83662C13.6238 5.10582 14.1185 4.2552 14.4346 3.33332C14.7507 2.41145 14.8821 1.43637 14.8211 0.463764C14.8211 0.306085 14.7887 0.157681 14.7701 2.54752e-06C14.7739 1.88943 14.0563 3.70912 12.7638 5.08796C11.4712 6.4668 9.70104 7.30092 7.81428 7.42018Z" transform="translate(79.0554 91.709)" fill="#FA595F"/>
<path opacity="0.1" d="M25.9265 4.09806C27.6573 4.95138 29.6387 5.18789 31.4948 5.72586C33.351 6.26382 35.2442 7.24699 36.0609 9.00001C36.6595 10.2893 36.5899 11.815 37.2163 13.0904C38.1166 14.9454 40.1954 15.7988 42.1072 16.5269C40.4646 18.7297 36.9379 18.1315 34.6363 16.6335C32.3347 15.1356 30.3533 12.9234 27.6759 12.3437C26.3549 12.0834 24.9857 12.2372 23.7555 12.7843C22.5254 13.3313 21.4944 14.2449 20.8036 15.3999C20.0704 16.6845 19.8105 18.1825 19.4486 19.6109C18.5205 23.3766 16.6644 27.1238 13.4162 29.2618C10.168 31.3997 5.32814 31.3858 2.78061 28.4594C1.29571 26.7528 0.799199 24.4294 0.35837 22.2126C0.107339 21.179 -0.0127047 20.1179 0.00106376 19.0544C0.149554 16.3924 1.92215 14.1246 3.71331 12.149C5.82465 9.83015 8.07056 7.60409 10.3165 5.39195C12.2561 3.48125 14.4927 0.2442 17.4161 0.0169565C20.785 -0.252025 23.1655 2.74851 25.9265 4.09806Z" transform="translate(87.4161 94.7621)" fill="black"/>
<path d="M25.9265 4.09806C27.6573 4.95138 29.6387 5.18789 31.4948 5.72586C33.351 6.26382 35.2442 7.24699 36.0609 9.00001C36.6595 10.2893 36.5899 11.815 37.2163 13.0904C38.1166 14.9454 40.1954 15.7988 42.1072 16.5269C40.4646 18.7297 36.9379 18.1315 34.6363 16.6335C32.3347 15.1356 30.3533 12.9234 27.6759 12.3437C26.3549 12.0834 24.9857 12.2372 23.7555 12.7843C22.5254 13.3313 21.4944 14.2449 20.8036 15.3999C20.0704 16.6845 19.8105 18.1825 19.4486 19.6109C18.5205 23.3766 16.6644 27.1238 13.4162 29.2618C10.168 31.3997 5.32814 31.3858 2.78061 28.4594C1.29571 26.7528 0.799199 24.4294 0.35837 22.2126C0.107339 21.179 -0.0127047 20.1179 0.00106376 19.0544C0.149554 16.3924 1.92215 14.1246 3.71331 12.149C5.82465 9.83015 8.07056 7.60409 10.3165 5.39195C12.2561 3.48125 14.4927 0.2442 17.4161 0.0169565C20.785 -0.252025 23.1655 2.74851 25.9265 4.09806Z" transform="translate(86.9521 94.2983)" fill="#FA595F"/>
<path d="M48.9692 4.52892e-06H3.94426C1.76591 4.52892e-06 0 1.76489 0 3.94198V4.22951C0 6.4066 1.76591 8.17148 3.94426 8.17148H48.9692C51.1475 8.17148 52.9134 6.4066 52.9134 4.22951V3.94198C52.9134 1.76489 51.1475 4.52892e-06 48.9692 4.52892e-06Z" transform="translate(65.7006 201.393)" fill="#D6D6E3"/>
<path opacity="0.1" d="M-5.66444e-07 0V0.644635C-5.66444e-07 1.53636 0.354443 2.39156 0.985357 3.02211C1.61627 3.65265 2.47198 4.00691 3.36422 4.00691H49.5492C50.4415 4.00691 51.2972 3.65265 51.9281 3.02211C52.559 2.39156 52.9134 1.53636 52.9134 0.644635V0H-5.66444e-07Z" transform="translate(65.7006 205.567)" fill="black"/>
<path d="M9.09965 2.26446e-06H6.79733e-06V115.862H9.09965V2.26446e-06Z" transform="translate(158.883 209.912)" fill="#D6D6E3"/>
<path opacity="0.1" d="M9.09965 2.26446e-06H6.79733e-06V7.51293H9.09965V2.26446e-06Z" transform="translate(158.883 209.912)" fill="black"/>
<path d="M240.563 0H4.53155e-06V15.0259H240.563V0Z" transform="translate(154.53 201.606)" fill="#D6D6E3"/>
<defs>
<linearGradient id="paint0_linear" x2="1" gradientUnits="userSpaceOnUse" gradientTransform="matrix(540.537 270.276 -540.537 3567.94 261.874 -1745.23)">
<stop stop-color="#0075FF"/>
<stop offset="1" stop-color="#FF005C"/>
</linearGradient>
<linearGradient id="paint1_linear" x2="1" gradientUnits="userSpaceOnUse" gradientTransform="translate(-63.8914 225.616) scale(239.853 239.714) rotate(-84.8572)">
<stop stop-color="#808080" stop-opacity="0.25"/>
<stop offset="0.54" stop-color="#808080" stop-opacity="0.12"/>
<stop offset="1" stop-color="#808080" stop-opacity="0.1"/>
</linearGradient>
<linearGradient id="paint2_linear" x2="1" gradientUnits="userSpaceOnUse" gradientTransform="translate(8345.7 168046) scale(57821.8 121313) rotate(-90)">
<stop stop-color="#808080" stop-opacity="0.25"/>
<stop offset="0.54" stop-color="#808080" stop-opacity="0.12"/>
<stop offset="1" stop-color="#808080" stop-opacity="0.1"/>
</linearGradient>
</defs>
</svg>
