<svg width="526" height="362" viewBox="0 0 526 362" fill="none" xmlns="http://www.w3.org/2000/svg">
<path opacity="0.1" d="M488.902 204.7C471.289 227.106 478.145 259.845 489.323 286.061C493.064 294.84 497.311 304.124 495.73 313.54C493.798 325.052 483.528 333.466 472.748 337.93C453.105 346.063 429.58 344.126 411.523 332.885C395.921 323.17 384.743 307.376 368.874 298.106C342.296 282.584 308.51 288.443 279.672 299.131C259.267 306.693 236.963 316.525 216.689 308.621C202.424 303.062 192.561 289.528 187.187 275.185C184.591 268.259 182.711 260.762 177.758 255.273C174.812 251.997 170.972 249.695 167.034 247.739C131.083 229.905 85.6566 239.456 50.753 219.661C27.1675 206.3 12.0706 181.096 5.3873 154.819C-1.29596 128.543 -0.519592 101.003 1.17812 73.9173C2.38475 54.6839 4.55014 34.1401 16.8316 19.3056C29.824 3.60062 52.1234 -2.22089 72.276 0.746022C92.4287 3.71293 110.701 14.3685 126.771 26.896C146.858 42.5542 165.486 62.0543 190.147 68.4C206.942 72.7193 224.611 70.3561 241.93 69.5371C270.889 68.1707 299.858 71.2124 328.653 74.5444C356.223 77.7312 383.99 81.241 410.255 90.2166C428.841 96.5669 443.742 108.093 461.294 116.147C472.734 121.397 485.207 122.843 496.039 129.53C509.382 137.767 521.612 152.091 518.193 168.84C514.943 184.811 498.251 192.804 488.902 204.7Z" transform="translate(7.22626)" fill="url(#paint0_linear)"/>
<path opacity="0.5" d="M30.8358 5.12111C29.2364 6.72156 28.8716 8.92099 28.3057 10.9613C26.6828 16.7828 22.8665 22.1551 17.5488 26.1001C13.653 28.9921 8.42424 32.1836 9.35026 36.5029C9.57008 37.5325 10.1547 38.4965 10.2856 39.5354C10.9498 44.0325 4.07942 46.4004 1.39957 50.336C-0.583429 53.2655 -0.050253 56.8876 0.534357 60.2382C1.2546 64.3236 2.12918 68.685 5.47782 71.694C6.38046 72.5036 7.4608 73.2103 8.09218 74.1883C9.49524 76.3831 8.27926 79.2564 9.56073 81.5073C11.2725 84.507 16.6696 84.638 19.8031 82.6164C22.9366 80.5948 24.3818 77.2675 25.7708 74.1509C29.5123 65.7275 34.1331 57.2713 41.9294 51.1316C49.4124 45.2492 60.2768 40.6819 61.5723 32.1181C62.1242 28.4446 60.7305 24.4201 62.8584 21.1864C63.864 19.6562 65.543 18.5237 66.6841 17.0636C70.0749 12.7115 67.5493 6.41738 62.5872 3.32412C55.1089 -1.33682 37.3554 -1.4117 30.8358 5.12111Z" transform="translate(261.006 195.611)" fill="#DEE3F3"/>
<path opacity="0.5" d="M72.5056 24.3717C112.549 24.3717 145.011 18.9159 145.011 12.1858C145.011 5.45579 112.549 -5.71248e-06 72.5056 -5.71248e-06C32.4619 -5.71248e-06 7.99271e-06 5.45579 7.99271e-06 12.1858C7.99271e-06 18.9159 32.4619 24.3717 72.5056 24.3717Z" transform="translate(309.764 170.726)" fill="#DEE3F3"/>
<path d="M42.0872 3.91688H47.4703V0.580275V5.71248e-07H3.42814V0.580275V3.91688H8.81123V7.83376H7.99271e-06V12.7287H50.8985V7.83376H42.0872V3.91688Z" transform="translate(351.622 131.847)" fill="url(#paint1_linear)"/>
<path d="M108.43 115.608C108.809 111.039 108.715 106.442 108.149 101.892C107.688 98.0371 106.627 94.2777 105.006 90.7501C102.172 84.8069 98.1359 81.5779 94.5955 79.8277C92.2232 78.6249 89.631 77.9179 86.9769 77.7499C86.8559 76.9379 86.4475 76.1964 85.826 75.6604C85.2045 75.1244 84.4113 74.8295 83.5908 74.8295C82.7703 74.8295 81.9771 75.1244 81.3556 75.6604C80.7341 76.1964 80.3257 76.9379 80.2047 77.7499V68.9288H61.6048V64.0338H86.6448C87.3965 64.0338 88.1174 63.7351 88.6489 63.2032C89.1804 62.6714 89.479 61.9501 89.479 61.198V35.53C89.479 34.7779 89.1804 34.0566 88.6489 33.5247C88.1174 32.9929 87.3965 32.6941 86.6448 32.6941H77.1507V7.39585C77.8201 7.09322 78.388 6.60374 78.7862 5.98616C79.1844 5.36857 79.396 4.64913 79.3956 3.91417C79.3956 3.87674 79.3956 3.8393 79.3956 3.80186C79.3956 3.76442 79.3956 3.72698 79.3956 3.68955C79.361 2.69931 78.9435 1.76121 78.2311 1.07294C77.5188 0.384669 76.5672 9.46241e-07 75.577 9.46241e-07C74.5867 9.46241e-07 73.6351 0.384669 72.9228 1.07294C72.2104 1.76121 71.7929 2.69931 71.7583 3.68955C71.7583 3.72698 71.7583 3.76442 71.7583 3.80186C71.7583 3.8393 71.7583 3.87674 71.7583 3.91417C71.7574 4.60707 71.945 5.28713 72.3009 5.8815C72.6568 6.47587 73.1677 6.96214 73.7787 7.28821V32.6941H38.5057V7.28821C39.1167 6.96214 39.6275 6.47587 39.9834 5.8815C40.3394 5.28713 40.5269 4.60707 40.5261 3.91417C40.5261 3.87674 40.5261 3.8393 40.5261 3.80186C40.5261 3.76442 40.5261 3.72698 40.5261 3.68955C40.4915 2.69931 40.074 1.76121 39.3616 1.07294C38.6493 0.384669 37.6977 9.46241e-07 36.7074 9.46241e-07C35.7172 9.46241e-07 34.7656 0.384669 34.0532 1.07294C33.3409 1.76121 32.9234 2.69931 32.8887 3.68955C32.8887 3.72698 32.8887 3.76442 32.8887 3.80186C32.8887 3.8393 32.8887 3.87674 32.8887 3.91417C32.8884 4.64913 33.1 5.36857 33.4982 5.98616C33.8964 6.60374 34.4643 7.09322 35.1336 7.39585V32.6941H24.8024C24.0508 32.6941 23.3299 32.9929 22.7983 33.5247C22.2668 34.0566 21.9682 34.7779 21.9682 35.53V61.1933C21.9682 61.9454 22.2668 62.6667 22.7983 63.1986C23.3299 63.7304 24.0508 64.0292 24.8024 64.0292H49.8611V68.9241H31.2659V76.1401C31.1094 75.6822 30.8575 75.2627 30.5269 74.9094L30.4474 74.8252C29.9686 74.3453 29.3583 74.0185 28.6937 73.886C28.0291 73.7535 27.3402 73.8214 26.7142 74.0809C26.0882 74.3405 25.5532 74.7802 25.1771 75.3442C24.801 75.9082 24.6006 76.5712 24.6013 77.2492V77.7172C21.9085 77.8616 19.2761 78.5711 16.8751 79.7996C13.33 81.5545 9.29857 84.7835 6.46438 90.7313C4.84416 94.2561 3.78379 98.0123 3.32153 101.864C2.75531 106.414 2.66125 111.011 3.0409 115.58C-4.81158 122.104 5.02389 131.58 5.02389 131.58C13.0822 131.58 12.8998 118.196 12.8109 115.913H12.853C12.853 115.913 12.853 115.8 12.7969 115.59C12.215 111.851 12.0581 108.058 12.3292 104.284C12.5141 101.31 13.1578 98.3838 14.2373 95.6076C15.0831 93.4443 16.407 91.5006 18.1098 89.9218C19.9456 88.292 22.1979 87.2049 24.6153 86.7817V88.9858C24.6139 89.7979 24.9009 90.5841 25.4251 91.2041C25.9493 91.8241 26.6766 92.2376 27.4772 92.3708C28.2778 92.5041 29.0996 92.3483 29.7962 91.9315C30.4927 91.5146 31.0185 90.8637 31.2799 90.0949V108.084H80.2047V90.488C80.3043 91.1702 80.6075 91.8063 81.0746 92.3131L81.1682 92.4113C81.6469 92.8912 82.2573 93.218 82.9219 93.3505C83.5865 93.483 84.2754 93.4151 84.9014 93.1556C85.5274 92.896 86.0624 92.4564 86.4385 91.8923C86.8146 91.3283 87.015 90.6653 87.0143 89.9873V86.8332C89.3775 87.2706 91.5767 88.3449 93.3748 89.9405C95.0777 91.5193 96.4015 93.4631 97.2473 95.6263C98.3303 98.4082 98.9756 101.341 99.1601 104.321C99.4312 108.095 99.2743 111.888 98.6924 115.627C98.6597 115.838 98.6363 115.95 98.6363 115.95H98.6784C98.5895 118.234 98.4118 131.618 106.465 131.618C106.447 131.608 116.282 122.132 108.43 115.608Z" transform="translate(321.338 23.74)" fill="url(#paint2_linear)"/>
<path d="M0.982148 0.449255V4.89494H6.85163V11.7506V17.6236V26.4401V31.3351V34.2739H-1.37018e-05V41.1296H18.5999V34.2739H15.6629V31.3351V26.4401V17.6236V11.7506V4.89494H22.5145V0.449255V-3.42749e-06H0.982148V0.449255Z" transform="translate(353.09 144.58)" fill="url(#paint3_linear)"/>
<path d="M-1.02763e-05 0.449255V4.89494H8.81124V11.7506V17.6236V26.4401V31.3351V34.2739H1.9596V41.1296H20.5549V34.2739H17.6178V31.3351V26.4401V17.6236V11.7506V4.89494H21.5324V0.449255V-3.42749e-06H-1.02763e-05V0.449255Z" transform="translate(377.56 144.58)" fill="url(#paint4_linear)"/>
<path d="M59.6489 0H6.06592C2.71581 0 -4.56727e-06 2.71742 -4.56727e-06 6.06953V24.4232C-4.56727e-06 27.7753 2.71581 30.4927 6.06592 30.4927H59.6489C62.999 30.4927 65.7148 27.7753 65.7148 24.4232V6.06953C65.7148 2.71742 62.999 0 59.6489 0Z" transform="translate(344.214 57.7351)" fill="#6C63FF"/>
<path opacity="0.1" d="M55.2386 -2.57062e-06H0V0.570917H55.2386V-2.57062e-06Z" transform="translate(349.452 83.5481)" fill="black"/>
<path opacity="0.3" d="M55.2386 0H0V20.9649H55.2386V0Z" transform="translate(349.452 62.499)" fill="black"/>
<path opacity="0.1" d="M7.61863 15.2464C11.8263 15.2464 15.2373 11.8333 15.2373 7.62317C15.2373 3.41301 11.8263 0 7.61863 0C3.41098 0 6.8509e-06 3.41301 6.8509e-06 7.62317C6.8509e-06 11.8333 3.41098 15.2464 7.61863 15.2464Z" transform="translate(354.69 65.7981)" fill="black"/>
<path d="M7.61863 15.2464C11.8263 15.2464 15.2373 11.8333 15.2373 7.62317C15.2373 3.41301 11.8263 0 7.61863 0C3.41098 0 6.8509e-06 3.41301 6.8509e-06 7.62317C6.8509e-06 11.8333 3.41098 15.2464 7.61863 15.2464Z" transform="translate(354.69 65.3582)" fill="#DEE3F3"/>
<path opacity="0.1" d="M7.61863 15.2464C11.8263 15.2464 15.2373 11.8333 15.2373 7.62317C15.2373 3.41301 11.8263 0 7.61863 0C3.41098 0 9.13453e-06 3.41301 9.13453e-06 7.62317C9.13453e-06 11.8333 3.41098 15.2464 7.61863 15.2464Z" transform="translate(384.215 65.7981)" fill="black"/>
<path d="M7.61863 15.2464C11.8263 15.2464 15.2373 11.8333 15.2373 7.62317C15.2373 3.41301 11.8263 0 7.61863 0C3.41098 0 9.13453e-06 3.41301 9.13453e-06 7.62317C9.13453e-06 11.8333 3.41098 15.2464 7.61863 15.2464Z" transform="translate(384.215 65.3582)" fill="#DEE3F3"/>
<path d="M11.4256 -2.57062e-06H1.37018e-05V6.67321H11.4256V-2.57062e-06Z" transform="translate(371.358 88.2278)" fill="#6C63FF"/>
<path d="M47.62 0H1.256e-05V38.1159H47.62V0Z" transform="translate(353.263 92.9963)" fill="#6C63FF"/>
<path d="M42.8542 -2.85624e-06V3.80925H37.6161V7.62318H5.23811V3.80925H-3.42545e-06V-2.85624e-06H42.8542Z" transform="translate(355.644 131.112)" fill="#6C63FF"/>
<path opacity="0.3" d="M42.8542 -2.85624e-06V3.80925H37.6161V7.62318H5.23811V3.80925H-3.42545e-06V-2.85624e-06H42.8542Z" transform="translate(355.644 131.112)" fill="black"/>
<path d="M49.5235 0H-5.70908e-06V4.7639H49.5235V0Z" transform="translate(352.309 138.735)" fill="#6C63FF"/>
<path d="M20.9524 -2.28499e-06H6.8509e-06V4.76389H20.9524V-2.28499e-06Z" transform="translate(354.69 143.499)" fill="#6C63FF"/>
<path d="M20.9524 -2.28499e-06H9.13453e-06V4.76389H20.9524V-2.28499e-06Z" transform="translate(377.55 143.499)" fill="#6C63FF"/>
<path d="M18.0948 6.85498e-06H-6.8509e-06V6.66853H18.0948V6.85498e-06Z" transform="translate(353.74 176.851)" fill="#6C63FF"/>
<path d="M-6.8509e-06 6.6732V12.3871V20.9649V25.7288V28.5881H8.57272V25.7288V20.9649V12.3871V6.6732V-5.71248e-06H-6.8509e-06V6.6732Z" transform="translate(360.405 148.263)" fill="#6C63FF"/>
<path d="M1.256e-05 -5.71248e-06V6.6732V12.3871V20.9649V25.7288V28.5881H8.57271V25.7288V20.9649V12.3871V6.6732V-5.71248e-06H1.256e-05Z" transform="translate(386.118 148.263)" fill="#6C63FF"/>
<path d="M18.0949 6.85498e-06H1.256e-05V6.66853H18.0949V6.85498e-06Z" transform="translate(379.454 176.851)" fill="#6C63FF"/>
<path d="M6.65521 3.31829V14.7507C6.65521 14.8349 6.65521 14.9239 6.65521 15.0081C6.57777 15.8594 6.17674 16.6485 5.53486 17.2126C4.89297 17.7767 4.0592 18.0728 3.20552 18.0398C2.35185 18.0068 1.54341 17.6472 0.946953 17.0352C0.3505 16.4232 0.0115229 15.6055 -1.256e-05 14.7507V3.31829C0.00267894 2.66015 0.200107 2.01757 0.567356 1.47157C0.934605 0.925572 1.45524 0.500625 2.06356 0.250341C2.67189 5.70412e-05 3.34068 -0.0643538 3.98555 0.065228C4.63043 0.19481 5.2225 0.512575 5.68709 0.978454L5.76659 1.05801C6.2845 1.61079 6.59804 2.32408 6.65521 3.07962C6.65053 3.14513 6.65521 3.23405 6.65521 3.31829Z" transform="translate(346.791 97.7739)" fill="#6C63FF"/>
<path d="M6.66455 3.21166V14.6488C6.66186 15.3069 6.46443 15.9495 6.09718 16.4955C5.72994 17.0415 5.20931 17.4664 4.60098 17.7167C3.99265 17.967 3.32389 18.0314 2.67901 17.9018C2.03414 17.7723 1.44207 17.4545 0.977481 16.9886L0.883937 16.8903C0.315366 16.2752 -0.000307051 15.468 2.2412e-07 14.63V3.21166C0.0323058 2.34898 0.397508 1.5324 1.0189 0.933497C1.64029 0.334596 2.4695 6.32841e-06 3.33228 6.32841e-06C4.19505 6.32841e-06 5.02426 0.334596 5.64565 0.933497C6.26705 1.5324 6.63225 2.34898 6.66455 3.21166Z" transform="translate(400.851 98.8303)" fill="#6C63FF"/>
<path d="M21.1991 6.85498e-06V8.81181C18.846 9.22336 16.6535 10.2814 14.8666 11.8676C13.209 13.4031 11.9203 15.2942 11.097 17.399C10.0434 20.0936 9.41239 22.9349 9.22629 25.8224C8.95722 29.605 9.13458 33.4061 9.75475 37.1472H0.246676C-0.150804 32.5947 -0.0677355 28.013 0.494536 23.4779C0.944425 19.7295 1.97643 16.0743 3.55323 12.6445C6.31259 6.85571 10.2365 3.71097 13.6833 2.00757C16.0203 0.818841 18.5809 0.134874 21.1991 6.85498e-06Z" transform="translate(325.577 101.569)" fill="#6C63FF"/>
<path d="M4.88688 15.5693C4.88688 15.5693 -4.68202 6.3503 2.96 -2.28499e-06H12.4494C12.4494 -2.28499e-06 13.4596 15.5693 4.88688 15.5693Z" transform="translate(322.841 138.412)" fill="#6C63FF"/>
<path opacity="0.3" d="M4.88688 15.5693C4.88688 15.5693 -4.68202 6.3503 2.96 -2.28499e-06H12.4494C12.4494 -2.28499e-06 13.4596 15.5693 4.88688 15.5693Z" transform="translate(322.841 138.412)" fill="black"/>
<path opacity="0.3" d="M32.378 0H2.28363e-06V24.7742H32.378V0Z" transform="translate(360.882 98.7102)" fill="black"/>
<path opacity="0.3" d="M8.57272 -5.71248e-06H-6.8509e-06V6.66852H8.57272V-5.71248e-06Z" transform="translate(360.405 148.263)" fill="black"/>
<path opacity="0.3" d="M8.57272 -5.14124e-06H-6.8509e-06V8.57783H8.57272V-5.14124e-06Z" transform="translate(360.405 160.65)" fill="black"/>
<path opacity="0.3" d="M8.57272 0H-6.8509e-06V2.85928H8.57272V0Z" transform="translate(360.405 173.992)" fill="black"/>
<path opacity="0.3" d="M8.57271 -5.71248e-06H1.256e-05V6.66852H8.57271V-5.71248e-06Z" transform="translate(386.118 148.263)" fill="black"/>
<path opacity="0.3" d="M8.57271 -5.14124e-06H1.256e-05V8.57783H8.57271V-5.14124e-06Z" transform="translate(386.118 160.65)" fill="black"/>
<path opacity="0.3" d="M8.57271 0H1.256e-05V2.85928H8.57271V0Z" transform="translate(386.118 173.992)" fill="black"/>
<path opacity="0.3" d="M7.51575 6.85498e-06V8.81181C5.16263 9.22336 2.97018 10.2814 1.18326 11.8676L-1.14182e-06 2.04033C2.33447 0.840231 4.8952 0.145066 7.51575 6.85498e-06Z" transform="translate(339.261 101.569)" fill="black"/>
<path opacity="0.3" d="M10.6165 4.74986C9.56288 7.44444 8.93185 10.2858 8.74575 13.1733L1.256e-05 10.8334C0.449902 7.08502 1.48188 3.42987 3.05868 6.28373e-06L10.6165 4.74986Z" transform="translate(326.063 114.219)" fill="black"/>
<path d="M-3.42545e-06 6.85498e-06V8.81181C2.35312 9.22336 4.54556 10.2814 6.33248 11.8676C7.99009 13.4031 9.27884 15.2942 10.1021 17.399C11.1557 20.0936 11.7867 22.9349 11.9728 25.8224C12.2419 29.605 12.0645 33.4061 11.4443 37.1472H20.9665C21.3657 32.6012 21.2858 28.0258 20.7279 23.4966C20.278 19.7482 19.2461 16.093 17.6693 12.6632C14.9099 6.87444 10.986 3.72969 7.53912 2.0263C5.19645 0.827902 2.62749 0.137446 -3.42545e-06 6.85498e-06Z" transform="translate(407.366 101.569)" fill="#6C63FF"/>
<path d="M7.59925 15.5693C7.59925 15.5693 17.1682 6.3503 9.52615 -2.28499e-06H0.036744C0.036744 -2.28499e-06 -0.97347 15.5693 7.59925 15.5693Z" transform="translate(418.815 138.412)" fill="#6C63FF"/>
<path opacity="0.3" d="M7.59925 15.5693C7.59925 15.5693 17.1682 6.3503 9.52615 -2.28499e-06H0.036744C0.036744 -2.28499e-06 -0.97347 15.5693 7.59925 15.5693Z" transform="translate(418.815 138.412)" fill="black"/>
<path opacity="0.3" d="M-3.42545e-06 6.85498e-06V8.81181C2.35312 9.22336 4.54556 10.2814 6.33248 11.8676L7.51574 2.04033C5.18127 0.840231 2.62055 0.145066 -3.42545e-06 6.85498e-06Z" transform="translate(407.366 101.569)" fill="black"/>
<path opacity="0.3" d="M1.37018e-05 4.74986C1.05364 7.44444 1.68467 10.2858 1.87077 13.1733L10.6165 10.8334C10.1666 7.08502 9.13464 3.42987 7.55784 6.28373e-06L1.37018e-05 4.74986Z" transform="translate(417.468 114.219)" fill="black"/>
<path opacity="0.1" d="M11.4256 -2.57062e-06H1.37018e-05V0.790862H11.4256V-2.57062e-06Z" transform="translate(371.358 88.2278)" fill="black"/>
<path opacity="0.1" d="M0.883928 -6.28373e-06V15.9577C0.315356 15.3425 -0.000316185 14.5353 -8.91041e-06 13.6974V2.2556C-6.15055e-05 1.41912 0.315657 0.613488 0.883928 -6.28373e-06Z" transform="translate(400.841 99.7864)" fill="black"/>
<path opacity="0.1" d="M0.8886 2.02162V13.9688C0.831438 14.7243 0.517923 15.4376 1.02763e-05 15.9904V0C0.517923 0.552776 0.831438 1.26608 0.8886 2.02162Z" transform="translate(352.543 98.8132)" fill="black"/>
<path opacity="0.1" d="M42.8542 -2.85624e-06H-3.42545e-06V0.566233H42.8542V-2.85624e-06Z" transform="translate(355.644 131.112)" fill="black"/>
<path opacity="0.1" d="M20.9524 -2.28499e-06H6.8509e-06V0.435203H20.9524V-2.28499e-06Z" transform="translate(354.69 143.499)" fill="black"/>
<path opacity="0.1" d="M20.9524 -2.28499e-06H9.13453e-06V0.435203H20.9524V-2.28499e-06Z" transform="translate(377.55 143.499)" fill="black"/>
<path d="M3.2785 0H6.8509e-06V28.2184H3.2785V0Z" transform="translate(357.028 29.5166)" fill="#6C63FF"/>
<path d="M3.27849 0H-1.02763e-05V28.2184H3.27849V0Z" transform="translate(394.63 29.5166)" fill="#6C63FF"/>
<path opacity="0.1" d="M3.71811 7.44067C5.77157 7.44067 7.43623 5.77502 7.43623 3.72033C7.43623 1.66565 5.77157 0 3.71811 0C1.66465 0 1.02763e-05 1.66565 1.02763e-05 3.72033C1.02763e-05 5.77502 1.66465 7.44067 3.71811 7.44067Z" transform="translate(354.84 26.0164)" fill="black"/>
<path d="M3.71811 7.44067C5.77157 7.44067 7.43623 5.77502 7.43623 3.72033C7.43623 1.66565 5.77157 0 3.71811 0C1.66465 0 1.02763e-05 1.66565 1.02763e-05 3.72033C1.02763e-05 5.77502 1.66465 7.44067 3.71811 7.44067Z" transform="translate(354.84 25.7964)" fill="#6C63FF"/>
<path opacity="0.1" d="M3.71813 7.44067C5.77159 7.44067 7.43623 5.77502 7.43623 3.72033C7.43623 1.66565 5.77159 0 3.71813 0C1.66467 0 7.99271e-06 1.66565 7.99271e-06 3.72033C7.99271e-06 5.77502 1.66467 7.44067 3.71813 7.44067Z" transform="translate(392.661 26.0164)" fill="black"/>
<path d="M3.71813 7.44067C5.77159 7.44067 7.43623 5.77502 7.43623 3.72033C7.43623 1.66565 5.77159 0 3.71813 0C1.66467 0 7.99271e-06 1.66565 7.99271e-06 3.72033C7.99271e-06 5.77502 1.66467 7.44067 3.71813 7.44067Z" transform="translate(392.661 25.7964)" fill="#6C63FF"/>
<path d="M1.72498 -2.85624e-06C1.72498 -2.85624e-06 12.6034 21.3627 3.74071 33.0525C-5.12197 44.7423 4.54515 76.5734 4.54515 76.5734" transform="translate(278.373 115.964)" stroke="#FC6681" stroke-width="2" stroke-miterlimit="10"/>
<path d="M6.04253 7.45939C6.04253 11.5775 3.02126 14.9141 3.02126 14.9141C3.02126 14.9141 1.37018e-05 11.5775 1.37018e-05 7.45939C1.37018e-05 3.34128 3.02594 0 3.02594 0C3.02594 0 6.04253 3.34128 6.04253 7.45939Z" transform="translate(277.278 101.855)" fill="#FC6681"/>
<path d="M5.49238 -2.85624e-06C5.49238 -2.85624e-06 -5.38604 21.3627 3.47664 33.0525C12.3393 44.7423 2.67223 76.5734 2.67223 76.5734" transform="translate(280.246 115.964)" stroke="#FFD037" stroke-width="2" stroke-miterlimit="10"/>
<path d="M-9.13453e-06 7.45939C-9.13453e-06 11.5775 3.02127 14.9141 3.02127 14.9141C3.02127 14.9141 6.04254 11.5775 6.04254 7.45939C6.04254 3.34128 3.02127 0 3.02127 0C3.02127 0 -9.13453e-06 3.34128 -9.13453e-06 7.45939Z" transform="translate(282.516 101.855)" fill="#FFD037"/>
<path d="M1.72499 -2.85624e-06C1.72499 -2.85624e-06 12.6034 21.3627 3.74073 33.0525C-5.12196 44.7423 4.54513 76.5734 4.54513 76.5734" transform="translate(288.443 115.964)" stroke="#FC6681" stroke-width="2" stroke-miterlimit="10"/>
<path d="M6.04253 7.45939C6.04253 11.5775 3.02125 14.9141 3.02125 14.9141C3.02125 14.9141 7.99271e-06 11.5775 7.99271e-06 7.45939C7.99271e-06 3.34128 3.01192 0 3.01192 0C3.01192 0 6.04253 3.34128 6.04253 7.45939Z" transform="translate(287.357 101.855)" fill="#FC6681"/>
<path d="M7.34269 7.48746C4.4898 10.4544 -1.256e-05 10.7632 -1.256e-05 10.7632C-1.256e-05 10.7632 0.135624 6.26139 2.98852 3.27576C5.84142 0.290134 10.3312 -5.14123e-06 10.3312 -5.14123e-06C10.3312 -5.14123e-06 10.1956 4.51587 7.34269 7.48746Z" transform="translate(284.354 118.945)" fill="#FC6681"/>
<path d="M7.3427 7.48747C4.4898 10.4544 -5.70908e-06 10.7632 -5.70908e-06 10.7632C-5.70908e-06 10.7632 0.135631 6.26139 2.98853 3.27577C5.84142 0.290139 10.3312 0 10.3312 0C10.3312 0 10.1816 4.52524 7.3427 7.48747Z" transform="translate(284.654 133.677)" fill="#FC6681"/>
<path d="M7.16537 3.65014C9.86393 6.76212 9.7704 11.2639 9.7704 11.2639C9.7704 11.2639 5.30398 10.7258 2.60542 7.61382C-0.0931421 4.50184 0.000391988 3.99874e-06 0.000391988 3.99874e-06C0.000391988 3.99874e-06 4.46681 0.53816 7.16537 3.65014Z" transform="translate(269.341 145.628)" fill="#FC6681"/>
<path d="M7.88053 1.69497C11.3134 3.96928 12.4218 8.33541 12.4218 8.33541C12.4218 8.33541 7.96941 9.00929 4.54126 6.73497C1.11311 4.46066 2.28363e-06 0.0945274 2.28363e-06 0.0945274C2.28363e-06 0.0945274 4.45238 -0.584032 7.88053 1.69497Z" transform="translate(271.128 116.155)" fill="#FC6681"/>
<path d="M5.49239 -2.85624e-06C5.49239 -2.85624e-06 -5.38603 21.3627 3.47666 33.0525C12.3393 44.7423 2.67222 76.5734 2.67222 76.5734" transform="translate(290.316 115.964)" stroke="#FFD037" stroke-width="2" stroke-miterlimit="10"/>
<path d="M4.56726e-06 7.45939C4.56726e-06 11.5775 3.02125 14.9141 3.02125 14.9141C3.02125 14.9141 6.04252 11.5775 6.04252 7.45939C6.04252 3.34128 3.02125 0 3.02125 0C3.02125 0 4.56726e-06 3.34128 4.56726e-06 7.45939Z" transform="translate(292.586 101.855)" fill="#FFD037"/>
<path d="M3.07738 3.19153C0.187073 6.12568 -1.02763e-05 10.6228 -1.02763e-05 10.6228C-1.02763e-05 10.6228 4.49449 10.3655 7.3848 7.43131C10.2751 4.49716 10.4622 -2.28499e-06 10.4622 -2.28499e-06C10.4622 -2.28499e-06 5.96302 0.262062 3.07738 3.19153Z" transform="translate(290.378 123.554)" fill="#FFD037"/>
<path d="M3.07738 3.18217C0.187066 6.11632 1.14182e-05 10.6135 1.14182e-05 10.6135C1.14182e-05 10.6135 4.49448 10.3561 7.38479 7.42194C10.2751 4.48779 10.4528 0 10.4528 0C10.4528 0 5.96769 0.248017 3.07738 3.18217Z" transform="translate(296.042 143.972)" fill="#FFD037"/>
<path d="M-1.256e-05 10.548C-1.256e-05 10.548 6.54763 0.219951 15.7377 6.28373e-06" transform="translate(290.785 132.118)" stroke="#FFD037" stroke-width="2" stroke-miterlimit="10"/>
<path d="M15.7377 10.548C15.7377 10.548 9.19006 0.219947 -6.8509e-06 2.85624e-06" transform="translate(269.949 125.885)" stroke="#FC6681" stroke-width="2" stroke-miterlimit="10"/>
<path d="M1.14182e-06 10.548C1.14182e-06 10.548 6.54764 0.219943 15.7377 -1.71374e-06" transform="translate(284.836 140.621)" stroke="#FFD037" stroke-width="2" stroke-miterlimit="10"/>
<path d="M1.69771 3.39743C2.63532 3.39743 3.39542 2.6369 3.39542 1.69873C3.39542 0.760549 2.63532 4.56999e-06 1.69771 4.56999e-06C0.760089 4.56999e-06 -2.28363e-06 0.760549 -2.28363e-06 1.69873C-2.28363e-06 2.6369 0.760089 3.39743 1.69771 3.39743Z" transform="translate(304.521 130.345)" fill="#FFD037"/>
<path d="M1.6977 3.39744C2.63531 3.39744 3.39541 2.63689 3.39541 1.69872C3.39541 0.76054 2.63531 -4.56999e-06 1.6977 -4.56999e-06C0.760079 -4.56999e-06 -1.256e-05 0.76054 -1.256e-05 1.69872C-1.256e-05 2.63689 0.760079 3.39744 1.6977 3.39744Z" transform="translate(268.411 124.252)" fill="#FC6681"/>
<path d="M15.7377 10.548C15.7377 10.548 9.19006 0.219937 -1.14182e-05 -6.85498e-06" transform="translate(273.92 144.023)" stroke="#FC6681" stroke-width="2" stroke-miterlimit="10"/>
<path d="M1.69772 3.39744C2.63533 3.39744 3.39543 2.6369 3.39543 1.69872C3.39543 0.760545 2.63533 0 1.69772 0C0.760098 0 6.8509e-06 0.760545 6.8509e-06 1.69872C6.8509e-06 2.6369 0.760098 3.39744 1.69772 3.39744Z" transform="translate(272.377 142.39)" fill="#FC6681"/>
<path d="M1.69771 3.39743C2.63533 3.39743 3.39542 2.63689 3.39542 1.69871C3.39542 0.760535 2.63533 5.14124e-06 1.69771 5.14124e-06C0.760091 5.14124e-06 0 0.760535 0 1.69871C0 2.63689 0.760091 3.39743 1.69771 3.39743Z" transform="translate(298.998 138.988)" fill="#FFD037"/>
<path d="M61.9547 15.5053C61.9547 15.5053 46.1796 12.3465 41.9704 8.13947C37.7612 3.93245 18.8292 -3.43802 16.7152 1.82661C14.6013 7.09123 -11.6828 24.9816 6.19693 28.1357C24.0766 31.2898 48.2888 32.3474 53.527 30.2415C58.7651 28.1357 61.9547 15.5053 61.9547 15.5053Z" transform="translate(263.884 164.636)" fill="#A8A8A8"/>
<path opacity="0.2" d="M6.19429 10.782C24.074 13.9407 48.2862 14.9937 53.5243 12.8878C57.5277 11.2827 60.3105 3.58462 61.4142 -1.1425e-06L61.938 0.107636C61.938 0.107636 58.7811 12.7427 53.5196 14.8392C48.2581 16.9357 24.0553 15.8921 6.18961 12.7334C1.04504 11.8208 -0.446886 9.68223 0.109663 6.9727C0.553966 8.74629 2.37328 10.1034 6.19429 10.782Z" transform="translate(263.9 180.033)" fill="black"/>
<path d="M10.3992 -3.99874e-06C10.3992 -3.99874e-06 14.1782 4.9464 8.65476 12.4151C3.13136 19.8839 -1.42391 26.1874 0.4141 30.8437C0.4141 30.8437 8.74828 16.9732 15.5344 16.7813C22.3206 16.5894 17.8635 8.32512 10.3992 -3.99874e-06Z" transform="translate(485.841 119.736)" fill="#FC6681"/>
<path opacity="0.1" d="M10.1862 -3.99874e-06C10.5154 0.477173 10.7753 0.9987 10.9579 1.54896C17.5757 9.33125 21.1067 16.5941 14.7415 16.7766C8.81589 16.9451 1.70241 27.5398 2.512e-05 30.2306C0.0557004 30.437 0.122808 30.6401 0.201099 30.839C0.201099 30.839 8.53528 16.9685 15.3214 16.7766C22.1076 16.5847 17.6505 8.32512 10.1862 -3.99874e-06Z" transform="translate(486.054 119.736)" fill="black"/>
<path d="M0.86989 1.1251C0.86989 2.86593 0.673493 4.2792 0.434973 4.2792C0.196452 4.2792 -2.28363e-06 2.87529 -2.28363e-06 1.1251C-2.28363e-06 -0.625097 0.243195 0.189165 0.467686 0.189165C0.692176 0.189165 0.86989 -0.597019 0.86989 1.1251Z" transform="translate(502.395 124.914)" fill="#FFD037"/>
<path d="M2.98271 1.1659C1.45337 1.99889 0.125145 2.50429 0.00822271 2.28902C-0.108699 2.07376 1.03712 1.23142 2.56646 0.417155C4.0958 -0.397106 3.50182 0.192532 3.60472 0.417155C3.70761 0.641779 4.51205 0.332924 2.98271 1.1659Z" transform="translate(502.695 126.951)" fill="#FFD037"/>
<path d="M8.48022 -3.99874e-06C8.48022 -3.99874e-06 4.70129 4.9464 10.2247 12.4151C15.7481 19.8839 20.3034 26.1874 18.4653 30.8437C18.4653 30.8437 10.1312 16.9732 3.34502 16.7813C-3.44113 16.5894 1.02528 8.32512 8.48022 -3.99874e-06Z" transform="translate(467.785 119.736)" fill="#FC6681"/>
<path opacity="0.1" d="M8.48022 -3.99874e-06C8.15102 0.477173 7.89119 0.9987 7.70853 1.54896C1.09074 9.33125 -2.44028 16.5941 3.92495 16.7766C9.85055 16.9451 16.9641 27.5398 18.6665 30.2306C18.6108 30.437 18.5436 30.6401 18.4653 30.839C18.4653 30.839 10.1312 16.9685 3.34502 16.7766C-3.44113 16.5847 1.02528 8.32512 8.48022 -3.99874e-06Z" transform="translate(467.785 119.736)" fill="black"/>
<path d="M0 1.1251C0 2.86593 0.196454 4.2792 0.434975 4.2792C0.673496 4.2792 0.869893 2.87529 0.869893 1.1251C0.869893 -0.625097 0.626695 0.189165 0.402205 0.189165C0.177715 0.189165 0 -0.597019 0 1.1251Z" transform="translate(469.25 124.914)" fill="#FFD037"/>
<path d="M0.923087 1.1659C2.45243 1.99889 3.78065 2.50429 3.89757 2.28902C4.0145 2.07376 2.86868 1.23142 1.33934 0.417155C-0.190004 -0.397106 0.403974 0.192532 0.301082 0.417155C0.198191 0.641779 -0.601576 0.332924 0.923087 1.1659Z" transform="translate(465.909 126.951)" fill="#FFD037"/>
<path d="M2.74036e-05 5.71595C2.74036e-05 5.71595 10.5697 5.38838 13.7547 3.11874C16.9396 0.8491 30.0116 -1.86043 30.8019 1.78035C31.5923 5.42113 46.7033 19.8813 34.7539 19.9796C22.8045 20.0778 7.02937 18.1077 3.84909 16.1844C0.668812 14.261 2.74036e-05 5.71595 2.74036e-05 5.71595Z" transform="translate(470.447 144.218)" fill="#A8A8A8"/>
<path opacity="0.2" d="M34.9643 13.0095C23.0336 13.1077 7.23981 11.1376 4.05953 9.21426C1.63691 7.74017 0.673445 2.44278 0.350741 -3.99874e-06H-2.512e-05C-2.512e-05 -3.99874e-06 0.668817 8.53103 3.84909 10.4684C7.02937 12.4058 22.8232 14.3619 34.7539 14.2636C38.1961 14.2355 39.3887 13.0095 39.3232 11.1938C38.8415 12.3028 37.5273 12.9908 34.9643 13.0095Z" transform="translate(470.452 149.92)" fill="black"/>
<path d="M34.6107 -3.1417e-06H-7.99314e-06V4.21147H34.6107V-3.1417e-06Z" transform="matrix(0.95445 -0.29837 0.298046 0.954551 390.216 54.6138)" fill="#6C63FF"/>
<path d="M71.1262 17.8013C71.1262 17.8013 53.0173 14.1792 48.1861 9.34512C43.3549 4.51103 21.6261 -3.94512 19.1895 2.09633C16.7528 8.13778 -13.4084 28.6721 7.11375 32.2989C27.6359 35.9256 55.4072 37.133 61.4451 34.7136C67.4829 32.2942 71.1262 17.8013 71.1262 17.8013Z" transform="translate(366.831 182.94)" fill="#A8A8A8"/>
<path opacity="0.2" d="M7.10838 12.3824C27.6352 16.0045 55.4018 17.2165 61.4397 14.7971C66.0371 12.958 69.2314 4.11811 70.4941 -5.71248e-07L71.0975 0.126345C71.0975 0.126345 67.4775 14.6333 61.4397 17.0387C55.4018 19.444 27.6352 18.246 7.10838 14.624C1.18278 13.5757 -0.510252 11.1189 0.125804 8.01159C0.635584 10.0426 2.69808 11.6056 7.10838 12.3824Z" transform="translate(366.855 200.61)" fill="black"/>
<path d="M85.3297 9.16124C85.0072 8.35715 84.4935 7.64393 83.8331 7.08347C78.9738 2.65183 71.112 3.9949 65.0788 1.29005C63.6758 0.667654 62.2727 -0.198084 60.7527 0.0405793C58.6435 0.372836 56.6838 2.7735 54.8458 1.70654L54.9768 2.10899L54.8458 2.03879L56.1974 6.1569C56.7166 7.73863 57.2638 9.36715 58.274 10.6821C56.7821 11.9842 55.6404 13.6397 54.953 15.4973C54.2657 17.3549 54.0548 19.3552 54.3395 21.3154C54.6242 23.2757 55.3955 25.1332 56.5828 26.7181C57.7702 28.3031 59.3357 29.5649 61.1362 30.3882L61.3233 30.8047L61.4963 30.8796C61.8973 31.8005 62.1968 32.7624 62.3896 33.7482C60.8276 33.9635 58.1009 35.695 55.4164 38.2501L50.052 38.0675C46.5876 37.9523 43.235 36.8124 40.4176 34.7918L24.3806 23.2564C23.2377 23.3683 22.1607 23.844 21.3079 24.6135C19.3156 22.5357 17.6272 20.369 17.7722 19.0962C17.7722 19.0962 10.3126 5.13205 7.60467 12.1141C4.89675 19.0962 12.6884 26.4152 12.6884 26.4152L17.6366 32.8263C17.4418 33.9498 17.3183 35.0846 17.2671 36.2238C23.347 43.2058 44.7251 49.5234 44.7251 49.5234L48.055 49.6825V49.8463C47.8501 50.7204 47.7496 51.6158 47.7557 52.5137C47.7557 52.6447 47.7557 52.7757 47.7557 52.9114C47.7557 53.0472 47.7557 53.0893 47.7557 53.1782C47.924 64.3158 49.4487 98.4025 49.4487 98.4025C49.7433 98.2714 50.052 98.1498 50.3841 98.0328L50.1455 101.061C50.1455 101.061 35.9091 103.054 25.4002 107.046C14.8912 111.038 14.5545 115.694 14.5545 115.694V156.772C11.5519 158.312 6.81427 160.338 4.38697 159.257C1.74921 158.082 0.299384 159.07 0.037479 160.099C-0.0124793 160.304 -0.0124793 160.517 0.037479 160.722C0.0605587 160.813 0.0951183 160.901 0.140357 160.984C0.188426 161.07 0.248246 161.148 0.31808 161.218C1.33296 162.214 23.3704 170.862 28.4542 169.529C28.6135 169.488 28.7698 169.437 28.9219 169.374L29.0622 169.304C29.1557 169.262 29.2492 169.215 29.3381 169.164C29.427 169.112 29.4363 169.094 29.4878 169.061C29.5392 169.028 29.6421 168.962 29.7123 168.902C29.7824 168.841 29.8058 168.817 29.8526 168.775C29.8994 168.733 29.9835 168.658 30.0443 168.597C30.1051 168.537 30.1285 168.499 30.1706 168.452C30.2127 168.406 30.2875 168.321 30.339 168.251C30.3904 168.181 30.4138 168.144 30.4465 168.092C30.4793 168.041 30.5494 167.942 30.5962 167.863C30.643 167.783 30.657 167.75 30.6897 167.694C30.7225 167.638 30.7833 167.526 30.8207 167.442C30.8581 167.357 30.8721 167.325 30.8955 167.268C30.9189 167.212 30.975 167.081 31.0124 166.988L31.0732 166.815C31.1107 166.712 31.1434 166.609 31.1761 166.506L31.2229 166.342C31.2556 166.23 31.2837 166.117 31.3118 166L31.3445 165.846C31.3726 165.724 31.3959 165.598 31.4193 165.476V165.336C31.4193 165.2 31.4614 165.069 31.4801 164.933V164.816C31.4801 164.671 31.5129 164.526 31.5222 164.376V164.283C31.5222 164.124 31.5316 163.968 31.5503 163.815V163.749C31.5503 163.581 31.5503 163.411 31.5503 163.239V163.206C31.5425 161.223 31.323 159.247 30.8955 157.31L32.1255 122.316C38.8025 122.432 45.4809 122.198 52.1332 121.614L52.8628 138.311C52.8628 138.311 52.8628 149.285 56.6043 154.273C59.7939 158.541 63.484 177.419 64.4802 182.777C63.1099 185.393 60.4908 188.622 55.9262 188.523C55.9262 188.523 47.3394 187.779 47.8258 190.143C47.8397 190.205 47.8585 190.266 47.8819 190.325C47.9088 190.393 47.9401 190.458 47.9755 190.522C48.0082 190.583 48.0503 190.643 48.0924 190.709L48.1205 190.746C48.1719 190.817 48.2234 190.887 48.2888 190.962L48.4759 191.168L48.532 191.224C48.6069 191.299 48.691 191.378 48.7799 191.462C53.1855 195.454 78.9504 196.119 78.9504 196.119V196.03C78.9504 196.006 78.9504 195.974 78.9504 195.936C78.9504 194.78 78.7821 188.72 77.2387 184.162H77.5942C77.5942 184.162 73.8527 150.576 70.8127 146.584C70.8127 146.584 70.0036 128.876 71.8322 117.776L72.1689 117.655C80.7136 114.463 81.3216 106.597 80.4424 100.808C82.0606 101.327 83.0193 101.683 83.0193 101.683C83.0193 101.683 82.9913 101.43 82.9351 100.986L83.0193 101.018C83.0193 101.018 82.8556 99.9608 82.5891 98.3136C81.9764 93.7836 80.7932 85.8657 79.5304 82.1266C79.3246 81.303 79.1328 80.601 78.9504 80.0676C78.2225 77.8211 77.7227 75.507 77.4585 73.1604C77.113 70.1199 76.9381 67.0624 76.9347 64.0023C76.9621 59.9126 77.2747 55.8298 77.8701 51.7836C78.3892 48.2505 78.8522 44.2307 78.8055 41.4229C78.8404 40.445 78.7714 39.4661 78.5997 38.5028C78.132 36.4297 76.149 35.0819 74.0725 34.2255C73.9368 34.1694 73.8012 34.1273 73.6656 34.0758C73.717 33.2896 73.7825 32.4005 73.8667 31.4599C74.1155 31.6325 74.3968 31.7526 74.6935 31.8129C74.9902 31.8733 75.2961 31.8726 75.5925 31.8108C76.4857 31.6143 77.1265 30.8749 77.6971 30.1683C80.6996 26.476 83.777 22.6293 84.9415 18.0432C85.4027 15.9954 85.6162 13.8994 85.5776 11.8006C85.5776 11.6851 85.5776 11.5697 85.5776 11.4543C85.6262 10.6814 85.5424 9.90585 85.3297 9.16124Z" transform="translate(392.844 33.5894)" fill="url(#paint5_linear)"/>
<path d="M1.256e-05 4.93445C1.256e-05 4.93445 4.5506 11.7668 3.57781 15.0191C2.60502 18.2715 14.3066 16.3201 14.3066 16.3201C14.3066 16.3201 14.634 3.6335 16.9069 0.704027C19.1799 -2.22544 1.256e-05 4.93445 1.256e-05 4.93445Z" transform="translate(450.818 55.8142)" fill="#F7C4A7"/>
<path d="M19.4123 19.4805C19.4123 19.4805 9.98368 11.6748 10.3064 8.74536C10.3064 8.74536 3.15544 -4.91927 0.550421 1.91305C-2.0546 8.74536 5.43308 15.9006 5.43308 15.9006L14.539 27.9367L19.4123 19.4805Z" transform="translate(401.334 45.6624)" fill="#F7C4A7"/>
<path d="M16.5658 -5.71248e-07C16.5658 -5.71248e-07 7.78258 5.53137 4.21412 3.90752C0.64566 2.28368 -0.66385 4.88557 0.313617 5.85894C1.29109 6.83231 22.4212 15.2931 27.2992 13.9922C32.1772 12.6913 29.6937 2.03566 29.6937 2.03566L16.5658 -5.71248e-07Z" transform="translate(394.588 187.624)" fill="#68739D"/>
<path d="M17.2203 1.30199C17.2203 1.30199 15.1064 10.2495 7.79173 10.0857C7.79173 10.0857 -3.26443 9.10768 0.963472 13.0152C5.19137 16.9227 29.8993 17.5685 29.8993 17.5685C29.8993 17.5685 29.8993 4.23146 25.3487 1.30199C20.7981 -1.62748 17.2203 1.30199 17.2203 1.30199Z" transform="translate(440.426 210.057)" fill="#68739D"/>
<path d="M1.14182e-06 4.55332L0.977481 27.3246C0.977481 27.3246 0.977464 38.0597 4.55528 42.9406C8.13309 47.8215 12.3563 72.2213 12.3563 72.2213H24.7126C24.7126 72.2213 21.1348 39.3653 18.2118 35.4578C18.2118 35.4578 16.9116 6.50474 21.4856 1.1425e-06L1.14182e-06 4.55332Z" transform="translate(444.318 143.71)" fill="#575988"/>
<path opacity="0.1" d="M1.14182e-06 4.55332L0.977481 27.3246C0.977481 27.3246 0.977464 38.0597 4.55528 42.9406C8.13309 47.8215 12.3563 72.2213 12.3563 72.2213H24.7126C24.7126 72.2213 21.1348 39.3653 18.2118 35.4578C18.2118 35.4578 16.9116 6.50474 21.4856 1.1425e-06L1.14182e-06 4.55332Z" transform="translate(444.318 143.71)" fill="black"/>
<path d="M61.4355 1.6098C61.4355 1.6098 68.9185 19.5002 55.2573 24.7086C41.5962 29.9171 16.9069 29.2619 16.9069 29.2619L15.6067 66.9988C15.6067 66.9988 0.327382 68.9502 0 64.0693V22.7572C0 22.7572 0.327382 18.2039 10.4061 14.3011C20.4847 10.3982 34.1225 8.45616 34.1225 8.45616L34.7726 -3.42749e-06L61.4355 1.6098Z" transform="translate(408.567 126.156)" fill="#575988"/>
<path opacity="0.1" d="M17.6096 0.0940089C20.2057 -0.192747 22.8321 0.179008 25.2469 1.17501C27.2392 2.01267 29.1568 3.33234 29.5917 5.35863C30.1062 7.7593 29.5356 13.1456 28.8808 17.6989C27.8333 24.8424 27.6998 32.0903 28.4833 39.2675C28.82 42.2578 29.2831 44.8831 29.9145 46.0249C31.8647 49.6049 33.815 66.5219 33.815 66.5219C33.815 66.5219 12.3574 58.3886 1.62867 63.2461C1.62867 63.2461 0.164788 29.8988 0.0010977 19.0045C-0.125178 10.5811 10.5662 0.95039 14.144 0.622813C16.2392 0.449666 15.5237 0.309274 17.6096 0.0940089Z" transform="translate(440.416 68.7317)" fill="black"/>
<path d="M17.6096 0.0940097C20.2057 -0.192746 22.8321 0.179009 25.2469 1.17501C27.2392 2.01267 29.1568 3.33234 29.5917 5.35863C30.1062 7.7593 29.5356 13.1456 28.8808 17.6989C27.8333 24.8424 27.6998 32.0902 28.4833 39.2675C28.7364 41.5617 29.2158 43.8252 29.9145 46.0249C31.3783 50.4145 33.815 66.5219 33.815 66.5219C33.815 66.5219 12.3574 58.3886 1.62867 63.2461C1.62867 63.2461 0.164788 29.8988 0.0010977 19.0045C-0.125178 10.5811 10.5662 0.950391 14.144 0.622814C16.2392 0.463706 15.5237 0.323313 17.6096 0.0940097Z" transform="translate(440.416 68.0674)" fill="#E14B5A"/>
<path opacity="0.1" d="M23.4254 12.5096L0.321588 11.2087C0.321588 11.2087 -1.14695 -0.11609 2.19234 0.000901955L25.0389 0.796444C25.0389 0.796444 29.9309 6.65071 23.4254 12.5096Z" transform="translate(440.399 73.6169)" fill="black"/>
<path d="M52.671 27.0017L26.3355 25.7007C26.3355 25.7007 5.85547 19.5142 1.37018e-05 12.6866C1.37018e-05 12.6866 0.327384 0.650475 6.82825 1.42812e-06L22.2105 11.2874C24.8957 13.2572 28.1106 14.3741 31.438 14.4929L54.2845 15.2885C54.2845 15.2885 59.1766 21.1427 52.671 27.0017Z" transform="translate(411.154 58.4744)" fill="#E14B5A"/>
<path opacity="0.1" d="M14.1429 6.07304C14.531 2.98914 15.9294 1.9643 16.9069 0.705472C19.1846 -2.224 1.256e-05 4.91717 1.256e-05 4.91717C0.98833 6.44217 1.85468 8.04292 2.59099 9.70447C4.12229 10.4092 5.78814 10.7732 7.47366 10.7714C10.3078 10.7901 12.1225 7.74368 14.1429 6.07304Z" transform="translate(450.818 56.1404)" fill="black"/>
<path d="M11.7062 23.4264C18.1714 23.4264 23.4125 18.1822 23.4125 11.7132C23.4125 5.24418 18.1714 0 11.7062 0C5.24105 0 6.8509e-06 5.24418 6.8509e-06 11.7132C6.8509e-06 18.1822 5.24105 23.4264 11.7062 23.4264Z" transform="translate(446.591 43.1812)" fill="#F7C4A7"/>
<path opacity="0.1" d="M3.70878 10.6346C2.46005 9.27282 1.8614 7.45711 1.29549 5.69756L-1.14182e-05 1.66836C1.76317 2.71193 3.6433 0.362739 5.66371 0.039842C7.11354 -0.194141 8.46984 0.652876 9.8121 1.26591C15.5974 3.9146 23.1365 2.59962 27.7994 6.93767C28.4351 7.48855 28.9277 8.18546 29.2352 8.96865C29.4523 9.71249 29.5409 10.488 29.4971 11.2617C29.5349 13.3142 29.3308 15.364 28.8891 17.3686C27.7807 21.8564 24.8249 25.6189 21.9439 29.2316C21.3967 29.9195 20.784 30.6355 19.9235 30.8367C18.2492 31.2111 16.9537 29.4001 16.3083 27.8137C15.4547 25.7022 14.8276 23.5061 14.4375 21.2621C14.3229 20.3158 14.051 19.3952 13.6331 18.5386C12.6276 16.7509 10.1441 15.0616 8.63352 13.6764C7.12289 12.2912 5.09313 12.1508 3.70878 10.6346Z" transform="translate(447.198 36.0518)" fill="black"/>
<path d="M3.70878 10.6346C2.46005 9.27283 1.8614 7.45711 1.29549 5.69756L-1.14182e-05 1.66837C1.76317 2.71193 3.6433 0.36274 5.66371 0.0398435C7.11354 -0.19414 8.46984 0.652877 9.8121 1.26591C15.5974 3.9146 23.1365 2.59962 27.7994 6.93767C28.4351 7.48855 28.9277 8.18546 29.2352 8.96865C29.4523 9.71249 29.5409 10.488 29.4971 11.2617C29.5349 13.3142 29.3308 15.364 28.8891 17.3686C27.7807 21.8564 24.8249 25.6189 21.9439 29.2316C21.3967 29.9195 20.784 30.6355 19.9235 30.8367C18.2492 31.2111 16.9537 29.4001 16.3083 27.8137C15.4547 25.7022 14.8276 23.5061 14.4375 21.2621C14.3373 20.3049 14.0765 19.3715 13.6658 18.5011C12.6603 16.7135 10.1769 15.0241 8.66626 13.639C7.15563 12.2538 5.09313 12.1508 3.70878 10.6346Z" transform="translate(447.198 35.7241)" fill="#632652"/>
<path d="M0.977481 4.23042C1.51732 4.23042 1.95493 3.28341 1.95493 2.11521C1.95493 0.947011 1.51732 0 0.977481 0C0.437641 0 0 0.947011 0 2.11521C0 3.28341 0.437641 4.23042 0.977481 4.23042Z" transform="translate(460.411 54.085)" fill="#F7C4A7"/>
<path opacity="0.1" d="M16.5795 0C16.5795 0 15.9294 1.95143 12.679 1.62853C9.42858 1.30563 0 0.650479 0 1.62853" transform="translate(450.659 112.618)" fill="black"/>
<path opacity="0.5" d="M0.950471 1.3571C0.507615 1.0108 0.181221 0.537266 0.0150953 1.02825e-05C-0.0690885 0.42118 0.192817 0.973369 0.950471 1.68468C5.15966 5.58752 29.8863 6.23798 29.8863 6.23798C29.8863 6.23798 29.8863 6.12102 29.8863 5.91043C29.746 5.91043 5.16434 5.25058 0.950471 1.3571Z" transform="translate(440.439 221.402)" fill="white"/>
<path opacity="0.5" d="M27.3032 8.60123C22.4252 9.90218 1.29509 1.44602 0.317627 0.467968C0.188191 0.338148 0.0947047 0.176883 0.0463601 1.71375e-06C-0.01032 0.195361 -0.0151112 0.402135 0.0324585 0.599912C0.0800281 0.79769 0.178322 0.979638 0.317627 1.1278C1.29509 2.10585 22.4252 10.562 27.3032 9.26107C29.8147 8.59187 30.3712 5.44245 30.3245 2.54574C30.2824 5.23655 29.6276 7.97884 27.3032 8.60123Z" transform="translate(394.579 192.364)" fill="white"/>
<path d="M78.4864 1.43013C78.4864 1.43013 50.1726 -6.96051 48.3019 16.9058C46.4311 40.7721 55.7849 80.0813 48.3019 92.7164C40.8188 105.351 14.1185 123.602 28.1913 125.24C42.264 126.878 49.2372 129.218 45.028 137.641C40.8188 146.065 18.8375 154.02 23.5144 160.104C28.1913 166.187 30.5297 173.675 25.8528 181.162C21.176 188.65 4.80688 193.329 7.613 198.477C10.4191 203.624 20.7083 206.432 15.5637 212.048C10.4191 217.663 -4.49544 230.439 1.32728 230.369" transform="translate(265.288 67.302)" stroke="#535461" stroke-width="3" stroke-miterlimit="10"/>
<path d="M175.925 116.556C174.786 110.217 174.086 103.806 173.83 97.3698C173.611 92.0596 171.755 86.9475 168.516 82.7353C165.277 78.5232 160.814 75.4176 155.74 73.8451C153.893 73.2789 151.858 72.7454 149.609 72.2681C129.905 68.0798 123.919 71.7346 123.24 72.2166C122.666 71.1616 122.167 70.0669 121.749 68.9408C121.716 68.8285 121.683 68.7115 121.65 68.5945C125.549 64.434 127.925 59.0748 128.39 53.3903C131.663 50.0537 133.595 46.0339 133.595 41.6911C133.595 37.9474 132.192 34.4704 129.685 31.4427V25.5884C129.681 18.8006 126.984 12.2922 122.186 7.49382C117.388 2.69547 110.882 -1.02048e-06 104.098 0H102.021C95.2353 0 88.7271 2.6974 83.9286 7.49879C79.13 12.3002 76.4342 18.8123 76.4342 25.6024V31.9481C74.1939 34.7199 72.9488 38.1642 72.8985 41.7286C72.8985 45.9684 74.7412 49.9133 77.9028 53.2078C78.3324 59.1016 80.8151 64.6577 84.9181 68.9081C85.0584 69.8674 85.1987 70.9063 85.339 71.9967L50.0894 79.4561C50.0894 79.4561 36.4984 80.0129 27.7479 98.0858C20.3491 113.365 5.61225 152.693 1.2534 164.397C0.463008 166.517 0.0187044 167.733 0.0187044 167.733C0.0187044 167.733 0.163692 167.588 0.439628 167.34L0 168.468C0 168.468 0.215137 168.253 0.622026 167.897C0.00467771 172.797 -0.0841871 181.206 6.33249 182.254C11.7109 183.134 25.5591 183.494 36.026 183.658H36.7509C43.6867 183.752 48.9622 183.752 48.9622 183.752V183.658H161.521V182.507C161.521 181.458 161.31 180.42 160.899 179.456L161.058 179.269C161.66 180.064 162.062 180.994 162.227 181.978C162.215 182.074 162.198 182.169 162.175 182.264L162.241 182.09C162.27 182.404 162.248 182.72 162.175 183.026C162.175 183.026 176.613 145.8 176.459 123.595C176.502 121.237 176.323 118.881 175.925 116.556ZM85.9236 77.0039C85.7383 75.9423 85.6196 74.8701 85.5682 73.7937V73.7656C85.6898 74.8091 85.8114 75.8948 85.9236 77.0039ZM42.1808 156.965V165.857L36.6246 167.045L42.1808 156.965Z" transform="translate(60.4908 109.342)" fill="url(#paint6_linear)"/>
<path d="M25.5872 -2.57062e-06C28.9482 0.00061161 32.276 0.663756 35.3808 1.95155C38.4856 3.23935 41.3063 5.12657 43.682 7.50541C46.0577 9.88424 47.9417 12.7081 49.2265 15.8156C50.5113 18.9232 51.1716 22.2535 51.1697 25.6165V36.5201H4.56726e-06V25.6165C4.56726e-06 18.8263 2.69578 12.3142 7.49431 7.51282C12.2928 2.71143 18.8011 0.0140359 25.5872 0.0140359V-2.57062e-06Z" transform="translate(137.388 112.913)" fill="#E14B5A"/>
<path d="M29.165 40.1047C45.2724 40.1047 58.33 31.127 58.33 20.0524C58.33 8.97775 45.2724 -6.85498e-06 29.165 -6.85498e-06C13.0576 -6.85498e-06 -4.56726e-06 8.97775 -4.56726e-06 20.0524C-4.56726e-06 31.127 13.0576 40.1047 29.165 40.1047Z" transform="translate(133.988 132.965)" fill="#E14B5A"/>
<path d="M0.963284 6.29414C0.963284 6.29414 7.04323 38.158 0.963284 46.7545C-5.11666 55.3511 19.5726 58.7485 19.5726 58.7485L45.1458 49.4266L48.7236 26.4963C48.7236 26.4963 33.1589 17.7219 36.3766 2.28499e-06L0.963284 6.29414Z" transform="translate(143.491 166.144)" fill="#F7C4A7"/>
<path d="M24.6892 9.49036C24.6892 9.49036 26.2981 16.4724 17.5336 17.7266C12.3557 18.4886 7.08976 18.4254 1.93155 17.5394L-3.99636e-06 7.99748e-06H20.3959L24.6892 9.49036Z" transform="translate(195.283 270.36)" fill="#F7C4A7"/>
<path d="M0.851748 10.0379C0.851748 10.0379 -3.02071 25.7803 5.74844 27.231C14.5176 28.6817 46.7226 28.6349 46.7226 28.6349V10.0238L32.1447 13.1405L18.4555 -1.1425e-06L0.851748 10.0379Z" transform="translate(64.2785 260.875)" fill="#F7C4A7"/>
<path opacity="0.1" d="M82.3926 1.55364L48.1298 8.80246C48.1298 8.80246 35.0672 9.34061 26.6582 26.7069C18.2492 44.0731 2.28363e-06 93.6635 2.28363e-06 93.6635C2.28363e-06 93.6635 15.5647 77.9118 33.8138 94.7399L45.9737 72.722L43.3173 107.623H137.589V91.1505C137.589 91.1505 157.269 101.713 155.829 107.623C155.829 107.623 172.666 64.205 169.046 44.4709C167.95 38.3709 167.278 32.2024 167.035 26.0096C166.819 20.9093 165.032 16.0007 161.918 11.9573C158.804 7.91379 154.515 4.93356 149.641 3.42551C147.864 2.87799 145.9 2.36791 143.749 1.9093C123.53 -2.38663 118.344 1.9093 118.344 1.9093C118.344 1.9093 114.429 14.6614 114.499 20.4361C114.588 27.8674 103.944 32.7904 103.944 32.7904C103.944 32.7904 88.2013 29.0467 87.481 25.9862C86.7608 22.9257 81.1392 5.13359 82.3926 1.55364Z" transform="translate(63.9423 181.18)" fill="black"/>
<path d="M82.3926 1.53492L48.1298 8.78374C48.1298 8.78374 35.0672 9.32189 26.6582 26.6881C18.2492 44.0544 2.28363e-06 93.6448 2.28363e-06 93.6448C2.28363e-06 93.6448 15.5647 77.893 33.8138 94.7211L45.9737 72.7033L43.3173 107.623H137.589V91.1505C137.589 91.1505 157.269 101.713 155.829 107.623C155.829 107.623 172.666 64.205 169.046 44.4709C167.95 38.3709 167.278 32.2024 167.035 26.0096C166.819 20.9093 165.032 16.0007 161.918 11.9573C158.804 7.91379 154.515 4.93357 149.641 3.42551C147.864 2.87799 145.9 2.36791 143.749 1.90931C123.53 -2.38663 118.344 1.90931 118.344 1.90931C118.344 1.90931 114.429 14.6614 114.499 20.4361C114.588 27.8674 103.944 32.7904 103.944 32.7904C103.944 32.7904 88.2013 29.0467 87.481 25.9862C86.7608 22.9257 81.1392 5.11487 82.3926 1.53492Z" transform="translate(63.9423 180.483)" fill="#575988"/>
<path opacity="0.1" d="M36.3627 12.71C34.9231 8.63272 34.6002 4.24427 35.4274 -1.71374e-06L6.27999e-06 6.26608C6.27999e-06 6.26608 0.50978 8.94284 1.08971 12.958C3.3785 15.3358 6.12689 17.2227 9.16762 18.504C12.2084 19.7852 15.4778 20.434 18.7771 20.4108C22.0764 20.3876 25.3364 19.6929 28.3589 18.369C31.3813 17.0451 34.1029 15.1197 36.3581 12.71H36.3627Z" transform="translate(144.988 167.763)" fill="black"/>
<path d="M48.6395 24.3482C48.6782 27.5438 48.0875 30.7158 46.9011 33.683C45.7146 36.6502 43.9557 39.3545 41.7248 41.6415C37.2192 46.2603 31.0644 48.8991 24.6144 48.9773C18.1644 49.0555 11.9475 46.5667 7.33144 42.0584C2.71534 37.5502 0.0781511 31.3917 6.80834e-06 24.9379C6.80834e-06 24.7413 6.80834e-06 24.5448 6.80834e-06 24.3482C-0.00259092 19.789 1.27494 15.3207 3.68699 11.4527C6.09904 7.58467 9.54857 4.47245 13.6425 2.47078C14.372 2.11512 15.1219 1.79379 15.892 1.50677C19.8974 0.0330024 24.2179 -0.368656 28.4261 0.341535C33.8158 1.26083 38.7387 3.97052 42.4002 8.03328C46.0617 12.096 48.2482 17.2748 48.6068 22.7337C48.6286 23.2766 48.6395 23.8147 48.6395 24.3482Z" transform="translate(138.758 137.874)" fill="#F7C4A7"/>
<g opacity="0.1">
<path opacity="0.1" d="M15.8593 -3.42749e-06H15.892C15.1219 0.283896 14.3721 0.605232 13.6425 0.964007C9.54858 2.96568 6.09903 6.0779 3.68698 9.94593C1.27494 13.814 -0.00259435 18.2822 3.38289e-06 22.8414C3.38289e-06 23.038 3.38289e-06 23.2345 3.38289e-06 23.4311C0.756678 23.4113 1.50077 23.2327 2.18411 22.907C8.11907 20.1366 11.6735 11.6758 13.0719 5.75131C13.5863 3.6127 14.0634 1.23075 15.8593 -3.42749e-06Z" transform="translate(138.726 139.962)" fill="black"/>
<path opacity="0.1" d="M20.8402 1.87186C18.9153 0.984948 16.8821 0.35558 14.793 -2.85624e-06C16.5071 0.3937 18.038 1.35506 19.1378 2.72825C19.6758 3.46183 20.1218 4.25863 20.466 5.10083C17.2274 3.68434 13.7199 2.9888 10.1862 3.06233C6.6525 3.13586 3.17694 3.9767 1.14182e-06 5.52668C1.52934 8.87732 6.26234 10.7024 9.42391 11.9285C12.8848 13.2669 16.3878 14.4898 19.9329 15.5973L16.804 13.0563L23.8708 14.1794C23.9482 12.7716 23.7821 11.361 23.3797 10.0098C24.7267 11.1002 26.5273 11.4652 27.9958 12.3964C30.7505 14.1326 31.8963 17.4832 33.3976 20.3519C33.7441 21.148 34.2863 21.8434 34.9737 22.3735C34.682 17.9992 33.2147 13.785 30.7269 10.1763C28.2391 6.56759 24.8232 3.69836 20.8402 1.87186Z" transform="translate(152.363 138.778)" fill="black"/>
</g>
<path d="M15.8546 4.56999e-06H15.8874C15.1172 0.283904 14.3674 0.60524 13.6378 0.964015C9.54977 2.9639 6.10451 6.07129 3.69367 9.93293C1.28282 13.7946 0.00310776 18.2555 3.99636e-06 22.8087C3.99636e-06 23.0052 3.99636e-06 23.2018 3.99636e-06 23.3983C0.756679 23.3785 1.50076 23.2 2.1841 22.8742C8.11906 20.1039 11.6735 11.643 13.0719 5.71856C13.5817 3.62207 14.0587 1.22608 15.8546 4.56999e-06Z" transform="translate(138.73 139.414)" fill="#632652"/>
<path d="M20.8402 1.87187C18.9153 0.984951 16.8821 0.355583 14.793 5.71248e-07C16.5071 0.393703 18.038 1.35505 19.1378 2.72824C19.6758 3.46182 20.1218 4.25863 20.466 5.10083C17.2274 3.68434 13.7199 2.98881 10.1862 3.06233C6.6525 3.13586 3.17694 3.9767 1.14182e-06 5.52668C1.52934 8.87733 6.26234 10.7024 9.42391 11.9285C12.8848 13.2668 16.3878 14.4898 19.9329 15.5973L16.804 13.0563L23.8708 14.1794C23.9482 12.7716 23.7821 11.361 23.3797 10.0098C24.7267 11.1002 26.5273 11.4652 27.9958 12.3964C30.7505 14.1326 31.8963 17.4832 33.3976 20.3519C33.7441 21.148 34.2863 21.8434 34.9737 22.3735C34.682 17.9992 33.2147 13.785 30.7269 10.1763C28.2391 6.56758 24.8232 3.69836 20.8402 1.87187Z" transform="translate(152.363 138.225)" fill="#632652"/>
<path opacity="0.1" d="M-6.8509e-06 23.1642C-6.8509e-06 23.1642 25.0494 -7.98367 54.032 23.1642L51.5252 16.1821C51.5252 16.1821 37.9295 -3.68774 28.267 0.608193C18.6046 4.90413 9.12459 7.94592 9.12459 7.94592L-6.8509e-06 23.1642Z" transform="translate(135.957 135.052)" fill="black"/>
<path d="M-6.8509e-06 23.1642C-6.8509e-06 23.1642 25.0494 -7.98367 54.032 23.1642L51.5252 16.1821C51.5252 16.1821 37.9295 -3.68773 28.267 0.608201C18.6046 4.90413 9.12459 7.94591 9.12459 7.94591L-6.8509e-06 23.1642Z" transform="translate(135.957 134.505)" fill="#E14B5A"/>
<path opacity="0.1" d="M4.47109 -9.13997e-06C4.47109 -9.13997e-06 -0.897965 14.3198 6.61778 27.2123C14.1335 40.1047 -1.14182e-06 45.463 -1.14182e-06 45.463" transform="translate(110.912 224.804)" fill="black"/>
<path opacity="0.1" d="M2.50603 -3.42749e-06C2.50603 -3.42749e-06 11.8083 11.8162 5.72839 22.3782C-0.351551 32.9402 0.00389629 58.3601 0.00389629 58.3601" transform="translate(199.83 211.911)" fill="black"/>
<path d="M8.58675 -1.1425e-05H112.002C114.279 -1.1425e-05 116.463 0.905221 118.074 2.51651C119.684 4.1278 120.589 6.31317 120.589 8.59188H0C0 6.31317 0.904672 4.1278 2.515 2.51651C4.12533 0.905221 6.3094 -1.1425e-05 8.58675 -1.1425e-05Z" transform="translate(98.5652 280.838)" fill="#68739D"/>
<path d="M18.2398 -6.85498e-06H90.5584C95.3959 -6.85498e-06 100.035 1.92284 103.456 5.34551C106.877 8.76818 108.798 13.4103 108.798 18.2507V61.0462H-2.28363e-06V18.2507C-2.28363e-06 13.4103 1.92169 8.76818 5.34232 5.34551C8.76295 1.92284 13.4023 -6.85498e-06 18.2398 -6.85498e-06Z" transform="translate(104.467 221.762)" fill="#68739D"/>
<path d="M6.44007 12.8878C9.99682 12.8878 12.8801 10.0028 12.8801 6.4439C12.8801 2.88504 9.99682 -5.71248e-06 6.44007 -5.71248e-06C2.88332 -5.71248e-06 -3.99636e-06 2.88504 -3.99636e-06 6.4439C-3.99636e-06 10.0028 2.88332 12.8878 6.44007 12.8878Z" transform="translate(152.331 248.525)" fill="white"/>
<path opacity="0.1" d="M6.27999e-06 11.0821C6.27999e-06 11.0821 24.6191 -13.5376 51.1697 10.6141" transform="translate(137.388 132.53)" stroke="black" stroke-miterlimit="10"/>
<path d="M2.47407 -5.14123e-06H0V14.0203H2.47407V-5.14123e-06Z" transform="translate(192.309 142.049)" fill="#6A5C99"/>
<path d="M6.8509e-06 -2.85624e-06C2.25875 -2.85624e-06 4.42497 0.897815 6.02214 2.49594C7.61932 4.09406 8.5166 6.26158 8.5166 8.52167V9.06919C8.5166 11.3293 7.61932 13.4968 6.02214 15.0949C4.42497 16.693 2.25875 17.5909 6.8509e-06 17.5909V-2.85624e-06Z" transform="translate(189.011 151.118)" fill="#FFD037"/>
<path d="M3.84439 1.92334C3.84439 0.86111 2.9838 6.85498e-06 1.9222 6.85498e-06C0.860598 6.85498e-06 -6.8509e-06 0.86111 -6.8509e-06 1.92334V17.3194C-6.8509e-06 18.3817 0.860598 19.2428 1.9222 19.2428C2.9838 19.2428 3.84439 18.3817 3.84439 17.3194V1.92334Z" transform="translate(187.36 150.294)" fill="#6A5C99"/>
<path d="M2.47407 0H-6.27999e-06V14.0203H2.47407V0Z" transform="translate(133.389 156.34) rotate(-180)" fill="#6A5C99"/>
<path d="M-3.99636e-06 0.00468252C2.25874 0.00468252 4.42498 0.9025 6.02215 2.50062C7.61932 4.09875 8.5166 6.26626 8.5166 8.52635V9.07388C8.5166 11.334 7.61932 13.5015 6.02215 15.0996C4.42498 16.6977 2.25874 17.5955 -3.99636e-06 17.5955V-1.71374e-06V0.00468252Z" transform="translate(136.682 168.994) rotate(180)" fill="#FFD037"/>
<path d="M3.8444 1.92335C3.8444 0.861116 2.98379 0 1.92219 0C0.860591 0 0 0.861116 0 1.92335V17.3194C0 18.3817 0.860591 19.2428 1.92219 19.2428C2.98379 19.2428 3.8444 18.3817 3.8444 17.3194V1.92335Z" transform="translate(138.333 169.813) rotate(-180)" fill="#6A5C99"/>
<path d="M61.7582 16.0606C58.4095 9.10662 51.1183 0.683235 35.3993 3.99874e-06H35.2122L29.6421 0.266734V0.294825C14.026 1.01549 6.77212 9.40145 3.45153 16.3461C1.23258 21.0492 0.0552256 26.1765 6.27999e-06 31.3772L1.9222 31.3304L3.8444 31.2882C3.9153 26.6522 4.96899 22.0839 6.93581 17.8857C11.1731 9.17683 18.9741 4.53927 30.1144 4.11342L35.0392 3.84201C46.1795 4.26786 53.9805 8.90072 58.2178 17.6143C60.1962 21.8068 61.2627 26.3718 61.3466 31.0075L63.2688 31.0496L65.191 31.0964C65.1423 25.8956 63.9713 20.7667 61.7582 16.0606Z" transform="translate(130.256 110.999)" fill="#FFD037"/>
<path d="M262.27 5.71248e-06H0V70.4571H262.27V5.71248e-06Z" transform="translate(17.5897 289.542)" fill="#D6D6E3"/>
<path opacity="0.1" d="M262.27 1.25675e-05H0V9.14407H262.27V1.25675e-05Z" transform="translate(17.5897 294.288)" fill="black"/>
<path d="M297.449 1.371e-05H0V9.14407H297.449V1.371e-05Z" transform="translate(0 288.527)" fill="#D6D6E3"/>
<path d="M6.27999e-06 -1.02825e-05C6.27999e-06 -1.02825e-05 11.2245 20.5905 39.2858 14.9749C67.3471 9.35932 53.7841 66.9192 53.7841 66.9192C53.7841 66.9192 49.1914 94.3795 52.4231 94.2204" transform="translate(203.683 265.779)" stroke="#535461" stroke-width="3" stroke-miterlimit="10"/>
<defs>
<linearGradient id="paint0_linear" x2="1" gradientUnits="userSpaceOnUse" gradientTransform="matrix(539.263 231.699 -539.263 3058.69 261.256 -1496.13)">
<stop stop-color="#0075FF"/>
<stop offset="1" stop-color="#FF005C"/>
</linearGradient>
<linearGradient id="paint1_linear" x2="1" gradientUnits="userSpaceOnUse" gradientTransform="translate(19.091 12.7287) scale(12.7211 12.7287) rotate(-90)">
<stop stop-color="#808080" stop-opacity="0.25"/>
<stop offset="0.54" stop-color="#808080" stop-opacity="0.12"/>
<stop offset="1" stop-color="#808080" stop-opacity="0.1"/>
</linearGradient>
<linearGradient id="paint2_linear" x2="1" gradientUnits="userSpaceOnUse" gradientTransform="translate(78380.9 52293) scale(31381.3 37053) rotate(-90)">
<stop stop-color="#808080" stop-opacity="0.25"/>
<stop offset="0.54" stop-color="#808080" stop-opacity="0.12"/>
<stop offset="1" stop-color="#808080" stop-opacity="0.1"/>
</linearGradient>
<linearGradient id="paint3_linear" x2="1" gradientUnits="userSpaceOnUse" gradientTransform="translate(16550.3 16321) scale(1978.8 3614.88) rotate(-90)">
<stop stop-color="#808080" stop-opacity="0.25"/>
<stop offset="0.54" stop-color="#808080" stop-opacity="0.12"/>
<stop offset="1" stop-color="#808080" stop-opacity="0.1"/>
</linearGradient>
<linearGradient id="paint4_linear" x2="1" gradientUnits="userSpaceOnUse" gradientTransform="translate(16932.3 16321) scale(1892.48 3614.88) rotate(-90)">
<stop stop-color="#808080" stop-opacity="0.25"/>
<stop offset="0.54" stop-color="#808080" stop-opacity="0.12"/>
<stop offset="1" stop-color="#808080" stop-opacity="0.1"/>
</linearGradient>
<linearGradient id="paint5_linear" x2="1" gradientUnits="userSpaceOnUse" gradientTransform="translate(65010.2 109103) scale(35878.9 82210.9) rotate(-90)">
<stop stop-color="#808080" stop-opacity="0.25"/>
<stop offset="0.54" stop-color="#808080" stop-opacity="0.12"/>
<stop offset="1" stop-color="#808080" stop-opacity="0.1"/>
</linearGradient>
<linearGradient id="paint6_linear" x2="1" gradientUnits="userSpaceOnUse" gradientTransform="translate(28113.5 127096) scale(69296 72157.5) rotate(-90)">
<stop stop-color="#808080" stop-opacity="0.25"/>
<stop offset="0.54" stop-color="#808080" stop-opacity="0.12"/>
<stop offset="1" stop-color="#808080" stop-opacity="0.1"/>
</linearGradient>
</defs>
</svg>
