<svg width="1440" height="887" viewBox="0 0 1440 887" fill="none" xmlns="http://www.w3.org/2000/svg">
<path opacity="0.2" fill-rule="evenodd" clip-rule="evenodd" d="M1268.37 186.367C1248.95 170.197 1229.86 154.853 1201.16 156.921C1168.21 159.295 1151.12 183.019 1133.79 207.711L1133.07 208.733C1116.06 232.979 1098.6 257.864 1065.26 262.161C1037.3 265.766 1016.95 254.506 996.817 242.732C996.113 242.32 995.41 241.908 994.707 241.496C975.243 230.092 955.738 218.665 929.21 219.423C901.029 220.229 881.327 231.281 861.519 243.244C860.385 243.928 859.251 244.616 858.114 245.305C839.412 256.645 820.164 268.316 793.367 272.114C767.98 275.712 747.523 270.943 727.538 266.284C726.61 266.067 725.682 265.851 724.756 265.636C703.87 260.788 683.249 256.483 657.487 262.146C628.515 268.514 610.598 286.794 592.801 304.952C592.022 305.747 591.243 306.542 590.464 307.335C571.917 326.212 552.99 344.362 521.406 347.165C493.385 349.653 473.185 336.457 453.397 323.531L452.724 323.092C432.662 309.989 412.933 297.343 385.483 300.662C352.218 304.684 335.331 329.29 318.18 354.473L317.971 354.779C300.972 379.74 283.643 405.183 249.539 409.661C221.525 413.339 201.104 400.867 180.97 388.437L180.563 388.186C160.512 375.806 140.696 363.571 113.559 366.418C82.3455 369.693 48.5553 391.704 22.4636 413.052C9.44221 423.705 0 431.672 0 431.672V423.172C30 389.672 65.8498 223.321 103 219.423C124.46 217.171 143.343 259.215 155.5 291.169C165.865 318.415 183.095 292.513 191.5 297.169C233.756 320.577 201.268 386.357 249.539 388.186C303.053 390.214 314.18 272.114 321 272.114C325.414 272.114 322.145 306.143 336 281.169C350.896 254.319 369.353 225.149 394 222.169C414.738 219.662 424.731 247.316 440.5 266.669C452.012 280.799 461.103 206.905 485.5 196.669C531.044 177.56 477.871 338.764 526 327.669C558.601 320.154 530.424 247.158 562.5 256.669C569.293 258.684 572.28 231.044 579 236.169C608.5 258.669 616.309 181.026 651.5 186.669C668.672 189.423 677.443 210.845 694 216.169C709.01 220.997 715.396 183.641 730.5 188.169C757.018 196.12 769.623 254.132 787 251.669C804.476 249.192 805.153 189.669 835 214.169C844.394 221.88 831.42 117.158 873 117.169C893.836 117.175 876.767 153.597 897.5 155.669C913.142 157.233 944.79 128.696 960 132.669C984.052 138.953 976.262 208.336 994.707 191.669C1018.5 170.169 1026.86 240.014 1060.5 233.669C1082.29 229.558 1081.5 121.669 1106.5 115.169C1119.52 111.783 1126.1 133.911 1139.5 132.669C1168.89 129.946 1174.14 61.9606 1199 60.1692C1218.66 58.7528 1224.73 93.6277 1239.5 112.169C1254.45 130.945 1261.48 19.1031 1287.5 3.66919C1346.5 -31.3308 1284.16 195.651 1340.5 193.169C1359.93 192.313 1360.21 111.586 1376.5 100.169C1393.89 87.9813 1394.61 152.669 1406 152.669C1431.44 152.669 1440 120.672 1440 120.672V179.672C1440 179.672 1366.55 219.424 1337.05 219.424C1308.05 219.424 1288.58 203.2 1269.62 187.406L1268.37 186.367Z" fill="url(#paint0_linear)"/>
<path opacity="0.5" fill-rule="evenodd" clip-rule="evenodd" d="M1268.37 176.016C1248.95 159.847 1229.86 144.503 1201.16 146.57C1168.21 148.944 1151.12 172.668 1133.79 197.361L1133.07 198.382C1116.06 222.628 1098.6 247.513 1065.26 251.81C1037.3 255.416 1016.95 244.155 996.817 232.381C996.113 231.97 995.41 231.558 994.707 231.146C975.243 219.742 955.738 208.314 929.21 209.072C901.029 209.878 881.327 220.931 861.519 232.893C860.385 233.578 859.251 234.266 858.114 234.954C839.412 246.295 820.164 257.966 793.367 261.763C767.98 265.361 747.523 260.592 727.538 255.933C726.61 255.717 725.682 255.5 724.756 255.285C703.87 250.438 683.249 246.132 657.487 251.795C628.515 258.164 610.598 276.444 592.801 294.601C592.022 295.396 591.243 296.191 590.464 296.984C571.917 315.861 552.99 334.011 521.406 336.815C493.385 339.302 473.185 326.106 453.397 313.18L452.724 312.741C432.662 299.638 412.933 286.993 385.483 290.311C352.218 294.333 335.331 318.94 318.18 344.122L317.971 344.428C300.971 369.389 283.643 394.832 249.539 399.31C221.524 402.989 201.104 390.517 180.97 378.086L180.563 377.835C160.512 365.455 140.696 353.22 113.559 356.067C82.3455 359.342 48.5553 381.354 22.4636 402.701C9.44221 413.355 0 422.328 0 422.328V416.328C31.5 383.828 69.3498 235.044 106.5 231.146C127.96 228.894 139.937 254.865 152.094 286.819C162.46 314.064 166.095 292.328 174.5 296.984C216.756 320.392 201.268 384.989 249.539 386.819C303.053 388.846 318.18 280.819 325 280.819C329.414 280.819 320.724 311.792 334.579 286.819C349.475 259.969 366.353 237.934 391 234.954C411.738 232.447 428.381 247.965 444.149 267.318C455.661 281.448 458.603 222.055 483 211.818C528.544 192.709 473.278 335.913 521.406 324.819C554.008 317.303 537.924 252.252 570 261.763C576.793 263.778 572.78 237.193 579.5 242.318C609 264.818 619.309 184.675 654.5 190.318C671.672 193.072 676.943 206.494 693.5 211.818C708.51 216.646 718.396 212.79 733.5 217.318C760.018 225.27 773.123 250.281 790.5 247.818C807.976 245.342 809.5 197.318 839.346 221.818C848.74 229.53 832.92 121.308 874.5 121.318C895.336 121.324 871.767 151.746 892.5 153.818C908.142 155.382 945.79 134.845 961 138.818C985.052 145.102 976.262 209.486 994.707 192.818C1018.5 171.318 1031.63 241.3 1065.26 234.954C1087.06 230.843 1082.5 123.818 1107.5 117.318C1120.52 113.933 1126.6 134.06 1140 132.818C1169.39 130.095 1176.3 54.6099 1201.16 52.8185C1220.82 51.4021 1223.73 88.777 1238.5 107.318C1253.45 126.094 1263.88 19.3972 1289.5 3.31848C1342.2 -29.7516 1280.7 195.301 1337.05 192.818C1356.48 191.962 1358.21 137.736 1374.5 126.318C1391.89 114.131 1391.78 151.007 1403 149.053C1427.44 144.795 1440 126.318 1440 126.318V169.328C1440 169.328 1366.55 209.073 1337.05 209.073C1308.05 209.073 1288.58 192.849 1269.62 177.056L1268.37 176.016Z" transform="translate(0 10.3438)" fill="url(#paint1_linear)"/>
<path fill-rule="evenodd" clip-rule="evenodd" d="M0 372.313L0.000183105 371.484C18.5856 352.481 32.8103 324.32 45.5156 299.168C63.2311 264.096 77.9925 234.872 97.5026 244.477C104.126 247.737 103.832 239.228 103.491 229.379C103.129 218.909 102.714 206.926 110.503 205.961C122.918 204.422 128.284 221.974 133.531 239.141C139.54 258.798 145.395 277.949 161.503 267.352C169.589 262.032 177.173 275.693 186.938 293.283C200.119 317.025 217.275 347.926 245.003 348.977C283.433 350.433 304.407 300.805 315.889 273.638C320.395 262.975 323.439 255.772 325.503 256.477C333.607 259.244 345.042 243.568 356.6 227.724C365.286 215.816 374.041 203.814 381.503 199.477C387.691 195.88 387.412 200.594 387.074 206.295C386.707 212.494 386.27 219.859 394.003 218.977C403.135 217.934 406.249 211.657 408.352 207.419C410.208 203.676 411.277 201.522 415.003 205.961C451.264 249.161 458.689 233.74 466.944 216.592C471.21 207.731 475.699 198.409 484.503 196.477C492.598 194.699 492.55 210.092 492.491 228.688C492.401 257.18 492.288 293.19 521.409 286.477C537.24 282.827 543.29 266.053 548.745 250.927C554.525 234.903 559.636 220.73 575.003 225.977C585.112 229.429 596.437 216.223 608.678 201.949C621.26 187.277 634.81 171.477 649.003 171.477C655.666 171.477 658.307 176.493 660.877 181.374C663.403 186.172 665.86 190.839 672.003 190.477C678.786 190.076 681.684 185.505 684.284 181.404C686.76 177.498 688.966 174.018 694.003 174.977C698.957 175.919 701.026 179.37 703.283 183.137C704.796 185.661 706.394 188.328 709.003 190.477C735.068 211.948 775.994 211.908 793.37 209.445C799.821 208.531 804.41 201.665 809.133 194.597C817.206 182.517 825.673 169.848 844.503 185.305C847.479 187.748 847.307 184.794 847.004 179.618C846.352 168.459 845.097 146.969 873.503 146.977C885.438 146.98 880.984 140.515 876.556 134.089C873.254 129.297 869.967 124.527 873.503 122.477C883.708 116.558 893.913 119.554 904.016 122.52C918.663 126.819 933.096 131.056 947.003 107.977C952.856 98.2627 957.536 113.682 962.778 130.958C968.66 150.338 975.251 172.054 985.003 163.242C997.303 152.127 1009.35 163.752 1022.76 176.698C1035.29 188.793 1049.02 202.041 1065.27 198.977C1075.83 196.983 1081.26 171.184 1086.9 144.391C1092.89 115.92 1099.12 86.3253 1112 82.9766C1118.72 81.2296 1122.13 84.2786 1125.69 87.4688C1129.04 90.4611 1132.52 93.5774 1139 92.9766C1154.26 91.5629 1163.73 77.2784 1172.79 63.6163C1181.17 50.9602 1189.21 38.8381 1201.17 37.9766C1216.56 36.8676 1223.52 46.6658 1232.91 59.871C1235.51 63.531 1238.3 67.4528 1241.5 71.4766C1248.82 80.6696 1251.94 68.5331 1256.23 51.8629C1260.69 34.486 1266.43 12.1828 1279.5 3.97663C1305.48 -12.3255 1306.14 24.1537 1306.88 65.0405C1307.64 107.095 1308.48 153.813 1337.05 152.555C1347.94 152.075 1353.43 138.264 1359.02 124.205C1363.4 113.177 1367.84 101.996 1375 96.9766C1385.21 89.8191 1388.87 95.521 1392.43 101.06C1394.92 104.953 1397.37 108.765 1402 107.977C1425.5 103.977 1440 82.9844 1440 82.9844V127.477C1440 127.477 1440 127.477 1440 127.477V657.812H0V372.313Z" transform="translate(-0.000244141 56.1875)" fill="url(#paint2_linear)"/>
<path fill-rule="evenodd" clip-rule="evenodd" d="M0 223.764V146.637C0 146.637 44.3917 95.8647 107.92 91.6641C160.308 88.2001 197.94 101.501 234.478 114.552L235.219 114.817C271.711 127.853 307.216 140.536 356.531 138.141C412.076 135.444 445.423 118.082 479.326 99.21C480.825 98.3754 482.326 97.5379 483.829 96.6985C516.181 78.6384 549.976 59.772 604.563 53.2096C652.941 47.3937 691.676 51.85 729.932 56.7063C731.571 56.9143 733.208 57.1229 734.846 57.3315C771.465 61.9986 807.964 66.6503 853.33 63.134C901.166 59.4264 935.469 48.0539 969.746 36.6904C971.774 36.0184 973.801 35.3463 975.83 34.6759C1012.13 22.6859 1049.2 11.2623 1102.23 10.4331C1152.32 9.64995 1189.2 21.4727 1224.58 32.8136C1225.96 33.2575 1227.35 33.7008 1228.73 34.1425C1265.53 45.914 1301.26 56.6413 1350.36 53.1794C1408.88 49.0542 1408.5 25.1798 1440 0.632812V0V223.764H0Z" transform="translate(0 541.323)" fill="url(#paint3_linear)"/>
<path fill-rule="evenodd" clip-rule="evenodd" d="M0 223.764V146.637C0 146.637 44.3917 95.8647 107.92 91.6641C160.308 88.2001 197.94 101.501 234.478 114.552L235.219 114.817C271.711 127.853 307.216 140.536 356.531 138.141C412.076 135.444 445.423 118.082 479.326 99.21C480.825 98.3754 482.326 97.5379 483.829 96.6985C516.181 78.6384 549.976 59.772 604.563 53.2096C652.941 47.3937 691.676 51.85 729.932 56.7063C731.571 56.9143 733.208 57.1229 734.846 57.3315C771.465 61.9986 807.964 66.6503 853.33 63.134C901.166 59.4264 935.469 48.0539 969.746 36.6904C971.774 36.0184 973.801 35.3463 975.83 34.6759C1012.13 22.6859 1049.2 11.2623 1102.23 10.4331C1152.32 9.64995 1189.2 21.4727 1224.58 32.8136C1225.96 33.2575 1227.35 33.7008 1228.73 34.1425C1265.53 45.914 1301.26 56.6413 1350.36 53.1794C1408.88 49.0542 1408.5 25.1798 1440 0.632812V0V223.764H0Z" transform="translate(0 541.323)" fill="#18182F"/>
<g opacity="0.2" transform="translate(0 530)">
<path fill-rule="evenodd" clip-rule="evenodd" d="M4.23297e-06 235.087L0 92.187C0 92.187 10.3407 86.0427 34.9562 76.8801C84.0037 58.6233 148.172 40.1862 207.05 40.6035C258.604 40.9689 295.342 56.0756 330.823 70.665L332.008 71.1523C368.058 85.9729 402.984 100.097 452.152 99.7395C512.108 99.303 544.02 76.9612 577.01 53.7976L577.151 53.6985C609.774 30.7926 643.515 7.10116 707.182 6.99843C759.684 6.91372 796.382 22.6093 832.004 37.9853L832.727 38.2973C868.304 53.6549 902.919 68.5968 952.285 69.3817C1007.89 70.2659 1042.28 55.0862 1077.33 38.4354C1078.88 37.699 1080.43 36.9597 1081.99 36.2189C1115.43 20.2786 1150.37 3.62682 1205.27 0.591669C1253.92 -2.09819 1292.29 4.84207 1330.15 12.1508C1331.78 12.4638 1333.4 12.7775 1335.02 13.0911C1371.26 20.1055 1394.5 27.0969 1440 26.5081C1440 21.5486 1440 235.087 1440 235.087H4.23297e-06Z" fill="url(#paint4_linear)"/>
<path fill-rule="evenodd" clip-rule="evenodd" d="M4.23297e-06 235.087L0 92.187C0 92.187 10.3407 86.0427 34.9562 76.8801C84.0037 58.6233 148.172 40.1862 207.05 40.6035C258.604 40.9689 295.342 56.0756 330.823 70.665L332.008 71.1523C368.058 85.9729 402.984 100.097 452.152 99.7395C512.108 99.303 544.02 76.9612 577.01 53.7976L577.151 53.6985C609.774 30.7926 643.515 7.10116 707.182 6.99843C759.684 6.91372 796.382 22.6093 832.004 37.9853L832.727 38.2973C868.304 53.6549 902.919 68.5968 952.285 69.3817C1007.89 70.2659 1042.28 55.0862 1077.33 38.4354C1078.88 37.699 1080.43 36.9597 1081.99 36.2189C1115.43 20.2786 1150.37 3.62682 1205.27 0.591669C1253.92 -2.09819 1292.29 4.84207 1330.15 12.1508C1331.78 12.4638 1333.4 12.7775 1335.02 13.0911C1371.26 20.1055 1394.5 27.0969 1440 26.5081C1440 21.5486 1440 235.087 1440 235.087H4.23297e-06Z" fill="#18182F"/>
</g>
<g opacity="0.5" transform="translate(-0.00012207 561.489)">
<path fill-rule="evenodd" clip-rule="evenodd" d="M5.99178e-05 203.598L0 81.1762C0 81.1762 59.4812 110.445 86.1518 110.251C146.108 109.814 178.02 87.4724 211.01 64.3088L211.151 64.2097C243.773 41.3038 277.515 17.6124 341.182 17.5097C393.684 17.4249 430.382 33.1206 466.004 48.4965L466.727 48.8085C502.304 64.1661 536.919 79.108 586.285 79.8929C641.889 80.7771 676.284 65.5974 711.332 48.9466C712.882 48.2102 714.433 47.4709 715.988 46.7301C749.434 30.7898 784.374 14.138 839.27 11.1029C887.922 8.41304 926.29 15.3533 964.154 22.662C965.776 22.975 967.397 23.2887 969.017 23.6023C1005.26 30.6168 1041.38 37.6081 1086.88 37.0193C1134.86 36.3984 1169.82 27.2576 1204.76 18.124C1206.83 17.5838 1208.89 17.0437 1210.96 16.5053C1247.96 6.87689 1285.68 -2.13728 1338.66 0.44903C1390.66 2.98724 1440 32.2514 1440 32.2514L1440 203.598H5.99178e-05Z" fill="url(#paint5_linear)"/>
<path fill-rule="evenodd" clip-rule="evenodd" d="M5.99178e-05 203.598L0 81.1762C0 81.1762 59.4812 110.445 86.1518 110.251C146.108 109.814 178.02 87.4724 211.01 64.3088L211.151 64.2097C243.773 41.3038 277.515 17.6124 341.182 17.5097C393.684 17.4249 430.382 33.1206 466.004 48.4965L466.727 48.8085C502.304 64.1661 536.919 79.108 586.285 79.8929C641.889 80.7771 676.284 65.5974 711.332 48.9466C712.882 48.2102 714.433 47.4709 715.988 46.7301C749.434 30.7898 784.374 14.138 839.27 11.1029C887.922 8.41304 926.29 15.3533 964.154 22.662C965.776 22.975 967.397 23.2887 969.017 23.6023C1005.26 30.6168 1041.38 37.6081 1086.88 37.0193C1134.86 36.3984 1169.82 27.2576 1204.76 18.124C1206.83 17.5838 1208.89 17.0437 1210.96 16.5053C1247.96 6.87689 1285.68 -2.13728 1338.66 0.44903C1390.66 2.98724 1440 32.2514 1440 32.2514L1440 203.598H5.99178e-05Z" fill="#18182F"/>
</g>
<path fill-rule="evenodd" clip-rule="evenodd" d="M1315.81 0.0359796C1312.69 0.393157 1309.31 4.48012 1309.43 7.60873C1309.73 15.289 1315.14 14.7228 1319.01 12.9079C1322.81 11.1285 1323.98 7.49734 1322.52 4.09181C1321.31 1.27809 1318.38 -0.259308 1315.81 0.0359796ZM135.81 140.036C132.695 140.393 129.309 144.48 129.43 147.609C129.729 155.289 135.141 154.723 139.013 152.908C142.809 151.129 143.976 147.497 142.517 144.092C141.311 141.278 138.384 139.741 135.81 140.036ZM230.022 172.416C230.101 171.757 230.915 170.779 231.552 170.601C232.078 170.453 232.615 170.682 232.764 171.239C232.944 171.913 232.59 172.721 231.77 173.223C230.933 173.736 229.829 174.034 230.022 172.416ZM1.55164 221.059C0.915039 221.237 0.101013 222.215 0.0222775 222.874C-0.17096 224.492 0.933349 224.194 1.77002 223.681C2.59021 223.179 2.94391 222.371 2.76355 221.697C2.6145 221.14 2.07794 220.911 1.55164 221.059ZM438.118 118.502C439.536 117.213 442.787 117.187 444.184 118.502C445.339 119.589 445.774 121.562 444.931 123.233C443.911 125.255 441.749 126.139 439.417 125.066C437.039 123.971 434.637 121.665 438.118 118.502ZM832.326 39.0078C831.961 37.1247 829.307 35.2464 827.404 35.4635C822.731 35.9965 823.332 39.271 824.623 41.5494C825.888 43.7832 828.159 44.3287 830.168 43.2835C831.828 42.4199 832.628 40.5646 832.326 39.0078ZM1387.4 55.4635C1389.31 55.2464 1391.96 57.1247 1392.33 59.0078C1392.63 60.5646 1391.83 62.4199 1390.17 63.2835C1388.16 64.3287 1385.89 63.7832 1384.62 61.5494C1383.33 59.271 1382.73 55.9965 1387.4 55.4635ZM573.974 125.748C574.132 124.225 572.678 123.211 571.29 123.815C567.883 125.3 567.584 127.956 567.99 129.611C568.388 131.234 569.866 131.198 571.511 129.865C572.87 128.763 573.843 127.007 573.974 125.748ZM279.332 193.545C281.241 193.116 283.675 194.831 283.841 196.791C283.977 198.411 282.991 200.463 281.255 201.552C279.155 202.871 276.961 202.529 275.941 200.292C274.899 198.009 274.645 194.598 279.332 193.545Z" transform="translate(40 60)" fill="url(#paint6_linear)"/>
<defs>
<linearGradient id="paint0_linear" x2="1" gradientUnits="userSpaceOnUse" gradientTransform="matrix(1496.87 397.359 -1496.87 5245.58 725.189 -2565.83)">
<stop stop-color="#0075FF"/>
<stop offset="1" stop-color="#FF005C"/>
</linearGradient>
<linearGradient id="paint1_linear" x2="1" gradientUnits="userSpaceOnUse" gradientTransform="matrix(1496.87 388.758 -1496.87 5132.03 725.189 -2510.29)">
<stop stop-color="#0075FF"/>
<stop offset="1" stop-color="#FF005C"/>
</linearGradient>
<linearGradient id="paint2_linear" x2="1" gradientUnits="userSpaceOnUse" gradientTransform="matrix(1496.87 444.477 -1496.87 5867.59 725.19 -2870.08)">
<stop stop-color="#0075FF"/>
<stop offset="1" stop-color="#FF005C"/>
</linearGradient>
<linearGradient id="paint3_linear" x2="1" gradientUnits="userSpaceOnUse" gradientTransform="matrix(2738.46 281.04 -2738.46 3710.04 729.376 -1866.97)">
<stop stop-color="#00FF75"/>
<stop offset="1" stop-color="#FF00A8"/>
</linearGradient>
<linearGradient id="paint4_linear" x2="1" gradientUnits="userSpaceOnUse" gradientTransform="matrix(2714.7 456.726 -2971.59 3526.07 1453.42 -1907.57)">
<stop stop-color="#00FF75"/>
<stop offset="1" stop-color="#FF00A8"/>
</linearGradient>
<linearGradient id="paint5_linear" x2="1" gradientUnits="userSpaceOnUse" gradientTransform="matrix(2714.7 456.726 -2971.59 3526.07 1087.42 -1897.06)">
<stop stop-color="#00FF75"/>
<stop offset="1" stop-color="#FF00A8"/>
</linearGradient>
<linearGradient id="paint6_linear" x2="1" gradientUnits="userSpaceOnUse" gradientTransform="matrix(1447.38 206.276 -1447.38 2723.07 701.212 -1331.97)">
<stop stop-color="#0075FF"/>
<stop offset="1" stop-color="#FF005C"/>
</linearGradient>
</defs>
</svg>
