<svg width="16" height="18" viewBox="0 0 16 18" fill="none" xmlns="http://www.w3.org/2000/svg">
<path opacity="0.8" fill-rule="evenodd" clip-rule="evenodd" d="M10 1H3C2.46957 1 1.96086 1.21071 1.58578 1.58578C1.21071 1.96086 1 2.46957 1 3V15C1 15.5304 1.21071 16.0391 1.58578 16.4142C1.96086 16.7893 2.46957 17 3 17H13C13.5304 17 14.0391 16.7893 14.4142 16.4142C14.7893 16.0391 15 15.5304 15 15V6C15 4.67392 14.4732 3.40216 13.5355 2.46448C12.5979 1.5268 11.3261 1 10 1ZM13 15H3V3H8V8H13V15ZM10 6V3C10.7956 3 11.5587 3.31608 12.1213 3.87869C12.6839 4.4413 13 5.20435 13 6H10Z" fill="#999AB0" stroke="white" stroke-width="0.5"/>
</svg>
