<svg width="18" height="18" viewBox="0 0 18 18" fill="none" xmlns="http://www.w3.org/2000/svg">
<path opacity="0.8" fill-rule="evenodd" clip-rule="evenodd" d="M9 1C7.41775 1 5.87102 1.46918 4.55542 2.34824C3.23983 3.22729 2.21445 4.47673 1.60895 5.93854C1.00345 7.40035 0.845069 9.00888 1.15375 10.5607C1.46243 12.1126 2.22432 13.538 3.34314 14.6569C4.46196 15.7757 5.88743 16.5376 7.43927 16.8463C8.99112 17.155 10.5997 16.9965 12.0615 16.391C13.5233 15.7855 14.7727 14.7602 15.6517 13.4446C16.5308 12.129 17 10.5823 17 9C17 6.87827 16.1572 4.84343 14.6569 3.34314C13.1566 1.84285 11.1217 1 9 1ZM9 15C7.81332 15 6.65326 14.6481 5.66657 13.9888C4.67987 13.3295 3.91086 12.3925 3.45673 11.2961C3.0026 10.1997 2.88379 8.99334 3.1153 7.82945C3.34681 6.66557 3.91827 5.59647 4.75739 4.75735C5.5965 3.91824 6.66559 3.34681 7.82947 3.1153C8.99336 2.88378 10.1997 3.0026 11.2961 3.45673C12.3924 3.91085 13.3295 4.67989 13.9888 5.66658C14.6481 6.65328 15 7.81331 15 9C15 10.5913 14.3678 12.1174 13.2426 13.2426C12.1174 14.3679 10.5913 15 9 15ZM9 5C8.80222 5 8.60891 5.05865 8.44446 5.16853C8.28001 5.27841 8.1518 5.43458 8.07611 5.61731C8.00043 5.80004 7.98064 6.0011 8.01923 6.19508C8.05782 6.38906 8.15306 6.56726 8.29291 6.70711C8.43276 6.84696 8.61095 6.9422 8.80494 6.98079C8.99892 7.01937 9.19997 6.99956 9.38269 6.92387C9.56542 6.84819 9.7216 6.72002 9.83149 6.55557C9.94137 6.39112 10 6.19778 10 6C10 5.73478 9.89463 5.48043 9.7071 5.29289C9.51956 5.10536 9.26522 5 9 5ZM9.10999 9H8.90003C8.78231 8.99868 8.66548 9.02072 8.55634 9.06485C8.4472 9.10898 8.34793 9.17433 8.26423 9.25711C8.18052 9.33989 8.11402 9.43845 8.06867 9.54709C8.02332 9.65573 8 9.77228 8 9.89V12.11C8 12.2277 8.02332 12.3443 8.06867 12.4529C8.11402 12.5615 8.18052 12.6601 8.26423 12.7429C8.34793 12.8257 8.4472 12.891 8.55634 12.9352C8.66548 12.9793 8.78231 13.0013 8.90003 13H9.10999C9.34603 13 9.57242 12.9062 9.73932 12.7393C9.90623 12.5724 10 12.346 10 12.11V9.89C10.0001 9.65906 9.91048 9.43711 9.75 9.27104C9.58953 9.10497 9.37082 9.00778 9.14002 9H9.10999Z" fill="#999AB0" stroke="#F7F8FC" stroke-width="0.5"/>
</svg>
