<svg width="162" height="36" viewBox="0 0 162 36" fill="none" xmlns="http://www.w3.org/2000/svg">
<path fill-rule="evenodd" clip-rule="evenodd" d="M32.0471 33.5301L20.2988 -5.99854e-07H11.703L9.43094e-07 33.5301H7.57517L9.97933 25.5815H22.0678L24.472 33.5301H32.0471ZM11.7483 19.6429C14.1067 11.9534 15.5356 7.13404 16.035 5.18468C16.1557 5.733 16.3561 6.47918 16.6359 7.42321C16.9158 8.36725 18.167 12.4405 20.3895 19.6429H11.7487H11.7483Z" transform="translate(0 1.98413)" fill="#C9CEDA"/>
<path fill-rule="evenodd" clip-rule="evenodd" d="M4.49053 4.31695C7.4845 1.43898 11.6879 4.74884e-07 17.1007 4.74884e-07H27.5102V33.3929H18.1213C12.255 33.3929 7.76812 31.9311 4.66071 29.0075C1.5533 26.084 -0.000272337 21.8737 -1.25508e-06 16.3767C-1.25508e-06 11.2148 1.49684 7.19492 4.49053 4.31695ZM17.4636 27.5458H20.4801V5.80139H16.738C10.4481 5.80139 7.30308 9.38731 7.30294 16.5592C7.30294 23.8837 10.6898 27.5459 17.4636 27.5456V27.5458Z" transform="translate(28.6963 2.14697)" fill="#C9CEDA"/>
<path fill-rule="evenodd" clip-rule="evenodd" d="M6.91746 22.338H18.1667V16.5594H6.91746V7.9486H19.0059V2.14701H-2.97819e-07V35.5399H6.91746V22.338ZM25.6312 6.82923C26.8861 6.82923 27.8273 6.52852 28.4548 5.9271C29.0824 5.32568 29.3962 4.48437 29.3962 3.40315C29.3962 1.13452 28.1412 0.000135413 25.6312 -1.08741e-06C23.1213 -0.000137587 21.8663 1.13425 21.8663 3.40315C21.8663 5.68734 23.1213 6.82937 25.6312 6.82923ZM29.0786 10.0041H22.1611V35.5399H29.0786V10.0041ZM31.0763 35.5399H38.9241L44.2767 26.792L49.6065 35.5399H57.4765L48.8358 22.4973L57.0914 10.0035H49.2436L44.2767 18.1349L39.3537 10.0041H31.5059L39.6709 22.4979L31.0763 35.5399ZM71.6093 15.8855C72.471 16.8221 72.9171 18.1507 72.9475 19.8714H63.2404C63.3611 18.1507 63.8374 16.8221 64.6692 15.8855C65.5011 14.949 66.6502 14.4808 68.1166 14.4809C69.5829 14.4809 70.7471 14.9491 71.6093 15.8855ZM74.1269 35.5514C75.4715 35.2654 76.7746 34.8088 78.005 34.1924V28.802C76.6407 29.4606 75.2116 29.9735 73.7412 30.3323C72.3202 30.6588 70.8667 30.8198 69.4092 30.812C67.4439 30.812 65.9167 30.2562 64.8278 29.1445C63.7389 28.0329 63.1568 26.4873 63.0816 24.508H79.4339V21.1275C79.4339 17.5036 78.436 14.6638 76.4401 12.6081C74.4443 10.5524 71.6547 9.52456 68.0712 9.52456C64.3211 9.52456 61.384 10.6932 59.2599 13.0305C57.1359 15.3678 56.0737 18.6759 56.0734 22.9547C56.0734 27.1117 57.2226 30.3246 59.5208 32.5935C61.819 34.8624 65.0094 35.9969 69.0919 35.9969C70.781 36.0239 72.4683 35.8746 74.1269 35.5514ZM98.4191 32.2281H98.7139L100.052 35.5399H105.358V-1.08741e-06H98.4191V8.1769C98.4406 9.88708 98.6152 11.5918 98.9406 13.2705H98.7139C97.0356 10.7733 94.6012 9.5247 91.4108 9.52456C88.3717 9.52456 85.9861 10.6932 84.2542 13.0305C82.5223 15.3678 81.6566 18.6301 81.6573 22.8175C81.6573 26.9444 82.5078 30.1726 84.2089 32.5022C85.9099 34.8319 88.2497 35.9968 91.2284 35.9969C94.449 35.9969 96.8455 34.7406 98.4181 32.2281H98.4191ZM89.9593 28.563C89.0974 27.3072 88.6665 25.4229 88.6665 22.9099C88.6665 20.3969 89.0934 18.4821 89.9473 17.1654C90.8012 15.8487 91.9995 15.1902 93.5421 15.1898C95.4321 15.1898 96.7967 15.7836 97.6359 16.9711C98.4752 18.1587 98.8948 20.123 98.8946 22.864V23.6165C98.8187 26.0987 98.3689 27.8575 97.5453 28.8927C96.7216 29.9279 95.425 30.4456 93.6555 30.4459C92.0533 30.4463 90.8212 29.8184 89.9593 28.5622V28.563Z" transform="translate(56.1445)" fill="white"/>
</svg>
