<svg width="54" height="64" viewBox="0 0 54 64" fill="none" xmlns="http://www.w3.org/2000/svg">
<path d="M3.08 41H17.88C22 41 25.08 37.44 25.08 33.04C25.08 28.24 21.44 26.48 18.8 26.48V26.24C21.64 26.12 24 24.52 24 20.24C24 15.92 21.24 13.08 16.64 13.08H3.08V41ZM9.16 29.48H16.16C17.76 29.48 18.76 30.4 18.76 32V33.36C18.76 34.96 17.76 35.88 16.16 35.88H9.16V29.48ZM9.16 18.2H15.2C16.8 18.2 17.76 19.16 17.76 20.76V21.96C17.76 23.56 16.8 24.52 15.2 24.52H9.16V18.2ZM40.9597 41.48C48.3597 41.48 53.2397 36.52 53.2397 27.04C53.2397 17.56 48.3597 12.6 40.9597 12.6C33.5597 12.6 28.6797 17.56 28.6797 27.04C28.6797 36.52 33.5597 41.48 40.9597 41.48ZM40.9597 36.08C37.3197 36.08 35.1197 33.56 35.1197 29.12V24.96C35.1197 20.52 37.3197 18 40.9597 18C44.5997 18 46.7997 20.52 46.7997 24.96V29.12C46.7997 33.56 44.5997 36.08 40.9597 36.08ZM14.28 75.48C21.68 75.48 26.56 70.52 26.56 61.04C26.56 51.56 21.68 46.6 14.28 46.6C6.88 46.6 2 51.56 2 61.04C2 70.52 6.88 75.48 14.28 75.48ZM14.28 70.08C10.64 70.08 8.44 67.56 8.44 63.12V58.96C8.44 54.52 10.64 52 14.28 52C17.92 52 20.12 54.52 20.12 58.96V63.12C20.12 67.56 17.92 70.08 14.28 70.08ZM48.7547 75H55.9147L45.6747 58.56L55.0747 47.08H48.1947L41.9147 54.96L37.9547 60.36H37.7147V47.08H31.6347V75H37.7147V67.24L41.3547 62.84L48.7547 75Z" transform="translate(-2 -12)" fill="white"/>
</svg>
