<svg width="160" height="69" viewBox="0 0 160 69" fill="none" xmlns="http://www.w3.org/2000/svg">
<path d="M0.9 11.45C0.9 17.55 5.675 20.35 10.35 20.35C12.2 20.35 13.925 19.95 15.425 19.225V15.55C14.375 16.5 12.725 17 10.925 17C7.875 17 4.725 15.3 4.75 11.45C4.75 7.225 7.85 5.475 10.925 5.475C12.55 5.475 14.175 5.975 15.3 6.85V3.275C13.8 2.525 12.05 2.15 10.3 2.15C5.625 2.15 0.925 5.05 0.9 11.45ZM20.9074 9.8V8H17.8324V20H21.3074V12.95C22.0324 11.525 23.8574 10.8 25.7574 11.125V7.75C23.5074 7.525 21.7574 8.475 20.9074 9.8ZM26.6545 14C26.6545 18.2 29.8045 20.35 33.2795 20.35C36.7795 20.35 39.9045 18.2 39.9045 14C39.9045 9.8 36.7795 7.65 33.2795 7.65C29.8045 7.65 26.6545 9.8 26.6545 14ZM36.3795 14C36.3795 15.85 35.2795 17.25 33.2795 17.25C31.3045 17.25 30.2045 15.85 30.2045 14C30.2045 12.15 31.3045 10.75 33.2795 10.75C35.2795 10.75 36.3795 12.15 36.3795 14ZM56.8309 8L54.6309 16.225L52.2559 8H48.9559L46.5559 16.225L44.3809 8H40.6809L44.5309 20H48.2309L50.6059 12.175L52.9809 20H56.6559L60.5059 8H56.8309ZM65.3654 9.525V8H62.2904V20H65.7654V12.175C66.2654 11.45 67.2154 10.65 68.4404 10.65C69.7904 10.65 70.7654 11.4 70.7654 13.025V20H74.2404V12.575C74.2404 9.8 72.5154 7.65 69.3654 7.65C67.6404 7.65 66.2904 8.45 65.3654 9.525ZM17.325 24.5L11.35 33.6L5.35 24.5H1.875V42H5.625V31.2L10.25 38.25H12.425L17.05 31.225V42H20.8V24.5H17.325ZM23.1877 36C23.1877 40.175 26.3377 42.35 30.1377 42.35C31.9377 42.35 33.4127 42.075 34.5377 41.6V38.875C33.5127 39.325 32.2877 39.6 30.9127 39.6C28.9377 39.6 27.0877 38.875 26.6877 37.125H35.1377C35.9377 33.575 34.3377 29.65 29.3627 29.65C26.6627 29.65 23.1877 31.475 23.1877 36ZM32.0127 34.875H26.6627C26.7127 33.225 28.0127 32.3 29.4877 32.3C31.6627 32.3 32.1377 34.05 32.0127 34.875ZM46.6846 24.5V31.275C45.9096 30.425 44.6346 29.65 42.7346 29.65C38.9096 29.65 36.8596 32.725 36.8596 36C36.8596 39.275 38.9096 42.35 42.7346 42.35C44.9346 42.35 46.3096 41.325 47.0846 40.25V42H50.1346V24.5H46.6846ZM46.6846 34.575V37.425C46.2096 38.475 45.0846 39.425 43.5596 39.425C41.5846 39.425 40.4096 37.875 40.4096 36C40.4096 34.125 41.5846 32.575 43.5596 32.575C45.0846 32.575 46.2096 33.525 46.6846 34.575ZM56.5863 42V30H53.1113V42H56.5863ZM56.8863 26.025C56.8863 24.675 55.9363 24.075 54.8363 24.075C53.7613 24.075 52.8113 24.675 52.8113 26.025C52.8113 27.4 53.7613 28 54.8363 28C55.9363 28 56.8863 27.4 56.8863 26.025ZM70.3055 38.9V35.075C70.3055 31.125 68.0055 29.65 64.4055 29.65C62.5555 29.65 60.7305 30.125 59.7555 30.45V33.45C60.8805 33 62.3555 32.55 64.0055 32.55C65.8805 32.55 66.8305 33.375 66.8305 34.575V35C65.9805 34.8 64.9305 34.675 63.9805 34.675C61.5805 34.675 58.7055 35.625 58.7055 38.675C58.7055 41.05 60.6555 42.35 62.9055 42.35C64.6805 42.35 66.0555 41.8 67.2305 40.875C67.7305 41.775 68.6555 42.225 69.8805 42.225C70.5555 42.225 71.2555 42.075 71.8055 41.875V39.6C71.5805 39.675 71.3555 39.7 71.1555 39.7C70.7055 39.7 70.3055 39.525 70.3055 38.9ZM64.7805 36.75C65.5055 36.75 66.3055 36.9 66.8305 37.025V38.9C66.0305 39.6 65.1055 39.875 64.1305 39.875C63.0805 39.875 62.2555 39.3 62.2555 38.4C62.2555 37.175 63.5055 36.75 64.7805 36.75Z" transform="translate(85 12)" fill="white"/>
<path d="M13.1061 22.7819C11.1136 21.639 7.87702 20.0464 6.50779 19.393L5.88252 15.6693C7.35529 16.8836 9.89089 18.5623 10.9746 19.2499C8.95009 17.6135 7.32936 15.4655 6.77204 14.596C8.48989 12.0974 10.1512 10.4199 10.7672 9.89345L10.6494 12.2672C11.5606 13.2518 13.5967 15.2642 14.2219 15.8341C14.8354 16.3931 15.6223 16.0523 15.7556 15.9326L15.7625 15.926C15.7605 15.9281 15.7582 15.9303 15.7556 15.9326L13.5198 18.0705C12.2631 17.033 10.8367 15.5638 10.3016 15.037L10.3366 13.6054C9.71702 14.3057 8.9102 15.6024 8.64176 16.0643C11.4027 20.1818 16.2289 22.7037 18.2969 23.4501C18.1129 23.7668 18.3373 25.0567 18.4724 25.6622C19.8508 25.0276 21.975 24.7021 22.8649 24.6187C21.2343 22.9444 18.8801 21.761 17.9068 21.3787L19.6487 21.1243C21.6788 24.0307 25.1447 25.8385 26.6238 26.3789C22.2826 25.8946 19.7736 27.1563 19.0618 27.8477C19.1202 27.5645 18.5207 26.5696 18.2135 26.1075C17.3413 25.4752 15.0985 23.9249 13.1061 22.7819Z" fill="white"/>
<path d="M21.7394 21.0698C16.511 14.7982 13.4977 11.8996 12.6446 11.2343L13.2036 7.53C13.4578 8.09813 15.5836 10.7867 16.6147 12.06C15.0274 9.67149 14.2708 7.63635 14.091 6.91734C16.761 8.44881 18.0654 6.82167 18.3837 5.81666C18.3254 6.64091 18.0525 8.39788 17.4283 8.83168C16.8043 9.26549 15.855 9.13889 15.4585 9.02134C15.9479 10.1599 17.2959 12.8993 18.7714 14.7487C20.247 16.5981 21.8241 18.1053 22.4281 18.6277L22.1133 20.4265C22.4415 20.3949 23.299 20.4204 24.1022 20.7756C24.9053 21.1308 26.8157 23.9157 27.6705 25.2637C25.0471 22.281 22.8324 22.3126 22.053 22.7014L21.7394 21.0698Z" fill="white"/>
<path fill-rule="evenodd" clip-rule="evenodd" d="M20.1648 3.20927L18.7514 6.55538L24.7755 18.5885L24.3343 19.919C25.4853 19.9194 28.3327 20.1935 30.5137 21.2861C31.174 21.665 31.4363 22.2264 31.5165 22.6502C31.527 22.8022 31.5349 22.9413 31.5402 23.0626C31.5513 22.9584 31.5476 22.8145 31.5165 22.6502C31.4404 21.5588 31.221 19.7994 30.7731 19.1255C30.5234 18.8239 29.6103 18.6124 29.1848 18.5445L29.9039 17.3073C29.3972 15.7411 28.2387 11.9445 27.6571 9.28837C27.0756 6.6322 26.6242 4.20908 26.4712 3.32954L28.4459 0.503329C27.2252 0.660898 23.8601 1.42268 20.1648 3.20927ZM25.3508 17.5989L26.1006 15.8515C24.6202 13.4849 21.6099 8.03666 21.4116 5.17807C21.4363 4.76994 24.3427 3.86814 25.7927 3.46826L23.9121 6.01847L27.8588 18.3117L25.3508 17.5989Z" fill="white"/>
<path d="M35.6871 22.6701C34.9141 19.4291 32.1011 17.336 30.7913 16.6947L31.2227 15.9525C30.2392 10.0568 29.0543 4.78929 28.585 2.89246L31.5945 0C31.012 3.83602 32.189 11.0521 32.8502 14.1807L32.1543 15.0352C32.9407 15.3278 34.1741 16.4357 34.6927 16.953C35.6472 14.1223 36.8051 7.87151 37.2647 5.09997L41.1996 2.67233C39.7686 4.86024 37.5708 13.6772 36.6507 17.8122L35.7997 18.2479C36.0411 18.5183 36.5506 19.1273 36.6578 19.3999C36.765 19.6726 36.0553 21.6936 35.6871 22.6701Z" fill="white"/>
<path d="M33.6179 5.31761C33.4569 5.59472 34.1415 11.5782 34.5039 14.5353C34.5831 7.08529 35.7254 3.13931 36.2866 2.09759C35.3346 2.78319 33.4219 4.21533 33.3865 4.45898C33.3512 4.70263 33.8942 4.72821 34.1701 4.71053C34.0532 4.79743 33.7791 5.04049 33.6179 5.31761Z" fill="white"/>
<path d="M42.696 3.06883C41.1657 8.26142 38.5254 14.5108 37.3965 16.9864L40.4265 15.8871C43.2098 8.7213 45.9017 5.17158 46.8998 4.29245C47.3567 4.23779 49.4685 5.28199 50.4674 5.81092L48.8958 6.22917C47.6837 9.22888 43.347 15.319 41.3301 17.9892L39.8527 18.1314C40.2465 18.8631 40.9704 20.5277 40.7157 21.3316C40.461 22.1357 39.7851 23.0853 39.479 23.4595C40.4419 22.4503 42.4426 20.3031 42.7418 19.7885C43.0409 19.2739 42.6624 18.4014 42.4357 18.0295L44.128 17.7465C47.2818 11.9544 50.9063 7.07447 52.3243 5.35852L53.8803 5.19535C51.3193 3.56798 48.6608 2.44337 47.6518 2.08449C46.402 3.32066 44.4022 6.53278 43.5585 7.98434C44.3946 6.0886 45.9805 3.01733 46.6689 1.71864L42.696 3.06883Z" fill="white"/>
<path d="M52.8226 10.3291C51.1468 11.1098 49.2817 11.3552 48.5586 11.3803C49.0015 11.8982 48.732 14.0531 48.5419 15.0658C49.0633 14.6258 51.1776 14.3782 52.1697 14.3094C52.0782 13.0956 52.5668 11.1501 52.8226 10.3291Z" fill="white"/>
<path d="M56.8103 10.439L60.7538 10.8535C56.9419 13.2066 53.6043 16.2979 52.4119 17.5495C56.4296 13.8365 60.0163 11.97 61.3072 11.5009C62.8856 13.3564 64.2339 15.3791 64.7108 16.1584L62.0281 16.2032L57.3035 19.3304C61.2196 16.7796 64.0023 16.3609 64.9234 16.4783C66.1138 18.2698 67.3648 21.4199 67.8414 22.771L64.7089 21.304C61.9432 22.0402 55.4789 25.0712 52.5927 26.4947C51.3991 25.9201 49.0432 24.7623 49.1689 24.7288C53.8109 24.3299 60.0328 20.9311 62.5634 19.2816L64.1729 19.9408C64.055 19.5037 63.2977 18.3611 62.9338 17.8445C61.0957 17.9852 59.1405 18.7443 57.3834 19.6836L58.0273 20.5726L55.5085 22.0726C55.5015 22.077 55.4946 22.0812 55.4877 22.085L55.5085 22.0726C55.7151 21.9404 55.8997 21.538 55.5361 20.7744C54.2194 21.6249 53.1239 22.4886 52.4367 23.1062L48.7367 22.5015C50.5034 21.738 52.512 20.484 54.3603 19.1802C53.9416 18.7488 53.6616 18.5912 53.4825 18.5744L53.2124 18.8005C53.2308 18.6735 53.3095 18.5581 53.4825 18.5744L55.4109 16.9604L56.0977 17.9084C57.5337 16.8201 58.7627 15.7983 59.5431 15.1077L61.4822 15.4282C61.375 15.1556 60.2691 13.8967 59.7296 13.3012C54.2868 15.3522 50.1307 19.76 48.7331 21.7076L46.5926 21.7335C46.6385 22.1118 46.6601 22.9203 46.3795 23.1288C45.4563 24.0773 42.454 26.1117 41.0682 27.0104C44.3159 24.4393 44.3365 22.111 43.9408 21.2681L45.8455 21.305C50.3386 17.2312 55.0274 12.3636 56.8103 10.439Z" fill="white"/>
<path d="M64.6698 23.6569C58.5905 26.3458 52.7678 27.7169 50.6164 28.0665L49.0358 27.3577C48.6716 29.6299 46.6981 32.0653 45.757 32.999C47.7532 32.0326 51.6606 32.2504 53.3646 32.4801L54.2275 30.9955C51.969 31.8643 49.7347 32.1355 48.8998 32.1626C50.1998 30.2689 50.7062 28.7118 50.942 28.6491C51.1305 28.5989 52.5392 29.3674 53.2199 29.7578C55.2685 28.6102 62.5365 26.8321 65.9144 26.0864C66.4094 26.4231 66.8223 28.8286 66.9669 29.9892L64.9612 28.6408C63.2927 28.9594 59.81 29.6186 59.2274 29.7067C58.6448 29.7948 57.0853 29.0498 56.3783 28.6663L56.5959 31.0345L59.5847 32.7489C58.97 32.3435 58.7429 30.6164 58.7062 29.8035L60.9111 31.2663C63.7673 30.7404 66.8115 30.7139 67.9765 30.7663L69.8042 32.0786C69.6929 30.1673 69.2862 28.2844 69.0967 27.5819L66.2076 25.9247L68.6049 25.9142L64.6698 23.6569Z" fill="white"/>
<path fill-rule="evenodd" clip-rule="evenodd" d="M65.954 33.1032C61.5618 33.8037 55.1903 33.6813 52.5537 33.5325L51.5441 32.7554C51.7461 33.5048 49.5121 35.1089 48.3696 35.8173C49.5225 35.8451 51.2382 37.8147 51.952 38.7958C54.6975 38.7345 60.7528 39.9952 63.4373 40.6331L64.1094 41.8765C66.0507 40.4563 68.8454 37.423 70 36.0839C69.3978 35.4586 68.478 34.4816 67.9618 33.8748C67.9506 33.6662 67.8693 33.476 67.6652 33.359C67.461 33.2418 67.626 33.48 67.9618 33.8748C67.9791 34.1953 67.8307 34.5597 67.7086 34.7695L65.954 33.1032ZM50.5635 36.6138C50.9168 36.3106 51.9329 35.4462 53.1704 34.4141L55.0324 36.01C57.3333 35.7462 62.9232 35.3237 66.8767 35.7439C66.1975 36.6079 64.4712 38.5342 63.0008 39.3271L62.1371 37.842C58.6944 37.6707 51.5597 37.1852 50.5635 36.6138Z" fill="white"/>
<path d="M63.9481 42.8397L68.1729 44.1413C67.9424 45.3294 67.0868 47.4449 66.6413 48.4627C66.6278 48.5042 66.6109 48.5428 66.5905 48.5782C66.6067 48.5415 66.6236 48.5029 66.6413 48.4627C66.9889 47.3869 65.0175 44.3002 63.9481 42.8397Z" fill="white"/>
<path d="M64.901 46.6854C65.1541 46.2499 63.1987 43.4435 62.1893 42.0947C57.1644 41.3238 52.5462 39.9065 50.8654 39.2943L50.377 38.4204C50.3143 38.6043 49.7489 39.0894 47.989 39.5578C46.2289 40.0263 42.2857 37.562 40.5341 36.2715C41.5245 37.0815 44.4218 39.2273 48.088 41.3302C48.5662 41.6045 50.2202 41.0136 50.9875 40.684L51.3762 41.5007C60.2175 43.933 64.0766 45.9706 64.901 46.6854Z" fill="white"/>
<path fill-rule="evenodd" clip-rule="evenodd" d="M64.0726 48.4535C59.1156 46.5604 53.8058 43.7961 51.7705 42.6507C50.5761 42.9686 49.8188 43.5327 49.5894 43.775C49.6428 44.5974 51.0658 46.4913 51.7707 47.3355C50.1891 46.2172 49.2852 45.8219 49.0311 45.7641L48.8992 44.9627L46.5152 45.1787C46.6303 46.7688 47.4026 48.358 47.8515 49.0855C47.8781 49.1361 47.9091 49.1851 47.9452 49.2322C47.916 49.1882 47.8847 49.1392 47.8515 49.0855C47.6116 48.6279 47.7436 48.0478 47.8518 47.793L49.2718 47.7496L49.4956 48.7358C53.631 50.5801 58.0923 54.5906 59.8061 56.3655L59.8265 58.1587C61.7526 56.3075 63.7335 53.4936 64.4832 52.3181L64.1098 51.2463L65.0142 51.6329L64.0726 48.4535ZM59.9848 54.6865C60.7454 53.7591 62.3325 51.7443 62.598 51.1049C62.8634 50.4653 54.7425 46.4888 50.6488 44.5806C51.1458 46.1634 53.6109 49.9747 59.495 52.5581C59.6376 52.587 59.881 53.9891 59.9848 54.6865Z" fill="white"/>
<path d="M49.4425 52.5983C50.6043 53.1592 52.6552 53.1655 53.5354 53.0985C53.0522 53.9298 53.1888 56.1328 53.3175 57.1303C52.5771 56.7585 50.2906 56.4719 49.2399 56.375C49.4778 55.5087 49.4742 53.4962 49.4425 52.5983Z" fill="white"/>
<path d="M43.2813 48.8002C45.9468 53.8132 50.0225 59.4853 51.7272 61.6947L50.0317 65.8687C49.5692 64.6534 48.3469 61.9112 47.7936 60.6921C48.4873 62.5151 48.9526 64.678 49.0986 65.5315C46.8678 66.6272 44.1726 67.3027 43.104 67.5035L43.708 66.4643C43.6276 64.0429 41.6935 60.7121 40.7366 59.3493C41.9398 59.5646 43.7262 60.3384 44.4688 60.6984C44.5098 61.7249 45.1484 62.9577 45.4624 63.4458L44.6859 64.7819C45.6915 64.5141 47.3204 63.8296 48.009 63.5209C48.4455 60.393 44.1557 54.2285 41.9562 51.5373L42.7347 49.7405C40.9826 49.7383 39.211 49.0609 38.5443 48.7224C38.953 50.4876 40.8429 53.186 41.7367 54.3146L40.062 53.8819C39.4468 51.1007 37.4866 47.038 36.5833 45.3541C38.6768 46.8718 42.21 47.4819 43.7148 47.5973L43.2813 48.8002Z" fill="white"/>
<path d="M41.2861 65.6031C39.4702 59.4939 38.2044 52.3544 37.7986 49.5483C37.898 50.2915 36.6129 51.9694 35.9579 52.7154C37.3647 57.1513 37.0668 59.9496 36.5012 60.351C36.0489 60.6722 34.7811 60.53 34.2037 60.4187L35.1795 59.197C33.5758 47.786 33.9728 43.6368 33.7963 36.8934C32.0399 56.1424 33.036 55.1523 32.969 62.086L32.095 62.9042C33.7429 62.9257 37.0749 62.8839 37.2191 62.5443C37.5136 61.7631 37.3365 59.1806 37.2111 57.987C38.1374 61.4215 38.5103 66.76 38.5812 69L41.2861 65.6031Z" fill="white"/>
<path fill-rule="evenodd" clip-rule="evenodd" d="M30.3272 65.7171C30.3965 63.0076 30.7152 56.5703 31.4356 52.4967L32.0089 51.9678L30.5741 50.5509C30.0786 50.2226 28.5541 51.055 26.4212 57.0103C26.7359 55.7832 27.5268 52.9598 28.1728 51.4828L26.9912 49.2875L25.0093 50.5261L25.795 50.3169C25.7177 52.164 24.8488 57.6129 21.9919 64.631L20.84 65.3559C21.768 65.7782 24.1926 66.7642 26.4673 67.33L27.2263 66.7097L27.0229 67.5168C27.4969 67.3489 28.8214 66.7537 30.3272 65.7171ZM23.5998 64.0357C24.5898 64.4276 26.7194 65.205 27.3189 65.1793C28.1989 64.945 28.9643 57.8533 29.237 54.3367L29.8966 53.6592L29.1802 52.7206C28.2467 53.5267 26.1573 56.6874 25.2674 62.8808L23.5998 64.0357Z" fill="white"/>
<path d="M19.6781 61.9841L15.9143 62.8603C17.3375 61.143 18.6712 59.0311 19.1601 58.1899C17.2918 61.1301 15.8156 62.0779 15.3109 62.1843C13.9329 61.4468 11.2873 58.9746 10.1367 57.8308L12.1066 57.6411C14.942 55.4141 19.1082 49.6705 20.837 47.0771L22.6652 46.6742C22.4884 46.3309 22.2613 45.4264 22.7675 44.5554C23.5268 43.2491 26.7248 40.3372 28.2289 39.0444C23.8614 43.0847 24.1078 45.8301 24.7769 46.6977C24.632 46.6806 24.2047 46.6995 23.6559 46.9124C23.107 47.1255 17.7537 54.1721 15.1458 57.6688L13.4614 57.8244C14.4108 58.7428 16.4156 60.5351 16.8388 60.3555C18.7723 59.4059 21.9394 52.5701 23.2813 49.2709L25.9373 48.815C24.4299 50.2202 21.1363 58.1799 19.6781 61.9841Z" fill="white"/>
<path d="M21.5246 45.4468C21.5689 45.4524 21.6035 45.4658 21.629 45.4858C21.5954 45.4732 21.5606 45.4602 21.5246 45.4468C20.8534 45.3615 17.9422 47.0606 10.5575 54.707L6.85743 54.1023C7.83234 53.6057 10.136 52.301 11.5514 51.0543C10.4755 51.8008 7.98255 53.3092 6.61816 53.3712C6.21967 53.1426 4.52689 49.8843 3.73031 48.2836L5.29762 48.7867C7.29467 47.8648 12.8762 44.9125 19.2259 40.4784L20.3947 40.753C20.4167 40.1058 21.6297 38.3998 26.3058 36.7536C24.8952 37.3521 22.2341 39.1424 22.8741 41.5154L21.8834 41.277C19.2206 42.6969 12.8596 46.3809 8.71774 49.7589L6.83615 49.3394C7.16082 49.9655 7.9298 51.3523 8.40846 51.8908C8.80696 52.1194 11.8271 51.6083 18.6207 44.948C18.8423 44.5667 20.586 45.0995 21.5246 45.4468Z" fill="white"/>
<path d="M5.134 45.5258C8.63773 43.1543 14.7009 40.8741 17.2945 40.0304L18.0915 40.4876C17.5694 38.5518 19.5079 35.9556 20.5425 34.8994C18.5186 35.6387 15.3416 35.3912 14.0061 35.175L13.1489 36.9927C14.6189 36.4063 17.5012 35.3323 17.2711 35.7282C16.5764 36.6494 15.835 38.3135 15.5511 39.0304L14.9534 38.6875C7.5283 43.0062 4.32491 41.4327 3.77699 41.1184C3.53789 40.9812 3.30122 39.0419 3.21279 38.0894L5.25507 39.2609C6.52697 38.8247 9.1405 37.9925 9.41945 38.1526C9.6984 38.3126 11.0427 39.4355 11.6799 39.977L11.068 36.4589L7.92988 34.6588C8.28852 34.8645 8.55645 36.5139 8.64559 37.3127L7.91383 36.629C5.29228 37.0256 2.73988 36.9604 1.79137 36.8782L0.695514 36.2497C0.837315 38.0245 1.23163 41.7037 1.67447 42.2217C2.11732 42.7396 5.48838 42.3639 7.11854 42.1114C4.529 43.0013 2.25916 43.3488 1.44793 43.4114L5.134 45.5258Z" fill="white"/>
<path d="M0 30.7041L2.92494 33.8994C7.46427 33.4944 14.7157 33.3826 17.7741 33.3774L18.6264 34.1963C19.915 31.9793 23.8104 31.1433 25.597 31.0025C18.9518 30.094 13.664 27.1929 13.1926 27.3183C12.8154 27.4187 12.2301 28.7457 11.9846 29.3967C14.8071 28.7458 18.8989 29.6897 20.5921 30.243C19.5802 30.6127 17.6902 31.9217 16.8717 32.53L15.6208 31.4825C9.00271 32.173 2.44939 31.2512 0 30.7041Z" fill="white"/>
<path d="M8.88085 27.8803C8.13939 26.5048 7.01808 24.8763 6.55011 24.234C7.1035 24.2874 9.54804 23.3803 10.7011 22.9201C10.6871 23.4926 11.7318 25.3368 12.2559 26.1873C11.0218 26.4823 9.49165 27.4389 8.88085 27.8803Z" fill="white"/>
</svg>
