<svg width="146" height="39" viewBox="0 0 146 39" fill="none" xmlns="http://www.w3.org/2000/svg">
<g id="EcirLOGO">
<g id="Group">
<g id="ECIR" transform="translate(51.3115 4.44434)">
<path d="M0 0.634901V30.2636H21.6989V23.4913H7.87118V18.6661H20.1672V11.9361H7.87118V7.40718H21.4436V0.634901H0Z" fill="white"/>
<path d="M24.4804 15.8725C24.4804 26.4542 32.6069 30.8985 40.7759 30.8985C43.9244 30.8985 46.8601 30.2636 49.4555 29.0361V21.4173C47.7536 23.0681 44.9455 23.9993 41.8821 23.9993C37.2445 23.9993 32.5643 21.629 32.5643 15.8725C32.5643 9.43886 37.2445 6.85693 41.9672 6.85693C44.6902 6.85693 47.4132 7.74579 49.2427 9.26956V1.86238C46.6474 0.634901 43.6265 0 40.6057 0C32.5643 0 24.4804 4.69827 24.4804 15.8725Z" fill="white"/>
<path d="M53.8069 0.634901V30.2636H61.678V0.634901H53.8069Z" fill="white"/>
<path d="M75.1817 30.2636V20.6131H78.5854L85.6908 30.2636H94.5831L86.3715 19.5126C89.6476 18.2005 92.0728 15.5339 92.0728 10.624C92.0728 2.79356 85.9035 0.634901 79.8619 0.634901H67.3105V30.2636H75.1817ZM75.1817 7.40718H80.2022C82.4572 7.40718 83.9889 8.55 83.9889 10.8356C83.9889 13.1213 82.4572 14.2641 80.2022 14.2641H75.1817V7.40718Z" fill="white"/>
</g>
<g id="Vector">
<path d="M5.94199 22.1438L11.0916 18.0759L6.33811 14.5329C6.07403 14.4017 5.80994 14.4017 5.54586 14.5329L0.792353 18.0759L5.94199 22.1438Z" fill="white"/>
<path d="M5.28167 23.1936L0 18.9945V34.6099C0 34.8723 0.132042 35.0036 0.264084 35.1348L5.28167 38.9402V23.1936Z" fill="white"/>
<path d="M6.60183 23.1934V38.94L11.6194 35.2658C11.7515 35.1346 11.8835 35.0034 11.8835 34.7409V19.1256L6.60183 23.1934Z" fill="white"/>
<path d="M19.1461 7.70927L24.2957 3.6414L19.5422 0.0984162C19.2781 -0.0328054 19.014 -0.0328054 18.7499 0.0984162L13.9964 3.6414L19.1461 7.70927Z" fill="white"/>
<path d="M18.4858 8.75913L13.2041 4.56004V34.6098C13.2041 34.8722 13.3361 35.0034 13.4682 35.1347L18.4858 38.8089V8.75913Z" fill="white"/>
<path d="M19.8059 8.75936V38.9403L24.8235 35.2661C24.9555 35.1349 25.0876 35.0037 25.0876 34.7412V4.69149L19.8059 8.75936Z" fill="white"/>
<path d="M31.6903 16.6328L26.4086 12.5649V34.7414C26.4086 35.0038 26.5406 35.135 26.6727 35.2663L31.6903 38.9405V16.6328Z" fill="white"/>
<path d="M32.3506 15.5827L37.5002 11.5148L32.7467 7.97185C32.4826 7.84063 32.2185 7.84063 31.9544 7.97185L27.2009 11.5148L32.3506 15.5827Z" fill="white"/>
<path d="M33.0104 16.6328V38.9405L38.028 35.2663C38.16 35.135 38.2921 35.0038 38.2921 34.7414V12.5649L33.0104 16.6328Z" fill="white"/>
</g>
</g>
</g>
</svg>
