<svg width="170" height="47" viewBox="0 0 170 47" fill="none" xmlns="http://www.w3.org/2000/svg">
<path fill-rule="evenodd" clip-rule="evenodd" d="M10.9467 8.406V42.9919H3.07057V10.577L10.9467 8.406ZM12.2408 25.9003C12.2408 22.7707 12.1375 20.154 12.0334 17.8963H18.8732L19.2368 21.3857H19.3914C20.2451 20.106 21.4107 19.0629 22.7792 18.3543C24.1478 17.6456 25.6744 17.2945 27.2163 17.3339C32.3984 17.3339 36.284 20.7723 36.284 28.1604V42.9919H28.4079V29.0843C28.4079 25.8517 27.2691 23.6451 24.4223 23.6451C23.5274 23.6556 22.658 23.9428 21.934 24.4668C21.21 24.9908 20.6672 25.7259 20.3805 26.5705C20.1788 27.1997 20.091 27.8596 20.121 28.5195V42.9919H12.2449V25.9028L12.2408 25.9003ZM38.0987 36.2139C40.189 37.3415 42.512 37.9738 44.8873 38.0616C47.2706 38.0616 48.2556 37.2917 48.2556 36.0089C48.2556 34.6742 47.478 34.0592 44.5766 33.0843C39.2895 31.3395 37.2699 28.517 37.3219 25.5413C37.3219 20.8209 41.3637 17.2812 47.6334 17.2812C50.0804 17.2544 52.5036 17.762 54.7327 18.7682L53.3857 24.1564C51.6871 23.2703 49.8092 22.7788 47.8928 22.7188C45.9756 22.7188 44.8833 23.4895 44.8833 24.7204C44.8833 25.9514 45.8675 26.5681 48.9763 27.6451C53.7957 29.2877 55.7649 31.7504 55.8169 35.3922C55.8169 40.1134 52.138 43.5519 44.8833 43.5519C42.0501 43.6037 39.2447 42.9881 36.6956 41.7553L38.0987 36.2139ZM66.7026 11.1232V17.8963H72.3509V23.6426H66.7026V32.7245C66.7026 35.752 67.4794 37.1378 69.8122 37.1378C70.5948 37.163 71.3775 37.0942 72.1435 36.9327L72.1955 42.8331C70.5474 43.3145 68.8345 43.5394 67.1175 43.5C64.9254 43.58 62.7881 42.8072 61.1577 41.3452C59.7075 39.8574 58.9819 37.4457 58.9819 33.9052V23.6451H55.616V17.8987H58.9843V13.2293L66.7026 11.1232ZM95.6693 36.9327C95.6166 38.9593 95.7553 40.9863 96.0834 42.987H88.9849L88.518 40.4749H88.3626C87.4603 41.4943 86.3406 42.2999 85.0855 42.8327C83.8305 43.3655 82.4717 43.612 81.1087 43.5543C75.9786 43.5543 72.9211 39.8598 72.9211 35.8558C72.9211 29.3395 78.828 26.2609 87.7924 26.2609V25.953C87.7924 24.5673 87.0669 22.6694 83.1813 22.6694C80.7247 22.6938 78.3158 23.3474 76.186 24.5673L74.7358 19.5429C77.7822 18.0011 81.1614 17.2263 84.5779 17.2861C93.0242 17.2861 95.6677 22.2115 95.6677 28.1629V36.9376L95.6693 36.9327ZM88.0519 31.1345C83.9035 31.1345 80.6939 32.107 80.6939 35.0851C80.6939 37.0867 82.0409 38.0616 83.8027 38.0616C84.699 38.061 85.5733 37.7846 86.3061 37.2703C87.0388 36.7559 87.5943 36.0287 87.8965 35.188C88.0021 34.7512 88.0542 34.3034 88.0519 33.8541V31.1345ZM97.2246 13.2682L105.103 11.1232V42.9919H97.2246V13.2707V13.2682ZM113.655 32.9303C113.859 36.1629 117.128 37.7026 120.805 37.7026C123.181 37.7407 125.547 37.3762 127.8 36.6248L128.833 41.91C125.91 43.029 122.797 43.5691 119.666 43.5C111.06 43.5 106.139 38.5745 106.139 30.7237C106.139 24.3614 110.133 17.3314 118.942 17.3314C127.125 17.3314 130.232 23.6426 130.232 29.8517C130.231 30.8832 130.147 31.913 129.98 32.9311H113.655V32.9303ZM122.928 27.5948C122.928 25.6953 122.098 22.5146 118.471 22.5146C115.16 22.5146 113.81 25.5413 113.606 27.5948H122.928ZM137.667 17.8963L140.156 22.1037C140.88 23.3865 141.547 24.6159 142.222 25.8493H142.327C143.003 24.4643 143.621 23.2326 144.296 22.0008L146.525 17.8963H155.073L146.736 29.8517L155.176 42.9919H146.261L143.723 38.4765C142.999 37.2455 142.373 35.9643 141.755 34.6791H141.6C140.974 36.0138 140.307 37.2455 139.681 38.4765L137.297 42.9919H128.643L137.249 30.2156L128.854 17.8979H137.663L137.667 17.8963ZM1.64063 -1.58276e-06L0.820725 0.263367L-1.98583e-05 0.476496" transform="translate(14.8242 1.5769)" fill="white"/>
<path fill-rule="evenodd" clip-rule="evenodd" d="M10.152 44.5689L5.95323 47H4.66974V40.2383L10.1195 35.6191V31.6321H6.22494L2.43041 34.6199H0V27.2512L8.56103 20.1953V16.53L13.1819 1.57131L14.8559 1.98217L10.2854 16.7382V20.9935L1.7244 28.0486V32.906H1.82528L5.61896 29.9173H11.8406V36.4003L6.39086 41.0194V45.0178L10.1487 42.8558V44.5689H10.152ZM16.4924 44.5689H10.1122V42.859H16.4924V44.5689ZM16.4648 1.57942L15.6449 1.80227L14.8241 2.05592L13.8017 1.77958L13.1835 1.57942L13.5902 1.18395L13.9969 0.789301L14.4036 0.39465L14.8103 -8.90302e-07L15.217 0.39465L15.6237 0.789301L16.0345 1.18395L16.4648 1.57942ZM19.3117 10.7569L18.8098 9.0551L18.2315 7.18476L17.654 5.31524L17.0765 3.4457L16.4989 1.57536L16.2899 1.62722L16.0809 1.67828L15.871 1.72934L15.662 1.7812L15.4529 1.83225L15.2439 1.88331L15.034 1.93517L14.825 1.98623L15.3944 3.83064L15.9637 5.67585L16.5331 7.52026L17.1025 9.36467L17.6719 11.2091" fill="white"/>
</svg>
