<svg width="49" height="71" viewBox="0 0 49 71" fill="none" xmlns="http://www.w3.org/2000/svg">
<path d="M20.2 41H27.36L17.12 24.56L26.52 13.08H19.64L13.36 20.96L9.4 26.36H9.16V13.08H3.08V41H9.16V33.24L12.8 28.84L20.2 41ZM36.0516 10.56C38.4516 10.56 39.2516 9.44 39.2516 8.04V7.04C39.2516 5.64 38.4516 4.52 36.0516 4.52C33.6516 4.52 32.8516 5.64 32.8516 7.04V8.04C32.8516 9.44 33.6516 10.56 36.0516 10.56ZM44.8516 10.56C47.2516 10.56 48.0516 9.44 48.0516 8.04V7.04C48.0516 5.64 47.2516 4.52 44.8516 4.52C42.4516 4.52 41.6516 5.64 41.6516 7.04V8.04C41.6516 9.44 42.4516 10.56 44.8516 10.56ZM49.9316 41V35.6H37.0116V29.56H48.0916V24.2H37.0116V18.48H49.9316V13.08H30.9316V41H49.9316ZM9.16 75V64.92H16.28C21.48 64.92 24.76 61.28 24.76 56C24.76 50.72 21.48 47.08 16.28 47.08H3.08V75H9.16ZM9.16 52.36H15.56C17.36 52.36 18.48 53.32 18.48 55.12V56.88C18.48 58.68 17.36 59.64 15.56 59.64H9.16V52.36ZM35.41 64.76H39.77L44.65 75H51.41L45.93 64.04C49.33 62.76 51.01 59.76 51.01 56C51.01 50.68 47.73 47.08 42.57 47.08H29.33V75H35.41V64.76ZM35.41 59.64V52.36H41.81C43.61 52.36 44.73 53.32 44.73 55.12V56.88C44.73 58.68 43.61 59.64 41.81 59.64H35.41Z" transform="translate(-3 -4)" fill="white"/>
</svg>
