<svg width="174" height="46" viewBox="0 0 174 46" fill="none" xmlns="http://www.w3.org/2000/svg">
<path d="M35.989 0H8.68149C6.38098 0.00635122 4.17653 0.915739 2.54982 2.52945C0.923112 4.14317 0.0064023 6.33001 -5.44423e-08 8.61214V24.2097L4.70967 22.3465V8.99015C4.71268 7.84584 5.17225 6.74925 5.98792 5.94009C6.80359 5.13094 7.90901 4.67504 9.06254 4.67205H35.6079C36.7615 4.67504 37.8669 5.13094 38.6826 5.94009C39.4982 6.74925 39.9578 7.84584 39.9608 8.99015V35.3235C39.9578 36.4678 39.4982 37.5644 38.6826 38.3736C37.8669 39.1827 36.7615 39.6386 35.6079 39.6416H22.1497L20.2715 44.3137H35.989C38.2895 44.3073 40.4939 43.3979 42.1207 41.7842C43.7474 40.1705 44.6641 37.9836 44.6705 35.7015V8.61214C44.6641 6.33001 43.7474 4.14317 42.1207 2.52945C40.4939 0.915739 38.2895 0.00635122 35.989 0V0Z" transform="translate(1.69873)" fill="white"/>
<path d="M0.333169 20.0476C0.227578 20.1518 0.143787 20.2757 0.0866104 20.4121C0.029434 20.5485 0 20.6948 0 20.8426C0 20.9903 0.029434 21.1366 0.0866104 21.273C0.143787 21.4095 0.227578 21.5333 0.333169 21.6375L3.62565 24.9051C3.73091 25.0098 3.85593 25.0928 3.99356 25.1494C4.13119 25.206 4.27872 25.2352 4.42772 25.2352C4.57672 25.2352 4.72426 25.206 4.86189 25.1494C4.99952 25.0928 5.12454 25.0098 5.22979 24.9051L11.9775 18.2099L14.7576 22.9825C14.8635 23.1658 15.0194 23.3157 15.2073 23.4152C15.3951 23.5146 15.6075 23.5595 15.8199 23.5447C16.0324 23.53 16.2363 23.4561 16.4084 23.3316C16.5804 23.2071 16.7136 23.0371 16.7927 22.8409L25.3558 1.54206C25.4383 1.33767 25.4585 1.11375 25.4139 0.898073C25.3692 0.682398 25.2617 0.484473 25.1047 0.328863C24.9477 0.173253 24.7481 0.0668104 24.5306 0.0227447C24.3132 -0.021321 24.0875 -0.00106786 23.8815 0.0809885L2.41399 8.57562C2.21663 8.65426 2.04557 8.78642 1.92037 8.95696C1.79516 9.12751 1.72087 9.32957 1.70598 9.54004C1.69109 9.7505 1.73621 9.96087 1.83618 10.1471C1.93614 10.3333 2.08692 10.4879 2.27127 10.5931L7.08084 13.3553L0.333169 20.0476Z" transform="translate(0 20.7649)" fill="white"/>
<path d="M0.332438 2.87058C0.227109 2.97498 0.143538 3.09893 0.0864983 3.23537C0.0294586 3.3718 6.66653e-05 3.51804 4.02756e-07 3.66575C-6.58598e-05 3.81345 0.0291956 3.95972 0.0861128 4.0962C0.14303 4.23269 0.226488 4.35672 0.331724 4.4612C0.436959 4.56569 0.561911 4.64859 0.699444 4.70518C0.836977 4.76176 0.984399 4.79092 1.13329 4.79098C1.28218 4.79105 1.42963 4.76202 1.56721 4.70556C1.7048 4.6491 1.82982 4.56631 1.93515 4.46191L4.45554 1.96166C4.57052 1.85954 4.66327 1.7352 4.72809 1.59626C4.79291 1.45731 4.82844 1.3067 4.83249 1.15365C4.83655 1.00061 4.80904 0.84835 4.75167 0.706223C4.69429 0.564095 4.60826 0.435091 4.49884 0.327123C4.38941 0.219155 4.25892 0.134498 4.11534 0.0783435C3.97176 0.022189 3.81813 -0.00427902 3.66388 0.000562017C3.50962 0.00540306 3.35799 0.0414514 3.21828 0.106496C3.07857 0.171541 2.95372 0.264212 2.8514 0.378826L0.332438 2.87058Z" transform="translate(26.0781 15.3362)" fill="white"/>
<path d="M3.25385e-05 1.11846C-0.00109847 1.26692 0.0274241 1.41412 0.0839542 1.55158C0.140484 1.68904 0.223902 1.81403 0.329391 1.91933C0.43488 2.02464 0.560353 2.10817 0.698562 2.16511C0.836771 2.22205 0.98498 2.25127 1.13463 2.25108H4.70256C5.00348 2.25108 5.29207 2.13249 5.50485 1.92142C5.71763 1.71034 5.83716 1.42405 5.83716 1.12554C5.83716 0.827027 5.71763 0.540743 5.50485 0.329664C5.29207 0.118584 5.00348 2.87867e-07 4.70256 2.87867e-07H1.13463C0.985583 -0.000186052 0.83796 0.0287998 0.700219 0.0852974C0.562478 0.141795 0.437325 0.224696 0.33193 0.329249C0.226535 0.433802 0.142969 0.557953 0.0860165 0.694594C0.029064 0.831235 -0.000155301 0.977678 3.25385e-05 1.12554V1.11846Z" transform="translate(28.0762 22.3665)" fill="white"/>
<path d="M1.9552 0.348252C1.85078 0.239768 1.72555 0.153084 1.58688 0.0932914C1.44821 0.0334993 1.29889 0.00180654 1.1477 7.46392e-05C0.996509 -0.00165727 0.846492 0.0266075 0.706466 0.0832072C0.566441 0.139807 0.439234 0.2236 0.332317 0.329662C0.225401 0.435725 0.140933 0.561918 0.0838776 0.700825C0.0268222 0.839732 -0.00167018 0.988548 7.56757e-05 1.13853C0.00182153 1.28852 0.0337695 1.43665 0.0940431 1.57421C0.154317 1.71177 0.241699 1.83599 0.351056 1.93958L2.87144 4.43842C2.97668 4.5429 3.10163 4.62581 3.23916 4.68239C3.3767 4.73898 3.52412 4.76813 3.67301 4.7682C3.8219 4.76826 3.96935 4.73924 4.10693 4.68278C4.24452 4.62631 4.36954 4.54352 4.47487 4.43912C4.5802 4.33473 4.66377 4.21078 4.72081 4.07434C4.77785 3.93791 4.80724 3.79167 4.80731 3.64396C4.80737 3.49626 4.77811 3.34999 4.7212 3.2135C4.66428 3.07702 4.58082 2.95299 4.47558 2.84851L1.9552 0.348252Z" transform="translate(26.5801 26.6082)" fill="white"/>
<path d="M1.12604 5.75059C1.42761 5.7506 1.71694 5.63224 1.93086 5.42136C2.14477 5.21049 2.26589 4.92422 2.26778 4.62506V1.08563C2.25735 0.794209 2.13333 0.518178 1.92182 0.315674C1.71031 0.11317 1.42784 -3.8322e-07 1.13389 -3.8322e-07C0.839939 -3.8322e-07 0.557464 0.11317 0.345958 0.315674C0.134451 0.518178 0.0104246 0.794209 9.85912e-07 1.08563V4.62506C-0.000186584 4.7728 0.0289844 4.91912 0.0858478 5.05567C0.142711 5.19222 0.226152 5.31631 0.331396 5.42085C0.436639 5.52538 0.561623 5.60831 0.699199 5.66489C0.836775 5.72147 0.984245 5.75059 1.13318 5.75059H1.12604Z" transform="translate(21.5664 12.3953)" fill="white"/>
<path d="M3.67351 4.76121C3.89599 4.75921 4.11296 4.69237 4.29744 4.56901C4.48192 4.44564 4.62577 4.27119 4.71109 4.06736C4.79641 3.86353 4.81944 3.63932 4.77731 3.4226C4.73519 3.20589 4.62976 3.00625 4.47416 2.84851L1.9552 0.348252C1.85078 0.239769 1.72555 0.153084 1.58688 0.0932918C1.44821 0.0334997 1.29889 0.00180689 1.1477 7.49848e-05C0.996509 -0.00165692 0.846493 0.0266078 0.706468 0.0832075C0.566443 0.139807 0.439234 0.2236 0.332318 0.329663C0.225401 0.435725 0.140932 0.561918 0.0838767 0.700824C0.0268213 0.839731 -0.00166996 0.98855 7.58935e-05 1.13853C0.00182174 1.28852 0.0337697 1.43665 0.0940433 1.57421C0.154317 1.71177 0.2417 1.83599 0.351057 1.93958L2.87144 4.43842C2.97643 4.54339 3.1014 4.62661 3.23909 4.68324C3.37679 4.73987 3.52446 4.76878 3.67351 4.76829V4.76121Z" transform="translate(14.7207 14.8486)" fill="white"/>
<path d="M6.08118 18.1474C6.30667 19.8576 8.24049 20.9987 10.611 20.9987C13.1014 20.9987 14.7213 19.893 14.7213 18.3895C14.7213 17.0062 13.6595 16.3323 10.8023 15.7448L7.50978 15.1049C2.87575 14.2243 0.488094 11.7353 0.488094 7.94956C0.488094 3.11187 4.6697 -2.59236e-07 10.4883 -2.59236e-07C16.7778 -2.59236e-07 20.4885 3.02409 20.5584 7.70888H14.6699C14.5472 5.89386 12.8574 4.80513 10.5582 4.80513C8.32755 4.80513 6.84757 5.8075 6.84757 7.32803C6.84757 8.67585 7.96219 9.41913 10.5925 9.95429L13.8507 10.5588C18.8158 11.5088 21.0465 13.7386 21.0465 17.6787C21.0465 22.6339 16.9163 25.801 10.4355 25.801C4.02462 25.801 0.0699309 22.9851 -5.22646e-07 18.1459L6.08118 18.1474Z" transform="translate(57.814 9.54517)" fill="white"/>
<path d="M13.2227 7.94956C13.013 5.96748 11.7585 4.66638 9.87745 4.66638C7.59398 4.66638 6.23674 6.63572 6.23674 10.0237C6.23674 13.4796 7.59541 15.3809 9.87745 15.3809C11.7585 15.3809 12.9958 14.2398 13.2227 12.2351H18.9015C18.7102 17.0742 15.2265 20.0643 9.80752 20.0643C3.76203 20.0643 3.83274e-06 16.28 3.83274e-06 10.0237C3.83274e-06 3.83674 3.76203 -2.1603e-07 9.77327 -2.1603e-07C15.1965 -2.1603e-07 18.7102 3.19681 18.8843 7.94956H13.2227Z" transform="translate(80.8984 15.269)" fill="white"/>
<path d="M-1.39372e-06 10.0237C-1.39372e-06 3.78436 3.85337 2.59236e-07 9.87746 2.59236e-07C15.9016 2.59236e-07 19.7563 3.75038 19.7563 10.0237C19.7563 16.3946 15.9929 20.0643 9.87746 20.0643C3.76203 20.0643 -1.39372e-06 16.3833 -1.39372e-06 10.0237ZM13.5025 10.0237C13.5025 6.56635 12.1081 4.51065 9.87746 4.51065C7.64679 4.51065 6.25387 6.56635 6.25387 10.0237C6.25387 13.5631 7.61396 15.5537 9.87746 15.5537C12.141 15.5537 13.5025 13.5659 13.5025 10.0237Z" transform="translate(101.971 15.2661)" fill="white"/>
<path d="M-6.96861e-07 0.328459H5.99412V4.02646H6.11543C6.88182 1.55452 9.04256 3.45647e-07 11.6557 3.45647e-07C14.53 3.45647e-07 16.4995 1.46816 17.0561 4.07884H17.1789C17.9453 1.58991 20.2787 3.45647e-07 23.173 3.45647e-07C26.9536 3.45647e-07 29.531 2.62626 29.531 6.53237V19.5575H23.3642V8.08831C23.3642 6.04818 22.4066 4.97361 20.577 4.97361C18.8344 4.97361 17.7226 6.21807 17.7226 8.15485V19.5603H11.8298V8.00761C11.8298 6.07083 10.8194 4.9821 9.04256 4.9821C7.31711 4.9821 6.16824 6.2563 6.16824 8.19732V19.5688H-6.96861e-07V0.328459Z" transform="translate(123.789 15.3525)" fill="white"/>
<path d="M0 14.0841C0 10.4895 2.78727 8.50313 7.84944 8.19166L12.3964 7.91558V6.80845C12.3964 5.23552 11.2647 4.38889 9.52209 4.38889C7.84944 4.38889 6.71769 5.27092 6.54358 6.463H0.99902C1.15601 2.57529 4.58836 2.59236e-07 9.83179 2.59236e-07C15.0053 2.59236e-07 18.4376 2.60927 18.4376 6.47999V19.6467H12.4435V16.8845H12.3208C11.2761 18.8199 8.90699 19.9086 6.55501 19.9086C2.91429 19.9086 0 17.5414 0 14.0841ZM12.4036 12.7193V11.3885L8.83563 11.6306C7.07592 11.7523 6.124 12.4942 6.124 13.6707C6.124 14.8967 7.15155 15.6528 8.73714 15.6528C10.7181 15.657 12.4078 14.4819 12.4078 12.7193H12.4036Z" transform="translate(155.562 15.2661)" fill="white"/>
</svg>
