<svg width="63" height="62" viewBox="0 0 63 62" fill="none" xmlns="http://www.w3.org/2000/svg">
<path d="M14.44 41L17.96 25.88L19.36 19.76H19.48L20.84 25.88L24.36 41H31.28L37.76 13.08H32L29.32 26.48L27.84 34.24H27.72L26 26.48L22.88 13.08H16.24L13.16 26.48L11.4 34.24H11.28L9.8 26.48L7.16 13.08H1.16L7.48 41H14.44ZM41.9862 41H56.7862C60.9063 41 63.9862 37.44 63.9862 33.04C63.9862 28.24 60.3463 26.48 57.7062 26.48V26.24C60.5463 26.12 62.9063 24.52 62.9063 20.24C62.9063 15.92 60.1463 13.08 55.5463 13.08H41.9862V41ZM48.0663 29.48H55.0663C56.6663 29.48 57.6663 30.4 57.6663 32V33.36C57.6663 34.96 56.6663 35.88 55.0663 35.88H48.0663V29.48ZM48.0663 18.2H54.1062C55.7062 18.2 56.6663 19.16 56.6663 20.76V21.96C56.6663 23.56 55.7062 24.52 54.1062 24.52H48.0663V18.2ZM24.6213 75H31.2613V47.08H25.5413V65.88H25.4212L22.7412 60.28L15.1012 47.08H8.46125V75H14.1812V56.2H14.3013L16.9812 61.8L24.6213 75ZM47.4866 64.76H51.8466L56.7266 75H63.4866L58.0066 64.04C61.4066 62.76 63.0866 59.76 63.0866 56C63.0866 50.68 59.8066 47.08 54.6466 47.08H41.4066V75H47.4866V64.76ZM47.4866 59.64V52.36H53.8866C55.6866 52.36 56.8066 53.32 56.8066 55.12V56.88C56.8066 58.68 55.6866 59.64 53.8866 59.64H47.4866Z" transform="translate(-1 -13)" fill="white"/>
</svg>
