<svg width="20" height="18" viewBox="0 0 20 18" fill="none" xmlns="http://www.w3.org/2000/svg">
<path d="M0.353259 8.34964L4.96167 10.0696L6.7454 15.8061C6.85953 16.1735 7.3088 16.3093 7.607 16.0655L10.1758 13.9714C10.4451 13.752 10.8286 13.741 11.11 13.9453L15.7432 17.3091C16.0622 17.541 16.5141 17.3662 16.5941 16.9807L19.9882 0.654632C20.0756 0.233564 19.6618 -0.117703 19.2609 0.0373643L0.347859 7.33344C-0.118875 7.51344 -0.114808 8.17424 0.353259 8.34964ZM6.45793 9.15404L15.4645 3.6069C15.6263 3.5075 15.7929 3.72637 15.6539 3.8553L8.22087 10.7646C7.9596 11.0078 7.79107 11.3333 7.74334 11.6866L7.49014 13.563C7.4566 13.8135 7.10467 13.8384 7.03553 13.5959L6.06173 10.1742C5.9502 9.78398 6.11273 9.36711 6.45793 9.15404Z" fill="#34A5DE"/>
</svg>
