<svg width="40" height="40" viewBox="0 0 40 40" fill="none" xmlns="http://www.w3.org/2000/svg">
<circle cx="20" cy="20" r="20" fill="#C3EEFF"/>
<path d="M7 3H5V1C5 0.45 4.55 0 4 0C3.45 0 3 0.45 3 1V3H1C0.45 3 0 3.45 0 4C0 4.55 0.45 5 1 5H3V7C3 7.55 3.45 8 4 8C4.55 8 5 7.55 5 7V5H7C7.55 5 8 4.55 8 4C8 3.45 7.55 3 7 3Z" transform="translate(8 15)" fill="#03A9F4"/>
<path d="M0.91 6C2.57 6 3.9 4.66 3.9 3C3.9 1.34 2.57 0 0.91 0C0.59 0 0.28 0.0499999 1.52588e-07 0.14C0.57 0.95 0.9 1.93 0.9 3C0.9 4.07 0.56 5.04 1.52588e-07 5.86C0.28 5.95 0.59 6 0.91 6Z" transform="translate(25.09 13)" fill="#03A9F4"/>
<path d="M3 6C4.66 6 5.99 4.66 5.99 3C5.99 1.34 4.66 0 3 0C1.34 0 0 1.34 0 3C0 4.66 1.34 6 3 6Z" transform="translate(18 13)" fill="#03A9F4"/>
<path d="M6 0C4 0 0 1 0 3V4C0 4.55 0.45 5 1 5H11C11.55 5 12 4.55 12 4V3C12 1 8 0 6 0Z" transform="translate(15 21)" fill="#03A9F4"/>
<path d="M8.39233e-07 -1.52588e-07C0.830001 0.73 1.38 1.66 1.38 2.84V4.34C1.38 4.51 1.36 4.68 1.33 4.84H3.88C4.16 4.84 4.38 4.62 4.38 4.34V2.84C4.38 1.3 2.01 0.35 8.39233e-07 -1.52588e-07Z" transform="translate(27.62 21.1599)" fill="#03A9F4"/>
</svg>
