<svg width="18" height="12" viewBox="0 0 18 12" fill="none" xmlns="http://www.w3.org/2000/svg">
<path opacity="0.8" d="M17.25 2C17.4375 2 17.625 2.09375 17.7812 2.21875C17.9062 2.375 18 2.5625 18 2.75V12.5C18 12.9375 17.8438 13.2812 17.5625 13.5625C17.25 13.875 16.9062 14 16.5 14H1.75C1.25 14 0.84375 13.8438 0.5 13.5C0.15625 13.1562 0 12.75 0 12.25V3.75C0 3.5625 0.0625 3.375 0.21875 3.21875C0.34375 3.09375 0.53125 3 0.75 3H2V2.75C2 2.5625 2.0625 2.375 2.21875 2.21875C2.34375 2.09375 2.53125 2 2.75 2H17.25ZM1.75 12.5C1.8125 12.5 1.84375 12.5 1.90625 12.4375C1.96875 12.375 2 12.3125 2 12.25V4.5H1.5V12.25C1.5 12.3125 1.5 12.375 1.5625 12.4375C1.625 12.5 1.6875 12.5 1.75 12.5ZM9.125 12C9.21875 12 9.3125 11.9688 9.375 11.9062C9.4375 11.8438 9.5 11.75 9.5 11.625V11.375C9.5 11.2812 9.4375 11.1875 9.375 11.125C9.3125 11.0625 9.21875 11 9.125 11H4.375C4.25 11 4.15625 11.0625 4.09375 11.125C4.03125 11.1875 4 11.2812 4 11.375V11.625C4 11.75 4.03125 11.8438 4.09375 11.9062C4.15625 11.9688 4.25 12 4.375 12H9.125ZM15.625 12C15.7188 12 15.8125 11.9688 15.875 11.9062C15.9375 11.8438 16 11.75 16 11.625V11.375C16 11.2812 15.9375 11.1875 15.875 11.125C15.8125 11.0625 15.7188 11 15.625 11H10.875C10.75 11 10.6562 11.0625 10.5938 11.125C10.5312 11.1875 10.5 11.2812 10.5 11.375V11.625C10.5 11.75 10.5312 11.8438 10.5938 11.9062C10.6562 11.9688 10.75 12 10.875 12H15.625ZM9.125 9C9.21875 9 9.3125 8.96875 9.375 8.90625C9.4375 8.84375 9.5 8.75 9.5 8.625V8.375C9.5 8.28125 9.4375 8.1875 9.375 8.125C9.3125 8.0625 9.21875 8 9.125 8H4.375C4.25 8 4.15625 8.0625 4.09375 8.125C4.03125 8.1875 4 8.28125 4 8.375V8.625C4 8.75 4.03125 8.84375 4.09375 8.90625C4.15625 8.96875 4.25 9 4.375 9H9.125ZM15.625 9C15.7188 9 15.8125 8.96875 15.875 8.90625C15.9375 8.84375 16 8.75 16 8.625V8.375C16 8.28125 15.9375 8.1875 15.875 8.125C15.8125 8.0625 15.7188 8 15.625 8H10.875C10.75 8 10.6562 8.0625 10.5938 8.125C10.5312 8.1875 10.5 8.28125 10.5 8.375V8.625C10.5 8.75 10.5312 8.84375 10.5938 8.90625C10.6562 8.96875 10.75 9 10.875 9H15.625ZM15.625 6C15.7188 6 15.8125 5.96875 15.875 5.90625C15.9375 5.84375 16 5.75 16 5.625V4.375C16 4.28125 15.9375 4.1875 15.875 4.125C15.8125 4.0625 15.7188 4 15.625 4H4.375C4.25 4 4.15625 4.0625 4.09375 4.125C4.03125 4.1875 4 4.28125 4 4.375V5.625C4 5.75 4.03125 5.84375 4.09375 5.90625C4.15625 5.96875 4.25 6 4.375 6H15.625Z" transform="translate(0 -2)" fill="#454559"/>
</svg>
