<svg width="16" height="17" viewBox="0 0 16 17" fill="none" xmlns="http://www.w3.org/2000/svg">
<path opacity="0.8" d="M14 0C14.5312 0 15 0.21875 15.4062 0.59375C15.7812 1 16 1.46875 16 2V11C16 11.5625 15.7812 12.0312 15.4062 12.4062C15 12.8125 14.5312 13 14 13H9.5L5.59375 15.9375C5.46875 16.0312 5.3125 16.0312 5.1875 15.9688C5.0625 15.9062 5 15.7812 5 15.625V13H2C1.4375 13 0.96875 12.8125 0.59375 12.4062C0.1875 12.0312 0 11.5625 0 11V2C0 1.46875 0.1875 1 0.59375 0.59375C0.96875 0.21875 1.4375 0 2 0H14Z" fill="#454559"/>
</svg>
