<svg width="16" height="16" viewBox="0 0 16 16" fill="none" xmlns="http://www.w3.org/2000/svg">
<path opacity="0.8" d="M8 0.25C9.375 0.25 10.6875 0.625 11.875 1.3125C13.0625 2 14 2.9375 14.6875 4.125C15.375 5.3125 15.75 6.625 15.75 8C15.75 9.40625 15.375 10.6875 14.6875 11.875C14 13.0625 13.0625 14.0312 11.875 14.7188C10.6875 15.4062 9.375 15.75 8 15.75C6.59375 15.75 5.3125 15.4062 4.125 14.7188C2.9375 14.0312 1.96875 13.0625 1.28125 11.875C0.59375 10.6875 0.25 9.40625 0.25 8C0.25 6.625 0.59375 5.3125 1.28125 4.125C1.96875 2.9375 2.9375 2 4.125 1.3125C5.3125 0.625 6.59375 0.25 8 0.25ZM8 3.6875C7.625 3.6875 7.3125 3.84375 7.0625 4.09375C6.8125 4.34375 6.6875 4.65625 6.6875 5C6.6875 5.375 6.8125 5.6875 7.0625 5.9375C7.3125 6.1875 7.625 6.3125 8 6.3125C8.34375 6.3125 8.65625 6.1875 8.90625 5.9375C9.15625 5.6875 9.3125 5.375 9.3125 5C9.3125 4.65625 9.15625 4.34375 8.90625 4.09375C8.65625 3.84375 8.34375 3.6875 8 3.6875ZM9.75 11.625V10.875C9.75 10.7812 9.6875 10.6875 9.625 10.625C9.5625 10.5625 9.46875 10.5 9.375 10.5H9V7.375C9 7.28125 8.9375 7.1875 8.875 7.125C8.8125 7.0625 8.71875 7 8.625 7H6.625C6.5 7 6.40625 7.0625 6.34375 7.125C6.28125 7.1875 6.25 7.28125 6.25 7.375V8.125C6.25 8.25 6.28125 8.34375 6.34375 8.40625C6.40625 8.46875 6.5 8.5 6.625 8.5H7V10.5H6.625C6.5 10.5 6.40625 10.5625 6.34375 10.625C6.28125 10.6875 6.25 10.7812 6.25 10.875V11.625C6.25 11.75 6.28125 11.8438 6.34375 11.9062C6.40625 11.9688 6.5 12 6.625 12H9.375C9.46875 12 9.5625 11.9688 9.625 11.9062C9.6875 11.8438 9.75 11.75 9.75 11.625Z" fill="#454559"/>
</svg>
