<svg width="16" height="16" viewBox="0 0 16 16" fill="none" xmlns="http://www.w3.org/2000/svg">
<path opacity="0.8" d="M15.75 8C15.75 6.625 15.375 5.3125 14.6875 4.125C14 2.9375 13.0625 2 11.875 1.3125C10.6875 0.625 9.375 0.25 8 0.25C6.59375 0.25 5.3125 0.625 4.125 1.3125C2.9375 2 1.96875 2.9375 1.28125 4.125C0.59375 5.3125 0.25 6.625 0.25 8C0.25 9.40625 0.59375 10.6875 1.28125 11.875C1.96875 13.0625 2.9375 14.0312 4.125 14.7188C5.3125 15.4062 6.59375 15.75 8 15.75C9.375 15.75 10.6875 15.4062 11.875 14.7188C13.0625 14.0312 14 13.0625 14.6875 11.875C15.375 10.6875 15.75 9.40625 15.75 8ZM8 9.5625C8.375 9.5625 8.71875 9.71875 9 10C9.28125 10.2812 9.4375 10.625 9.4375 11C9.4375 11.4062 9.28125 11.75 9 12.0312C8.71875 12.3125 8.375 12.4375 8 12.4375C7.59375 12.4375 7.25 12.3125 6.96875 12.0312C6.6875 11.75 6.5625 11.4062 6.5625 11C6.5625 10.625 6.6875 10.2812 6.96875 10C7.25 9.71875 7.59375 9.5625 8 9.5625ZM6.625 4.40625C6.625 4.28125 6.65625 4.1875 6.71875 4.125C6.78125 4.0625 6.875 4 7 4H9C9.09375 4 9.1875 4.0625 9.25 4.125C9.3125 4.1875 9.375 4.28125 9.375 4.40625L9.125 8.65625C9.125 8.75 9.0625 8.84375 9 8.90625C8.9375 8.96875 8.84375 9 8.75 9H7.25C7.125 9 7.03125 8.96875 6.96875 8.90625C6.90625 8.84375 6.875 8.75 6.875 8.65625L6.625 4.40625Z" fill="#454559"/>
</svg>
