<svg width="14" height="16" viewBox="0 0 14 16" fill="none" xmlns="http://www.w3.org/2000/svg">
<path opacity="0.8" d="M12.5 7C12.9062 7 13.25 7.15625 13.5625 7.4375C13.8438 7.75 14 8.09375 14 8.5V14.5C14 14.9375 13.8438 15.2812 13.5625 15.5625C13.25 15.875 12.9062 16 12.5 16H1.5C1.0625 16 0.71875 15.875 0.4375 15.5625C0.125 15.2812 0 14.9375 0 14.5V8.5C0 8.09375 0.125 7.75 0.4375 7.4375C0.71875 7.15625 1.0625 7 1.5 7H2.25V4.75C2.25 3.90625 2.4375 3.125 2.875 2.375C3.3125 1.65625 3.875 1.09375 4.625 0.65625C5.34375 0.21875 6.125 0 7 0C7.84375 0 8.625 0.21875 9.375 0.65625C10.0938 1.09375 10.6562 1.65625 11.0938 2.375C11.5312 3.125 11.75 3.90625 11.75 4.75V7H12.5ZM9.25 7V4.75C9.25 4.125 9.03125 3.59375 8.59375 3.15625C8.15625 2.71875 7.625 2.5 7 2.5C6.375 2.5 5.84375 2.71875 5.40625 3.15625C4.96875 3.59375 4.75 4.125 4.75 4.75V7H9.25Z" fill="#454559"/>
</svg>
