<svg width="12" height="10" viewBox="0 0 12 10" fill="none" xmlns="http://www.w3.org/2000/svg">
<path opacity="0.8" d="M9.75 11C10.3594 11 10.8984 10.7891 11.3438 10.3438C11.7656 9.92188 12 9.38281 12 8.75V4.25C12 3.64062 11.7656 3.10156 11.3438 2.65625C10.8984 2.23438 10.3594 2 9.75 2H7.78125C7.6875 2 7.61719 2.04688 7.57031 2.09375C7.52344 2.14062 7.5 2.21094 7.5 2.28125V3.21875C7.5 3.3125 7.52344 3.38281 7.57031 3.42969C7.61719 3.47656 7.6875 3.5 7.78125 3.5H9.75C9.9375 3.5 10.125 3.59375 10.2656 3.73438C10.4062 3.875 10.5 4.0625 10.5 4.25V8.75C10.5 8.96094 10.4062 9.14844 10.2656 9.28906C10.125 9.42969 9.9375 9.5 9.75 9.5H7.78125C7.6875 9.5 7.61719 9.54688 7.57031 9.59375C7.52344 9.64062 7.5 9.71094 7.5 9.78125V10.7188C7.5 10.8125 7.52344 10.8828 7.57031 10.9297C7.61719 10.9766 7.6875 11 7.78125 11H9.75ZM8.64844 6.28906C8.74219 6.40625 8.8125 6.54688 8.8125 6.6875C8.8125 6.85156 8.74219 6.99219 8.64844 7.08594L4.71094 11.0234C4.59375 11.1406 4.45312 11.1875 4.3125 11.1875C4.14844 11.1875 4.00781 11.1406 3.91406 11.0234C3.79688 10.9297 3.75 10.7891 3.75 10.625V8.375H0.5625C0.398438 8.375 0.257812 8.32812 0.164062 8.21094C0.046875 8.11719 0 7.97656 0 7.8125V5.5625C0 5.42188 0.046875 5.28125 0.164062 5.16406C0.257812 5.07031 0.398438 5 0.5625 5H3.75V2.75C3.75 2.60938 3.79688 2.46875 3.91406 2.35156C4.00781 2.25781 4.14844 2.1875 4.3125 2.1875C4.45312 2.1875 4.59375 2.25781 4.71094 2.35156L8.64844 6.28906Z" transform="translate(0 -2)" fill="#454559"/>
</svg>
