<svg width="14" height="14" viewBox="0 0 14 14" fill="none" xmlns="http://www.w3.org/2000/svg">
<path opacity="0.8" d="M7 4.40625C7.625 4.40625 8.21875 4.59375 8.78125 4.90625C9.34375 5.21875 9.78125 5.65625 10.0938 6.21875C10.4062 6.78125 10.5938 7.375 10.5938 8C10.5938 8.65625 10.4062 9.25 10.0938 9.8125C9.78125 10.375 9.34375 10.8125 8.78125 11.125C8.21875 11.4375 7.625 11.5938 7 11.5938C6.34375 11.5938 5.75 11.4375 5.1875 11.125C4.625 10.8125 4.1875 10.375 3.875 9.8125C3.5625 9.25 3.40625 8.65625 3.40625 8C3.40625 7.375 3.5625 6.78125 3.875 6.21875C4.1875 5.65625 4.625 5.21875 5.1875 4.90625C5.75 4.59375 6.34375 4.40625 7 4.40625ZM7 10.3438C7.625 10.3438 8.1875 10.125 8.65625 9.65625C9.09375 9.21875 9.34375 8.65625 9.34375 8C9.34375 7.375 9.09375 6.8125 8.65625 6.34375C8.1875 5.90625 7.625 5.65625 7 5.65625C6.34375 5.65625 5.78125 5.90625 5.34375 6.34375C4.875 6.8125 4.65625 7.375 4.65625 8C4.65625 8.65625 4.875 9.21875 5.34375 9.65625C5.78125 10.125 6.34375 10.3438 7 10.3438ZM11.5938 4.25C11.5938 4.03125 11.5 3.84375 11.3438 3.65625C11.1562 3.5 10.9688 3.40625 10.75 3.40625C10.5 3.40625 10.3125 3.5 10.1562 3.65625C9.96875 3.84375 9.90625 4.03125 9.90625 4.25C9.90625 4.5 9.96875 4.6875 10.1562 4.84375C10.3125 5.03125 10.5 5.09375 10.75 5.09375C10.9688 5.09375 11.1562 5.03125 11.3125 4.84375C11.4688 4.6875 11.5625 4.5 11.5938 4.25ZM13.9688 5.09375C13.9688 5.6875 14 6.65625 14 8C14 9.375 13.9688 10.3438 13.9375 10.9375C13.9062 11.5312 13.8125 12.0312 13.6875 12.4688C13.5 13 13.1875 13.4688 12.8125 13.8438C12.4375 14.2188 11.9688 14.5 11.4688 14.6875C11.0312 14.8438 10.5 14.9375 9.90625 14.9688C9.3125 15 8.34375 15 7 15C5.625 15 4.65625 15 4.0625 14.9688C3.46875 14.9375 2.96875 14.8438 2.53125 14.6562C2 14.5 1.53125 14.2188 1.15625 13.8438C0.78125 13.4688 0.5 13 0.3125 12.4688C0.15625 12.0312 0.0625 11.5312 0.03125 10.9375C0 10.3438 0 9.375 0 8C0 6.65625 0 5.6875 0.03125 5.09375C0.0625 4.5 0.15625 3.96875 0.3125 3.53125C0.5 3.03125 0.78125 2.5625 1.15625 2.1875C1.53125 1.8125 2 1.5 2.53125 1.3125C2.96875 1.1875 3.46875 1.09375 4.0625 1.0625C4.65625 1.03125 5.625 1 7 1C8.34375 1 9.3125 1.03125 9.90625 1.0625C10.5 1.09375 11.0312 1.1875 11.4688 1.3125C11.9688 1.5 12.4375 1.8125 12.8125 2.1875C13.1875 2.5625 13.5 3.03125 13.6875 3.53125C13.8125 3.96875 13.9062 4.5 13.9688 5.09375ZM12.4688 12.125C12.5938 11.7812 12.6562 11.2188 12.7188 10.4375C12.7188 10 12.75 9.34375 12.75 8.5V7.5C12.75 6.65625 12.7188 6 12.7188 5.5625C12.6562 4.78125 12.5938 4.21875 12.4688 3.875C12.2188 3.25 11.75 2.78125 11.125 2.53125C10.7812 2.40625 10.2188 2.34375 9.4375 2.28125C8.96875 2.28125 8.3125 2.25 7.5 2.25H6.5C5.65625 2.25 5 2.28125 4.5625 2.28125C3.78125 2.34375 3.21875 2.40625 2.875 2.53125C2.21875 2.78125 1.78125 3.25 1.53125 3.875C1.40625 4.21875 1.3125 4.78125 1.28125 5.5625C1.25 6.03125 1.25 6.6875 1.25 7.5V8.5C1.25 9.34375 1.25 10 1.28125 10.4375C1.3125 11.2188 1.40625 11.7812 1.53125 12.125C1.78125 12.7812 2.25 13.2188 2.875 13.4688C3.21875 13.5938 3.78125 13.6875 4.5625 13.7188C5 13.75 5.65625 13.75 6.5 13.75H7.5C8.34375 13.75 9 13.75 9.4375 13.7188C10.2188 13.6875 10.7812 13.5938 11.125 13.4688C11.75 13.2188 12.2188 12.75 12.4688 12.125Z" transform="translate(0 -1)" fill="#454559"/>
</svg>
