<svg width="18" height="10" viewBox="0 0 18 10" fill="none" xmlns="http://www.w3.org/2000/svg">
<path opacity="0.8" d="M17.0312 3.6875C16.9688 4 16.7188 4.53125 16.2812 5.25C15.9688 5.78125 15.5938 6.375 15.1562 7.0625C14.7812 7.625 14.5625 7.90625 14.5625 7.90625C14.4375 8.09375 14.375 8.25 14.375 8.34375C14.375 8.46875 14.4375 8.59375 14.5625 8.71875L14.8438 9.03125C16.3438 10.5938 17.1875 11.6562 17.375 12.2188C17.4375 12.4688 17.4062 12.6875 17.2812 12.8125C17.1562 12.9375 17 13 16.75 13H14.9062C14.6562 13 14.4688 12.9375 14.2812 12.7812C14.1562 12.7188 13.9062 12.5 13.5938 12.125C13.2812 11.75 13 11.4375 12.75 11.1875C11.9062 10.4062 11.2812 10 10.9062 10C10.7188 10 10.5938 10.0312 10.5312 10.0938C10.4688 10.1562 10.4375 10.3125 10.4375 10.5C10.4062 10.6562 10.4062 10.9688 10.4062 11.4688V12.2812C10.4062 12.5312 10.3438 12.7188 10.2188 12.8125C10.0312 12.9375 9.65625 13 9.09375 13C8.09375 13 7.125 12.7188 6.125 12.125C5.125 11.5625 4.25 10.7188 3.5 9.625C2.78125 8.6875 2.1875 7.71875 1.71875 6.71875C1.34375 5.96875 1.03125 5.28125 0.8125 4.625C0.65625 4.125 0.59375 3.75 0.59375 3.53125C0.59375 3.1875 0.78125 3 1.21875 3H3.0625C3.28125 3 3.4375 3.0625 3.5625 3.15625C3.6875 3.28125 3.78125 3.46875 3.875 3.71875C4.15625 4.5625 4.5 5.375 4.9375 6.15625C5.3125 6.90625 5.6875 7.5 6.0625 7.9375C6.4375 8.40625 6.71875 8.625 6.9375 8.625C7.0625 8.625 7.125 8.59375 7.1875 8.5C7.25 8.40625 7.28125 8.21875 7.28125 7.9375V5.21875C7.25 4.90625 7.1875 4.59375 7.0625 4.34375C7 4.21875 6.875 4.0625 6.75 3.875C6.59375 3.6875 6.53125 3.5625 6.53125 3.4375C6.53125 3.3125 6.5625 3.21875 6.65625 3.125C6.75 3.0625 6.875 3 7 3H9.90625C10.0938 3 10.2188 3.0625 10.2812 3.15625C10.3438 3.28125 10.4062 3.4375 10.4062 3.6875V7.3125C10.4062 7.5 10.4375 7.65625 10.5 7.71875C10.5625 7.8125 10.625 7.84375 10.7188 7.84375C10.8125 7.84375 10.9375 7.8125 11.0625 7.75C11.1875 7.6875 11.3438 7.53125 11.5625 7.28125C11.9375 6.84375 12.3438 6.3125 12.75 5.65625C13 5.21875 13.2812 4.71875 13.5312 4.15625L13.8438 3.53125C13.9688 3.1875 14.25 3 14.625 3H16.4688C16.9688 3 17.1562 3.25 17.0312 3.6875Z" transform="translate(0 -3)" fill="#454559"/>
</svg>
