<svg width="18" height="12" viewBox="0 0 18 12" fill="none" xmlns="http://www.w3.org/2000/svg">
<path opacity="0.8" d="M17.1875 3.875C17.3125 4.4375 17.4375 5.3125 17.5 6.4375L17.5312 8L17.5 9.5625C17.4375 10.75 17.3125 11.5938 17.1875 12.1562C17.0625 12.5312 16.875 12.8438 16.625 13.0938C16.3438 13.375 16.0312 13.5625 15.6562 13.6562C15.0938 13.8125 13.8438 13.9062 11.8438 13.9688L9 14L6.15625 13.9688C4.15625 13.9062 2.875 13.8125 2.34375 13.6562C1.96875 13.5625 1.625 13.375 1.375 13.0938C1.09375 12.8438 0.90625 12.5312 0.8125 12.1562C0.65625 11.5938 0.5625 10.75 0.5 9.5625L0.46875 8C0.46875 7.5625 0.46875 7.03125 0.5 6.4375C0.5625 5.3125 0.65625 4.4375 0.8125 3.875C0.90625 3.5 1.09375 3.1875 1.375 2.90625C1.625 2.65625 1.96875 2.46875 2.34375 2.34375C2.875 2.21875 4.15625 2.09375 6.15625 2.03125L9 2L11.8438 2.03125C13.8438 2.09375 15.0938 2.21875 15.6562 2.34375C16.0312 2.46875 16.3438 2.65625 16.625 2.90625C16.875 3.1875 17.0625 3.5 17.1875 3.875ZM7.25 10.5625L11.7188 8L7.25 5.46875V10.5625Z" transform="translate(0 -2)" fill="#454559"/>
</svg>
