<svg width="20" height="10" viewBox="0 0 20 10" fill="none" xmlns="http://www.w3.org/2000/svg">
<path opacity="0.8" d="M3.46875 8C3.46875 7.9375 3.40625 7.875 3.34375 7.875C3.25 7.875 3.21875 7.9375 3.21875 8L3.03125 10.0312L3.21875 12.1875C3.21875 12.2812 3.25 12.3125 3.34375 12.3125C3.40625 12.3125 3.46875 12.2812 3.46875 12.1875L3.65625 10.0312L3.46875 8ZM4.15625 6.59375C4.1875 6.59375 4.21875 6.625 4.25 6.65625C4.28125 6.6875 4.3125 6.71875 4.3125 6.75L4.46875 10.0312L4.3125 12.1875C4.3125 12.25 4.28125 12.2812 4.25 12.3125C4.21875 12.3438 4.1875 12.3438 4.15625 12.3438C4.03125 12.3438 4 12.3125 4 12.1875L3.84375 10.0312L4 6.75C4 6.65625 4.03125 6.59375 4.15625 6.59375ZM4.9375 5.84375C4.96875 5.84375 5 5.875 5.0625 5.90625C5.09375 5.9375 5.125 5.96875 5.125 6L5.28125 10.0625L5.125 12.1875C5.125 12.25 5.09375 12.2812 5.0625 12.3125C5 12.3438 4.96875 12.3438 4.9375 12.3438C4.8125 12.3438 4.78125 12.3125 4.78125 12.1875L4.625 10.0625L4.78125 6C4.78125 5.90625 4.8125 5.84375 4.9375 5.84375ZM0.21875 8.84375C0.25 8.84375 0.28125 8.875 0.3125 8.9375L0.46875 10.0312L0.3125 11.125C0.28125 11.1875 0.25 11.2188 0.21875 11.2188C0.15625 11.2188 0.15625 11.1875 0.15625 11.125L0 10.0312L0.15625 8.9375C0.15625 8.875 0.15625 8.84375 0.21875 8.84375ZM0.96875 8.15625C1 8.15625 1.03125 8.1875 1.0625 8.25L1.28125 10.0312L1.0625 11.8125C1.03125 11.875 1 11.875 0.9375 11.875C0.875 11.875 0.875 11.8438 0.875 11.7812L0.6875 10.0312L0.875 8.25C0.875 8.1875 0.90625 8.15625 0.96875 8.15625ZM1.75 7.8125C1.8125 7.8125 1.84375 7.84375 1.84375 7.90625L2.0625 10.0312L1.84375 12.0938C1.84375 12.1562 1.8125 12.1875 1.75 12.1875C1.6875 12.1875 1.65625 12.1562 1.65625 12.0938L1.46875 10.0312L1.65625 7.90625C1.65625 7.84375 1.6875 7.8125 1.75 7.8125ZM2.53125 7.75C2.59375 7.75 2.65625 7.78125 2.65625 7.84375L2.875 10.0312L2.65625 12.1562C2.65625 12.25 2.59375 12.2812 2.53125 12.2812C2.46875 12.2812 2.4375 12.25 2.4375 12.1562L2.25 10.0312L2.4375 7.84375C2.4375 7.78125 2.46875 7.75 2.53125 7.75ZM10.0938 4.28125C10.1562 4.34375 10.2188 4.40625 10.2188 4.5L10.3438 10.0312L10.2188 12.0625C10.2188 12.125 10.1875 12.1875 10.125 12.25C10.0625 12.3125 10 12.3125 9.9375 12.3125C9.875 12.3125 9.8125 12.3125 9.75 12.25C9.6875 12.1875 9.6875 12.125 9.6875 12.0625L9.5625 10.0312L9.6875 4.5C9.6875 4.4375 9.6875 4.375 9.75 4.3125C9.8125 4.25 9.875 4.21875 9.9375 4.21875C10 4.21875 10.0312 4.25 10.0938 4.28125ZM9.25 4.75C9.3125 4.8125 9.375 4.875 9.375 4.96875L9.46875 10.0625L9.375 12.0938C9.375 12.1562 9.34375 12.2188 9.28125 12.2812C9.21875 12.3438 9.15625 12.3438 9.09375 12.3438C9.03125 12.3438 8.96875 12.3438 8.9375 12.2812C8.875 12.2188 8.875 12.1562 8.875 12.0938L8.78125 10.0312L8.875 4.96875C8.875 4.875 8.90625 4.8125 8.96875 4.78125C9.03125 4.75 9.0625 4.71875 9.125 4.71875C9.15625 4.71875 9.1875 4.75 9.25 4.75ZM5.78125 5.46875C5.8125 5.46875 5.84375 5.5 5.90625 5.53125C5.9375 5.5625 5.96875 5.59375 5.96875 5.65625L6.125 10.0312L5.96875 12.125C5.9375 12.25 5.875 12.3125 5.75 12.3125C5.625 12.3125 5.59375 12.25 5.59375 12.125L5.46875 10.0312L5.59375 5.65625C5.59375 5.59375 5.59375 5.5625 5.625 5.53125C5.65625 5.5 5.71875 5.46875 5.78125 5.46875ZM17.5312 7.40625C18.2188 7.40625 18.7812 7.65625 19.2812 8.15625C19.75 8.65625 20 9.21875 20 9.90625C20 10.5938 19.75 11.1562 19.2812 11.625C18.7812 12.125 18.2188 12.3438 17.5312 12.3438H10.7188C10.625 12.3438 10.5625 12.3125 10.5 12.25C10.4375 12.1875 10.4375 12.125 10.4375 12.0312V4.25C10.4375 4.1875 10.4375 4.125 10.5 4.0625C10.5312 4.03125 10.5938 4 10.6875 3.9375C11.1875 3.75 11.7188 3.65625 12.2812 3.65625C13 3.65625 13.6875 3.84375 14.3125 4.1875C14.9375 4.5625 15.4688 5.03125 15.875 5.625C16.2812 6.25 16.5312 6.90625 16.5938 7.59375C16.9062 7.46875 17.2188 7.40625 17.5312 7.40625ZM8.28125 5.53125C8.40625 5.53125 8.5 5.625 8.5 5.78125L8.625 10.0625L8.5 12.0938C8.5 12.1562 8.46875 12.2188 8.4375 12.2812C8.375 12.3438 8.34375 12.3438 8.28125 12.3438C8.21875 12.3438 8.15625 12.3438 8.09375 12.2812C8.03125 12.2188 8.03125 12.1562 8.03125 12.0938L7.9375 10.0625L8.03125 5.78125C8.03125 5.71875 8.03125 5.6875 8.09375 5.625C8.15625 5.5625 8.21875 5.53125 8.28125 5.53125ZM6.59375 5.28125C6.65625 5.28125 6.6875 5.3125 6.75 5.34375C6.78125 5.40625 6.8125 5.4375 6.8125 5.5L6.9375 10.0312L6.8125 12.125C6.78125 12.2812 6.71875 12.3438 6.59375 12.3438C6.53125 12.3438 6.5 12.3438 6.46875 12.2812C6.40625 12.25 6.40625 12.1875 6.40625 12.125L6.28125 10.0312L6.40625 5.5C6.40625 5.4375 6.40625 5.40625 6.46875 5.34375C6.5 5.3125 6.53125 5.28125 6.59375 5.28125ZM7.4375 5.40625C7.5 5.40625 7.53125 5.4375 7.59375 5.46875C7.625 5.53125 7.65625 5.5625 7.65625 5.625L7.78125 10.0312L7.65625 12.125C7.65625 12.1875 7.625 12.25 7.59375 12.2812C7.53125 12.3438 7.5 12.3438 7.4375 12.3438C7.28125 12.3438 7.21875 12.2812 7.21875 12.125L7.09375 10.0312L7.21875 5.625C7.21875 5.5625 7.21875 5.53125 7.28125 5.46875C7.3125 5.4375 7.375 5.40625 7.4375 5.40625Z" transform="translate(0 -3)" fill="#454559"/>
</svg>
