<svg width="10" height="6" viewBox="0 0 10 6" version="1.1" xmlns="http://www.w3.org/2000/svg" xmlns:xlink="http://www.w3.org/1999/xlink">
<title>Vector</title>
<desc>Created using Figma</desc>
<g id="Canvas" transform="translate(-11382 5637)">
<g id="Vector">
<use xlink:href="#path0_fill" transform="matrix(-1.83697e-16 -1 1 -1.83697e-16 11382 -5631.17)" fill="#A9ABC2"/>
</g>
</g>
<defs>
<path id="path0_fill" fill-rule="evenodd" d="M 5.57081 4.27619L 1.67078 0.276188C 1.4848 0.0988988 1.23772 4.10939e-06 0.980778 4.10939e-06C 0.723837 4.10939e-06 0.476783 0.0988988 0.290806 0.276188C 0.107579 0.463117 0.00494797 0.714448 0.00494797 0.9762C 0.00494797 1.23795 0.107579 1.48928 0.290806 1.67621L 3.5008 4.94617L 0.290806 8.20618C 0.104555 8.39354 4.12181e-06 8.64701 4.12181e-06 8.9112C 4.12181e-06 9.17538 0.104555 9.42885 0.290806 9.61621C 0.476783 9.7935 0.723837 9.8924 0.980778 9.8924C 1.23772 9.8924 1.4848 9.7935 1.67078 9.61621L 5.57081 5.61622C 5.73665 5.43246 5.82843 5.19369 5.82843 4.94617C 5.82843 4.69865 5.73665 4.45994 5.57081 4.27619Z"/>
</defs>
</svg>
