<svg width="21" height="21" viewBox="0 0 21 21" fill="none" xmlns="http://www.w3.org/2000/svg">
<path fill-rule="evenodd" clip-rule="evenodd" d="M17.1664 9.54444L16.0553 8.43333C15.8447 8.22134 15.5934 8.05401 15.3166 7.94137C15.0397 7.82873 14.7431 7.77309 14.4442 7.77777H12.0332L9.99986 5.74444V3.33333C10.0003 2.7465 9.76864 2.18331 9.3554 1.76667L8.24431 0.655556C8.03758 0.447591 7.79177 0.282597 7.52098 0.170085C7.2502 0.0575733 6.9598 -0.000231657 6.66657 6.97701e-07H3.33329C2.90582 0.000892612 2.48768 0.125057 2.12901 0.357607C1.77034 0.590157 1.48634 0.921223 1.31108 1.31111C0.921201 1.48637 0.59014 1.77037 0.357593 2.12905C0.125046 2.48772 0.000891902 2.90586 0 3.33333V6.66666C0.00248084 7.25508 0.238262 7.8185 0.655576 8.23333L1.76667 9.34444C2.1815 9.76176 2.74488 9.99751 3.33329 10H5.75547L7.77767 12.0333V14.4444C7.78015 15.0329 8.01593 15.5963 8.43324 16.0111L9.54434 17.1222C9.95917 17.5395 10.5225 17.7753 11.111 17.7778H14.4442C14.8736 17.779 15.2941 17.6559 15.655 17.4232C16.0158 17.1905 16.3015 16.8583 16.4776 16.4667C16.8654 16.2898 17.1941 16.0051 17.4246 15.6465C17.6551 15.288 17.7776 14.8707 17.7775 14.4444V11.1111C17.7869 10.529 17.5675 9.96645 17.1664 9.54444ZM15.5553 14.4444L13.3331 12.2222H12.222V13.3333L14.4442 15.5555H11.111L9.99986 14.4444V11.1111L6.66657 7.77777H3.33329L2.22219 6.66666V3.33333L4.44438 5.55555H5.55548V4.44444L3.33329 2.22222H6.66657L7.77767 3.33333V6.66666L11.111 10H14.4442L15.5553 11.1111V14.4444Z" transform="translate(3.22168 3.22217)" fill="#9B51E0" fill-opacity="0.32"/>
<path fill-rule="evenodd" clip-rule="evenodd" d="M17.1664 9.54444L16.0553 8.43333C15.8447 8.22134 15.5934 8.05401 15.3166 7.94137C15.0397 7.82873 14.7431 7.77309 14.4442 7.77777H12.0332L9.99986 5.74444V3.33333C10.0003 2.7465 9.76864 2.18331 9.3554 1.76667L8.24431 0.655556C8.03758 0.447591 7.79177 0.282597 7.52098 0.170085C7.2502 0.0575733 6.9598 -0.000231657 6.66657 6.97701e-07H3.33329C2.90582 0.000892612 2.48768 0.125057 2.12901 0.357607C1.77034 0.590157 1.48634 0.921223 1.31108 1.31111C0.921201 1.48637 0.59014 1.77037 0.357593 2.12905C0.125046 2.48772 0.000891902 2.90586 0 3.33333V6.66666C0.00248084 7.25508 0.238262 7.8185 0.655576 8.23333L1.76667 9.34444C2.1815 9.76176 2.74488 9.99751 3.33329 10H5.75547L7.77767 12.0333V14.4444C7.78015 15.0329 8.01593 15.5963 8.43324 16.0111L9.54434 17.1222C9.95917 17.5395 10.5225 17.7753 11.111 17.7778H14.4442C14.8736 17.779 15.2941 17.6559 15.655 17.4232C16.0158 17.1905 16.3015 16.8583 16.4776 16.4667C16.8654 16.2898 17.1941 16.0051 17.4246 15.6465C17.6551 15.288 17.7776 14.8707 17.7775 14.4444V11.1111C17.7869 10.529 17.5675 9.96645 17.1664 9.54444ZM15.5553 14.4444L13.3331 12.2222H12.222V13.3333L14.4442 15.5555H11.111L9.99986 14.4444V11.1111L6.66657 7.77777H3.33329L2.22219 6.66666V3.33333L4.44438 5.55555H5.55548V4.44444L3.33329 2.22222H6.66657L7.77767 3.33333V6.66666L11.111 10H14.4442L15.5553 11.1111V14.4444Z" transform="translate(1 1)" fill="#9B51E0" stroke="white" stroke-width="1.1111"/>
</svg>
