<svg width="21" height="19" viewBox="0 0 21 19" fill="none" xmlns="http://www.w3.org/2000/svg">
<path fill-rule="evenodd" clip-rule="evenodd" d="M12.2494 4.56308e-05C11.0447 4.56308e-05 9.87247 0.394728 8.90869 1.12485C7.9472 0.390304 6.77345 -0.00488757 5.56793 4.56308e-05C4.09122 4.56308e-05 2.67501 0.592588 1.63082 1.6473C0.586632 2.70201 0 4.13249 0 5.62407C0 11.0006 7.04898 15.0274 7.85077 15.4774C8.17717 15.6565 8.54277 15.7504 8.91426 15.7504C9.28575 15.7504 9.65132 15.6565 9.97772 15.4774C10.7795 15.0274 17.7728 10.9781 17.7728 5.62407C17.7729 4.14025 17.1924 2.71655 16.1578 1.66312C15.1232 0.609696 13.7184 0.0119162 12.2494 4.56308e-05ZM8.90869 13.4977C8.90869 13.4977 2.22717 9.81959 2.22717 5.62407C2.22717 4.72912 2.57916 3.87084 3.20567 3.23801C3.83218 2.60519 4.6819 2.24966 5.56793 2.24966C6.45395 2.24966 7.30367 2.60519 7.93019 3.23801C8.5567 3.87084 8.90869 4.72912 8.90869 5.62407C8.90869 4.72912 9.26067 3.87084 9.88719 3.23801C10.5137 2.60519 11.3634 2.24966 12.2494 2.24966C13.1355 2.24966 13.9852 2.60519 14.6117 3.23801C15.2382 3.87084 15.5902 4.72912 15.5902 5.62407C15.5902 9.81959 8.90869 13.4977 8.90869 13.4977Z" transform="translate(3.22754 3.24951)" fill="#E97E7E" fill-opacity="0.32"/>
<path fill-rule="evenodd" clip-rule="evenodd" d="M12.2494 4.56308e-05C11.0447 4.56308e-05 9.87247 0.394728 8.90869 1.12485C7.9472 0.390304 6.77345 -0.00488757 5.56793 4.56308e-05C4.09122 4.56308e-05 2.67501 0.592588 1.63082 1.6473C0.586632 2.70201 0 4.13249 0 5.62407C0 11.0006 7.04898 15.0274 7.85077 15.4774C8.17717 15.6565 8.54277 15.7504 8.91426 15.7504C9.28575 15.7504 9.65132 15.6565 9.97772 15.4774C10.7795 15.0274 17.7728 10.9781 17.7728 5.62407C17.7729 4.14025 17.1924 2.71655 16.1578 1.66312C15.1232 0.609696 13.7184 0.0119162 12.2494 4.56308e-05ZM8.90869 13.4977C8.90869 13.4977 2.22717 9.81959 2.22717 5.62407C2.22717 4.72912 2.57916 3.87084 3.20567 3.23801C3.83218 2.60519 4.6819 2.24966 5.56793 2.24966C6.45395 2.24966 7.30367 2.60519 7.93019 3.23801C8.5567 3.87084 8.90869 4.72912 8.90869 5.62407C8.90869 4.72912 9.26067 3.87084 9.88719 3.23801C10.5137 2.60519 11.3634 2.24966 12.2494 2.24966C13.1355 2.24966 13.9852 2.60519 14.6117 3.23801C15.2382 3.87084 15.5902 4.72912 15.5902 5.62407C15.5902 9.81959 8.90869 13.4977 8.90869 13.4977Z" transform="translate(1 1)" fill="#E97E7E" stroke="white" stroke-width="1.11918"/>
</svg>
