<svg width="21" height="16" viewBox="0 0 21 16" fill="none" xmlns="http://www.w3.org/2000/svg">
<path fill-rule="evenodd" clip-rule="evenodd" d="M15.5556 0H2.22222C1.63285 0 1.06762 0.225759 0.650872 0.627617C0.234125 1.02947 0 1.57451 0 2.14282V10.7141C0 11.2824 0.234125 11.8275 0.650872 12.2293C1.06762 12.6312 1.63285 12.8569 2.22222 12.8569H15.5556C16.1449 12.8569 16.7102 12.6312 17.1269 12.2293C17.5437 11.8275 17.7778 11.2824 17.7778 10.7141V2.14282C17.7778 1.57451 17.5437 1.02947 17.1269 0.627617C16.7102 0.225759 16.1449 0 15.5556 0ZM13.8222 2.14282L8.88889 6.10706L4 2.14282H13.8222ZM15.5556 10.7141H2.22222V3.53565L8.17778 8.32486C8.37768 8.48458 8.62928 8.57178 8.88889 8.57129C9.1485 8.57178 9.4001 8.48458 9.6 8.32486L15.5556 3.53565V10.7141Z" transform="translate(3.22266 3.14307)" fill="#56CCF2" fill-opacity="0.32"/>
<path fill-rule="evenodd" clip-rule="evenodd" d="M15.5556 0H2.22222C1.63285 0 1.06762 0.225759 0.650872 0.627617C0.234125 1.02947 0 1.57451 0 2.14282V10.7141C0 11.2824 0.234125 11.8275 0.650872 12.2293C1.06762 12.6312 1.63285 12.8569 2.22222 12.8569H15.5556C16.1449 12.8569 16.7102 12.6312 17.1269 12.2293C17.5437 11.8275 17.7778 11.2824 17.7778 10.7141V2.14282C17.7778 1.57451 17.5437 1.02947 17.1269 0.627617C16.7102 0.225759 16.1449 0 15.5556 0ZM13.8222 2.14282L8.88889 6.10706L4 2.14282H13.8222ZM15.5556 10.7141H2.22222V3.53565L8.17778 8.32486C8.37768 8.48458 8.62928 8.57178 8.88889 8.57129C9.1485 8.57178 9.4001 8.48458 9.6 8.32486L15.5556 3.53565V10.7141Z" transform="translate(1 1)" fill="#56CCF2" stroke="white" stroke-width="1.09109"/>
</svg>
