<svg width="21" height="21" viewBox="0 0 21 21" fill="none" xmlns="http://www.w3.org/2000/svg">
<path fill-rule="evenodd" clip-rule="evenodd" d="M16.6667 2.22222H14.4444C14.4444 1.63285 14.2103 1.06762 13.7935 0.650872C13.3768 0.234125 12.8116 0 12.2222 0H5.55556C4.96619 0 4.40099 0.234125 3.98424 0.650872C3.56749 1.06762 3.33333 1.63285 3.33333 2.22222H1.11111C0.816426 2.22222 0.533827 2.3393 0.325453 2.54768C0.117079 2.75605 0 3.03865 0 3.33333V6.66667C0 7.77778 0.83336 9.67779 3.77781 9.94446C4.1288 10.7742 4.67628 11.5061 5.37313 12.0771C6.06997 12.6482 6.89524 13.0411 7.77778 13.2222V15.5556H5.55556C5.26087 15.5556 4.97827 15.6726 4.7699 15.881C4.56152 16.0894 4.44444 16.372 4.44444 16.6667C4.44444 16.9614 4.56152 17.244 4.7699 17.4523C4.97827 17.6607 5.26087 17.7778 5.55556 17.7778H12.2222C12.5169 17.7778 12.7995 17.6607 13.0079 17.4523C13.2163 17.244 13.3333 16.9614 13.3333 16.6667C13.3333 16.372 13.2163 16.0894 13.0079 15.881C12.7995 15.6726 12.5169 15.5556 12.2222 15.5556H10V13.2222C10.8846 13.0428 11.7121 12.6506 12.411 12.0794C13.1098 11.5083 13.6591 10.7755 14.0111 9.94446C16.9555 9.67779 17.7778 7.72222 17.7778 6.66667V3.33333C17.7778 3.03865 17.6607 2.75605 17.4523 2.54768C17.244 2.3393 16.9614 2.22222 16.6667 2.22222ZM3.33333 7.64445C2.34444 7.37778 2.22222 6.77778 2.22222 6.63334V4.41111H3.33333V7.64445ZM12.2222 7.77778C12.2222 8.66183 11.8711 9.50967 11.2459 10.1348C10.6208 10.7599 9.77294 11.1111 8.88889 11.1111C8.00483 11.1111 7.15697 10.7599 6.53185 10.1348C5.90673 9.50967 5.55556 8.66183 5.55556 7.77778V2.22222H12.2222V7.77778ZM14.4444 7.64445V4.44444H15.5556V6.66667C15.5556 6.77778 15.4778 7.37778 14.4444 7.64445Z" transform="translate(3.22266 3.22217)" fill="#F2C94C" fill-opacity="0.32"/>
<path fill-rule="evenodd" clip-rule="evenodd" d="M16.6667 2.22222H14.4444C14.4444 1.63285 14.2103 1.06762 13.7935 0.650872C13.3768 0.234125 12.8116 0 12.2222 0H5.55556C4.96619 0 4.40099 0.234125 3.98424 0.650872C3.56749 1.06762 3.33333 1.63285 3.33333 2.22222H1.11111C0.816426 2.22222 0.533827 2.3393 0.325453 2.54768C0.117079 2.75605 0 3.03865 0 3.33333V6.66667C0 7.77778 0.83336 9.67779 3.77781 9.94446C4.1288 10.7742 4.67628 11.5061 5.37313 12.0771C6.06997 12.6482 6.89524 13.0411 7.77778 13.2222V15.5556H5.55556C5.26087 15.5556 4.97827 15.6726 4.7699 15.881C4.56152 16.0894 4.44444 16.372 4.44444 16.6667C4.44444 16.9614 4.56152 17.244 4.7699 17.4523C4.97827 17.6607 5.26087 17.7778 5.55556 17.7778H12.2222C12.5169 17.7778 12.7995 17.6607 13.0079 17.4523C13.2163 17.244 13.3333 16.9614 13.3333 16.6667C13.3333 16.372 13.2163 16.0894 13.0079 15.881C12.7995 15.6726 12.5169 15.5556 12.2222 15.5556H10V13.2222C10.8846 13.0428 11.7121 12.6506 12.411 12.0794C13.1098 11.5083 13.6591 10.7755 14.0111 9.94446C16.9555 9.67779 17.7778 7.72222 17.7778 6.66667V3.33333C17.7778 3.03865 17.6607 2.75605 17.4523 2.54768C17.244 2.3393 16.9614 2.22222 16.6667 2.22222ZM3.33333 7.64445C2.34444 7.37778 2.22222 6.77778 2.22222 6.63334V4.41111H3.33333V7.64445ZM12.2222 7.77778C12.2222 8.66183 11.8711 9.50967 11.2459 10.1348C10.6208 10.7599 9.77294 11.1111 8.88889 11.1111C8.00483 11.1111 7.15697 10.7599 6.53185 10.1348C5.90673 9.50967 5.55556 8.66183 5.55556 7.77778V2.22222H12.2222V7.77778ZM14.4444 7.64445V4.44444H15.5556V6.66667C15.5556 6.77778 15.4778 7.37778 14.4444 7.64445Z" transform="translate(1 1)" fill="#F2C94C" stroke="white" stroke-width="1.11111"/>
</svg>
