<svg width="21" height="21" viewBox="0 0 21 21" fill="none" xmlns="http://www.w3.org/2000/svg">
<path fill-rule="evenodd" clip-rule="evenodd" d="M15.5556 5.55555H14.4444V7.77778H15.5556V15.5556L12.8778 13.3333H6.66667V11.1111H6.10001L4.44444 12.4889V13.3333C4.44562 13.4941 4.46425 13.6543 4.5 13.8111C4.60874 14.305 4.8827 14.7471 5.27664 15.0643C5.67058 15.3814 6.16092 15.5547 6.66667 15.5556H12.0778L14.1333 17.2667C14.5331 17.598 15.0363 17.7788 15.5556 17.7778C15.8821 17.7776 16.2045 17.7056 16.5 17.5667C16.8819 17.3873 17.2049 17.103 17.4312 16.7468C17.6575 16.3907 17.7777 15.9775 17.7778 15.5556V7.77778C17.7778 7.18841 17.5437 6.62317 17.1269 6.20643C16.7102 5.78968 16.1449 5.55555 15.5556 5.55555ZM5.70001 10H11.1111C11.7005 10 12.2657 9.76587 12.6825 9.34913C13.0992 8.93238 13.3333 8.36715 13.3333 7.77778V2.22222C13.3333 1.63285 13.0992 1.06762 12.6825 0.650872C12.2657 0.234125 11.7005 0 11.1111 0H2.22222C1.63285 0 1.06762 0.234125 0.650872 0.650872C0.234125 1.06762 0 1.63285 0 2.22222V10C8.15864e-05 10.4219 0.120284 10.8351 0.346561 11.1913C0.572838 11.5474 0.89583 11.8318 1.27777 12.0111C1.57325 12.15 1.89572 12.2221 2.22222 12.2222C2.74145 12.2232 3.24464 12.0424 3.64444 11.7111L4.44444 11.0444L5.70001 10ZM2.22222 10V2.22222H11.1111V7.77778H4.9L4.44444 8.15555L2.22222 10Z" transform="translate(3.22168 3.22168)" fill="#27AE60" fill-opacity="0.32"/>
<path fill-rule="evenodd" clip-rule="evenodd" d="M15.5556 5.55555H14.4444V7.77778H15.5556V15.5556L12.8778 13.3333H6.66667V11.1111H6.10001L4.44444 12.4889V13.3333C4.44562 13.4941 4.46425 13.6543 4.5 13.8111C4.60874 14.305 4.8827 14.7471 5.27664 15.0643C5.67058 15.3814 6.16092 15.5547 6.66667 15.5556H12.0778L14.1333 17.2667C14.5331 17.598 15.0363 17.7788 15.5556 17.7778C15.8821 17.7776 16.2045 17.7056 16.5 17.5667C16.8819 17.3873 17.2049 17.103 17.4312 16.7468C17.6575 16.3907 17.7777 15.9775 17.7778 15.5556V7.77778C17.7778 7.18841 17.5437 6.62317 17.1269 6.20643C16.7102 5.78968 16.1449 5.55555 15.5556 5.55555ZM5.70001 10H11.1111C11.7005 10 12.2657 9.76587 12.6825 9.34913C13.0992 8.93238 13.3333 8.36715 13.3333 7.77778V2.22222C13.3333 1.63285 13.0992 1.06762 12.6825 0.650872C12.2657 0.234125 11.7005 0 11.1111 0H2.22222C1.63285 0 1.06762 0.234125 0.650872 0.650872C0.234125 1.06762 0 1.63285 0 2.22222V10C8.15864e-05 10.4219 0.120284 10.8351 0.346561 11.1913C0.572838 11.5474 0.89583 11.8318 1.27777 12.0111C1.57325 12.15 1.89572 12.2221 2.22222 12.2222C2.74145 12.2232 3.24464 12.0424 3.64444 11.7111L4.44444 11.0444L5.70001 10ZM2.22222 10V2.22222H11.1111V7.77778H4.9L4.44444 8.15555L2.22222 10Z" transform="translate(1 1)" fill="#27AE60" stroke="white" stroke-width="1.11111"/>
</svg>
