<svg width="21" height="20" viewBox="0 0 21 20" fill="none" xmlns="http://www.w3.org/2000/svg">
<path fill-rule="evenodd" clip-rule="evenodd" d="M17.6375 6.23502C17.5024 5.84548 17.2614 5.50051 16.9411 5.23817C16.6208 4.97584 16.2336 4.80635 15.8222 4.7484L12.372 4.30126L10.8724 1.21623C10.6831 0.850047 10.3956 0.542725 10.0415 0.328134C9.68738 0.113544 9.2804 1.40219e-05 8.86536 1.40219e-05C8.45033 1.40219e-05 8.04335 0.113544 7.68924 0.328134C7.33512 0.542725 7.04761 0.850047 6.85837 1.21623L5.37003 4.30126L1.91981 4.7484C1.50642 4.80442 1.11681 4.97302 0.794331 5.23548C0.471852 5.49794 0.229153 5.84396 0.0932238 6.23502C-0.023616 6.62525 -0.0307637 7.0397 0.072561 7.43367C0.175886 7.82763 0.385749 8.18616 0.679524 8.47056L3.20519 10.8291L2.56251 14.1824C2.50154 14.5878 2.55419 15.0021 2.7147 15.3798C2.87521 15.7576 3.1374 16.0843 3.4726 16.3243C3.8078 16.5643 4.2031 16.7083 4.6153 16.7406C5.02749 16.7729 5.44071 16.6922 5.80976 16.5073L8.86536 14.8754L11.9209 16.5073C12.2477 16.6778 12.6116 16.7661 12.9808 16.7644C13.4496 16.7647 13.9067 16.6201 14.2888 16.3508C14.63 16.1113 14.8944 15.7795 15.0504 15.3949C15.2063 15.0104 15.2473 14.5894 15.1682 14.1824L14.5255 10.8291L17.0512 8.47056C17.3549 8.19294 17.5717 7.83455 17.6756 7.43817C17.7796 7.04179 17.7664 6.62414 17.6375 6.23502ZM12.1239 10.0802L12.9808 14.6071L8.86536 12.3716L4.74989 14.6071L5.60682 10.0802L2.22424 6.91688L6.88091 6.31327L8.88792 2.15516L10.9062 6.31327L15.5516 6.91688L12.1239 10.0802Z" transform="translate(3.25488 3.23584)" fill="#F2C94C" fill-opacity="0.32"/>
<path fill-rule="evenodd" clip-rule="evenodd" d="M17.6375 6.23502C17.5024 5.84548 17.2614 5.50051 16.9411 5.23817C16.6208 4.97584 16.2336 4.80635 15.8222 4.7484L12.372 4.30126L10.8724 1.21623C10.6831 0.850047 10.3956 0.542725 10.0415 0.328134C9.68738 0.113544 9.2804 1.40219e-05 8.86536 1.40219e-05C8.45033 1.40219e-05 8.04335 0.113544 7.68924 0.328134C7.33512 0.542725 7.04761 0.850047 6.85837 1.21623L5.37003 4.30126L1.91981 4.7484C1.50642 4.80442 1.11681 4.97302 0.794331 5.23548C0.471852 5.49794 0.229153 5.84396 0.0932238 6.23502C-0.023616 6.62525 -0.0307637 7.0397 0.072561 7.43367C0.175886 7.82763 0.385749 8.18616 0.679524 8.47056L3.20519 10.8291L2.56251 14.1824C2.50154 14.5878 2.55419 15.0021 2.7147 15.3798C2.87521 15.7576 3.1374 16.0843 3.4726 16.3243C3.8078 16.5643 4.2031 16.7083 4.6153 16.7406C5.02749 16.7729 5.44071 16.6922 5.80976 16.5073L8.86536 14.8754L11.9209 16.5073C12.2477 16.6778 12.6116 16.7661 12.9808 16.7644C13.4496 16.7647 13.9067 16.6201 14.2888 16.3508C14.63 16.1113 14.8944 15.7795 15.0504 15.3949C15.2063 15.0104 15.2473 14.5894 15.1682 14.1824L14.5255 10.8291L17.0512 8.47056C17.3549 8.19294 17.5717 7.83455 17.6756 7.43817C17.7796 7.04179 17.7664 6.62414 17.6375 6.23502ZM12.1239 10.0802L12.9808 14.6071L8.86536 12.3716L4.74989 14.6071L5.60682 10.0802L2.22424 6.91688L6.88091 6.31327L8.88792 2.15516L10.9062 6.31327L15.5516 6.91688L12.1239 10.0802Z" transform="translate(1 1)" fill="#F2C94C" stroke="white" stroke-width="1.12264"/>
</svg>
