<svg width="18" height="18" viewBox="0 0 18 18" fill="none" xmlns="http://www.w3.org/2000/svg">
<path opacity="0.8" fill-rule="evenodd" clip-rule="evenodd" d="M16 4H12C12 3.20435 11.6839 2.44127 11.1213 1.87866C10.5587 1.31605 9.79565 1 9 1C8.20435 1 7.44129 1.31605 6.87868 1.87866C6.31607 2.44127 6 3.20435 6 4H2C1.73478 4 1.48043 4.10537 1.29289 4.29291C1.10536 4.48044 1 4.73478 1 5C1 5.26522 1.10536 5.51956 1.29289 5.70709C1.48043 5.89463 1.73478 6 2 6H3V15C3 15.5304 3.21071 16.0391 3.58578 16.4142C3.96086 16.7893 4.46957 17 5 17H13C13.5304 17 14.0391 16.7893 14.4142 16.4142C14.7893 16.0391 15 15.5304 15 15V6H16C16.2652 6 16.5196 5.89463 16.7071 5.70709C16.8946 5.51956 17 5.26522 17 5C17 4.73478 16.8946 4.48044 16.7071 4.29291C16.5196 4.10537 16.2652 4 16 4ZM9 3C9.26522 3 9.51957 3.10537 9.70711 3.29291C9.89464 3.48044 10 3.73478 10 4H8C8 3.73478 8.10536 3.48044 8.29289 3.29291C8.48043 3.10537 8.73478 3 9 3ZM13 15H5V6H13V15ZM8 10H10C10.2652 10 10.5196 9.89463 10.7071 9.70709C10.8946 9.51956 11 9.26522 11 9C11 8.73478 10.8946 8.48044 10.7071 8.29291C10.5196 8.10537 10.2652 8 10 8H8C7.73478 8 7.48043 8.10537 7.29289 8.29291C7.10536 8.48044 7 8.73478 7 9C7 9.26522 7.10536 9.51956 7.29289 9.70709C7.48043 9.89463 7.73478 10 8 10Z" fill="#EB5757" stroke="white" stroke-width="0.5"/>
</svg>
