<svg width="18" height="18" viewBox="0 0 18 18" fill="none" xmlns="http://www.w3.org/2000/svg">
<path opacity="0.8" fill-rule="evenodd" clip-rule="evenodd" d="M16 13C15.7348 13 15.4804 13.1054 15.2929 13.2929C15.1054 13.4805 15 13.7348 15 14V15H3V14C3 13.7348 2.89463 13.4805 2.70709 13.2929C2.51956 13.1054 2.26522 13 2 13C1.73478 13 1.48044 13.1054 1.29291 13.2929C1.10537 13.4805 1 13.7348 1 14V16C1 16.2652 1.10537 16.5196 1.29291 16.7071C1.48044 16.8946 1.73478 17 2 17H16C16.2652 17 16.5196 16.8946 16.7071 16.7071C16.8946 16.5196 17 16.2652 17 16V14C17 13.7348 16.8946 13.4805 16.7071 13.2929C16.5196 13.1054 16.2652 13 16 13ZM6.71002 5.71004L8 4.40999V12C8 12.2652 8.10537 12.5196 8.29291 12.7071C8.48044 12.8946 8.73478 13 9 13C9.26522 13 9.51956 12.8946 9.70709 12.7071C9.89463 12.5196 10 12.2652 10 12V4.40999L11.3 5.71004C11.4874 5.89629 11.7408 6.00081 12.005 6.00081C12.2692 6.00081 12.5227 5.89629 12.71 5.71004C12.8038 5.61708 12.8781 5.50646 12.9289 5.3846C12.9797 5.26274 13.0058 5.13203 13.0058 5.00002C13.0058 4.868 12.9797 4.73729 12.9289 4.61543C12.8781 4.49357 12.8038 4.38296 12.71 4.28999L9.71002 1.28999C9.61658 1.19731 9.50575 1.124 9.38391 1.07424C9.26207 1.02447 9.13161 0.999256 9 1.00002C8.73766 1.00112 8.48625 1.10525 8.29999 1.28999L5.29999 4.28999C5.20626 4.38296 5.13188 4.49357 5.08112 4.61543C5.03035 4.73729 5.00421 4.868 5.00421 5.00002C5.00421 5.13203 5.03035 5.26274 5.08112 5.3846C5.13188 5.50646 5.20626 5.61708 5.29999 5.71004C5.39327 5.80682 5.50514 5.88378 5.62885 5.93636C5.75255 5.98894 5.8856 6.01607 6.02002 6.01607C6.15444 6.01607 6.28748 5.98894 6.41119 5.93636C6.5349 5.88378 6.64671 5.80682 6.73999 5.71004H6.71002Z" fill="#999AB0" stroke="#F7F8FC" stroke-width="0.75"/>
</svg>
