<svg width="21" height="19" viewBox="0 0 21 19" fill="none" xmlns="http://www.w3.org/2000/svg">
<path fill-rule="evenodd" clip-rule="evenodd" d="M17.4274 12.3561L10.7651 1.06832C10.5639 0.741624 10.2832 0.472034 9.94949 0.28508C9.61582 0.0981267 9.24025 -7.93044e-06 8.85835 -7.93044e-06C8.47645 -7.93044e-06 8.10089 0.0981267 7.76721 0.28508C7.43354 0.472034 7.15279 0.741624 6.95161 1.06832L0.300516 12.3561C0.103634 12.6993 -1.09827e-05 13.0886 -1.09827e-05 13.4849C-1.09827e-05 13.8812 0.103634 14.2705 0.300516 14.6137C0.496248 14.9549 0.777338 15.2386 1.11577 15.4366C1.45421 15.6346 1.83824 15.7401 2.22971 15.7424H15.5544C15.9458 15.7401 16.3299 15.6346 16.6683 15.4366C17.0067 15.2386 17.2878 14.9549 17.4835 14.6137C17.6719 14.2655 17.7659 13.8736 17.7561 13.4773C17.7462 13.081 17.6329 12.6943 17.4274 12.3561ZM2.19603 13.4849L8.86958 2.19709L15.5319 13.4849H2.19603ZM8.85835 10.0985C8.63652 10.0985 8.4197 10.1648 8.23526 10.2888C8.05081 10.4128 7.90701 10.5891 7.82212 10.7954C7.73722 11.0016 7.71504 11.2286 7.75831 11.4475C7.80159 11.6665 7.90842 11.8676 8.06528 12.0255C8.22213 12.1834 8.42199 12.2909 8.63956 12.3344C8.85713 12.378 9.08263 12.3556 9.28758 12.2702C9.49253 12.1847 9.6677 12.0401 9.79095 11.8544C9.91419 11.6688 9.97996 11.4506 9.97996 11.2273C9.97997 10.9299 9.86332 10.6445 9.6554 10.4331C9.44748 10.2218 9.1651 10.1015 8.86958 10.0985H8.85835ZM7.73675 6.71221V7.84099C7.73675 8.14036 7.85493 8.42747 8.06528 8.63916C8.27562 8.85084 8.56089 8.96977 8.85835 8.96977C9.15582 8.96977 9.44109 8.85084 9.65143 8.63916C9.86177 8.42747 9.97996 8.14036 9.97996 7.84099V6.71221C9.97996 6.41284 9.86177 6.12573 9.65143 5.91404C9.44109 5.70235 9.15582 5.58343 8.85835 5.58343C8.56089 5.58343 8.27562 5.70235 8.06528 5.91404C7.85493 6.12573 7.73675 6.41284 7.73675 6.71221Z" transform="translate(3.24316 3.25732)" fill="#F2994A" fill-opacity="0.32"/>
<path fill-rule="evenodd" clip-rule="evenodd" d="M17.4274 12.3561L10.7651 1.06832C10.5639 0.741624 10.2832 0.472034 9.94949 0.28508C9.61582 0.0981267 9.24025 -7.93044e-06 8.85835 -7.93044e-06C8.47645 -7.93044e-06 8.10089 0.0981267 7.76721 0.28508C7.43354 0.472034 7.15279 0.741624 6.95161 1.06832L0.300516 12.3561C0.103634 12.6993 -1.09827e-05 13.0886 -1.09827e-05 13.4849C-1.09827e-05 13.8812 0.103634 14.2705 0.300516 14.6137C0.496248 14.9549 0.777338 15.2386 1.11577 15.4366C1.45421 15.6346 1.83824 15.7401 2.22971 15.7424H15.5544C15.9458 15.7401 16.3299 15.6346 16.6683 15.4366C17.0067 15.2386 17.2878 14.9549 17.4835 14.6137C17.6719 14.2655 17.7659 13.8736 17.7561 13.4773C17.7462 13.081 17.6329 12.6943 17.4274 12.3561ZM2.19603 13.4849L8.86958 2.19709L15.5319 13.4849H2.19603ZM8.85835 10.0985C8.63652 10.0985 8.4197 10.1648 8.23526 10.2888C8.05081 10.4128 7.90701 10.5891 7.82212 10.7954C7.73722 11.0016 7.71504 11.2286 7.75831 11.4475C7.80159 11.6665 7.90842 11.8676 8.06528 12.0255C8.22213 12.1834 8.42199 12.2909 8.63956 12.3344C8.85713 12.378 9.08263 12.3556 9.28758 12.2702C9.49253 12.1847 9.6677 12.0401 9.79095 11.8544C9.91419 11.6688 9.97996 11.4506 9.97996 11.2273C9.97997 10.9299 9.86332 10.6445 9.6554 10.4331C9.44748 10.2218 9.1651 10.1015 8.86958 10.0985H8.85835ZM7.73675 6.71221V7.84099C7.73675 8.14036 7.85493 8.42747 8.06528 8.63916C8.27562 8.85084 8.56089 8.96977 8.85835 8.96977C9.15582 8.96977 9.44109 8.85084 9.65143 8.63916C9.86177 8.42747 9.97996 8.14036 9.97996 7.84099V6.71221C9.97996 6.41284 9.86177 6.12573 9.65143 5.91404C9.44109 5.70235 9.15582 5.58343 8.85835 5.58343C8.56089 5.58343 8.27562 5.70235 8.06528 5.91404C7.85493 6.12573 7.73675 6.41284 7.73675 6.71221Z" transform="translate(1 1)" fill="#F2994A" stroke="white" stroke-width="1.12519"/>
</svg>
