<svg width="21" height="21" viewBox="0 0 21 21" fill="none" xmlns="http://www.w3.org/2000/svg">
<path fill-rule="evenodd" clip-rule="evenodd" d="M15.5556 0H6.66667C6.0773 0 5.51206 0.234125 5.09532 0.650872C4.67857 1.06762 4.44444 1.63285 4.44444 2.22222V14.4444C4.44444 14.7391 4.32738 15.0217 4.11901 15.2301C3.91063 15.4385 3.62802 15.5556 3.33333 15.5556C3.03865 15.5556 2.75603 15.4385 2.54766 15.2301C2.33928 15.0217 2.22222 14.7391 2.22222 14.4444V5.55556C2.22222 5.26087 2.10516 4.97827 1.89679 4.7699C1.68841 4.56152 1.4058 4.44444 1.11111 4.44444C0.816426 4.44444 0.53381 4.56152 0.325436 4.7699C0.117062 4.97827 0 5.26087 0 5.55556V14.4444C0.00177856 15.0727 0.181088 15.6877 0.517256 16.2185C0.853424 16.7493 1.33277 17.1743 1.90001 17.4445C2.34699 17.661 2.83669 17.7748 3.33333 17.7778H15.5556C16.1449 17.7778 16.7102 17.5437 17.1269 17.1269C17.5437 16.7102 17.7778 16.1449 17.7778 15.5556V2.22222C17.7778 1.63285 17.5437 1.06762 17.1269 0.650872C16.7102 0.234125 16.1449 0 15.5556 0ZM15.5556 15.5556H6.66667V2.22222H15.5556V15.5556ZM10 6.66667H12.2222C12.5169 6.66667 12.7995 6.54959 13.0079 6.34121C13.2163 6.13284 13.3333 5.85024 13.3333 5.55556C13.3333 5.26087 13.2163 4.97827 13.0079 4.7699C12.7995 4.56152 12.5169 4.44444 12.2222 4.44444H10C9.70532 4.44444 9.4227 4.56152 9.21432 4.7699C9.00595 4.97827 8.88889 5.26087 8.88889 5.55556C8.88889 5.85024 9.00595 6.13284 9.21432 6.34121C9.4227 6.54959 9.70532 6.66667 10 6.66667ZM10 10H12.2222C12.5169 10 12.7995 9.88292 13.0079 9.67455C13.2163 9.46617 13.3333 9.18357 13.3333 8.88889C13.3333 8.5942 13.2163 8.3116 13.0079 8.10323C12.7995 7.89486 12.5169 7.77778 12.2222 7.77778H10C9.70532 7.77778 9.4227 7.89486 9.21432 8.10323C9.00595 8.3116 8.88889 8.5942 8.88889 8.88889C8.88889 9.18357 9.00595 9.46617 9.21432 9.67455C9.4227 9.88292 9.70532 10 10 10Z" transform="translate(3.22266 3.22217)" fill="#3969AA" fill-opacity="0.32"/>
<path fill-rule="evenodd" clip-rule="evenodd" d="M15.5556 0H6.66667C6.0773 0 5.51206 0.234125 5.09532 0.650872C4.67857 1.06762 4.44444 1.63285 4.44444 2.22222V14.4444C4.44444 14.7391 4.32738 15.0217 4.11901 15.2301C3.91063 15.4385 3.62802 15.5556 3.33333 15.5556C3.03865 15.5556 2.75603 15.4385 2.54766 15.2301C2.33928 15.0217 2.22222 14.7391 2.22222 14.4444V5.55556C2.22222 5.26087 2.10516 4.97827 1.89679 4.7699C1.68841 4.56152 1.4058 4.44444 1.11111 4.44444C0.816426 4.44444 0.53381 4.56152 0.325436 4.7699C0.117062 4.97827 0 5.26087 0 5.55556V14.4444C0.00177856 15.0727 0.181088 15.6877 0.517256 16.2185C0.853424 16.7493 1.33277 17.1743 1.90001 17.4445C2.34699 17.661 2.83669 17.7748 3.33333 17.7778H15.5556C16.1449 17.7778 16.7102 17.5437 17.1269 17.1269C17.5437 16.7102 17.7778 16.1449 17.7778 15.5556V2.22222C17.7778 1.63285 17.5437 1.06762 17.1269 0.650872C16.7102 0.234125 16.1449 0 15.5556 0ZM15.5556 15.5556H6.66667V2.22222H15.5556V15.5556ZM10 6.66667H12.2222C12.5169 6.66667 12.7995 6.54959 13.0079 6.34121C13.2163 6.13284 13.3333 5.85024 13.3333 5.55556C13.3333 5.26087 13.2163 4.97827 13.0079 4.7699C12.7995 4.56152 12.5169 4.44444 12.2222 4.44444H10C9.70532 4.44444 9.4227 4.56152 9.21432 4.7699C9.00595 4.97827 8.88889 5.26087 8.88889 5.55556C8.88889 5.85024 9.00595 6.13284 9.21432 6.34121C9.4227 6.54959 9.70532 6.66667 10 6.66667ZM10 10H12.2222C12.5169 10 12.7995 9.88292 13.0079 9.67455C13.2163 9.46617 13.3333 9.18357 13.3333 8.88889C13.3333 8.5942 13.2163 8.3116 13.0079 8.10323C12.7995 7.89486 12.5169 7.77778 12.2222 7.77778H10C9.70532 7.77778 9.4227 7.89486 9.21432 8.10323C9.00595 8.3116 8.88889 8.5942 8.88889 8.88889C8.88889 9.18357 9.00595 9.46617 9.21432 9.67455C9.4227 9.88292 9.70532 10 10 10Z" transform="translate(1 1)" fill="#3969AA" stroke="white" stroke-width="1.11111"/>
</svg>
