<svg width="21" height="21" viewBox="0 0 21 21" fill="none" xmlns="http://www.w3.org/2000/svg">
<path fill-rule="evenodd" clip-rule="evenodd" d="M8.88889 0C7.13084 0 5.41226 0.521316 3.95049 1.49804C2.48872 2.47476 1.34941 3.86303 0.676629 5.48726C0.00385059 7.11149 -0.172179 8.89876 0.170801 10.623C0.51378 12.3473 1.36036 13.9312 2.60349 15.1743C3.84663 16.4174 5.43047 17.264 7.15475 17.607C8.87902 17.95 10.6663 17.7739 12.2905 17.1011C13.9147 16.4284 15.303 15.289 16.2797 13.8273C17.2565 12.3655 17.7778 10.6469 17.7778 8.88889C17.7778 6.53141 16.8413 4.27048 15.1743 2.60349C13.5073 0.936498 11.2464 0 8.88889 0ZM8.88889 15.5556C7.57035 15.5556 6.28142 15.1646 5.18509 14.432C4.08876 13.6995 3.23428 12.6583 2.7297 11.4401C2.22512 10.2219 2.0931 8.8815 2.35033 7.5883C2.60757 6.29509 3.24249 5.10719 4.17484 4.17484C5.10719 3.24249 6.29508 2.60756 7.58828 2.35033C8.88149 2.09309 10.2219 2.22511 11.4401 2.7297C12.6583 3.23428 13.6995 4.08874 14.432 5.18507C15.1646 6.2814 15.5556 7.57035 15.5556 8.88889C15.5556 10.657 14.8532 12.3527 13.6029 13.6029C12.3527 14.8532 10.657 15.5556 8.88889 15.5556ZM6.66667 7.77778C6.66667 7.55802 6.6015 7.34319 6.47941 7.16047C6.35732 6.97775 6.1838 6.83533 5.98077 6.75123C5.77774 6.66714 5.55433 6.64516 5.3388 6.68803C5.12326 6.7309 4.92528 6.83673 4.76988 6.99212C4.61449 7.14751 4.50867 7.34547 4.46579 7.561C4.42292 7.77653 4.44493 7.99996 4.52903 8.20299C4.61313 8.40602 4.75553 8.57955 4.93826 8.70164C5.12098 8.82374 5.3358 8.88889 5.55556 8.88889C5.85024 8.88889 6.13286 8.77181 6.34123 8.56343C6.54961 8.35506 6.66667 8.07246 6.66667 7.77778ZM12.2222 6.66667C12.0025 6.66667 11.7876 6.73182 11.6049 6.85391C11.4222 6.976 11.2798 7.14954 11.1957 7.35256C11.1116 7.55559 11.0896 7.77902 11.1325 7.99455C11.1753 8.21009 11.2812 8.40804 11.4365 8.56343C11.5919 8.71883 11.7899 8.82465 12.0055 8.86753C12.221 8.9104 12.4444 8.88842 12.6474 8.80432C12.8505 8.72022 13.024 8.5778 13.1461 8.39508C13.2682 8.21236 13.3333 7.99753 13.3333 7.77778C13.3333 7.48309 13.2163 7.20049 13.0079 6.99212C12.7995 6.78374 12.5169 6.66667 12.2222 6.66667ZM11.1111 10H6.66667C6.37198 10 6.08937 10.1171 5.88099 10.3255C5.67262 10.5338 5.55556 10.8164 5.55556 11.1111C5.55556 11.2 5.55556 13.3333 8.88889 13.3333C12.2222 13.3333 12.2222 11.2 12.2222 11.1111C12.2222 10.8164 12.1052 10.5338 11.8968 10.3255C11.6884 10.1171 11.4058 10 11.1111 10Z" transform="translate(3.22266 3.22217)" fill="#27AE60" fill-opacity="0.32"/>
<path fill-rule="evenodd" clip-rule="evenodd" d="M8.88889 0C7.13084 0 5.41226 0.521316 3.95049 1.49804C2.48872 2.47476 1.34941 3.86303 0.676629 5.48726C0.00385059 7.11149 -0.172179 8.89876 0.170801 10.623C0.51378 12.3473 1.36036 13.9312 2.60349 15.1743C3.84663 16.4174 5.43047 17.264 7.15475 17.607C8.87902 17.95 10.6663 17.7739 12.2905 17.1011C13.9147 16.4284 15.303 15.289 16.2797 13.8273C17.2565 12.3655 17.7778 10.6469 17.7778 8.88889C17.7778 6.53141 16.8413 4.27048 15.1743 2.60349C13.5073 0.936498 11.2464 0 8.88889 0ZM8.88889 15.5556C7.57035 15.5556 6.28142 15.1646 5.18509 14.432C4.08876 13.6995 3.23428 12.6583 2.7297 11.4401C2.22512 10.2219 2.0931 8.8815 2.35033 7.5883C2.60757 6.29509 3.24249 5.10719 4.17484 4.17484C5.10719 3.24249 6.29508 2.60756 7.58828 2.35033C8.88149 2.09309 10.2219 2.22511 11.4401 2.7297C12.6583 3.23428 13.6995 4.08874 14.432 5.18507C15.1646 6.2814 15.5556 7.57035 15.5556 8.88889C15.5556 10.657 14.8532 12.3527 13.6029 13.6029C12.3527 14.8532 10.657 15.5556 8.88889 15.5556ZM6.66667 7.77778C6.66667 7.55802 6.6015 7.34319 6.47941 7.16047C6.35732 6.97775 6.1838 6.83533 5.98077 6.75123C5.77774 6.66714 5.55433 6.64516 5.3388 6.68803C5.12326 6.7309 4.92528 6.83673 4.76988 6.99212C4.61449 7.14751 4.50867 7.34547 4.46579 7.561C4.42292 7.77653 4.44493 7.99996 4.52903 8.20299C4.61313 8.40602 4.75553 8.57955 4.93826 8.70164C5.12098 8.82374 5.3358 8.88889 5.55556 8.88889C5.85024 8.88889 6.13286 8.77181 6.34123 8.56343C6.54961 8.35506 6.66667 8.07246 6.66667 7.77778ZM12.2222 6.66667C12.0025 6.66667 11.7876 6.73182 11.6049 6.85391C11.4222 6.976 11.2798 7.14954 11.1957 7.35256C11.1116 7.55559 11.0896 7.77902 11.1325 7.99455C11.1753 8.21009 11.2812 8.40804 11.4365 8.56343C11.5919 8.71883 11.7899 8.82465 12.0055 8.86753C12.221 8.9104 12.4444 8.88842 12.6474 8.80432C12.8505 8.72022 13.024 8.5778 13.1461 8.39508C13.2682 8.21236 13.3333 7.99753 13.3333 7.77778C13.3333 7.48309 13.2163 7.20049 13.0079 6.99212C12.7995 6.78374 12.5169 6.66667 12.2222 6.66667ZM11.1111 10H6.66667C6.37198 10 6.08937 10.1171 5.88099 10.3255C5.67262 10.5338 5.55556 10.8164 5.55556 11.1111C5.55556 11.2 5.55556 13.3333 8.88889 13.3333C12.2222 13.3333 12.2222 11.2 12.2222 11.1111C12.2222 10.8164 12.1052 10.5338 11.8968 10.3255C11.6884 10.1171 11.4058 10 11.1111 10Z" transform="translate(1 1)" fill="#27AE60" stroke="white" stroke-width="1.11111"/>
</svg>
