<svg width="21" height="21" viewBox="0 0 21 21" fill="none" xmlns="http://www.w3.org/2000/svg">
<path fill-rule="evenodd" clip-rule="evenodd" d="M5.55556 8.88887C5.77531 8.88887 5.99014 8.82372 6.17286 8.70163C6.35558 8.57954 6.498 8.406 6.5821 8.20297C6.6662 7.99994 6.68818 7.77652 6.6453 7.56098C6.60243 7.34545 6.49661 7.14749 6.34121 6.9921C6.18582 6.83671 5.98787 6.73089 5.77233 6.68801C5.5568 6.64514 5.33337 6.66712 5.13034 6.75122C4.92732 6.83532 4.75378 6.97774 4.63169 7.16046C4.5096 7.34318 4.44444 7.558 4.44444 7.77776C4.44444 8.07244 4.56152 8.35504 4.7699 8.56342C4.97827 8.77179 5.26087 8.88887 5.55556 8.88887ZM8.88889 8.88887C9.10865 8.88887 9.32347 8.82372 9.50619 8.70163C9.68891 8.57954 9.83134 8.406 9.91543 8.20297C9.99953 7.99994 10.0215 7.77652 9.97864 7.56098C9.93577 7.34545 9.82994 7.14749 9.67455 6.9921C9.51916 6.83671 9.3212 6.73089 9.10567 6.68801C8.89013 6.64514 8.66671 6.66712 8.46368 6.75122C8.26065 6.83532 8.08711 6.97774 7.96502 7.16046C7.84293 7.34318 7.77778 7.558 7.77778 7.77776C7.77778 8.07244 7.89486 8.35504 8.10323 8.56342C8.3116 8.77179 8.5942 8.88887 8.88889 8.88887ZM12.2222 8.88887C12.442 8.88887 12.6568 8.82372 12.8395 8.70163C13.0222 8.57954 13.1647 8.406 13.2488 8.20297C13.3329 7.99994 13.3548 7.77652 13.312 7.56098C13.2691 7.34545 13.1633 7.14749 13.0079 6.9921C12.8525 6.83671 12.6545 6.73089 12.439 6.68801C12.2235 6.64514 12 6.66712 11.797 6.75122C11.594 6.83532 11.4204 6.97774 11.2984 7.16046C11.1763 7.34318 11.1111 7.558 11.1111 7.77776C11.1111 8.07244 11.2282 8.35504 11.4366 8.56342C11.6449 8.77179 11.9275 8.88887 12.2222 8.88887ZM15.5556 0H2.22222C1.63285 0 1.06762 0.234124 0.650872 0.650871C0.234125 1.06762 0 1.63285 0 2.22222V15.5555C0 16.1449 0.234125 16.7101 0.650872 17.1269C1.06762 17.5436 1.63285 17.7777 2.22222 17.7777C2.66226 17.7807 3.09263 17.6488 3.45554 17.4L6.23332 15.5555H15.5556C16.1449 15.5555 16.7102 15.3214 17.1269 14.9046C17.5437 14.4879 17.7778 13.9227 17.7778 13.3333V2.22222C17.7778 1.63285 17.5437 1.06762 17.1269 0.650871C16.7102 0.234124 16.1449 0 15.5556 0ZM15.5556 13.3333H5.55556L2.22222 15.5555V2.22222H15.5556V13.3333Z" transform="translate(3.22168 3.22217)" fill="#56CCF2" fill-opacity="0.32"/>
<path fill-rule="evenodd" clip-rule="evenodd" d="M5.55556 8.88887C5.77531 8.88887 5.99014 8.82372 6.17286 8.70163C6.35558 8.57954 6.498 8.406 6.5821 8.20297C6.6662 7.99994 6.68818 7.77652 6.6453 7.56098C6.60243 7.34545 6.49661 7.14749 6.34121 6.9921C6.18582 6.83671 5.98787 6.73089 5.77233 6.68801C5.5568 6.64514 5.33337 6.66712 5.13034 6.75122C4.92732 6.83532 4.75378 6.97774 4.63169 7.16046C4.5096 7.34318 4.44444 7.558 4.44444 7.77776C4.44444 8.07244 4.56152 8.35504 4.7699 8.56342C4.97827 8.77179 5.26087 8.88887 5.55556 8.88887ZM8.88889 8.88887C9.10865 8.88887 9.32347 8.82372 9.50619 8.70163C9.68891 8.57954 9.83134 8.406 9.91543 8.20297C9.99953 7.99994 10.0215 7.77652 9.97864 7.56098C9.93577 7.34545 9.82994 7.14749 9.67455 6.9921C9.51916 6.83671 9.3212 6.73089 9.10567 6.68801C8.89013 6.64514 8.66671 6.66712 8.46368 6.75122C8.26065 6.83532 8.08711 6.97774 7.96502 7.16046C7.84293 7.34318 7.77778 7.558 7.77778 7.77776C7.77778 8.07244 7.89486 8.35504 8.10323 8.56342C8.3116 8.77179 8.5942 8.88887 8.88889 8.88887ZM12.2222 8.88887C12.442 8.88887 12.6568 8.82372 12.8395 8.70163C13.0222 8.57954 13.1647 8.406 13.2488 8.20297C13.3329 7.99994 13.3548 7.77652 13.312 7.56098C13.2691 7.34545 13.1633 7.14749 13.0079 6.9921C12.8525 6.83671 12.6545 6.73089 12.439 6.68801C12.2235 6.64514 12 6.66712 11.797 6.75122C11.594 6.83532 11.4204 6.97774 11.2984 7.16046C11.1763 7.34318 11.1111 7.558 11.1111 7.77776C11.1111 8.07244 11.2282 8.35504 11.4366 8.56342C11.6449 8.77179 11.9275 8.88887 12.2222 8.88887ZM15.5556 0H2.22222C1.63285 0 1.06762 0.234124 0.650872 0.650871C0.234125 1.06762 0 1.63285 0 2.22222V15.5555C0 16.1449 0.234125 16.7101 0.650872 17.1269C1.06762 17.5436 1.63285 17.7777 2.22222 17.7777C2.66226 17.7807 3.09263 17.6488 3.45554 17.4L6.23332 15.5555H15.5556C16.1449 15.5555 16.7102 15.3214 17.1269 14.9046C17.5437 14.4879 17.7778 13.9227 17.7778 13.3333V2.22222C17.7778 1.63285 17.5437 1.06762 17.1269 0.650871C16.7102 0.234124 16.1449 0 15.5556 0ZM15.5556 13.3333H5.55556L2.22222 15.5555V2.22222H15.5556V13.3333Z" transform="translate(1 1)" fill="#56CCF2" stroke="white" stroke-width="1.11111"/>
</svg>
