<svg width="21" height="21" viewBox="0 0 21 21" fill="none" xmlns="http://www.w3.org/2000/svg">
<path fill-rule="evenodd" clip-rule="evenodd" d="M8.88889 0C7.13084 0 5.41227 0.521316 3.9505 1.49804C2.48873 2.47476 1.34943 3.86303 0.676646 5.48726C0.00386755 7.11149 -0.172179 8.89876 0.170801 10.623C0.51378 12.3473 1.36036 13.9312 2.60349 15.1743C3.84663 16.4174 5.43047 17.264 7.15475 17.607C8.87902 17.95 10.6663 17.7739 12.2905 17.1011C13.9147 16.4284 15.303 15.2891 16.2797 13.8273C17.2565 12.3655 17.7778 10.6469 17.7778 8.88889C17.7778 6.53141 16.8413 4.27048 15.1743 2.60349C13.5073 0.936498 11.2464 0 8.88889 0ZM8.88889 15.5556C7.57035 15.5556 6.2814 15.1646 5.18508 14.432C4.08875 13.6995 3.23428 12.6583 2.7297 11.4401C2.22512 10.2219 2.0931 8.88149 2.35033 7.58828C2.60757 6.29507 3.24249 5.10719 4.17484 4.17484C5.10719 3.24249 6.29509 2.60756 7.5883 2.35033C8.88151 2.09309 10.222 2.22511 11.4401 2.7297C12.6583 3.23428 13.6995 4.08876 14.432 5.18509C15.1646 6.28142 15.5556 7.57035 15.5556 8.88889C15.5556 10.657 14.8532 12.3527 13.6029 13.6029C12.3527 14.8532 10.657 15.5556 8.88889 15.5556ZM8.88889 11.1111C8.66913 11.1111 8.45431 11.1763 8.27159 11.2984C8.08887 11.4205 7.94645 11.594 7.86235 11.797C7.77825 12 7.75627 12.2234 7.79914 12.439C7.84202 12.6545 7.94784 12.8525 8.10323 13.0079C8.25863 13.1633 8.45658 13.2691 8.67212 13.312C8.88765 13.3549 9.11107 13.3328 9.3141 13.2487C9.51713 13.1646 9.69067 13.0222 9.81276 12.8395C9.93485 12.6568 10 12.442 10 12.2222C10 11.9275 9.88292 11.6449 9.67455 11.4365C9.46618 11.2282 9.18358 11.1111 8.88889 11.1111ZM11.1111 4.44444H6.66667C6.37198 4.44444 6.08939 4.56151 5.88101 4.76988C5.67264 4.97825 5.55556 5.26087 5.55556 5.55555V6.66667C5.55556 6.96135 5.67264 7.24397 5.88101 7.45234C6.08939 7.66071 6.37198 7.77778 6.66667 7.77778C6.96135 7.77778 7.24395 7.66071 7.45233 7.45234C7.6607 7.24397 7.77778 6.96135 7.77778 6.66667H10V7.08889L8.4 7.9C8.13636 8.03124 7.93562 8.26177 7.84187 8.54095C7.74811 8.82013 7.769 9.12512 7.89999 9.38888C7.99317 9.57381 8.13619 9.72902 8.31289 9.837C8.48958 9.94498 8.69294 10.0014 8.90001 10C9.07092 10.0032 9.23961 9.96102 9.3889 9.87778L11.6111 8.76666C11.7944 8.67433 11.9484 8.53306 12.0563 8.35851C12.1642 8.18396 12.2216 7.98296 12.2222 7.77778V5.55555C12.2222 5.26087 12.1051 4.97825 11.8968 4.76988C11.6884 4.56151 11.4058 4.44444 11.1111 4.44444Z" transform="translate(3.22266 3.22217)" fill="#F2C94C" fill-opacity="0.32"/>
<path fill-rule="evenodd" clip-rule="evenodd" d="M8.88889 0C7.13084 0 5.41227 0.521316 3.9505 1.49804C2.48873 2.47476 1.34943 3.86303 0.676646 5.48726C0.00386755 7.11149 -0.172179 8.89876 0.170801 10.623C0.51378 12.3473 1.36036 13.9312 2.60349 15.1743C3.84663 16.4174 5.43047 17.264 7.15475 17.607C8.87902 17.95 10.6663 17.7739 12.2905 17.1011C13.9147 16.4284 15.303 15.2891 16.2797 13.8273C17.2565 12.3655 17.7778 10.6469 17.7778 8.88889C17.7778 6.53141 16.8413 4.27048 15.1743 2.60349C13.5073 0.936498 11.2464 0 8.88889 0ZM8.88889 15.5556C7.57035 15.5556 6.2814 15.1646 5.18508 14.432C4.08875 13.6995 3.23428 12.6583 2.7297 11.4401C2.22512 10.2219 2.0931 8.88149 2.35033 7.58828C2.60757 6.29507 3.24249 5.10719 4.17484 4.17484C5.10719 3.24249 6.29509 2.60756 7.5883 2.35033C8.88151 2.09309 10.222 2.22511 11.4401 2.7297C12.6583 3.23428 13.6995 4.08876 14.432 5.18509C15.1646 6.28142 15.5556 7.57035 15.5556 8.88889C15.5556 10.657 14.8532 12.3527 13.6029 13.6029C12.3527 14.8532 10.657 15.5556 8.88889 15.5556ZM8.88889 11.1111C8.66913 11.1111 8.45431 11.1763 8.27159 11.2984C8.08887 11.4205 7.94645 11.594 7.86235 11.797C7.77825 12 7.75627 12.2234 7.79914 12.439C7.84202 12.6545 7.94784 12.8525 8.10323 13.0079C8.25863 13.1633 8.45658 13.2691 8.67212 13.312C8.88765 13.3549 9.11107 13.3328 9.3141 13.2487C9.51713 13.1646 9.69067 13.0222 9.81276 12.8395C9.93485 12.6568 10 12.442 10 12.2222C10 11.9275 9.88292 11.6449 9.67455 11.4365C9.46618 11.2282 9.18358 11.1111 8.88889 11.1111ZM11.1111 4.44444H6.66667C6.37198 4.44444 6.08939 4.56151 5.88101 4.76988C5.67264 4.97825 5.55556 5.26087 5.55556 5.55555V6.66667C5.55556 6.96135 5.67264 7.24397 5.88101 7.45234C6.08939 7.66071 6.37198 7.77778 6.66667 7.77778C6.96135 7.77778 7.24395 7.66071 7.45233 7.45234C7.6607 7.24397 7.77778 6.96135 7.77778 6.66667H10V7.08889L8.4 7.9C8.13636 8.03124 7.93562 8.26177 7.84187 8.54095C7.74811 8.82013 7.769 9.12512 7.89999 9.38888C7.99317 9.57381 8.13619 9.72902 8.31289 9.837C8.48958 9.94498 8.69294 10.0014 8.90001 10C9.07092 10.0032 9.23961 9.96102 9.3889 9.87778L11.6111 8.76666C11.7944 8.67433 11.9484 8.53306 12.0563 8.35851C12.1642 8.18396 12.2216 7.98296 12.2222 7.77778V5.55555C12.2222 5.26087 12.1051 4.97825 11.8968 4.76988C11.6884 4.56151 11.4058 4.44444 11.1111 4.44444Z" transform="translate(1 1)" fill="#F2C94C" stroke="white" stroke-width="1.11111"/>
</svg>
