<svg width="19" height="21" viewBox="0 0 19 21" fill="none" xmlns="http://www.w3.org/2000/svg">
<path fill-rule="evenodd" clip-rule="evenodd" d="M13.5 0H2.25C1.65326 0 1.081 0.234125 0.659042 0.650872C0.237086 1.06762 0 1.63285 0 2.22222V14.4444C0 15.3285 0.35556 16.1763 0.988495 16.8015C1.62143 17.4266 2.47989 17.7778 3.375 17.7778H13.5C14.0967 17.7778 14.669 17.5437 15.091 17.1269C15.5129 16.7102 15.75 16.1449 15.75 15.5556V2.22222C15.75 1.63285 15.5129 1.06762 15.091 0.650872C14.669 0.234125 14.0967 0 13.5 0ZM13.5 15.5556H3.375C3.07663 15.5556 2.7905 15.4385 2.57952 15.2301C2.36854 15.0217 2.25 14.7391 2.25 14.4444C2.25 14.1498 2.36854 13.8672 2.57952 13.6588C2.7905 13.4504 3.07663 13.3333 3.375 13.3333H13.5V15.5556ZM13.5 11.1111H3.375C2.99072 11.1087 2.60931 11.1765 2.25 11.3111V2.22222H7.875V7.77778L10.125 6.66667L12.375 7.77778V2.22222H13.5V11.1111Z" transform="translate(3.25 3.22217)" fill="#3969AA" fill-opacity="0.32"/>
<path fill-rule="evenodd" clip-rule="evenodd" d="M13.5 0H2.25C1.65326 0 1.081 0.234125 0.659042 0.650872C0.237086 1.06762 0 1.63285 0 2.22222V14.4444C0 15.3285 0.35556 16.1763 0.988495 16.8015C1.62143 17.4266 2.47989 17.7778 3.375 17.7778H13.5C14.0967 17.7778 14.669 17.5437 15.091 17.1269C15.5129 16.7102 15.75 16.1449 15.75 15.5556V2.22222C15.75 1.63285 15.5129 1.06762 15.091 0.650872C14.669 0.234125 14.0967 0 13.5 0ZM13.5 15.5556H3.375C3.07663 15.5556 2.7905 15.4385 2.57952 15.2301C2.36854 15.0217 2.25 14.7391 2.25 14.4444C2.25 14.1498 2.36854 13.8672 2.57952 13.6588C2.7905 13.4504 3.07663 13.3333 3.375 13.3333H13.5V15.5556ZM13.5 11.1111H3.375C2.99072 11.1087 2.60931 11.1765 2.25 11.3111V2.22222H7.875V7.77778L10.125 6.66667L12.375 7.77778V2.22222H13.5V11.1111Z" transform="translate(1 1)" fill="#3969AA" stroke="white" stroke-width="1.11803"/>
</svg>
