<svg width="25" height="15" viewBox="0 0 25 15" version="1.1" xmlns="http://www.w3.org/2000/svg" xmlns:xlink="http://www.w3.org/1999/xlink">
<title>VK</title>
<desc>Created using Figma</desc>
<g id="Canvas" transform="translate(352 -286)">
<g id="VK">
<use xlink:href="#path0_fill" transform="translate(-352 286)" fill="#FFFFFF"/>
</g>
</g>
<defs>
<path id="path0_fill" fill-rule="evenodd" d="M 24.4244 1.00658C 24.6002 0.414474 24.4244 0 23.6037 0L 20.8682 0C 20.1648 0 19.8521 0.375 19.6763 0.789474C 19.6763 0.789474 18.289 4.22368 16.3155 6.43421C 15.6707 7.08553 15.3971 7.2829 15.0454 7.2829C 14.8696 7.2829 14.6156 7.08553 14.6156 6.49342L 14.6156 1.00658C 14.6156 0.296053 14.4202 0 13.834 0L 9.53528 0C 9.10541 0 8.83186 0.335526 8.83186 0.631579C 8.83186 1.30263 9.80884 1.46053 9.92607 3.31579L 9.92607 7.38158C 9.92607 8.26974 9.76976 8.42763 9.41805 8.42763C 8.49969 8.42763 6.23311 4.99342 4.90442 1.04605C 4.63087 0.31579 4.37685 0 3.67343 0L 0.937897 0C 0.156316 0 0 0.375 0 0.789474C 0 1.51974 0.918357 5.15132 4.31823 9.94737C 6.58482 13.2237 9.76976 15 12.6616 15C 14.4006 15 14.6156 14.6053 14.6156 13.9342L 14.6156 11.4474C 14.6156 10.6579 14.7719 10.5 15.3385 10.5C 15.7488 10.5 16.4327 10.6974 18.0545 12.2763C 19.9108 14.1513 20.2234 15 21.259 15L 23.9945 15C 24.7761 15 25.1669 14.6053 24.9324 13.8355C 24.6784 13.0658 23.7991 11.9408 22.6268 10.5987C 21.982 9.82895 21.0245 9.01974 20.751 8.60526C 20.3406 8.07237 20.4579 7.83553 20.751 7.38158C 20.751 7.36184 24.0922 2.625 24.4244 1.00658Z"/>
</defs>
</svg>
