<svg width="25" height="20" viewBox="0 0 25 20" version="1.1" xmlns="http://www.w3.org/2000/svg" xmlns:xlink="http://www.w3.org/1999/xlink">
<title>Telegram</title>
<desc>Created using Figma</desc>
<g id="Canvas" transform="translate(-45 -955)">
<g id="Telegram">
<use xlink:href="#path0_fill" transform="translate(45 955)" fill="#EFFFF9"/>
</g>
</g>
<defs>
<path id="path0_fill" d="M 25 1.25192C 24.9508 1.83638 24.7688 2.45489 24.6315 3.08033C 23.486 8.25975 22.336 13.4385 21.1816 18.6167C 21.1155 18.9146 21.0439 19.2125 20.8764 19.4795C 20.6015 19.9173 20.2034 20.0789 19.6823 19.9644C 19.3541 19.8928 19.0688 19.7462 18.7993 19.5546C 17.0629 18.3251 15.3193 17.1029 13.5879 15.8662C 13.3677 15.7086 13.2412 15.7263 13.0556 15.9025C 12.2016 16.7123 11.3308 17.5058 10.4745 18.3134C 10.1476 18.6218 9.78635 18.8059 9.31115 18.7898C 8.97498 18.7784 8.78279 18.6473 8.68008 18.3415C 8.14478 16.7448 7.60024 15.1506 7.058 13.5558C 6.87406 13.0145 6.67989 12.4764 6.50784 11.9317C 6.44576 11.7353 6.33975 11.6354 6.13204 11.5745C 4.43268 11.0764 2.73728 10.5657 1.04057 10.0614C 0.816673 9.99453 0.592447 9.92738 0.392328 9.80727C -0.0917874 9.51662 -0.130424 9.12793 0.290618 8.76004C 0.578578 8.50785 0.929281 8.35842 1.28824 8.22602C 3.60204 7.37298 5.91618 6.52046 8.23064 5.66846C 13.227 3.82955 18.2235 1.99064 23.2201 0.151728C 23.2597 0.137227 23.2987 0.120203 23.3386 0.106333C 24.2775 -0.226878 24.9937 0.241571 25 1.25192ZM 9.32271 17.2681C 9.41352 17.2268 9.40527 17.1685 9.40989 17.1221C 9.52382 15.9586 9.64105 14.7953 9.7421 13.6305C 9.76687 13.3411 9.86065 13.1261 10.0964 12.9238C 13.3532 10.1322 16.6046 7.33473 19.8507 4.53138C 20.0561 4.35422 20.2635 4.17894 20.4643 3.99705C 20.5472 3.92202 20.6558 3.83564 20.5918 3.71144C 20.5257 3.58156 20.3808 3.58692 20.253 3.6011C 20.0033 3.62853 19.7906 3.74517 19.5819 3.87095C 15.5752 6.28507 11.5661 8.6971 7.55466 11.107C 7.32648 11.2438 7.29544 11.369 7.377 11.6016C 7.87235 13.018 8.35481 14.4388 8.84091 15.8574C 9.00107 16.3268 9.1609 16.7956 9.32271 17.2681Z"/>
</defs>
</svg>
