<svg width="37" height="41" viewBox="0 0 37 41" fill="none" xmlns="http://www.w3.org/2000/svg">
<g filter="url(#filter0_d)">
<rect width="35" height="35" rx="6" transform="translate(1 4)" fill="url(#paint0_linear)"/>
</g>
<rect width="35" height="35" rx="6" transform="translate(1 1)" fill="url(#paint1_linear)"/>
<mask id="mask0" mask-type="alpha" maskUnits="userSpaceOnUse" x="1" y="1" width="35" height="35">
<rect width="35" height="35" rx="6" transform="translate(1 1)" fill="url(#paint2_linear)"/>
</mask>
<g mask="url(#mask0)">
<path opacity="0.3" d="M2.01551 2.29995C2.22063 2.29995 2.41824 2.32808 2.60509 2.37939C2.92075 1.0198 4.24839 2.56199e-08 5.83931 2.56199e-08C7.66311 2.56199e-08 9.14244 1.34112 9.14464 2.99633C9.21251 2.98856 9.28131 2.98468 9.35184 2.98468C10.2624 2.98468 11 3.65409 11 4.4809C11 5.3073 10.2624 5.97671 9.35184 5.97671C8.77186 5.97671 8.26182 5.70522 7.96813 5.29428C7.393 5.73482 6.65009 6 5.83942 6C4.98817 6 4.2122 5.70816 3.62678 5.22838C3.25931 5.67186 2.674 5.95781 2.01551 5.95781C0.902474 5.95781 7.33964e-07 5.13918 7.33964e-07 4.12904C7.33964e-07 3.11889 0.902011 2.29995 2.01551 2.29995Z" transform="translate(31 19)" fill="white"/>
<path opacity="0.3" d="M2.01551 2.29995C2.22063 2.29995 2.41824 2.32808 2.60509 2.37939C2.92075 1.0198 4.24839 2.56199e-08 5.83931 2.56199e-08C7.66311 2.56199e-08 9.14244 1.34112 9.14464 2.99633C9.21251 2.98856 9.28131 2.98468 9.35184 2.98468C10.2624 2.98468 11 3.65409 11 4.4809C11 5.3073 10.2624 5.97671 9.35184 5.97671C8.77186 5.97671 8.26182 5.70522 7.96813 5.29428C7.393 5.73482 6.65009 6 5.83942 6C4.98817 6 4.2122 5.70816 3.62678 5.22838C3.25931 5.67186 2.674 5.95781 2.01551 5.95781C0.902474 5.95781 7.33964e-07 5.13918 7.33964e-07 4.12904C7.33964e-07 3.11889 0.902011 2.29995 2.01551 2.29995Z" transform="translate(-1 1)" fill="white"/>
<path d="M0.154443 5.9331e-07C0.240083 5.9331e-07 0.308888 0.0690171 0.308888 0.153831C0.308888 0.239131 0.239595 0.307661 0.154443 0.307661C0.0688037 0.307661 5.21212e-07 0.238645 5.21212e-07 0.153831C0.000122515 0.0684096 0.0694137 5.9331e-07 0.154443 5.9331e-07Z" transform="translate(15.1851 15.3279) rotate(-4.288)" fill="white"/>
<path d="M0.786658 1.7839e-06C1.22095 1.7839e-06 1.5727 0.350486 1.5727 0.782931C1.5727 1.2155 1.22095 1.56647 0.786658 1.56647C0.35237 1.56647 1.86563e-07 1.21598 1.86563e-07 0.782931C1.86563e-07 0.350364 0.351881 1.7839e-06 0.786658 1.7839e-06Z" transform="translate(4.69727 20.1606) rotate(-4.288)" fill="white"/>
<path d="M0.429152 -8.32488e-07C0.666348 -8.32488e-07 0.858306 0.191197 0.858306 0.427452C0.858306 0.663099 0.666348 0.854905 0.429152 0.854905C0.191957 0.854905 3.13425e-07 0.663707 3.13425e-07 0.427452C3.13425e-07 0.191318 0.191957 -8.32488e-07 0.429152 -8.32488e-07Z" transform="translate(15.938 13.8899) rotate(-4.288)" fill="white"/>
<path d="M0.572082 9.51415e-07C0.888384 9.51415e-07 1.14416 0.255374 1.14416 0.569813C1.14416 0.884861 0.888384 1.13963 0.572082 1.13963C0.256392 1.13963 5.37301e-07 0.884861 5.37301e-07 0.569813C5.37301e-07 0.255374 0.256392 9.51415e-07 0.572082 9.51415e-07Z" transform="translate(18.8103 27.339) rotate(-4.288)" fill="white"/>
<path d="M0.297595 -1.81363e-06C0.46192 -1.81363e-06 0.5958 0.132742 0.5958 0.296416C0.5958 0.46009 0.462531 0.593439 0.297595 0.593439C0.133269 0.593439 -8.80576e-07 0.460699 -8.80576e-07 0.296416C-8.80576e-07 0.132742 0.133269 -1.81363e-06 0.297595 -1.81363e-06Z" transform="translate(21.9998 20.1488) rotate(-4.288)" fill="white"/>
<path d="M26.9014 30.6389C26.5558 30.388 26.1695 30.216 25.7691 30.1243C26.1475 29.1394 25.9386 27.9818 25.1417 27.1875C24.3681 26.4164 23.2488 26.1976 22.2791 26.5311C22.7699 25.5861 22.6179 24.3954 21.8222 23.6029C21.6133 23.3954 21.3778 23.2322 21.1265 23.1124C21.881 22.3423 21.9956 21.1825 21.4699 20.2937C21.8313 20.1902 22.1724 19.9967 22.457 19.7132C23.05 19.1226 23.251 18.289 23.0596 17.5336C23.5148 17.502 23.9609 17.3136 24.3081 16.9672C24.6046 16.6718 24.7858 16.3056 24.8525 15.9232C25.0998 15.8535 25.3336 15.7213 25.529 15.5272C25.9327 15.1251 26.0689 14.5581 25.9389 14.0439C26.2484 14.0225 26.4782 13.9668 26.7883 13.6586C27.0984 13.3498 27.4868 12.5769 26.9949 11.9841L34.9105 1.7875L34.0132 0.893752L33.1159 -1.7839e-07L22.6167 7.78973C22.1406 7.60803 21.5816 7.70814 21.1976 8.09004C20.961 8.32569 20.8322 8.62782 20.8107 8.93605C20.2945 8.80611 19.7254 8.94226 19.3221 9.34438C19.1268 9.53838 18.9946 9.77135 18.924 10.0182C18.54 10.0846 18.1724 10.2652 17.876 10.5605C17.5281 10.907 17.339 11.3507 17.3073 11.8041C16.5489 11.614 15.712 11.8137 15.119 12.4049C14.8248 12.6974 14.6271 13.0501 14.526 13.4236C13.649 12.9663 12.5421 13.0984 11.7979 13.8218C11.6776 13.5709 11.5139 13.3364 11.3054 13.1289C10.5097 12.3363 9.3142 12.1851 8.36493 12.6738C8.69982 11.708 8.48072 10.5937 7.70653 9.8225C6.90911 9.02824 5.74698 8.82012 4.75809 9.19764C4.66554 8.79881 4.49327 8.41471 4.2414 8.06983C4.72765 7.87632 5.18272 7.58331 5.57642 7.19117C7.13225 5.64151 7.13225 3.12892 5.57642 1.57938C4.04663 0.055653 1.58212 0.0303237 0.0207852 1.5029C0.00794727 1.87044 0 2.23822 0 2.60843C0 19.8265 14.0135 33.7844 31.3 33.7844C32.3041 33.7844 33.2975 33.7365 34.2772 33.6443C35.9363 29.6794 30.8629 26.2415 27.7829 29.3099C27.3894 29.7019 27.0951 30.1553 26.9008 30.6401L26.9014 30.6389Z" transform="translate(-7.48633 10.8093) rotate(-4.288)" fill="white"/>
<path d="M26.9014 30.2217C26.5558 29.9708 26.1695 29.7988 25.7691 29.7071C26.1475 28.7222 25.9386 27.5646 25.1417 26.7703C24.368 25.9992 23.2488 25.7804 22.2791 26.1139C22.7699 25.1689 22.6179 23.9782 21.8222 23.1857C21.6133 22.9782 21.3778 22.815 21.1265 22.6952C21.881 21.9251 21.9956 20.7653 21.4699 19.8765C21.8313 19.773 22.1724 19.5795 22.457 19.296C23.05 18.7054 23.251 17.8718 23.0596 17.1164C23.5148 17.0848 8.37051 46.8324 8.71775 46.4859C9.01424 46.1906 9.19544 45.8244 9.26208 45.442C9.50942 45.3722 9.74319 45.2401 9.93857 45.046C10.3423 44.6439 10.4785 44.0768 10.3485 43.5627C10.658 43.5412 10.8878 43.4856 11.1979 43.1774C11.508 42.8685 11.8964 42.0957 11.4045 41.5029L19.3201 31.3063L18.4228 30.4125L17.5255 29.5188L7.02633 37.3085C6.55022 37.1268 5.99122 37.2269 5.60719 37.6088C5.3706 37.8444 5.24186 38.1466 5.22034 38.4548C4.70413 38.3249 4.13499 38.461 3.73175 38.8631C3.53637 39.0571 3.4042 39.2901 3.33366 39.537C2.94962 39.6033 2.58196 39.7839 2.28559 40.0793C1.93775 40.4257 1.7486 40.8695 1.71694 41.3229C0.958521 41.1328 15.712 11.3965 15.119 11.9877C14.8248 12.2802 14.6271 12.6329 14.526 13.0064C13.649 12.5491 12.5421 12.6812 11.7979 13.4046C11.6776 13.1537 11.5139 12.9192 11.3054 12.7117C10.5097 11.9191 9.3142 11.7679 8.36493 12.2566C8.69982 11.2908 8.48072 10.1765 7.70653 9.4053C6.90911 8.61104 5.74698 8.40292 4.75809 8.78044C4.66554 8.38161 4.49327 7.99751 4.2414 7.65262C4.72765 7.45911 5.18272 7.16611 5.57642 6.77397C7.13225 5.22431 7.13225 2.71172 5.57642 1.16218C4.04663 -0.361549 1.58212 -0.386878 0.0207852 1.0857C0.00794731 1.45323 0 1.82101 0 2.19123C0 19.4092 14.0135 33.3672 31.3 33.3672C32.3041 33.3672 33.2975 33.3193 34.2772 33.2271C35.9363 29.2622 30.8629 25.8243 27.7829 28.8927C27.3894 29.2847 27.0951 29.7381 26.9008 30.2229L26.9014 30.2217Z" transform="translate(13.9104 25.4261) rotate(-4.288)" fill="white"/>
<path d="M26.9014 30.2217C26.5558 29.9708 26.1695 29.7988 25.7691 29.7071C26.1475 28.7222 25.9386 27.5646 25.1417 26.7703C24.368 25.9992 23.2488 25.7804 22.2791 26.1139C22.7699 25.1689 22.6179 23.9782 21.8222 23.1857C21.6133 22.9782 21.3778 22.815 21.1265 22.6952C21.881 21.9251 18.3697 20.5805 17.8439 19.6918C18.2054 19.5883 18.5465 19.3948 18.8311 19.1113C19.4241 18.5206 19.6251 17.687 19.4336 16.9316C19.8888 16.9001 8.37051 46.8324 8.71775 46.4859C9.01424 46.1906 9.19544 45.8244 9.26208 45.442C9.50942 45.3722 9.74319 45.2401 9.93857 45.046C10.3423 44.6439 10.4785 44.0768 10.3485 43.5627C10.658 43.5412 10.8878 43.4856 11.1979 43.1774C11.508 42.8685 11.8964 42.0957 11.4045 41.5029L19.3201 31.3063L18.4228 30.4125L17.5255 29.5188L7.02633 37.3085C6.55022 37.1268 5.99122 37.2269 5.60719 37.6088C5.3706 37.8444 5.24186 38.1466 5.22034 38.4548C4.70413 38.3249 4.13499 38.461 3.73175 38.8631C3.53637 39.0571 3.4042 39.2901 3.33366 39.537C2.94962 39.6033 2.58196 39.7839 2.28559 40.0793C1.93775 40.4257 1.7486 40.8695 1.71694 41.3229C0.958521 41.1328 15.712 11.3965 15.119 11.9877C14.8248 12.2802 14.6271 12.6329 14.526 13.0064C13.649 12.5491 12.5421 12.6812 11.7979 13.4046C11.6776 13.1537 11.5139 12.9192 11.3054 12.7117C10.5097 11.9191 9.3142 11.7679 8.36493 12.2566C8.69982 11.2908 8.48072 10.1765 7.70653 9.4053C6.90911 8.61104 5.74698 8.40292 4.75809 8.78044C4.66554 8.38161 4.49327 7.99751 4.2414 7.65262C4.72765 7.45911 5.18272 7.16611 5.57642 6.77397C7.13225 5.22431 7.13225 2.71172 5.57642 1.16218C4.04663 -0.361549 1.58212 -0.386878 0.0207852 1.0857C0.00794731 1.45323 0 1.82101 0 2.19123C0 19.4092 14.0135 33.3672 31.3 33.3672C32.3041 33.3672 33.2975 33.3193 34.2772 33.2271C35.9363 29.2622 30.8629 25.8243 27.7829 28.8927C27.3894 29.2847 27.0951 29.7381 26.9008 30.2229L26.9014 30.2217Z" transform="translate(-21 -4.97986) rotate(-4.288)" fill="white"/>
<path d="M6.32114 28.8514C5.97549 28.6005 5.58926 28.4285 5.18884 28.3368C5.56725 27.3519 5.3583 26.1943 4.56149 25.4C3.78779 24.6289 2.66857 24.41 1.69888 24.7436C2.18966 23.7986 2.03768 22.6079 1.24197 21.8154C1.03302 21.6079 0.79754 21.4447 0.546284 21.3248C1.30079 20.5548 1.41535 19.395 0.889606 18.5062C1.25102 18.4027 1.59214 18.2092 1.87678 17.9257C2.46977 17.3351 2.67077 16.5015 2.47931 15.7461C2.9345 15.7145 3.38065 15.5261 3.72788 15.1797C4.02438 14.8843 4.20558 14.5181 4.27221 14.1357C4.51955 14.066 4.75332 13.9338 4.94871 13.7397C5.35243 13.3376 5.48863 12.7706 5.35866 12.2564C6.383 12.1862 7.02576 10.9655 6.41467 10.1966L14.3303 9.21683e-07L5.99334 10.128C6.45245 11.0072 5.91546 11.8903 4.90286 11.9797C5.39644 12.8127 4.64145 13.8602 3.78865 13.7538C4.10043 14.8102 3.08953 15.398 2.20408 15.3203C2.33173 16.6911 1.83814 17.9594 0.429153 18.3054C1.2723 19.3966 0.771987 20.6831 6.26851e-07 21.2607C1.81271 22.2781 1.83533 23.8633 1.00062 25.1536C3.09063 24.635 5.30658 25.6227 4.76616 28.4537C4.76616 28.4537 5.9091 28.5993 6.48228 29.4746C6.48228 29.4746 8.56496 25.6823 11.5676 27.2253C13.8072 28.3761 13.4436 30.7656 13.1137 31.9051C13.3085 31.8905 13.5023 31.8741 13.696 31.8556C15.3551 27.8907 10.2817 24.4528 7.2017 27.5212C6.80812 27.9132 6.51383 28.3666 6.31955 28.8514H6.32114Z" transform="translate(13.1699 11.053) rotate(-4.288)" fill="#DFE1E3"/>
<path d="M7.07051 3.74392C8.78724 3.74392 10.2234 4.942 10.582 6.54391C10.8011 6.48265 11.032 6.44941 11.2709 6.44941C12.2659 6.44941 13.1272 7.01812 13.5456 7.84721C13.9217 7.58343 14.3808 7.42816 14.8755 7.42816C16.1529 7.42816 17.1885 8.45977 17.1885 9.73201C17.1885 10.1803 17.0597 10.5982 16.8378 10.952C17.2297 11.4892 17.4619 12.1507 17.4619 12.8656C17.4619 13.4511 17.3066 14.0007 17.0349 14.4754C18.2671 14.5265 19.2503 15.5373 19.2503 16.7771C19.2503 17.2367 19.1153 17.6646 18.8821 18.0241C18.9436 18.0157 19.0058 18.0112 19.0695 18.0112C19.715 18.0112 20.2577 18.4476 20.4169 19.0405C21.0121 19.199 21.4503 19.7396 21.4503 20.3825C21.4503 20.6632 21.3667 20.9236 21.2233 21.1424C13.7995 18.9774 7.51983 14.1468 3.49851 7.7616C3.4946 7.72896 3.49056 7.69693 3.48775 7.66368L3.44313 7.67331C1.96921 5.31599 0.803653 2.74823 -3.17157e-08 0.0264271C0.111262 0.00901237 0.224724 -7.13561e-07 0.34051 -7.13561e-07C1.53994 -7.13561e-07 2.51183 0.968038 2.51183 2.16271C2.51183 2.3494 2.48811 2.5311 2.44348 2.70378C2.59876 2.67456 2.75917 2.65824 2.92288 2.65824C3.98281 2.65824 4.89087 3.30392 5.27381 4.22191C5.80237 3.91818 6.41565 3.7444 7.06965 3.7444L7.07051 3.74392Z" transform="translate(-5.37036 22.0699) rotate(-4.288)" fill="#ECF0F1"/>
</g>
<path d="M11.3674 1.04219C7.88109 -2.44415 3.49851 3.93373 3.49851 3.93373L5.13189 3.43356L1.56651 7.63709L3.91402 7.00609L0 12.4097L5.40349 8.49566L4.77251 10.8431L8.97592 7.2777L8.47575 8.9111C8.47582 8.91116 14.8537 4.52853 11.3674 1.04219Z" transform="translate(3 21.5903)" fill="#F9D026"/>
<path d="M11.3674 1.62125e-08L0 11.3675L5.40349 7.45347L4.77251 9.80094L8.97592 6.2355L8.47575 7.86891C8.47582 7.86897 14.8537 3.48634 11.3674 1.62125e-08Z" transform="translate(3 22.6326)" fill="#E7C224"/>
<path d="M8.59355 5.96324L-1.62123e-08 4.51478L4.51479 -3.72888e-07L13.1083 1.44839L8.59355 5.96324Z" transform="translate(6.57324 8.83459)" fill="#FF4242"/>
<path d="M-3.72883e-07 4.51478L1.44844 13.1084L5.96323 8.5936L4.51479 2.75613e-07L-3.72883e-07 4.51478Z" transform="translate(22.2019 17.3185)" fill="#EB2323"/>
<path d="M22.4549 10.6174C25.2921 5.72789 25.5475 0.00019922 25.5475 0C25.5475 0 19.8197 0.2552 14.9302 3.09255C13.8018 3.74745 12.7181 4.53961 11.7596 5.49813C11.7596 5.49813 2.73016 14.5277 1.11703 16.1408C-0.496159 17.754 -0.536468 20.6981 2.15661 23.3912C4.84969 26.0843 7.79366 26.044 9.40691 24.4308C11.02 22.8177 20.0495 13.7881 20.0495 13.7881C21.0078 12.8295 21.8001 11.7458 22.4549 10.6174Z" transform="translate(11.4521)" fill="#EDEEF0"/>
<path d="M20.2983 10.6174C23.1355 5.72789 23.3909 0.00019922 23.3909 0L16.5359 6.85501L3.10533 20.2858L-2.91822e-07 23.3912C2.69308 26.0843 5.63704 26.0439 7.2503 24.4308C8.86343 22.8176 17.8929 13.788 17.8929 13.788C18.8512 12.8295 19.6435 11.7458 20.2983 10.6174Z" transform="translate(13.6086)" fill="#DCDEE2"/>
<path d="M10.6173 0C10.6173 0 4.88951 0.2552 -6.48493e-07 3.09255L3.76234 6.85494L7.52469 10.6173C10.3619 5.72789 10.6173 0.00019922 10.6173 0Z" transform="translate(26.3821)" fill="#FF4242"/>
<path d="M5.26194 4.14496L1.11703 2.35082e-07C-0.496159 1.61321 -0.536467 4.55728 2.15661 7.25039C4.8497 9.94351 7.79366 9.90313 9.40692 8.28999L5.26194 4.14496Z" transform="translate(11.4521 16.1409)" fill="#444242"/>
<path d="M7.25023 4.14496L3.10533 -8.26839e-07L2.51291e-07 3.10537C2.69301 5.79848 5.63711 5.75811 7.25023 4.14496Z" transform="translate(13.6086 20.2859)" fill="#3A3839"/>
<path d="M2.70696 5.41399C4.20197 5.41399 5.41392 4.20203 5.41392 2.70699C5.41392 1.21196 4.20197 0 2.70696 0C1.21195 0 0 1.21196 0 2.70699C0 4.20203 1.21195 5.41399 2.70696 5.41399Z" transform="translate(23.1982 8.38733)" fill="#92B7FF"/>
<path d="M12.0405 2.67507e-07L5.01256 5.0125L0.000132925 12.0406L1.86442e-07 12.0406L7.02804 7.02813L12.0405 2.67507e-07Z" transform="translate(9.09155 15.8678)" fill="#8B8B8B"/>
<path d="M7.02804 7.02813L12.0405 2.67507e-07L0.000132925 12.0406L1.86442e-07 12.0406L7.02804 7.02813Z" transform="translate(9.09155 15.8678)" fill="#5B5B5B"/>
<path d="M6.85492 0L2.1076e-07 6.85501L3.76234 10.6174C6.59952 5.72796 6.85492 0.000265626 6.85492 0Z" transform="translate(30.145)" fill="#EB2323"/>
<path d="M3.82822 3.82827C4.88533 2.77114 4.88533 1.05719 3.82822 -3.24251e-07L-3.56671e-07 3.82827C1.05704 4.88546 2.77104 4.88546 3.82822 3.82827Z" transform="translate(23.991 9.18018)" fill="#4D89FF"/>
<defs>
<filter id="filter0_d" x="0" y="4" width="37" height="37" filterUnits="userSpaceOnUse" color-interpolation-filters="sRGB">
<feFlood flood-opacity="0" result="BackgroundImageFix"/>
<feColorMatrix in="SourceAlpha" type="matrix" values="0 0 0 0 0 0 0 0 0 0 0 0 0 0 0 0 0 0 255 0"/>
<feOffset dy="1"/>
<feGaussianBlur stdDeviation="0.5"/>
<feColorMatrix type="matrix" values="0 0 0 0 0 0 0 0 0 0 0 0 0 0 0 0 0 0 1 0"/>
<feBlend mode="normal" in2="BackgroundImageFix" result="effect1_dropShadow"/>
<feBlend mode="normal" in="SourceGraphic" in2="effect1_dropShadow" result="shape"/>
</filter>
<linearGradient id="paint0_linear" x2="1" gradientUnits="userSpaceOnUse" gradientTransform="translate(35 52.5) scale(35) rotate(180)">
<stop stop-color="#1953C5"/>
<stop offset="0.486188" stop-color="#316CDE"/>
<stop offset="1" stop-color="#1953C5"/>
</linearGradient>
<linearGradient id="paint1_linear" x2="1" gradientUnits="userSpaceOnUse" gradientTransform="translate(35) scale(35) rotate(90)">
<stop stop-color="#276CF5"/>
<stop offset="1" stop-color="#4D89FF"/>
</linearGradient>
<linearGradient id="paint2_linear" x2="1" gradientUnits="userSpaceOnUse" gradientTransform="translate(35) scale(35) rotate(90)">
<stop stop-color="#276CF5"/>
<stop offset="1" stop-color="#4D89FF"/>
</linearGradient>
</defs>
</svg>
