<svg width="129" height="33" viewBox="0 0 129 33" fill="none" xmlns="http://www.w3.org/2000/svg">
<path d="M10.263 31.297C9.009 31.297 7.755 31.253 6.501 31.165C5.269 31.099 3.982 30.923 2.64 30.637V8.461C3.696 8.263 4.851 8.12 6.105 8.032C7.359 7.922 8.525 7.867 9.603 7.867C11.055 7.867 12.386 7.977 13.596 8.197C14.828 8.395 15.884 8.747 16.764 9.253C17.644 9.759 18.326 10.43 18.81 11.266C19.316 12.08 19.569 13.092 19.569 14.302C19.569 16.128 18.689 17.569 16.929 18.625C18.381 19.175 19.371 19.923 19.899 20.869C20.427 21.815 20.691 22.882 20.691 24.07C20.691 26.468 19.811 28.272 18.051 29.482C16.313 30.692 13.717 31.297 10.263 31.297ZM7.656 21.034V26.941C8.03 26.985 8.437 27.018 8.877 27.04C9.317 27.062 9.801 27.073 10.329 27.073C11.869 27.073 13.112 26.853 14.058 26.413C15.004 25.973 15.477 25.159 15.477 23.971C15.477 22.915 15.081 22.167 14.289 21.727C13.497 21.265 12.364 21.034 10.89 21.034H7.656ZM7.656 17.107H10.164C11.748 17.107 12.881 16.909 13.563 16.513C14.245 16.095 14.586 15.435 14.586 14.533C14.586 13.609 14.234 12.96 13.53 12.586C12.826 12.212 11.792 12.025 10.428 12.025C9.988 12.025 9.515 12.036 9.009 12.058C8.503 12.058 8.052 12.08 7.656 12.124V17.107ZM39.3979 22.288C39.3979 23.652 39.1999 24.906 38.8039 26.05C38.4079 27.172 37.8359 28.14 37.0879 28.954C36.3399 29.746 35.4379 30.362 34.3819 30.802C33.3479 31.242 32.1819 31.462 30.8839 31.462C29.6079 31.462 28.4419 31.242 27.3859 30.802C26.3519 30.362 25.4609 29.746 24.7129 28.954C23.9649 28.14 23.3819 27.172 22.9639 26.05C22.5459 24.906 22.3369 23.652 22.3369 22.288C22.3369 20.924 22.5459 19.681 22.9639 18.559C23.4039 17.437 23.9979 16.48 24.7459 15.688C25.5159 14.896 26.4179 14.28 27.4519 13.84C28.5079 13.4 29.6519 13.18 30.8839 13.18C32.1379 13.18 33.2819 13.4 34.3159 13.84C35.3719 14.28 36.2739 14.896 37.0219 15.688C37.7699 16.48 38.3529 17.437 38.7709 18.559C39.1889 19.681 39.3979 20.924 39.3979 22.288ZM34.3819 22.288C34.3819 20.77 34.0739 19.582 33.4579 18.724C32.8639 17.844 32.0059 17.404 30.8839 17.404C29.7619 17.404 28.8929 17.844 28.2769 18.724C27.6609 19.582 27.3529 20.77 27.3529 22.288C27.3529 23.806 27.6609 25.016 28.2769 25.918C28.8929 26.798 29.7619 27.238 30.8839 27.238C32.0059 27.238 32.8639 26.798 33.4579 25.918C34.0739 25.016 34.3819 23.806 34.3819 22.288ZM58.1228 22.288C58.1228 23.652 57.9248 24.906 57.5288 26.05C57.1328 27.172 56.5608 28.14 55.8128 28.954C55.0648 29.746 54.1628 30.362 53.1068 30.802C52.0728 31.242 50.9068 31.462 49.6088 31.462C48.3328 31.462 47.1668 31.242 46.1108 30.802C45.0768 30.362 44.1858 29.746 43.4378 28.954C42.6898 28.14 42.1068 27.172 41.6888 26.05C41.2708 24.906 41.0618 23.652 41.0618 22.288C41.0618 20.924 41.2708 19.681 41.6888 18.559C42.1288 17.437 42.7228 16.48 43.4708 15.688C44.2408 14.896 45.1428 14.28 46.1768 13.84C47.2328 13.4 48.3768 13.18 49.6088 13.18C50.8628 13.18 52.0068 13.4 53.0408 13.84C54.0968 14.28 54.9988 14.896 55.7468 15.688C56.4948 16.48 57.0778 17.437 57.4958 18.559C57.9138 19.681 58.1228 20.924 58.1228 22.288ZM53.1068 22.288C53.1068 20.77 52.7988 19.582 52.1828 18.724C51.5888 17.844 50.7308 17.404 49.6088 17.404C48.4868 17.404 47.6178 17.844 47.0018 18.724C46.3858 19.582 46.0778 20.77 46.0778 22.288C46.0778 23.806 46.3858 25.016 47.0018 25.918C47.6178 26.798 48.4868 27.238 49.6088 27.238C50.7308 27.238 51.5888 26.798 52.1828 25.918C52.7988 25.016 53.1068 23.806 53.1068 22.288ZM65.5947 27.469C66.4967 27.469 67.1347 27.381 67.5087 27.205C67.8827 27.029 68.0697 26.688 68.0697 26.182C68.0697 25.786 67.8277 25.445 67.3437 25.159C66.8597 24.851 66.1227 24.51 65.1327 24.136C64.3627 23.85 63.6587 23.553 63.0207 23.245C62.4047 22.937 61.8767 22.574 61.4367 22.156C60.9967 21.716 60.6557 21.199 60.4137 20.605C60.1717 20.011 60.0507 19.296 60.0507 18.46C60.0507 16.832 60.6557 15.545 61.8657 14.599C63.0757 13.653 64.7367 13.18 66.8487 13.18C67.9047 13.18 68.9167 13.279 69.8847 13.477C70.8527 13.653 71.6227 13.851 72.1947 14.071L71.3367 17.899C70.7647 17.701 70.1377 17.525 69.4557 17.371C68.7957 17.217 68.0477 17.14 67.2117 17.14C65.6717 17.14 64.9017 17.569 64.9017 18.427C64.9017 18.625 64.9347 18.801 65.0007 18.955C65.0667 19.109 65.1987 19.263 65.3967 19.417C65.5947 19.549 65.8587 19.703 66.1887 19.879C66.5407 20.033 66.9807 20.209 67.5087 20.407C68.5867 20.803 69.4777 21.199 70.1817 21.595C70.8857 21.969 71.4357 22.387 71.8317 22.849C72.2497 23.289 72.5357 23.784 72.6897 24.334C72.8657 24.884 72.9537 25.522 72.9537 26.248C72.9537 27.964 72.3047 29.262 71.0067 30.142C69.7307 31.022 67.9157 31.462 65.5617 31.462C64.0217 31.462 62.7347 31.33 61.7007 31.066C60.6887 30.802 59.9847 30.582 59.5887 30.406L60.4137 26.413C61.2497 26.743 62.1077 27.007 62.9877 27.205C63.8677 27.381 64.7367 27.469 65.5947 27.469ZM75.1433 9.319L80.0603 8.527V13.642H85.9673V17.734H80.0603V23.839C80.0603 24.873 80.2363 25.698 80.5883 26.314C80.9623 26.93 81.6993 27.238 82.7993 27.238C83.3273 27.238 83.8663 27.194 84.4163 27.106C84.9883 26.996 85.5053 26.853 85.9673 26.677L86.6603 30.505C86.0663 30.747 85.4063 30.956 84.6803 31.132C83.9543 31.308 83.0633 31.396 82.0073 31.396C80.6653 31.396 79.5543 31.22 78.6743 30.868C77.7943 30.494 77.0903 29.988 76.5623 29.35C76.0343 28.69 75.6603 27.898 75.4403 26.974C75.2423 26.05 75.1433 25.027 75.1433 23.905V9.319Z" transform="translate(-2 -5)" fill="#9BBCFF"/>
<path d="M88.9814 31V8.131H104.293V12.454H94.1294V17.239H103.171V21.562H94.1294V31H88.9814ZM113.211 31.33C111.781 31.308 110.615 31.154 109.713 30.868C108.833 30.582 108.129 30.186 107.601 29.68C107.095 29.152 106.743 28.525 106.545 27.799C106.369 27.051 106.281 26.215 106.281 25.291V6.184L111.198 5.392V24.301C111.198 24.741 111.231 25.137 111.297 25.489C111.363 25.841 111.484 26.138 111.66 26.38C111.858 26.622 112.133 26.82 112.485 26.974C112.837 27.128 113.31 27.227 113.904 27.271L113.211 31.33ZM130.459 13.642C129.469 16.986 128.435 20.121 127.357 23.047C126.279 25.973 125.102 28.811 123.826 31.561C123.364 32.551 122.902 33.387 122.44 34.069C121.978 34.773 121.472 35.345 120.922 35.785C120.372 36.247 119.745 36.577 119.041 36.775C118.359 36.995 117.556 37.105 116.632 37.105C115.862 37.105 115.147 37.028 114.487 36.874C113.849 36.742 113.321 36.588 112.903 36.412L113.761 32.485C114.267 32.661 114.718 32.782 115.114 32.848C115.51 32.914 115.928 32.947 116.368 32.947C117.248 32.947 117.919 32.705 118.381 32.221C118.865 31.759 119.272 31.11 119.602 30.274C118.48 28.074 117.358 25.61 116.236 22.882C115.114 20.132 114.058 17.052 113.068 13.642H118.282C118.502 14.5 118.755 15.435 119.041 16.447C119.349 17.437 119.668 18.449 119.998 19.483C120.328 20.495 120.658 21.485 120.988 22.453C121.34 23.421 121.67 24.301 121.978 25.093C122.264 24.301 122.561 23.421 122.869 22.453C123.177 21.485 123.474 20.495 123.76 19.483C124.068 18.449 124.354 17.437 124.618 16.447C124.904 15.435 125.157 14.5 125.377 13.642H130.459Z" transform="translate(-2 -5)" fill="#6C9DFF"/>
</svg>
