<svg width="472" height="612" viewBox="0 0 472 612" fill="none" xmlns="http://www.w3.org/2000/svg">
<path d="M0 35.4067L1.56 33.4067L4.41003 29.7467V15.8867L1.26001 1.40667C1.26001 1.40667 8.81001 1.40666 10.7 12.1067L13.22 15.2567C13.22 15.2567 27.07 -1.74333 29.59 0.146673C32.11 2.03667 29.59 12.7367 29.59 12.7367C29.5831 16.9645 29.161 21.1814 28.33 25.3267C27.07 30.3267 11.96 32.8867 11.96 32.8867L9.13 40.1267L0 35.4067Z" transform="translate(404.836 73.2012)" fill="#E5AE81"/>
<path d="M23.7483 42.9154L22.8983 40.5254L21.3483 36.1554L25.7183 22.9154L33.2683 10.1654C33.2683 10.1654 26.0983 7.78543 20.9383 17.3454L17.5583 19.5354C17.5583 19.5354 9.76828 -0.964569 6.77828 0.0354308C3.78828 1.03543 2.77828 12.0354 2.77828 12.0354C1.45286 16.0515 0.52505 20.188 0.00826013 24.3854C-0.38174 29.5654 13.1683 36.7154 13.1683 36.7154L13.5783 44.4754L23.7483 42.9154Z" transform="translate(159.699 34.8516)" fill="#E5AE81"/>
<path d="M0 9.82319C0 9.82319 120.4 -15.6768 247.89 15.4932C247.88 15.4832 117.59 38.1532 0 9.82319Z" transform="translate(146.008 587.414)" fill="#D8D9E2"/>
<path d="M13.2811 0C13.2811 0 0.581131 6.78 0.0311306 15.83C-0.518869 24.88 6.40113 49.06 6.40113 49.06C6.40113 49.06 26.9011 12.84 13.2811 0Z" transform="translate(225.195 113.098)" fill="#7E474A"/>
<path d="M75.6123 83.5855C60.5123 109.366 32.5323 112.156 19.8823 106.366C7.23232 100.576 -4.24768 82.4155 1.54232 69.7655C7.33232 57.1155 8.08233 46.9655 8.96233 29.9655C9.84233 12.9655 26.3223 4.59553 26.3223 4.59553C26.3223 4.59553 56.5623 -10.4045 81.8023 13.7955C107.042 37.9955 75.6123 83.5855 75.6123 83.5855Z" transform="translate(222.273 103.521)" fill="#E5AE81"/>
<path d="M3.58531 7.17199C3.58531 7.17199 20.1553 -8.038 20.9953 5.842C21.8353 19.722 -10.5747 34.262 3.58531 7.17199Z" transform="translate(295.012 169.775)" fill="#DA896F"/>
<path d="M65.29 0C65.29 0 66.29 23.07 64.4 33.39C62.51 43.71 54.67 65.13 24 70.09C12.94 68.03 0 59.52 0 59.52C2.21019 63.4945 5.32058 66.8961 9.08191 69.4523C12.8432 72.0085 17.151 73.6482 21.66 74.24C37.28 76.39 57.76 68.77 68.66 50.98C76.98 34.98 84.09 5.05 84.09 5.05L65.29 0Z" transform="translate(228.957 139.137)" fill="#DA896F"/>
<path d="M49.0835 50.5607C49.0835 50.5607 26.5435 67.0007 16.9635 57.1607C7.38347 47.3207 -10.6366 21.1607 8.34344 5.22067C27.3234 -10.7193 80.3435 11.7807 94.4635 46.4507C91.2235 51.5707 86.5934 51.8507 86.5934 51.8507C86.5934 51.8507 95.5135 59.2307 95.1735 67.1807C93.9335 73.8007 82.5435 98.0007 82.5435 98.0007C82.5435 98.0007 75.0835 101.191 68.6035 111.421L64.6035 108.421L78.3235 77.8007L49.0835 50.5607Z" transform="translate(225.055 73.7656)" fill="#7E474A"/>
<path d="M21.31 0.110615C21.31 0.110615 1.87 -1.98938 0 12.1106C1.81 26.9406 68.42 37.8406 69.11 34.1106C69.8 30.3806 40.3 12.7206 43.39 12.5306C46.48 12.3406 70.76 25.2606 77.95 35.7606C76.7 30.2706 61.99 6.95062 21.31 0.110615Z" transform="translate(230.969 77.8164)" fill="#965C52"/>
<path d="M16.0971 0.537455C16.0971 0.537455 25.9071 0.0774517 24.6071 10.1275C22.8571 19.5275 18.3271 19.2575 15.3171 16.9775C12.3071 14.6975 -5.7729 -1.83254 1.8671 0.16746C6.52187 1.36207 11.3865 1.48856 16.0971 0.537455Z" transform="translate(290.5 130.43)" fill="#965C52"/>
<path d="M0 4.29294C0 4.29294 14.82 5.94293 21 9.82294C21.07 6.54294 11.75 0.732941 8.38 0.0629405C5.01 -0.607059 0 4.29294 0 4.29294Z" transform="translate(258.836 147.273)" fill="#7E474A"/>
<path d="M16.05 4.07178C16.05 4.07178 5.05 3.57178 0 5.70178C0.32 3.29178 7.83 0.10177 10.37 0.00177023C12.91 -0.0982298 16.05 4.07178 16.05 4.07178Z" transform="translate(229.129 143.695)" fill="#7E474A"/>
<path d="M3.73999 4.58002C5.80554 4.58002 7.47998 3.55474 7.47998 2.29001C7.47998 1.02528 5.80554 0 3.73999 0C1.67445 0 0 1.02528 0 2.29001C0 3.55474 1.67445 4.58002 3.73999 4.58002Z" transform="translate(258.938 165.373) scale(0.996394) rotate(-79.5923)" fill="#7E474A"/>
<path d="M3.73999 4.58C5.80554 4.58 7.47998 3.55473 7.47998 2.28999C7.47998 1.02526 5.80554 0 3.73999 0C1.67445 0 0 1.02526 0 2.28999C0 3.55473 1.67445 4.58 3.73999 4.58Z" transform="translate(234.535 159.951) rotate(-79.44)" fill="#7E474A"/>
<path d="M17.79 7.53L0 0C0 0 0.209986 16.43 13.11 15.09C17.33 14.94 17.79 7.53 17.79 7.53Z" transform="translate(225.266 161.826)" fill="#DA896F"/>
<path d="M0 2.86997C0 2.86997 26.76 200.24 26.76 224.8C25.82 224.8 31.48 225.74 31.48 225.74C31.48 225.74 27.7 231.41 17.31 235.18C9.76 238.96 39.97 236.12 43.75 233.29C42.81 230.46 37.14 223.85 37.14 223.85C39.03 221.96 35.81 44.4999 35.81 44.4999C35.81 44.4999 77.75 174.74 84.36 230.5H83.42L90.03 234.28L77.75 243.73C77.75 243.73 98.05 243.73 99 239.01C98.06 234.29 97.11 230.51 97.11 230.51C97.11 230.51 68.94 22.73 66.73 4.72996C55.09 -4.69004 0 2.86997 0 2.86997Z" transform="translate(205.098 361.037)" fill="#11134C"/>
<path d="M64.0782 0C64.0782 0 90.9882 15.11 93.8282 17.47C96.6682 19.83 101.228 24.24 101.228 24.24L85.4882 43.13C85.4882 43.13 57.7682 106.71 70.9982 146.35C70.9982 146.35 40.1481 160.2 4.25815 144.46C2.80815 134.97 -4.55185 131.24 4.25815 30.46C5.51815 22.28 1.73816 7.80002 1.73816 7.80002L48.9582 2.13L64.0782 0Z" transform="translate(200.828 219.418)" fill="#3C59F0"/>
<path d="M3.31 0C3.31 0 5.2 9.44 0 16.53C0.94 17 7.07999 20.78 7.07999 20.78L20.77 14.17L18.41 0H3.31Z" transform="translate(244.598 209.496)" fill="#DA896F"/>
<path d="M9.49002 0C9.49002 0 5.08002 9.44001 5.08002 13.85C6.34002 13.85 17.67 8.85001 17.67 8.85001L28.37 20.85C28.37 20.85 37.81 11.41 37.18 1.33002C39.07 6.33002 34.66 22.11 29.63 25.25C24.63 23.99 17.63 12.66 17.63 12.66L0 19.59C0 19.59 2.56002 7.55 9.49002 0Z" transform="translate(230.867 224.137)" fill="white"/>
<path d="M0 4.88L1.41998 14.8L10.86 10.08L6.29999 0L0 4.88Z" transform="translate(242.238 232.947)" fill="#E5E7EF"/>
<path d="M37.27 2.82999C37.27 2.82999 21.33 72.21 20.2 104.69L8.26999 116.5L0 99.5C0 99.5 23.17 22.5 32.64 0C35.41 2.47 37.27 2.82999 37.27 2.82999Z" transform="translate(211.328 240.207)" fill="white"/>
<path d="M17.18 71.06C19.04 50.9 24.25 23.14 28.31 3.32999L20.25 0C13.1 21.13 4.69 48.21 0 63.5C5.67 65.97 11.88 68.68 17.18 71.06Z" transform="translate(214.988 264.307)" fill="#EEEFEF"/>
<path d="M0 0C0 0 35.89 12.59 67.37 0.940002C68.47 6.53 68.94 11.33 68.94 11.33C68.94 11.33 33.37 21.72 2.20001 9.44C1.57001 9.44 0 0 0 0Z" transform="translate(203.527 359.496)" fill="#090A32"/>
<path d="M2.35999 11.8L0 0L6.13998 1.89001L7.56 15.11C7.56 15.11 3.29999 12.27 2.35999 11.8Z" transform="translate(210.137 361.076)" fill="#23244B"/>
<path d="M5.19998 10.86L8.03 0L1.41998 0.939972L0 14.16C0 14.16 4.24998 11.33 5.19998 10.86Z" transform="translate(251.918 363.438)" fill="#23244B"/>
<path d="M0.0438969 1.42001C0.0438969 1.42001 9.48392 4.73 24.5939 0C23.7785 3.73011 21.6741 7.05332 18.6508 9.38528C15.6275 11.7173 11.8788 12.9087 8.06389 12.75C5.59743 12.1249 3.43483 10.6406 1.96476 8.56381C0.494701 6.48703 -0.186408 3.954 0.0438969 1.42001Z" transform="translate(234.645 181.637)" fill="white"/>
<path d="M7.72 160.21C7.72 160.21 102.94 41.54 138.83 9.44L128.44 0C128.44 0 72.72 42.44 0 131.25L7.72 160.21Z" transform="translate(278.598 102.326)" fill="#3C59F0"/>
<path d="M50.05 155.82C50.05 152.99 19.83 51.94 17 0L0 3.78C0 3.78 0.939987 71.78 37.77 185.1C45.32 179.43 51.94 152.05 51.94 152.05" transform="translate(170.008 73.0371)" fill="#3C59F0"/>
<path d="M0 11.85C0 11.85 7.86998 39.24 31.48 46.16L44.86 31.16C44.86 31.16 20.31 18.88 18.73 0L0 11.85Z" transform="translate(341.719 59.457)" fill="#FFA818"/>
<path d="M6.84998 13.7C10.6331 13.7 13.7 10.6331 13.7 6.84999C13.7 3.06684 10.6331 0 6.84998 0C3.06683 0 0 3.06684 0 6.84999C0 10.6331 3.06683 13.7 6.84998 13.7Z" transform="translate(355.727 77.6777)" fill="#FFE555"/>
<path d="M1.57001 4.10001C2.43709 4.10001 3.14001 3.18219 3.14001 2.05C3.14001 0.917819 2.43709 0 1.57001 0C0.70292 0 0 0.917819 0 2.05C0 3.18219 0.70292 4.10001 1.57001 4.10001Z" transform="translate(345.348 72.7168)" fill="#FFE555"/>
<path d="M1.57001 4.10001C2.43709 4.10001 3.14001 3.18219 3.14001 2.05C3.14001 0.917819 2.43709 0 1.57001 0C0.70292 0 0 0.917819 0 2.05C0 3.18219 0.70292 4.10001 1.57001 4.10001Z" transform="translate(368.922 101.193) rotate(-62.81)" fill="#FFE555"/>
<path d="M1.25 3.26001C1.94036 3.26001 2.5 2.53023 2.5 1.63C2.5 0.729781 1.94036 0 1.25 0C0.559644 0 0 0.729781 0 1.63C0 2.53023 0.559644 3.26001 1.25 3.26001Z" transform="translate(379.199 90.7109) rotate(-62.81)" fill="#FFE555"/>
<path d="M1.26001 3.28001C1.95589 3.28001 2.51996 2.54576 2.51996 1.64001C2.51996 0.734268 1.95589 0 1.26001 0C0.564131 0 0 0.734268 0 1.64001C0 2.54576 0.564131 3.28001 1.26001 3.28001Z" transform="translate(357.617 64.9473)" fill="#FFE555"/>
<path d="M44.33 0.428757C44.33 0.428757 16.16 -3.86124 0 14.6988L8 33.0988C8 33.0988 29.41 15.9188 47.23 22.3788L44.33 0.428757Z" transform="translate(241.828 11.0488)" fill="#FFA818"/>
<path d="M6.85001 13.7C10.6332 13.7 13.7 10.6331 13.7 6.85C13.7 3.06685 10.6332 0 6.85001 0C3.06686 0 0 3.06685 0 6.85C0 10.6331 3.06686 13.7 6.85001 13.7Z" transform="translate(256.34 28.25) rotate(-65.31)" fill="#FFE555"/>
<path d="M1.57001 4.1C2.43709 4.1 3.14001 3.18219 3.14001 2.05C3.14001 0.917819 2.43709 0 1.57001 0C0.70292 0 0 0.917819 0 2.05C0 3.18219 0.70292 4.1 1.57001 4.1Z" transform="translate(278.309 15.3027) rotate(-65.31)" fill="#FFE555"/>
<path d="M2.05002 3.14C3.1822 3.14 4.10001 2.43709 4.10001 1.57C4.10001 0.702913 3.1822 0 2.05002 0C0.917835 0 0 0.702913 0 1.57C0 2.43709 0.917835 3.14 2.05002 3.14Z" transform="translate(244.391 26.2148) rotate(-38.12)" fill="#FFE555"/>
<path d="M1.63 2.5C2.53023 2.5 3.26001 1.94036 3.26001 1.25C3.26001 0.559644 2.53023 0 1.63 0C0.729781 0 0 0.559644 0 1.25C0 1.94036 0.729781 2.5 1.63 2.5Z" transform="translate(250.281 39.4102) rotate(-38.12)" fill="#FFE555"/>
<path d="M1.25998 3.28001C1.95586 3.28001 2.51999 2.54575 2.51999 1.64C2.51999 0.734252 1.95586 0 1.25998 0C0.5641 0 0 0.734252 0 1.64C0 2.54575 0.5641 3.28001 1.25998 3.28001Z" transform="translate(281.25 29.4941) rotate(-65.31)" fill="#FFE555"/>
<path d="M44.33 0.428757C44.33 0.428757 16.16 -3.86124 0 14.6988L8 33.0988C8 33.0988 29.41 15.9188 47.23 22.3788L44.33 0.428757Z" transform="translate(119.008 88.459)" fill="#FFA818"/>
<path d="M6.84998 13.7C10.6331 13.7 13.7 10.6332 13.7 6.85001C13.7 3.06686 10.6331 0 6.84998 0C3.06683 0 0 3.06686 0 6.85001C0 10.6332 3.06683 13.7 6.84998 13.7Z" transform="translate(133.527 105.668) rotate(-65.31)" fill="#FFE555"/>
<path d="M1.57001 4.10001C2.43709 4.10001 3.14001 3.18219 3.14001 2.05C3.14001 0.917819 2.43709 0 1.57001 0C0.70292 0 0 0.917819 0 2.05C0 3.18219 0.70292 4.10001 1.57001 4.10001Z" transform="translate(155.5 92.7207) rotate(-65.31)" fill="#FFE555"/>
<path d="M2.05002 3.14C3.1822 3.14 4.10001 2.43709 4.10001 1.57001C4.10001 0.70292 3.1822 0 2.05002 0C0.917835 0 0 0.70292 0 1.57001C0 2.43709 0.917835 3.14 2.05002 3.14Z" transform="translate(123.051 103.506) scale(1.00424) rotate(-38.1252)" fill="#FFE555"/>
<path d="M1.63 2.5C2.53023 2.5 3.26001 1.94036 3.26001 1.25C3.26001 0.559644 2.53023 0 1.63 0C0.729781 0 0 0.559644 0 1.25C0 1.94036 0.729781 2.5 1.63 2.5Z" transform="translate(127.48 116.822) rotate(-38.12)" fill="#FFE555"/>
<path d="M1.26001 3.28001C1.95589 3.28001 2.52002 2.54575 2.52002 1.64C2.52002 0.734252 1.95589 0 1.26001 0C0.564131 0 0 0.734252 0 1.64C0 2.54575 0.564131 3.28001 1.26001 3.28001Z" transform="translate(158.445 106.893) rotate(-65.31)" fill="#FFE555"/>
<path d="M1 29.41C1 29.41 28.7 36.1 46.39 19L40 0C40 0 17.19 15.28 0 7.31L1 29.41Z" transform="translate(366.598 192.357)" fill="#FFA818"/>
<path d="M6.84998 13.7C10.6331 13.7 13.7 10.6332 13.7 6.85001C13.7 3.06686 10.6331 0 6.84998 0C3.06683 0 0 3.06686 0 6.85001C0 10.6332 3.06683 13.7 6.84998 13.7Z" transform="translate(380.074 212.783) rotate(-60.38)" fill="#FFE555"/>
<path d="M1.57001 4.10001C2.43709 4.10001 3.14001 3.18217 3.14001 2.04999C3.14001 0.917804 2.43709 0 1.57001 0C0.70292 0 0 0.917804 0 2.04999C0 3.18217 0.70292 4.10001 1.57001 4.10001Z" transform="translate(370.625 219.369) rotate(-60.38)" fill="#FFE555"/>
<path d="M2.05005 3.13998C3.18223 3.13998 4.10004 2.43709 4.10004 1.57001C4.10004 0.70292 3.18223 0 2.05005 0C0.917865 0 0 0.70292 0 1.57001C0 2.43709 0.917865 3.13998 2.05005 3.13998Z" transform="translate(405.301 210.316) rotate(-33.19)" fill="#FFE555"/>
<path d="M1.63 2.5C2.53023 2.5 3.26001 1.94036 3.26001 1.25C3.26001 0.559644 2.53023 0 1.63 0C0.729781 0 0 0.559644 0 1.25C0 1.94036 0.729781 2.5 1.63 2.5Z" transform="translate(401.625 196.715) rotate(-33.19)" fill="#94C234"/>
<path d="M1.26001 3.28C1.95589 3.28 2.52002 2.54576 2.52002 1.64001C2.52002 0.734268 1.95589 0 1.26001 0C0.564131 0 0 0.734268 0 1.64001C0 2.54576 0.564131 3.28 1.26001 3.28Z" transform="translate(369.93 204.844) rotate(-60.38)" fill="#FFE555"/>
<path d="M11 44C11 44 38.7 37.31 46.62 14L32.25 0C32.25 0 18.94 24 0 24.78L11 44Z" transform="translate(424.598 275.088)" fill="#FFA818"/>
<path d="M6.84998 13.7C10.6331 13.7 13.7 10.6332 13.7 6.85001C13.7 3.06686 10.6331 0 6.84998 0C3.06683 0 0 3.06686 0 6.85001C0 10.6332 3.06683 13.7 6.84998 13.7Z" transform="translate(442.477 305.34) rotate(-87.56)" fill="#FFE555"/>
<path d="M1.57001 4.09998C2.43709 4.09998 3.14001 3.18217 3.14001 2.04999C3.14001 0.917804 2.43709 0 1.57001 0C0.70292 0 0 0.917804 0 2.04999C0 3.18217 0.70292 4.09998 1.57001 4.09998Z" transform="translate(435.91 313.906) scale(1.0008) rotate(-87.7094)" fill="#FFE555"/>
<path d="M2.04999 3.14001C3.18217 3.14001 4.09998 2.43709 4.09998 1.57001C4.09998 0.70292 3.18217 0 2.04999 0C0.917804 0 0 0.70292 0 1.57001C0 2.43709 0.917804 3.14001 2.04999 3.14001Z" transform="translate(463.832 291.576) rotate(-60.37)" fill="#FFE555"/>
<path d="M1.63 2.5C2.53023 2.5 3.26001 1.94036 3.26001 1.25C3.26001 0.559644 2.53023 0 1.63 0C0.729781 0 0 0.559644 0 1.25C0 1.94036 0.729781 2.5 1.63 2.5Z" transform="translate(454.402 281.268) rotate(-60.36)" fill="#FFE555"/>
<path d="M1.25995 3.28C1.95583 3.28 2.51996 2.54576 2.51996 1.64001C2.51996 0.734268 1.95583 0 1.25995 0C0.56407 0 0 0.734268 0 1.64001C0 2.54576 0.56407 3.28 1.25995 3.28Z" transform="translate(429.848 302.904) rotate(-87.56)" fill="#FFE555"/>
<path d="M48.71 22.3357C48.71 22.3357 32.41 -1.03435 7.82999 0.0356523L0 18.5057C0 18.5057 27.2 22.1857 34.8 39.5557L48.71 22.3357Z" transform="translate(323.227 345.531)" fill="#FFA818"/>
<path d="M6.85001 13.7C10.6332 13.7 13.7 10.6331 13.7 6.84998C13.7 3.06683 10.6332 0 6.85001 0C3.06686 0 0 3.06683 0 6.84998C0 10.6331 3.06686 13.7 6.85001 13.7Z" transform="translate(339.219 357.844) rotate(-18.85)" fill="#FFE555"/>
<path d="M1.57001 4.09998C2.43709 4.09998 3.14001 3.18217 3.14001 2.04999C3.14001 0.917804 2.43709 0 1.57001 0C0.70292 0 0 0.917804 0 2.04999C0 3.18217 0.70292 4.09998 1.57001 4.09998Z" transform="translate(363.742 364.852) rotate(-18.85)" fill="#FFE555"/>
<path d="M1.57001 4.10001C2.43709 4.10001 3.13998 3.18217 3.13998 2.04999C3.13998 0.917804 2.43709 0 1.57001 0C0.70292 0 0 0.917804 0 2.04999C0 3.18217 0.70292 4.10001 1.57001 4.10001Z" transform="translate(332.02 350.887) rotate(-81.66)" fill="#FFE555"/>
<path d="M1.25 3.26001C1.94036 3.26001 2.5 2.53023 2.5 1.63C2.5 0.729781 1.94036 0 1.25 0C0.559644 0 0 0.729781 0 1.63C0 2.53023 0.559644 3.26001 1.25 3.26001Z" transform="translate(326.609 363.633) rotate(-81.66)" fill="#FFE555"/>
<path d="M1.26001 3.28C1.95589 3.28 2.52002 2.54573 2.52002 1.63998C2.52002 0.734237 1.95589 0 1.26001 0C0.564131 0 0 0.734237 0 1.63998C0 2.54573 0.564131 3.28 1.26001 3.28Z" transform="translate(355.492 376.768) rotate(-18.85)" fill="#FFE555"/>
<path d="M48.71 22.3357C48.71 22.3357 32.41 -1.03435 7.82999 0.0356523L0 18.5057C0 18.5057 27.2 22.1857 34.8 39.5557L48.71 22.3357Z" transform="translate(108.418 281.191)" fill="#FFA818"/>
<path d="M6.84998 13.7C10.6331 13.7 13.7 10.6331 13.7 6.84998C13.7 3.06683 10.6331 0 6.84998 0C3.06683 0 0 3.06683 0 6.84998C0 10.6331 3.06683 13.7 6.84998 13.7Z" transform="translate(124.414 293.498) rotate(-18.85)" fill="#FFE555"/>
<path d="M1.56998 4.10001C2.43706 4.10001 3.13998 3.1822 3.13998 2.05002C3.13998 0.917835 2.43706 0 1.56998 0C0.70289 0 0 0.917835 0 2.05002C0 3.1822 0.70289 4.10001 1.56998 4.10001Z" transform="translate(148.926 300.516) rotate(-18.85)" fill="#FFE555"/>
<path d="M1.56998 4.10001C2.43706 4.10001 3.13998 3.18217 3.13998 2.04999C3.13998 0.917804 2.43706 0 1.56998 0C0.70289 0 0 0.917804 0 2.04999C0 3.18217 0.70289 4.10001 1.56998 4.10001Z" transform="translate(117.211 286.543) rotate(-81.66)" fill="#FFE555"/>
<path d="M1.25 3.26001C1.94036 3.26001 2.5 2.53023 2.5 1.63C2.5 0.729781 1.94036 0 1.25 0C0.559644 0 0 0.729781 0 1.63C0 2.53023 0.559644 3.26001 1.25 3.26001Z" transform="translate(111.785 299.258) rotate(-81.66)" fill="#FFE555"/>
<path d="M1.26001 3.28C1.95589 3.28 2.51999 2.54573 2.51999 1.63998C2.51999 0.734237 1.95589 0 1.26001 0C0.564131 0 0 0.734237 0 1.63998C0 2.54573 0.564131 3.28 1.26001 3.28Z" transform="translate(140.688 312.402) rotate(-18.85)" fill="#FFE555"/>
<path d="M9.14999 41.81C9.14999 41.81 37.35 37.73 47.42 15.28L34.42 0C34.42 0 18.92 22.66 0 21.66L9.14999 41.81Z" transform="translate(135.738 407.057)" fill="#FFA818"/>
<path d="M6.85001 13.7C10.6332 13.7 13.7 10.6331 13.7 6.84998C13.7 3.06683 10.6332 0 6.85001 0C3.06686 0 0 3.06683 0 6.84998C0 10.6331 3.06686 13.7 6.85001 13.7Z" transform="translate(154.066 438.295) scale(0.99985) rotate(-81.9509)" fill="#FFE555"/>
<path d="M1.57001 4.09998C2.43709 4.09998 3.13998 3.18217 3.13998 2.04999C3.13998 0.917804 2.43709 0 1.57001 0C0.70292 0 0 0.917804 0 2.04999C0 3.18217 0.70292 4.09998 1.57001 4.09998Z" transform="translate(146.777 445.467) rotate(-82.2)" fill="#FFE555"/>
<path d="M2.05002 3.14001C3.1822 3.14001 4.10001 2.43709 4.10001 1.57001C4.10001 0.70292 3.1822 0 2.05002 0C0.917835 0 0 0.70292 0 1.57001C0 2.43709 0.917835 3.14001 2.05002 3.14001Z" transform="translate(175.617 424.148) rotate(-55.01)" fill="#FFE555"/>
<path d="M1.62997 2.5C2.5302 2.5 3.25998 1.94036 3.25998 1.25C3.25998 0.559644 2.5302 0 1.62997 0C0.72975 0 0 0.559644 0 1.25C0 1.94036 0.72975 2.5 1.62997 2.5Z" transform="translate(167.152 412.885) rotate(-55.01)" fill="#FFE555"/>
<path d="M1.26001 3.27997C1.95589 3.27997 2.52002 2.54576 2.52002 1.64001C2.52002 0.734268 1.95589 0 1.26001 0C0.564131 0 0 0.734268 0 1.64001C0 2.54576 0.564131 3.27997 1.26001 3.27997Z" transform="translate(140.734 432.246) rotate(-82.2)" fill="#FFE555"/>
<path d="M9.15001 41.81C9.15001 41.81 37.35 37.73 47.42 15.28L34.42 0C34.42 0 18.94 22.69 0 21.69L9.15001 41.81Z" transform="translate(77.6562 186.076)" fill="#FFA818"/>
<path d="M6.85001 13.7C10.6332 13.7 13.7 10.6332 13.7 6.85001C13.7 3.06686 10.6332 0 6.85001 0C3.06686 0 0 3.06686 0 6.85001C0 10.6332 3.06686 13.7 6.85001 13.7Z" transform="translate(95.9141 216.338) scale(0.99985) rotate(-81.9509)" fill="#FFE555"/>
<path d="M1.57001 4.10001C2.43709 4.10001 3.14001 3.1822 3.14001 2.05002C3.14001 0.917835 2.43709 0 1.57001 0C0.70292 0 0 0.917835 0 2.05002C0 3.1822 0.70292 4.10001 1.57001 4.10001Z" transform="translate(88.6992 224.48) rotate(-82.2)" fill="#FFE555"/>
<path d="M2.05002 3.14001C3.1822 3.14001 4.10001 2.43709 4.10001 1.57001C4.10001 0.70292 3.1822 0 2.05002 0C0.917835 0 0 0.70292 0 1.57001C0 2.43709 0.917835 3.14001 2.05002 3.14001Z" transform="translate(117.547 203.172) rotate(-55.01)" fill="#FFE555"/>
<path d="M1.63 2.5C2.53023 2.5 3.26001 1.94036 3.26001 1.25C3.26001 0.559644 2.53023 0 1.63 0C0.729781 0 0 0.559644 0 1.25C0 1.94036 0.729781 2.5 1.63 2.5Z" transform="translate(109.078 191.945) rotate(-55.01)" fill="#FFE555"/>
<path d="M1.25999 3.28C1.95587 3.28 2.51999 2.54573 2.51999 1.63998C2.51999 0.734237 1.95587 0 1.25999 0C0.564116 0 0 0.734237 0 1.63998C0 2.54573 0.564116 3.28 1.25999 3.28Z" transform="translate(82.6602 211.26) rotate(-82.2)" fill="#FFE555"/>
<path d="M9.14999 41.81C9.14999 41.81 37.35 37.73 47.42 15.28L34.42 0C34.42 0 18.92 22.66 0 21.66L9.14999 41.81Z" transform="translate(255.969 265.496)" fill="#FFA818"/>
<path d="M6.85001 13.7C10.6332 13.7 13.7 10.6332 13.7 6.85001C13.7 3.06686 10.6332 0 6.85001 0C3.06686 0 0 3.06686 0 6.85001C0 10.6332 3.06686 13.7 6.85001 13.7Z" transform="translate(273.324 294.289) rotate(-82.2)" fill="#FFE555"/>
<path d="M1.57001 4.10001C2.43709 4.10001 3.14001 3.18217 3.14001 2.04999C3.14001 0.917804 2.43709 0 1.57001 0C0.70292 0 0 0.917804 0 2.04999C0 3.18217 0.70292 4.10001 1.57001 4.10001Z" transform="translate(267.004 303.898) rotate(-82.2)" fill="#FFE555"/>
<path d="M2.04999 3.14001C3.18217 3.14001 4.09998 2.43709 4.09998 1.57001C4.09998 0.70292 3.18217 0 2.04999 0C0.917804 0 0 0.70292 0 1.57001C0 2.43709 0.917804 3.14001 2.04999 3.14001Z" transform="translate(295.852 282.598) rotate(-55.01)" fill="#FFE555"/>
<path d="M1.63 2.5C2.53023 2.5 3.26001 1.94036 3.26001 1.25C3.26001 0.559644 2.53023 0 1.63 0C0.729781 0 0 0.559644 0 1.25C0 1.94036 0.729781 2.5 1.63 2.5Z" transform="translate(287.387 271.34) rotate(-55.01)" fill="#FFE555"/>
<path d="M1.25998 3.28C1.95586 3.28 2.51999 2.54573 2.51999 1.63998C2.51999 0.734237 1.95586 0 1.25998 0C0.5641 0 0 0.734237 0 1.63998C0 2.54573 0.5641 3.28 1.25998 3.28Z" transform="translate(260.973 290.686) rotate(-82.2)" fill="#FFE555"/>
<path d="M9.15002 41.81C9.15002 41.81 37.35 37.73 47.42 15.28L34.42 0C34.42 0 18.92 22.66 0 21.66L9.15002 41.81Z" transform="translate(382.969 421.607)" fill="#FFA818"/>
<path d="M6.85004 13.7C10.6332 13.7 13.7 10.6331 13.7 6.84998C13.7 3.06683 10.6332 0 6.85004 0C3.06689 0 0 3.06683 0 6.84998C0 10.6331 3.06689 13.7 6.85004 13.7Z" transform="translate(400.328 450.402) rotate(-82.2)" fill="#FFE555"/>
<path d="M1.56995 4.10004C2.43703 4.10004 3.13995 3.18217 3.13995 2.04999C3.13995 0.917804 2.43703 0 1.56995 0C0.702859 0 0 0.917804 0 2.04999C0 3.18217 0.702859 4.10004 1.56995 4.10004Z" transform="translate(396 462.809) scale(0.99985) rotate(-81.9509)" fill="#FFE555"/>
<path d="M2.04999 3.14001C3.18217 3.14001 4.10004 2.43709 4.10004 1.57001C4.10004 0.70292 3.18217 0 2.04999 0C0.917804 0 0 0.70292 0 1.57001C0 2.43709 0.917804 3.14001 2.04999 3.14001Z" transform="translate(422.852 438.707) rotate(-55.01)" fill="#FFE555"/>
<path d="M1.63 2.5C2.53023 2.5 3.26001 1.94036 3.26001 1.25C3.26001 0.559644 2.53023 0 1.63 0C0.729781 0 0 0.559644 0 1.25C0 1.94036 0.729781 2.5 1.63 2.5Z" transform="translate(414.383 427.451) rotate(-55.01)" fill="#FFE555"/>
<path d="M1.26001 3.27997C1.95589 3.27997 2.52002 2.54576 2.52002 1.64001C2.52002 0.734268 1.95589 0 1.26001 0C0.564131 0 0 0.734268 0 1.64001C0 2.54576 0.564131 3.27997 1.26001 3.27997Z" transform="translate(387.973 446.809) rotate(-82.2)" fill="#FFE555"/>
<path d="M0 18.07C0 18.07 17.73 40.38 42.19 37.76L48.8 18.83C48.8 18.83 21.42 16.83 12.8 0L0 18.07Z" transform="translate(270.797 469.146)" fill="#FFA818"/>
<path d="M6.84998 13.7C10.6331 13.7 13.7 10.6332 13.7 6.85004C13.7 3.06689 10.6331 0 6.84998 0C3.06683 0 0 3.06689 0 6.85004C0 10.6332 3.06683 13.7 6.84998 13.7Z" transform="translate(286.137 487.805) rotate(-22.44)" fill="#FFE555"/>
<path d="M1.57001 4.10004C2.43709 4.10004 3.14001 3.18217 3.14001 2.04999C3.14001 0.917804 2.43709 0 1.57001 0C0.70292 0 0 0.917804 0 2.04999C0 3.18217 0.70292 4.10004 1.57001 4.10004Z" transform="translate(274.656 487.184) rotate(-22.44)" fill="#FFE555"/>
<path d="M1.57001 4.10004C2.43709 4.10004 3.14001 3.18217 3.14001 2.04999C3.14001 0.917804 2.43709 0 1.57001 0C0.70292 0 0 0.917804 0 2.04999C0 3.18217 0.70292 4.10004 1.57001 4.10004Z" transform="translate(307.379 504.49) rotate(-85.25)" fill="#FFE555"/>
<path d="M1.25 3.25995C1.94036 3.25995 2.5 2.53017 2.5 1.62994C2.5 0.72972 1.94036 0 1.25 0C0.559644 0 0 0.72972 0 1.62994C0 2.53017 0.559644 3.25995 1.25 3.25995Z" transform="translate(312.867 490.871) rotate(-85.25)" fill="#FFE555"/>
<path d="M1.26001 3.27997C1.95589 3.27997 2.52002 2.54576 2.52002 1.64001C2.52002 0.734268 1.95589 0 1.26001 0C0.564131 0 0 0.734268 0 1.64001C0 2.54576 0.564131 3.27997 1.26001 3.27997Z" transform="translate(283.082 475.215) rotate(-22.45)" fill="#FFE555"/>
<path d="M0 18.07C0 18.07 17.73 40.38 42.19 37.76L48.85 18.83C48.85 18.83 21.47 16.83 12.85 0L0 18.07Z" transform="translate(106.355 517.496)" fill="#FFA818"/>
<path d="M6.85001 13.7C10.6332 13.7 13.7 10.6331 13.7 6.84998C13.7 3.06683 10.6332 0 6.85001 0C3.06686 0 0 3.06683 0 6.84998C0 10.6331 3.06686 13.7 6.85001 13.7Z" transform="translate(121.703 536.139) rotate(-22.44)" fill="#FFE555"/>
<path d="M1.57001 4.09998C2.43709 4.09998 3.13998 3.18217 3.13998 2.04999C3.13998 0.917804 2.43709 0 1.57001 0C0.70292 0 0 0.917804 0 2.04999C0 3.18217 0.70292 4.09998 1.57001 4.09998Z" transform="translate(110.223 535.508) rotate(-22.44)" fill="#FFE555"/>
<path d="M1.57001 4.09998C2.43709 4.09998 3.14001 3.18217 3.14001 2.04999C3.14001 0.917804 2.43709 0 1.57001 0C0.70292 0 0 0.917804 0 2.04999C0 3.18217 0.70292 4.09998 1.57001 4.09998Z" transform="translate(142.938 552.84) rotate(-85.25)" fill="#FFE555"/>
<path d="M1.25 3.26001C1.94036 3.26001 2.5 2.53023 2.5 1.63C2.5 0.729781 1.94036 0 1.25 0C0.559644 0 0 0.729781 0 1.63C0 2.53023 0.559644 3.26001 1.25 3.26001Z" transform="translate(148.434 539.24) rotate(-85.25)" fill="#FFE555"/>
<path d="M1.26001 3.28003C1.95589 3.28003 2.51999 2.54576 2.51999 1.64001C2.51999 0.734268 1.95589 0 1.26001 0C0.564131 0 0 0.734268 0 1.64001C0 2.54576 0.564131 3.28003 1.26001 3.28003Z" transform="translate(118.605 523.641) rotate(-22.44)" fill="#FFE555"/>
<path d="M0 18.06C0 18.06 17.73 40.37 42.19 37.75L48.87 18.83C48.87 18.83 21.49 16.83 12.87 0L0 18.06Z" transform="translate(329.727 567.617)" fill="#FFA818"/>
<path d="M6.85001 13.7C10.6332 13.7 13.7 10.6331 13.7 6.84998C13.7 3.06683 10.6332 0 6.85001 0C3.06686 0 0 3.06683 0 6.84998C0 10.6331 3.06686 13.7 6.85001 13.7Z" transform="translate(345.074 586.273) rotate(-22.44)" fill="#FFE555"/>
<path d="M1.57001 4.09998C2.43709 4.09998 3.14001 3.18217 3.14001 2.04999C3.14001 0.917804 2.43709 0 1.57001 0C0.70292 0 0 0.917804 0 2.04999C0 3.18217 0.70292 4.09998 1.57001 4.09998Z" transform="translate(333.648 585.537) rotate(-22.45)" fill="#FFE555"/>
<path d="M1.57001 4.09998C2.43709 4.09998 3.14001 3.18217 3.14001 2.04999C3.14001 0.917804 2.43709 0 1.57001 0C0.70292 0 0 0.917804 0 2.04999C0 3.18217 0.70292 4.09998 1.57001 4.09998Z" transform="translate(366.309 602.957) rotate(-85.25)" fill="#FFE555"/>
<path d="M1.25 3.26001C1.94036 3.26001 2.5 2.53023 2.5 1.63C2.5 0.729781 1.94036 0 1.25 0C0.559644 0 0 0.729781 0 1.63C0 2.53023 0.559644 3.26001 1.25 3.26001Z" transform="translate(371.809 589.355) rotate(-85.25)" fill="#FFE555"/>
<path d="M1.25998 3.28003C1.95586 3.28003 2.51999 2.54576 2.51999 1.64001C2.51999 0.734268 1.95586 0 1.25998 0C0.5641 0 0 0.734268 0 1.64001C0 2.54576 0.5641 3.28003 1.25998 3.28003Z" transform="translate(341.953 573.795) rotate(-22.44)" fill="#FFE555"/>
<path d="M0 18.07C0 18.07 17.73 40.38 42.19 37.76L48.85 18.83C48.85 18.83 21.47 16.83 12.85 0L0 18.07Z" transform="translate(170.328 191.037)" fill="#FFA818"/>
<path d="M6.84998 13.7C10.6331 13.7 13.7 10.6332 13.7 6.85001C13.7 3.06686 10.6331 0 6.84998 0C3.06683 0 0 3.06686 0 6.85001C0 10.6332 3.06683 13.7 6.84998 13.7Z" transform="translate(185.688 209.684) rotate(-22.44)" fill="#FFE555"/>
<path d="M1.57001 4.09998C2.43709 4.09998 3.14001 3.18217 3.14001 2.04999C3.14001 0.917804 2.43709 0 1.57001 0C0.70292 0 0 0.917804 0 2.04999C0 3.18217 0.70292 4.09998 1.57001 4.09998Z" transform="translate(174.227 208.998) rotate(-22.45)" fill="#FFE555"/>
<path d="M1.56998 4.09998C2.43706 4.09998 3.13998 3.18217 3.13998 2.04999C3.13998 0.917804 2.43706 0 1.56998 0C0.70289 0 0 0.917804 0 2.04999C0 3.18217 0.70289 4.09998 1.56998 4.09998Z" transform="translate(206.902 226.365) rotate(-85.25)" fill="#FFE555"/>
<path d="M1.25 3.25998C1.94036 3.25998 2.5 2.5302 2.5 1.62997C2.5 0.72975 1.94036 0 1.25 0C0.559644 0 0 0.72975 0 1.62997C0 2.5302 0.559644 3.25998 1.25 3.25998Z" transform="translate(212.402 212.766) rotate(-85.25)" fill="#FFE555"/>
<path d="M1.26001 3.28C1.95589 3.28 2.52002 2.54573 2.52002 1.63998C2.52002 0.734237 1.95589 0 1.26001 0C0.564131 0 0 0.734237 0 1.63998C0 2.54573 0.564131 3.28 1.26001 3.28Z" transform="translate(182.57 197.195) rotate(-22.44)" fill="#FFE555"/>
<path d="M11.25 44.27C11.25 44.27 38.86 37.21 46.47 13.81L31.92 0C31.92 0 18.92 24.18 0 25.2L11.25 44.27Z" transform="translate(49.4062 369.246)" fill="#FFA818"/>
<path d="M6.85001 13.7C10.6332 13.7 13.7 10.6332 13.7 6.85001C13.7 3.06686 10.6332 0 6.85001 0C3.06686 0 0 3.06686 0 6.85001C0 10.6332 3.06686 13.7 6.85001 13.7Z" transform="translate(67.4414 399.717) rotate(-88.31)" fill="#FFE555"/>
<path d="M1.56999 4.10001C2.43708 4.10001 3.14 3.1822 3.14 2.05002C3.14 0.917835 2.43708 0 1.56999 0C0.702905 0 0 0.917835 0 2.05002C0 3.1822 0.702905 4.10001 1.56999 4.10001Z" transform="translate(62.1758 409.959) rotate(-88.31)" fill="#FFE555"/>
<path d="M2.05 3.14001C3.18219 3.14001 4.09999 2.43709 4.09999 1.57001C4.09999 0.70292 3.18219 0 2.05 0C0.917819 0 0 0.70292 0 1.57001C0 2.43709 0.917819 3.14001 2.05 3.14001Z" transform="translate(88.582 385.699) rotate(-61.12)" fill="#FFE555"/>
<path d="M1.62999 2.5C2.53021 2.5 3.25999 1.94036 3.25999 1.25C3.25999 0.559644 2.53021 0 1.62999 0C0.729765 0 0 0.559644 0 1.25C0 1.94036 0.729765 2.5 1.62999 2.5Z" transform="translate(78.9727 375.432) rotate(-61.12)" fill="#FFE555"/>
<path d="M1.25999 3.28C1.95587 3.28 2.52 2.54573 2.52 1.63998C2.52 0.734237 1.95587 0 1.25999 0C0.564116 0 0 0.734237 0 1.63998C0 2.54573 0.564116 3.28 1.25999 3.28Z" transform="translate(54.7695 397.449) rotate(-88.31)" fill="#FFE555"/>
<path d="M6.71698 5.797L8.61694 0.97699C8.74542 0.686318 8.95563 0.439222 9.22192 0.265778C9.48822 0.0923332 9.79914 0 10.1169 0C10.4347 0 10.7457 0.0923332 11.012 0.265778C11.2783 0.439222 11.4885 0.686318 11.6169 0.97699L13.517 5.797C13.5994 6.005 13.7236 6.19389 13.8818 6.35211C14.0401 6.51033 14.229 6.6345 14.437 6.71698L19.257 8.61697C19.5476 8.74545 19.7947 8.95563 19.9681 9.22192C20.1416 9.48822 20.2339 9.79917 20.2339 10.117C20.2339 10.4348 20.1416 10.7457 19.9681 11.012C19.7947 11.2783 19.5476 11.4885 19.257 11.617L14.437 13.517C14.229 13.5994 14.0401 13.7236 13.8818 13.8818C13.7236 14.0401 13.5994 14.229 13.517 14.437L11.6169 19.257C11.4885 19.5477 11.2783 19.7947 11.012 19.9682C10.7457 20.1416 10.4347 20.2339 10.1169 20.2339C9.79914 20.2339 9.48822 20.1416 9.22192 19.9682C8.95563 19.7947 8.74542 19.5477 8.61694 19.257L6.71698 14.437C6.6345 14.229 6.51033 14.0401 6.35211 13.8818C6.19389 13.7236 6.005 13.5994 5.797 13.517L0.97699 11.617C0.686318 11.4885 0.439191 11.2783 0.265747 11.012C0.0923027 10.7457 0 10.4348 0 10.117C0 9.79917 0.0923027 9.48822 0.265747 9.22192C0.439191 8.95563 0.686318 8.74545 0.97699 8.61697L5.797 6.71698C6.005 6.6345 6.19389 6.51033 6.35211 6.35211C6.51033 6.19389 6.6345 6.005 6.71698 5.797Z" transform="translate(382.828 299.609)" fill="#8090E4"/>
<path d="M4.95105 4.28101L6.34103 0.761047C6.42762 0.536983 6.58002 0.344332 6.77814 0.208496C6.97626 0.0726602 7.21084 0 7.45105 0C7.69126 0 7.92584 0.0726602 8.12396 0.208496C8.32208 0.344332 8.47445 0.536983 8.56104 0.761047L9.95105 4.28101C10.0109 4.43261 10.1012 4.57036 10.2165 4.68561C10.3317 4.80086 10.4694 4.89121 10.621 4.95105L14.1411 6.34106C14.3651 6.42765 14.5577 6.58002 14.6936 6.77814C14.8294 6.97626 14.9021 7.21084 14.9021 7.45105C14.9021 7.69126 14.8294 7.92584 14.6936 8.12396C14.5577 8.32208 14.3651 8.47445 14.1411 8.56104L10.621 9.95105C10.4694 10.0109 10.3317 10.1012 10.2165 10.2165C10.1012 10.3317 10.0109 10.4694 9.95105 10.621L8.56104 14.1411C8.47445 14.3651 8.32208 14.5577 8.12396 14.6935C7.92584 14.8294 7.69126 14.9021 7.45105 14.9021C7.21084 14.9021 6.97626 14.8294 6.77814 14.6935C6.58002 14.5577 6.42762 14.3651 6.34103 14.1411L4.95105 10.621C4.89121 10.4694 4.80086 10.3317 4.68561 10.2165C4.57036 10.1012 4.43264 10.0109 4.28104 9.95105L0.761047 8.56104C0.536983 8.47445 0.344362 8.32208 0.208527 8.12396C0.0726908 7.92584 0 7.69126 0 7.45105C0 7.21084 0.0726908 6.97626 0.208527 6.77814C0.344362 6.58002 0.536983 6.42765 0.761047 6.34106L4.28104 4.95105C4.43264 4.89121 4.57036 4.80086 4.68561 4.68561C4.80086 4.57036 4.89121 4.43261 4.95105 4.28101Z" transform="translate(321.586 439.205)" fill="#8090E4"/>
<path d="M4.95105 4.28107L6.34103 0.761047C6.42762 0.536983 6.58002 0.344362 6.77814 0.208527C6.97626 0.0726908 7.21084 0 7.45105 0C7.69126 0 7.92584 0.0726908 8.12396 0.208527C8.32208 0.344362 8.47445 0.536983 8.56104 0.761047L9.95105 4.28107C10.0109 4.43268 10.1012 4.57036 10.2165 4.68561C10.3317 4.80086 10.4694 4.89121 10.621 4.95105L14.1411 6.34106C14.3651 6.42765 14.5577 6.58002 14.6936 6.77814C14.8294 6.97626 14.9021 7.21084 14.9021 7.45105C14.9021 7.69126 14.8294 7.92584 14.6936 8.12396C14.5577 8.32208 14.3651 8.47448 14.1411 8.56107L10.621 9.95105C10.4694 10.0109 10.3317 10.1012 10.2165 10.2165C10.1012 10.3317 10.0109 10.4695 9.95105 10.6211L8.56104 14.1411C8.47445 14.3651 8.32208 14.5577 8.12396 14.6936C7.92584 14.8294 7.69126 14.9021 7.45105 14.9021C7.21084 14.9021 6.97626 14.8294 6.77814 14.6936C6.58002 14.5577 6.42762 14.3651 6.34103 14.1411L4.95105 10.6411C4.89121 10.4894 4.80086 10.3517 4.68561 10.2365C4.57036 10.1212 4.43264 10.0309 4.28104 9.97104L0.761047 8.58105C0.536983 8.49447 0.344362 8.3421 0.208527 8.14398C0.0726908 7.94586 0 7.71125 0 7.47104C0 7.23083 0.0726908 6.99624 0.208527 6.79813C0.344362 6.60001 0.536983 6.44764 0.761047 6.36105L4.28104 4.97104C4.43458 4.90898 4.57347 4.81556 4.68884 4.69675C4.80421 4.57793 4.89353 4.43637 4.95105 4.28107Z" transform="translate(93.2773 334.127)" fill="#8090E4"/>
<path d="M4.95105 4.28104L6.34105 0.761047C6.42764 0.536983 6.58 0.344362 6.77812 0.208527C6.97624 0.0726908 7.21084 0 7.45105 0C7.69126 0 7.92584 0.0726908 8.12396 0.208527C8.32208 0.344362 8.47446 0.536983 8.56105 0.761047L9.95105 4.28104C10.0109 4.43264 10.1012 4.57036 10.2165 4.68561C10.3317 4.80086 10.4694 4.89121 10.621 4.95105L14.1411 6.34103C14.3651 6.42762 14.5577 6.57999 14.6936 6.77811C14.8294 6.97623 14.9021 7.21084 14.9021 7.45105C14.9021 7.69126 14.8294 7.92584 14.6936 8.12396C14.5577 8.32208 14.3651 8.47445 14.1411 8.56104L10.621 9.95105C10.4694 10.0109 10.3317 10.1012 10.2165 10.2165C10.1012 10.3317 10.0109 10.4694 9.95105 10.621L8.56105 14.131C8.47446 14.3551 8.32208 14.5477 8.12396 14.6836C7.92584 14.8194 7.69126 14.8921 7.45105 14.8921C7.21084 14.8921 6.97624 14.8194 6.77812 14.6836C6.58 14.5477 6.42764 14.3551 6.34105 14.131L4.95105 10.6111C4.89121 10.4594 4.80086 10.3217 4.68561 10.2065C4.57036 10.0912 4.43266 10.0009 4.28105 9.94104L0.761047 8.55106C0.536983 8.46447 0.344362 8.31207 0.208527 8.11395C0.0726908 7.91583 0 7.68125 0 7.44104C0 7.20083 0.0726908 6.96625 0.208527 6.76813C0.344362 6.57001 0.536983 6.41764 0.761047 6.33105L4.28105 4.94104C4.43171 4.88232 4.56883 4.79351 4.68402 4.68004C4.79922 4.56656 4.89007 4.4308 4.95105 4.28104Z" transform="translate(60.2266 155.637)" fill="#8090E4"/>
<path d="M3.19705 2.76705L4.09708 0.497055C4.15247 0.350929 4.251 0.225112 4.37961 0.13633C4.50821 0.0475472 4.6608 0 4.81708 0C4.97335 0 5.12591 0.0475472 5.25452 0.13633C5.38312 0.225112 5.48168 0.350929 5.53708 0.497055L6.43707 2.76705C6.4758 2.86416 6.53389 2.95237 6.60782 3.0263C6.68175 3.10023 6.76995 3.15833 6.86707 3.19706L9.13705 4.09705C9.28318 4.15245 9.40899 4.251 9.49777 4.3796C9.58655 4.50821 9.63412 4.66078 9.63412 4.81705C9.63412 4.97333 9.58655 5.1259 9.49777 5.25451C9.40899 5.38311 9.28318 5.48166 9.13705 5.53706L6.86707 6.43705C6.76995 6.47578 6.68175 6.53388 6.60782 6.60781C6.53389 6.68174 6.4758 6.76995 6.43707 6.86706L5.53708 9.13705C5.48168 9.28317 5.38312 9.409 5.25452 9.49778C5.12591 9.58656 4.97335 9.6341 4.81708 9.6341C4.6608 9.6341 4.50821 9.58656 4.37961 9.49778C4.251 9.409 4.15247 9.28317 4.09708 9.13705L3.19705 6.86706C3.15832 6.76995 3.10023 6.68174 3.02631 6.60781C2.95238 6.53388 2.86417 6.47578 2.76706 6.43705L0.49707 5.53706C0.350944 5.48166 0.225135 5.38311 0.136353 5.25451C0.04757 5.1259 0 4.97333 0 4.81705C0 4.66078 0.04757 4.50821 0.136353 4.3796C0.225135 4.251 0.350944 4.15245 0.49707 4.09705L2.76706 3.19706C2.86417 3.15833 2.95238 3.10023 3.02631 3.0263C3.10023 2.95237 3.15832 2.86416 3.19705 2.76705Z" transform="translate(328.23 32.6699)" fill="#8090E4"/>
<path d="M3.19702 2.76706L4.09705 0.49707C4.15244 0.350944 4.25097 0.225135 4.37958 0.136353C4.50818 0.04757 4.6608 0 4.81708 0C4.97335 0 5.12591 0.04757 5.25452 0.136353C5.38312 0.225135 5.48165 0.350944 5.53705 0.49707L6.43707 2.76706C6.4758 2.86417 6.53386 2.95238 6.60779 3.02631C6.68172 3.10023 6.76995 3.15832 6.86707 3.19705L9.13702 4.09705C9.28315 4.15244 9.40896 4.251 9.49774 4.37961C9.58652 4.50821 9.63409 4.66077 9.63409 4.81705C9.63409 4.97332 9.58652 5.12591 9.49774 5.25452C9.40896 5.38312 9.28315 5.48165 9.13702 5.53705L6.86707 6.43707C6.76995 6.4758 6.68172 6.53389 6.60779 6.60782C6.53386 6.68175 6.4758 6.76995 6.43707 6.86707L5.53705 9.13705C5.48165 9.28318 5.38312 9.40899 5.25452 9.49777C5.12591 9.58655 4.97335 9.63412 4.81708 9.63412C4.6608 9.63412 4.50818 9.58655 4.37958 9.49777C4.25097 9.40899 4.15244 9.28318 4.09705 9.13705L3.19702 6.86707C3.15829 6.76995 3.10023 6.68175 3.02631 6.60782C2.95238 6.53389 2.86414 6.4758 2.76703 6.43707L0.49707 5.53705C0.350944 5.48165 0.225135 5.38312 0.136353 5.25452C0.04757 5.12591 0 4.97332 0 4.81705C0 4.66077 0.04757 4.50821 0.136353 4.37961C0.225135 4.251 0.350944 4.15244 0.49707 4.09705L2.76703 3.19705C2.86414 3.15832 2.95238 3.10023 3.02631 3.02631C3.10023 2.95238 3.15829 2.86417 3.19702 2.76706Z" transform="translate(452.559 392)" fill="#8090E4"/>
<path d="M5.15427 4.46423L6.60428 0.784241C6.69726 0.552658 6.85741 0.35425 7.06415 0.214478C7.27088 0.0747049 7.51473 0 7.76428 0C8.01383 0 8.25765 0.0747049 8.46439 0.214478C8.67112 0.35425 8.83131 0.552658 8.92429 0.784241L10.3743 4.46423C10.4371 4.62243 10.5317 4.76617 10.652 4.88654C10.7724 5.0069 10.9161 5.10138 11.0743 5.16425L14.7543 6.61426C14.9859 6.70724 15.1843 6.86742 15.3241 7.07416C15.4639 7.28089 15.5385 7.52468 15.5385 7.77423C15.5385 8.02378 15.4639 8.26763 15.3241 8.47437C15.1843 8.6811 14.9859 8.84129 14.7543 8.93427L11.0843 10.3643C10.9261 10.4271 10.7824 10.5217 10.662 10.642C10.5416 10.7624 10.4471 10.9061 10.3843 11.0643L8.93427 14.7443C8.84129 14.9758 8.68113 15.1743 8.4744 15.3141C8.26766 15.4539 8.02384 15.5285 7.77429 15.5285C7.52474 15.5285 7.28089 15.4539 7.07416 15.3141C6.86742 15.1743 6.70727 14.9758 6.61429 14.7443L5.16428 11.0643C5.10141 10.9061 5.0069 10.7624 4.88654 10.642C4.76617 10.5217 4.62246 10.4271 4.46426 10.3643L0.784271 8.91425C0.552689 8.82127 0.35425 8.66114 0.214478 8.45441C0.0747049 8.24767 0 8.00382 0 7.75427C0 7.50472 0.0747049 7.26087 0.214478 7.05414C0.35425 6.8474 0.552689 6.68722 0.784271 6.59424L4.46426 5.14429C4.61874 5.08256 4.75936 4.99061 4.87784 4.87384C4.99632 4.75707 5.09029 4.61779 5.15427 4.46423Z" transform="translate(148.742 484.402)" fill="#8090E4"/>
<path d="M1.97009 1.70007L2.52008 0.300049C2.55593 0.211395 2.61743 0.135494 2.69672 0.0820312C2.776 0.0285681 2.86946 0 2.96509 0C3.06071 0 3.15417 0.0285681 3.23346 0.0820312C3.31274 0.135494 3.37425 0.211395 3.4101 0.300049L3.96008 1.70007C3.98422 1.76116 4.02064 1.8166 4.06708 1.86304C4.11352 1.90948 4.16902 1.94589 4.2301 1.97003L5.63007 2.52008C5.71872 2.55593 5.79468 2.61743 5.84814 2.69672C5.90161 2.776 5.93018 2.8694 5.93018 2.96503C5.93018 3.06065 5.90161 3.15411 5.84814 3.2334C5.79468 3.31268 5.71872 3.37419 5.63007 3.41003L4.2301 3.96008C4.16902 3.98422 4.11352 4.02064 4.06708 4.06708C4.02064 4.11352 3.98422 4.16896 3.96008 4.23004L3.4101 5.63007C3.37425 5.71872 3.31274 5.79462 3.23346 5.84808C3.15417 5.90155 3.06071 5.93011 2.96509 5.93011C2.86946 5.93011 2.776 5.90155 2.69672 5.84808C2.61743 5.79462 2.55593 5.71872 2.52008 5.63007L1.97009 4.23004C1.94595 4.16896 1.90954 4.11352 1.8631 4.06708C1.81666 4.02064 1.76116 3.98422 1.70007 3.96008L0.30011 3.41003C0.211456 3.37419 0.135494 3.31268 0.0820312 3.2334C0.0285681 3.15411 0 3.06065 0 2.96503C0 2.8694 0.0285681 2.776 0.0820312 2.69672C0.135494 2.61743 0.211456 2.55593 0.30011 2.52008L1.70007 1.97003C1.76116 1.94589 1.81666 1.90948 1.8631 1.86304C1.90954 1.8166 1.94595 1.76116 1.97009 1.70007Z" transform="translate(374.316 556.646)" fill="#F2F3CD"/>
<path d="M13.517 5.79697L11.617 0.976959C11.4885 0.686288 11.2783 0.439222 11.012 0.265778C10.7457 0.0923332 10.4348 0 10.117 0C9.79919 0 9.48822 0.0923332 9.22192 0.265778C8.95563 0.439222 8.74547 0.686288 8.61699 0.976959L6.71698 5.79697C6.6345 6.00496 6.51034 6.19389 6.35213 6.35211C6.19391 6.51033 6.00498 6.6345 5.79698 6.71698L0.97699 8.61697C0.686318 8.74545 0.439237 8.95563 0.265793 9.22192C0.0923485 9.48822 0 9.79917 0 10.117C0 10.4348 0.0923485 10.7457 0.265793 11.012C0.439237 11.2783 0.686318 11.4885 0.97699 11.617L5.79698 13.517C6.00498 13.5994 6.19391 13.7236 6.35213 13.8818C6.51034 14.0401 6.6345 14.229 6.71698 14.437L8.61699 19.257C8.74547 19.5476 8.95563 19.7947 9.22192 19.9682C9.48822 20.1416 9.79919 20.2339 10.117 20.2339C10.4348 20.2339 10.7457 20.1416 11.012 19.9682C11.2783 19.7947 11.4885 19.5476 11.617 19.257L13.517 14.437C13.5995 14.229 13.7236 14.0401 13.8819 13.8818C14.0401 13.7236 14.229 13.5994 14.437 13.517L19.257 11.617C19.5477 11.4885 19.7947 11.2783 19.9682 11.012C20.1416 10.7457 20.234 10.4348 20.234 10.117C20.234 9.79917 20.1416 9.48822 19.9682 9.22192C19.7947 8.95563 19.5477 8.74545 19.257 8.61697L14.437 6.71698C14.229 6.6345 14.0401 6.51033 13.8819 6.35211C13.7236 6.19389 13.5995 6.00496 13.517 5.79697Z" transform="translate(59.0781 266.971)" fill="#8090E4"/>
<path d="M9.95105 4.28104L8.56107 0.761047C8.47448 0.536983 8.32211 0.344362 8.12399 0.208527C7.92587 0.0726908 7.69126 0 7.45105 0C7.21084 0 6.97626 0.0726908 6.77814 0.208527C6.58002 0.344362 6.42765 0.536983 6.34106 0.761047L4.95105 4.28104C4.89121 4.43264 4.80086 4.57036 4.68561 4.68561C4.57036 4.80086 4.43268 4.89121 4.28107 4.95105L0.761047 6.34103C0.536983 6.42762 0.344393 6.57999 0.208557 6.77811C0.0727213 6.97623 0 7.21084 0 7.45105C0 7.69126 0.0727213 7.92584 0.208557 8.12396C0.344393 8.32208 0.536983 8.47445 0.761047 8.56104L4.28107 9.95105C4.43268 10.0109 4.57036 10.1012 4.68561 10.2165C4.80086 10.3317 4.89121 10.4694 4.95105 10.621L6.34106 14.1411C6.42765 14.3651 6.58002 14.5577 6.77814 14.6935C6.97626 14.8294 7.21084 14.9021 7.45105 14.9021C7.69126 14.9021 7.92587 14.8294 8.12399 14.6935C8.32211 14.5577 8.47448 14.3651 8.56107 14.1411L9.95105 10.621C10.0109 10.4694 10.1012 10.3317 10.2165 10.2165C10.3317 10.1012 10.4695 10.0109 10.6211 9.95105L14.1411 8.56104C14.3651 8.47445 14.5577 8.32208 14.6936 8.12396C14.8294 7.92584 14.9021 7.69126 14.9021 7.45105C14.9021 7.21084 14.8294 6.97623 14.6936 6.77811C14.5577 6.57999 14.3651 6.42762 14.1411 6.34103L10.6211 4.95105C10.4695 4.89121 10.3317 4.80086 10.2165 4.68561C10.1012 4.57036 10.0109 4.43264 9.95105 4.28104Z" transform="translate(125.695 406.576)" fill="#8090E4"/>
<path d="M9.94104 4.26105L8.58105 0.761047C8.49447 0.536983 8.3421 0.344362 8.14398 0.208527C7.94586 0.0726908 7.71128 0 7.47107 0C7.23086 0 6.99628 0.0726908 6.79816 0.208527C6.60004 0.344362 6.44767 0.536983 6.36108 0.761047L4.95105 4.26105C4.89121 4.41266 4.80086 4.55037 4.68561 4.66562C4.57036 4.78087 4.43268 4.87122 4.28107 4.93106L0.761047 6.32104C0.536983 6.40763 0.344393 6.56 0.208557 6.75812C0.0727213 6.95624 0 7.19085 0 7.43106C0 7.67127 0.0727213 7.90585 0.208557 8.10397C0.344393 8.30209 0.536983 8.45446 0.761047 8.54105L4.28107 9.93106C4.43268 9.9909 4.57036 10.0812 4.68561 10.1965C4.80086 10.3117 4.89121 10.4494 4.95105 10.601L6.34106 14.121C6.42765 14.3451 6.58002 14.5377 6.77814 14.6736C6.97626 14.8094 7.21084 14.8821 7.45105 14.8821C7.69126 14.8821 7.92584 14.8094 8.12396 14.6736C8.32208 14.5377 8.47445 14.3451 8.56104 14.121L9.95105 10.601C10.0109 10.4494 10.1012 10.3117 10.2165 10.1965C10.3317 10.0812 10.4694 9.9909 10.621 9.93106L14.1411 8.54105C14.3651 8.45446 14.5577 8.30209 14.6935 8.10397C14.8294 7.90585 14.9021 7.67127 14.9021 7.43106C14.9021 7.19085 14.8294 6.95624 14.6935 6.75812C14.5577 6.56 14.3651 6.40763 14.1411 6.32104L10.5811 4.94104C10.434 4.8767 10.3016 4.7833 10.1916 4.66644C10.0816 4.54958 9.99636 4.41169 9.94104 4.26105Z" transform="translate(354.016 301.506)" fill="#8090E4"/>
<path d="M9.98102 4.29105L8.56104 0.761047C8.47445 0.536983 8.32208 0.344362 8.12396 0.208527C7.92584 0.0726908 7.69126 0 7.45105 0C7.21084 0 6.97626 0.0726908 6.77814 0.208527C6.58002 0.344362 6.42765 0.536983 6.34106 0.761047L4.95105 4.28105C4.89121 4.43266 4.80086 4.57036 4.68561 4.68561C4.57036 4.80086 4.43261 4.89121 4.28101 4.95105L0.761047 6.34105C0.536983 6.42764 0.344332 6.58 0.208496 6.77812C0.0726602 6.97624 0 7.21084 0 7.45105C0 7.69126 0.0726602 7.92584 0.208496 8.12396C0.344332 8.32208 0.536983 8.47446 0.761047 8.56105L4.28101 9.95105C4.43261 10.0109 4.57036 10.1012 4.68561 10.2165C4.80086 10.3317 4.89121 10.4694 4.95105 10.621L6.34106 14.1411C6.42765 14.3651 6.58002 14.5577 6.77814 14.6936C6.97626 14.8294 7.21084 14.9021 7.45105 14.9021C7.69126 14.9021 7.92584 14.8294 8.12396 14.6936C8.32208 14.5577 8.47445 14.3651 8.56104 14.1411L9.95105 10.621C10.0109 10.4694 10.1012 10.3317 10.2165 10.2165C10.3317 10.1012 10.4694 10.0109 10.621 9.95105L14.1411 8.56105C14.3651 8.47446 14.5577 8.32208 14.6935 8.12396C14.8294 7.92584 14.9021 7.69126 14.9021 7.45105C14.9021 7.21084 14.8294 6.97624 14.6935 6.77812C14.5577 6.58 14.3651 6.42764 14.1411 6.34105L10.621 4.95105C10.4759 4.88898 10.3446 4.79866 10.2347 4.68535C10.1249 4.57204 10.0386 4.438 9.98102 4.29105Z" transform="translate(387.035 123.006)" fill="#8090E4"/>
<path d="M6.43704 2.76705L5.53705 0.497055C5.48165 0.350929 5.38309 0.225112 5.25449 0.13633C5.12588 0.0475472 4.97332 0 4.81705 0C4.66077 0 4.50818 0.0475472 4.37958 0.13633C4.25097 0.225112 4.15244 0.350929 4.09705 0.497055L3.19705 2.76705C3.15832 2.86416 3.1002 2.95237 3.02628 3.0263C2.95235 3.10023 2.86414 3.15832 2.76703 3.19705L0.49704 4.09705C0.350914 4.15245 0.225105 4.251 0.136322 4.3796C0.0475395 4.50821 0 4.66078 0 4.81705C0 4.97333 0.0475395 5.1259 0.136322 5.2545C0.225105 5.38311 0.350914 5.48165 0.49704 5.53705L2.76703 6.43705C2.86414 6.47578 2.95235 6.53388 3.02628 6.6078C3.1002 6.68173 3.15832 6.76994 3.19705 6.86705L4.09705 9.13705C4.15244 9.28318 4.25097 9.40899 4.37958 9.49777C4.50818 9.58655 4.66077 9.6341 4.81705 9.6341C4.97332 9.6341 5.12588 9.58655 5.25449 9.49777C5.38309 9.40899 5.48165 9.28318 5.53705 9.13705L6.43704 6.86705C6.47577 6.76994 6.53386 6.68173 6.60779 6.6078C6.68172 6.53388 6.76992 6.47578 6.86703 6.43705L9.13702 5.53705C9.28315 5.48165 9.40899 5.38311 9.49777 5.2545C9.58655 5.1259 9.63409 4.97333 9.63409 4.81705C9.63409 4.66078 9.58655 4.50821 9.49777 4.3796C9.40899 4.251 9.28315 4.15245 9.13702 4.09705L6.86703 3.19705C6.76992 3.15832 6.68172 3.10023 6.60779 3.0263C6.53386 2.95237 6.47577 2.86416 6.43704 2.76705Z" transform="translate(124.32)" fill="#8090E4"/>
<path d="M6.43704 2.76706L5.53705 0.49704C5.48165 0.350914 5.38311 0.225105 5.2545 0.136322C5.1259 0.0475395 4.97332 0 4.81705 0C4.66077 0 4.5082 0.0475395 4.37959 0.136322C4.25099 0.225105 4.15244 0.350914 4.09705 0.49704L3.19705 2.76706C3.15832 2.86417 3.10022 2.95238 3.02629 3.02631C2.95236 3.10023 2.86416 3.15832 2.76704 3.19705L0.49704 4.09705C0.350914 4.15244 0.225105 4.251 0.136322 4.37961C0.0475395 4.50821 0 4.66077 0 4.81705C0 4.97332 0.0475395 5.12591 0.136322 5.25452C0.225105 5.38312 0.350914 5.48165 0.49704 5.53705L2.76704 6.43704C2.86416 6.47577 2.95236 6.53389 3.02629 6.60782C3.10022 6.68175 3.15832 6.76995 3.19705 6.86707L4.09705 9.13705C4.15244 9.28318 4.25099 9.40899 4.37959 9.49777C4.5082 9.58655 4.66077 9.63409 4.81705 9.63409C4.97332 9.63409 5.1259 9.58655 5.2545 9.49777C5.38311 9.40899 5.48165 9.28318 5.53705 9.13705L6.43704 6.86707C6.47577 6.76995 6.53388 6.68175 6.6078 6.60782C6.68173 6.53389 6.76994 6.47577 6.86705 6.43704L9.13704 5.53705C9.28316 5.48165 9.40899 5.38312 9.49777 5.25452C9.58655 5.12591 9.63409 4.97332 9.63409 4.81705C9.63409 4.66077 9.58655 4.50821 9.49777 4.37961C9.40899 4.251 9.28316 4.15244 9.13704 4.09705L6.86705 3.19705C6.76994 3.15832 6.68173 3.10023 6.6078 3.02631C6.53388 2.95238 6.47577 2.86417 6.43704 2.76706Z" transform="translate(0 359.35)" fill="#8090E4"/>
<path d="M10.3843 4.46423L8.93427 0.784241C8.84129 0.552658 8.68113 0.35425 8.4744 0.214478C8.26766 0.0747049 8.02381 0 7.77426 0C7.52471 0 7.28089 0.0747049 7.07416 0.214478C6.86742 0.35425 6.70724 0.552658 6.61426 0.784241L5.16428 4.46423C5.10141 4.62243 5.00687 4.76617 4.88651 4.88654C4.76614 5.0069 4.62246 5.10138 4.46426 5.16425L0.784271 6.61426C0.552689 6.70724 0.35422 6.86742 0.214447 7.07416C0.0746744 7.28089 0 7.52474 0 7.77429C0 8.02384 0.0746744 8.26763 0.214447 8.47437C0.35422 8.6811 0.552689 8.84129 0.784271 8.93427L4.46426 10.3843C4.62246 10.4471 4.76614 10.5416 4.88651 10.662C5.00687 10.7824 5.10141 10.9261 5.16428 11.0843L6.61426 14.7643C6.70724 14.9959 6.86742 15.1943 7.07416 15.334C7.28089 15.4738 7.52471 15.5485 7.77426 15.5485C8.02381 15.5485 8.26766 15.4738 8.4744 15.334C8.68113 15.1943 8.84129 14.9959 8.93427 14.7643L10.3843 11.0843C10.4471 10.9261 10.5416 10.7824 10.662 10.662C10.7824 10.5416 10.9261 10.4471 11.0843 10.3843L14.7643 8.93427C14.9958 8.84129 15.1943 8.6811 15.3341 8.47437C15.4738 8.26763 15.5486 8.02384 15.5486 7.77429C15.5486 7.52474 15.4738 7.28089 15.3341 7.07416C15.1943 6.86742 14.9958 6.70724 14.7643 6.61426L11.0843 5.16425C10.9261 5.10138 10.7824 5.0069 10.662 4.88654C10.5416 4.76617 10.4471 4.62243 10.3843 4.46423Z" transform="translate(297.914 451.773)" fill="#8090E4"/>
<path d="M3.96007 1.70007L3.41006 0.300049C3.37422 0.211395 3.31271 0.135494 3.23343 0.0820312C3.15414 0.0285681 3.0607 0 2.96507 0C2.86945 0 2.776 0.0285681 2.69672 0.0820312C2.61743 0.135494 2.55591 0.211395 2.52007 0.300049L1.97008 1.70007C1.94594 1.76116 1.90951 1.81666 1.86307 1.8631C1.81663 1.90954 1.76116 1.94595 1.70007 1.97009L0.300064 2.52008C0.21141 2.55593 0.135494 2.61743 0.0820312 2.69672C0.0285681 2.776 0 2.86946 0 2.96509C0 3.06071 0.0285681 3.15417 0.0820312 3.23346C0.135494 3.31274 0.21141 3.37425 0.300064 3.4101L1.70007 3.96008C1.76116 3.98422 1.81663 4.02064 1.86307 4.06708C1.90951 4.11352 1.94594 4.16902 1.97008 4.2301L2.52007 5.63007C2.55591 5.71872 2.61743 5.79468 2.69672 5.84814C2.776 5.90161 2.86945 5.93011 2.96507 5.93011C3.0607 5.93011 3.15414 5.90161 3.23343 5.84814C3.31271 5.79468 3.37422 5.71872 3.41006 5.63007L3.96007 4.2301C3.98421 4.16902 4.02062 4.11352 4.06706 4.06708C4.1135 4.02064 4.16899 3.98422 4.23007 3.96008L5.63007 3.4101C5.71872 3.37425 5.79465 3.31274 5.84811 3.23346C5.90158 3.15417 5.93015 3.06071 5.93015 2.96509C5.93015 2.86946 5.90158 2.776 5.84811 2.69672C5.79465 2.61743 5.71872 2.55593 5.63007 2.52008L4.23007 1.97009C4.16899 1.94595 4.1135 1.90954 4.06706 1.8631C4.02062 1.81666 3.98421 1.76116 3.96007 1.70007Z" transform="translate(81.9453 524.066)" fill="#8090E4"/>
</svg>
