<svg width="833" height="560" viewBox="0 0 833 560" fill="none" xmlns="http://www.w3.org/2000/svg">
<path d="M2.35627 18.7146C2.35627 18.7146 -10.2793 41.8191 22.9704 43H492.401C492.401 43 514.73 42.4353 505.958 33.4245C487.798 -4.41547 428.014 9.37021 428.014 9.37021L352.002 0H275.665L157.413 3.82513" transform="translate(199 517)" fill="#0A0C3A"/>
<path d="M34.0209 0L0 65.3501L13.9768 80.7979L47.799 91.0963L114.902 96.2455H215.375H348.66L475.787 90.3555L487.543 67.5544L475.047 39.5859L456.501 13.0989H31.6192" transform="translate(207.887 387.789)" fill="#C93300"/>
<path d="M0 0L53.5956 94.5472V171.515L45.3613 193.449L0 73.9864V0Z" transform="translate(664.391 339.061)" fill="#FF5A00"/>
<path d="M0 0L53.5956 94.5472V171.515L45.3613 193.449L0 73.9864V0Z" transform="translate(664.391 339.061)" fill="#FF9100"/>
<path d="M0 0L53.5956 94.5653V171.533L43.6096 188.823L0 74.0045V0Z" transform="translate(664.391 341.59)" fill="#FF5A00"/>
<path d="M53.5775 0L0 94.5472V171.515L8.23435 193.449L53.5775 73.9864V0Z" transform="translate(188.324 339.061)" fill="#FF7800"/>
<path d="M53.5775 0L0 94.5472V167.757L8.23435 189.691L53.5775 70.2284V0Z" transform="translate(188.324 342.818)" fill="#FF5A00"/>
<path d="M400.089 258.69H22.3736C16.6696 258.69 11.1993 256.423 7.16597 252.388C3.13266 248.352 0.866767 242.879 0.866767 237.172L0 21.5184C0 15.8113 2.26589 10.3381 6.29921 6.30259C10.3325 2.26711 15.8029 0 21.5068 0H399.222C404.926 0 410.396 2.26711 414.429 6.30259C418.463 10.3381 420.729 15.8113 420.729 21.5184L421.595 237.172C421.595 242.879 419.33 248.352 415.296 252.388C411.263 256.423 405.793 258.69 400.089 258.69Z" transform="translate(242.789 93)" fill="#C93300"/>
<path d="M365.183 21.8255C365.178 16.0385 362.878 10.4899 358.788 6.39784C354.699 2.30579 349.153 0.00478464 343.369 0H21.8138C16.0299 0.00478464 10.4842 2.30579 6.39438 6.39784C2.30453 10.4899 0.00478208 16.0385 0 21.8255L0.740349 205.409C0.745131 211.196 3.04491 216.745 7.13475 220.837C11.2246 224.929 16.7703 227.23 22.5542 227.235H344.128C349.911 227.23 355.457 224.929 359.547 220.837C363.637 216.745 365.937 211.196 365.941 205.409L365.183 21.8255Z" transform="translate(270.617 120.498)" fill="#EA5100"/>
<path d="M340.642 220.225H19.069C14.2128 220.225 9.55539 218.295 6.12148 214.859C2.68758 211.423 0.758424 206.763 0.758424 201.904L0 18.3205C0 13.4616 1.92915 8.80169 5.36306 5.36594C8.79696 1.93019 13.4543 0 18.3106 0H339.902C344.758 0 349.416 1.93019 352.85 5.36594C356.283 8.80169 358.213 13.4616 358.213 18.3205L358.953 201.922C358.948 206.778 357.017 211.433 353.583 214.865C350.15 218.297 345.496 220.225 340.642 220.225Z" transform="translate(274.102 124.004)" fill="#960E00"/>
<path d="M0 0.896742V42.7447H29.4486V33.1795H10.6823V26.3642H27.3699V16.8588H10.6823V10.462H29.1021V0.896742H0Z" transform="translate(421.637 165.277)" fill="#C93300"/>
<path d="M33.2235 22.4186C33.2235 37.3643 44.2523 43.6415 55.3388 43.6415C59.6117 43.6415 63.596 42.7447 67.1182 41.011V30.2501C64.8085 32.5816 60.9975 33.8969 56.8401 33.8969C50.5462 33.8969 44.1945 30.549 44.1945 22.4186C44.1945 13.3316 50.5462 9.68482 56.9556 9.68482C60.6511 9.68482 64.3466 10.9403 66.8295 13.0924V2.63044C63.3072 0.896742 59.2075 0 55.1078 0C44.1945 0 33.2235 6.63589 33.2235 22.4186Z" transform="translate(421.637 165.277)" fill="#C93300"/>
<path d="M73.0237 0.896742V42.7447H83.7061V0.896742H73.0237Z" transform="translate(421.637 165.277)" fill="#C93300"/>
<path d="M102.032 42.7447V29.1142H106.652L116.295 42.7447H128.363L117.219 27.5599C121.665 25.7066 124.956 21.9403 124.956 15.0055C124.956 3.94567 116.584 0.896742 108.384 0.896742H91.3502V42.7447H102.032ZM102.032 10.462H108.846C111.906 10.462 113.985 12.0761 113.985 15.3044C113.985 18.5327 111.906 20.1468 108.846 20.1468H102.032V10.462Z" transform="translate(421.637 165.277)" fill="#C93300"/>
<path d="M8.06414 31.2761L15.0529 25.5306L8.60174 20.5265C8.24334 20.3411 7.88494 20.3411 7.52654 20.5265L1.07534 25.5306L8.06414 31.2761Z" transform="translate(352 159)" fill="#C93300"/>
<path d="M7.168 32.759L0 26.8281V48.8835C0 49.2541 0.1792 49.4395 0.3584 49.6248L7.168 54.9997V32.759Z" transform="translate(352 159)" fill="#C93300"/>
<path d="M8.95965 32.7587V54.9994L15.7692 49.8099C15.9484 49.6245 16.1276 49.4392 16.1276 49.0685V27.0132L8.95965 32.7587Z" transform="translate(352 159)" fill="#C93300"/>
<path d="M25.984 10.8887L32.9728 5.14316L26.5216 0.139004C26.1632 -0.0463347 25.8048 -0.0463347 25.4464 0.139004L18.9952 5.14316L25.984 10.8887Z" transform="translate(352 159)" fill="#C93300"/>
<path d="M25.0879 12.3715L17.9199 6.44066V48.8833C17.9199 49.254 18.0991 49.4393 18.2783 49.6247L25.0879 54.8142V12.3715Z" transform="translate(352 159)" fill="#C93300"/>
<path d="M26.8795 12.3718V54.9998L33.6891 49.8103C33.8683 49.625 34.0475 49.4396 34.0475 49.069V6.62632L26.8795 12.3718Z" transform="translate(352 159)" fill="#C93300"/>
<path d="M43.0083 23.4924L35.8403 17.7469V49.0691C35.8403 49.4398 36.0195 49.6252 36.1987 49.8105L43.0083 55V23.4924Z" transform="translate(352 159)" fill="#C93300"/>
<path d="M43.9044 22.0092L50.8932 16.2637L44.442 11.2595C44.0836 11.0742 43.7252 11.0742 43.3668 11.2595L36.9156 16.2637L43.9044 22.0092Z" transform="translate(352 159)" fill="#C93300"/>
<path d="M44.7999 23.4924V55L51.6095 49.8105C51.7887 49.6252 51.9679 49.4398 51.9679 49.0691V17.7469L44.7999 23.4924Z" transform="translate(352 159)" fill="#C93300"/>
<path d="M399.222 4.66142C403.69 4.67098 407.973 6.45251 411.131 9.61564C414.289 12.7788 416.065 17.0655 416.07 21.5365L416.937 237.172C416.932 241.641 415.155 245.926 411.997 249.086C408.838 252.247 404.555 254.024 400.089 254.029H22.3736C17.9051 254.019 13.6225 252.238 10.4645 249.075C7.30644 245.912 5.53045 241.625 5.52568 237.154L4.65892 21.5184C4.6637 17.0491 6.44026 12.7642 9.59883 9.60398C12.7574 6.44372 17.04 4.6662 21.5068 4.66142H399.222ZM399.222 0H21.5068C15.8029 0 10.3325 2.26711 6.29921 6.30259C2.26589 10.3381 0 15.8113 0 21.5184L0.866767 237.172C0.866767 242.879 3.13266 248.352 7.16597 252.388C11.1993 256.423 16.6696 258.69 22.3736 258.69H400.089C405.793 258.69 411.263 256.423 415.296 252.388C419.33 248.352 421.595 242.879 421.595 237.172L420.729 21.5184C420.729 15.8113 418.463 10.3381 414.429 6.30259C410.396 2.26711 404.926 0 399.222 0Z" transform="translate(242.789 93)" fill="#760B00"/>
<path d="M422.48 0H0V73.9864H422.48V0Z" transform="translate(241.922 339.061)" fill="#FF8E00"/>
<path d="M422.48 0H0V73.9864H422.48V0Z" transform="translate(241.922 339.061)" fill="#FFC300"/>
<path d="M422.48 0H0V71.4569H422.48V0Z" transform="translate(241.922 341.59)" fill="#FF8E00"/>
<path d="M43.6457 0H3.79215C1.69781 0 0 1.69867 0 3.79413V5.99837C0 8.09383 1.69781 9.79255 3.79215 9.79255H43.6457C45.74 9.79255 47.4378 8.09383 47.4378 5.99837V3.79413C47.4378 1.69867 45.74 0 43.6457 0Z" transform="translate(274.121 334.166)" fill="#FFE555"/>
<path d="M43.6457 0H3.79215C1.69781 0 0 1.69867 0 3.79413V5.99837C0 8.09383 1.69781 9.79255 3.79215 9.79255H43.6457C45.74 9.79255 47.4378 8.09383 47.4378 5.99837V3.79413C47.4378 1.69867 45.74 0 43.6457 0Z" transform="translate(582.062 334.166)" fill="#FFE555"/>
<path d="M450.235 8.33846C463.453 32.4224 471.435 70.6532 484.653 97.628C323.108 19.7932 161.563 152.987 0 75.0617C11.0514 59.7947 16.7035 44.7083 27.7548 27.3997C165.03 68.3225 312.96 -27.923 450.235 8.33846Z" transform="translate(214.148 375.188)" fill="#D93900"/>
<path d="M6.39248 0H523.261C524.961 0 526.592 0.675743 527.794 1.87859C528.996 3.08145 529.671 4.71291 529.671 6.414V78.0516C529.671 86.6049 526.275 94.808 520.23 100.856C514.186 106.904 505.987 110.302 497.438 110.302H32.2332C28.0003 110.302 23.8088 109.468 19.8981 107.847C15.9874 106.226 12.434 103.851 9.44089 100.856C6.44776 97.8614 4.0735 94.3062 2.45363 90.3933C0.833761 86.4805 0 82.2868 0 78.0516V6.414C-6.73296e-06 4.71603 0.67289 3.08732 1.87119 1.88499C3.0695 0.682657 4.69543 0.00478299 6.39248 0Z" transform="translate(188.324 433.607)" fill="#FFBB00"/>
<path d="M153.871 0H110.153L0 110.212H43.7179L153.871 0Z" transform="translate(383.281 433.607)" fill="#FFA000"/>
<path d="M0 110.212H98.5956L208.748 0H110.207L0 110.212Z" transform="translate(221.117 433.664)" fill="#FFA000"/>
<path d="M151.758 24.4453V0H110.243L0 110.302H65.9471L151.758 24.4453Z" transform="translate(566.227 433.607)" fill="#FFA000"/>
<path d="M117.592 0H110.243L0 110.302H7.34954L117.592 0Z" transform="translate(495.387 433.607)" fill="#FFA000"/>
<path d="M11.1597 0C7.40631 0.00370772 3.66442 0.415699 0 1.22863V27.2097C0 36.0506 3.51014 44.5293 9.75823 50.7808C16.0063 57.0322 24.4805 60.5442 33.3167 60.5442H62.0285C63.3252 53.1206 62.982 45.503 61.0232 38.2261C59.0644 30.9493 55.5374 24.1897 50.6898 18.4218C45.8422 12.6539 39.7915 8.01753 32.9625 4.83822C26.1336 1.6589 18.6918 0.0136893 11.1597 0.0180851V0Z" transform="translate(188.312 483.367)" fill="#FFE555"/>
<path d="M11.1597 0C7.40631 0.00370772 3.66442 0.415699 0 1.22863V1.69835C8.17681 0.0260145 16.6374 0.367729 24.6529 2.69402C32.6684 5.02032 39.9984 9.26145 46.0116 15.0521C52.0248 20.8427 56.5408 28.0092 59.1706 35.9342C61.8004 43.8592 62.4652 52.305 61.1076 60.5442H62.0105C63.3071 53.1206 62.964 45.503 61.0052 38.2261C59.0464 30.9493 55.5194 24.1897 50.6718 18.4218C45.8242 12.6539 39.7735 8.01753 32.9445 4.83822C26.1155 1.6589 18.6737 0.0136893 11.1417 0.0180851L11.1597 0Z" transform="translate(188.312 483.367)" fill="#FFFF8C"/>
<path d="M51.6393 0C55.3927 0.00370772 59.1346 0.415699 62.799 1.22863V27.2097C62.799 36.0506 59.2889 44.5293 53.0408 50.7808C46.7927 57.0322 38.3185 60.5442 29.4824 60.5442H0.770466C-0.52617 53.1206 -0.183011 45.503 1.7758 38.2261C3.73461 30.9493 7.26162 24.1897 12.1092 18.4218C16.9568 12.6539 23.0075 8.01753 29.8365 4.83822C36.6655 1.6589 44.1072 0.0136893 51.6393 0.0180851V0Z" transform="translate(655.184 483.367)" fill="#FFE555"/>
<path d="M0.664648 52.3379C0.652967 44.6596 2.35406 37.0756 5.64388 30.1386C8.93369 23.2017 13.7293 17.0867 19.6811 12.2397C25.6328 7.39263 32.5907 3.93562 40.0473 2.12072C47.504 0.305812 55.2715 0.178799 62.7835 1.74887V1.2249C54.5026 -0.612613 45.8967 -0.379689 37.7272 1.90309C29.5577 4.18587 22.0764 8.4481 15.9454 14.3127C9.81435 20.1773 5.22249 27.4635 2.57612 35.5265C-0.0702434 43.5896 -0.689552 52.1809 0.77299 60.5405H1.35085C0.904328 57.8289 0.674858 55.086 0.664648 52.3379Z" transform="translate(655.199 483.354)" fill="#FFFF8C"/>
<path d="M529.671 0H0V4.13747H529.671V0Z" transform="translate(188.324 433.607)" fill="#FFE53C"/>
<path d="M125.249 250.632C194.422 250.632 250.498 194.526 250.498 125.316C250.498 56.1059 194.422 0 125.249 0C56.0758 0 0 56.1059 0 125.316C0 194.526 56.0758 250.632 125.249 250.632Z" transform="translate(326.418 247.097)" fill="#FFCC18"/>
<path d="M85.7204 147.304L78.8404 138.379L75.0482 130.592L53.9206 125.37L48.1782 120.131L36.9824 119.625L32.7568 116.571L36.3684 113.645L31.5651 114.656L27.3395 118.414L23.7279 121.685L15.9812 122.245L7.5843 119.715L4.42418 104.629L8.74 96.2094L5.70627 88.6211L4.67699 88.8379C2.36824 96.4988 0.802006 104.364 0 112.326C0.675778 112.945 1.19026 113.721 1.4988 114.584L6.30218 122.172L16.0353 131.044L11.2139 145.498L9.0289 155.561C10.1021 161.211 12.6357 166.48 16.3774 170.845C20.1191 175.21 24.9383 178.518 30.3552 180.44L32.161 188.661C32.5496 189.839 33.2854 190.871 34.2717 191.623C35.258 192.374 36.4485 192.809 37.6866 192.871L36.856 212.745C36.8907 213.32 36.957 213.893 37.0546 214.461C44.922 222.169 53.7678 228.808 63.3648 234.209L63.5635 232.547L74.7954 223.025L83.2826 198.688L96.2481 190.594C99.4424 184.429 101.073 177.573 100.997 170.629C100.997 170.629 108.834 163.619 106.956 154.694L85.7204 147.304ZM164.145 5.99842L152.968 11.0573L154.593 26.0714L160.263 23.8672L165.68 27.3903L173.626 26.0714L172.885 34.4547L167.468 46.3251L156.2 52.2693C156.2 52.2693 161.726 63.2724 167.558 62.0438C173.391 60.8152 178.194 54.8168 178.194 54.8168L178.465 47.5898L186.393 51.2033L191.25 48.7461L194.266 54.5639L199.304 56.3706L207.249 55.0517L210.446 58.3219L218.174 62.7846L221.19 68.6023L210.698 69.7406L197.859 63.1278L170.773 65.585L157.482 75.5402L140.67 90.8976L149.338 106.616L145.04 123.636C145.04 123.636 162.791 141.703 180.199 137.729C197.606 133.754 198.871 136.301 198.871 136.301L204.288 133.356L205.588 139.535L205.751 155.615L211.421 167.305L207.34 178.543L215.086 198.417L209.868 212.763L211.674 214.859C227.136 199.886 238.48 181.178 244.611 160.541C250.742 139.904 251.454 118.034 246.677 97.0411C241.9 76.0487 231.796 56.6425 217.339 40.6952C202.883 24.7479 184.562 12.798 164.145 5.99842ZM8.32465 78.5033L21.7777 83.0563L27.7187 85.7483L32.2693 80.1475L27.5743 62.8749L33.6056 54.0941L43.429 39.4956L85.2328 30.6967L93.4672 22.1688L101.521 16.1885L112.735 11.6897L115.335 0C91.9408 1.74686 69.5067 10.0315 50.5877 23.9105C31.6687 37.7896 17.0252 56.7052 8.32465 78.5033Z" transform="translate(326.996 247.495)" fill="#FFB318"/>
<path d="M63.5454 143.89L74.7774 134.368L83.2645 110.031L96.23 101.937C99.4244 95.7719 101.055 88.9159 100.979 81.9722C100.979 81.9722 108.816 74.962 106.938 66.0367L85.7204 58.6832L78.8404 49.7579L75.0482 41.9708L53.9206 36.7493L48.1782 31.5097L36.9824 31.0038L32.7568 27.9504L36.3684 25.0235L31.5651 26.0353L27.3395 29.7933L23.7279 33.0635L15.9812 33.6236L7.5843 31.0942L4.42418 16.0078L8.74 7.58832L5.70627 0L4.67699 0.216801C2.36824 7.87773 0.802006 15.7433 0 23.7045C0.675778 24.3242 1.19026 25.0994 1.4988 25.963L6.30218 33.5513L16.0353 42.4225L11.2139 56.8764L9.0289 66.9401C10.1021 72.5894 12.6357 77.859 16.3774 82.2239C20.1191 86.5889 24.9383 89.897 30.3552 91.819L32.161 100.04C32.5496 101.218 33.2854 102.25 34.2717 103.001C35.258 103.753 36.4485 104.188 37.6866 104.249L36.856 124.124C36.856 124.124 36.856 124.648 37.0004 125.388C44.8935 133.148 53.7765 139.831 63.419 145.263L63.5454 143.89Z" transform="translate(326.996 336.496)" fill="#FFEF54"/>
<path d="M109.159 118.613C109.159 118.035 109.159 117.475 109.159 116.897C109.159 115.668 109.159 114.421 109.069 113.283C108.979 112.145 108.925 110.591 108.816 109.254C108.816 108.929 108.816 108.598 108.816 108.26C106.723 83.85 97.5286 60.5878 82.3683 41.3479C67.2081 22.108 46.7464 7.73343 23.5113 0L12.3877 5.05888L14.0128 20.073L19.683 17.8687L25.1004 21.3919L33.0458 20.073L32.3054 28.4563L26.8881 40.3267L15.62 46.2708C15.62 46.2708 21.1457 57.274 26.9784 56.0454C32.8111 54.8168 37.6144 48.8184 37.6144 48.8184L37.8853 41.5914L45.8127 45.2049L50.6702 42.7477L53.6858 48.5654L58.724 50.3722L66.6694 49.0532L69.8657 52.3235L77.5944 56.7861L80.61 62.6039L70.1184 63.7421L57.189 57.1836L30.1023 59.6408L16.8118 69.596L0 84.9534L8.66775 100.672L4.36998 117.692C4.36998 117.692 22.1208 135.759 39.5285 131.784C56.9362 127.809 58.2003 130.357 58.2003 130.357L63.6176 127.412L64.9178 133.591L65.0803 149.671L70.7505 161.361L66.6694 172.599L74.4162 192.473L69.1975 206.819L70.7685 208.625C82.8945 196.98 92.5453 183.005 99.1422 167.538C105.739 152.071 109.146 135.43 109.159 118.613Z" transform="translate(467.742 253.943)" fill="#FFEF54"/>
<path d="M0 78.4672L13.4531 83.0202L19.3941 85.7122L23.9447 80.1113L19.2496 62.8388L25.2809 54.058L35.1044 39.4594L76.8721 30.6967L85.1064 22.1688L93.1602 16.1885L104.374 11.6897L106.974 0C83.5904 1.7503 61.1668 10.0326 42.2552 23.9046C23.3436 37.7765 8.70325 56.681 0 78.4672Z" transform="translate(335.32 247.908)" fill="#FFEF54"/>
<path d="M108.961 111.115C108.961 109.76 108.78 108.405 108.654 107.068C108.594 106.381 108.521 105.695 108.437 105.008C108.293 103.689 108.13 102.37 107.931 101.052C107.931 100.437 107.769 99.8229 107.661 99.2448C107.384 97.4621 107.071 95.6975 106.722 93.951L106.613 93.3909C106.252 91.5842 105.837 89.8858 105.403 88.1513C105.241 87.5009 105.06 86.8685 104.88 86.2181C104.555 85.0437 104.23 83.8513 103.887 82.6046C103.67 81.8819 103.447 81.1652 103.218 80.4546C102.857 79.3524 102.478 78.2503 102.099 77.1482C101.864 76.4616 101.629 75.7751 101.358 75.0885C100.871 73.7696 100.347 72.4687 99.8054 71.1678C99.4804 70.3849 99.1554 69.614 98.8304 68.8552C98.2886 67.6086 97.7288 66.38 97.1509 65.1514C96.7898 64.3926 96.4106 63.6337 96.0314 62.8749C95.6522 62.116 95.1646 61.0681 94.6951 60.2731C94.2256 59.4782 93.8283 58.6471 93.3769 57.8521C92.9254 57.0571 92.4921 56.2983 92.0406 55.5214C91.5892 54.7445 91.0835 53.8773 90.5779 53.0642C90.0723 52.2512 89.6931 51.6911 89.2597 51.0045C88.1883 49.3423 87.0807 47.7102 85.9371 46.1082L84.8717 44.6087C84.2035 43.7053 83.4992 42.8019 82.813 41.9166L81.6393 40.417C80.917 39.5136 80.1767 38.6223 79.4182 37.743L78.3347 36.4783C77.5221 35.5388 76.6915 34.6715 75.8428 33.6959L75.5177 33.3526C72.4481 30.0679 69.2051 26.9499 65.8026 24.0117L65.1525 23.4516C64.0811 22.5362 62.9916 21.6388 61.8841 20.7595L61.3243 20.3259C56.399 16.4423 51.1898 12.9334 45.7404 9.82872H45.632C44.2596 9.0458 42.8692 8.28695 41.4607 7.5522H41.3523C35.5869 4.5719 29.5976 2.04683 23.439 0L12.2974 5.00468L13.9225 20.0188L19.5927 17.8145L25.0101 21.3377L32.9555 20.0188L32.2151 28.4021L26.7978 40.2725L15.5297 46.2166C15.5297 46.2166 21.0554 57.2197 26.888 55.9912C32.7207 54.7626 37.5241 48.7642 37.5241 48.7642L37.795 41.5372L45.7224 45.1507L50.5799 42.6935L53.5955 48.5112L58.6337 50.318L66.5791 48.999L69.7753 52.2693L77.504 56.7319L80.5197 62.5497L70.0281 63.6879L57.189 57.0752L30.1023 59.5324L16.8118 69.4876L0 84.845L8.66772 100.564L4.36996 117.583C4.36996 117.583 22.1208 135.651 39.5285 131.676C56.9362 127.701 58.2003 130.249 58.2003 130.249L63.6176 127.304L64.9178 133.483L65.0803 149.563L70.7504 161.252L66.6694 172.49L74.4162 192.365L69.1975 206.71L71.0033 208.806C76.8745 203.113 82.1784 196.863 86.84 190.142C87.9836 188.504 89.0851 186.83 90.1445 185.12L90.2529 184.957C91.2762 183.307 92.2633 181.627 93.2144 179.916L93.3949 179.591C94.3159 177.947 95.2007 176.267 96.0314 174.568L96.2842 174.08C97.0787 172.454 97.8372 170.792 98.5775 169.13L98.9025 168.425C99.5887 166.817 100.239 165.191 100.871 163.547L101.232 162.607C101.81 161.036 102.352 159.446 102.875 157.838C103.002 157.44 103.146 157.061 103.273 156.681C103.76 155.146 104.193 153.61 104.609 152.056C104.735 151.568 104.898 151.098 105.024 150.629C105.403 149.147 105.746 147.648 106.09 146.13C106.216 145.57 106.36 145.028 106.469 144.45C106.776 142.986 107.029 141.523 107.263 140.041C107.372 139.409 107.498 138.795 107.588 138.234C107.805 136.789 107.986 135.307 108.166 133.844C108.166 133.176 108.347 132.525 108.419 131.875C108.582 130.339 108.672 128.785 108.78 127.231C108.78 126.635 108.889 126.039 108.925 125.425C109.033 123.268 109.087 121.094 109.087 118.902C109.087 116.933 109.087 114.963 108.943 113.012C109.051 112.344 109.015 111.784 108.961 111.115Z" transform="translate(467.672 253.547)" fill="#FFA818"/>
<path d="M106.794 0.0542003C86.1434 1.58781 66.2016 8.25109 48.7741 19.4406C40.3004 24.8782 32.5098 31.3141 25.5698 38.6102C14.5892 50.1605 5.91092 63.7 0 78.5033L13.4531 83.0563L19.3941 85.7484L23.9446 80.1474L19.2496 62.8749L25.2809 54.0941L35.1043 39.4956L76.9082 30.6967L85.1425 22.1688L93.1963 16.1885L104.41 11.6896L107.011 0L106.794 0.0542003Z" transform="translate(335.484 247.421)" fill="#FFA818"/>
<path d="M63.437 143.89L74.669 134.368L83.1561 110.031L96.1217 101.937C99.316 95.7719 100.947 88.916 100.871 81.9723C100.871 81.9723 108.708 74.9621 106.83 66.0367L85.612 58.6833L78.732 49.7579L74.9399 41.9708L53.8122 36.7493L48.0699 31.5097L36.874 31.0038L32.6485 27.9504L36.26 25.0235L31.4567 26.0353L27.2311 29.7933L23.6196 33.0636L15.8728 33.6236L7.47593 31.0942L4.31581 16.0078L8.63163 7.58837L5.5979 0L4.56862 0.216856C3.437 3.9749 2.47991 7.80518 1.69741 11.7078C1.69741 11.8704 1.69741 12.051 1.69741 12.2136C1.35431 14.0204 1.02929 15.8271 0.758424 17.6339C0.758424 18.1579 0.632019 18.6818 0.559787 19.1877C0.361152 20.6873 0.144462 22.1869 0 23.7046C0.675778 24.3242 1.19023 25.0995 1.49877 25.963L6.30215 33.5514L16.0353 42.4225L11.2139 56.8765L9.0289 66.9401C10.1021 72.5895 12.6357 77.8589 16.3774 82.2239C20.119 86.5889 24.9383 89.8971 30.3552 91.819L32.1609 100.04C32.5495 101.218 33.2854 102.25 34.2717 103.002C35.2579 103.753 36.4485 104.188 37.6866 104.249L36.8559 124.124C36.8907 124.699 36.957 125.272 37.0546 125.84C38.9326 127.683 40.8708 129.49 42.8692 131.26L43.3206 131.64C47.4178 135.148 51.7366 138.389 56.25 141.342H56.3584C58.6457 142.836 60.9812 144.251 63.3648 145.588L63.437 143.89Z" transform="translate(327.102 336.115)" fill="#FFA818"/>
<path d="M125.249 1.5451e-06C158.353 -0.000420278 190.111 13.1138 213.578 36.4751C237.045 59.8365 250.313 91.5443 250.48 124.666C250.48 124.467 250.48 124.268 250.48 124.07C250.084 91.0966 236.715 59.6085 213.271 36.4319C189.827 13.2552 158.197 0.258046 125.24 0.258046C92.2823 0.258046 60.6528 13.2552 37.2088 36.4319C13.7648 59.6085 0.395725 91.0966 0 124.07C0 124.268 0 124.467 0 124.666C0.167087 91.5412 13.4372 59.8306 36.9084 36.4687C60.3795 13.1068 92.1417 -0.00519681 125.249 1.5451e-06Z" transform="translate(326.406 248.307)" fill="#FFEA51"/>
<g style="mix-blend-mode:multiply" opacity="0.23" transform="translate(329.199 397.852)">
<path d="M0 0.831089C5.17042 24.9828 17.3728 47.062 35.0682 64.2841C91.9778 83.9665 153.885 83.7053 210.626 63.5434C228.126 46.2223 240.124 24.117 245.117 0C166.908 39.9472 78.3347 40.2363 0 0.831089Z" fill="#D93900"/>
</g>
<g style="mix-blend-mode:multiply" opacity="0.43" transform="translate(326.441 321.389)">
<path d="M0.14455 57.6353C6.15619 56.1668 11.616 52.9923 15.8675 48.4934C20.1191 43.9946 22.9815 38.3628 24.1106 32.2752C25.2398 26.1876 24.5876 19.9033 22.2324 14.1776C19.8773 8.45205 15.9195 3.52889 10.8348 0C3.67183 16.0542 -0.0203541 33.4414 8.43927e-05 51.0227C0.0241615 53.2389 0.0723189 55.4431 0.14455 57.6353Z" fill="#FFA818"/>
</g>
<path d="M30.9872 62.0077C48.1009 62.0077 61.9744 48.1268 61.9744 31.0038C61.9744 13.8809 48.1009 0 30.9872 0C13.8734 0 0 13.8809 0 31.0038C0 48.1268 13.8734 62.0077 30.9872 62.0077Z" transform="translate(226.523 316.727)" fill="#FFCC18"/>
<path d="M39.3479 1.80675C39.2035 1.22859 39.059 0.632362 38.8784 0L0 38.8993C0.57785 39.08 1.1557 39.2065 1.80578 39.3691L39.3479 1.80675Z" transform="translate(248.18 338.32)" fill="#FFE223"/>
<path d="M5.9952 46.9575L46.9503 5.98034C45.976 3.85681 44.7645 1.85057 43.3387 0L0 43.362C1.85612 44.7834 3.86739 45.9896 5.9952 46.9575Z" transform="translate(238.805 329.014)" fill="#FFE223"/>
<path d="M0 33.5875C0.599489 40.4314 3.46571 46.8792 8.14406 51.9079L51.8801 8.14846C46.854 3.4676 40.4097 0.599811 33.5695 0L0 33.5875Z" transform="translate(226.672 316.871)" fill="#FFE223"/>
<path d="M30.9962 1.2723C39.163 1.27199 46.9994 4.49932 52.7995 10.2518C58.5996 16.0043 61.8939 23.8162 61.9654 31.987C61.9654 31.987 61.9654 31.8426 61.9654 31.7522C62.0651 27.619 61.3376 23.5075 59.8256 19.6597C58.3137 15.8119 56.0478 12.3056 53.1613 9.34699C50.2749 6.3884 46.8261 4.03734 43.018 2.43212C39.2099 0.826905 35.1194 0 30.9872 0C26.8549 0 22.7644 0.826905 18.9563 2.43212C15.1483 4.03734 11.6995 6.3884 8.81306 9.34699C5.9266 12.3056 3.66073 15.8119 2.14876 19.6597C0.636799 23.5075 -0.0907166 27.619 0.00902949 31.7522C0.00902949 31.7522 0.00902949 31.8967 0.00902949 31.987C0.0804851 23.813 3.37728 15.9984 9.18129 10.2455C14.9853 4.49247 22.8263 1.26722 30.9962 1.2723Z" transform="translate(226.516 315.926)" fill="#FFEF18"/>
<path d="M8.36515 6.444C8.36515 6.1014 8.48887 5.8159 8.7363 5.5875C8.98373 5.34007 9.27875 5.21635 9.62135 5.21635C9.96395 5.21635 10.2495 5.34007 10.4779 5.5875C10.7253 5.8159 10.849 6.1014 10.849 6.444V7.0721C12.4288 7.26243 13.9039 7.78585 15.2743 8.64235C15.8452 8.96592 16.1307 9.38465 16.1307 9.89855C16.1307 10.4124 15.969 10.8217 15.6454 11.1262C15.3409 11.4307 15.0078 11.583 14.6461 11.583C14.2845 11.583 13.961 11.4973 13.6755 11.326C12.6477 10.6979 11.6674 10.2792 10.7348 10.0698V15.5514C12.9046 16.1034 14.4748 16.8457 15.4455 17.7783C16.4353 18.6919 16.9302 19.9196 16.9302 21.4613C16.9302 22.984 16.3782 24.2497 15.2743 25.2584C14.1703 26.2482 12.6952 26.8287 10.849 27V28.713C10.849 29.0556 10.7253 29.3411 10.4779 29.5695C10.2495 29.8169 9.96395 29.9407 9.62135 29.9407C9.27875 29.9407 8.98373 29.8169 8.7363 29.5695C8.48887 29.3411 8.36515 29.0556 8.36515 28.713V26.9429C6.25245 26.7145 4.30153 25.9722 2.5124 24.716C1.9985 24.3924 1.74155 23.9737 1.74155 23.4598C1.74155 22.9459 1.89382 22.5367 2.19835 22.2321C2.50288 21.9276 2.855 21.7753 3.2547 21.7753C3.6544 21.7753 3.98748 21.88 4.25395 22.0894C5.66242 23.1172 7.07088 23.7548 8.47935 24.0022V18.3779C6.34762 17.8259 4.7964 17.1027 3.8257 16.2081C2.855 15.3135 2.36965 14.0954 2.36965 12.5537C2.36965 10.993 2.92162 9.72725 4.02555 8.75655C5.12948 7.76682 6.57602 7.19582 8.36515 7.04355V6.444ZM10.7348 24.1164C11.6484 24.0213 12.3431 23.7548 12.819 23.317C13.3138 22.8793 13.5613 22.3273 13.5613 21.6611C13.5613 20.995 13.3519 20.4525 12.9331 20.0338C12.5334 19.6151 11.8007 19.2439 10.7348 18.9203V24.1164ZM8.47935 9.89855C7.58478 9.97468 6.89958 10.2316 6.42375 10.6694C5.96695 11.1072 5.73855 11.6496 5.73855 12.2967C5.73855 12.9248 5.92888 13.4387 6.30955 13.8384C6.69022 14.2381 7.41348 14.6093 8.47935 14.9519V9.89855Z" transform="translate(249 323) scale(0.99 1)" fill="#FFF218"/>
<path d="M3.564 2.144C3.564 2.064 3.592 1.996 3.648 1.94C3.704 1.884 3.772 1.856 3.852 1.856C3.932 1.856 4 1.884 4.056 1.94C4.112 1.996 4.14 2.064 4.14 2.144V2.624C4.892 2.688 5.604 2.968 6.276 3.464C6.388 3.552 6.444 3.64 6.444 3.728C6.444 3.816 6.412 3.892 6.348 3.956C6.292 4.012 6.22 4.04 6.132 4.04C6.052 4.04 5.98 4.012 5.916 3.956C5.356 3.508 4.756 3.248 4.116 3.176V6.536C5.028 6.728 5.688 7.004 6.096 7.364C6.504 7.716 6.708 8.2 6.708 8.816C6.708 9.424 6.468 9.936 5.988 10.352C5.508 10.76 4.892 10.976 4.14 11V11.936C4.14 12.016 4.112 12.084 4.056 12.14C4 12.196 3.932 12.224 3.852 12.224C3.772 12.224 3.704 12.196 3.648 12.14C3.592 12.084 3.564 12.016 3.564 11.936V10.988C2.564 10.908 1.664 10.52 0.864 9.824C0.776 9.752 0.732 9.672 0.732 9.584C0.732 9.496 0.76 9.424 0.816 9.368C0.88 9.304 0.952 9.272 1.032 9.272C1.12 9.272 1.192 9.3 1.248 9.356C1.936 9.996 2.716 10.36 3.588 10.448V7.028C2.692 6.828 2.044 6.552 1.644 6.2C1.244 5.848 1.044 5.372 1.044 4.772C1.044 4.164 1.28 3.656 1.752 3.248C2.232 2.832 2.836 2.616 3.564 2.6V2.144ZM4.116 10.46C4.708 10.452 5.184 10.296 5.544 9.992C5.912 9.68 6.096 9.3 6.096 8.852C6.096 8.404 5.952 8.052 5.664 7.796C5.384 7.532 4.868 7.316 4.116 7.148V10.46ZM3.588 3.14C3.012 3.148 2.544 3.304 2.184 3.608C1.832 3.912 1.656 4.284 1.656 4.724C1.656 5.156 1.792 5.504 2.064 5.768C2.336 6.024 2.844 6.24 3.588 6.416V3.14Z" transform="translate(240.969 342.801)" fill="#FF9E18"/>
<path d="M30.9872 62.0077C48.1009 62.0077 61.9744 48.1268 61.9744 31.0038C61.9744 13.8809 48.1009 0 30.9872 0C13.8734 0 0 13.8809 0 31.0038C0 48.1268 13.8734 62.0077 30.9872 62.0077Z" transform="translate(257.949 387.77)" fill="#FFCC18"/>
<path d="M39.4021 1.80675C39.2577 1.22859 39.1132 0.632362 38.9326 0L0 38.9535C0.57785 39.1342 1.1557 39.2607 1.80578 39.4233L39.4021 1.80675Z" transform="translate(279.523 409.361)" fill="#FFE223"/>
<path d="M5.9952 46.9574L46.9503 5.98034C45.976 3.85681 44.7645 1.85057 43.3387 0L0 43.362C1.85612 44.7834 3.86739 45.9895 5.9952 46.9574Z" transform="translate(270.207 400.057)" fill="#FFE223"/>
<path d="M0 33.6056C0.599489 40.4495 3.46571 46.8972 8.14406 51.926L51.8801 8.14846C46.854 3.4676 40.4097 0.599811 33.5694 0L0 33.6056Z" transform="translate(258.09 387.896)" fill="#FFE223"/>
<path d="M30.9962 1.27236C39.163 1.27204 46.9994 4.49938 52.7995 10.2519C58.5996 16.0043 61.8939 23.8162 61.9653 31.9871C61.9653 31.9871 61.9653 31.8426 61.9653 31.7522C62.0651 27.619 61.3376 23.5075 59.8256 19.6597C58.3136 15.8119 56.0478 12.3056 53.1613 9.34704C50.2748 6.38846 46.8261 4.03739 43.018 2.43218C39.2099 0.82696 35.1194 0 30.9872 0C26.8549 0 22.7644 0.82696 18.9563 2.43218C15.1482 4.03739 11.6995 6.38846 8.81306 9.34704C5.9266 12.3056 3.66073 15.8119 2.14876 19.6597C0.636799 23.5075 -0.0907166 27.619 0.00902949 31.7522C0.00902949 31.7522 0.00902949 31.8968 0.00902949 31.9871C0.0804851 23.8131 3.37728 15.9985 9.18129 10.2455C14.9853 4.49253 22.8263 1.26728 30.9962 1.27236Z" transform="translate(257.934 386.969)" fill="#FFEF18"/>
<path d="M8.36515 6.444C8.36515 6.1014 8.48887 5.8159 8.7363 5.5875C8.98373 5.34007 9.27875 5.21635 9.62135 5.21635C9.96395 5.21635 10.2495 5.34007 10.4779 5.5875C10.7253 5.8159 10.849 6.1014 10.849 6.444V7.0721C12.4288 7.26243 13.9039 7.78585 15.2743 8.64235C15.8452 8.96592 16.1307 9.38465 16.1307 9.89855C16.1307 10.4124 15.969 10.8217 15.6454 11.1262C15.3409 11.4307 15.0078 11.583 14.6461 11.583C14.2845 11.583 13.961 11.4973 13.6755 11.326C12.6477 10.6979 11.6674 10.2792 10.7348 10.0698V15.5514C12.9046 16.1034 14.4748 16.8457 15.4455 17.7783C16.4353 18.6919 16.9302 19.9196 16.9302 21.4613C16.9302 22.984 16.3782 24.2497 15.2743 25.2584C14.1703 26.2482 12.6952 26.8287 10.849 27V28.713C10.849 29.0556 10.7253 29.3411 10.4779 29.5695C10.2495 29.8169 9.96395 29.9407 9.62135 29.9407C9.27875 29.9407 8.98373 29.8169 8.7363 29.5695C8.48887 29.3411 8.36515 29.0556 8.36515 28.713V26.9429C6.25245 26.7145 4.30153 25.9722 2.5124 24.716C1.9985 24.3924 1.74155 23.9737 1.74155 23.4598C1.74155 22.9459 1.89382 22.5367 2.19835 22.2321C2.50288 21.9276 2.855 21.7753 3.2547 21.7753C3.6544 21.7753 3.98748 21.88 4.25395 22.0894C5.66242 23.1172 7.07088 23.7548 8.47935 24.0022V18.3779C6.34762 17.8259 4.7964 17.1027 3.8257 16.2081C2.855 15.3135 2.36965 14.0954 2.36965 12.5537C2.36965 10.993 2.92162 9.72725 4.02555 8.75655C5.12948 7.76682 6.57602 7.19582 8.36515 7.04355V6.444ZM10.7348 24.1164C11.6484 24.0213 12.3431 23.7548 12.819 23.317C13.3138 22.8793 13.5613 22.3273 13.5613 21.6611C13.5613 20.995 13.3519 20.4525 12.9331 20.0338C12.5334 19.6151 11.8007 19.2439 10.7348 18.9203V24.1164ZM8.47935 9.89855C7.58478 9.97468 6.89958 10.2316 6.42375 10.6694C5.96695 11.1072 5.73855 11.6496 5.73855 12.2967C5.73855 12.9248 5.92888 13.4387 6.30955 13.8384C6.69022 14.2381 7.41348 14.6093 8.47935 14.9519V9.89855Z" transform="translate(281 402) scale(0.99 1)" fill="#FFF218"/>
<path d="M3.564 2.144C3.564 2.064 3.592 1.996 3.648 1.94C3.704 1.884 3.772 1.856 3.852 1.856C3.932 1.856 4 1.884 4.056 1.94C4.112 1.996 4.14 2.064 4.14 2.144V2.624C4.892 2.688 5.604 2.968 6.276 3.464C6.388 3.552 6.444 3.64 6.444 3.728C6.444 3.816 6.412 3.892 6.348 3.956C6.292 4.012 6.22 4.04 6.132 4.04C6.052 4.04 5.98 4.012 5.916 3.956C5.356 3.508 4.756 3.248 4.116 3.176V6.536C5.028 6.728 5.688 7.004 6.096 7.364C6.504 7.716 6.708 8.2 6.708 8.816C6.708 9.424 6.468 9.936 5.988 10.352C5.508 10.76 4.892 10.976 4.14 11V11.936C4.14 12.016 4.112 12.084 4.056 12.14C4 12.196 3.932 12.224 3.852 12.224C3.772 12.224 3.704 12.196 3.648 12.14C3.592 12.084 3.564 12.016 3.564 11.936V10.988C2.564 10.908 1.664 10.52 0.864 9.824C0.776 9.752 0.732 9.672 0.732 9.584C0.732 9.496 0.76 9.424 0.816 9.368C0.88 9.304 0.952 9.272 1.032 9.272C1.12 9.272 1.192 9.3 1.248 9.356C1.936 9.996 2.716 10.36 3.588 10.448V7.028C2.692 6.828 2.044 6.552 1.644 6.2C1.244 5.848 1.044 5.372 1.044 4.772C1.044 4.164 1.28 3.656 1.752 3.248C2.232 2.832 2.836 2.616 3.564 2.6V2.144ZM4.116 10.46C4.708 10.452 5.184 10.296 5.544 9.992C5.912 9.68 6.096 9.3 6.096 8.852C6.096 8.404 5.952 8.052 5.664 7.796C5.384 7.532 4.868 7.316 4.116 7.148V10.46ZM3.588 3.14C3.012 3.148 2.544 3.304 2.184 3.608C1.832 3.912 1.656 4.284 1.656 4.724C1.656 5.156 1.792 5.504 2.064 5.768C2.336 6.024 2.844 6.24 3.588 6.416V3.14Z" transform="translate(270 421)" fill="#FF9E18"/>
<g style="mix-blend-mode:multiply" opacity="0.23" transform="translate(257.926 418.756)">
<path d="M51.1758 23.4877L56.232 17.9229C56.9565 16.9158 57.6199 15.866 58.2184 14.7792C52.476 14.3275 24.4864 17.2364 7.57021e-07 0C-0.00113993 5.1593 1.28684 10.237 3.74677 14.7714C6.2067 19.3057 9.76053 23.1529 14.0851 25.963L19.3941 28.1311L38.0298 30.1727C42.8876 29.0407 47.3985 26.7468 51.1758 23.4877Z" fill="#D93900"/>
</g>
<path d="M21.7777 43.5788C33.8052 43.5788 43.5554 33.8234 43.5554 21.7894C43.5554 9.75544 33.8052 0 21.7777 0C9.75021 0 0 9.75544 0 21.7894C0 33.8234 9.75021 43.5788 21.7777 43.5788Z" transform="translate(307.078 326.016)" fill="#FFCC18"/>
<path d="M27.6826 1.22858C27.5743 0.813024 27.484 0.397485 27.3576 0L0 27.3542C0.397272 27.4806 0.812615 27.571 1.22794 27.6794L27.6826 1.22858Z" transform="translate(322.266 341.229)" fill="#FFE223"/>
<path d="M4.26164 33.0094L33.0638 4.19167C32.3877 2.70428 31.5457 1.29812 30.5538 0L0 30.4979C1.3201 31.4951 2.74995 32.3377 4.26164 33.0094Z" transform="translate(315.641 334.654)" fill="#FFE223"/>
<path d="M0 23.56C0.420528 28.3722 2.43519 32.906 5.72432 36.4421L36.4226 5.72737C32.8884 2.43647 28.357 0.420753 23.5474 0L0 23.56Z" transform="translate(307.156 326.16)" fill="#FFE223"/>
<path d="M21.7957 0.280044C27.5528 0.279973 33.0757 2.56074 37.1567 6.62363C41.2377 10.6865 43.5448 16.2009 43.5735 21.961C43.5735 21.961 43.5735 21.8526 43.5735 21.7984C43.5735 16.0171 41.2781 10.4726 37.1923 6.38461C33.1065 2.29661 27.5649 0 21.7867 0C16.0085 0 10.467 2.29661 6.38118 6.38461C2.29537 10.4726 0 16.0171 0 21.7984C0 21.7984 0 21.9068 0 21.961C0.0286557 16.1978 2.3382 10.6806 6.42312 6.61723C10.508 2.55383 16.0355 0.275194 21.7957 0.280044Z" transform="translate(307.043 326.043)" fill="#FFEF18"/>
<path d="M3.564 2.144C3.564 2.064 3.592 1.996 3.648 1.94C3.704 1.884 3.772 1.856 3.852 1.856C3.932 1.856 4 1.884 4.056 1.94C4.112 1.996 4.14 2.064 4.14 2.144V2.624C4.892 2.688 5.604 2.968 6.276 3.464C6.388 3.552 6.444 3.64 6.444 3.728C6.444 3.816 6.412 3.892 6.348 3.956C6.292 4.012 6.22 4.04 6.132 4.04C6.052 4.04 5.98 4.012 5.916 3.956C5.356 3.508 4.756 3.248 4.116 3.176V6.536C5.028 6.728 5.688 7.004 6.096 7.364C6.504 7.716 6.708 8.2 6.708 8.816C6.708 9.424 6.468 9.936 5.988 10.352C5.508 10.76 4.892 10.976 4.14 11V11.936C4.14 12.016 4.112 12.084 4.056 12.14C4 12.196 3.932 12.224 3.852 12.224C3.772 12.224 3.704 12.196 3.648 12.14C3.592 12.084 3.564 12.016 3.564 11.936V10.988C2.564 10.908 1.664 10.52 0.864 9.824C0.776 9.752 0.732 9.672 0.732 9.584C0.732 9.496 0.76 9.424 0.816 9.368C0.88 9.304 0.952 9.272 1.032 9.272C1.12 9.272 1.192 9.3 1.248 9.356C1.936 9.996 2.716 10.36 3.588 10.448V7.028C2.692 6.828 2.044 6.552 1.644 6.2C1.244 5.848 1.044 5.372 1.044 4.772C1.044 4.164 1.28 3.656 1.752 3.248C2.232 2.832 2.836 2.616 3.564 2.6V2.144ZM4.116 10.46C4.708 10.452 5.184 10.296 5.544 9.992C5.912 9.68 6.096 9.3 6.096 8.852C6.096 8.404 5.952 8.052 5.664 7.796C5.384 7.532 4.868 7.316 4.116 7.148V10.46ZM3.588 3.14C3.012 3.148 2.544 3.304 2.184 3.608C1.832 3.912 1.656 4.284 1.656 4.724C1.656 5.156 1.792 5.504 2.064 5.768C2.336 6.024 2.844 6.24 3.588 6.416V3.14Z" transform="translate(317.215 338.338) scale(0.99 1)" fill="#FFF218"/>
<path d="M5.87763 3.39498C5.87763 3.26305 5.92381 3.1509 6.01616 3.05855C6.10851 2.9662 6.22066 2.92002 6.35259 2.92002C6.48452 2.92002 6.59667 2.9662 6.68902 3.05855C6.78137 3.1509 6.82755 3.26305 6.82755 3.39498V4.18658C8.06772 4.29213 9.24193 4.75389 10.3502 5.57188C10.5349 5.71701 10.6272 5.86213 10.6272 6.00726C10.6272 6.15239 10.5745 6.27772 10.4689 6.38327C10.3766 6.47562 10.2578 6.5218 10.1127 6.5218C9.98076 6.5218 9.86202 6.47562 9.75647 6.38327C8.83294 5.64444 7.84344 5.21566 6.78797 5.09692V10.6381C8.29201 10.9548 9.38046 11.4099 10.0533 12.0036C10.7262 12.5841 11.0626 13.3823 11.0626 14.3982C11.0626 15.4009 10.6668 16.2453 9.87521 16.9313C9.08361 17.6042 8.06772 17.9604 6.82755 18V19.5436C6.82755 19.6756 6.78137 19.7877 6.68902 19.8801C6.59667 19.9724 6.48452 20.0186 6.35259 20.0186C6.22066 20.0186 6.10851 19.9724 6.01616 19.8801C5.92381 19.7877 5.87763 19.6756 5.87763 19.5436V17.9802C4.22846 17.8483 2.74421 17.2084 1.42488 16.0606C1.27975 15.9418 1.20719 15.8099 1.20719 15.6648C1.20719 15.5197 1.25337 15.4009 1.34572 15.3086C1.45127 15.203 1.57001 15.1502 1.70194 15.1502C1.84707 15.1502 1.96581 15.1964 2.05816 15.2888C3.19279 16.3442 4.47914 16.9445 5.91721 17.0897V11.4495C4.43956 11.1197 3.3709 10.6645 2.71123 10.084C2.05156 9.50349 1.72173 8.71849 1.72173 7.72899C1.72173 6.7263 2.11093 5.88852 2.88934 5.21566C3.68094 4.52961 4.67704 4.17339 5.87763 4.147V3.39498ZM6.78797 17.1094C7.76428 17.0963 8.54928 16.839 9.14298 16.3376C9.74987 15.8231 10.0533 15.1964 10.0533 14.4576C10.0533 13.7188 9.81584 13.1383 9.34088 12.7161C8.87911 12.2807 8.02814 11.9245 6.78797 11.6474V17.1094ZM5.91721 5.03755C4.96729 5.05074 4.19548 5.30801 3.60178 5.80936C3.02127 6.31071 2.73102 6.9242 2.73102 7.64983C2.73102 8.36227 2.95531 8.93618 3.40388 9.37156C3.85245 9.79375 4.69023 10.15 5.91721 10.4402V5.03755Z" transform="translate(323 337)" fill="#A83B15"/>
<g style="mix-blend-mode:multiply" opacity="0.43" transform="translate(530.113 363.561)">
<path d="M3.91437e-05 55.5937C-0.0162556 69.4229 5.05536 82.7743 14.2477 93.1018C35.2099 70.0609 46.8037 40.0103 46.7517 8.85312C46.7517 5.87198 46.6072 2.92693 46.4086 0C33.3904 2.36142 21.6138 9.22018 13.1325 19.3801C4.65124 29.5399 0.00353783 42.3562 3.91437e-05 55.5937Z" fill="#FFA818"/>
</g>
<path d="M41.8219 83.6887C64.9194 83.6887 83.6437 64.9543 83.6437 41.8443C83.6437 18.7344 64.9194 0 41.8219 0C18.7243 0 0 18.7344 0 41.8443C0 64.9543 18.7243 83.6887 41.8219 83.6887Z" transform="translate(530.113 377.328)" fill="#FFCC18"/>
<path d="M53.126 2.36684C52.9274 1.57187 52.7468 0.776902 52.494 0L0 52.5222C0.776485 52.7571 1.57102 52.9559 2.36557 53.1546L53.126 2.36684Z" transform="translate(559.316 406.525)" fill="#FFE223"/>
<path d="M7.98157 63.3627L63.2023 8.05809C61.9088 5.20002 60.2975 2.49694 58.3989 0L0 58.5568C2.47291 60.4518 5.15013 62.0638 7.98157 63.3627Z" transform="translate(546.781 393.912)" fill="#FFE223"/>
<path d="M0 45.3313C0.823602 54.5821 4.72077 63.2903 11.0694 70.0658L70.1004 11.0031C63.3185 4.67737 54.6161 0.804046 45.3793 0L0 45.3313Z" transform="translate(530.297 377.508)" fill="#FFE223"/>
<path d="M41.8399 0.596203C52.8802 0.595971 63.4723 4.96543 71.3043 12.7509C79.1363 20.5363 83.5722 31.1055 83.6437 42.1515C83.6437 42.043 83.6437 41.9527 83.6437 41.8443C83.6437 30.7465 79.2375 20.1032 71.3944 12.2559C63.5513 4.40855 52.9137 0 41.8219 0C30.73 0 20.0924 4.40855 12.2493 12.2559C4.40618 20.1032 0 30.7465 0 41.8443C0 41.9527 0 42.043 0 42.1515C0.0715716 31.0992 4.51239 20.5246 12.3522 12.7381C20.192 4.95166 30.7934 0.586423 41.8399 0.596203Z" transform="translate(530.09 377.381)" fill="#FFEF18"/>
<path d="M3.564 2.144C3.564 2.064 3.592 1.996 3.648 1.94C3.704 1.884 3.772 1.856 3.852 1.856C3.932 1.856 4 1.884 4.056 1.94C4.112 1.996 4.14 2.064 4.14 2.144V2.624C4.892 2.688 5.604 2.968 6.276 3.464C6.388 3.552 6.444 3.64 6.444 3.728C6.444 3.816 6.412 3.892 6.348 3.956C6.292 4.012 6.22 4.04 6.132 4.04C6.052 4.04 5.98 4.012 5.916 3.956C5.356 3.508 4.756 3.248 4.116 3.176V6.536C5.028 6.728 5.688 7.004 6.096 7.364C6.504 7.716 6.708 8.2 6.708 8.816C6.708 9.424 6.468 9.936 5.988 10.352C5.508 10.76 4.892 10.976 4.14 11V11.936C4.14 12.016 4.112 12.084 4.056 12.14C4 12.196 3.932 12.224 3.852 12.224C3.772 12.224 3.704 12.196 3.648 12.14C3.592 12.084 3.564 12.016 3.564 11.936V10.988C2.564 10.908 1.664 10.52 0.864 9.824C0.776 9.752 0.732 9.672 0.732 9.584C0.732 9.496 0.76 9.424 0.816 9.368C0.88 9.304 0.952 9.272 1.032 9.272C1.12 9.272 1.192 9.3 1.248 9.356C1.936 9.996 2.716 10.36 3.588 10.448V7.028C2.692 6.828 2.044 6.552 1.644 6.2C1.244 5.848 1.044 5.372 1.044 4.772C1.044 4.164 1.28 3.656 1.752 3.248C2.232 2.832 2.836 2.616 3.564 2.6V2.144ZM4.116 10.46C4.708 10.452 5.184 10.296 5.544 9.992C5.912 9.68 6.096 9.3 6.096 8.852C6.096 8.404 5.952 8.052 5.664 7.796C5.384 7.532 4.868 7.316 4.116 7.148V10.46ZM3.588 3.14C3.012 3.148 2.544 3.304 2.184 3.608C1.832 3.912 1.656 4.284 1.656 4.724C1.656 5.156 1.792 5.504 2.064 5.768C2.336 6.024 2.844 6.24 3.588 6.416V3.14Z" transform="translate(549.594 420.926) scale(0.99 1)" fill="#FFF218"/>
<path d="M11.283 6.96338C11.283 6.71011 11.3717 6.49483 11.549 6.31755C11.7262 6.14026 11.9415 6.05162 12.1948 6.05162C12.4481 6.05162 12.6633 6.14026 12.8406 6.31755C13.0179 6.49483 13.1066 6.71011 13.1066 6.96338V8.48298C15.4873 8.68559 17.7413 9.57202 19.8688 11.1423C20.2233 11.4209 20.4006 11.6995 20.4006 11.9781C20.4006 12.2567 20.2993 12.4973 20.0967 12.6999C19.9194 12.8772 19.6915 12.9658 19.4129 12.9658C19.1596 12.9658 18.9317 12.8772 18.7291 12.6999C16.9562 11.2816 15.0567 10.4585 13.0306 10.2305V20.8677C15.9178 21.4756 18.0073 22.3493 19.2989 23.489C20.5906 24.6034 21.2364 26.1357 21.2364 28.0858C21.2364 30.0106 20.4766 31.6316 18.957 32.9485C17.4374 34.2402 15.4873 34.924 13.1066 35V37.9632C13.1066 38.2165 13.0179 38.4318 12.8406 38.6091C12.6633 38.7863 12.4481 38.875 12.1948 38.875C11.9415 38.875 11.7262 38.7863 11.549 38.6091C11.3717 38.4318 11.283 38.2165 11.283 37.9632V34.962C8.1172 34.7087 5.26795 33.4804 2.73528 31.277C2.45669 31.049 2.31739 30.7958 2.31739 30.5172C2.31739 30.2386 2.40603 30.0106 2.58332 29.8334C2.78593 29.6307 3.01387 29.5294 3.26714 29.5294C3.54573 29.5294 3.77367 29.6181 3.95096 29.7954C6.12905 31.8215 8.5984 32.9739 11.359 33.2525V22.4253C8.52242 21.7921 6.47096 20.9184 5.20463 19.804C3.9383 18.6896 3.30513 17.1827 3.30513 15.2832C3.30513 13.3584 4.05227 11.7501 5.54654 10.4585C7.06614 9.14147 8.9783 8.45765 11.283 8.407V6.96338ZM13.0306 33.2904C14.9047 33.2651 16.4117 32.7713 17.5514 31.8088C18.7164 30.8211 19.2989 29.6181 19.2989 28.1998C19.2989 26.7815 18.843 25.6671 17.9313 24.8567C17.0448 24.0209 15.4113 23.3371 13.0306 22.8052V33.2904ZM11.359 10.1165C9.53549 10.1419 8.05388 10.6357 6.91418 11.5982C5.79981 12.5606 5.24262 13.7383 5.24262 15.1312C5.24262 16.4989 5.67317 17.6006 6.53428 18.4364C7.39539 19.2468 9.00363 19.9306 11.359 20.4878V10.1165Z" transform="translate(559 397)" fill="#A83B15"/>
<g style="mix-blend-mode:multiply" opacity="0.43" transform="translate(533.133 419.154)">
<path d="M41.7496 25.5294H71.8881C77.5588 18.2293 80.6344 9.24564 80.6281 0C41.7496 16.5137 0 14.2552 0 14.2552L7.36756 25.5113H41.6774L41.7496 25.5294Z" fill="#FFA818"/>
</g>
<path d="M41.8219 83.6886C64.9194 83.6886 83.6437 64.9543 83.6437 41.8443C83.6437 18.7343 64.9194 0 41.8219 0C18.7243 0 0 18.7343 0 41.8443C0 64.9543 18.7243 83.6886 41.8219 83.6886Z" transform="translate(580.766 273.637)" fill="#FFCC18"/>
<path d="M53.0899 2.36684C52.8913 1.57187 52.7107 0.776902 52.4579 0L0 52.5222C0.776485 52.7571 1.57102 52.9558 2.36557 53.1546L53.0899 2.36684Z" transform="translate(609.984 302.834)" fill="#FFE223"/>
<path d="M8.05376 63.3627L63.3287 8.05814C62.0353 5.20008 60.424 2.49694 58.5253 0L0 58.5568C2.4956 60.4564 5.19723 62.0686 8.05376 63.3627Z" transform="translate(597.344 290.223)" fill="#FFE223"/>
<path d="M0 45.3313C0.798613 54.571 4.66337 63.2777 10.9791 70.0658L70.0101 11.0031C63.2282 4.67737 54.5258 0.804046 45.2889 0L0 45.3313Z" transform="translate(580.941 273.816)" fill="#FFE223"/>
<path d="M41.8399 0.596203C52.8802 0.595971 63.4723 4.96543 71.3043 12.7509C79.1363 20.5363 83.5722 31.1055 83.6437 42.1515C83.6437 42.043 83.6437 41.9527 83.6437 41.8443C83.6437 30.7465 79.2376 20.1032 71.3944 12.2559C63.5513 4.40855 52.9137 0 41.8219 0C30.73 0 20.0925 4.40855 12.2494 12.2559C4.40624 20.1032 0 30.7465 0 41.8443C0 41.9527 0 42.043 0 42.1515C0.0715716 31.0992 4.51245 20.5246 12.3522 12.7381C20.192 4.95166 30.7934 0.586423 41.8399 0.596203Z" transform="translate(580.781 273.654)" fill="#FFEF18"/>
<path d="M3.564 2.144C3.564 2.064 3.592 1.996 3.648 1.94C3.704 1.884 3.772 1.856 3.852 1.856C3.932 1.856 4 1.884 4.056 1.94C4.112 1.996 4.14 2.064 4.14 2.144V2.624C4.892 2.688 5.604 2.968 6.276 3.464C6.388 3.552 6.444 3.64 6.444 3.728C6.444 3.816 6.412 3.892 6.348 3.956C6.292 4.012 6.22 4.04 6.132 4.04C6.052 4.04 5.98 4.012 5.916 3.956C5.356 3.508 4.756 3.248 4.116 3.176V6.536C5.028 6.728 5.688 7.004 6.096 7.364C6.504 7.716 6.708 8.2 6.708 8.816C6.708 9.424 6.468 9.936 5.988 10.352C5.508 10.76 4.892 10.976 4.14 11V11.936C4.14 12.016 4.112 12.084 4.056 12.14C4 12.196 3.932 12.224 3.852 12.224C3.772 12.224 3.704 12.196 3.648 12.14C3.592 12.084 3.564 12.016 3.564 11.936V10.988C2.564 10.908 1.664 10.52 0.864 9.824C0.776 9.752 0.732 9.672 0.732 9.584C0.732 9.496 0.76 9.424 0.816 9.368C0.88 9.304 0.952 9.272 1.032 9.272C1.12 9.272 1.192 9.3 1.248 9.356C1.936 9.996 2.716 10.36 3.588 10.448V7.028C2.692 6.828 2.044 6.552 1.644 6.2C1.244 5.848 1.044 5.372 1.044 4.772C1.044 4.164 1.28 3.656 1.752 3.248C2.232 2.832 2.836 2.616 3.564 2.6V2.144ZM4.116 10.46C4.708 10.452 5.184 10.296 5.544 9.992C5.912 9.68 6.096 9.3 6.096 8.852C6.096 8.404 5.952 8.052 5.664 7.796C5.384 7.532 4.868 7.316 4.116 7.148V10.46ZM3.588 3.14C3.012 3.148 2.544 3.304 2.184 3.608C1.832 3.912 1.656 4.284 1.656 4.724C1.656 5.156 1.792 5.504 2.064 5.768C2.336 6.024 2.844 6.24 3.588 6.416V3.14Z" transform="translate(600.227 317.234) scale(0.99 1)" fill="#FFF218"/>
<path d="M11.283 6.96338C11.283 6.71011 11.3717 6.49483 11.549 6.31755C11.7262 6.14026 11.9415 6.05162 12.1948 6.05162C12.4481 6.05162 12.6633 6.14026 12.8406 6.31755C13.0179 6.49483 13.1066 6.71011 13.1066 6.96338V8.48298C15.4873 8.68559 17.7413 9.57202 19.8688 11.1423C20.2233 11.4209 20.4006 11.6995 20.4006 11.9781C20.4006 12.2567 20.2993 12.4973 20.0967 12.6999C19.9194 12.8772 19.6915 12.9658 19.4129 12.9658C19.1596 12.9658 18.9317 12.8772 18.7291 12.6999C16.9562 11.2816 15.0567 10.4585 13.0306 10.2305V20.8677C15.9178 21.4756 18.0073 22.3493 19.2989 23.489C20.5906 24.6034 21.2364 26.1357 21.2364 28.0858C21.2364 30.0106 20.4766 31.6316 18.957 32.9485C17.4374 34.2402 15.4873 34.924 13.1066 35V37.9632C13.1066 38.2165 13.0179 38.4318 12.8406 38.6091C12.6633 38.7863 12.4481 38.875 12.1948 38.875C11.9415 38.875 11.7262 38.7863 11.549 38.6091C11.3717 38.4318 11.283 38.2165 11.283 37.9632V34.962C8.1172 34.7087 5.26795 33.4804 2.73528 31.277C2.45669 31.049 2.31739 30.7958 2.31739 30.5172C2.31739 30.2386 2.40603 30.0106 2.58332 29.8334C2.78593 29.6307 3.01387 29.5294 3.26714 29.5294C3.54573 29.5294 3.77367 29.6181 3.95096 29.7954C6.12905 31.8215 8.5984 32.9739 11.359 33.2525V22.4253C8.52242 21.7921 6.47096 20.9184 5.20463 19.804C3.9383 18.6896 3.30513 17.1827 3.30513 15.2832C3.30513 13.3584 4.05227 11.7501 5.54654 10.4585C7.06614 9.14147 8.9783 8.45765 11.283 8.407V6.96338ZM13.0306 33.2904C14.9047 33.2651 16.4117 32.7713 17.5514 31.8088C18.7164 30.8211 19.2989 29.6181 19.2989 28.1998C19.2989 26.7815 18.843 25.6671 17.9313 24.8567C17.0448 24.0209 15.4113 23.3371 13.0306 22.8052V33.2904ZM11.359 10.1165C9.53549 10.1419 8.05388 10.6357 6.91418 11.5982C5.79981 12.5606 5.24262 13.7383 5.24262 15.1312C5.24262 16.4989 5.67317 17.6006 6.53428 18.4364C7.39539 19.2468 9.00363 19.9306 11.359 20.4878V10.1165Z" transform="translate(608 294)" fill="#A83B15"/>
<path d="M29.019 58.069C45.0456 58.069 58.0377 45.0698 58.0377 29.0345C58.0377 12.9992 45.0456 0 29.019 0C12.9923 0 0 12.9992 0 29.0345C0 45.0698 12.9923 58.069 29.019 58.069Z" transform="translate(629.488 358.756)" fill="#FFCC18"/>
<path d="M36.8921 1.64415C36.7476 1.10212 36.6212 0.542025 36.4587 0L0 36.4421C0.541734 36.6047 1.08347 36.7312 1.64327 36.8758L36.8921 1.64415Z" transform="translate(649.711 379.008)" fill="#FFE223"/>
<path d="M5.59787 43.9763L43.9527 5.60094C43.0539 3.61384 41.9332 1.7349 40.612 0L0 40.6338C1.73397 41.9557 3.61185 43.077 5.59787 43.9763Z" transform="translate(640.984 370.244)" fill="#FFE223"/>
<path d="M0 31.4555C0.564983 37.8682 3.25321 43.9088 7.63847 48.6196L48.5935 7.64252C43.8853 3.2549 37.8479 0.565287 31.4386 0L0 31.4555Z" transform="translate(629.613 358.861)" fill="#FFE223"/>
<path d="M29.0369 0.433602C36.6941 0.433423 44.0406 3.46322 49.4737 8.86194C54.9067 14.2607 57.9853 21.5901 58.0377 29.2513C58.0377 29.2513 58.0377 29.1068 58.0377 29.0345C58.0377 21.3341 54.9804 13.949 49.5383 8.50399C44.0962 3.05897 36.7151 0 29.0188 0C21.3226 0 13.9415 3.05897 8.49942 8.50399C3.05733 13.949 4.58734e-07 21.3341 0 29.0345C0 29.0345 0 29.179 0 29.2513C0.0524833 21.5839 3.13601 14.249 8.57685 8.8492C14.0177 3.44946 21.3735 0.423874 29.0369 0.433602Z" transform="translate(629.465 358.734)" fill="#FFEF18"/>
<path d="M3.564 2.144C3.564 2.064 3.592 1.996 3.648 1.94C3.704 1.884 3.772 1.856 3.852 1.856C3.932 1.856 4 1.884 4.056 1.94C4.112 1.996 4.14 2.064 4.14 2.144V2.624C4.892 2.688 5.604 2.968 6.276 3.464C6.388 3.552 6.444 3.64 6.444 3.728C6.444 3.816 6.412 3.892 6.348 3.956C6.292 4.012 6.22 4.04 6.132 4.04C6.052 4.04 5.98 4.012 5.916 3.956C5.356 3.508 4.756 3.248 4.116 3.176V6.536C5.028 6.728 5.688 7.004 6.096 7.364C6.504 7.716 6.708 8.2 6.708 8.816C6.708 9.424 6.468 9.936 5.988 10.352C5.508 10.76 4.892 10.976 4.14 11V11.936C4.14 12.016 4.112 12.084 4.056 12.14C4 12.196 3.932 12.224 3.852 12.224C3.772 12.224 3.704 12.196 3.648 12.14C3.592 12.084 3.564 12.016 3.564 11.936V10.988C2.564 10.908 1.664 10.52 0.864 9.824C0.776 9.752 0.732 9.672 0.732 9.584C0.732 9.496 0.76 9.424 0.816 9.368C0.88 9.304 0.952 9.272 1.032 9.272C1.12 9.272 1.192 9.3 1.248 9.356C1.936 9.996 2.716 10.36 3.588 10.448V7.028C2.692 6.828 2.044 6.552 1.644 6.2C1.244 5.848 1.044 5.372 1.044 4.772C1.044 4.164 1.28 3.656 1.752 3.248C2.232 2.832 2.836 2.616 3.564 2.6V2.144ZM4.116 10.46C4.708 10.452 5.184 10.296 5.544 9.992C5.912 9.68 6.096 9.3 6.096 8.852C6.096 8.404 5.952 8.052 5.664 7.796C5.384 7.532 4.868 7.316 4.116 7.148V10.46ZM3.588 3.14C3.012 3.148 2.544 3.304 2.184 3.608C1.832 3.912 1.656 4.284 1.656 4.724C1.656 5.156 1.792 5.504 2.064 5.768C2.336 6.024 2.844 6.24 3.588 6.416V3.14Z" transform="translate(643.008 382.367) scale(0.99 1)" fill="#FFF218"/>
<path d="M7.82892 4.54632C7.82892 4.37059 7.89043 4.22121 8.01344 4.0982C8.13645 3.97519 8.28583 3.91368 8.46156 3.91368C8.63729 3.91368 8.78667 3.97519 8.90968 4.0982C9.03269 4.22121 9.0942 4.37059 9.0942 4.54632V5.60072C10.7461 5.74131 12.3101 6.35637 13.7863 7.44592C14.0323 7.63923 14.1553 7.83253 14.1553 8.02584C14.1553 8.21915 14.085 8.38609 13.9444 8.52668C13.8214 8.64969 13.6633 8.7112 13.47 8.7112C13.2942 8.7112 13.1361 8.64969 12.9955 8.52668C11.7653 7.54257 10.4473 6.97144 9.04148 6.81328V14.1941C11.0448 14.6158 12.4946 15.2221 13.3909 16.0129C14.2871 16.7861 14.7352 17.8493 14.7352 19.2025C14.7352 20.5381 14.208 21.6627 13.1536 22.5766C12.0992 23.4728 10.7461 23.9473 9.0942 24V26.0561C9.0942 26.2318 9.03269 26.3812 8.90968 26.5042C8.78667 26.6272 8.63729 26.6887 8.46156 26.6887C8.28583 26.6887 8.13645 26.6272 8.01344 26.5042C7.89043 26.3812 7.82892 26.2318 7.82892 26.0561V23.9736C5.63225 23.7979 3.65525 22.9456 1.89792 21.4167C1.70461 21.2586 1.60796 21.0828 1.60796 20.8895C1.60796 20.6962 1.66947 20.5381 1.79248 20.415C1.93307 20.2745 2.09123 20.2042 2.26696 20.2042C2.46027 20.2042 2.61843 20.2657 2.74144 20.3887C4.25275 21.7945 5.96615 22.5941 7.88164 22.7874V15.2748C5.91343 14.8355 4.48999 14.2292 3.61132 13.456C2.73265 12.6828 2.29332 11.6372 2.29332 10.3192C2.29332 8.98359 2.81173 7.86768 3.84856 6.97144C4.90296 6.05763 6.22975 5.58315 7.82892 5.548V4.54632ZM9.04148 22.8138C10.3419 22.7962 11.3875 22.4535 12.1783 21.7858C12.9867 21.1004 13.3909 20.2657 13.3909 19.2816C13.3909 18.2975 13.0746 17.5242 12.4419 16.9619C11.8269 16.382 10.6934 15.9075 9.04148 15.5384V22.8138ZM7.88164 6.7342C6.61636 6.75177 5.58832 7.09445 4.79752 7.76224C4.02429 8.43003 3.63768 9.24719 3.63768 10.2137C3.63768 11.1627 3.93643 11.9271 4.53392 12.507C5.13141 13.0694 6.24732 13.5439 7.88164 13.9305V6.7342Z" transform="translate(651 372)" fill="#A83B15"/>
<path d="M10.6361 0L12.3515 8.92535L21.2902 10.6417L12.3515 12.3582L10.6361 21.3015L8.92056 12.3582L0 10.6417L8.92056 8.92535L10.6361 0Z" transform="translate(595.133 266.52)" fill="#FFFF62"/>
<path d="M10.6361 0L12.3515 8.92535L21.2902 10.6417L12.3515 12.3582L10.6361 21.3015L8.92056 12.3582L0 10.6417L8.92056 8.92535L10.6361 0Z" transform="translate(702 186)" fill="#FFFF62"/>
<path d="M15.9089 0L18.4912 13.3519L31.8359 15.9175L18.4912 18.5011L15.9089 31.853L13.3447 18.5011L0 15.9175L13.3447 13.3519L15.9089 0Z" transform="translate(558.961 331.816)" fill="#FFFF62"/>
<path d="M15.9089 0L18.4912 13.3519L31.8359 15.9175L18.4912 18.5011L15.9089 31.853L13.3447 18.5011L0 15.9175L13.3447 13.3519L15.9089 0Z" transform="translate(570 204)" fill="#FFFF62"/>
<path d="M15.9089 0L18.4912 13.3519L31.8359 15.9175L18.4912 18.5011L15.9089 31.853L13.3447 18.5011L0 15.9175L13.3447 13.3519L15.9089 0Z" transform="translate(767 193)" fill="#FFFF62"/>
<path d="M15.9089 0L18.4912 13.3519L31.8359 15.9175L18.4912 18.5011L15.9089 31.853L13.3447 18.5011L0 15.9175L13.3447 13.3519L15.9089 0Z" transform="translate(680 321)" fill="#FFFF62"/>
<path d="M10.293 0L11.9543 8.65435L20.5859 10.3165L11.9543 11.9788L10.293 20.615L8.63168 11.9788L0 10.3165L8.63168 8.65435L10.293 0Z" transform="translate(210 221)" fill="#FFFF62"/>
<path d="M15.9089 0L18.4731 13.3519L31.8178 15.9355L18.4731 18.5011L15.9089 31.853L13.3447 18.5011L0 15.9355L13.3447 13.3519L15.9089 0Z" transform="translate(194 428)" fill="#FFFF62"/>
<path d="M15.9089 0L18.4731 13.3519L31.8178 15.9355L18.4731 18.5011L15.9089 31.853L13.3447 18.5011L0 15.9355L13.3447 13.3519L15.9089 0Z" transform="translate(140 193)" fill="#FFFF62"/>
<path d="M9.24564 0L10.7444 7.75092L18.4912 9.25055L10.7444 10.7321L9.24564 18.483L7.76489 10.7321L0 9.25055L7.76489 7.75092L9.24564 0Z" transform="translate(596.523 378.537)" fill="#FFFF62"/>
<path d="M9.24564 0L10.7444 7.75092L18.4912 9.25055L10.7444 10.7321L9.24564 18.483L7.76489 10.7321L0 9.25055L7.76489 7.75092L9.24564 0Z" transform="translate(733 295)" fill="#FFFF62"/>
<path d="M6.17579 0L7.16895 5.18536L12.3515 6.19714L7.16895 7.19083L6.17579 12.3762L5.18258 7.19083L0 6.19714L5.18258 5.18536L6.17579 0Z" transform="translate(616.246 254.143)" fill="#FFFF62"/>
<path d="M6.17579 0L7.16895 5.18536L12.3515 6.17905L7.16895 7.1728L6.17579 12.3582L5.18263 7.1728L0 6.17905L5.18263 5.18536L6.17579 0Z" transform="translate(626.793 368.998)" fill="#FFFF62"/>
<path d="M3.59348 0L4.17135 2.99921L7.16889 3.59541L4.17135 4.17359L3.59348 7.1728L3.01562 4.17359L0 3.59541L3.01562 2.99921L3.59348 0Z" transform="translate(632.965 266.52)" fill="#FFFF62"/>
<path d="M3.57541 0L4.15327 2.99921L7.16895 3.57738L4.15327 4.15556L3.57541 7.1728L2.9976 4.15556L0 3.57738L2.9976 2.99921L3.57541 0Z" transform="translate(322.137 313.406)" fill="#FFFF62"/>
<path d="M3.59348 0L4.17135 3.0173L7.16895 3.59547L4.17135 4.17359L3.59348 7.1728L3.01568 4.17359L0 3.59547L3.01568 3.0173L3.59348 0Z" transform="translate(321.559 330.57)" fill="#FFFF62"/>
<path d="M6.95226 0L8.07184 5.83582L13.8865 6.956L8.07184 8.07617L6.95226 13.8939L5.83263 8.07617L0 6.956L5.83263 5.83582L6.95226 0Z" transform="translate(277.34 368.223)" fill="#FFFF62"/>
<path d="M4.04498 0L4.69504 3.37861L8.07184 4.02907L4.69504 4.67948L4.04498 8.07617L3.39488 4.67948L0 4.02907L3.39488 3.37861L4.04498 0Z" transform="translate(275.496 354.619)" fill="#FFFF62"/>
<path d="M3.59348 0L4.17135 3.0173L7.16889 3.59547L4.17135 4.17359L3.59348 7.19088L2.99755 4.17359L0 3.59547L2.99755 3.0173L3.59348 0Z" transform="translate(656.891 355.865)" fill="#FFFF62"/>
<path d="M3.59348 0L4.15327 3.0173L7.16895 3.59541L4.15327 4.17359L3.59348 7.19088L2.9976 4.17359L0 3.59541L2.9976 3.0173L3.59348 0Z" transform="translate(612.648 230.528)" fill="#FFFF62"/>
<path d="M3.59348 0L4.17135 3.0173L7.18702 3.59541L4.17135 4.17359L3.59348 7.1728L3.01568 4.17359L0 3.59541L3.01568 3.0173L3.59348 0Z" transform="translate(574.875 284.227)" fill="#FFFF62"/>
<path d="M2.09471 0L2.41979 1.75255L4.1714 2.07775L2.41979 2.42104L2.09471 4.17359L1.75161 2.42104L0 2.07775L1.75161 1.75255L2.09471 0Z" transform="translate(325.715 292.918)" fill="#FFFF62"/>
<path d="M2.07664 0L2.41974 1.75255L4.15327 2.09584L2.41974 2.42104L2.07664 4.17359L1.73353 2.42104L0 2.09584L1.73353 1.75255L2.07664 0Z" transform="translate(332.625 311.311)" fill="#FFFF62"/>
<path d="M2.09471 0L2.41974 1.73446L4.17135 2.07775L2.41974 2.42104L2.09471 4.1555L1.75161 2.42104L0 2.07775L1.75161 1.73446L2.09471 0Z" transform="translate(314.895 306.145)" fill="#FFFF62"/>
<path d="M2.07664 0L2.41974 1.75255L4.17135 2.09584L2.41974 2.42104L2.07664 4.17359L1.75161 2.42104L0 2.09584L1.75161 1.75255L2.07664 0Z" transform="translate(282.445 304.047)" fill="#FFFF62"/>
<path d="M3.59348 0L4.17135 3.01724L7.18702 3.59541L4.17135 4.17359L3.59348 7.1728L3.01568 4.17359L0 3.59541L3.01568 3.01724L3.59348 0Z" transform="translate(306.211 323.703)" fill="#FFFF62"/>
<path d="M83.6798 0H11.6292C5.20658 0 0 5.20938 0 11.6355V31.4736C0 37.8997 5.20658 43.109 11.6292 43.109H83.6798C90.1025 43.109 95.3091 37.8997 95.3091 31.4736V11.6355C95.3091 5.20938 90.1025 0 83.6798 0Z" transform="translate(258.426 467.195)" fill="#FFFF8C"/>
<path d="M52.5843 0H43.0859L0 43.109H9.24558C20.2067 32.1059 41.7496 10.714 52.5843 0Z" transform="translate(286.527 467.195)" fill="#FFE37E"/>
<path d="M19.2857 43.109L62.3716 0H31.1497L0 31.1664V31.7265C0 34.7454 1.19856 37.6405 3.33205 39.7752C5.46554 41.9098 8.35918 43.109 11.3764 43.109H19.2857Z" transform="translate(258.426 467.195)" fill="#FFE37E"/>
<path d="M42.472 1.13826C42.0448 0.723678 41.5859 0.343094 41.0995 0C34.2918 7.02826 11.1778 29.974 0 41.0494H2.5642L42.472 1.13826Z" transform="translate(307.762 469.256)" fill="#FFE37E"/>
<path d="M83.9326 0H11.3764C9.88242 0 8.40308 0.294407 7.02283 0.866433C5.64258 1.43846 4.38845 2.27688 3.33205 3.33384C2.27565 4.39081 1.43769 5.64564 0.865968 7.02663C0.294249 8.40762 0 9.88773 0 11.3825V12.322C0 9.30321 1.19856 6.40802 3.33205 4.27339C5.46554 2.13875 8.35918 0.93949 11.3764 0.93949H83.9326C86.9499 0.93949 89.8435 2.13875 91.977 4.27339C94.1105 6.40802 95.3091 9.30321 95.3091 12.322V11.3825C95.3091 9.88773 95.0148 8.40762 94.4431 7.02663C93.8714 5.64564 93.0334 4.39081 91.977 3.33384C90.9206 2.27688 89.6665 1.43846 88.2862 0.866433C86.906 0.294407 85.4266 0 83.9326 0Z" transform="translate(258.426 467.195)" fill="#FFFFDB"/>
<path d="M1.11957 0H0V34.4547H1.11957V0Z" transform="translate(302.691 506.637) rotate(180)" fill="#FFFFD0"/>
<path d="M4.29777 0H0V34.4547H4.29777V0Z" transform="translate(297.273 472.182)" fill="#FFBB00"/>
<path d="M13.3447 26.7038C20.7148 26.7038 26.6894 20.7259 26.6894 13.3519C26.6894 5.97787 20.7148 0 13.3447 0C5.97466 0 0 5.97787 0 13.3519C0 20.7259 5.97466 26.7038 13.3447 26.7038Z" transform="translate(265.453 476.066)" fill="#FFA03D"/>
<path d="M10.4374 20.886C16.2018 20.886 20.8748 16.2105 20.8748 10.443C20.8748 4.67549 16.2018 0 10.4374 0C4.67298 0 0 4.67549 0 10.443C0 16.2105 4.67298 20.886 10.4374 20.886Z" transform="translate(268.359 478.977)" fill="#FFDA00"/>
<path d="M10.4555 0.361372C13.1909 0.361039 15.8168 1.43703 17.7662 3.35705C19.7156 5.27708 20.8321 7.88711 20.8748 10.6237C20.8748 10.6237 20.8748 10.4972 20.8748 10.443C20.8748 7.67335 19.7752 5.01715 17.8178 3.0587C15.8604 1.10026 13.2056 0 10.4374 0C7.66923 0 5.01446 1.10026 3.05706 3.0587C1.09967 5.01715 0 7.67335 0 10.443C0 10.443 0 10.5695 0 10.6237C0.0427475 7.88084 1.16429 5.26536 3.12148 3.34432C5.07868 1.42328 7.71378 0.35153 10.4555 0.361372Z" transform="translate(268.344 478.977)" fill="#FFFA3E"/>
<path d="M9.85897 10.8164C9.86136 10.6052 9.82215 10.3957 9.74358 10.1997C9.66501 10.0036 9.54862 9.82508 9.40105 9.67408C9.25349 9.52308 9.07765 9.40265 8.88356 9.31965C8.68947 9.23666 8.48093 9.19272 8.26988 9.19036H8.14349C8.78672 8.70506 9.3089 8.07737 9.66918 7.35642C10.0295 6.63548 10.218 5.84083 10.2201 5.0348C10.2061 4.1196 9.94683 3.22499 9.46933 2.44427C8.99183 1.66354 8.31364 1.02537 7.50553 0.596384C6.69742 0.167395 5.78901 -0.0367073 4.87517 0.0054188C3.96133 0.0475449 3.07554 0.334329 2.31027 0.835847C1.54501 1.33736 0.928336 2.03524 0.524609 2.85659C0.120881 3.67793 -0.0551082 4.59263 0.0150521 5.50523C0.0852125 6.41784 0.398929 7.29491 0.923453 8.04482C1.44798 8.79472 2.16408 9.38996 2.997 9.76847V13.5265C2.99373 14.0125 3.16231 14.484 3.47294 14.8576C3.78357 15.2312 4.21625 15.4829 4.69444 15.5682H4.98337H8.23378C7.99843 14.6995 8.02356 13.7807 8.30611 12.9262C8.58866 12.0716 9.11612 11.3191 9.82285 10.7622L9.85897 10.8164Z" transform="translate(273.273 481.73)" fill="#FFFA3E"/>
<path d="M9.87768 10.8043C9.87768 10.3826 9.71025 9.97821 9.41224 9.68003C9.11423 9.38186 8.71004 9.21434 8.28858 9.21434H8.16219C8.86152 8.69341 9.416 8.00216 9.77292 7.20628C10.1298 6.41041 10.2773 5.53637 10.2013 4.66736C10.1253 3.79836 9.82839 2.96329 9.33875 2.24153C8.84911 1.51976 8.18303 0.935333 7.40391 0.543838C6.62479 0.152344 5.75854 -0.0331839 4.88751 0.00486807C4.01648 0.04292 3.16965 0.303297 2.4276 0.761246C1.68555 1.2192 1.07295 1.85949 0.648049 2.6212C0.223145 3.38292 6.77156e-05 4.24071 6.09298e-05 5.11304C-0.00478861 6.10161 0.27995 7.06994 0.819104 7.89837C1.35826 8.7268 2.12821 9.37906 3.03379 9.77448V13.388C3.03545 13.8687 3.2066 14.3334 3.51711 14.7003C3.82762 15.0672 4.25755 15.3126 4.7312 15.3934H5.02013H8.27054C8.03747 14.5384 8.06413 13.6333 8.34714 12.7934C8.63015 11.9536 9.15669 11.2172 9.85963 10.6779L9.87768 10.8043Z" transform="translate(273.254 481.832)" fill="#FFAB00"/>
<path d="M7.53012 10.6696C7.72169 10.6696 7.9054 10.5934 8.04086 10.4579C8.17632 10.3224 8.25242 10.1386 8.25242 9.94688C8.25242 9.75521 8.17632 9.5714 8.04086 9.43587C7.9054 9.30034 7.72169 9.22419 7.53012 9.22419H5.43541V8.32082C6.41548 8.03387 7.25927 7.40293 7.81194 6.54379C8.36462 5.68464 8.58912 4.65494 8.44425 3.64355C8.29939 2.63216 7.79489 1.70695 7.02329 1.03769C6.2517 0.368429 5.26476 0 4.24359 0C3.22242 0 2.23551 0.368429 1.46391 1.03769C0.692317 1.70695 0.187788 2.63216 0.0429249 3.64355C-0.101939 4.65494 0.122584 5.68464 0.675262 6.54379C1.22794 7.40293 2.0717 8.03387 3.05177 8.32082V12.6209C3.05452 12.9085 3.16269 13.1851 3.35574 13.3983C3.5488 13.6114 3.81331 13.7462 4.09912 13.7772H7.34953C7.5411 13.7772 7.72484 13.701 7.8603 13.5655C7.99576 13.43 8.07186 13.2462 8.07186 13.0545C8.07186 12.8628 7.99576 12.679 7.8603 12.5435C7.72484 12.4079 7.5411 12.3318 7.34953 12.3318H5.43541V10.6515L7.53012 10.6696Z" transform="translate(274.086 482.689)" fill="#E34300"/>
<path d="M21.2721 0H5.1645C2.31221 0 0 2.31351 0 5.16733V37.9417C0 40.7956 2.31221 43.109 5.1645 43.109H21.2721C24.1244 43.109 26.4366 40.7956 26.4366 37.9417V5.16733C26.4366 2.31351 24.1244 0 21.2721 0Z" transform="translate(360.453 467.195)" fill="#FFFF8C"/>
<path d="M21.4527 0H4.98397C3.66214 0 2.39443 0.525366 1.45976 1.46054C0.525084 2.39572 0 3.66411 0 4.98665V5.49254C0 4.17 0.525084 2.9016 1.45976 1.96643C2.39443 1.03125 3.66214 0.505888 4.98397 0.505888H21.4527C22.7745 0.505888 24.0422 1.03125 24.9769 1.96643C25.9115 2.9016 26.4366 4.17 26.4366 5.49254V4.98665C26.4366 3.66411 25.9115 2.39572 24.9769 1.46054C24.0422 0.525366 22.7745 0 21.4527 0Z" transform="translate(360.438 467.195)" fill="#FFFFD1"/>
<path d="M83.1381 0H12.1709C5.44911 0 0 5.45203 0 12.1775V30.9315C0 37.657 5.44911 43.109 12.1709 43.109H83.1381C89.8599 43.109 95.3091 37.657 95.3091 30.9315V12.1775C95.3091 5.45203 89.8599 0 83.1381 0Z" transform="translate(653.949 510.324) rotate(-180)" fill="#FFFF8C"/>
<path d="M0 0H9.49842L52.5843 43.109H43.3387C32.4679 32.1059 10.8347 10.714 0 0Z" transform="translate(573.176 467.195)" fill="#FFE37E"/>
<path d="M43.0859 43.109L0 0H31.2039L62.3536 31.1664V31.7265C62.3536 34.7454 61.155 37.6405 59.0215 39.7752C56.888 41.9098 53.9944 43.109 50.9772 43.109H43.0859Z" transform="translate(591.578 467.195)" fill="#FFE37E"/>
<path d="M0 1.13826C0.427152 0.723678 0.885974 0.343094 1.37236 0C8.18015 7.02826 31.2941 29.974 42.4719 41.0494H39.8897L0 1.13826Z" transform="translate(562.145 469.256)" fill="#FFE37E"/>
<path d="M11.3764 0H83.8424C85.3363 0 86.8157 0.294407 88.1959 0.866433C89.5762 1.43846 90.8303 2.27688 91.8867 3.33384C92.9431 4.39081 93.7811 5.64564 94.3528 7.02663C94.9245 8.40762 95.2187 9.88773 95.2187 11.3825V12.322C95.2187 9.30321 94.0202 6.40802 91.8867 4.27339C89.7532 2.13875 86.8596 0.93949 83.8424 0.93949H11.3764C8.35918 0.93949 5.46554 2.13875 3.33205 4.27339C1.19856 6.40802 0 9.30321 0 12.322V11.3825C0 9.88773 0.294249 8.40762 0.865968 7.02663C1.43769 5.64564 2.27565 4.39081 3.33205 3.33384C4.38845 2.27688 5.64261 1.43846 7.02286 0.866433C8.40311 0.294407 9.88242 0 11.3764 0Z" transform="translate(558.637 467.195)" fill="#FFFFDB"/>
<path d="M1.11957 0H0V34.4547H1.11957V0Z" transform="translate(609.688 472.182)" fill="#FFFFD0"/>
<path d="M4.29777 0H0V34.4547H4.29777V0Z" transform="translate(615.105 506.637) rotate(-180)" fill="#FFBB00"/>
<path d="M13.3447 26.7038C20.7148 26.7038 26.6894 20.7259 26.6894 13.3519C26.6894 5.97787 20.7148 0 13.3447 0C5.9746 0 0 5.97787 0 13.3519C0 20.7259 5.9746 26.7038 13.3447 26.7038Z" transform="translate(620.23 476.066)" fill="#FFA03D"/>
<path d="M10.4374 20.886C16.2018 20.886 20.8748 16.2105 20.8748 10.443C20.8748 4.67549 16.2018 0 10.4374 0C4.67293 0 0 4.67549 0 10.443C0 16.2105 4.67293 20.886 10.4374 20.886Z" transform="translate(623.145 478.977)" fill="#FFDA00"/>
<path d="M10.4194 0.361372C7.68393 0.361039 5.05805 1.43703 3.10864 3.35705C1.15924 5.27708 0.0426674 7.88711 0 10.6237C0 10.6237 0 10.4972 0 10.443C0 7.67335 1.09967 5.01715 3.05706 3.0587C5.01446 1.10026 7.66923 0 10.4374 0C13.2056 0 15.8604 1.10026 17.8178 3.0587C19.7752 5.01715 20.8748 7.67335 20.8748 10.443C20.8748 10.443 20.8748 10.5695 20.8748 10.6237C20.8321 7.88084 19.7106 5.26536 17.7534 3.34432C15.7962 1.42328 13.1611 0.35153 10.4194 0.361372Z" transform="translate(623.16 478.977)" fill="#FFFA3E"/>
<path d="M0.361178 10.8164C0.358793 10.6052 0.398003 10.3957 0.476574 10.1997C0.555145 10.0036 0.671508 9.82508 0.819071 9.67408C0.966634 9.52308 1.1425 9.40265 1.33659 9.31965C1.53068 9.23666 1.73922 9.19272 1.95027 9.19036H2.07664C1.43341 8.70506 0.911248 8.07737 0.55097 7.35642C0.190692 6.63548 0.00208932 5.84083 0 5.0348C0.0140069 4.1196 0.273292 3.22499 0.750792 2.44427C1.22829 1.66354 1.90651 1.02537 2.71462 0.596384C3.52273 0.167395 4.43114 -0.0367073 5.34498 0.0054188C6.25883 0.0475449 7.14461 0.334329 7.90988 0.835847C8.67514 1.33736 9.29181 2.03524 9.69554 2.85659C10.0993 3.67793 10.2752 4.59263 10.2051 5.50523C10.1349 6.41784 9.82119 7.29491 9.29667 8.04482C8.77215 8.79472 8.05604 9.38996 7.22312 9.76847V13.5265C7.22639 14.0125 7.05784 14.484 6.74721 14.8576C6.43658 15.2312 6.00388 15.4829 5.52568 15.5682H5.23675H1.98637C2.22172 14.6995 2.19656 13.7807 1.91401 12.9262C1.63147 12.0716 1.104 11.3191 0.397274 10.7622L0.361178 10.8164Z" transform="translate(628.809 481.73)" fill="#FFFA3E"/>
<path d="M0.343102 10.8043C0.343102 10.3826 0.510533 9.97821 0.808544 9.68003C1.10656 9.38186 1.51074 9.21434 1.9322 9.21434H2.05856C1.35923 8.69341 0.804781 8.00216 0.447862 7.20628C0.0909426 6.41041 -0.0565453 5.53637 0.0194521 4.66736C0.0954496 3.79836 0.392361 2.96329 0.882003 2.24153C1.37165 1.51976 2.03772 0.935333 2.81685 0.543838C3.59597 0.152344 4.46227 -0.0331839 5.3333 0.00486807C6.20433 0.04292 7.0511 0.303297 7.79316 0.761246C8.53521 1.2192 9.14786 1.85949 9.57276 2.6212C9.99766 3.38292 10.2207 4.24071 10.2207 5.11304C10.2256 6.10161 9.9408 7.06994 9.40165 7.89837C8.8625 8.7268 8.09259 9.37906 7.18702 9.77448V13.388C7.18536 13.8687 7.01418 14.3334 6.70367 14.7003C6.39316 15.0672 5.96323 15.3126 5.48959 15.3934H5.20065H1.95022C2.18329 14.5384 2.15663 13.6333 1.87362 12.7934C1.59061 11.9536 1.06412 11.2172 0.361177 10.6779L0.343102 10.8043Z" transform="translate(628.832 481.832)" fill="#FFAB00"/>
<path d="M1.04738 10.6696C0.855813 10.6696 0.672045 10.5934 0.536585 10.4579C0.401126 10.3224 0.325026 10.1386 0.325026 9.94688C0.325026 9.75521 0.401126 9.5714 0.536585 9.43587C0.672045 9.30034 0.855813 9.22419 1.04738 9.22419H3.05177V8.32082C2.0717 8.03387 1.22792 7.40293 0.675237 6.54379C0.122559 5.68464 -0.101936 4.65494 0.0429277 3.64355C0.187791 2.63216 0.692292 1.70695 1.46389 1.03769C2.23548 0.368429 3.22242 0 4.24359 0C5.26476 0 6.2517 0.368429 7.0233 1.03769C7.79489 1.70695 8.29939 2.63216 8.44426 3.64355C8.58912 4.65494 8.36463 5.68464 7.81195 6.54379C7.25927 7.40293 6.41548 8.03387 5.43541 8.32082V12.6209C5.43266 12.9085 5.32449 13.1851 5.13144 13.3983C4.93839 13.6114 4.67385 13.7462 4.38803 13.7772H1.13765C0.94608 13.7772 0.762367 13.701 0.626908 13.5655C0.491448 13.43 0.415348 13.2462 0.415348 13.0545C0.415348 12.8628 0.491448 12.679 0.626908 12.5435C0.762367 12.4079 0.94608 12.3318 1.13765 12.3318H3.14209V10.6515L1.04738 10.6696Z" transform="translate(629.711 482.689)" fill="#E34300"/>
<path d="M22.5723 0H3.8644C1.73016 0 0 1.73104 0 3.86642V39.2426C0 41.378 1.73016 43.109 3.8644 43.109H22.5723C24.7065 43.109 26.4366 41.378 26.4366 39.2426V3.86642C26.4366 1.73104 24.7065 0 22.5723 0Z" transform="translate(551.945 510.324) rotate(-180)" fill="#FFFF8C"/>
<path d="M4.98397 0H21.4527C22.7745 0 24.0422 0.525366 24.9769 1.46054C25.9116 2.39572 26.4366 3.66411 26.4366 4.98665V5.49254C26.4366 4.17 25.9116 2.9016 24.9769 1.96643C24.0422 1.03125 22.7745 0.505888 21.4527 0.505888H4.98397C3.66214 0.505888 2.39443 1.03125 1.45976 1.96643C0.525084 2.9016 0 4.17 0 5.49254V4.98665C0 3.66411 0.525084 2.39572 1.45976 1.46054C2.39443 0.525366 3.66214 0 4.98397 0Z" transform="translate(525.543 467.195)" fill="#FFFFD1"/>
<path d="M158.114 0H13.4892C6.03931 0 0 6.04256 0 13.4964V13.5145C0 20.9683 6.03931 27.0109 13.4892 27.0109H158.114C165.564 27.0109 171.603 20.9683 171.603 13.5145V13.4964C171.603 6.04256 165.564 0 158.114 0Z" transform="translate(367.352 475.76)" fill="#2F0900"/>
<path d="M13.4892 1.10215H158.114C161.594 1.11291 164.936 2.46523 167.445 4.87792C169.954 7.2906 171.437 10.578 171.585 14.0565C171.585 13.8758 171.585 13.6952 171.585 13.4964C171.571 9.92134 170.145 6.49679 167.619 3.96881C165.092 1.44082 161.669 0.0142719 158.096 0H13.4892C9.91602 0.0142719 6.49327 1.44082 3.96665 3.96881C1.44002 6.49679 0.0142643 9.92134 0 13.4964C0 13.6771 0 13.8578 0 14.0565C0.1488 10.5748 1.63429 7.28485 4.14707 4.87169C6.65985 2.45852 10.0062 1.10827 13.4892 1.10215Z" transform="translate(367.352 475.76)" fill="#531A00"/>
<path d="M0 8.32915L3.756 0L28.7661 10.8405L0 36.6951" transform="translate(695.781 96.3701)" fill="#FF7F00"/>
<path d="M131.316 0L0 100.509L52.4218 127.737L131.316 0Z" transform="translate(701.195 0.0175781)" fill="#FFED37"/>
<path d="M131.316 0L0 100.509L52.1148 126.382L131.316 0Z" transform="translate(701.195 0.0175781)" fill="#FFBB00"/>
<path d="M195.512 0L43.4471 89.8677L0 70.4813L195.512 0Z" transform="translate(637 0.0175781)" fill="#FFD700"/>
<path d="M195.512 0L42.9414 88.4223L0 70.4813L195.512 0Z" transform="translate(637 0.0175781)" fill="#FF9200"/>
<path d="M0 88.4223L15.8367 133.049L21.254 100.509L152.57 0L0 88.4223Z" transform="translate(679.945 0.0175781)" fill="#D04E00"/>
<path d="M13.7059 100.509L145.022 0L0 109.67L8.28852 133.049L13.7059 100.509Z" transform="translate(687.492 0.0175781)" fill="#C03500"/>
<path d="M0 88.4223L152.57 0C152.57 0 73.2244 43.0549 0 88.4223Z" transform="translate(679.945)" fill="#FFBB00"/>
<path d="M17.5522 5.07696L15.2589 0L0 6.61271L17.5522 22.3676" transform="translate(65.8398 248.723)" fill="#FF7F00"/>
<path d="M0 0L80.0864 61.3031L48.106 77.889L0 0Z" transform="translate(0 189.968)" fill="#FFED37"/>
<path d="M0 0L80.0864 61.3031L48.3046 77.0579L0 0Z" transform="translate(0 189.968)" fill="#FFBB00"/>
<path d="M0 0L92.7268 54.7988L119.236 42.9826L0 0Z" transform="translate(0 189.968)" fill="#FFD700"/>
<path d="M0 0L93.0518 53.9135L119.236 42.9826L0 0Z" transform="translate(0 189.968)" fill="#FF9200"/>
<path d="M93.0518 53.9135L83.3909 81.1231L80.0864 61.3031L0 0L93.0518 53.9135Z" transform="translate(0 189.968)" fill="#D04E00"/>
<path d="M80.0863 61.3031L0 0L88.4471 66.8859L83.3909 81.1231L80.0863 61.3031Z" transform="translate(0 189.968)" fill="#C03500"/>
<path d="M93.0338 53.9315L0 0C0 0 48.431 26.2521 93.0338 53.9315Z" transform="translate(0 189.95)" fill="#FFBB00"/>
<path d="M284.722 99H277.663C277.24 99.0006 276.821 98.9523 276.432 98.8584C276.043 98.7644 275.693 98.6267 275.404 98.4538C275.115 98.2809 274.892 98.0765 274.751 97.8535C274.609 97.6305 274.552 97.3935 274.581 97.1575C274.629 96.6885 274.998 96.2478 275.612 95.9271C276.227 95.6064 277.038 95.4303 277.879 95.4355C281.989 95.4929 286.242 95.4929 290.639 95.4355C291.48 95.4303 292.292 95.6064 292.906 95.9271C293.52 96.2478 293.89 96.6885 293.937 97.1575C293.967 97.3935 293.909 97.6305 293.768 97.8535C293.626 98.0765 293.404 98.2809 293.114 98.4538C292.825 98.6267 292.475 98.7644 292.087 98.8584C291.698 98.9523 291.279 99.0006 290.855 99H284.722ZM303.554 98.6556C303.131 98.6635 302.709 98.6248 302.313 98.5416C301.917 98.4585 301.554 98.3327 301.245 98.1712C300.935 98.0097 300.686 97.8157 300.511 97.6004C300.336 97.3851 300.239 97.1527 300.225 96.9164C300.211 96.6801 300.28 96.4445 300.429 96.2232C300.578 96.0018 300.803 95.799 301.092 95.6263C301.381 95.4536 301.728 95.3144 302.113 95.2167C302.499 95.1189 302.915 95.0646 303.338 95.0566C307.56 94.9017 311.845 94.695 316.067 94.4367C316.917 94.3842 317.77 94.5225 318.438 94.8212C319.105 95.1199 319.533 95.5546 319.627 96.0296C319.721 96.5045 319.474 96.9809 318.939 97.3539C318.404 97.7269 317.626 97.9659 316.776 98.0185C312.461 98.2767 308.084 98.5006 303.769 98.6556H303.554ZM264.842 98.6556H264.626C260.342 98.4834 255.965 98.2595 251.619 97.984C250.769 97.9292 249.993 97.688 249.461 97.3134C248.929 96.9388 248.685 96.4615 248.784 95.9865C248.882 95.5116 249.313 95.0778 249.984 94.7807C250.654 94.4836 251.509 94.3475 252.359 94.4023C256.581 94.6778 260.866 94.9017 265.057 95.0739C265.48 95.0818 265.896 95.1362 266.282 95.2339C266.667 95.3316 267.014 95.4708 267.303 95.6435C267.592 95.8162 267.818 96.0191 267.966 96.2404C268.115 96.4618 268.185 96.6973 268.17 96.9336C268.156 97.1699 268.059 97.4024 267.884 97.6177C267.709 97.8329 267.46 98.0268 267.151 98.1883C266.842 98.3498 266.479 98.4758 266.082 98.5589C265.686 98.642 265.265 98.6807 264.842 98.6728V98.6556ZM329.228 97.1402C328.378 97.1768 327.537 97.0231 326.889 96.7131C326.242 96.4031 325.841 95.9621 325.776 95.4871C325.711 95.0122 325.986 94.5422 326.541 94.1805C327.095 93.8188 327.885 93.5951 328.735 93.5585C332.896 93.1969 337.149 92.7836 341.341 92.3359C341.758 92.2907 342.187 92.2918 342.603 92.3391C343.019 92.3865 343.414 92.4792 343.766 92.6119C344.118 92.7446 344.42 92.9148 344.655 93.1126C344.889 93.3105 345.051 93.5322 345.132 93.7652C345.213 93.9981 345.211 94.2376 345.126 94.4701C345.042 94.7026 344.876 94.9235 344.638 95.1202C344.401 95.3169 344.096 95.4855 343.742 95.6164C343.388 95.7473 342.991 95.838 342.574 95.8832C338.29 96.3482 333.975 96.7614 329.721 97.123L329.228 97.1402ZM239.229 96.9853H238.705C234.421 96.5892 230.106 96.1415 225.883 95.6421C225.468 95.5935 225.074 95.4997 224.724 95.3661C224.374 95.2324 224.075 95.0616 223.843 94.8634C223.611 94.6651 223.452 94.4432 223.373 94.2105C223.295 93.9777 223.299 93.7387 223.386 93.5069C223.473 93.2751 223.641 93.0552 223.88 92.8596C224.12 92.6641 224.425 92.4967 224.78 92.3672C225.135 92.2377 225.532 92.1485 225.949 92.1047C226.365 92.0609 226.793 92.0635 227.208 92.1121C231.338 92.5942 235.561 93.0419 239.753 93.4207C240.174 93.44 240.584 93.5053 240.959 93.6131C241.335 93.7208 241.669 93.8689 241.943 94.0488C242.216 94.2287 242.423 94.4369 242.552 94.6615C242.682 94.8862 242.731 95.1228 242.696 95.358C242.662 95.5932 242.545 95.8223 242.352 96.0322C242.159 96.2421 241.894 96.4287 241.572 96.5815C241.25 96.7342 240.877 96.85 240.475 96.9222C240.073 96.9944 239.65 97.0217 239.229 97.0025V96.9853ZM354.594 94.4023C354.175 94.4294 353.751 94.4102 353.345 94.3457C352.94 94.2812 352.561 94.1727 352.23 94.0264C351.9 93.8801 351.624 93.6989 351.419 93.493C351.214 93.2872 351.083 93.0607 351.034 92.8267C350.986 92.5926 351.02 92.3555 351.136 92.1289C351.251 91.9023 351.445 91.6906 351.707 91.5059C351.969 91.3212 352.294 91.1672 352.662 91.0526C353.03 90.9379 353.436 90.8649 353.855 90.8378C357.985 90.2868 362.146 89.7013 366.183 89.1158C367.001 88.9879 367.876 89.0467 368.615 89.2792C369.355 89.5117 369.9 89.8989 370.128 90.3556C370.357 90.8123 370.252 91.3011 369.836 91.7145C369.42 92.1278 368.727 92.4319 367.909 92.5598C363.718 93.2141 359.495 93.8168 355.272 94.2817L354.594 94.4023ZM213.986 94.0062C213.72 94.0257 213.45 94.0257 213.184 94.0062C208.993 93.4035 204.77 92.732 200.64 92.0088C199.823 91.8672 199.139 91.55 198.74 91.1269C198.342 90.7039 198.26 90.2096 198.513 89.7529C198.767 89.2962 199.334 88.9145 200.092 88.6917C200.849 88.4688 201.734 88.4232 202.551 88.5648C206.589 89.2536 210.719 89.9079 214.88 90.5106C215.297 90.54 215.699 90.615 216.064 90.7313C216.429 90.8476 216.749 91.0029 217.007 91.1884C217.265 91.3739 217.454 91.5859 217.565 91.8123C217.676 92.0388 217.706 92.2752 217.654 92.5081C217.601 92.741 217.467 92.9659 217.259 93.1698C217.05 93.3738 216.772 93.5528 216.44 93.6967C216.108 93.8406 215.729 93.9466 215.324 94.0085C214.918 94.0705 214.495 94.0873 214.078 94.0579L213.986 94.0062ZM379.498 90.5623C378.681 90.6353 377.845 90.524 377.174 90.2527C376.504 89.9815 376.054 89.5725 375.923 89.1158C375.792 88.6591 375.992 88.1921 376.477 87.8175C376.963 87.4429 377.695 87.1914 378.512 87.1183C382.55 86.4123 386.649 85.6374 390.656 84.8453C391.473 84.6855 392.371 84.7136 393.151 84.9235C393.931 85.1334 394.531 85.5079 394.817 85.9646C395.103 86.4213 395.052 86.9228 394.677 87.3587C394.301 87.7947 393.631 88.1294 392.813 88.2893C388.714 89.0986 384.584 89.8735 380.485 90.6139C380.136 90.6062 379.792 90.5655 379.467 90.4934L379.498 90.5623ZM189.328 89.7702C188.961 89.772 188.595 89.737 188.25 89.6668C184.212 88.8575 180.113 87.9449 175.921 87.0667C175.128 86.8863 174.496 86.5373 174.164 86.0965C173.831 85.6557 173.826 85.1592 174.149 84.7162C174.472 84.2732 175.096 83.92 175.885 83.7343C176.674 83.5486 177.563 83.5456 178.356 83.726C182.332 84.6214 186.339 85.448 190.284 86.2746C191.101 86.3545 191.828 86.6125 192.305 86.992C192.782 87.3714 192.97 87.8412 192.827 88.2979C192.684 88.7546 192.222 89.1608 191.543 89.4272C190.863 89.6936 190.023 89.7984 189.205 89.7185L189.328 89.7702ZM165.411 84.3459C164.952 84.3444 164.499 84.2856 164.085 84.1737C160.171 83.175 156.195 82.1074 152.342 81.0053C151.578 80.7884 150.999 80.4107 150.733 79.9553C150.468 79.5 150.536 79.0043 150.925 78.5773C151.313 78.1503 151.989 77.827 152.804 77.6784C153.619 77.5299 154.506 77.5683 155.27 77.7852C159.062 78.8701 162.945 79.9032 166.798 80.8848C167.615 80.9852 168.328 81.263 168.779 81.657C169.229 82.051 169.382 82.5289 169.202 82.9856C169.022 83.4423 168.525 83.8403 167.82 84.0922C167.114 84.3441 166.259 84.4292 165.442 84.3287L165.411 84.3459ZM142.356 77.8196C141.807 77.8208 141.266 77.7437 140.784 77.5958C136.993 76.4248 133.202 75.185 129.504 73.928C128.772 73.6791 128.247 73.278 128.045 72.813C127.843 72.348 127.979 71.8571 128.425 71.4483C128.87 71.0396 129.588 70.7465 130.421 70.6334C131.253 70.5204 132.132 70.5967 132.863 70.8456C136.5 72.0855 140.199 73.2908 143.928 74.4446C144.746 74.561 145.447 74.8541 145.877 75.2594C146.308 75.6647 146.433 76.149 146.224 76.6057C146.016 77.0624 145.491 77.4541 144.766 77.6947C144.04 77.9353 143.174 78.005 142.356 77.8885V77.8196ZM120.226 70.2429C119.591 70.2507 118.966 70.1484 118.439 69.9502C114.832 68.6243 111.226 67.2295 107.682 65.8347C106.983 65.5561 106.511 65.1338 106.369 64.6607C106.227 64.1876 106.428 63.7025 106.927 63.312C107.425 62.9215 108.181 62.6577 109.028 62.5786C109.875 62.4995 110.743 62.6115 111.442 62.8901C114.925 64.2677 118.469 65.6452 122.014 66.9367C122.799 67.0692 123.457 67.3704 123.844 67.7741C124.232 68.1777 124.316 68.6508 124.079 69.0892C123.842 69.5276 123.303 69.8955 122.58 70.1119C121.858 70.3282 121.011 70.3754 120.226 70.2429ZM99.175 61.8742C98.4586 61.8798 97.7611 61.7458 97.2024 61.4953C93.7812 60.0316 90.36 58.5163 87.0004 56.9665C86.6726 56.8161 86.401 56.6311 86.2011 56.4221C86.0012 56.2131 85.877 55.9841 85.8354 55.7482C85.794 55.5124 85.836 55.2743 85.9592 55.0475C86.0824 54.8207 86.2843 54.6097 86.5535 54.4266C86.8227 54.2434 87.1538 54.0916 87.5279 53.98C87.9021 53.8683 88.3119 53.7989 88.7341 53.7757C89.1562 53.7525 89.5824 53.776 89.9883 53.8448C90.3942 53.9137 90.7719 54.0265 91.0997 54.1769C94.4285 55.6923 97.788 57.1903 101.148 58.6196C101.828 58.8016 102.365 59.1167 102.657 59.5052C102.95 59.8937 102.977 60.3286 102.734 60.7275C102.491 61.1264 101.994 61.4618 101.338 61.6699C100.683 61.878 99.9128 61.9446 99.175 61.8569V61.8742ZM79.295 52.7132C78.5099 52.7208 77.7493 52.5606 77.1683 52.2655C73.8396 50.6354 70.6136 49.0052 67.4903 47.3751C66.865 47.0485 66.4974 46.5966 66.4685 46.1186C66.4396 45.6407 66.7517 45.1759 67.3362 44.8265C67.9207 44.4772 68.7296 44.2718 69.5851 44.2557C70.4405 44.2395 71.2725 44.4139 71.8978 44.7405C74.9594 46.3362 78.1341 47.9376 81.4217 49.5448C82.0354 49.753 82.4997 50.0744 82.7345 50.4535C82.9692 50.8326 82.9598 51.2456 82.7077 51.6212C82.4556 51.9968 81.9767 52.3114 81.3536 52.5108C80.7306 52.7102 80.0025 52.7818 79.295 52.7132ZM60.3705 42.8635C59.9472 42.8695 59.5262 42.8268 59.1338 42.7379C58.7414 42.649 58.3859 42.5159 58.0897 42.3469C54.9253 40.5905 51.8431 38.8685 48.8432 37.181C48.2546 36.8339 47.937 36.3704 47.9601 35.8925C47.9832 35.4145 48.3452 34.9613 48.9665 34.6325C49.5877 34.3036 50.4173 34.1261 51.2728 34.1391C52.1283 34.152 52.9395 34.3542 53.5281 34.7013C56.4048 36.3888 59.3945 38.1108 62.4972 39.8672C63.0441 40.0965 63.4389 40.421 63.6197 40.7894C63.8004 41.1578 63.7567 41.5494 63.4955 41.9024C63.2343 42.2554 62.7703 42.5499 62.1767 42.7395C61.5831 42.9291 60.8934 43.003 60.2164 42.9496L60.3705 42.8635ZM42.4631 32.3594C42.0076 32.3645 41.5557 32.3131 41.14 32.2089C40.7243 32.1047 40.3551 31.9502 40.059 31.7567C37.0385 29.874 34.1926 28.043 31.5214 26.2636C30.9696 25.8983 30.7002 25.4254 30.7725 24.9491C30.8447 24.4728 31.2527 24.032 31.9067 23.7237C32.5606 23.4154 33.407 23.2649 34.2595 23.3053C35.1121 23.3456 35.9011 23.5736 36.4529 23.9389C39.1035 25.6609 41.9083 27.5035 44.8672 29.3632C45.37 29.6048 45.7199 29.9304 45.8651 30.2919C46.0102 30.6534 45.9428 31.0315 45.6728 31.3699C45.4028 31.7082 44.9447 31.989 44.3665 32.1704C43.7883 32.3517 43.1208 32.4241 42.4631 32.3767V32.3594ZM25.7577 21.3043C25.2689 21.3097 24.7847 21.2501 24.3452 21.1304C23.9058 21.0106 23.5236 20.8341 23.2303 20.6155C20.1482 18.5492 17.6516 16.6206 15.2783 14.8297C14.7674 14.4461 14.5502 13.9648 14.6745 13.4917C14.7988 13.0186 15.2544 12.5925 15.941 12.307C16.6277 12.0216 17.4892 11.9002 18.336 11.9696C19.1828 12.0391 19.9455 12.2936 20.4564 12.6772C22.7989 14.3992 25.3879 16.345 28.2851 18.3597C28.7363 18.6124 29.0358 18.9371 29.1423 19.289C29.2487 19.641 29.1568 20.0026 28.8793 20.3241C28.6017 20.6455 28.1523 20.9109 27.5931 21.0834C27.0339 21.256 26.3925 21.3271 25.7577 21.2871V21.3043ZM10.3469 9.68096C9.82366 9.68816 9.30573 9.62083 8.84198 9.48526C8.37823 9.34969 7.98394 9.15038 7.69623 8.9061C2.98051 5.08331 0.576403 2.8103 0.453117 2.72421C0.0157851 2.31318 -0.111386 1.82193 0.0995909 1.35852C0.310568 0.895112 0.842428 0.497505 1.57813 0.253172C2.31382 0.00883907 3.19311 -0.0622365 4.02257 0.0556342C4.85202 0.173505 5.5637 0.47065 6.00103 0.881677C6.00103 0.881677 8.40514 3.13747 12.9976 6.85694C13.3923 7.11852 13.6386 7.43988 13.705 7.77999C13.7715 8.12011 13.6551 8.46358 13.3707 8.76658C13.0863 9.06958 12.6468 9.31835 12.1082 9.48121C11.5697 9.64408 10.9565 9.71362 10.3469 9.68096Z" transform="translate(93 277)" fill="#FFFA32"/>
<path d="M284.722 99H277.663C277.24 99.0006 276.821 98.9523 276.432 98.8584C276.043 98.7644 275.693 98.6267 275.404 98.4538C275.115 98.2809 274.892 98.0765 274.751 97.8535C274.609 97.6305 274.552 97.3935 274.581 97.1575C274.629 96.6885 274.998 96.2478 275.612 95.9271C276.227 95.6064 277.038 95.4303 277.879 95.4355C281.989 95.4929 286.242 95.4929 290.639 95.4355C291.48 95.4303 292.292 95.6064 292.906 95.9271C293.52 96.2478 293.89 96.6885 293.937 97.1575C293.967 97.3935 293.909 97.6305 293.768 97.8535C293.626 98.0765 293.404 98.2809 293.114 98.4538C292.825 98.6267 292.475 98.7644 292.087 98.8584C291.698 98.9523 291.279 99.0006 290.855 99H284.722ZM303.554 98.6556C303.131 98.6635 302.709 98.6248 302.313 98.5416C301.917 98.4585 301.554 98.3327 301.245 98.1712C300.935 98.0097 300.686 97.8157 300.511 97.6004C300.336 97.3851 300.239 97.1527 300.225 96.9164C300.211 96.6801 300.28 96.4445 300.429 96.2232C300.578 96.0018 300.803 95.799 301.092 95.6263C301.381 95.4536 301.728 95.3144 302.113 95.2167C302.499 95.1189 302.915 95.0646 303.338 95.0566C307.56 94.9017 311.845 94.695 316.067 94.4367C316.917 94.3842 317.77 94.5225 318.438 94.8212C319.105 95.1199 319.533 95.5546 319.627 96.0296C319.721 96.5045 319.474 96.9809 318.939 97.3539C318.404 97.7269 317.626 97.9659 316.776 98.0185C312.461 98.2767 308.084 98.5006 303.769 98.6556H303.554ZM264.842 98.6556H264.626C260.342 98.4834 255.965 98.2595 251.619 97.984C250.769 97.9292 249.993 97.688 249.461 97.3134C248.929 96.9388 248.685 96.4615 248.784 95.9865C248.882 95.5116 249.313 95.0778 249.984 94.7807C250.654 94.4836 251.509 94.3475 252.359 94.4023C256.581 94.6778 260.866 94.9017 265.057 95.0739C265.48 95.0818 265.896 95.1362 266.282 95.2339C266.667 95.3316 267.014 95.4708 267.303 95.6435C267.592 95.8162 267.818 96.0191 267.966 96.2404C268.115 96.4618 268.185 96.6973 268.17 96.9336C268.156 97.1699 268.059 97.4024 267.884 97.6177C267.709 97.8329 267.46 98.0268 267.151 98.1883C266.842 98.3498 266.479 98.4758 266.082 98.5589C265.686 98.642 265.265 98.6807 264.842 98.6728V98.6556ZM329.228 97.1402C328.378 97.1768 327.537 97.0231 326.889 96.7131C326.242 96.4031 325.841 95.9621 325.776 95.4871C325.711 95.0122 325.986 94.5422 326.541 94.1805C327.095 93.8188 327.885 93.5951 328.735 93.5585C332.896 93.1969 337.149 92.7836 341.341 92.3359C341.758 92.2907 342.187 92.2918 342.603 92.3391C343.019 92.3865 343.414 92.4792 343.766 92.6119C344.118 92.7446 344.42 92.9148 344.655 93.1126C344.889 93.3105 345.051 93.5322 345.132 93.7652C345.213 93.9981 345.211 94.2376 345.126 94.4701C345.042 94.7026 344.876 94.9235 344.638 95.1202C344.401 95.3169 344.096 95.4855 343.742 95.6164C343.388 95.7473 342.991 95.838 342.574 95.8832C338.29 96.3482 333.975 96.7614 329.721 97.123L329.228 97.1402ZM239.229 96.9853H238.705C234.421 96.5892 230.106 96.1415 225.883 95.6421C225.468 95.5935 225.074 95.4997 224.724 95.3661C224.374 95.2324 224.075 95.0616 223.843 94.8634C223.611 94.6651 223.452 94.4432 223.373 94.2105C223.295 93.9777 223.299 93.7387 223.386 93.5069C223.473 93.2751 223.641 93.0552 223.88 92.8596C224.12 92.6641 224.425 92.4967 224.78 92.3672C225.135 92.2377 225.532 92.1485 225.949 92.1047C226.365 92.0609 226.793 92.0635 227.208 92.1121C231.338 92.5942 235.561 93.0419 239.753 93.4207C240.174 93.44 240.584 93.5053 240.959 93.6131C241.335 93.7208 241.669 93.8689 241.943 94.0488C242.216 94.2287 242.423 94.4369 242.552 94.6615C242.682 94.8862 242.731 95.1228 242.696 95.358C242.662 95.5932 242.545 95.8223 242.352 96.0322C242.159 96.2421 241.894 96.4287 241.572 96.5815C241.25 96.7342 240.877 96.85 240.475 96.9222C240.073 96.9944 239.65 97.0217 239.229 97.0025V96.9853ZM354.594 94.4023C354.175 94.4294 353.751 94.4102 353.345 94.3457C352.94 94.2812 352.561 94.1727 352.23 94.0264C351.9 93.8801 351.624 93.6989 351.419 93.493C351.214 93.2872 351.083 93.0607 351.034 92.8267C350.986 92.5926 351.02 92.3555 351.136 92.1289C351.251 91.9023 351.445 91.6906 351.707 91.5059C351.969 91.3212 352.294 91.1672 352.662 91.0526C353.03 90.9379 353.436 90.8649 353.855 90.8378C357.985 90.2868 362.146 89.7013 366.183 89.1158C367.001 88.9879 367.876 89.0467 368.615 89.2792C369.355 89.5117 369.9 89.8989 370.128 90.3556C370.357 90.8123 370.252 91.3011 369.836 91.7145C369.42 92.1278 368.727 92.4319 367.909 92.5598C363.718 93.2141 359.495 93.8168 355.272 94.2817L354.594 94.4023ZM213.986 94.0062C213.72 94.0257 213.45 94.0257 213.184 94.0062C208.993 93.4035 204.77 92.732 200.64 92.0088C199.823 91.8672 199.139 91.55 198.74 91.1269C198.342 90.7039 198.26 90.2096 198.513 89.7529C198.767 89.2962 199.334 88.9145 200.092 88.6917C200.849 88.4688 201.734 88.4232 202.551 88.5648C206.589 89.2536 210.719 89.9079 214.88 90.5106C215.297 90.54 215.699 90.615 216.064 90.7313C216.429 90.8476 216.749 91.0029 217.007 91.1884C217.265 91.3739 217.454 91.5859 217.565 91.8123C217.676 92.0388 217.706 92.2752 217.654 92.5081C217.601 92.741 217.467 92.9659 217.259 93.1698C217.05 93.3738 216.772 93.5528 216.44 93.6967C216.108 93.8406 215.729 93.9466 215.324 94.0085C214.918 94.0705 214.495 94.0873 214.078 94.0579L213.986 94.0062ZM379.498 90.5623C378.681 90.6353 377.845 90.524 377.174 90.2527C376.504 89.9815 376.054 89.5725 375.923 89.1158C375.792 88.6591 375.992 88.1921 376.477 87.8175C376.963 87.4429 377.695 87.1914 378.512 87.1183C382.55 86.4123 386.649 85.6374 390.656 84.8453C391.473 84.6855 392.371 84.7136 393.151 84.9235C393.931 85.1334 394.531 85.5079 394.817 85.9646C395.103 86.4213 395.052 86.9228 394.677 87.3587C394.301 87.7947 393.631 88.1294 392.813 88.2893C388.714 89.0986 384.584 89.8735 380.485 90.6139C380.136 90.6062 379.792 90.5655 379.467 90.4934L379.498 90.5623ZM189.328 89.7702C188.961 89.772 188.595 89.737 188.25 89.6668C184.212 88.8575 180.113 87.9449 175.921 87.0667C175.128 86.8863 174.496 86.5373 174.164 86.0965C173.831 85.6557 173.826 85.1592 174.149 84.7162C174.472 84.2732 175.096 83.92 175.885 83.7343C176.674 83.5486 177.563 83.5456 178.356 83.726C182.332 84.6214 186.339 85.448 190.284 86.2746C191.101 86.3545 191.828 86.6125 192.305 86.992C192.782 87.3714 192.97 87.8412 192.827 88.2979C192.684 88.7546 192.222 89.1608 191.543 89.4272C190.863 89.6936 190.023 89.7984 189.205 89.7185L189.328 89.7702ZM165.411 84.3459C164.952 84.3444 164.499 84.2856 164.085 84.1737C160.171 83.175 156.195 82.1074 152.342 81.0053C151.578 80.7884 150.999 80.4107 150.733 79.9553C150.468 79.5 150.536 79.0043 150.925 78.5773C151.313 78.1503 151.989 77.827 152.804 77.6784C153.619 77.5299 154.506 77.5683 155.27 77.7852C159.062 78.8701 162.945 79.9032 166.798 80.8848C167.615 80.9852 168.328 81.263 168.779 81.657C169.229 82.051 169.382 82.5289 169.202 82.9856C169.022 83.4423 168.525 83.8403 167.82 84.0922C167.114 84.3441 166.259 84.4292 165.442 84.3287L165.411 84.3459ZM142.356 77.8196C141.807 77.8208 141.266 77.7437 140.784 77.5958C136.993 76.4248 133.202 75.185 129.504 73.928C128.772 73.6791 128.247 73.278 128.045 72.813C127.843 72.348 127.979 71.8571 128.425 71.4483C128.87 71.0396 129.588 70.7465 130.421 70.6334C131.253 70.5204 132.132 70.5967 132.863 70.8456C136.5 72.0855 140.199 73.2908 143.928 74.4446C144.746 74.561 145.447 74.8541 145.877 75.2594C146.308 75.6647 146.433 76.149 146.224 76.6057C146.016 77.0624 145.491 77.4541 144.766 77.6947C144.04 77.9353 143.174 78.005 142.356 77.8885V77.8196ZM120.226 70.2429C119.591 70.2507 118.966 70.1484 118.439 69.9502C114.832 68.6243 111.226 67.2295 107.682 65.8347C106.983 65.5561 106.511 65.1338 106.369 64.6607C106.227 64.1876 106.428 63.7025 106.927 63.312C107.425 62.9215 108.181 62.6577 109.028 62.5786C109.875 62.4995 110.743 62.6115 111.442 62.8901C114.925 64.2677 118.469 65.6452 122.014 66.9367C122.799 67.0692 123.457 67.3704 123.844 67.7741C124.232 68.1777 124.316 68.6508 124.079 69.0892C123.842 69.5276 123.303 69.8955 122.58 70.1119C121.858 70.3282 121.011 70.3754 120.226 70.2429ZM99.175 61.8742C98.4586 61.8798 97.7611 61.7458 97.2024 61.4953C93.7812 60.0316 90.36 58.5163 87.0004 56.9665C86.6726 56.8161 86.401 56.6311 86.2011 56.4221C86.0012 56.2131 85.877 55.9841 85.8354 55.7482C85.794 55.5124 85.836 55.2743 85.9592 55.0475C86.0824 54.8207 86.2843 54.6097 86.5535 54.4266C86.8227 54.2434 87.1538 54.0916 87.5279 53.98C87.9021 53.8683 88.3119 53.7989 88.7341 53.7757C89.1562 53.7525 89.5824 53.776 89.9883 53.8448C90.3942 53.9137 90.7719 54.0265 91.0997 54.1769C94.4285 55.6923 97.788 57.1903 101.148 58.6196C101.828 58.8016 102.365 59.1167 102.657 59.5052C102.95 59.8937 102.977 60.3286 102.734 60.7275C102.491 61.1264 101.994 61.4618 101.338 61.6699C100.683 61.878 99.9128 61.9446 99.175 61.8569V61.8742ZM79.295 52.7132C78.5099 52.7208 77.7493 52.5606 77.1683 52.2655C73.8396 50.6354 70.6136 49.0052 67.4903 47.3751C66.865 47.0485 66.4974 46.5966 66.4685 46.1186C66.4396 45.6407 66.7517 45.1759 67.3362 44.8265C67.9207 44.4772 68.7296 44.2718 69.5851 44.2557C70.4405 44.2395 71.2725 44.4139 71.8978 44.7405C74.9594 46.3362 78.1341 47.9376 81.4217 49.5448C82.0354 49.753 82.4997 50.0744 82.7345 50.4535C82.9692 50.8326 82.9598 51.2456 82.7077 51.6212C82.4556 51.9968 81.9767 52.3114 81.3536 52.5108C80.7306 52.7102 80.0025 52.7818 79.295 52.7132ZM60.3705 42.8635C59.9472 42.8695 59.5262 42.8268 59.1338 42.7379C58.7414 42.649 58.3859 42.5159 58.0897 42.3469C54.9253 40.5905 51.8431 38.8685 48.8432 37.181C48.2546 36.8339 47.937 36.3704 47.9601 35.8925C47.9832 35.4145 48.3452 34.9613 48.9665 34.6325C49.5877 34.3036 50.4173 34.1261 51.2728 34.1391C52.1283 34.152 52.9395 34.3542 53.5281 34.7013C56.4048 36.3888 59.3945 38.1108 62.4972 39.8672C63.0441 40.0965 63.4389 40.421 63.6197 40.7894C63.8004 41.1578 63.7567 41.5494 63.4955 41.9024C63.2343 42.2554 62.7703 42.5499 62.1767 42.7395C61.5831 42.9291 60.8934 43.003 60.2164 42.9496L60.3705 42.8635ZM42.4631 32.3594C42.0076 32.3645 41.5557 32.3131 41.14 32.2089C40.7243 32.1047 40.3551 31.9502 40.059 31.7567C37.0385 29.874 34.1926 28.043 31.5214 26.2636C30.9696 25.8983 30.7002 25.4254 30.7725 24.9491C30.8447 24.4728 31.2527 24.032 31.9067 23.7237C32.5606 23.4154 33.407 23.2649 34.2595 23.3053C35.1121 23.3456 35.9011 23.5736 36.4529 23.9389C39.1035 25.6609 41.9083 27.5035 44.8672 29.3632C45.37 29.6048 45.7199 29.9304 45.8651 30.2919C46.0102 30.6534 45.9428 31.0315 45.6728 31.3699C45.4028 31.7082 44.9447 31.989 44.3665 32.1704C43.7883 32.3517 43.1208 32.4241 42.4631 32.3767V32.3594ZM25.7577 21.3043C25.2689 21.3097 24.7847 21.2501 24.3452 21.1304C23.9058 21.0106 23.5236 20.8341 23.2303 20.6155C20.1482 18.5492 17.6516 16.6206 15.2783 14.8297C14.7674 14.4461 14.5502 13.9648 14.6745 13.4917C14.7988 13.0186 15.2544 12.5925 15.941 12.307C16.6277 12.0216 17.4892 11.9002 18.336 11.9696C19.1828 12.0391 19.9455 12.2936 20.4564 12.6772C22.7989 14.3992 25.3879 16.345 28.2851 18.3597C28.7363 18.6124 29.0358 18.9371 29.1423 19.289C29.2487 19.641 29.1568 20.0026 28.8793 20.3241C28.6017 20.6455 28.1523 20.9109 27.5931 21.0834C27.0339 21.256 26.3925 21.3271 25.7577 21.2871V21.3043ZM10.3469 9.68096C9.82366 9.68816 9.30573 9.62083 8.84198 9.48526C8.37823 9.34969 7.98394 9.15038 7.69623 8.9061C2.98051 5.08331 0.576403 2.8103 0.453117 2.72421C0.0157851 2.31318 -0.111386 1.82193 0.0995909 1.35852C0.310568 0.895112 0.842428 0.497505 1.57813 0.253172C2.31382 0.00883907 3.19311 -0.0622365 4.02257 0.0556342C4.85202 0.173505 5.5637 0.47065 6.00103 0.881677C6.00103 0.881677 8.40514 3.13747 12.9976 6.85694C13.3923 7.11852 13.6386 7.43988 13.705 7.77999C13.7715 8.12011 13.6551 8.46358 13.3707 8.76658C13.0863 9.06958 12.6468 9.31835 12.1082 9.48121C11.5697 9.64408 10.9565 9.71362 10.3469 9.68096Z" transform="translate(691.637 141) scale(-1 1) rotate(33.6965)" fill="#FFFF62"/>
<path d="M21.9403 0L25.4796 18.4108L43.8805 21.952L25.4796 25.5113L21.9403 43.9221L18.4009 25.5113L0 21.952L18.4009 18.4108L21.9403 0Z" transform="translate(568 31)" fill="#FFFF62"/>
<path d="M21.9403 0L25.4976 18.4108L43.8985 21.952L25.4976 25.4932L21.9403 43.9221L18.4009 25.4932L0 21.952L18.4009 18.4108L21.9403 0Z" transform="translate(103 406)" fill="#FFFF62"/>
<path d="M12.7488 0L14.8074 10.6959L25.4977 12.7556L14.8074 14.8153L12.7488 25.4932L10.6902 14.8153L0 12.7556L10.6902 10.6959L12.7488 0Z" transform="translate(143 343)" fill="#FFFF62"/>
<path d="M21.868 0L25.4073 18.3566L43.7541 21.8978L25.4073 25.4209L21.868 43.7775L18.3287 25.4209L0 21.8978L18.3287 18.3566L21.868 0Z" transform="translate(721 359)" fill="#FFFF62"/>
<path d="M21.868 0L25.4073 18.3566L43.7541 21.8978L25.4073 25.4209L21.868 43.7775L18.3287 25.4209L0 21.8978L18.3287 18.3566L21.868 0Z" transform="translate(587 122)" fill="#FFFF62"/>
<path d="M13.9586 0L16.2159 11.7078L27.9173 13.9662L16.2159 16.2246L13.9586 27.9323L11.7014 16.2246L0 13.9662L11.7014 11.7078L13.9586 0Z" transform="translate(272.66 110.037)" fill="#FFFF62"/>
<path d="M13.9586 0L16.2159 11.7078L27.9173 13.9662L16.2159 16.2246L13.9586 27.9323L11.7014 16.2246L0 13.9662L11.7014 11.7078L13.9586 0Z" transform="translate(208 53)" fill="#FFFF62"/>
<path d="M5.32707 0L6.19381 4.4807L10.6722 5.34796L6.19381 6.21517L5.32707 10.6959L4.47835 6.21517L0 5.34796L4.47835 4.4807L5.32707 0Z" transform="translate(211.188 306.105)" fill="#FFFF62"/>
<path d="M5.32707 0L6.19381 4.4807L10.6722 5.34796L6.19381 6.21517L5.32707 10.6959L4.47835 6.21517L0 5.34796L4.47835 4.4807L5.32707 0Z" transform="translate(175 263)" fill="#FFFF62"/>
<path d="M5.34509 0L6.19381 4.48076L10.6722 5.34802L6.19381 6.21522L5.34509 10.696L4.4783 6.21522L0 5.34802L4.4783 4.48076L5.34509 0Z" transform="translate(273.113 261.172)" fill="#FFFF62"/>
<path d="M5.34509 0L6.21189 4.4807L10.6902 5.32988L6.21189 6.19714L5.34509 10.6779L4.47835 6.19714L0 5.32988L4.47835 4.4807L5.34509 0Z" transform="translate(253.102 293.439)" fill="#FFFF62"/>
<path d="M10.9611 0L12.7307 9.19635L21.9222 10.9669L12.7307 12.7376L10.9611 21.9158L9.19147 12.7376L0 10.9669L9.19147 9.19635L10.9611 0Z" transform="translate(699 238)" fill="#FFFF62"/>
<path d="M6.35638 0L7.38569 5.32993L12.7308 6.35974L7.38569 7.3896L6.35638 12.7195L5.32707 7.3896L0 6.35974L5.32707 5.32993L6.35638 0Z" transform="translate(640.242 235.948)" fill="#FFFF62"/>
</svg>
