<svg width="1920" height="960" viewBox="0 0 1920 960" fill="none" xmlns="http://www.w3.org/2000/svg">
<rect width="1920" height="960" fill="url(#paint0_radial)"/>
<path d="M0 7.17123V341.829H239.74V265.336H86.9646V210.834H222.817V134.819H86.9646V83.6644H236.92V7.17123H0Z" transform="translate(438 154)" fill="#20226A"/>
<path d="M270.472 179.281C270.472 298.801 360.257 349 450.512 349C485.298 349 517.733 341.829 546.408 327.964V241.91C527.605 260.555 496.58 271.073 462.734 271.073C411.495 271.073 359.787 244.3 359.787 179.281C359.787 106.612 411.495 77.4493 463.674 77.4493C493.759 77.4493 523.844 87.489 544.058 104.7V21.0356C515.383 7.17123 482.007 0 448.632 0C359.787 0 270.472 53.0671 270.472 179.281Z" transform="translate(438 154)" fill="#20226A"/>
<path d="M594.484 7.17123V341.829H681.449V7.17123H594.484Z" transform="translate(438 154)" fill="#20226A"/>
<path d="M830.644 341.829V232.826H868.25L946.753 341.829H1045L954.275 220.396C990.471 205.575 1017.27 175.456 1017.27 119.999C1017.27 31.5534 949.104 7.17123 882.353 7.17123H743.679V341.829H830.644ZM830.644 83.6644H886.113C911.028 83.6644 927.95 96.5726 927.95 122.389C927.95 148.205 911.028 161.114 886.113 161.114H830.644V83.6644Z" transform="translate(438 154)" fill="#20226A"/>
<defs>
<radialGradient id="paint0_radial" cx="0.5" cy="0.5" r="0.5" gradientUnits="userSpaceOnUse" gradientTransform="translate(-960 -2880) scale(4293.25) rotate(26.5651)">
<stop stop-color="#242772"/>
<stop offset="1" stop-color="#0E1045"/>
</radialGradient>
</defs>
</svg>
