<svg width="11" height="12" viewBox="0 0 11 12" fill="none" xmlns="http://www.w3.org/2000/svg">
<path d="M5.32812 0.546875C6.27344 0.546875 7.17578 0.804688 7.99219 1.27734C8.80859 1.75 9.45312 2.39453 9.92578 3.21094C10.3984 4.02734 10.6562 4.92969 10.6562 5.875C10.6562 6.8418 10.3984 7.72266 9.92578 8.53906C9.45312 9.35547 8.80859 10.0215 7.99219 10.4941C7.17578 10.9668 6.27344 11.2031 5.32812 11.2031C4.36133 11.2031 3.48047 10.9668 2.66406 10.4941C1.84766 10.0215 1.18164 9.35547 0.708984 8.53906C0.236328 7.72266 0 6.8418 0 5.875C0 4.92969 0.236328 4.02734 0.708984 3.21094C1.18164 2.39453 1.84766 1.75 2.66406 1.27734C3.48047 0.804688 4.36133 0.546875 5.32812 0.546875ZM8.76562 5.16602C8.76562 5.08008 8.78711 5.01562 8.85156 4.95117C8.91602 4.88672 9.00195 4.84375 9.10938 4.84375H9.49609C9.28125 4.02734 8.87305 3.31836 8.22852 2.7168C7.58398 2.13672 6.85352 1.77148 6.01562 1.64258V2.09375C6.01562 2.20117 5.97266 2.28711 5.9082 2.35156C5.84375 2.41602 5.7793 2.4375 5.69336 2.4375H5.15625C5.02734 2.4375 4.94141 2.50195 4.87695 2.58789L4.70508 2.8457C4.66211 2.93164 4.59766 2.97461 4.51172 2.97461L4.21094 3.06055C4.125 3.08203 4.06055 3.125 4.01758 3.18945C3.97461 3.25391 3.95312 3.31836 3.95312 3.38281V3.46875C3.95312 3.57617 3.97461 3.66211 4.03906 3.72656C4.10352 3.79102 4.18945 3.8125 4.29688 3.8125H6.23047C6.31641 3.8125 6.38086 3.85547 6.4668 3.91992L6.5957 4.04883C6.66016 4.13477 6.74609 4.15625 6.83203 4.15625H7.04688C7.13281 4.15625 7.21875 4.19922 7.2832 4.26367C7.34766 4.32812 7.39062 4.39258 7.39062 4.47852C7.39062 4.56445 7.36914 4.62891 7.32617 4.69336C7.2832 4.75781 7.21875 4.80078 7.1543 4.80078L6.14453 5.14453C6.05859 5.1875 5.97266 5.16602 5.88672 5.12305L5.58594 4.97266C5.41406 4.88672 5.2207 4.84375 5.04883 4.84375H5.02734C4.76953 4.84375 4.5332 4.92969 4.31836 5.08008L3.73828 5.53125C3.58789 5.63867 3.48047 5.76758 3.39453 5.93945C3.30859 6.11133 3.26562 6.2832 3.26562 6.45508V6.75586C3.26562 7.09961 3.37305 7.37891 3.60938 7.59375C3.82422 7.83008 4.10352 7.9375 4.44727 7.9375H5.00586C5.0918 7.9375 5.15625 7.98047 5.2207 8.04492C5.28516 8.10938 5.32812 8.17383 5.32812 8.25977V8.9043C5.32812 9.18359 5.37109 9.44141 5.5 9.67773C5.54297 9.78516 5.62891 9.87109 5.71484 9.91406C5.80078 9.97852 5.9082 10 6.03711 10C6.25195 10 6.40234 9.91406 6.53125 9.74219L6.81055 9.3125C6.96094 9.09766 7.13281 8.88281 7.34766 8.68945C7.39062 8.64648 7.43359 8.58203 7.45508 8.49609L7.54102 8.02344C7.54102 7.98047 7.5625 7.91602 7.60547 7.87305L8.01367 7.33594C8.05664 7.29297 8.07812 7.22852 8.07812 7.14258V6.90625C8.07812 6.82031 8.03516 6.73438 7.9707 6.66992C7.90625 6.60547 7.8418 6.5625 7.75586 6.5625H7.5625C7.43359 6.5625 7.34766 6.51953 7.2832 6.41211L7.00391 5.98242C6.93945 5.89648 6.91797 5.81055 6.96094 5.70312C7.00391 5.5957 7.06836 5.53125 7.17578 5.48828L7.24023 5.4668C7.32617 5.44531 7.43359 5.4668 7.51953 5.50977L7.92773 5.76758C8.01367 5.85352 8.12109 5.85352 8.25 5.78906L8.57227 5.61719C8.70117 5.57422 8.76562 5.4668 8.76562 5.31641V5.16602Z" fill="#B8BACE"/>
</svg>
