<svg width="16" height="13" viewBox="0 0 16 13" fill="none" xmlns="http://www.w3.org/2000/svg">
<path d="M11.375 5C11.375 5.79297 11.1016 6.53125 10.6094 7.1875C10.0898 7.87109 9.40625 8.41797 8.53125 8.80078C7.65625 9.18359 6.72656 9.375 5.6875 9.375C4.59375 9.375 3.58203 9.15625 2.65234 8.69141C1.85938 9.15625 1.03906 9.375 0.21875 9.375C0.109375 9.375 0.0546875 9.34766 0.0273438 9.23828C-0.0273438 9.15625 0 9.07422 0.0820312 8.99219C0.136719 8.9375 0.246094 8.77344 0.410156 8.55469C0.683594 8.22656 0.875 7.87109 1.03906 7.51562C0.328125 6.77734 0 5.92969 0 5C0 4.23438 0.246094 3.49609 0.765625 2.8125C1.25781 2.15625 1.94141 1.60938 2.81641 1.22656C3.69141 0.84375 4.64844 0.625 5.6875 0.625C6.72656 0.625 7.65625 0.84375 8.53125 1.22656C9.40625 1.60938 10.0898 2.15625 10.6094 2.8125C11.1016 3.49609 11.375 4.23438 11.375 5ZM14.7109 11.0156C14.8477 11.3711 15.0664 11.7266 15.3398 12.082C15.4766 12.3008 15.5859 12.4375 15.668 12.4922C15.7227 12.5742 15.75 12.6562 15.7227 12.7383C15.668 12.8477 15.6133 12.875 15.5312 12.875C14.6836 12.875 13.8633 12.6562 13.0977 12.1914C12.168 12.6562 11.1562 12.875 10.0625 12.875C8.88672 12.875 7.82031 12.6289 6.89062 12.1367C5.93359 11.6445 5.25 11.0156 4.8125 10.1953C5.14062 10.25 5.41406 10.25 5.6875 10.25C6.86328 10.25 7.95703 10.0312 8.96875 9.53906C9.95312 9.07422 10.7461 8.44531 11.3477 7.625C11.9492 6.83203 12.25 5.95703 12.25 5C12.25 4.80859 12.2227 4.61719 12.2227 4.45312C13.2617 4.78125 14.1094 5.32812 14.7656 6.06641C15.4219 6.80469 15.75 7.625 15.75 8.52734C15.75 9.45703 15.3945 10.2773 14.7109 11.0156Z" fill="white"/>
</svg>
