<svg width="21" height="19" viewBox="0 0 21 19" fill="none" xmlns="http://www.w3.org/2000/svg">
<path d="M10 1.75C11.7969 1.75 13.4766 2.14062 15 2.84375C16.5234 3.58594 17.7344 4.5625 18.6328 5.8125C19.5312 7.0625 20 8.39062 20 9.875C20 11.3594 19.5312 12.7266 18.6328 13.9766C17.7344 15.2266 16.5234 16.2031 15 16.9062C13.4766 17.6484 11.7969 18 10 18C8.75 18 7.53906 17.8438 6.36719 17.4531C4.64844 18.6641 2.85156 19.25 0.9375 19.25C0.742188 19.25 0.585938 19.2109 0.429688 19.0938C0.273438 19.0156 0.15625 18.8594 0.078125 18.7031C0 18.5469 -0.0390625 18.3516 0 18.1562C0.0390625 18 0.117188 17.8438 0.234375 17.7266C0.351562 17.6094 0.585938 17.2969 0.9375 16.8281C1.44531 16.125 1.83594 15.4609 2.07031 14.7969C0.664062 13.3516 0 11.7109 0 9.875C0 8.39062 0.429688 7.0625 1.32812 5.8125C2.22656 4.5625 3.4375 3.58594 4.96094 2.84375C6.48438 2.14062 8.16406 1.75 10 1.75ZM10 16.125C11.4453 16.125 12.8125 15.8516 14.0625 15.3047C15.3125 14.7578 16.2891 13.9766 17.0312 13C17.7344 12.0625 18.125 11.0078 18.125 9.875C18.125 8.78125 17.7344 7.72656 17.0312 6.75C16.2891 5.8125 15.3125 5.03125 14.0625 4.48438C12.8125 3.9375 11.4453 3.625 10 3.625C8.51562 3.625 7.1875 3.9375 5.9375 4.48438C4.6875 5.03125 3.67188 5.8125 2.96875 6.75C2.22656 7.72656 1.875 8.78125 1.875 9.875C1.875 11.2031 2.38281 12.4141 3.4375 13.5078L4.21875 14.3672L3.82812 15.4609C3.59375 16.0078 3.35938 16.5156 3.04688 17.0625C3.82812 16.8281 4.57031 16.4375 5.27344 15.8906L6.05469 15.3828L6.95312 15.6562C7.92969 15.9688 8.94531 16.125 10 16.125Z" transform="translate(0.183594 -1.11133)" fill="#7A7C99"/>
</svg>
