<svg width="21" height="19" viewBox="0 0 21 19" fill="none" xmlns="http://www.w3.org/2000/svg">
<path d="M18.0469 2.96094C18.8281 3.66406 19.4141 4.48438 19.7266 5.46094C20.0391 6.47656 20.0781 7.45312 19.8438 8.46875C19.6094 9.48438 19.1406 10.3438 18.4375 11.0469L10.8984 18.8594C10.625 19.1328 10.3125 19.25 10 19.25C9.64844 19.25 9.33594 19.1328 9.10156 18.8594L1.5625 11.0859C0.820312 10.3438 0.351562 9.48438 0.117188 8.46875C-0.117188 7.45312 -0.0390625 6.47656 0.273438 5.46094C0.585938 4.48438 1.13281 3.66406 1.95312 2.96094C2.65625 2.375 3.4375 1.98438 4.33594 1.82812C5.19531 1.67188 6.09375 1.75 6.95312 2.02344C7.8125 2.33594 8.55469 2.80469 9.21875 3.46875L10 4.25L10.7812 3.46875C11.4062 2.80469 12.1875 2.33594 13.0469 2.02344C13.9062 1.75 14.7656 1.67188 15.6641 1.82812C16.5234 1.98438 17.3438 2.375 18.0469 2.96094Z" transform="translate(0.102051 -0.876953)" fill="#F50000"/>
</svg>
