<svg width="25" height="29" viewBox="0 0 25 29" fill="none" xmlns="http://www.w3.org/2000/svg">
<path d="M23.875 24.25V24.1875C23.9375 23.9375 24 23.4375 24 22.6875V3.125C24 2.75 23.875 2.5 23.6875 2.3125C23.4375 2.125 23.1875 2 22.875 2C22.75 2 20.5 2.4375 16.125 3.25L8.3125 4.6875C8.1875 4.6875 8.0625 4.75 7.9375 4.8125C7.75 4.875 7.625 4.9375 7.5 5.0625C7.25 5.25 7.0625 5.5 7.0625 5.875C6.9375 6.125 6.9375 7.9375 7 11.3125C7 14.75 7.0625 17.1875 7.0625 18.625C7 21.1875 6.875 22.5625 6.6875 22.75C6.5 23 6.1875 23.125 5.75 23.1875L5.3125 23.25C4.0625 23.5 3.25 23.6875 2.75 23.8125C2 24.0625 1.375 24.4375 0.9375 24.8125C0.3125 25.4375 0 26.125 0 26.875C-0.0625 27.6875 0.1875 28.4375 0.6875 29.0625C1.1875 29.6875 1.875 30.125 2.75 30.25C3.25 30.375 3.9375 30.3125 4.75 30.1875C5.5 30.0625 6.1875 29.875 6.75 29.5625C7.75 29.0625 8.375 28.25 8.625 27.125V27.0625C8.6875 26.75 8.75 26.3125 8.75 25.6875V12.125C8.75 11.8125 8.8125 11.5625 8.9375 11.4375C9.0625 11.3125 9.25 11.1875 9.625 11.0625L21.1875 8.9375C21.5625 8.875 21.8125 8.875 22 9C22.125 9.125 22.25 9.375 22.25 9.6875L22.3125 18.3125C22.25 18.9375 22.1875 19.3125 22.1875 19.4375C22.1875 19.625 22.125 19.75 22 19.875C21.75 20.125 21.4375 20.3125 21 20.375L20.625 20.4375C19.375 20.6875 18.5 20.875 18.0625 21C17.25 21.25 16.625 21.5625 16.25 22C15.5 22.625 15.1875 23.4375 15.25 24.3125C15.25 25.25 15.625 26 16.375 26.625C16.9375 27.125 17.5625 27.375 18.3125 27.4375C18.8125 27.5 19.5625 27.4375 20.4375 27.25C22.3125 26.9375 23.5 25.9375 23.875 24.25Z" transform="translate(1 -2)" fill="#FF5500"/>
</svg>
