<svg width="20" height="19" viewBox="0 0 20 19" fill="none" xmlns="http://www.w3.org/2000/svg">
<path d="M19.6875 7.92188C19.8828 8.11719 20 8.35156 20 8.625C20 8.9375 19.8828 9.17188 19.6875 9.32812L12.8125 15.2656C12.5781 15.4609 12.3438 15.5391 12.1094 15.5C11.875 15.5 11.6406 15.3828 11.4844 15.2266C11.3281 15.0703 11.25 14.8359 11.25 14.5625V11.125C9.10156 11.1641 7.46094 11.3984 6.36719 11.7891C5.11719 12.2578 4.29688 13 3.98438 14.0547C3.63281 15.1094 3.75 16.5547 4.33594 18.3906C4.41406 18.625 4.375 18.7812 4.25781 18.9375C4.14062 19.0938 3.98438 19.2109 3.78906 19.25C3.59375 19.2891 3.39844 19.25 3.24219 19.0938C2.30469 18.4688 1.5625 17.6094 0.976562 16.5156C0.3125 15.3828 0 14.25 0 13.0781C0 10.3438 1.09375 8.42969 3.28125 7.25781C5 6.35938 7.65625 5.89062 11.25 5.8125V2.6875C11.25 2.45312 11.3281 2.21875 11.4844 2.0625C11.6406 1.90625 11.875 1.78906 12.1094 1.75C12.3438 1.75 12.5781 1.82812 12.8125 1.98438L19.6875 7.92188Z" transform="translate(0 -1)" fill="#B8BACE"/>
</svg>
