<svg width="200" height="164" viewBox="0 0 200 164" fill="none" xmlns="http://www.w3.org/2000/svg">
<path d="M179.297 59.375C187.109 53.5156 194.141 46.4844 200 37.8906C192.188 41.4062 184.375 43.75 176.562 44.5312C185.156 39.0625 191.406 31.6406 194.531 21.875C186.328 26.5625 177.734 30.0781 168.359 31.6406C164.453 27.7344 159.766 24.6094 154.688 22.2656C149.609 19.9219 144.141 18.75 138.281 18.75C130.859 18.75 124.219 20.7031 117.969 24.2188C111.719 28.125 106.641 33.2031 103.125 39.4531C99.2188 45.7031 97.6562 52.7344 97.6562 59.7656C97.6562 62.8906 97.6562 66.0156 98.4375 69.1406C81.6406 68.3594 66.0156 64.4531 51.1719 56.6406C36.3281 49.2188 24.2188 39.0625 14.0625 26.1719C10.1562 32.8125 8.20312 39.8438 8.20312 46.875C8.20312 53.9062 9.76562 60.5469 13.2812 66.4062C16.4062 72.6562 21.0938 77.3438 26.5625 81.25C19.9219 81.25 13.6719 79.2969 8.20312 75.7812V76.5625C8.20312 86.3281 11.3281 94.9219 17.5781 102.344C23.8281 110.156 31.6406 114.844 41.0156 116.797C37.1094 117.578 33.5938 117.969 30.0781 117.969C27.7344 117.969 25 117.969 22.6562 117.578C25 125.781 29.6875 132.422 36.7188 137.891C43.75 143.359 51.5625 145.703 60.9375 145.703C45.7031 157.422 28.5156 163.281 9.76562 163.281C5.85938 163.281 2.73438 163.281 0 162.891C18.75 175.391 39.8438 181.25 62.8906 181.25C86.7188 181.25 107.812 175.391 126.562 162.891C143.359 151.953 156.641 137.5 166.016 118.75C175 101.562 179.688 83.2031 179.688 64.4531C179.688 62.1094 179.297 60.5469 179.297 59.375Z" transform="translate(0 -18)" fill="#7A7C99" fill-opacity="0.05"/>
</svg>
