<svg width="211" height="126" viewBox="0 0 211 126" fill="none" xmlns="http://www.w3.org/2000/svg">
<path d="M212.891 46.0938C212.109 50 208.984 56.6406 203.516 65.625C199.609 72.2656 194.922 79.6875 189.453 88.2812C184.766 95.3125 182.031 98.8281 182.031 98.8281C180.469 101.172 179.688 103.125 179.688 104.297C179.688 105.859 180.469 107.422 182.031 108.984L185.547 112.891C204.297 132.422 214.844 145.703 217.188 152.734C217.969 155.859 217.578 158.594 216.016 160.156C214.453 161.719 212.5 162.5 209.375 162.5H186.328C183.203 162.5 180.859 161.719 178.516 159.766C176.953 158.984 173.828 156.25 169.922 151.562C166.016 146.875 162.5 142.969 159.375 139.844C148.828 130.078 141.016 125 136.328 125C133.984 125 132.422 125.391 131.641 126.172C130.859 126.953 130.469 128.906 130.469 131.25C130.078 133.203 130.078 137.109 130.078 143.359V153.516C130.078 156.641 129.297 158.984 127.734 160.156C125.391 161.719 120.703 162.5 113.672 162.5C101.172 162.5 89.0625 158.984 76.5625 151.562C64.0625 144.531 53.125 133.984 43.75 120.312C34.7656 108.594 27.3438 96.4844 21.4844 83.9844C16.7969 74.6094 12.8906 66.0156 10.1562 57.8125C8.20312 51.5625 7.42188 46.875 7.42188 44.1406C7.42188 39.8438 9.76562 37.5 15.2344 37.5H38.2812C41.0156 37.5 42.9688 38.2812 44.5312 39.4531C46.0938 41.0156 47.2656 43.3594 48.4375 46.4844C51.9531 57.0312 56.25 67.1875 61.7188 76.9531C66.4062 86.3281 71.0938 93.75 75.7812 99.2188C80.4688 105.078 83.9844 107.812 86.7188 107.812C88.2812 107.812 89.0625 107.422 89.8438 106.25C90.625 105.078 91.0156 102.734 91.0156 99.2188V65.2344C90.625 61.3281 89.8438 57.4219 88.2812 54.2969C87.5 52.7344 85.9375 50.7812 84.375 48.4375C82.4219 46.0938 81.6406 44.5312 81.6406 42.9688C81.6406 41.4062 82.0312 40.2344 83.2031 39.0625C84.375 38.2812 85.9375 37.5 87.5 37.5H123.828C126.172 37.5 127.734 38.2812 128.516 39.4531C129.297 41.0156 130.078 42.9688 130.078 46.0938V91.4062C130.078 93.75 130.469 95.7031 131.25 96.4844C132.031 97.6562 132.812 98.0469 133.984 98.0469C135.156 98.0469 136.719 97.6562 138.281 96.875C139.844 96.0938 141.797 94.1406 144.531 91.0156C149.219 85.5469 154.297 78.9062 159.375 70.7031C162.5 65.2344 166.016 58.9844 169.141 51.9531L173.047 44.1406C174.609 39.8438 178.125 37.5 182.812 37.5H205.859C212.109 37.5 214.453 40.625 212.891 46.0938Z" transform="translate(-7 -37)" fill="#7A7C99" fill-opacity="0.05"/>
</svg>
