<svg width="176" height="148" viewBox="0 0 176 148" fill="none" xmlns="http://www.w3.org/2000/svg">
<path d="M174.609 38.6719C175.391 33.2031 175 29.6875 172.656 27.3438C170.312 25 167.188 24.6094 163.281 25.7812L8.20312 85.5469C2.73438 87.8906 0 90.2344 0 92.5781C-0.390625 95.3125 1.5625 97.2656 6.25 98.4375L46.0938 110.938L138.281 52.7344C139.453 51.9531 140.625 51.5625 141.797 51.5625C142.969 51.5625 143.75 51.5625 144.141 52.3438C144.531 53.125 144.141 53.5156 143.359 54.2969L68.75 121.875L65.625 162.891C67.5781 162.891 69.1406 162.5 70.7031 161.719C71.4844 161.328 72.2656 160.547 73.8281 158.984L93.3594 140.234L133.594 169.922C137.109 172.266 140.234 172.656 142.578 171.484C144.922 170.312 146.875 167.578 148.047 162.891L174.609 38.6719Z" transform="translate(1 -25)" fill="#7A7C99" fill-opacity="0.05"/>
</svg>
