<svg width="250" height="110" viewBox="0 0 250 110" fill="none" xmlns="http://www.w3.org/2000/svg">
<path d="M43.3594 100C43.3594 99.2188 42.5781 98.4375 41.7969 98.4375C40.625 98.4375 40.2344 99.2188 40.2344 100L37.8906 125.391L40.2344 152.344C40.2344 153.516 40.625 153.906 41.7969 153.906C42.5781 153.906 43.3594 153.516 43.3594 152.344L45.7031 125.391L43.3594 100ZM51.9531 82.4219C52.3438 82.4219 52.7344 82.8125 53.125 83.2031C53.5156 83.5938 53.9062 83.9844 53.9062 84.375L55.8594 125.391L53.9062 152.344C53.9062 153.125 53.5156 153.516 53.125 153.906C52.7344 154.297 52.3438 154.297 51.9531 154.297C50.3906 154.297 50 153.906 50 152.344L48.0469 125.391L50 84.375C50 83.2031 50.3906 82.4219 51.9531 82.4219ZM61.7188 73.0469C62.1094 73.0469 62.5 73.4375 63.2812 73.8281C63.6719 74.2188 64.0625 74.6094 64.0625 75L66.0156 125.781L64.0625 152.344C64.0625 153.125 63.6719 153.516 63.2812 153.906C62.5 154.297 62.1094 154.297 61.7188 154.297C60.1562 154.297 59.7656 153.906 59.7656 152.344L57.8125 125.781L59.7656 75C59.7656 73.8281 60.1562 73.0469 61.7188 73.0469ZM2.73438 110.547C3.125 110.547 3.51562 110.938 3.90625 111.719L5.85938 125.391L3.90625 139.062C3.51562 139.844 3.125 140.234 2.73438 140.234C1.95312 140.234 1.95312 139.844 1.95312 139.062L0 125.391L1.95312 111.719C1.95312 110.938 1.95312 110.547 2.73438 110.547ZM12.1094 101.953C12.5 101.953 12.8906 102.344 13.2812 103.125L16.0156 125.391L13.2812 147.656C12.8906 148.438 12.5 148.438 11.7188 148.438C10.9375 148.438 10.9375 148.047 10.9375 147.266L8.59375 125.391L10.9375 103.125C10.9375 102.344 11.3281 101.953 12.1094 101.953ZM21.875 97.6562C22.6562 97.6562 23.0469 98.0469 23.0469 98.8281L25.7812 125.391L23.0469 151.172C23.0469 151.953 22.6562 152.344 21.875 152.344C21.0938 152.344 20.7031 151.953 20.7031 151.172L18.3594 125.391L20.7031 98.8281C20.7031 98.0469 21.0938 97.6562 21.875 97.6562ZM31.6406 96.875C32.4219 96.875 33.2031 97.2656 33.2031 98.0469L35.9375 125.391L33.2031 151.953C33.2031 153.125 32.4219 153.516 31.6406 153.516C30.8594 153.516 30.4688 153.125 30.4688 151.953L28.125 125.391L30.4688 98.0469C30.4688 97.2656 30.8594 96.875 31.6406 96.875ZM126.172 53.5156C126.953 54.2969 127.734 55.0781 127.734 56.25L129.297 125.391L127.734 150.781C127.734 151.562 127.344 152.344 126.562 153.125C125.781 153.906 125 153.906 124.219 153.906C123.438 153.906 122.656 153.906 121.875 153.125C121.094 152.344 121.094 151.562 121.094 150.781L119.531 125.391L121.094 56.25C121.094 55.4688 121.094 54.6875 121.875 53.9062C122.656 53.125 123.438 52.7344 124.219 52.7344C125 52.7344 125.391 53.125 126.172 53.5156ZM115.625 59.375C116.406 60.1562 117.188 60.9375 117.188 62.1094L118.359 125.781L117.188 151.172C117.188 151.953 116.797 152.734 116.016 153.516C115.234 154.297 114.453 154.297 113.672 154.297C112.891 154.297 112.109 154.297 111.719 153.516C110.938 152.734 110.938 151.953 110.938 151.172L109.766 125.391L110.938 62.1094C110.938 60.9375 111.328 60.1562 112.109 59.7656C112.891 59.375 113.281 58.9844 114.062 58.9844C114.453 58.9844 114.844 59.375 115.625 59.375ZM72.2656 68.3594C72.6562 68.3594 73.0469 68.75 73.8281 69.1406C74.2188 69.5312 74.6094 69.9219 74.6094 70.7031L76.5625 125.391L74.6094 151.562C74.2188 153.125 73.4375 153.906 71.875 153.906C70.3125 153.906 69.9219 153.125 69.9219 151.562L68.3594 125.391L69.9219 70.7031C69.9219 69.9219 69.9219 69.5312 70.3125 69.1406C70.7031 68.75 71.4844 68.3594 72.2656 68.3594ZM219.141 92.5781C227.734 92.5781 234.766 95.7031 241.016 101.953C246.875 108.203 250 115.234 250 123.828C250 132.422 246.875 139.453 241.016 145.312C234.766 151.562 227.734 154.297 219.141 154.297H133.984C132.812 154.297 132.031 153.906 131.25 153.125C130.469 152.344 130.469 151.562 130.469 150.391V53.125C130.469 52.3438 130.469 51.5625 131.25 50.7812C131.641 50.3906 132.422 50 133.594 49.2188C139.844 46.875 146.484 45.7031 153.516 45.7031C162.5 45.7031 171.094 48.0469 178.906 52.3438C186.719 57.0312 193.359 62.8906 198.438 70.3125C203.516 78.125 206.641 86.3281 207.422 94.9219C211.328 93.3594 215.234 92.5781 219.141 92.5781ZM103.516 69.1406C105.078 69.1406 106.25 70.3125 106.25 72.2656L107.812 125.781L106.25 151.172C106.25 151.953 105.859 152.734 105.469 153.516C104.688 154.297 104.297 154.297 103.516 154.297C102.734 154.297 101.953 154.297 101.172 153.516C100.391 152.734 100.391 151.953 100.391 151.172L99.2188 125.781L100.391 72.2656C100.391 71.4844 100.391 71.0938 101.172 70.3125C101.953 69.5312 102.734 69.1406 103.516 69.1406ZM82.4219 66.0156C83.2031 66.0156 83.5938 66.4062 84.375 66.7969C84.7656 67.5781 85.1562 67.9688 85.1562 68.75L86.7188 125.391L85.1562 151.562C84.7656 153.516 83.9844 154.297 82.4219 154.297C81.6406 154.297 81.25 154.297 80.8594 153.516C80.0781 153.125 80.0781 152.344 80.0781 151.562L78.5156 125.391L80.0781 68.75C80.0781 67.9688 80.0781 67.5781 80.8594 66.7969C81.25 66.4062 81.6406 66.0156 82.4219 66.0156ZM92.9688 67.5781C93.75 67.5781 94.1406 67.9688 94.9219 68.3594C95.3125 69.1406 95.7031 69.5312 95.7031 70.3125L97.2656 125.391L95.7031 151.562C95.7031 152.344 95.3125 153.125 94.9219 153.516C94.1406 154.297 93.75 154.297 92.9688 154.297C91.0156 154.297 90.2344 153.516 90.2344 151.562L88.6719 125.391L90.2344 70.3125C90.2344 69.5312 90.2344 69.1406 91.0156 68.3594C91.4062 67.9688 92.1875 67.5781 92.9688 67.5781Z" transform="translate(0 -45)" fill="#7A7C99" fill-opacity="0.05"/>
</svg>
