<svg width="37" height="43" viewBox="0 0 37 43" fill="none" xmlns="http://www.w3.org/2000/svg">
<path d="M35.8125 36.375V36.2812C35.9062 35.9062 36 35.1562 36 34.0312V4.6875C36 4.125 35.8125 3.75 35.5312 3.46875C35.1562 3.1875 34.7812 3 34.3125 3C34.125 3 30.75 3.65625 24.1875 4.875L12.4688 7.03125C12.2812 7.03125 12.0938 7.125 11.9062 7.21875C11.625 7.3125 11.4375 7.40625 11.25 7.59375C10.875 7.875 10.5938 8.25 10.5938 8.8125C10.4062 9.1875 10.4062 11.9062 10.5 16.9688C10.5 22.125 10.5938 25.7812 10.5938 27.9375C10.5 31.7812 10.3125 33.8438 10.0312 34.125C9.75 34.5 9.28125 34.6875 8.625 34.7812L7.96875 34.875C6.09375 35.25 4.875 35.5312 4.125 35.7188C3 36.0938 2.0625 36.6562 1.40625 37.2188C0.46875 38.1562 0 39.1875 0 40.3125C-0.09375 41.5312 0.28125 42.6562 1.03125 43.5938C1.78125 44.5312 2.8125 45.1875 4.125 45.375C4.875 45.5625 5.90625 45.4688 7.125 45.2812C8.25 45.0938 9.28125 44.8125 10.125 44.3438C11.625 43.5938 12.5625 42.375 12.9375 40.6875V40.5938C13.0312 40.125 13.125 39.4688 13.125 38.5312V18.1875C13.125 17.7188 13.2188 17.3438 13.4062 17.1562C13.5938 16.9688 13.875 16.7812 14.4375 16.5938L31.7812 13.4062C32.3438 13.3125 32.7188 13.3125 33 13.5C33.1875 13.6875 33.375 14.0625 33.375 14.5312L33.4688 27.4688C33.375 28.4062 33.2812 28.9688 33.2812 29.1562C33.2812 29.4375 33.1875 29.625 33 29.8125C32.625 30.1875 32.1562 30.4688 31.5 30.5625L30.9375 30.6562C29.0625 31.0312 27.75 31.3125 27.0938 31.5C25.875 31.875 24.9375 32.3438 24.375 33C23.25 33.9375 22.7812 35.1562 22.875 36.4688C22.875 37.875 23.4375 39 24.5625 39.9375C25.4062 40.6875 26.3438 41.0625 27.4688 41.1562C28.2188 41.25 29.3438 41.1562 30.6562 40.875C33.4688 40.4062 35.25 38.9062 35.8125 36.375Z" transform="translate(1 -3)" fill="#0088FF"/>
</svg>
