<svg width="22" height="20" viewBox="0 0 22 20" fill="none" xmlns="http://www.w3.org/2000/svg">
<path d="M1.07795 5.8975C0.838989 5.8975 0.647819 5.84971 0.50444 5.70633C0.361062 5.56296 0.31327 5.37178 0.31327 5.13282V3.22111C0.31327 3.02994 0.361062 2.83877 0.50444 2.69539C0.647819 2.55202 0.838989 2.45643 1.07795 2.45643H20.9597C21.1509 2.45643 21.3421 2.55202 21.4854 2.69539C21.6288 2.83877 21.7244 3.02994 21.7244 3.22111V5.13282C21.7244 5.37178 21.6288 5.56296 21.4854 5.70633C21.3421 5.84971 21.1509 5.8975 20.9597 5.8975H1.07795ZM1.07795 13.5443C0.838989 13.5443 0.647819 13.4965 0.50444 13.3532C0.361062 13.2098 0.31327 13.0186 0.31327 12.7797V10.8679C0.31327 10.6768 0.361062 10.4856 0.50444 10.3422C0.647819 10.1988 0.838989 10.1033 1.07795 10.1033H20.9597C21.1509 10.1033 21.3421 10.1988 21.4854 10.3422C21.6288 10.4856 21.7244 10.6768 21.7244 10.8679V12.7797C21.7244 13.0186 21.6288 13.2098 21.4854 13.3532C21.3421 13.4965 21.1509 13.5443 20.9597 13.5443H1.07795ZM1.07795 21.1912C0.838989 21.1912 0.647819 21.1434 0.50444 21C0.361062 20.8566 0.31327 20.6655 0.31327 20.4265V18.5148C0.31327 18.3236 0.361062 18.1324 0.50444 17.9891C0.647819 17.8457 0.838989 17.7501 1.07795 17.7501H20.9597C21.1509 17.7501 21.3421 17.8457 21.4854 17.9891C21.6288 18.1324 21.7244 18.3236 21.7244 18.5148V20.4265C21.7244 20.6655 21.6288 20.8566 21.4854 21C21.3421 21.1434 21.1509 21.1912 20.9597 21.1912H1.07795Z" transform="translate(0.262207 -1.76953)" fill="#B8BACE"/>
</svg>
