<svg width="12" height="22" viewBox="0 0 12 22" fill="none" xmlns="http://www.w3.org/2000/svg">
<path d="M4.125 7.78125H1.96875C1.64062 7.78125 1.35938 7.6875 1.17188 7.45312C0.9375 7.26562 0.84375 6.98438 0.84375 6.65625C0.84375 6.375 0.9375 6.09375 1.17188 5.85938L5.20312 1.82812C5.39062 1.64062 5.67188 1.5 6 1.5C6.28125 1.5 6.5625 1.64062 6.79688 1.82812L10.8281 5.85938C11.0156 6.09375 11.1562 6.375 11.1562 6.65625C11.1562 6.98438 11.0156 7.26562 10.8281 7.45312C10.5938 7.6875 10.3125 7.78125 10.0312 7.78125H7.875V21.9375C7.875 22.125 7.78125 22.2656 7.6875 22.3594C7.59375 22.4531 7.45312 22.5 7.3125 22.5H4.6875C4.5 22.5 4.35938 22.4531 4.26562 22.3594C4.17188 22.2656 4.125 22.125 4.125 21.9375V7.78125Z" transform="translate(0 -1)" fill="#6FCF97"/>
</svg>
