<svg width="8" height="14" viewBox="0 0 8 14" fill="none" xmlns="http://www.w3.org/2000/svg">
<path d="M2.75 5.1875H1.3125C1.09375 5.1875 0.90625 5.125 0.78125 4.96875C0.625 4.84375 0.5625 4.65625 0.5625 4.4375C0.5625 4.25 0.625 4.0625 0.78125 3.90625L3.46875 1.21875C3.59375 1.09375 3.78125 1 4 1C4.1875 1 4.375 1.09375 4.53125 1.21875L7.21875 3.90625C7.34375 4.0625 7.4375 4.25 7.4375 4.4375C7.4375 4.65625 7.34375 4.84375 7.21875 4.96875C7.0625 5.125 6.875 5.1875 6.6875 5.1875H5.25V14.625C5.25 14.75 5.1875 14.8438 5.125 14.9062C5.0625 14.9688 4.96875 15 4.875 15H3.125C3 15 2.90625 14.9688 2.84375 14.9062C2.78125 14.8438 2.75 14.75 2.75 14.625V5.1875Z" transform="translate(0 -1)" fill="#6FCF97"/>
</svg>
