<svg width="12" height="8" viewBox="0 0 12 8" fill="none" xmlns="http://www.w3.org/2000/svg">
<path d="M10.8776 4.87071C10.9541 5.02365 11.0114 5.17658 11.0114 5.32952C11.0114 5.50157 10.9541 5.65451 10.8776 5.78833C10.3232 6.72507 9.57766 7.47063 8.64092 8.00591C7.68507 8.57942 6.63363 8.84706 5.50572 8.84706C4.3587 8.84706 3.32637 8.57942 2.37052 8.00591C1.41466 7.47063 0.669098 6.72507 0.13382 5.78833C0.0382342 5.65451 0 5.50157 0 5.32952C0 5.17658 0.0382342 5.02365 0.13382 4.87071C0.669098 3.95309 1.41466 3.20752 2.37052 2.65313C3.32637 2.09873 4.3587 1.81198 5.50572 1.81198C6.63363 1.81198 7.68507 2.09873 8.64092 2.65313C9.57766 3.20752 10.3232 3.95309 10.8776 4.87071ZM5.50572 7.92944C5.96453 7.92944 6.40422 7.81474 6.80568 7.58534C7.18802 7.35593 7.51301 7.03094 7.74242 6.62948C7.97182 6.24714 8.10564 5.80745 8.10564 5.32952C8.10564 4.87071 7.97182 4.43102 7.74242 4.02956C7.51301 3.64722 7.18802 3.32223 6.80568 3.09282C6.40422 2.86342 5.96453 2.7296 5.50572 2.7296C5.02779 2.7296 4.5881 2.86342 4.20576 3.09282C3.8043 3.32223 3.47931 3.64722 3.2499 4.02956C3.0205 4.43102 2.9058 4.87071 2.9058 5.32952C2.9058 5.80745 3.0205 6.24714 3.2499 6.62948C3.47931 7.03094 3.8043 7.35593 4.20576 7.58534C4.5881 7.81474 5.02779 7.92944 5.50572 7.92944ZM7.4939 5.32952C7.4939 4.79424 7.28361 4.31631 6.90127 3.93397C6.51893 3.55163 6.041 3.34134 5.50572 3.34134C5.16161 3.34134 4.85574 3.41781 4.56898 3.57075C4.79839 3.57075 4.98956 3.66633 5.1425 3.81927C5.29543 3.97221 5.39102 4.16338 5.39102 4.39278C5.39102 4.62219 5.29543 4.83248 5.1425 4.98541C4.98956 5.13835 4.79839 5.21482 4.56898 5.21482C4.33958 5.21482 4.12929 5.13835 3.97635 4.98541C3.82342 4.83248 3.74695 4.62219 3.74695 4.39278C3.59401 4.69866 3.51754 5.00453 3.51754 5.32952C3.51754 5.88392 3.70871 6.36184 4.09106 6.74418C4.4734 7.12653 4.95132 7.3177 5.50572 7.3177C6.041 7.3177 6.51893 7.12653 6.90127 6.74418C7.28361 6.36184 7.4939 5.88392 7.4939 5.32952Z" transform="translate(0.678223 -1.69141)" fill="#9C9CAE"/>
</svg>
