<svg width="21" height="24" viewBox="0 0 21 24" fill="none" xmlns="http://www.w3.org/2000/svg">
<path d="M10.5 12C9.375 12 8.39062 11.7656 7.45312 11.2031C6.51562 10.6875 5.8125 9.98438 5.29688 9.04688C4.73438 8.10938 4.5 7.125 4.5 6C4.5 4.92188 4.73438 3.9375 5.29688 3C5.8125 2.0625 6.51562 1.35938 7.45312 0.796875C8.39062 0.28125 9.375 0 10.5 0C11.5781 0 12.5625 0.28125 13.5 0.796875C14.4375 1.35938 15.1406 2.0625 15.7031 3C16.2188 3.9375 16.5 4.92188 16.5 6C16.5 7.125 16.2188 8.10938 15.7031 9.04688C15.1406 9.98438 14.4375 10.6875 13.5 11.2031C12.5625 11.7656 11.5781 12 10.5 12ZM14.7188 13.5C15.8438 13.5 16.875 13.7812 17.8594 14.3438C18.7969 14.9062 19.5938 15.7031 20.1562 16.6406C20.7188 17.625 21 18.6562 21 19.7812V21.75C21 22.4062 20.7656 22.9219 20.3438 23.3438C19.875 23.8125 19.3594 24 18.75 24H2.25C1.59375 24 1.07812 23.8125 0.65625 23.3438C0.1875 22.9219 0 22.4062 0 21.75V19.7812C0 18.6562 0.28125 17.625 0.84375 16.6406C1.40625 15.7031 2.15625 14.9062 3.14062 14.3438C4.07812 13.7812 5.15625 13.5 6.28125 13.5H7.07812C8.15625 14.0156 9.28125 14.25 10.5 14.25C11.6719 14.25 12.7969 14.0156 13.9219 13.5H14.7188Z" fill="#1DA1F2"/>
</svg>
