<svg width="35" height="40" viewBox="0 0 35 40" fill="none" xmlns="http://www.w3.org/2000/svg">
<path d="M17.5 20C15.625 20 13.9844 19.6094 12.4219 18.6719C10.8594 17.8125 9.6875 16.6406 8.82812 15.0781C7.89062 13.5156 7.5 11.875 7.5 10C7.5 8.20312 7.89062 6.5625 8.82812 5C9.6875 3.4375 10.8594 2.26562 12.4219 1.32812C13.9844 0.46875 15.625 0 17.5 0C19.2969 0 20.9375 0.46875 22.5 1.32812C24.0625 2.26562 25.2344 3.4375 26.1719 5C27.0312 6.5625 27.5 8.20312 27.5 10C27.5 11.875 27.0312 13.5156 26.1719 15.0781C25.2344 16.6406 24.0625 17.8125 22.5 18.6719C20.9375 19.6094 19.2969 20 17.5 20ZM24.5312 22.5C26.4062 22.5 28.125 22.9688 29.7656 23.9062C31.3281 24.8438 32.6562 26.1719 33.5938 27.7344C34.5312 29.375 35 31.0938 35 32.9688V36.25C35 37.3438 34.6094 38.2031 33.9062 38.9062C33.125 39.6875 32.2656 40 31.25 40H3.75C2.65625 40 1.79688 39.6875 1.09375 38.9062C0.3125 38.2031 0 37.3438 0 36.25V32.9688C0 31.0938 0.46875 29.375 1.40625 27.7344C2.34375 26.1719 3.59375 24.8438 5.23438 23.9062C6.79688 22.9688 8.59375 22.5 10.4688 22.5H11.7969C13.5938 23.3594 15.4688 23.75 17.5 23.75C19.4531 23.75 21.3281 23.3594 23.2031 22.5H24.5312Z" fill="#1DA1F2"/>
</svg>
