<svg width="12" height="14" viewBox="0 0 12 14" fill="none" xmlns="http://www.w3.org/2000/svg">
<path d="M5.6875 6.125C5.07812 6.125 4.54492 5.99805 4.03711 5.69336C3.5293 5.41406 3.14844 5.0332 2.86914 4.52539C2.56445 4.01758 2.4375 3.48438 2.4375 2.875C2.4375 2.29102 2.56445 1.75781 2.86914 1.25C3.14844 0.742188 3.5293 0.361328 4.03711 0.0566406C4.54492 -0.222656 5.07812 -0.375 5.6875 -0.375C6.27148 -0.375 6.80469 -0.222656 7.3125 0.0566406C7.82031 0.361328 8.20117 0.742188 8.50586 1.25C8.78516 1.75781 8.9375 2.29102 8.9375 2.875C8.9375 3.48438 8.78516 4.01758 8.50586 4.52539C8.20117 5.0332 7.82031 5.41406 7.3125 5.69336C6.80469 5.99805 6.27148 6.125 5.6875 6.125ZM7.97266 6.9375C8.58203 6.9375 9.14062 7.08984 9.67383 7.39453C10.1816 7.69922 10.6133 8.13086 10.918 8.63867C11.2227 9.17188 11.375 9.73047 11.375 10.3398V11.4062C11.375 11.7617 11.248 12.041 11.0195 12.2695C10.7656 12.5234 10.4863 12.625 10.1562 12.625H1.21875C0.863281 12.625 0.583984 12.5234 0.355469 12.2695C0.101562 12.041 0 11.7617 0 11.4062V10.3398C0 9.73047 0.152344 9.17188 0.457031 8.63867C0.761719 8.13086 1.16797 7.69922 1.70117 7.39453C2.20898 7.08984 2.79297 6.9375 3.40234 6.9375H3.83398C4.41797 7.2168 5.02734 7.34375 5.6875 7.34375C6.32227 7.34375 6.93164 7.2168 7.54102 6.9375H7.97266Z" transform="translate(0 1)" fill="#1DA1F2"/>
</svg>
