<svg width="21" height="19" viewBox="0 0 21 19" fill="none" xmlns="http://www.w3.org/2000/svg">
<path d="M10 1.75C11.7969 1.75 13.4766 2.14062 15 2.84375C16.5234 3.58594 17.7344 4.5625 18.6328 5.8125C19.5312 7.0625 20 8.39062 20 9.875C20 11.3594 19.5312 12.7266 18.6328 13.9766C17.7344 15.2266 16.5234 16.2031 15 16.9062C13.4766 17.6484 11.7969 18 10 18C8.51562 18 7.14844 17.7656 5.82031 17.2578C5.11719 17.8047 4.41406 18.2344 3.67188 18.5469C2.57812 19.0156 1.44531 19.25 0.3125 19.25C0.15625 19.25 0.078125 19.2109 0.0390625 19.0547C-0.0390625 18.9375 0 18.8203 0.078125 18.7031C0.3125 18.4688 0.585938 18.1172 0.976562 17.5703C1.60156 16.6719 1.99219 15.8125 2.22656 14.9922C1.52344 14.2891 0.976562 13.4688 0.585938 12.6094C0.195312 11.75 0 10.8516 0 9.875C0 8.39062 0.429688 7.0625 1.32812 5.8125C2.22656 4.5625 3.4375 3.58594 4.96094 2.84375C6.48438 2.14062 8.16406 1.75 10 1.75Z" transform="translate(1 -1)" fill="#B8BACE"/>
</svg>
