<svg width="41" height="38" viewBox="0 0 41 38" fill="none" xmlns="http://www.w3.org/2000/svg">
<g filter="url(#filter0_d)">
<path d="M21.6562 2.95312C22.5938 3.79688 23.2969 4.78125 23.6719 5.95312C24.0469 7.17188 24.0938 8.34375 23.8125 9.5625C23.5312 10.7812 22.9688 11.8125 22.125 12.6562L13.0781 22.0312C12.75 22.3594 12.375 22.5 12 22.5C11.5781 22.5 11.2031 22.3594 10.9219 22.0312L1.875 12.7031C0.984375 11.8125 0.421875 10.7812 0.140625 9.5625C-0.140625 8.34375 -0.046875 7.17188 0.328125 5.95312C0.703125 4.78125 1.35938 3.79688 2.34375 2.95312C3.1875 2.25 4.125 1.78125 5.20312 1.59375C6.23438 1.40625 7.3125 1.5 8.34375 1.82812C9.375 2.20312 10.2656 2.76562 11.0625 3.5625L12 4.5L12.9375 3.5625C13.6875 2.76562 14.625 2.20312 15.6562 1.82812C16.6875 1.5 17.7188 1.40625 18.7969 1.59375C19.8281 1.78125 20.8125 2.25 21.6562 2.95312Z" transform="translate(7 3)" fill="#F50000"/>
</g>
<defs>
<filter id="filter0_d" x="0.977051" y="0.498047" width="40.0162" height="37.0018" filterUnits="userSpaceOnUse" color-interpolation-filters="sRGB">
<feFlood flood-opacity="0" result="BackgroundImageFix"/>
<feColorMatrix in="SourceAlpha" type="matrix" values="0 0 0 0 0 0 0 0 0 0 0 0 0 0 0 0 0 0 255 0"/>
<feOffset dx="2" dy="4"/>
<feGaussianBlur stdDeviation="4"/>
<feColorMatrix type="matrix" values="0 0 0 0 0.0528594 0 0 0 0 0.0528594 0 0 0 0 0.275109 0 0 0 0.16 0"/>
<feBlend mode="normal" in2="BackgroundImageFix" result="effect1_dropShadow"/>
<feBlend mode="normal" in="SourceGraphic" in2="effect1_dropShadow" result="shape"/>
</filter>
</defs>
</svg>
