<svg width="24" height="24" viewBox="0 0 24 24" fill="none" xmlns="http://www.w3.org/2000/svg">
<path d="M4.875 10.5C5.15625 10.5 5.4375 10.6406 5.67188 10.8281C5.85938 11.0625 6 11.3438 6 11.625V22.875C6 23.2031 5.85938 23.4844 5.67188 23.6719C5.4375 23.9062 5.15625 24 4.875 24H1.125C0.796875 24 0.515625 23.9062 0.328125 23.6719C0.09375 23.4844 0 23.2031 0 22.875V11.625C0 11.3438 0.09375 11.0625 0.328125 10.8281C0.515625 10.6406 0.796875 10.5 1.125 10.5H4.875ZM3 22.125C3.28125 22.125 3.5625 22.0312 3.79688 21.7969C3.98438 21.6094 4.125 21.3281 4.125 21C4.125 20.7188 3.98438 20.4375 3.79688 20.2031C3.5625 20.0156 3.28125 19.875 3 19.875C2.67188 19.875 2.39062 20.0156 2.20312 20.2031C1.96875 20.4375 1.875 20.7188 1.875 21C1.875 21.3281 1.96875 21.6094 2.20312 21.7969C2.39062 22.0312 2.67188 22.125 3 22.125ZM18 3.79688C18 2.29688 17.5781 1.26562 16.7344 0.609375C16.1719 0.234375 15.4688 0 14.625 0C14.2031 0 13.8281 0.375 13.5469 1.03125C13.3594 1.40625 13.2188 1.96875 13.0312 2.67188V2.71875C12.8438 3.42188 12.7031 3.9375 12.6094 4.21875C12.4219 4.78125 12.1406 5.20312 11.8594 5.48438C11.3438 5.95312 10.7344 6.75 9.98438 7.82812C9.04688 9.14062 8.29688 10.125 7.6875 10.7812C7.54688 10.875 7.5 11.0156 7.5 11.1562V21.1875C7.5 21.375 7.54688 21.5156 7.64062 21.6094C7.73438 21.7031 7.875 21.75 8.0625 21.75C8.57812 21.75 9.375 22.0312 10.4531 22.5C11.5312 22.9688 12.375 23.2969 13.0312 23.4844C14.0625 23.8594 15.0938 24 16.125 24H16.2656C17.625 24 18.6562 23.9531 19.3125 23.8125C20.3906 23.625 21.1406 23.25 21.5625 22.6406C21.9375 22.0781 22.0781 21.375 21.8906 20.5312C22.2656 20.1094 22.5 19.5469 22.6875 18.8906C22.8281 18.2344 22.8281 17.625 22.6406 17.0156C23.0156 16.5 23.25 15.8906 23.3438 15.1875C23.3906 14.5312 23.2969 13.875 23.0625 13.2656H23.1094C23.3438 12.9844 23.5312 12.6562 23.7188 12.2344C23.9062 11.8594 24 11.4375 24 10.9688C24 10.2656 23.7188 9.65625 23.1562 9.09375C22.5938 8.53125 21.9375 8.25 21.1875 8.25H16.4531C16.5 7.96875 16.6875 7.45312 17.0625 6.79688C17.3438 6.23438 17.5781 5.8125 17.7188 5.48438C17.9062 4.92188 18 4.35938 18 3.79688Z" fill="#465EDB"/>
</svg>
