<svg width="97" height="96" viewBox="0 0 97 96" fill="none" xmlns="http://www.w3.org/2000/svg">
<path d="M48.1519 95.7227C74.7455 95.7227 96.3039 74.2944 96.3039 47.8614C96.3039 21.4283 74.7455 0 48.1519 0C21.5584 0 0 21.4283 0 47.8614C0 74.2944 21.5584 95.7227 48.1519 95.7227Z" transform="translate(0.138092 95.9009) scale(1 -1)" fill="#FF2500"/>
<g style="mix-blend-mode:hard-light" transform="matrix(0.0669062 -0.997759 -0.99735 -0.0727472 90.7355 97.9263)">
<path fill-rule="evenodd" clip-rule="evenodd" d="M38.9261 0.214407C51.3607 1.65525 62.8057 6.46165 70.3573 16.5804C78.0083 26.4006 81.7654 41.5334 81.1084 56.7319C80.8247 64.0299 79.0512 70.529 76.5713 75.0368C74.0739 79.6574 70.87 82.2861 67.3203 84.4602C63.7532 86.6043 59.8403 88.2914 55.5218 90.2981C51.1859 92.1286 46.4445 94.2787 40.8168 93.2869C35.3182 92.6176 29.762 87.8697 24.7303 82.1116C19.6877 76.4012 15.1697 69.6806 11.495 66.1631C7.81178 62.0022 4.97195 61.0446 3.06953 59.0585C1.15733 57.1374 0.182554 54.1878 0.00664989 47.5349C-0.0632431 41.1557 0.410154 32.8275 1.79216 26.0991C3.16465 19.219 5.44534 13.9384 8.77443 10.1466C12.0879 6.32111 16.4487 3.98646 21.638 2.24365C26.8072 0.587312 32.8051 -0.477789 38.9261 0.214407Z" fill="#FFE500"/>
</g>
<g style="mix-blend-mode:hard-light" transform="matrix(-0.760133 0.649768 0.654353 0.756189 45.8584 -17.4668)">
<path fill-rule="evenodd" clip-rule="evenodd" d="M36.8838 0.0270886C41.9036 -0.223392 46.7939 1.30212 51.0855 2.99295C55.3939 4.77223 59.1036 6.71803 62.1458 9.36328C65.19 12.0201 67.5664 15.3757 69.253 20.2316C70.9271 25.0211 71.9119 31.3111 71.8812 38.3038C71.8373 52.2603 68.2043 69.3297 61.8701 80.2521C55.5626 91.513 46.5538 96.6266 36.3743 94.4915C31.3255 93.8193 26.4254 91.1421 22.0672 88.634C17.6956 86.0071 13.8661 83.5494 10.6519 80.5701C7.43904 77.5759 4.84202 74.0621 2.963 68.9994C1.09966 64.0273 -0.0461637 57.5064 0.00176808 50.5813C-0.0581773 43.0669 1.41153 38.2492 3.62865 33.7235C5.86158 29.2703 8.8412 25.1087 12.173 20.5776C15.5215 16.12 19.2219 11.2932 23.269 7.18013C27.3326 3.13944 31.7429 -0.187634 36.8835 0.0270886H36.8838Z" fill="#0066FF"/>
</g>
<g style="mix-blend-mode:hard-light" transform="matrix(-0.367061 0.930197 0.932418 0.361382 29.8988 -13)">
<path fill-rule="evenodd" clip-rule="evenodd" d="M50.1829 0.0216679C57.0127 -0.178688 63.6663 1.04155 69.5054 2.39402C75.3672 3.81724 80.4145 5.37367 84.5536 7.48957C88.6954 9.61473 91.9286 12.2988 94.2235 16.183C96.5012 20.014 97.841 25.0453 97.7993 30.6387C97.7396 41.8023 92.7966 55.4559 84.1785 64.1926C75.5967 73.2001 63.3397 77.2904 49.4897 75.5825C42.6205 75.0449 35.9536 72.9034 30.0239 70.8972C24.0761 68.7959 18.8657 66.8301 14.4927 64.447C10.1213 62.052 6.5879 59.2413 4.03136 55.1918C1.49617 51.2146 -0.0628089 45.9986 0.0024056 40.4594C-0.0791542 34.4487 1.92048 30.5951 4.93702 26.975C7.97508 23.4129 12.0291 20.0841 16.5622 16.4597C21.1181 12.8942 26.1527 9.03328 31.6591 5.74329C37.1878 2.5112 43.1884 -0.150086 50.1825 0.0216679H50.1829Z" fill="#69A5FF"/>
</g>
<path d="M13.4543 21L8.9143 7.04H5.1543L0.554297 21H3.6343L4.6343 17.68H9.2943L10.2943 21H13.4543ZM8.5543 15.1H5.3543L6.8943 9.8H6.9943L8.5543 15.1Z" transform="translate(42.0002 18)" fill="white"/>
<path d="M1.56734 21H6.82734C10.5273 21 12.9673 18.66 12.9673 14.02C12.9673 9.38 10.5273 7.04 6.82734 7.04H1.56734V21ZM4.60734 18.3V9.74H6.82734C8.62734 9.74 9.74734 10.72 9.74734 12.94V15.1C9.74734 17.32 8.62734 18.3 6.82734 18.3H4.60734Z" transform="translate(57.0002 18)" fill="white"/>
<path d="M4.73039 21V15.28H10.0304V12.6H4.73039V9.74H10.9504V7.04H1.69039V21H4.73039Z" transform="translate(43.0002 35)" fill="white"/>
<path d="M0.591484 21H3.87148L6.81148 15.86H6.87148L9.89148 21H13.4115L8.87148 13.84L13.1715 7.04H9.89148L7.13148 11.76H7.07148L4.35148 7.04H0.811484L5.07148 13.78L0.591484 21Z" transform="translate(57.0002 35)" fill="white"/>
</svg>
