<svg width="101" height="99" viewBox="0 0 101 99" fill="none" xmlns="http://www.w3.org/2000/svg">
<path d="M48.1519 95.7227C74.7455 95.7227 96.3039 74.2944 96.3039 47.8614C96.3039 21.4283 74.7455 0 48.1519 0C21.5584 0 0 21.4283 0 47.8614C0 74.2944 21.5584 95.7227 48.1519 95.7227Z" transform="translate(0.138008 98.9009) scale(1 -1)" fill="#FF2500"/>
<g style="mix-blend-mode:hard-light" transform="matrix(-0.737076 -0.67581 -0.680115 0.733106 112.825 37.4165)">
<path fill-rule="evenodd" clip-rule="evenodd" d="M38.9261 0.198807C51.3607 1.53482 62.8057 5.9915 70.3573 15.374C78.0083 24.4797 81.7654 38.5114 81.1084 52.6042C80.8247 59.3712 79.0512 65.3974 76.5713 69.5772C74.0739 73.8616 70.87 76.2991 67.3203 78.315C63.7532 80.3031 59.8403 81.8675 55.5218 83.7281C51.1859 85.4254 46.4445 87.4191 40.8168 86.4994C35.3182 85.8788 29.762 81.4764 24.7303 76.1372C19.6877 70.8423 15.1697 64.6107 11.495 61.3492C7.81178 57.491 4.97195 56.6031 3.06953 54.7615C1.15733 52.9801 0.182554 50.2451 0.00664989 44.0763C-0.0632431 38.1612 0.410154 30.439 1.79216 24.2002C3.16465 17.8206 5.44534 12.9243 8.77443 9.40838C12.0879 5.8612 16.4487 3.69641 21.638 2.08041C26.8072 0.544579 32.8051 -0.443025 38.9261 0.198807Z" fill="#FFE500"/>
</g>
<g style="mix-blend-mode:hard-light" transform="matrix(-0.760133 0.649768 0.654353 0.756189 61.7891 -2.30151)">
<path fill-rule="evenodd" clip-rule="evenodd" d="M36.2508 0.0236315C41.1845 -0.194882 45.9909 1.13594 50.2089 2.61098C54.4433 4.16318 58.0894 5.86065 61.0794 8.1683C64.0714 10.486 66.4069 13.4134 68.0647 17.6495C69.71 21.8278 70.6779 27.315 70.6477 33.4153C70.6046 45.5906 67.0339 60.4816 60.8084 70.0099C54.6091 79.8337 45.755 84.2947 35.7501 82.4321C30.788 81.8457 25.972 79.5102 21.6885 77.3222C17.3919 75.0305 13.6281 72.8865 10.4692 70.2874C7.31139 67.6753 4.75893 64.61 2.91215 60.1934C1.08079 55.8559 -0.0453716 50.1671 0.00173774 44.1259C-0.057179 37.5705 1.38731 33.3677 3.56638 29.4195C5.761 25.5347 8.68949 21.9042 11.9641 17.9514C15.2552 14.0627 18.8921 9.85191 22.8698 6.26377C26.8636 2.73877 31.1982 -0.163687 36.2506 0.0236315H36.2508Z" fill="#0066FF"/>
</g>
<g style="mix-blend-mode:hard-light" transform="matrix(-0.899201 0.437536 0.443012 0.896516 69.799 -7.00024)">
<path fill-rule="evenodd" clip-rule="evenodd" d="M45.5361 0.0236329C51.7336 -0.194893 57.771 1.13601 63.0695 2.61113C68.3885 4.16342 72.9685 5.86099 76.7243 8.16878C80.4826 10.4867 83.4164 13.4142 85.4988 17.6506C87.5656 21.8291 88.7813 27.3166 88.7435 33.4173C88.6893 45.5933 84.2041 60.4851 76.3839 70.0141C68.5967 79.8384 57.4747 84.2997 44.9072 82.4369C38.674 81.8505 32.6245 79.5148 27.2438 77.3267C21.8467 75.0349 17.1189 72.8908 13.1507 70.2915C9.18413 67.6793 5.97789 64.6138 3.65807 60.197C1.35763 55.8592 -0.0569931 50.1701 0.00218285 44.1285C-0.0718249 37.5728 1.74265 33.3697 4.47988 29.4213C7.23663 25.5362 10.9152 21.9055 15.0286 17.9524C19.1626 14.0636 23.7311 9.85249 28.7276 6.26414C33.7444 2.73893 39.1893 -0.163697 45.5358 0.0236329H45.5361Z" fill="#69A5FF"/>
</g>
<path d="M1.87008 21H9.27008C11.3301 21 12.8701 19.22 12.8701 17.02C12.8701 14.62 11.0501 13.74 9.73008 13.74V13.62C11.1501 13.56 12.3301 12.76 12.3301 10.62C12.3301 8.46 10.9501 7.04 8.65008 7.04H1.87008V21ZM4.91008 15.24H8.41008C9.21008 15.24 9.71008 15.7 9.71008 16.5V17.18C9.71008 17.98 9.21008 18.44 8.41008 18.44H4.91008V15.24ZM4.91008 9.6H7.93008C8.73008 9.6 9.21008 10.08 9.21008 10.88V11.48C9.21008 12.28 8.73008 12.76 7.93008 12.76H4.91008V9.6Z" transform="translate(42.0001 21)" fill="white"/>
<path d="M10.0973 21V18.3H4.77727V7.04H1.73727V21H10.0973Z" transform="translate(59.0001 21)" fill="white"/>
<path d="M7.50133 21.24C11.2013 21.24 13.6413 18.76 13.6413 14.02C13.6413 9.28 11.2013 6.8 7.50133 6.8C3.80133 6.8 1.36133 9.28 1.36133 14.02C1.36133 18.76 3.80133 21.24 7.50133 21.24ZM7.50133 18.54C5.68133 18.54 4.58133 17.28 4.58133 15.06V12.98C4.58133 10.76 5.68133 9.5 7.50133 9.5C9.32133 9.5 10.4213 10.76 10.4213 12.98V15.06C10.4213 17.28 9.32133 18.54 7.50133 18.54Z" transform="translate(42.0001 38)" fill="white"/>
<path d="M10.7125 21H13.2725V13.22H7.7725V15.76H10.3725V16.46C10.3725 17.82 9.1525 18.54 7.6325 18.54C5.7525 18.54 4.5325 17.46 4.5325 15.14V12.9C4.5325 10.58 5.7525 9.5 7.6325 9.5C9.2525 9.5 10.1125 10.38 10.5325 11.46L13.0125 10.04C11.9725 7.9 10.1125 6.8 7.6325 6.8C3.8525 6.8 1.3125 9.38 1.3125 14.08C1.3125 18.76 3.8325 21.24 7.0325 21.24C9.1325 21.24 10.4125 20.18 10.6125 18.78H10.7125V21Z" transform="translate(57.0001 38)" fill="white"/>
</svg>
