<svg width="102" height="96" viewBox="0 0 102 96" fill="none" xmlns="http://www.w3.org/2000/svg">
<path d="M48.1519 95.7227C74.7455 95.7227 96.3039 74.2944 96.3039 47.8614C96.3039 21.4283 74.7455 0 48.1519 0C21.5584 0 0 21.4283 0 47.8614C0 74.2944 21.5584 95.7227 48.1519 95.7227Z" transform="translate(0.138092 95.9001) scale(1 -1)" fill="#FF2500"/>
<g style="mix-blend-mode:hard-light" transform="matrix(-0.486977 -0.873415 -0.876251 0.481855 101.15 67.906)">
<path fill-rule="evenodd" clip-rule="evenodd" d="M44.0117 0.16954C58.0708 1.30887 71.011 5.10946 79.5492 13.1107C88.1998 20.8759 92.4477 32.842 91.7049 44.86C91.3841 50.6308 89.3789 55.7699 86.575 59.3344C83.7513 62.9881 80.1289 65.0667 76.1155 66.7858C72.0823 68.4812 67.6582 69.8153 62.7755 71.4021C57.8732 72.8495 52.5123 74.5496 46.1494 73.7654C39.9323 73.2361 33.6503 69.4818 27.9612 64.9286C22.2598 60.4132 17.1516 55.099 12.9968 52.3176C8.83235 49.0274 5.62151 48.2702 3.47056 46.6998C1.30853 45.1806 0.206404 42.8483 0.00751867 37.5876C-0.0715055 32.5433 0.463739 25.9579 2.0263 20.6375C3.5781 15.1971 6.15675 11.0216 9.92077 8.02332C13.6672 4.99834 18.5977 3.15224 24.465 1.77414C30.3095 0.464409 37.0909 -0.377805 44.0117 0.16954Z" fill="#FFE500"/>
</g>
<g style="mix-blend-mode:hard-light" transform="matrix(0.352042 0.935984 0.933838 -0.357697 -8.99989 35.1118)">
<path fill-rule="evenodd" clip-rule="evenodd" d="M36.2508 0.0256075C41.1845 -0.211177 45.9909 1.23092 50.2089 2.8293C54.4433 4.51129 58.0894 6.3507 61.0794 8.85131C64.0714 11.3629 66.4069 14.535 68.0647 19.1253C69.71 23.653 70.6779 29.599 70.6477 36.2094C70.6046 49.4027 67.0339 65.5388 60.8084 75.8639C54.6091 86.5091 45.755 91.3431 35.7501 89.3248C30.788 88.6894 25.972 86.1585 21.6885 83.7876C17.3919 81.3043 13.6281 78.981 10.4692 76.1646C7.31139 73.3341 4.75893 70.0124 2.91215 65.2266C1.08079 60.5264 -0.0453716 54.362 0.00173774 47.8156C-0.057179 40.7121 1.38731 36.1578 3.56638 31.8795C5.761 27.6698 8.68949 23.7357 11.9641 19.4524C15.2552 15.2386 18.8921 10.6757 22.8698 6.78752C26.8636 2.96778 31.1982 -0.177374 36.2506 0.0256075H36.2508Z" fill="#0066FF"/>
</g>
<g style="mix-blend-mode:hard-light" transform="matrix(-0.899201 0.437536 0.443012 0.896516 77.7991 -9)">
<path fill-rule="evenodd" clip-rule="evenodd" d="M45.5361 0.0236329C51.7336 -0.194893 57.771 1.13601 63.0695 2.61113C68.3885 4.16342 72.9685 5.86099 76.7243 8.16878C80.4826 10.4867 83.4164 13.4142 85.4988 17.6506C87.5656 21.8291 88.7813 27.3166 88.7435 33.4173C88.6893 45.5933 84.2041 60.4851 76.3839 70.0141C68.5967 79.8384 57.4747 84.2997 44.9072 82.4369C38.674 81.8505 32.6245 79.5148 27.2438 77.3267C21.8467 75.0349 17.1189 72.8908 13.1507 70.2915C9.18413 67.6793 5.97789 64.6138 3.65807 60.197C1.35763 55.8592 -0.0569931 50.1701 0.00218285 44.1285C-0.0718249 37.5728 1.74265 33.3697 4.47988 29.4213C7.23663 25.5362 10.9152 21.9055 15.0286 17.9524C19.1626 14.0636 23.7311 9.85249 28.7276 6.26414C33.7444 2.73893 39.1893 -0.163697 45.5358 0.0236329H45.5361Z" fill="#69A5FF"/>
</g>
<path d="M7.66633 21.24C10.2263 21.24 11.8863 20.02 12.9263 17.9L10.4463 16.46C10.0263 17.6 9.16633 18.54 7.66633 18.54C5.88633 18.54 4.70633 17.34 4.70633 15.14V12.9C4.70633 10.7 5.88633 9.5 7.66633 9.5C9.16633 9.5 9.90633 10.28 10.2663 11.44L12.8863 10.08C11.8663 7.84 10.2263 6.8 7.66633 6.8C3.90633 6.8 1.48633 9.4 1.48633 14.12C1.48633 18.84 3.90633 21.24 7.66633 21.24Z" transform="translate(43.0003 17.999)" fill="white"/>
<path d="M4.84172 15.88H7.02172L9.46172 21H12.8417L10.1017 15.52C11.8017 14.88 12.6417 13.38 12.6417 11.5C12.6417 8.84 11.0017 7.04 8.42172 7.04H1.80172V21H4.84172V15.88ZM4.84172 13.32V9.68H8.04172C8.94172 9.68 9.50172 10.16 9.50172 11.06V11.94C9.50172 12.84 8.94172 13.32 8.04172 13.32H4.84172Z" transform="translate(58.0003 17.999)" fill="white"/>
<path d="M12.2866 21H15.1466V7.04H11.9066L8.52664 13.58H8.48664L5.06664 7.04H1.84664V21H4.70664V11.7H4.76664L5.82664 13.9L8.48664 18.82L11.2066 13.88L12.2266 11.84H12.2866V21Z" transform="translate(42.0003 34.999)" fill="white"/>
<path d="M11.4658 21V18.3H5.00578V15.28H10.5458V12.6H5.00578V9.74H11.4658V7.04H1.96578V21H11.4658Z" transform="translate(59.0003 34.999)" fill="white"/>
</svg>
