<svg width="107" height="96" viewBox="0 0 107 96" fill="none" xmlns="http://www.w3.org/2000/svg">
<path d="M48.1519 95.7227C74.7455 95.7227 96.3039 74.2944 96.3039 47.8614C96.3039 21.4283 74.7455 0 48.1519 0C21.5584 0 0 21.4283 0 47.8614C0 74.2944 21.5584 95.7227 48.1519 95.7227Z" transform="translate(5.13809 95.9009) scale(1 -1)" fill="#FF2500"/>
<g style="mix-blend-mode:hard-light" transform="matrix(0.498007 -0.867173 -0.864242 -0.503076 74.8359 106.271)">
<path fill-rule="evenodd" clip-rule="evenodd" d="M43.997 0.152532C58.0515 1.17757 70.9873 4.59691 79.5227 11.7955C88.1704 18.7818 92.4169 29.5474 91.6743 40.3599C91.3537 45.5518 89.3491 50.1753 86.5462 53.3823C83.7234 56.6695 80.1022 58.5396 76.0901 60.0862C72.0582 61.6116 67.6356 62.8118 62.7546 64.2394C57.8539 65.5416 52.4948 67.0712 46.134 66.3657C39.919 65.8895 33.6391 62.5118 27.9519 58.4154C22.2523 54.3529 17.1458 49.5718 12.9925 47.0694C8.82941 44.1093 5.61964 43.428 3.4694 42.0151C1.3081 40.6484 0.206335 38.55 0.00751616 33.817C-0.0714817 29.2787 0.463584 23.354 2.02562 18.5673C3.57691 13.6726 6.1547 9.91598 9.91746 7.21846C13.6626 4.49693 18.5915 2.83603 24.4568 1.59617C30.2994 0.417822 37.0785 -0.339906 43.997 0.152532Z" fill="#FFE500"/>
</g>
<g style="mix-blend-mode:hard-light" transform="matrix(-0.760133 0.649768 0.654353 0.756189 64.6727 -20)">
<path fill-rule="evenodd" clip-rule="evenodd" d="M45.6813 0.0261414C51.8985 -0.215581 57.9552 1.25659 63.2705 2.8883C68.6065 4.60536 73.2011 6.48313 76.9688 9.03588C80.7392 11.5998 83.6824 14.838 85.7714 19.5241C87.8447 24.1462 89.0643 30.2162 89.0264 36.9645C88.972 50.4329 84.4725 66.9055 76.6274 77.4459C68.8154 88.3131 57.6579 93.2479 45.0503 91.1874C38.7973 90.5388 32.7285 87.9552 27.3307 85.5348C21.9164 82.9997 17.1734 80.628 13.1927 77.7528C9.21341 74.8633 5.99694 71.4724 3.66973 66.5868C1.36196 61.7885 -0.0571747 55.4955 0.00218981 48.8127C-0.0720538 41.561 1.74821 36.9118 4.49416 32.5443C7.2597 28.2468 10.95 24.2307 15.0765 19.858C19.2237 15.5564 23.8068 10.8983 28.8192 6.92906C33.852 3.02967 39.3143 -0.181073 45.681 0.0261414H45.6813Z" fill="#0066FF"/>
</g>
<g style="mix-blend-mode:hard-light" transform="matrix(-0.899201 0.437536 0.443012 0.896516 69.7991 -10)">
<path fill-rule="evenodd" clip-rule="evenodd" d="M45.5361 0.0236329C51.7336 -0.194893 57.771 1.13601 63.0695 2.61113C68.3885 4.16342 72.9685 5.86099 76.7243 8.16878C80.4826 10.4867 83.4164 13.4142 85.4988 17.6506C87.5656 21.8291 88.7813 27.3166 88.7435 33.4173C88.6893 45.5933 84.2041 60.4851 76.3839 70.0141C68.5967 79.8384 57.4747 84.2997 44.9072 82.4369C38.674 81.8505 32.6245 79.5148 27.2438 77.3267C21.8467 75.0349 17.1189 72.8908 13.1507 70.2915C9.18413 67.6793 5.97789 64.6138 3.65807 60.197C1.35763 55.8592 -0.0569931 50.1701 0.00218285 44.1285C-0.0718249 37.5728 1.74265 33.3697 4.47988 29.4213C7.23663 25.5362 10.9152 21.9055 15.0286 17.9524C19.1626 14.0636 23.7311 9.85249 28.7276 6.26414C33.7444 2.73893 39.1893 -0.163697 45.5358 0.0236329H45.5361Z" fill="#69A5FF"/>
</g>
<path d="M7.82359 21V18.58H6.02359V9.46H7.82359V7.04H1.18359V9.46H2.98359V18.58H1.18359V21H7.82359Z" transform="translate(51.0001 17.9998)" fill="white"/>
<path d="M11.3002 9.74V7.04H0.700156V9.74H4.48016V21H7.52016V9.74H11.3002Z" transform="translate(64.0001 17.9998)" fill="white"/>
<path d="M4.73039 21V15.28H10.0304V12.6H4.73039V9.74H10.9504V7.04H1.69039V21H4.73039Z" transform="translate(49.0001 34.9998)" fill="white"/>
<path d="M4.84172 15.88H7.02172L9.46172 21H12.8417L10.1017 15.52C11.8017 14.88 12.6417 13.38 12.6417 11.5C12.6417 8.84 11.0017 7.04 8.42172 7.04H1.80172V21H4.84172V15.88ZM4.84172 13.32V9.68H8.04172C8.94172 9.68 9.50172 10.16 9.50172 11.06V11.94C9.50172 12.84 8.94172 13.32 8.04172 13.32H4.84172Z" transform="translate(63.0001 34.9998)" fill="white"/>
</svg>
