<svg width="97" height="97" viewBox="0 0 97 97" fill="none" xmlns="http://www.w3.org/2000/svg">
<path d="M48.1519 95.7227C74.7455 95.7227 96.3039 74.2944 96.3039 47.8614C96.3039 21.4283 74.7455 0 48.1519 0C21.5584 0 0 21.4283 0 47.8614C0 74.2944 21.5584 95.7227 48.1519 95.7227Z" transform="translate(0.138107 95.9009) scale(1 -1)" fill="#FF2500"/>
<g style="mix-blend-mode:hard-light" transform="matrix(-0.320262 0.947329 0.945437 0.325803 15.4126 1.19458)">
<path fill-rule="evenodd" clip-rule="evenodd" d="M38.9261 0.198807C51.3607 1.53482 62.8057 5.9915 70.3573 15.374C78.0083 24.4797 81.7654 38.5114 81.1084 52.6042C80.8247 59.3712 79.0512 65.3974 76.5713 69.5772C74.0739 73.8616 70.87 76.2991 67.3203 78.315C63.7532 80.3031 59.8403 81.8675 55.5218 83.7281C51.1859 85.4254 46.4445 87.4191 40.8168 86.4994C35.3182 85.8788 29.762 81.4764 24.7303 76.1372C19.6877 70.8423 15.1697 64.6107 11.495 61.3492C7.81178 57.491 4.97195 56.6031 3.06953 54.7615C1.15733 52.9801 0.182554 50.2451 0.00664989 44.0763C-0.0632431 38.1612 0.410154 30.439 1.79216 24.2002C3.16465 17.8206 5.44534 12.9243 8.77443 9.40838C12.0879 5.8612 16.4487 3.69641 21.638 2.08041C26.8072 0.544579 32.8051 -0.443025 38.9261 0.198807Z" fill="#FFE500"/>
</g>
<g style="mix-blend-mode:hard-light" transform="matrix(-0.760133 0.649768 0.654353 0.756189 54.7892 -13.3018)">
<path fill-rule="evenodd" clip-rule="evenodd" d="M36.2508 0.0236315C41.1845 -0.194882 45.9909 1.13594 50.2089 2.61098C54.4433 4.16318 58.0894 5.86065 61.0794 8.1683C64.0714 10.486 66.4069 13.4134 68.0647 17.6495C69.71 21.8278 70.6779 27.315 70.6477 33.4153C70.6046 45.5906 67.0339 60.4816 60.8084 70.0099C54.6091 79.8337 45.755 84.2947 35.7501 82.4321C30.788 81.8457 25.972 79.5102 21.6885 77.3222C17.3919 75.0305 13.6281 72.8865 10.4692 70.2874C7.31139 67.6753 4.75893 64.61 2.91215 60.1934C1.08079 55.8559 -0.0453716 50.1671 0.00173774 44.1259C-0.057179 37.5705 1.38731 33.3677 3.56638 29.4195C5.761 25.5347 8.68949 21.9042 11.9641 17.9514C15.2552 14.0627 18.8921 9.85191 22.8698 6.26377C26.8636 2.73877 31.1982 -0.163687 36.2506 0.0236315H36.2508Z" fill="#0066FF"/>
</g>
<g style="mix-blend-mode:hard-light" transform="matrix(0.894613 0.446843 0.441379 -0.897321 -12.2116 57.8982)">
<path fill-rule="evenodd" clip-rule="evenodd" d="M45.5361 0.0236329C51.7336 -0.194893 57.771 1.13601 63.0695 2.61113C68.3885 4.16342 72.9685 5.86099 76.7243 8.16878C80.4826 10.4867 83.4164 13.4142 85.4988 17.6506C87.5656 21.8291 88.7813 27.3166 88.7435 33.4173C88.6893 45.5933 84.2041 60.4851 76.3839 70.0141C68.5967 79.8384 57.4747 84.2997 44.9072 82.4369C38.674 81.8505 32.6245 79.5148 27.2438 77.3267C21.8467 75.0349 17.1189 72.8908 13.1507 70.2915C9.18413 67.6793 5.97789 64.6138 3.65807 60.197C1.35763 55.8592 -0.0569931 50.1701 0.00218285 44.1285C-0.0718249 37.5728 1.74265 33.3697 4.47988 29.4213C7.23663 25.5362 10.9152 21.9055 15.0286 17.9524C19.1626 14.0636 23.7311 9.85249 28.7276 6.26414C33.7444 2.73893 39.1893 -0.163697 45.5358 0.0236329H45.5361Z" fill="#69A5FF"/>
</g>
<path d="M7.82359 21V18.58H6.02359V9.46H7.82359V7.04H1.18359V9.46H2.98359V18.58H1.18359V21H7.82359Z" transform="translate(45.0002 18)" fill="white"/>
<path d="M11.3002 9.74V7.04H0.700156V9.74H4.48016V21H7.52016V9.74H11.3002Z" transform="translate(58.0002 18)" fill="white"/>
<path d="M10.0973 21V18.3H4.77727V7.04H1.73727V21H10.0973Z" transform="translate(44.0002 35)" fill="white"/>
<path d="M0.591484 21H3.87148L6.81148 15.86H6.87148L9.89148 21H13.4115L8.87148 13.84L13.1715 7.04H9.89148L7.13148 11.76H7.07148L4.35148 7.04H0.811484L5.07148 13.78L0.591484 21Z" transform="translate(57.0002 35)" fill="white"/>
</svg>
