<svg width="106" height="99" viewBox="0 0 106 99" fill="none" xmlns="http://www.w3.org/2000/svg">
<path d="M48.1519 95.7227C74.7455 95.7227 96.3039 74.2944 96.3039 47.8614C96.3039 21.4283 74.7455 0 48.1519 0C21.5584 0 0 21.4283 0 47.8614C0 74.2944 21.5584 95.7227 48.1519 95.7227Z" transform="translate(2.13814 96.9011) scale(1 -1)" fill="#FF2500"/>
<g style="mix-blend-mode:hard-light" transform="matrix(-0.737076 -0.67581 -0.680115 0.733106 98.1843 49.8638)">
<path fill-rule="evenodd" clip-rule="evenodd" d="M38.9261 0.173056C51.3607 1.33601 62.8057 5.21543 70.3573 13.3826C78.0083 21.3089 81.7654 33.5231 81.1084 45.7904C80.8247 51.6809 79.0512 56.9265 76.5713 60.5649C74.0739 64.2944 70.87 66.4161 67.3203 68.1709C63.7532 69.9015 59.8403 71.2632 55.5218 72.8829C51.1859 74.3603 46.4445 76.0957 40.8168 75.2952C35.3182 74.755 29.762 70.9228 24.7303 66.2752C19.6877 61.6662 15.1697 56.2417 11.495 53.4026C7.81178 50.0442 4.97195 49.2713 3.06953 47.6683C1.15733 46.1177 0.182554 43.7369 0.00664989 38.3671C-0.0632431 33.2182 0.410154 26.4963 1.79216 21.0655C3.16465 15.5123 5.44534 11.2502 8.77443 8.18971C12.0879 5.102 16.4487 3.21762 21.638 1.81093C26.8072 0.47404 32.8051 -0.385641 38.9261 0.173056Z" fill="#FFE500"/>
</g>
<g style="mix-blend-mode:hard-light" transform="matrix(-0.352066 -0.935975 -0.933829 0.35772 108.895 80.114)">
<path fill-rule="evenodd" clip-rule="evenodd" d="M43.4066 0.0236315C49.3142 -0.194882 55.0693 1.13594 60.12 2.61098C65.1903 4.16318 69.5561 5.86065 73.1362 8.1683C76.7188 10.486 79.5154 13.4134 81.5004 17.6495C83.4705 21.8278 84.6294 27.315 84.5933 33.4153C84.5417 45.5906 80.2662 60.4816 72.8118 70.0099C65.3888 79.8337 54.7869 84.2947 42.807 82.4321C36.8654 81.8457 31.0987 79.5102 25.9698 77.3222C20.825 75.0305 16.3183 72.8865 12.5357 70.2874C8.75463 67.6753 5.69833 64.61 3.487 60.1934C1.29414 55.8559 -0.0543277 50.1671 0.00208077 44.1259C-0.0684659 37.5705 1.66115 33.3677 4.27037 29.4195C6.8982 25.5347 10.4048 21.9042 14.3258 17.9514C18.2665 14.0627 22.6213 9.85191 27.3842 6.26377C32.1663 2.73877 37.3566 -0.163687 43.4063 0.0236315H43.4066Z" fill="#0066FF"/>
</g>
<g style="mix-blend-mode:hard-light" transform="matrix(-0.899201 0.437536 0.443012 0.896516 81.7992 -17)">
<path fill-rule="evenodd" clip-rule="evenodd" d="M45.5361 0.0236329C51.7336 -0.194893 57.771 1.13601 63.0695 2.61113C68.3885 4.16342 72.9685 5.86099 76.7243 8.16878C80.4826 10.4867 83.4164 13.4142 85.4988 17.6506C87.5656 21.8291 88.7813 27.3166 88.7435 33.4173C88.6893 45.5933 84.2041 60.4851 76.3839 70.0141C68.5967 79.8384 57.4747 84.2997 44.9072 82.4369C38.674 81.8505 32.6245 79.5148 27.2438 77.3267C21.8467 75.0349 17.1189 72.8908 13.1507 70.2915C9.18413 67.6793 5.97789 64.6138 3.65807 60.197C1.35763 55.8592 -0.0569931 50.1701 0.00218285 44.1285C-0.0718249 37.5728 1.74265 33.3697 4.47988 29.4213C7.23663 25.5362 10.9152 21.9055 15.0286 17.9524C19.1626 14.0636 23.7311 9.85249 28.7276 6.26414C33.7444 2.73893 39.1893 -0.163697 45.5358 0.0236329H45.5361Z" fill="#69A5FF"/>
</g>
<path d="M6.31977 21.24C9.79977 21.24 11.7598 19.38 11.7598 16.7C11.7598 14.3 10.3798 13.02 7.51977 12.56L6.13977 12.34C4.97977 12.16 4.47977 11.8 4.47977 10.84C4.47977 10 5.13977 9.48 6.49977 9.48C7.93977 9.48 8.83977 10.02 9.49977 10.8L11.5198 8.76C10.3798 7.5 8.77977 6.8 6.67977 6.8C3.39977 6.8 1.43977 8.54 1.43977 11.04C1.43977 13.38 2.77977 14.82 5.71977 15.2L7.09977 15.38C8.39977 15.56 8.71977 16.12 8.71977 16.88C8.71977 17.9 7.99977 18.56 6.51977 18.56C5.15977 18.56 3.95977 18.02 3.01977 16.96L1.01977 18.98C2.21977 20.3 3.87977 21.24 6.31977 21.24Z" transform="translate(45.0002 19.0002)" fill="white"/>
<path d="M7.18 21.24C9.74 21.24 11.4 20.02 12.44 17.9L9.96 16.46C9.54 17.6 8.68 18.54 7.18 18.54C5.4 18.54 4.22 17.34 4.22 15.14V12.9C4.22 10.7 5.4 9.5 7.18 9.5C8.68 9.5 9.42 10.28 9.78 11.44L12.4 10.08C11.38 7.84 9.74 6.8 7.18 6.8C3.42 6.8 1 9.4 1 14.12C1 18.84 3.42 21.24 7.18 21.24Z" transform="translate(59.0002 19.0002)" fill="white"/>
<path d="M12.2866 21H15.1466V7.04H11.9066L8.52664 13.58H8.48664L5.06664 7.04H1.84664V21H4.70664V11.7H4.76664L5.82664 13.9L8.48664 18.82L11.2066 13.88L12.2266 11.84H12.2866V21Z" transform="translate(43.0002 36.0002)" fill="white"/>
<path d="M13.4543 21L8.9143 7.04H5.1543L0.554297 21H3.6343L4.6343 17.68H9.2943L10.2943 21H13.4543ZM8.5543 15.1H5.3543L6.8943 9.8H6.9943L8.5543 15.1Z" transform="translate(59.0002 36.0002)" fill="white"/>
</svg>
