<svg width="105" height="99" viewBox="0 0 105 99" fill="none" xmlns="http://www.w3.org/2000/svg">
<path d="M48.1519 95.7227C74.7455 95.7227 96.3039 74.2944 96.3039 47.8614C96.3039 21.4283 74.7455 0 48.1519 0C21.5584 0 0 21.4283 0 47.8614C0 74.2944 21.5584 95.7227 48.1519 95.7227Z" transform="translate(4.13809 98.9011) scale(1 -1)" fill="#FF2500"/>
<g style="mix-blend-mode:hard-light" transform="matrix(-0.737076 -0.67581 -0.680115 0.733106 104.825 42.8638)">
<path fill-rule="evenodd" clip-rule="evenodd" d="M38.9261 0.198807C51.3607 1.53482 62.8057 5.9915 70.3573 15.374C78.0083 24.4797 81.7654 38.5114 81.1084 52.6042C80.8247 59.3712 79.0512 65.3974 76.5713 69.5772C74.0739 73.8616 70.87 76.2991 67.3203 78.315C63.7532 80.3031 59.8403 81.8675 55.5218 83.7281C51.1859 85.4254 46.4445 87.4191 40.8168 86.4994C35.3182 85.8788 29.762 81.4764 24.7303 76.1372C19.6877 70.8423 15.1697 64.6107 11.495 61.3492C7.81178 57.491 4.97195 56.6031 3.06953 54.7615C1.15733 52.9801 0.182554 50.2451 0.00664989 44.0763C-0.0632431 38.1612 0.410154 30.439 1.79216 24.2002C3.16465 17.8206 5.44534 12.9243 8.77443 9.40838C12.0879 5.8612 16.4487 3.69641 21.638 2.08041C26.8072 0.544579 32.8051 -0.443025 38.9261 0.198807Z" fill="#FFE500"/>
</g>
<g style="mix-blend-mode:hard-light" transform="matrix(-0.687303 -0.72637 -0.7222 0.691684 105.936 51.0657)">
<path fill-rule="evenodd" clip-rule="evenodd" d="M38.8989 0.0236315C44.193 -0.194882 49.3505 1.13594 53.8767 2.61098C58.4204 4.16318 62.3328 5.86065 65.5412 8.1683C68.7517 10.486 71.2579 13.4134 73.0368 17.6495C74.8023 21.8278 75.8408 27.315 75.8085 33.4153C75.7622 45.5906 71.9307 60.4816 65.2504 70.0099C58.5983 79.8337 49.0974 84.2947 38.3616 82.4321C33.037 81.8457 27.8692 79.5102 23.2729 77.3222C18.6624 75.0305 14.6237 72.8865 11.2339 70.2874C7.84548 67.6753 5.10657 64.61 3.12488 60.1934C1.15974 55.8559 -0.0486859 50.1671 0.00186468 44.1259C-0.0613559 37.5705 1.48865 33.3677 3.8269 29.4195C6.18184 25.5347 9.32425 21.9042 12.8381 17.9514C16.3695 14.0627 20.2721 9.85191 24.5404 6.26377C28.8259 2.73877 33.4772 -0.163687 38.8987 0.0236315H38.8989Z" fill="#0066FF"/>
</g>
<g style="mix-blend-mode:hard-light" transform="matrix(-0.899201 0.437536 0.443012 0.896516 78.8447 -15)">
<path fill-rule="evenodd" clip-rule="evenodd" d="M39.2853 0.0249515C44.6319 -0.205767 49.8406 1.19939 54.4117 2.75682C59.0006 4.39572 62.9519 6.188 66.1921 8.62455C69.4345 11.0718 71.9656 14.1626 73.7621 18.6354C75.5452 23.047 76.594 28.8408 76.5614 35.2818C76.5147 48.1371 72.6451 63.8599 65.8984 73.9205C59.1803 84.2929 49.585 89.0031 38.7426 87.0364C33.3651 86.4173 28.146 83.9513 23.504 81.6411C18.8478 79.2214 14.7689 76.9577 11.3455 74.2134C7.9234 71.4554 5.15729 68.2189 3.15592 63.5556C1.17126 58.9758 -0.0491694 52.9693 0.0018832 46.5907C-0.0619652 39.6691 1.50343 35.2315 3.86491 31.0628C6.24323 26.961 9.41685 23.1277 12.9656 18.9541C16.5321 14.8482 20.4735 10.4022 24.7841 6.61364C29.1122 2.89175 33.8097 -0.17283 39.285 0.0249515H39.2853Z" fill="#69A5FF"/>
</g>
<path d="M7.49344 21L9.25344 13.44L9.95344 10.38H10.0134L10.6934 13.44L12.4534 21H15.9134L19.1534 7.04H16.2734L14.9334 13.74L14.1934 17.62H14.1334L13.2734 13.74L11.7134 7.04H8.39344L6.85344 13.74L5.97344 17.62H5.91344L5.17344 13.74L3.85344 7.04H0.853437L4.01344 21H7.49344Z" transform="translate(43.0001 21)" fill="white"/>
<path d="M1.87008 21H9.27008C11.3301 21 12.8701 19.22 12.8701 17.02C12.8701 14.62 11.0501 13.74 9.73008 13.74V13.62C11.1501 13.56 12.3301 12.76 12.3301 10.62C12.3301 8.46 10.9501 7.04 8.65008 7.04H1.87008V21ZM4.91008 15.24H8.41008C9.21008 15.24 9.71008 15.7 9.71008 16.5V17.18C9.71008 17.98 9.21008 18.44 8.41008 18.44H4.91008V15.24ZM4.91008 9.6H7.93008C8.73008 9.6 9.21008 10.08 9.21008 10.88V11.48C9.21008 12.28 8.73008 12.76 7.93008 12.76H4.91008V9.6Z" transform="translate(61.0001 21)" fill="white"/>
<path d="M9.88367 21H13.2037V7.04H10.3437V16.44H10.2837L8.94367 13.64L5.12367 7.04H1.80367V21H4.66367V11.6H4.72367L6.06367 14.4L9.88367 21Z" transform="translate(46.0001 38)" fill="white"/>
<path d="M4.84172 15.88H7.02172L9.46172 21H12.8417L10.1017 15.52C11.8017 14.88 12.6417 13.38 12.6417 11.5C12.6417 8.84 11.0017 7.04 8.42172 7.04H1.80172V21H4.84172V15.88ZM4.84172 13.32V9.68H8.04172C8.94172 9.68 9.50172 10.16 9.50172 11.06V11.94C9.50172 12.84 8.94172 13.32 8.04172 13.32H4.84172Z" transform="translate(61.0001 38)" fill="white"/>
</svg>
