<svg width="505" height="336" viewBox="0 0 505 336" fill="none" xmlns="http://www.w3.org/2000/svg">
<path d="M126.922 166.068C123 151.838 101.234 141.348 84.2496 138.638V131.801L85.186 131.438C85.0974 130.073 84.8238 128.726 84.3725 127.434C91.6309 124.478 97.8962 119.513 102.434 113.122C107.209 108.119 110.807 102.113 112.965 95.5419C115.123 88.9709 115.787 82.0008 114.908 75.1405C114.029 68.2801 111.63 61.7026 107.885 55.8881C104.14 50.0735 99.1447 45.1687 93.2627 41.5316C94.882 40.5138 96.1401 39.0123 96.8588 37.2397C97.5776 35.4671 97.7204 33.5133 97.2673 31.655C96.8141 29.7967 95.7878 28.128 94.3338 26.8855C92.8798 25.6429 91.0718 24.8893 89.1659 24.7315C90.7194 21.0656 90.9985 16.9843 89.9582 13.141C88.918 9.29767 86.6187 5.91449 83.4283 3.53294C80.2379 1.1514 76.341 -0.0907964 72.3611 0.00517065C68.3813 0.101138 64.5487 1.52972 61.4767 4.06227C64.1865 2.62027 67.2233 1.90441 70.2917 1.98439C73.3601 2.06436 76.3556 2.93743 78.9866 4.51864C81.6176 6.09985 83.7945 8.33535 85.3055 11.0076C86.8164 13.6798 87.6101 16.6977 87.6091 19.7676C87.6091 19.9257 87.6091 20.0779 87.6091 20.2301C87.5342 17.6528 86.9002 15.1226 85.7508 12.8147C84.6013 10.5068 82.9641 8.47638 80.9523 6.86407C78.9406 5.25177 76.6025 4.09611 74.0999 3.47716C71.5973 2.8582 68.9902 2.79075 66.4589 3.27946C63.9277 3.76816 61.533 4.80134 59.4406 6.30745C57.3482 7.81356 55.6081 9.75659 54.3409 12.002C53.0738 14.2473 52.3097 16.7414 52.1018 19.3113C51.8938 21.8813 52.2469 24.4657 53.1366 26.8857C51.7734 27.1783 50.4981 27.7875 49.4137 28.6641C48.3293 29.5407 47.4663 30.66 46.8943 31.9318C46.3224 33.2036 46.0575 34.5921 46.1211 35.9851C46.1847 37.3782 46.575 38.7367 47.2605 39.9511C40.8267 43.3315 35.2758 48.1747 31.0542 54.0913C26.8325 60.0079 24.058 66.8327 22.9536 74.017C21.8492 81.2013 22.4458 88.5446 24.6954 95.4563C26.9451 102.368 30.7849 108.655 35.9063 113.813C40.2261 119.633 46.0036 124.213 52.6567 127.089V138.486C35.4908 140.938 12.8876 151.621 8.94292 166.203C5.50153 178.911 1.82604 192.866 -3.5722e-06 201.061C15.6677 212.072 48.5423 218.54 69.1496 218.54C88.7269 218.54 120.724 212.687 135.929 202.677C134.302 193.674 130.515 179.104 126.922 166.068ZM95.5395 34.6067C95.5395 34.7706 95.5395 34.9286 95.5395 35.0867C95.4238 33.0774 94.6304 31.1667 93.2889 29.6665C91.9474 28.1664 90.137 27.1654 88.1534 26.8272C88.325 26.5345 88.4889 26.2379 88.645 25.9374C90.6048 26.39 92.3535 27.4936 93.6056 29.0681C94.8577 30.6425 95.5394 32.5949 95.5395 34.6067Z" transform="translate(121.192 66)" fill="url(#paint0_linear)"/>
<path d="M67.1773 78.2927C86.1985 78.2927 117.282 72.6205 132.054 62.88C130.457 54.1347 126.787 39.9805 123.275 27.3132C118.833 11.1805 90.787 -6.43102e-06 74.0542 -6.43102e-06H57.9417C41.162 -6.43102e-06 13.0749 11.2507 8.6854 27.4478C5.34351 39.7932 1.75581 53.3561 0 61.3171C15.217 71.9883 47.161 78.2927 67.1773 78.2927Z" transform="translate(123.152 203.133)" fill="#6C63FF"/>
<path d="M45.1184 90.2517C70.0367 90.2517 90.2369 70.0482 90.2369 45.1259C90.2369 20.2035 70.0367 0 45.1184 0C20.2002 0 -2.14332e-06 20.2035 -2.14332e-06 45.1259C-2.14332e-06 70.0482 20.2002 90.2517 45.1184 90.2517Z" transform="translate(144.907 102.731)" fill="#F55F44"/>
<path d="M3.55844 -4.28735e-06H27.1624C28.0937 -4.28735e-06 28.9869 0.370027 29.6455 1.02869C30.304 1.68736 30.674 2.5807 30.674 3.51219V27.6527C30.674 31.4998 29.146 35.1893 26.4262 37.9095C23.7063 40.6298 20.0174 42.1581 16.171 42.1581H14.503C10.6566 42.1581 6.96766 40.6298 4.24782 37.9095C1.52798 35.1893 5.00108e-06 31.4998 5.00108e-06 27.6527V3.53561C5.00108e-06 2.60412 0.369975 1.71078 1.02853 1.05211C1.68709 0.393447 2.58028 0.0234154 3.51162 0.0234154L3.55844 -4.28735e-06Z" transform="translate(174.287 179.228)" fill="#FDA57D"/>
<path opacity="0.05" d="M15.6911 16.601C20.7716 16.6043 25.8059 15.6346 30.5218 13.7444C30.2799 10.0249 28.6342 6.53622 25.9177 3.98446C23.2012 1.4327 19.6168 0.00846185 15.8901 -5.71647e-06H14.6317C10.9634 0.00264233 7.42847 1.37685 4.72124 3.85275C2.01401 6.32865 0.330039 9.72735 1.42888e-06 13.3815C4.95815 15.5072 10.2966 16.6025 15.6911 16.601Z" transform="translate(175.353 183.067)" fill="black"/>
<path d="M39.9154 79.8439C61.9601 79.8439 79.8308 61.9703 79.8308 39.922C79.8308 17.8737 61.9601 0 39.9154 0C17.8707 0 -2.85776e-06 17.8737 -2.85776e-06 39.922C-2.85776e-06 61.9703 17.8707 79.8439 39.9154 79.8439Z" transform="translate(150.192 115.984)" fill="#FDA57D"/>
<path d="M8.63858 17.28C13.4095 17.28 17.2772 13.4117 17.2772 8.64C17.2772 3.86826 13.4095 2.85823e-06 8.63858 2.85823e-06C3.86763 2.85823e-06 -5.00108e-06 3.86826 -5.00108e-06 8.64C-5.00108e-06 13.4117 3.86763 17.28 8.63858 17.28Z" transform="translate(167.949 95.0513)" fill="#F55F44"/>
<path d="M8.63859 17.28C13.4095 17.28 17.2772 13.4117 17.2772 8.64C17.2772 3.86826 13.4095 2.85823e-06 8.63859 2.85823e-06C3.86763 2.85823e-06 0 3.86826 0 8.64C0 13.4117 3.86763 17.28 8.63859 17.28Z" transform="translate(198.664 95.0513)" fill="#F55F44"/>
<path d="M17.2772 34.56C26.8191 34.56 34.5543 26.8235 34.5543 17.28C34.5543 7.73652 26.8191 -1.96504e-06 17.2772 -1.96504e-06C7.73525 -1.96504e-06 -7.14441e-06 7.73652 -7.14441e-06 17.28C-7.14441e-06 26.8235 7.73525 34.56 17.2772 34.56Z" transform="translate(173.708 72.0117)" fill="#F55F44"/>
<path d="M4.82262 8.90029e-05C3.1044 -0.00313396 1.42464 0.508616 4.28664e-06 1.46935C1.97988 0.77328 4.1454 0.821886 6.09208 1.60606C8.03875 2.39023 9.63346 3.85634 10.5783 5.73056C11.5231 7.60478 11.7535 9.75893 11.2264 11.7906C10.6992 13.8223 9.45067 15.5926 7.71386 16.7708C9.63516 16.0887 11.2531 14.7484 12.281 12.9875C13.309 11.2265 13.6806 9.15851 13.3301 7.14976C12.9796 5.14101 11.9296 3.32115 10.366 2.01254C8.80245 0.703925 6.82626 -0.00897785 4.78751 8.90029e-05H4.82262Z" transform="translate(204.4 93.1313)" fill="#F55F44"/>
<path d="M11.0148 7.48977e-05C6.99514 -0.0119495 3.09813 1.38391 0 3.94544C3.7818 1.93287 8.17631 1.39725 12.3307 2.44254C16.4851 3.48783 20.103 6.03948 22.4825 9.60229C24.8619 13.1651 25.8331 17.485 25.2076 21.7236C24.5821 25.9622 22.4045 29.8172 19.0974 32.5406C22.5028 30.7313 25.2051 27.8346 26.7742 24.3116C28.3433 20.7886 28.689 16.8419 27.7561 13.0997C26.8233 9.35755 24.6655 6.03507 21.6264 3.66122C18.5873 1.28737 14.8416 -0.00140663 10.9855 7.48977e-05H11.0148Z" transform="translate(182.85 69.1255)" fill="#F55F44"/>
<path d="M-7.14441e-06 11.5259C-7.14441e-06 11.5259 4.79923 43.2117 65.281 25.9259L35.52 -1.42912e-06L-7.14441e-06 11.5259Z" transform="translate(161.224 108.474)" fill="#F55F44"/>
<g opacity="0.7">
<path opacity="0.7" d="M46.9595 30.7856C47.4077 28.9866 47.3003 27.0939 46.6515 25.3571C46.0027 23.6204 44.8429 22.1211 43.325 21.0568C42.4859 20.5757 41.6731 20.0501 40.8902 19.4822C39.7174 18.3652 38.8732 16.948 38.4497 15.3846C37.2264 11.7202 36.846 7.60507 34.7039 4.2919C32.755 1.27726 28.9624 0.393371 25.5971 0.0948341C24.3765 -0.104868 23.1251 0.0120405 21.9626 0.434356C20.0897 1.28314 19.1943 3.49582 19.1065 5.55631C19.0187 7.6168 19.5571 9.65387 19.6918 11.6968C19.8264 13.7397 19.4576 16.0109 17.9359 17.4041C16.4142 18.7973 14.2487 18.9612 12.2413 19.2421C9.61151 19.6089 7.02784 20.2525 4.53327 21.1622C2.43801 21.9231 0.102776 23.3046 0.0032799 25.5348C-0.0786579 27.3553 1.39038 28.8129 2.49653 30.2587C3.5548 31.6037 4.31543 33.1581 4.72809 34.8191C5.14075 36.4802 5.19604 38.2099 4.89029 39.8939C4.17626 43.289 1.79421 46.1983 1.37867 49.6402C1.2162 50.5007 1.32457 51.3903 1.68886 52.1866C2.02492 52.7314 2.46912 53.2016 2.99401 53.568C4.28746 54.569 5.73307 55.3709 6.96214 56.4597C9.51977 58.7251 10.901 62.009 11.9662 65.2402C12.0715 65.5505 12.1593 65.8666 12.2588 66.1826H9.74803C7.28498 66.1888 4.92458 67.1702 3.18294 68.9121C1.4413 70.654 0.460121 73.0148 0.45394 75.4783C0.460121 77.9417 1.4413 80.3025 3.18294 82.0444C4.92458 83.7864 7.28498 84.7677 9.74803 84.7739H34.8327C37.2957 84.7677 39.6561 83.7864 41.3978 82.0444C43.1394 80.3025 44.1206 77.9417 44.1268 75.4783C44.1068 73.027 43.1219 70.6823 41.3855 68.9522C39.6492 67.2222 37.3012 66.246 34.8502 66.2354H27.9733C29.6004 64.0578 31.2977 62.009 33.826 61.1719C36.3544 60.3348 39.3744 60.8266 41.3409 59.0763C42.2642 58.1682 42.8627 56.9812 43.044 55.6988C43.4603 53.4102 43.0716 51.0482 41.9437 49.0139C41.1536 47.6032 39.9948 46.3212 39.7431 44.7231C39.6163 43.3339 39.9494 41.9415 40.6912 40.7602C42.5758 37.2714 45.9353 34.5963 46.9595 30.7856Z" transform="translate(24.8941 236.399)" fill="url(#paint1_linear)"/>
</g>
<path d="M24.3443 0.0904781C23.1828 -0.099773 21.9919 0.0111034 20.8854 0.412458C19.1003 1.22026 18.2517 3.33926 18.1698 5.28853C18.0878 7.2378 18.597 9.18122 18.755 11.1422C18.913 13.1032 18.5326 15.2398 17.0928 16.5744C15.6531 17.909 13.5812 18.0554 11.6674 18.3305C9.15955 18.6784 6.69551 19.2906 4.31642 20.1568C2.32065 20.8827 0.0966168 22.1939 0.00297363 24.3188C-0.0731114 26.0749 1.32568 27.4388 2.37917 28.8203C3.38531 30.0992 4.10896 31.5769 4.5024 33.156C4.89585 34.7351 4.95015 36.3797 4.66173 37.9813C3.98281 41.2125 1.73537 43.9871 1.30227 47.2652C1.15147 48.0969 1.26613 48.9549 1.63002 49.7178C1.94982 50.2366 2.37201 50.6848 2.8708 51.0349C4.10572 51.9891 5.4811 52.7559 6.64579 53.7861C9.08051 55.9403 10.3974 59.0544 11.4157 62.1627C12.414 65.2002 13.1964 68.3046 13.7568 71.4525C15.8521 70.1061 18.5619 70.1237 20.7801 69.0232C25.5441 66.6817 27.1478 59.9208 32.1753 58.2349C34.5573 57.4388 37.4427 57.9071 39.3331 56.2388C40.2148 55.3739 40.7867 54.2423 40.9602 53.0193C41.3552 50.8358 40.9808 48.5829 39.9008 46.6447C39.1458 45.2983 38.0455 44.0808 37.8055 42.5471C37.6838 41.2238 38.0005 39.8971 38.7069 38.7715C40.5154 35.4817 43.7109 32.9178 44.6883 29.3061C45.1132 27.5932 45.0097 25.7916 44.3912 24.1387C43.7728 22.4857 42.6684 21.0588 41.2235 20.0456C40.4168 19.5885 39.6353 19.0883 38.8824 18.5471C37.7599 17.4864 36.9502 16.1379 36.5414 14.6486C35.3708 11.1364 35.0138 7.24369 32.9712 4.11198C31.1627 1.21441 27.5516 0.400722 24.3443 0.0904781Z" transform="translate(26.0474 238.429)" fill="#4DB6AC"/>
<path opacity="0.6" d="M7.07591 -1.00038e-05C7.07591 -1.00038e-05 11.5005 59.3151 -7.14441e-07 69.4712" transform="translate(43.2807 238.636)" stroke="#535461" stroke-miterlimit="10"/>
<path d="M33.2141 5.71647e-06H8.36936C3.74709 5.71647e-06 0 3.7477 0 8.37073V9.33074C0 13.9538 3.74709 17.7015 8.36936 17.7015H33.2141C37.8363 17.7015 41.5834 13.9538 41.5834 9.33074V8.37073C41.5834 3.7477 37.8363 5.71647e-06 33.2141 5.71647e-06Z" transform="translate(26.4718 301.469)" fill="#6C63FF"/>
<path opacity="0.6" d="M0 0.0758244C0 0.0758244 11.3133 -1.24712 25.1198 7.15874" transform="translate(25.9977 261.583)" stroke="#535461" stroke-miterlimit="10"/>
<path opacity="0.6" d="M3.5722e-06 12.3922C2.26833 9.07857 5.19507 6.26804 8.59762 4.13593C12.0002 2.00383 15.8055 0.595902 19.7763 0" transform="translate(50.9302 263.415)" stroke="#535461" stroke-miterlimit="10"/>
<path opacity="0.6" d="M1.42888e-06 0.793215C1.42888e-06 0.793215 15.6794 -1.86435 22.884 2.54931" transform="translate(27.1331 284.97)" stroke="#535461" stroke-miterlimit="10"/>
<path opacity="0.6" d="M-3.21498e-06 1.8821C-3.21498e-06 1.8821 8.19377 -1.84083 17.441 1.18551" transform="translate(49.1217 291.731)" stroke="#535461" stroke-miterlimit="10"/>
<g opacity="0.7">
<path opacity="0.7" d="M31.8797 6.3805V-7.14558e-06H-5.71552e-06V29.4966C-5.71552e-06 31.1453 0.654852 32.7265 1.8205 33.8924C2.98614 35.0582 4.56709 35.7132 6.21556 35.7132H25.6641C27.3126 35.7132 28.8935 35.0582 30.0592 33.8924C31.2248 32.7265 31.8797 31.1453 31.8797 29.4966V22.9464C34.0784 22.9464 36.1871 22.0728 37.7418 20.5178C39.2966 18.9628 40.17 16.8538 40.17 14.6547C40.17 12.4556 39.2966 10.3465 37.7418 8.79152C36.1871 7.23653 34.0784 6.36292 31.8797 6.36292V6.3805ZM31.8797 19.7737V9.56489C32.564 9.5417 33.246 9.65648 33.8851 9.90241C34.5242 10.1483 35.1072 10.5204 35.5996 10.9964C36.0919 11.4724 36.4834 12.0426 36.7508 12.6731C37.0182 13.3036 37.156 13.9815 37.156 14.6663C37.156 15.3512 37.0182 16.0291 36.7508 16.6596C36.4834 17.2901 36.0919 17.8603 35.5996 18.3363C35.1072 18.8123 34.5242 19.1844 33.8851 19.4303C33.246 19.6762 32.564 19.791 31.8797 19.7678V19.7737Z" transform="translate(316.432 283.786)" fill="url(#paint2_linear)"/>
</g>
<path d="M7.56754 1.42912e-05C6.07082 1.42912e-05 4.60771 0.443903 3.36324 1.27557C2.11876 2.10724 1.14883 3.28932 0.576061 4.67233C0.00329211 6.05535 -0.146599 7.57719 0.145396 9.04539C0.437391 10.5136 1.15815 11.8622 2.21649 12.9207C3.27483 13.9792 4.62323 14.7001 6.09119 14.9921C7.55914 15.2842 9.08074 15.1343 10.4635 14.5614C11.8463 13.9886 13.0282 13.0185 13.8597 11.7738C14.6913 10.5291 15.1351 9.06576 15.1351 7.56879C15.1351 5.56143 14.3378 3.63628 12.9186 2.21686C11.4994 0.797437 9.57458 1.42912e-05 7.56754 1.42912e-05ZM7.56754 12.2283C6.6415 12.2283 5.73624 11.9537 4.96626 11.4391C4.19629 10.9245 3.59616 10.1931 3.24178 9.33743C2.8874 8.48174 2.79471 7.54016 2.97537 6.63176C3.15603 5.72336 3.60194 4.88894 4.25675 4.23402C4.91156 3.5791 5.74584 3.13312 6.65409 2.95243C7.56234 2.77173 8.50377 2.86448 9.35932 3.21892C10.2149 3.57336 10.9461 4.17358 11.4606 4.94369C11.9751 5.71379 12.2497 6.61916 12.2497 7.54536C12.2497 8.78735 11.7564 9.97847 10.8783 10.8567C10.0003 11.7349 8.80933 12.2283 7.56754 12.2283Z" transform="translate(339.743 291.161)" fill="#6C63FF"/>
<path opacity="0.1" d="M7.56754 1.42912e-05C6.07082 1.42912e-05 4.60771 0.443903 3.36324 1.27557C2.11876 2.10724 1.14883 3.28932 0.576061 4.67233C0.00329211 6.05535 -0.146599 7.57719 0.145396 9.04539C0.437391 10.5136 1.15815 11.8622 2.21649 12.9207C3.27483 13.9792 4.62323 14.7001 6.09119 14.9921C7.55914 15.2842 9.08074 15.1343 10.4635 14.5614C11.8463 13.9886 13.0282 13.0185 13.8597 11.7738C14.6913 10.5291 15.1351 9.06576 15.1351 7.56879C15.1351 5.56143 14.3378 3.63628 12.9186 2.21686C11.4994 0.797437 9.57458 1.42912e-05 7.56754 1.42912e-05ZM7.56754 12.2283C6.6415 12.2283 5.73624 11.9537 4.96626 11.4391C4.19629 10.9245 3.59616 10.1931 3.24178 9.33743C2.8874 8.48174 2.79471 7.54016 2.97537 6.63176C3.15603 5.72336 3.60194 4.88894 4.25675 4.23402C4.91156 3.5791 5.74584 3.13312 6.65409 2.95243C7.56234 2.77173 8.50377 2.86448 9.35932 3.21892C10.2149 3.57336 10.9461 4.17358 11.4606 4.94369C11.9751 5.71379 12.2497 6.61916 12.2497 7.54536C12.2497 8.78735 11.7564 9.97847 10.8783 10.8567C10.0003 11.7349 8.80933 12.2283 7.56754 12.2283Z" transform="translate(339.743 291.161)" fill="black"/>
<path d="M8.57329e-06 7.14558e-06H29.1113V26.9268C29.1113 28.4405 28.5101 29.8922 27.44 30.9625C26.3698 32.0329 24.9184 32.6342 23.4049 32.6342H5.70639C4.19296 32.6342 2.74152 32.0329 1.67137 30.9625C0.601217 29.8922 8.57329e-06 28.4405 8.57329e-06 26.9268V7.14558e-06Z" transform="translate(318.176 285.337)" fill="#6C63FF"/>
<path d="M377.856 -1.57203e-05H0V12.8078H377.856V-1.57203e-05Z" transform="translate(0 317.947)" fill="#E0E0E0"/>
<g opacity="0.7">
<path opacity="0.7" d="M152.205 0H8.48641C3.7995 0 2.50054e-06 3.80012 2.50054e-06 8.48781V84.0586C2.50054e-06 88.7462 3.7995 92.5464 8.48641 92.5464H152.205C156.892 92.5464 160.692 88.7462 160.692 84.0586V8.48781C160.692 3.80012 156.892 0 152.205 0Z" transform="translate(108.579 225.401)" fill="url(#paint3_linear)"/>
</g>
<path d="M139.16 6.43102e-06H15.7086C7.033 6.43102e-06 0 7.03416 0 15.7112V75.1259C0 83.803 7.033 90.8371 15.7086 90.8371H139.16C147.835 90.8371 154.868 83.803 154.868 75.1259V15.7112C154.868 7.03416 147.835 6.43102e-06 139.16 6.43102e-06Z" transform="translate(111.494 227.111)" fill="#535461"/>
<path d="M5.23816 10.478C8.13112 10.478 10.4763 8.13246 10.4763 5.23903C10.4763 2.3456 8.13112 -2.85823e-06 5.23816 -2.85823e-06C2.3452 -2.85823e-06 3.5722e-06 2.3456 3.5722e-06 5.23903C3.5722e-06 8.13246 2.3452 10.478 5.23816 10.478Z" transform="translate(183.687 267.29)" fill="white"/>
<path d="M345.83 -7.14558e-06H0V5.23903H345.83V-7.14558e-06Z" transform="translate(16.013 330.761)" fill="#E0E0E0"/>
<path opacity="0.1" d="M345.83 -7.14558e-06H0V1.74441H345.83V-7.14558e-06Z" transform="translate(16.013 330.761)" fill="black"/>
<path opacity="0.1" d="M5.67712 7.14558e-06V26.9268C5.67712 28.4328 5.07899 29.877 4.01433 30.9418C2.94966 32.0067 1.50566 32.6049 -7.14441e-06 32.6049H2.92634C4.43201 32.6049 5.87601 32.0067 6.94068 30.9418C8.00534 29.877 8.60347 28.4328 8.60347 26.9268V7.14558e-06H5.67712Z" transform="translate(336.366 285.337)" fill="black"/>
<path d="M1.39637 0.767109C1.14674 0.774909 0.901923 0.83771 0.679354 0.951037C0.456786 1.06436 0.26194 1.22542 0.108766 1.42272C-0.271659 2.11345 0.418951 2.89785 1.05104 3.372C2.22158 4.25004 3.4448 5.1281 4.24077 6.33981C5.03674 7.55151 5.28254 9.26664 4.41634 10.4374C3.28677 11.971 0.582826 12.3047 0.319455 14.1896C0.149727 15.4013 1.19736 16.4374 2.26255 17.0461C4.88456 18.5505 8.26742 18.9486 10.1637 21.3018C10.948 19.6862 12.7096 18.7496 14.4596 18.3749C16.2096 18.0003 18.0297 18.0061 19.809 17.7369C20.1021 17.7315 20.3898 17.6566 20.6483 17.5181C20.9067 17.3797 21.1286 17.1818 21.2955 16.9408C21.793 15.9339 20.3767 14.7222 20.8683 13.7154C21.2429 12.9427 22.3315 13.0071 23.1274 12.6969C24.4267 12.1935 24.9593 10.5252 24.5906 9.18468C24.2219 7.84419 23.1801 6.79053 22.0856 5.93004C19.1593 3.58858 15.5892 2.24809 12.0015 1.24711C10.3334 0.790528 8.3728 0.0763844 6.6404 0.00614046C4.908 -0.0641035 3.07024 0.486134 1.39637 0.767109Z" transform="translate(322.504 262.865)" fill="#EEEEEE"/>
<g filter="url(#filter0_ii)">
<path d="M246.288 0H8C3.58172 0 -2.85776e-06 3.58172 -2.85776e-06 8V166.246C-2.85776e-06 170.664 3.58172 174.246 7.99999 174.246H246.288C250.706 174.246 254.288 170.664 254.288 166.246V8C254.288 3.58172 250.706 0 246.288 0Z" transform="translate(250.712)" fill="#474059"/>
</g>
<g opacity="0.5">
<path opacity="0.5" d="M57.2277 0H2.63372C1.17916 0 6.42997e-06 1.17935 6.42997e-06 2.63415V52.601C6.42997e-06 54.0558 1.17916 55.2351 2.63372 55.2351H57.2277C58.6822 55.2351 59.8614 54.0558 59.8614 52.601V2.63415C59.8614 1.17935 58.6822 0 57.2277 0Z" transform="translate(273.895 17.1626)" fill="url(#paint4_linear)"/>
</g>
<path d="M55.8465 0H2.63372C1.17916 0 6.42997e-06 1.17935 6.42997e-06 2.63415V51.2605C6.42997e-06 52.7153 1.17916 53.8947 2.63372 53.8947H55.8465C57.301 53.8947 58.4802 52.7153 58.4802 51.2605V2.63415C58.4802 1.17935 57.301 0 55.8465 0Z" transform="translate(274.626 17.5903)" fill="#F5F5F5"/>
<path d="M7.22808 0H2.63371C1.17915 0 -4.28664e-06 1.17935 -4.28664e-06 2.63415V6.24586C-4.28664e-06 7.70066 1.17915 8.88 2.63371 8.88H7.22808C8.68264 8.88 9.8618 7.70066 9.8618 6.24586V2.63415C9.8618 1.17935 8.68264 0 7.22808 0Z" transform="translate(279.133 26.4644)" fill="#6C63FF"/>
<path d="M38.739 0H0.468224C0.209636 0 -2.14332e-06 0.209661 -2.14332e-06 0.468292V0.520975C-2.14332e-06 0.779606 0.209636 0.98927 0.468224 0.98927H38.739C38.9976 0.98927 39.2072 0.779606 39.2072 0.520975V0.468292C39.2072 0.209661 38.9976 0 38.739 0Z" transform="translate(291.956 26.4644)" fill="#E0E0E0"/>
<path d="M38.739 0H0.468224C0.209636 0 -2.14332e-06 0.209662 -2.14332e-06 0.468293V0.520976C-2.14332e-06 0.779607 0.209636 0.989268 0.468224 0.989268H38.739C38.9976 0.989268 39.2072 0.779607 39.2072 0.520976V0.468293C39.2072 0.209662 38.9976 0 38.739 0Z" transform="translate(291.956 29.4263)" fill="#E0E0E0"/>
<path d="M52.5455 0H0.468209C0.20962 0 0 0.209661 0 0.468292V0.520977C0 0.779608 0.20962 0.989267 0.468209 0.989267H52.5455C52.8041 0.989267 53.0137 0.779608 53.0137 0.520977V0.468292C53.0137 0.209661 52.8041 0 52.5455 0Z" transform="translate(278.149 40.168)" fill="#E0E0E0"/>
<path d="M52.5455 0H0.468209C0.20962 0 0 0.209663 0 0.468294V0.520974C0 0.779605 0.20962 0.989269 0.468209 0.989269H52.5455C52.8041 0.989269 53.0137 0.779605 53.0137 0.520974V0.468294C53.0137 0.209663 52.8041 0 52.5455 0Z" transform="translate(278.149 43.124)" fill="#E0E0E0"/>
<path d="M52.5455 2.14367e-06H0.468209C0.20962 2.14367e-06 0 0.209661 0 0.468292V0.520978C0 0.779609 0.20962 0.989268 0.468209 0.989268H52.5455C52.8041 0.989268 53.0137 0.779609 53.0137 0.520978V0.468292C53.0137 0.209661 52.8041 2.14367e-06 52.5455 2.14367e-06Z" transform="translate(278.149 47.0693)" fill="#E0E0E0"/>
<path d="M30.1063 0H0.468209C0.20962 0 0 0.20966 0 0.468291V0.520976C0 0.779607 0.20962 0.989271 0.468209 0.989271H30.1063C30.3649 0.989271 30.5745 0.779607 30.5745 0.520976V0.468291C30.5745 0.20966 30.3649 0 30.1063 0Z" transform="translate(278.149 50.0312)" fill="#E0E0E0"/>
<path d="M52.5455 0H0.468209C0.20962 0 0 0.209661 0 0.468292V0.520977C0 0.779608 0.20962 0.989267 0.468209 0.989267H52.5455C52.8041 0.989267 53.0137 0.779608 53.0137 0.520977V0.468292C53.0137 0.209661 52.8041 0 52.5455 0Z" transform="translate(278.149 53.9648)" fill="#E0E0E0"/>
<path d="M52.5455 0H0.468209C0.20962 0 0 0.209664 0 0.468295V0.520975C0 0.779606 0.20962 0.98927 0.468209 0.98927H52.5455C52.8041 0.98927 53.0137 0.779606 53.0137 0.520975V0.468295C53.0137 0.209664 52.8041 0 52.5455 0Z" transform="translate(278.149 56.9268)" fill="#E0E0E0"/>
<path d="M52.5455 0H0.468209C0.20962 0 0 0.209662 0 0.468293V0.520974C0 0.779605 0.20962 0.989269 0.468209 0.989269H52.5455C52.8041 0.989269 53.0137 0.779605 53.0137 0.520974V0.468293C53.0137 0.209662 52.8041 0 52.5455 0Z" transform="translate(278.149 60.8726)" fill="#E0E0E0"/>
<path d="M30.1063 0H0.468209C0.20962 0 0 0.20966 0 0.468291V0.520976C0 0.779607 0.20962 0.989271 0.468209 0.989271H30.1063C30.3649 0.989271 30.5745 0.779607 30.5745 0.520976V0.468291C30.5745 0.20966 30.3649 0 30.1063 0Z" transform="translate(278.149 63.8286)" fill="#E0E0E0"/>
<g opacity="0.5">
<path opacity="0.5" d="M57.2277 0H2.63372C1.17916 0 7.85885e-06 1.17935 7.85885e-06 2.63415V52.601C7.85885e-06 54.0558 1.17916 55.2351 2.63372 55.2351H57.2277C58.6822 55.2351 59.8614 54.0558 59.8614 52.601V2.63415C59.8614 1.17935 58.6822 0 57.2277 0Z" transform="translate(282.931 29.9238)" fill="url(#paint5_linear)"/>
</g>
<path d="M55.8465 0H2.63372C1.17916 0 7.85885e-06 1.17935 7.85885e-06 2.63415V51.2605C7.85885e-06 52.7153 1.17916 53.8947 2.63372 53.8947H55.8465C57.301 53.8947 58.4802 52.7153 58.4802 51.2605V2.63415C58.4802 1.17935 57.301 0 55.8465 0Z" transform="translate(283.663 30.3511)" fill="white"/>
<path d="M7.22808 -1.96503e-06H2.63371C1.17915 -1.96503e-06 -2.85776e-06 1.17935 -2.85776e-06 2.63415V6.24586C-2.85776e-06 7.70066 1.17915 8.88 2.63371 8.88H7.22808C8.68264 8.88 9.8618 7.70066 9.8618 6.24586V2.63415C9.8618 1.17935 8.68264 -1.96503e-06 7.22808 -1.96503e-06Z" transform="translate(288.169 39.231)" fill="#6C63FF"/>
<path d="M38.739 -1.96504e-06H0.46822C0.209632 -1.96504e-06 1.14311e-05 0.209662 1.14311e-05 0.468293V0.520978C1.14311e-05 0.779609 0.209632 0.989268 0.46822 0.989268H38.739C38.9976 0.989268 39.2072 0.779609 39.2072 0.520978V0.468293C39.2072 0.209662 38.9976 -1.96504e-06 38.739 -1.96504e-06Z" transform="translate(300.987 39.231)" fill="#E0E0E0"/>
<path d="M38.739 0H0.46822C0.209632 0 1.14311e-05 0.209663 1.14311e-05 0.468294V0.520975C1.14311e-05 0.779606 0.209632 0.98927 0.46822 0.98927H38.739C38.9976 0.98927 39.2072 0.779606 39.2072 0.520975V0.468294C39.2072 0.209663 38.9976 0 38.739 0Z" transform="translate(300.987 42.1875)" fill="#E0E0E0"/>
<path d="M52.5455 0H0.468222C0.209634 0 -4.28664e-06 0.209663 -4.28664e-06 0.468294V0.520974C-4.28664e-06 0.779605 0.209634 0.989269 0.468222 0.989269H52.5455C52.8041 0.989269 53.0137 0.779605 53.0137 0.520974V0.468294C53.0137 0.209663 52.8041 0 52.5455 0Z" transform="translate(287.18 52.9287)" fill="#E0E0E0"/>
<path d="M52.5455 1.96504e-06H0.468222C0.209634 1.96504e-06 -4.28664e-06 0.209661 -4.28664e-06 0.468292V0.520977C-4.28664e-06 0.779608 0.209634 0.989268 0.468222 0.989268H52.5455C52.8041 0.989268 53.0137 0.779608 53.0137 0.520977V0.468292C53.0137 0.209661 52.8041 1.96504e-06 52.5455 1.96504e-06Z" transform="translate(287.18 55.8906)" fill="#E0E0E0"/>
<path d="M52.5455 0H0.468222C0.209634 0 -4.28664e-06 0.20966 -4.28664e-06 0.468291V0.520976C-4.28664e-06 0.779607 0.209634 0.989271 0.468222 0.989271H52.5455C52.8041 0.989271 53.0137 0.779607 53.0137 0.520976V0.468291C53.0137 0.20966 52.8041 0 52.5455 0Z" transform="translate(287.18 59.8364)" fill="#E0E0E0"/>
<path d="M30.1063 -1.96504e-06H0.468222C0.209634 -1.96504e-06 -4.28664e-06 0.209662 -4.28664e-06 0.468293V0.520978C-4.28664e-06 0.779609 0.209634 0.989268 0.468222 0.989268H30.1063C30.3649 0.989268 30.5745 0.779609 30.5745 0.520978V0.468293C30.5745 0.209662 30.3649 -1.96504e-06 30.1063 -1.96504e-06Z" transform="translate(287.18 62.792)" fill="#E0E0E0"/>
<path d="M52.5455 0H0.468222C0.209634 0 -4.28664e-06 0.209664 -4.28664e-06 0.468295V0.520975C-4.28664e-06 0.779606 0.209634 0.98927 0.468222 0.98927H52.5455C52.8041 0.98927 53.0137 0.779606 53.0137 0.520975V0.468295C53.0137 0.209664 52.8041 0 52.5455 0Z" transform="translate(287.18 66.7319)" fill="#E0E0E0"/>
<path d="M52.5455 0H0.468222C0.209634 0 -4.28664e-06 0.209661 -4.28664e-06 0.468292V0.520977C-4.28664e-06 0.779608 0.209634 0.989267 0.468222 0.989267H52.5455C52.8041 0.989267 53.0137 0.779608 53.0137 0.520977V0.468292C53.0137 0.209661 52.8041 0 52.5455 0Z" transform="translate(287.18 69.688)" fill="#E0E0E0"/>
<path d="M52.5455 0H0.468222C0.209634 0 -4.28664e-06 0.20966 -4.28664e-06 0.468291V0.520976C-4.28664e-06 0.779607 0.209634 0.989271 0.468222 0.989271H52.5455C52.8041 0.989271 53.0137 0.779607 53.0137 0.520976V0.468291C53.0137 0.20966 52.8041 0 52.5455 0Z" transform="translate(287.18 73.6328)" fill="#E0E0E0"/>
<path d="M30.1063 3.57279e-06H0.468222C0.209634 3.57279e-06 -4.28664e-06 0.209658 -4.28664e-06 0.468289V0.520979C-4.28664e-06 0.77961 0.209634 0.989265 0.468222 0.989265H30.1063C30.3649 0.989265 30.5745 0.77961 30.5745 0.520979V0.468289C30.5745 0.209658 30.3649 3.57279e-06 30.1063 3.57279e-06Z" transform="translate(287.18 76.5947)" fill="#E0E0E0"/>
<path d="M32.9682 0H1.28599e-05V31.68H32.9682V0Z" transform="translate(367.526 38.2827)" fill="url(#paint6_linear)"/>
<path d="M31.9323 0H-1.42888e-05V30.2576H31.9323V0Z" transform="translate(368.047 39.0557)" fill="#F5F5F5"/>
<g opacity="0.5">
<path opacity="0.5" d="M9.60429 1.55122V2.85823e-06H3.95643V1.55122H-2.85776e-06V9.16098H13.5549V1.55122H9.60429ZM4.65876 0.561949H8.89611V1.55122H4.65876V0.561949Z" transform="translate(377.23 42.8081)" fill="url(#paint7_linear)"/>
</g>
<path opacity="0.6" d="M12.4136 0H1.71466e-05V6.98342H12.4136V0Z" transform="translate(377.809 44.6167)" fill="#6C63FF"/>
<path opacity="0.6" d="M1.28599e-05 5.35919e-07V1.80878H0.649654V0.515121H4.52414V1.80878H5.17378V5.35919e-07H1.28599e-05Z" transform="translate(381.426 43.1943)" fill="#6C63FF"/>
<g opacity="0.6">
<path opacity="0.6" d="M11.5064 0H-5.71553e-06V1.55122H11.5064V0Z" transform="translate(378.517 57.0322)" fill="#6C63FF"/>
</g>
<path d="M19.6533 0H1.57177e-05V1.55122H19.6533V0Z" transform="translate(374.186 59.877)" fill="#BDBDBD"/>
<g opacity="0.5">
<path opacity="0.5" d="M71.8945 0H-1.42888e-05V84.48H71.8945V0Z" transform="translate(415.6 10.5596)" fill="url(#paint8_linear)"/>
</g>
<path d="M68.1547 0H-2.85776e-06V81.2547H68.1547V0Z" transform="translate(417.807 11.918)" fill="white"/>
<g opacity="0.5">
<path opacity="0.5" d="M12.6126 2.04293V-1.7864e-06H5.19721V2.04293H7.14441e-06V12.0703H17.8215V2.04293H12.6126ZM6.11608 0.743416H11.6878V2.04293H6.11608V0.743416Z" transform="translate(442.973 22.7998)" fill="url(#paint9_linear)"/>
</g>
<path d="M16.3173 0H-1.57177e-05V9.17854H16.3173V0Z" transform="translate(443.728 25.1768)" fill="#6C63FF"/>
<path d="M-1.28599e-05 -1.7864e-07V2.37659H0.848635V0.679024H5.94635V2.37659H6.795V-1.7864e-07H-1.28599e-05Z" transform="translate(448.486 23.3091)" fill="#6C63FF"/>
<path d="M47.9277 0H-1.28599e-05V2.03707H47.9277V0Z" transform="translate(428.002 47.5669)" fill="#E0E0E0"/>
<path d="M47.9277 0H-1.28599e-05V2.03707H47.9277V0Z" transform="translate(428.002 60.9951)" fill="#E0E0E0"/>
<path d="M47.9277 0H-1.28599e-05V2.03707H47.9277V0Z" transform="translate(428.002 64.5654)" fill="#E0E0E0"/>
<path d="M20.2269 0H-1.28599e-05V2.03707H20.2269V0Z" transform="translate(428.002 57.4302)" fill="#E0E0E0"/>
<path opacity="0.6" d="M15.1234 0H1.57177e-05V2.03707H15.1234V0Z" transform="translate(460.806 57.4302)" fill="#3AD29F"/>
<path d="M15.1234 0H-1.28599e-05V2.03707H15.1234V0Z" transform="translate(444.828 72.8955)" fill="#6C63FF"/>
<g opacity="0.5">
<path opacity="0.5" d="M42.7188 3.93007e-06H-4.28664e-06V35.0927H42.7188V3.93007e-06Z" transform="translate(373.654 118.806)" fill="url(#paint10_linear)"/>
</g>
<path d="M41.6361 -2.14367e-06H1.71466e-05V33.8459H41.6361V-2.14367e-06Z" transform="translate(374.151 119.467)" fill="#F2F2F2"/>
<path d="M41.6361 -2.14367e-06H1.71466e-05V7.55123H41.6361V-2.14367e-06Z" transform="translate(374.151 119.467)" fill="#6C63FF"/>
<path opacity="0.1" d="M41.6361 -2.14367e-06H1.71466e-05V7.55123H41.6361V-2.14367e-06Z" transform="translate(374.151 119.467)" fill="black"/>
<path d="M35.005 2.14367e-06H7.14441e-06V4.3961H35.005V2.14367e-06Z" transform="translate(377.47 129.752)" fill="#E0E0E0"/>
<path d="M25.547 -2.14367e-06H7.14441e-06V1.49268H25.547V-2.14367e-06Z" transform="translate(377.47 137.467)" fill="#E0E0E0"/>
<path d="M16.5865 3.21551e-06H7.14441e-06V1.49268H16.5865V3.21551e-06Z" transform="translate(377.47 140.042)" fill="#E0E0E0"/>
<path d="M21.8949 2.85823e-06H7.14441e-06V1.49268H21.8949V2.85823e-06Z" transform="translate(377.47 142.613)" fill="#E0E0E0"/>
<path d="M25.547 2.50095e-06H7.14441e-06V1.49269H25.547V2.50095e-06Z" transform="translate(377.47 145.183)" fill="#E0E0E0"/>
<path d="M8.54493 0H7.14441e-06V1.49268H8.54493V0Z" transform="translate(377.47 147.758)" fill="#E0E0E0"/>
<g opacity="0.5">
<path opacity="0.5" d="M52.9435 0H-1.1431e-05V43.4927H52.9435V0Z" transform="translate(346.907 105.934)" fill="url(#paint11_linear)"/>
</g>
<path d="M51.6091 -2.85823e-06H1.71466e-05V41.9532H51.6091V-2.85823e-06Z" transform="translate(347.521 106.753)" fill="white"/>
<path d="M51.6091 -2.85823e-06H1.71466e-05V9.35415H51.6091V-2.85823e-06Z" transform="translate(347.521 106.753)" fill="#6C63FF"/>
<path d="M43.3861 2.14367e-06H0V5.44976H43.3861V2.14367e-06Z" transform="translate(351.636 119.508)" fill="#F5F5F5"/>
<path d="M31.6631 3.21551e-06H0V1.84975H31.6631V3.21551e-06Z" transform="translate(351.636 129.067)" fill="#E0E0E0"/>
<path d="M20.5605 0H0V1.84976H20.5605V0Z" transform="translate(351.636 132.258)" fill="#E0E0E0"/>
<path d="M27.139 2.85823e-06H0V1.84975H27.139V2.85823e-06Z" transform="translate(351.636 135.442)" fill="#E0E0E0"/>
<path d="M31.6631 0H0V1.84976H31.6631V0Z" transform="translate(351.636 138.632)" fill="#E0E0E0"/>
<path d="M10.5875 2.50095e-06H0V1.84975H10.5875V2.50095e-06Z" transform="translate(351.636 141.817)" fill="#E0E0E0"/>
<path d="M12.3375 4.28735e-06H-1.00022e-05V1.64488H12.3375V4.28735e-06Z" transform="translate(353.895 121.358)" fill="#69F0AE"/>
<path opacity="0.1" d="M7.14614 14.2946C11.0928 14.2946 14.2923 11.0947 14.2923 7.14732C14.2923 3.19997 11.0928 -8.5747e-06 7.14614 -8.5747e-06C3.19943 -8.5747e-06 2.14332e-06 3.19997 2.14332e-06 7.14732C2.14332e-06 11.0947 3.19943 14.2946 7.14614 14.2946Z" transform="translate(267.562 207.138)" fill="#535461"/>
<path opacity="0.1" d="M7.14614 14.2946C11.0928 14.2946 14.2923 11.0947 14.2923 7.14732C14.2923 3.19996 11.0928 3.57279e-06 7.14614 3.57279e-06C3.19944 3.57279e-06 3.5722e-06 3.19996 3.5722e-06 7.14732C3.5722e-06 11.0947 3.19944 14.2946 7.14614 14.2946Z" transform="translate(280.842 184.156)" fill="#535461"/>
<defs>
<filter id="filter0_ii" x="250.712" y="0" width="254.288" height="174.246" filterUnits="userSpaceOnUse" color-interpolation-filters="sRGB">
<feFlood flood-opacity="0" result="BackgroundImageFix"/>
<feBlend mode="normal" in="SourceGraphic" in2="BackgroundImageFix" result="shape"/>
<feColorMatrix in="SourceAlpha" type="matrix" values="0 0 0 0 0 0 0 0 0 0 0 0 0 0 0 0 0 0 255 0" result="hardAlpha"/>
<feOffset dy="2"/>
<feComposite in2="hardAlpha" operator="arithmetic" k2="-1" k3="1"/>
<feColorMatrix type="matrix" values="0 0 0 0 1 0 0 0 0 1 0 0 0 0 1 0 0 0 0.1 0"/>
<feBlend mode="normal" in2="shape" result="effect1_innerShadow"/>
<feColorMatrix in="SourceAlpha" type="matrix" values="0 0 0 0 0 0 0 0 0 0 0 0 0 0 0 0 0 0 255 0" result="hardAlpha"/>
<feOffset dy="-2"/>
<feComposite in2="hardAlpha" operator="arithmetic" k2="-1" k3="1"/>
<feColorMatrix type="matrix" values="0 0 0 0 0 0 0 0 0 0 0 0 0 0 0 0 0 0 0.3 0"/>
<feBlend mode="normal" in2="effect1_innerShadow" result="effect2_innerShadow"/>
</filter>
<linearGradient id="paint0_linear" x2="1" gradientUnits="userSpaceOnUse" gradientTransform="translate(-41.2586 218.54) scale(218.487 218.523) rotate(-90)">
<stop stop-color="#808080" stop-opacity="0.25"/>
<stop offset="0.54" stop-color="#808080" stop-opacity="0.12"/>
<stop offset="1" stop-color="#808080" stop-opacity="0.1"/>
</linearGradient>
<linearGradient id="paint1_linear" x2="1" gradientUnits="userSpaceOnUse" gradientTransform="translate(9971.06 50774.5) scale(3812.53 6842.95)">
<stop stop-color="#808080" stop-opacity="0.25"/>
<stop offset="0.54" stop-color="#808080" stop-opacity="0.12"/>
<stop offset="1" stop-color="#808080" stop-opacity="0.1"/>
</linearGradient>
<linearGradient id="paint2_linear" x2="1" gradientUnits="userSpaceOnUse" gradientTransform="translate(28643.4 25313.9) scale(2450.77 2178.86) rotate(-90)">
<stop stop-color="#808080" stop-opacity="0.25"/>
<stop offset="0.54" stop-color="#808080" stop-opacity="0.12"/>
<stop offset="1" stop-color="#808080" stop-opacity="0.1"/>
</linearGradient>
<linearGradient id="paint3_linear" x2="1" gradientUnits="userSpaceOnUse" gradientTransform="translate(39168.6 50267.5) scale(25405.4 14631.6) rotate(-90)">
<stop stop-color="#808080" stop-opacity="0.25"/>
<stop offset="0.54" stop-color="#808080" stop-opacity="0.12"/>
<stop offset="1" stop-color="#808080" stop-opacity="0.1"/>
</linearGradient>
<linearGradient id="paint4_linear" x2="1" gradientUnits="userSpaceOnUse" gradientTransform="translate(28251 6831.48) scale(5648.52 5211.99) rotate(-90)">
<stop stop-color="#808080" stop-opacity="0.25"/>
<stop offset="0.54" stop-color="#808080" stop-opacity="0.12"/>
<stop offset="1" stop-color="#808080" stop-opacity="0.1"/>
</linearGradient>
<linearGradient id="paint5_linear" x2="1" gradientUnits="userSpaceOnUse" gradientTransform="translate(29175.2 8035.61) scale(5648.52 5211.99) rotate(-90)">
<stop stop-color="#808080" stop-opacity="0.25"/>
<stop offset="0.54" stop-color="#808080" stop-opacity="0.12"/>
<stop offset="1" stop-color="#808080" stop-opacity="0.1"/>
</linearGradient>
<linearGradient id="paint6_linear" x2="1" gradientUnits="userSpaceOnUse" gradientTransform="translate(20739.3 3786.4) scale(1784.24 1714.52) rotate(-90)">
<stop stop-color="#808080" stop-opacity="0.25"/>
<stop offset="0.54" stop-color="#808080" stop-opacity="0.12"/>
<stop offset="1" stop-color="#808080" stop-opacity="0.1"/>
</linearGradient>
<linearGradient id="paint7_linear" x2="1" gradientUnits="userSpaceOnUse" gradientTransform="translate(11072.5 2306.83) scale(212.54 143.644) rotate(-90)">
<stop stop-color="#808080" stop-opacity="0.25"/>
<stop offset="0.54" stop-color="#808080" stop-opacity="0.12"/>
<stop offset="1" stop-color="#808080" stop-opacity="0.1"/>
</linearGradient>
<linearGradient id="paint8_linear" x2="1" gradientUnits="userSpaceOnUse" gradientTransform="translate(50279.4 13716.2) scale(10375.8 12192.2) rotate(-90)">
<stop stop-color="#808080" stop-opacity="0.25"/>
<stop offset="0.54" stop-color="#808080" stop-opacity="0.12"/>
<stop offset="1" stop-color="#808080" stop-opacity="0.1"/>
</linearGradient>
<linearGradient id="paint9_linear" x2="1" gradientUnits="userSpaceOnUse" gradientTransform="translate(16580.4 2686.48) scale(367.479 248.889) rotate(-90)">
<stop stop-color="#808080" stop-opacity="0.25"/>
<stop offset="0.54" stop-color="#808080" stop-opacity="0.12"/>
<stop offset="1" stop-color="#808080" stop-opacity="0.1"/>
</linearGradient>
<linearGradient id="paint10_linear" x2="1" gradientUnits="userSpaceOnUse" gradientTransform="translate(27551.5 9225.87) scale(2560.57 2103.46) rotate(-90)">
<stop stop-color="#808080" stop-opacity="0.25"/>
<stop offset="0.54" stop-color="#808080" stop-opacity="0.12"/>
<stop offset="1" stop-color="#808080" stop-opacity="0.1"/>
</linearGradient>
<linearGradient id="paint11_linear" x2="1" gradientUnits="userSpaceOnUse" gradientTransform="translate(31809 11102.4) scale(3933.7 3231.51) rotate(-90)">
<stop stop-color="#808080" stop-opacity="0.25"/>
<stop offset="0.54" stop-color="#808080" stop-opacity="0.12"/>
<stop offset="1" stop-color="#808080" stop-opacity="0.1"/>
</linearGradient>
</defs>
</svg>
