<svg xmlns="http://www.w3.org/2000/svg" width="23" height="32" viewBox="0 0 23 32">
  <metadata><?xpacket begin="﻿" id="W5M0MpCehiHzreSzNTczkc9d"?>
<x:xmpmeta xmlns:x="adobe:ns:meta/" x:xmptk="Adobe XMP Core 5.6-c138 79.159824, 2016/09/14-01:09:01        ">
   <rdf:RDF xmlns:rdf="http://www.w3.org/1999/02/22-rdf-syntax-ns#">
      <rdf:Description rdf:about=""/>
   </rdf:RDF>
</x:xmpmeta>
                                                                                                    
                                                                                                    
                                                                                                    
                                                                                                    
                                                                                                    
                                                                                                    
                                                                                                    
                                                                                                    
                                                                                                    
                                                                                                    
                                                                                                    
                                                                                                    
                                                                                                    
                                                                                                    
                                                                                                    
                                                                                                    
                                                                                                    
                                                                                                    
                                                                                                    
                                                                                                    
                           
<?xpacket end="w"?></metadata>
<defs>
    <style>
      .cls-1 {
        fill: #fff;
        fill-rule: evenodd;
      }
    </style>
  </defs>
  <path class="cls-1" d="M30.615,527H24.423A4.439,4.439,0,0,0,20,531.444v23.111A4.438,4.438,0,0,0,24.423,559H38.577A4.438,4.438,0,0,0,43,554.555V531.444A4.439,4.439,0,0,0,38.577,527H32.385m-4.423,24.889A0.889,0.889,0,1,1,28.846,551,0.886,0.886,0,0,1,27.961,551.888Zm3.539,0A0.889,0.889,0,1,1,32.385,551,0.886,0.886,0,0,1,31.5,551.888Zm3.538,0A0.889,0.889,0,1,1,35.923,551,0.886,0.886,0,0,1,35.039,551.888Zm4.423-6.222a0.887,0.887,0,0,1-.884.889H35.923v-2.667a0.885,0.885,0,1,0-1.769,0v2.667H32.385v-8a0.885,0.885,0,1,0-1.769,0v8H28.846V542.11a0.885,0.885,0,1,0-1.769,0v4.445H24.423a0.886,0.886,0,0,1-.885-0.889V535a0.886,0.886,0,0,1,.885-0.889H38.577a0.886,0.886,0,0,1,.884.889v10.666Z" transform="translate(-20 -527)"/>
</svg>
