<svg width="36" height="60" viewBox="0 0 36 60" fill="none" xmlns="http://www.w3.org/2000/svg">
<path d="M30.4522 12.8892V0L23.5312 6.84431L17.9945 1.36886L12.4577 6.84431L5.53676 0V12.8892H0V42.2048L17.9945 60L24.5168 53.5499L30.0535 47.965L36 42.2048V12.8892H30.4522ZM5.53676 43.8036L2.76838 41.0659V15.6269H5.53676V43.8036ZM11.0735 49.2791L8.30514 46.5413V33.9916L11.0735 36.7293V49.2791ZM22.147 52.0168L17.9945 56.1234L13.8419 52.0168V39.4671L17.9945 43.5736L22.147 39.4452V52.0168ZM22.147 35.5685L17.9945 39.697L13.8419 35.5904V33.9916L17.9945 29.885L22.147 33.9916V35.5685ZM27.6838 46.4428L24.9154 49.2353V36.6965L27.6838 33.9697V46.4428ZM27.6838 30.115L24.9043 32.8527L19.9434 27.9467L22.136 25.7784V23.0407L27.263 17.9704L25.303 16.0321L19.3787 21.9018V23.8401H16.6103V21.9018L10.6638 16.0212L8.71486 17.9595L13.8419 23.0298V25.7675L16.0345 27.9358L11.0735 32.8527L8.30514 30.115V15.6269H27.6838V30.115ZM27.6838 12.8892H8.30514V6.61435L12.4577 10.7209L17.9945 5.24548L23.5312 10.7209L27.6838 6.61435V12.8892ZM33.2205 41.0549L30.4522 43.7379V15.6269H33.2205V41.0549Z" fill="white"/>
</svg>
